<svg width="18" height="18" viewBox="0 0 18 18" fill="none" xmlns="http://www.w3.org/2000/svg">
<g id="17 - American Football">
<g id="Group">
<path id="Vector" d="M6.17583 18H2.78668C1.25011 18 0 16.7499 0 15.2133V11.8242C0 5.28745 5.31024 0 11.8242 0H15.2133C16.7499 0 18 1.25011 18 2.78668V6.17583C18 12.7126 12.6898 18 6.17583 18Z" fill="#583640"/>
<path id="Vector_2" d="M6.17583 18C12.6898 18 18 12.7126 18 6.17583V2.78668C18 2.01846 17.6874 1.32179 17.1829 0.817108L0.817108 17.1829C1.32179 17.6874 2.01846 18 2.78668 18H6.17583Z" fill="#844A4A"/>
<path id="Vector_3" d="M5.98384 12.0162C5.77785 11.8103 5.77785 11.4763 5.98384 11.2705L11.2705 5.98384C11.4763 5.77785 11.8103 5.77785 12.0162 5.98384C12.2222 6.1897 12.2222 6.52368 12.0162 6.72954L6.72954 12.0162C6.52354 12.2222 6.1897 12.222 5.98384 12.0162Z" fill="#CBCFD7"/>
<path id="Vector_4" d="M6.72954 12.0162L12.0162 6.72953C12.2222 6.52367 12.2222 6.18969 12.0162 5.98383L5.98384 12.0162C6.1897 12.222 6.52354 12.2222 6.72954 12.0162Z" fill="#B9BEC8"/>
<path id="Vector_5" d="M17.9675 7.05448L10.9455 0.0325623C9.56593 0.134323 8.25128 0.4738 7.04224 1.0098L16.9908 10.9583C17.5264 9.75025 17.8658 8.43573 17.9675 7.05448Z" fill="#C69687"/>
<path id="Vector_6" d="M10.9578 16.9902L1.00923 7.04169C0.473648 8.24977 0.134171 9.56429 0.032547 10.9455L7.05446 17.9675C8.43407 17.8657 9.74872 17.5262 10.9578 16.9902Z" fill="#C69687"/>
<path id="Vector_7" d="M17.9675 7.05445L14.4565 3.54349L12.0162 5.98383L16.9908 10.9585C17.5264 9.75022 17.8658 8.4357 17.9675 7.05445Z" fill="#B0705B"/>
<path id="Vector_8" d="M10.9578 16.9902L5.98384 12.0162L3.5435 14.4565L7.05446 17.9675C8.43407 17.8657 9.74872 17.5262 10.9578 16.9902Z" fill="#B0705B"/>
<path id="Vector_9" d="M8.06232 12.197L5.80285 9.93767C5.59699 9.73182 5.59699 9.39783 5.80285 9.19198C6.00884 8.98598 6.34269 8.98598 6.54868 9.19198L8.80802 11.4513C9.01401 11.6572 9.01401 11.9912 8.80802 12.197C8.60202 12.4032 8.26818 12.403 8.06232 12.197Z" fill="#F0F2F4"/>
<path id="Vector_10" d="M9.75682 10.5025L7.49735 8.24318C7.29149 8.03719 7.29149 7.70334 7.49735 7.49735C7.70334 7.29149 8.03719 7.29149 8.24318 7.49735L10.5025 9.75682C10.7085 9.96268 10.7085 10.2967 10.5025 10.5025C10.2967 10.7087 9.96268 10.7085 9.75682 10.5025Z" fill="#F0F2F4"/>
<path id="Vector_11" d="M11.4513 8.80803L9.19199 6.54869C8.98599 6.3427 8.98599 6.00885 9.19199 5.80286C9.39784 5.597 9.73183 5.597 9.93768 5.80286L12.1972 8.06233C12.403 8.26819 12.403 8.60217 12.1972 8.80803C11.991 9.01402 11.6572 9.01402 11.4513 8.80803Z" fill="#F0F2F4"/>
<path id="Vector_12" d="M8.80801 12.197C9.01401 11.9912 9.01401 11.6573 8.80801 11.4513L7.67834 10.3217L6.93265 11.0674L8.06232 12.197C8.26817 12.403 8.60202 12.4032 8.80801 12.197Z" fill="#DEE1E5"/>
<path id="Vector_13" d="M10.5025 10.5025C10.7085 10.2967 10.7085 9.9628 10.5025 9.75681L9.37285 8.62714L8.62715 9.37284L9.75682 10.5025C9.96268 10.7085 10.2967 10.7086 10.5025 10.5025Z" fill="#DEE1E5"/>
<path id="Vector_14" d="M12.197 8.80801C12.403 8.60216 12.403 8.26817 12.197 8.06232L11.0674 6.93265L10.3217 7.67834L11.4513 8.80801C11.6572 9.01401 11.991 9.01401 12.197 8.80801Z" fill="#DEE1E5"/>
</g>
</g>
</svg>
