<svg width="46" height="46" viewBox="0 0 46 46" fill="none" xmlns="http://www.w3.org/2000/svg">
<path d="M23.2071 25.6711C28.2005 27.0496 31.9236 27.6994 31.9236 27.6994C29.7817 25.5567 27.8651 23.3533 26.2059 21.2695C29.1042 17.1712 31.3881 14.3353 31.3881 14.3353C28.3131 15.0137 25.4053 15.849 22.8042 16.7024C20.3322 13.1517 18.9753 10.6511 18.9753 10.6511C18.2527 13.3172 17.9035 15.9885 17.7866 18.4951C13.6562 20.0937 11.0733 21.4029 11.0733 21.4029C13.3079 22.4089 15.6265 23.2883 17.8723 24.0439C18.2362 28.8666 19.211 32.2145 19.211 32.2145C20.463 29.9774 21.839 27.7532 23.2071 25.6711Z" fill="white"/>
<path d="M46 24.4069C45.3207 25.47 44.2818 26.2291 43.067 26.7611C42.9007 23.3507 42.3791 20.3337 42.3791 20.3337C41.3419 23.1358 40.2398 25.6217 39.1758 27.7679C35.5168 28.2392 31.9236 27.6994 31.9236 27.6994C33.8948 30.0631 35.4249 31.4642 36.6639 32.4112C34.8106 35.5348 33.4659 37.2036 33.4659 37.2036C36.0592 36.61 38.1179 35.6266 39.7563 34.4595C40.427 34.9205 41.004 35.4334 41.5733 36.3042C41.5733 36.3042 42.6303 34.8043 42.9925 31.3333C45.6118 27.9082 46 24.4069 46 24.4069Z" fill="white"/>
<path d="M44.8043 14.9539C43.6372 12.3294 41.9563 10.3505 40.1229 8.85757C38.558 5.57457 36.7602 4.05742 36.7602 4.05742C36.9118 4.81383 36.7965 5.66901 36.5167 6.55193C32.6228 4.62147 29.0721 4.35374 29.0721 4.35374C31.3336 5.83624 33.3411 7.67312 35.0654 9.56806C33.4772 12.1536 31.3881 14.3353 31.3881 14.3353C34.1573 13.7114 36.3858 13.448 38.169 13.4004C40.9035 17.1686 42.3791 20.3337 42.3791 20.3337C42.4311 17.7864 42.1764 15.5648 41.7527 13.6464C44.067 14.0892 44.8043 14.9539 44.8043 14.9539Z" fill="white"/>
<path d="M29.0721 4.35374C27.1832 3.40411 25.3767 2.74213 23.6949 2.28724C25.835 0.478086 27.8244 0.0188751 27.8244 0.0188751C24.3889 -0.118026 21.4326 0.503216 18.9615 1.45545C15.2678 1.15999 12.9154 1.8003 12.9154 1.8003C13.469 2.2162 13.9352 2.96134 14.4135 3.85379C11.2925 5.98873 9.70688 8.21552 9.70688 8.21552C11.5888 7.28322 13.5843 6.5736 15.5528 6.03466C15.7677 6.42803 15.993 6.82313 16.2408 7.20696C17.5431 9.23533 18.9753 10.6511 18.9753 10.6511C19.4848 8.21899 20.3634 6.32579 21.3763 4.85629C25.7666 4.2463 29.0721 4.35374 29.0721 4.35374Z" fill="white"/>
<path d="M5.36249 11.8451C6.53913 10.7065 7.97051 9.48139 9.70689 8.2155C9.70689 8.2155 8.10828 8.21549 6.41436 8.64612C7.53382 5.93672 8.77545 4.43343 8.77545 4.43343C8.77545 4.43343 1.64801 9.50305 0.295471 18.6112C0.295471 18.6112 0.894188 16.9658 2.92342 14.4791C3.73096 16.2856 4.6572 17.4233 4.6572 17.4233C4.67193 15.3447 4.95352 13.4749 5.36249 11.8451Z" fill="white"/>
<path d="M11.0733 21.4029C8.59955 21.4818 6.66043 21.6967 5.14933 21.9731C4.7239 19.3269 4.65718 17.4233 4.65718 17.4233C3.43635 19.2879 2.64615 21.0849 2.1566 22.7598C0.432362 23.3984 0 24.017 0 24.017C0.267735 24.9346 0.804934 25.827 1.48337 26.6632C1.27109 30.6298 2.55431 33.2491 2.55431 33.2491C2.84283 31.8593 3.41816 30.5076 4.14078 29.2426C6.2506 30.9331 8.34048 32.0369 8.34048 32.0369C7.35619 30.2711 6.63096 28.2956 6.09896 26.3816C8.46525 23.4114 11.0733 21.4029 11.0733 21.4029Z" fill="white"/>
<path d="M23.3111 41.6597C23.3111 41.6597 21.2368 40.8323 18.2657 39.1574C18.3697 37.3708 18.647 35.0981 19.211 32.2145C19.211 32.2145 16.8499 34.5496 13.7922 36.3605C12.0186 35.1362 10.1523 33.6944 8.3405 32.0369C8.3405 32.0369 9.22255 34.7619 10.9217 37.7615C9.30833 38.3646 7.64647 38.6445 6.12671 38.2728C6.12671 38.2728 7.922 40.5143 13.4595 41.4665C14.9966 43.2869 16.8655 44.7928 19.0499 45.317C19.0499 45.317 18.3922 44.5935 18.2458 41.885C19.7569 41.9067 21.4395 41.8408 23.3111 41.6597Z" fill="white"/>
<path d="M33.3489 41.431C33.8237 39.2406 33.4659 37.2036 33.4659 37.2036C32.0666 39.2189 30.6898 40.7517 29.4152 41.9205C25.9867 42.0973 23.3111 41.6597 23.3111 41.6597C23.3111 41.6597 24.8421 43.189 26.6062 44.0711C24.2763 45.512 22.7149 45.6394 22.7149 45.6394C32.914 45.856 39.0346 39.1981 39.0346 39.1981C37.3164 40.3323 35.3262 41.0238 33.3489 41.431Z" fill="white"/>
</svg>
