<svg width="46" height="46" viewBox="0 0 46 46" fill="none" xmlns="http://www.w3.org/2000/svg">
<path d="M27.2424 23.0787C28.1386 12.4486 32.5664 2.94294 32.9158 2.13008C31.2787 1.28992 29.4865 0.832678 28.8699 0.672216C26.568 11.3168 27.1726 21.3986 27.2424 23.0787ZM20.371 28.854C19.6517 24.3576 18.201 19.0974 18.201 19.0974C20.1066 30.7521 16.9672 40.0334 16.9672 40.0334H28.9473C23.3902 19.6244 27.6281 1.21695 27.7911 0.436736C26.8683 0.229587 24.966 0.0241387 23.7198 0.00680066C23.59 17.4022 26.7419 28.854 26.7419 28.854H25.46C22.6703 17.5167 22.3924 3.24878 22.479 0C20.2172 0.0166581 18.422 0.38155 18.422 0.38155L24.1807 28.854H22.9083C22.9083 28.854 17.4942 2.08611 17.2008 0.634708C15.0503 1.14499 13.6763 1.79715 13 2.13008C19.1339 13.3071 21.6404 28.854 21.6404 28.854H20.371ZM16.382 41.9612L14.9274 45.9349H30.9885L29.5368 41.9612H16.382Z" fill="white"/>
<path d="M34.5684 6.80994L33.4234 10.7061C37.7377 13.8646 40.5468 18.9632 40.5468 24.7075C40.5468 30.9849 37.1951 36.4941 32.1875 39.5395L33.5092 43.236C40.0063 39.6136 44.4013 32.6744 44.4013 24.7077C44.4013 17.1817 40.4795 10.5723 34.5684 6.80994ZM5.8547 24.7075C5.8547 18.9631 8.66368 13.8646 12.978 10.7061L11.833 6.80994C5.92191 10.5722 2 17.1817 2 24.7077C2 32.6744 6.39524 39.6136 12.8922 43.236L14.2141 39.5395C9.20638 36.4941 5.8547 30.9849 5.8547 24.7075Z" fill="#00BE14"/>
</svg>
