<svg width="20" height="20" viewBox="0 0 20 20" fill="none" xmlns="http://www.w3.org/2000/svg">
<path d="M9.98277 3.12821C8.93198 3.12689 7.88465 3.24736 6.86208 3.48718C5.87206 3.7186 4.91601 4.07478 4.01725 4.54701C3.95187 4.58005 3.89566 4.6285 3.85357 4.68811C3.81149 4.74772 3.78481 4.81667 3.77587 4.88889C3.74139 5.17949 3.70691 5.45299 3.68967 5.7265C3.67243 6 3.65518 6.2906 3.65518 6.5641C3.65395 8.69984 4.21879 10.7984 5.29311 12.6496C6.36022 14.4911 7.90118 16.0189 9.75863 17.0769C9.82416 17.1144 9.89849 17.1342 9.97415 17.1342C10.0498 17.1342 10.1241 17.1144 10.1897 17.0769C12.0534 16.0213 13.6006 14.4933 14.6724 12.6496C15.7468 10.7984 16.3116 8.69984 16.3104 6.5641C16.3104 6.2906 16.2931 6.01709 16.2759 5.7265C16.2586 5.4359 16.2241 5.16239 16.1897 4.88889C16.1807 4.81667 16.1541 4.74772 16.112 4.68811C16.0699 4.6285 16.0137 4.58005 15.9483 4.54701C15.0495 4.07495 14.0934 3.71878 13.1035 3.48718C12.0809 3.24752 11.0335 3.12704 9.98277 3.12821Z" fill="url(#paint0_linear)"/>
<path d="M2.39655 11.5043L1.12069 14.3761H1.08621C0.400702 13.0116 0.0464459 11.5072 0.0517244 9.98291L2.25862 11.1111C2.32711 11.1476 2.37928 11.2083 2.40482 11.2811C2.43036 11.3539 2.42741 11.4335 2.39655 11.5043ZM17.3276 5.4359C17.3448 5.76069 17.3621 6.06838 17.3621 6.37607C17.3595 7.55352 17.2031 8.72568 16.8966 9.86325L19.6379 7.81197C19.4075 6.80585 19.0176 5.84232 18.4828 4.95727L17.2931 5.00855C17.3103 5.1624 17.3276 5.29915 17.3448 5.45299L17.3276 5.4359ZM6.03448 2.5641L6.41379 0.820514C5.01823 1.35621 3.76282 2.19769 2.74138 3.28205L4.53448 3.05983C5.0243 2.86571 5.52515 2.70019 6.03448 2.5641ZM15.3966 3.05983L17.1897 3.28205C16.1781 2.20192 14.9349 1.36072 13.5517 0.820514L13.9138 2.5641C14.4231 2.70015 14.924 2.86568 15.4138 3.05983H15.3966ZM12.2931 2.20513L11.5517 0.2906C10.5067 0.123605 9.44153 0.123605 8.39655 0.2906L7.65517 2.22222C9.19216 1.98845 10.7561 1.98845 12.2931 2.22222V2.20513ZM2.58621 6.37607C2.58621 6.06838 2.60345 5.76069 2.62069 5.4359C2.63793 5.11111 2.65517 5.1453 2.67241 5.00855L1.46552 4.95727C0.929018 5.84761 0.53907 6.81703 0.310345 7.82906L3.05172 9.88034C2.74373 8.73725 2.58724 7.55925 2.58621 6.37607ZM19.8965 9.96581L17.6897 11.1111C17.6212 11.1476 17.569 11.2083 17.5435 11.2811C17.5179 11.3539 17.5209 11.4335 17.5517 11.5043L18.8276 14.3761H18.8621C19.5476 13.0116 19.9018 11.5072 19.8965 9.98291V9.96581ZM4.39655 13.1453C4.2069 12.8205 4.05172 12.4957 3.89655 12.1709L2.25862 16.1709C3.17762 17.3026 4.33744 18.2191 5.65517 18.8547L7.94828 17.1453C6.50622 16.0611 5.29844 14.7009 4.39655 13.1453ZM9.65517 18.3419L7.94828 19.6239C9.28465 19.8985 10.6636 19.8985 12 19.6239L10.2931 18.3419C10.2036 18.2753 10.0947 18.2393 9.98276 18.2393C9.87084 18.2393 9.76195 18.2753 9.67241 18.3419H9.65517ZM15.5345 13.1453C14.6322 14.7007 13.4245 16.0608 11.9828 17.1453L14.2586 18.8718C15.5764 18.2362 16.7362 17.3197 17.6552 16.188L16.0172 12.188C15.8966 12.5128 15.7414 12.8376 15.5517 13.1453H15.5345Z" fill="url(#paint1_linear)"/>
<path d="M13.4655 8.80342C13.474 8.81282 13.4787 8.82499 13.4787 8.83761C13.4787 8.85022 13.474 8.86239 13.4655 8.8718L13.3448 9.02564H13.2759C13.0286 8.74232 12.7229 8.51497 12.3793 8.35898C12.016 8.19804 11.622 8.11642 11.2241 8.11966H11.1896C10.6338 8.12613 10.093 8.29892 9.63792 8.61539C9.21907 8.88882 8.89428 9.2824 8.70689 9.74359L8.65516 9.77778L8.62068 9.74359L8.55172 9.45299C8.54914 9.4289 8.55524 9.40467 8.56896 9.38462C8.64334 9.24628 8.72988 9.11472 8.82758 8.99145C9.00112 8.75572 9.21051 8.54812 9.44827 8.37607C9.95443 8.02601 10.5553 7.83537 11.1724 7.82906H11.2069C11.647 7.82899 12.082 7.92225 12.4828 8.10257C12.8557 8.26627 13.1903 8.50492 13.4655 8.80342ZM13.5862 8.23932C12.9309 7.66207 12.0835 7.34547 11.2069 7.35043H11.1552C10.5448 7.35701 9.946 7.51572 9.41379 7.81197C8.92025 8.08637 8.505 8.48043 8.20689 8.95727C8.20294 8.96833 8.20294 8.98039 8.20689 8.99145V9.05983L8.36206 9.1453H8.43103C8.70395 8.71077 9.08361 8.352 9.53448 8.10257C10.0242 7.82876 10.5757 7.68179 11.1379 7.67521H11.1896C11.6211 7.67135 12.049 7.75247 12.4485 7.91386C12.8481 8.07525 13.2114 8.31371 13.5172 8.61539H13.569C13.5795 8.6117 13.5886 8.6047 13.5948 8.59545C13.6011 8.5862 13.6041 8.5752 13.6034 8.5641V8.30769C13.6082 8.29691 13.6106 8.28527 13.6106 8.27351C13.6106 8.26174 13.6082 8.2501 13.6034 8.23932H13.5862ZM13.5862 7.62393C12.8925 7.14666 12.0685 6.89026 11.2241 6.88889H11.1724C10.4507 6.89706 9.74357 7.09148 9.12068 7.45299C8.54684 7.78718 8.07129 8.26456 7.74137 8.83761C7.73683 8.8454 7.73444 8.85425 7.73444 8.86325C7.73444 8.87225 7.73683 8.88109 7.74137 8.88889L7.7931 8.92308H7.98275L8.05172 8.88889C8.35644 8.40247 8.77674 7.9975 9.27586 7.7094C9.85119 7.37315 10.5046 7.19057 11.1724 7.17949H11.2241C12.0641 7.17573 12.882 7.44604 13.5517 7.94872H13.6034C13.614 7.94503 13.6231 7.93804 13.6293 7.92879C13.6355 7.91954 13.6386 7.90854 13.6379 7.89744V7.69231C13.6361 7.67741 13.6304 7.66325 13.6213 7.65125C13.6122 7.63925 13.6001 7.62983 13.5862 7.62393ZM11.2241 6.42735H11.1552C10.3503 6.43472 9.56079 6.64659 8.86206 7.04274C8.24317 7.39557 7.72194 7.89473 7.34482 8.49573C7.33503 8.50785 7.32969 8.52293 7.32969 8.53846C7.32969 8.554 7.33503 8.56907 7.34482 8.5812L7.44827 8.71795H7.53447C7.89112 8.12741 8.39604 7.63859 8.99999 7.29915C9.65625 6.92543 10.3984 6.72529 11.1552 6.71795H11.2069C12.0273 6.70755 12.834 6.92676 13.5345 7.35043H13.6034L13.7414 7.23077C13.7488 7.22466 13.7543 7.21662 13.7574 7.20756C13.7604 7.1985 13.7608 7.18878 13.7586 7.17949V7.1453C13.0061 6.67205 12.1325 6.42286 11.2414 6.42735H11.2241ZM13.8793 6.66667C13.0785 6.20451 12.1679 5.96257 11.2414 5.96581H11.1724C10.3106 5.97247 9.46378 6.18971 8.70689 6.59829C8.02989 6.9653 7.45071 7.48679 7.01723 8.11966C7.00967 8.13265 7.00568 8.14739 7.00568 8.16239C7.00568 8.1774 7.00967 8.19214 7.01723 8.20513L7.13792 8.34188H7.22413C7.63304 7.72177 8.18965 7.21101 8.84482 6.8547C9.55413 6.47127 10.3473 6.26586 11.1552 6.25641H11.2241C12.1159 6.25209 12.992 6.48846 13.7586 6.94017H13.8103L13.8448 6.90598L13.8965 6.71795C13.8988 6.70866 13.8983 6.69893 13.8953 6.68987C13.8922 6.68081 13.8867 6.67278 13.8793 6.66667ZM11.1379 5.79487H11.1896C11.1942 5.78708 11.1966 5.77823 11.1966 5.76923C11.1966 5.76023 11.1942 5.75139 11.1896 5.74359L11.1207 5.58974C11.1135 5.57333 11.1014 5.55955 11.0859 5.55035C11.0704 5.54115 11.0524 5.537 11.0345 5.53846C10.1945 5.56807 9.37091 5.77803 8.62068 6.15385C7.89036 6.52004 7.25361 7.04613 6.75861 7.69231C6.74827 7.70371 6.74121 7.71766 6.73818 7.7327C6.73514 7.74774 6.73625 7.76331 6.74137 7.77778L6.82758 7.94872L6.86206 7.98291H6.91379C7.3963 7.31614 8.02981 6.77087 8.76342 6.39087C9.49703 6.01087 10.3103 5.80674 11.1379 5.79487ZM12.3448 5.89744C12.8499 5.99872 13.3376 6.17143 13.7931 6.41026H13.8448C13.8522 6.40415 13.8578 6.39611 13.8608 6.38705C13.8639 6.37799 13.8643 6.36827 13.8621 6.35897L13.8103 6.13675C13.806 6.12497 13.7992 6.11426 13.7902 6.1054C13.7813 6.09654 13.7705 6.08974 13.7586 6.08547C13.3896 5.90783 13.0023 5.77028 12.6034 5.67521H12.5345L12.3276 5.81197C12.3202 5.81807 12.3146 5.82611 12.3116 5.83517C12.3085 5.84423 12.3081 5.85396 12.3103 5.86325L12.3448 5.89744ZM8.48275 5.98291C8.87785 5.78355 9.29424 5.62873 9.72413 5.52137C10.1584 5.41067 10.6036 5.34761 11.0517 5.33333L11.1034 5.29915C11.108 5.29135 11.1104 5.28251 11.1104 5.2735C11.1104 5.2645 11.108 5.25566 11.1034 5.24786L11 5.07692C10.9904 5.06366 10.9772 5.0534 10.9619 5.04734C10.9467 5.04128 10.9299 5.03968 10.9138 5.04274C10.489 5.06388 10.0674 5.12687 9.65516 5.23077C9.20094 5.34654 8.76137 5.51284 8.34482 5.7265C7.55227 6.13253 6.86264 6.71107 6.32758 7.4188C6.32304 7.4266 6.32065 7.43544 6.32065 7.44444C6.32065 7.45345 6.32304 7.46229 6.32758 7.47009L6.36206 7.50427L6.53448 7.57265H6.60344C7.10322 6.91112 7.74515 6.36809 8.48275 5.98291ZM7.82758 5.81197C8.49386 5.40321 9.23022 5.11929 9.99999 4.97436L10.0345 4.94017C10.0367 4.93088 10.0363 4.92116 10.0332 4.91209C10.0302 4.90303 10.0246 4.895 10.0172 4.88889L9.84482 4.73504H9.77585C9.03175 4.89358 8.32039 5.17685 7.67241 5.57265C7.06297 5.94121 6.52084 6.40936 6.06896 6.95727C6.06135 6.96679 6.05587 6.97782 6.0529 6.98961C6.04992 7.0014 6.04952 7.01368 6.05172 7.02564L6.0862 7.26496L6.12068 7.29915H6.17241C6.62405 6.6992 7.18555 6.18889 7.82758 5.79487V5.81197ZM6.20689 6.46154H6.25861C7.08259 5.61281 8.11718 4.99383 9.25861 4.66667L9.2931 4.63248C9.29532 4.62319 9.29489 4.61346 9.29184 4.6044C9.2888 4.59534 9.28326 4.5873 9.27586 4.5812L9.15516 4.44444C9.14366 4.43419 9.12959 4.42719 9.11442 4.42418C9.09926 4.42118 9.08355 4.42227 9.06896 4.42735C7.97265 4.75536 6.97285 5.3419 6.15516 6.13675C6.14755 6.14628 6.14208 6.15731 6.1391 6.1691C6.13613 6.18089 6.13573 6.19317 6.13792 6.20513L6.17241 6.42735L6.20689 6.46154ZM6.36206 5.33333V5.36752L6.51723 5.48718H6.5862C7.12636 5.06391 7.72425 4.7186 8.36206 4.46154C8.37264 4.45785 8.38172 4.45086 8.38794 4.44161C8.39416 4.43236 8.39718 4.42135 8.39654 4.41026C8.39718 4.39916 8.39416 4.38816 8.38794 4.37891C8.38172 4.36966 8.37264 4.36266 8.36206 4.35897L8.10344 4.2735H8.03447C7.44051 4.54329 6.88418 4.88803 6.3793 5.29915L6.36206 5.33333ZM6.24137 5.12821H6.2931C6.55131 4.92912 6.82196 4.74641 7.10344 4.5812C7.11085 4.57509 7.11638 4.56705 7.11943 4.55799C7.12248 4.54893 7.12291 4.53921 7.12068 4.52991L7.0862 4.49573L6.86206 4.42735H6.7931L6.20689 4.83761C6.19351 4.84711 6.18316 4.8602 6.17705 4.87535C6.17094 4.89049 6.16933 4.90705 6.17241 4.92308L6.20689 5.11111L6.24137 5.12821ZM11.4483 10.2564C11.379 10.2033 11.2944 10.1734 11.2069 10.1709C11.1556 10.1686 11.1045 10.1766 11.0564 10.1945C11.0084 10.2124 10.9645 10.2397 10.9275 10.2749C10.8904 10.31 10.8609 10.3523 10.8408 10.399C10.8206 10.4458 10.8103 10.4962 10.8103 10.547C10.8186 10.644 10.8614 10.7348 10.931 10.8034L11.5345 11.3504H11.6034L11.7759 11.2479V11.2137C11.7781 11.2044 11.7776 11.1947 11.7746 11.1856C11.7716 11.1765 11.766 11.1685 11.7586 11.1624C11.5172 10.9573 11.1207 10.5983 11.1207 10.5983L11.0862 10.5299C11.0903 10.5058 11.103 10.4839 11.122 10.4682C11.1409 10.4525 11.165 10.4441 11.1896 10.4444H11.2586L11.8103 10.9231H11.8621L11.8965 10.8889L11.9655 10.7009C11.9677 10.6916 11.9673 10.6818 11.9643 10.6728C11.9612 10.6637 11.9557 10.6557 11.9483 10.6496L11.4483 10.2564ZM11.8276 9.93162C11.6559 9.78139 11.4359 9.69657 11.2069 9.69231H11.1724C10.9345 9.69384 10.7063 9.78559 10.5345 9.94872C10.4525 10.0257 10.3872 10.1185 10.3428 10.2214C10.2983 10.3242 10.2755 10.4351 10.2759 10.547C10.2807 10.7288 10.3475 10.9035 10.4655 11.0427C10.7801 11.4214 11.1668 11.735 11.6034 11.9658H11.6552C11.6626 11.9597 11.6681 11.9517 11.6712 11.9426C11.6742 11.9335 11.6746 11.9238 11.6724 11.9145L11.6034 11.6581V11.6239C11.2573 11.4275 10.9481 11.173 10.6896 10.8718C10.6139 10.78 10.5714 10.6656 10.569 10.547C10.5685 10.4732 10.5836 10.4001 10.6133 10.3324C10.643 10.2647 10.6866 10.2039 10.7414 10.1538C10.8583 10.0452 11.0122 9.98419 11.1724 9.98291H11.2069C11.3668 9.98582 11.5201 10.0466 11.6379 10.1538L12.1207 10.5812H12.1896L12.3448 10.4615V10.4274C12.3437 10.4142 12.3376 10.4019 12.3276 10.3932L11.8276 9.93162ZM12.1552 9.57265C12.0722 9.49791 11.9794 9.43466 11.8793 9.38462C11.6703 9.28222 11.44 9.22954 11.2069 9.23077H11.1896C10.8181 9.23141 10.4607 9.37194 10.1896 9.62393C10.0614 9.74481 9.95992 9.89082 9.89165 10.0527C9.82339 10.2145 9.78982 10.3887 9.7931 10.5641C9.79927 10.838 9.89621 11.1024 10.069 11.3162C10.3415 11.6612 10.6674 11.9612 11.0345 12.2051H11.0862L11.2931 12.1197L11.3276 12.0855C11.3298 12.0762 11.3294 12.0665 11.3263 12.0574C11.3233 12.0483 11.3177 12.0403 11.3103 12.0342C10.928 11.797 10.5898 11.4963 10.3103 11.1453C10.1786 10.9795 10.1059 10.7752 10.1034 10.5641C10.1022 10.4255 10.1308 10.2883 10.1872 10.1615C10.2437 10.0348 10.3268 9.92144 10.431 9.82906C10.6471 9.63156 10.9302 9.52174 11.2241 9.52137H11.2414C11.4264 9.5201 11.6093 9.56104 11.7759 9.64103L11.9828 9.79487L12.5 10.2735H12.5517C12.5599 10.2711 12.5673 10.2667 12.5733 10.2607C12.5793 10.2547 12.5837 10.2474 12.5862 10.2393V9.98291C12.5884 9.97095 12.588 9.95867 12.585 9.94688C12.582 9.93508 12.5766 9.92406 12.569 9.91453L12.1552 9.57265ZM11.2069 8.76923H11.1724C10.6728 8.77158 10.1925 8.96083 9.82758 9.29915C9.6521 9.46049 9.51243 9.65628 9.41744 9.87406C9.32245 10.0918 9.27424 10.3268 9.27586 10.5641C9.28329 10.9303 9.41034 11.2842 9.63792 11.5727C9.93428 11.9554 10.2891 12.2899 10.6896 12.5641H10.7414L10.7759 12.5299L10.8276 12.3419C10.8298 12.3326 10.8294 12.3229 10.8263 12.3138C10.8233 12.3047 10.8177 12.2967 10.8103 12.2906C10.4516 12.0425 10.132 11.743 9.86206 11.4017C9.67553 11.1613 9.57268 10.8674 9.56896 10.5641C9.56718 10.3649 9.60771 10.1677 9.68791 9.98505C9.76812 9.80245 9.8862 9.63864 10.0345 9.50427C10.3445 9.22044 10.7504 9.0619 11.1724 9.05983H11.2069C11.4353 9.05884 11.6615 9.10377 11.8719 9.19191C12.0823 9.28005 12.2725 9.40958 12.431 9.57265H12.5172L12.6207 9.4188C12.6243 9.40693 12.6247 9.39429 12.6216 9.38224C12.6186 9.3702 12.6123 9.3592 12.6034 9.35043C12.2328 8.98267 11.7313 8.77395 11.2069 8.76923ZM11.2069 8.30769H11.1724C10.5364 8.31206 9.92604 8.55657 9.46551 8.99145C9.24377 9.1967 9.06784 9.44572 8.94906 9.72247C8.83028 9.99922 8.77128 10.2976 8.77585 10.5983C8.77955 11.0628 8.93705 11.5132 9.22413 11.8803C9.64187 12.4006 10.1571 12.8359 10.7414 13.1624H10.8103L10.9483 13.0256C10.9557 13.0195 10.9612 13.0115 10.9643 13.0024C10.9673 12.9934 10.9677 12.9837 10.9655 12.9744V12.9402C10.3956 12.614 9.89733 12.1781 9.49999 11.6581C9.24891 11.3407 9.10963 10.9504 9.10344 10.547C9.10112 10.2873 9.15361 10.0299 9.25753 9.79145C9.36145 9.553 9.51451 9.33873 9.70689 9.16239C10.1125 8.78201 10.6486 8.56822 11.2069 8.5641C11.7682 8.56264 12.3096 8.77004 12.7241 9.1453H12.7931L12.9655 9.04274V9.00855C12.9677 8.99926 12.9673 8.98953 12.9643 8.98047C12.9612 8.97141 12.9557 8.96337 12.9483 8.95727C12.4754 8.52199 11.8521 8.28334 11.2069 8.2906V8.30769ZM10.5517 13.6239H10.6207L10.7069 13.4701C10.7134 13.4587 10.7152 13.4452 10.712 13.4325C10.7088 13.4198 10.7008 13.4088 10.6896 13.4017C10.0447 13.0331 9.48168 12.5388 9.03448 11.9487H8.98275L8.94827 11.9829L8.89654 12.2051C8.89435 12.2171 8.89475 12.2294 8.89773 12.2412C8.9007 12.253 8.90617 12.264 8.91378 12.2735C9.37199 12.8191 9.92713 13.2767 10.5517 13.6239ZM10.8621 14.3077H10.8793V14.0513C10.8799 14.0402 10.8769 14.0292 10.8707 14.0199C10.8645 14.0107 10.8554 14.0037 10.8448 14C10.2303 13.7016 9.67079 13.3029 9.18965 12.8205H9.13792C9.12735 12.8242 9.11826 12.8312 9.11205 12.8404C9.10583 12.8497 9.10281 12.8607 9.10344 12.8718V13.1282C9.10344 13.1415 9.10656 13.1546 9.11254 13.1664C9.11853 13.1783 9.12722 13.1886 9.13792 13.1966C9.63711 13.6593 10.2075 14.0401 10.8276 14.3248L10.8621 14.3077ZM9.60344 13.8291L9.56896 13.8632L9.53448 14.0513C9.5314 14.0673 9.53301 14.0839 9.53912 14.099C9.54523 14.1142 9.55558 14.1273 9.56896 14.1368C9.90174 14.3655 10.2536 14.5656 10.6207 14.735H10.6724V14.4957C10.673 14.4846 10.67 14.4736 10.6638 14.4644C10.6576 14.4551 10.6485 14.4481 10.6379 14.4444C10.2938 14.273 9.96505 14.0728 9.65516 13.8462L9.60344 13.8291ZM11.1379 15.453H11.1724C11.1769 15.4452 11.1793 15.4364 11.1793 15.4274C11.1793 15.4184 11.1769 15.4095 11.1724 15.4017L11.0172 15.1453H10.9828C10.4987 14.955 10.0363 14.7144 9.60344 14.4274H9.55172C9.54431 14.4335 9.53877 14.4415 9.53573 14.4506C9.53268 14.4596 9.53225 14.4693 9.53448 14.4786V14.7009C9.53448 14.7141 9.53759 14.7272 9.54358 14.7391C9.54956 14.7509 9.55825 14.7613 9.56896 14.7692C10.0513 15.07 10.566 15.3165 11.1034 15.5043L11.1379 15.453ZM9.96551 15.1453H9.91379C9.90638 15.1514 9.90084 15.1594 9.8978 15.1685C9.89475 15.1776 9.89432 15.1873 9.89654 15.1966L9.98275 15.4359L10.0345 15.4872C10.3855 15.6606 10.7485 15.8091 11.1207 15.9316H11.1896L11.431 15.812C11.4381 15.8073 11.444 15.8009 11.448 15.7935C11.452 15.786 11.4542 15.7777 11.4542 15.7692C11.4542 15.7608 11.452 15.7524 11.448 15.745C11.444 15.7375 11.4381 15.7312 11.431 15.7265C10.9191 15.5879 10.4223 15.3989 9.94827 15.1624L9.96551 15.1453Z" fill="white"/>
<path d="M12.6897 11.6068V12.2735H12.5345V11.7778L12.4138 11.8291C12.3802 11.7913 12.3618 11.7426 12.3621 11.6923L12.569 11.6068H12.6897Z" fill="white"/>
<path d="M13.2931 11.9145C13.2931 12.188 13.1379 12.2906 12.8793 12.2906C12.8662 12.2641 12.8603 12.2346 12.8621 12.2051C12.8601 12.1881 12.8601 12.1709 12.8621 12.1538C13.0173 12.1538 13.1207 12.1368 13.1379 12C13.1061 12.0322 13.0627 12.0506 13.0173 12.0513C12.9872 12.0539 12.9568 12.0499 12.9285 12.0397C12.9001 12.0294 12.8743 12.0132 12.8529 11.992C12.8316 11.9708 12.8151 11.9452 12.8048 11.9171C12.7945 11.8889 12.7905 11.8589 12.7931 11.8291C12.7931 11.7656 12.8185 11.7047 12.8638 11.6598C12.9091 11.615 12.9705 11.5897 13.0345 11.5897C13.2069 11.5897 13.2931 11.7265 13.2931 11.9145ZM13.0345 11.9145L13.1552 11.8803C13.1552 11.7778 13.1035 11.7094 13.0345 11.7094C13.0202 11.7061 13.0054 11.7065 12.9913 11.7105C12.9772 11.7145 12.9644 11.722 12.9541 11.7322C12.9437 11.7425 12.9362 11.7552 12.9321 11.7691C12.9281 11.7831 12.9277 11.7978 12.931 11.812C12.9234 11.827 12.9205 11.844 12.9226 11.8607C12.9246 11.8774 12.9316 11.8931 12.9427 11.9059C12.9537 11.9187 12.9683 11.9279 12.9847 11.9325C13.001 11.9371 13.0183 11.9368 13.0345 11.9316V11.9145Z" fill="white"/>
<path d="M13.6724 11.6068V12.2735H13.5172V11.7778L13.3965 11.8291C13.363 11.7913 13.3446 11.7426 13.3448 11.6923L13.5517 11.6068H13.6724Z" fill="white"/>
<path d="M14.2931 12.0513C14.2961 12.085 14.2914 12.1189 14.2792 12.1505C14.267 12.1821 14.2477 12.2105 14.2228 12.2336C14.1978 12.2567 14.1679 12.2738 14.1353 12.2837C14.1026 12.2936 14.0682 12.2959 14.0345 12.2906C13.9982 12.2936 13.9618 12.2884 13.9279 12.2754C13.8939 12.2625 13.8634 12.2421 13.8385 12.2158C13.8137 12.1895 13.7951 12.1579 13.7843 12.1235C13.7734 12.0891 13.7705 12.0528 13.7758 12.0171C13.7751 11.9076 13.8152 11.8017 13.8884 11.7196C13.9615 11.6376 14.0627 11.5853 14.1724 11.5726C14.1986 11.6133 14.2107 11.6613 14.2069 11.7094C14.1495 11.7098 14.0933 11.726 14.0446 11.7562C13.9958 11.7863 13.9565 11.8293 13.931 11.8803L14.0517 11.8462C14.082 11.8373 14.1141 11.8362 14.1449 11.8428C14.1758 11.8493 14.2045 11.8634 14.2285 11.8838C14.2525 11.9042 14.2709 11.9302 14.2822 11.9594C14.2935 11.9887 14.2972 12.0202 14.2931 12.0513ZM14.1552 12.0513C14.1554 12.0385 14.1528 12.0257 14.1474 12.0141C14.142 12.0024 14.1341 11.9921 14.1242 11.9839C14.1142 11.9757 14.1026 11.9698 14.09 11.9667C14.0775 11.9635 14.0644 11.9632 14.0517 11.9658L13.931 12C13.931 12.0855 13.9827 12.1368 14.0345 12.1368C14.0468 12.1422 14.0603 12.1447 14.0738 12.144C14.0874 12.1433 14.1005 12.1395 14.1123 12.1329C14.124 12.1262 14.134 12.1169 14.1415 12.1057C14.1489 12.0945 14.1536 12.0817 14.1552 12.0684V12.0513Z" fill="white"/>
<defs>
<linearGradient id="paint0_linear" x1="12.7293" y1="2.70769" x2="5.80034" y2="14.8122" gradientUnits="userSpaceOnUse">
<stop stop-color="#8CBAE4"/>
<stop offset="0.11" stop-color="#6DACDF"/>
<stop offset="0.54" stop-color="#005CA4"/>
<stop offset="1" stop-color="#005CA4"/>
</linearGradient>
<linearGradient id="paint1_linear" x1="14.9276" y1="1.48376" x2="5.13748" y2="18.5856" gradientUnits="userSpaceOnUse">
<stop offset="0.05" stop-color="#8CBAE4"/>
<stop offset="0.54" stop-color="#005CA4"/>
<stop offset="1" stop-color="#005CA4"/>
</linearGradient>
</defs>
</svg>
