<?xml version="1.0" encoding="UTF-8" standalone="no"?>
<svg
   width="20"
   height="20"
   viewBox="0 0 20 20"
   fill="none"
   version="1.1"
   id="svg13"
   sodipodi:docname="european-international.svg"
   xmlns:inkscape="http://www.inkscape.org/namespaces/inkscape"
   xmlns:sodipodi="http://sodipodi.sourceforge.net/DTD/sodipodi-0.dtd"
   xmlns="http://www.w3.org/2000/svg"
   xmlns:svg="http://www.w3.org/2000/svg">
  <defs
     id="defs17" />
  <sodipodi:namedview
     id="namedview15"
     pagecolor="#ffffff"
     bordercolor="#000000"
     borderopacity="0.25"
     inkscape:showpageshadow="2"
     inkscape:pageopacity="0.0"
     inkscape:pagecheckerboard="0"
     inkscape:deskcolor="#d1d1d1" />
  <rect
     y="2.85712"
     width="20"
     height="14.2857"
     rx="2"
     fill="white"
     id="rect2" />
  <mask
     id="mask0_2004_2214"
     style="mask-type:luminance"
     maskUnits="userSpaceOnUse"
     x="0"
     y="2"
     width="20"
     height="16">
    <rect
       y="2.85712"
       width="20"
       height="14.2857"
       rx="2"
       fill="white"
       id="rect4" />
  </mask>
  <g
     mask="url(#mask0_2004_2214)"
     id="g11">
    <rect
       y="2.85712"
       width="20"
       height="14.2857"
       fill="#043CAE"
       id="rect7" />
    <path
       fill-rule="evenodd"
       clip-rule="evenodd"
       d="M9.3266 5.91151L10 5.71426L10.6735 5.91151L10.4762 5.23807L10.6735 4.56464L10 4.76188L9.3266 4.56464L9.52385 5.23807L9.3266 5.91151ZM9.3266 15.4353L10 15.2381L10.6735 15.4353L10.4762 14.7619L10.6735 14.0884L10 14.2857L9.3266 14.0884L9.52385 14.7619L9.3266 15.4353ZM14.7619 10.4762L14.0885 10.6734L14.2858 9.99998L14.0885 9.32654L14.7619 9.52379L15.4354 9.32654L15.2381 9.99998L15.4354 10.6734L14.7619 10.4762ZM4.5647 10.6734L5.23813 10.4762L5.91157 10.6734L5.71432 9.99998L5.91157 9.32654L5.23813 9.52379L4.5647 9.32654L4.76194 9.99998L4.5647 10.6734ZM14.124 8.09521L13.4505 8.29246L13.6478 7.61902L13.4505 6.94559L14.124 7.14283L14.7974 6.94559L14.6002 7.61902L14.7974 8.29246L14.124 8.09521ZM5.20267 13.0544L5.87611 12.8571L6.54954 13.0544L6.3523 12.3809L6.54954 11.7075L5.87611 11.9047L5.20267 11.7075L5.39992 12.3809L5.20267 13.0544ZM12.381 6.35224L11.7076 6.54948L11.9048 5.87605L11.7076 5.20261L12.381 5.39986L13.0544 5.20261L12.8572 5.87605L13.0544 6.54948L12.381 6.35224ZM6.94565 14.7973L7.61908 14.6001L8.29252 14.7973L8.09528 14.1239L8.29252 13.4505L7.61908 13.6477L6.94565 13.4505L7.14289 14.1239L6.94565 14.7973ZM14.124 12.8571L13.4505 13.0544L13.6478 12.3809L13.4505 11.7075L14.124 11.9047L14.7974 11.7075L14.6002 12.3809L14.7974 13.0544L14.124 12.8571ZM5.20267 8.29246L5.87611 8.09521L6.54954 8.29246L6.3523 7.61902L6.54954 6.94559L5.87611 7.14283L5.20267 6.94559L5.39992 7.61902L5.20267 8.29246ZM12.381 14.6001L11.7076 14.7973L11.9048 14.1239L11.7076 13.4505L12.381 13.6477L13.0544 13.4505L12.8572 14.1239L13.0544 14.7973L12.381 14.6001ZM6.94565 6.54948L7.61908 6.35224L8.29252 6.54948L8.09528 5.87605L8.29252 5.20261L7.61908 5.39986L6.94565 5.20261L7.14289 5.87605L6.94565 6.54948Z"
       fill="#FFD429"
       id="path9" />
  </g>
</svg>
