<svg width="46" height="46" viewBox="0 0 46 46" fill="none" xmlns="http://www.w3.org/2000/svg">
<path d="M25.0289 45.8844C26.5803 45.7689 28.0717 45.4822 29.5076 45.0799C29.5653 45.0799 29.5653 45.0221 29.5653 45.0221V44.9643C27.7272 42.955 24.8556 38.8765 22.904 35.2024C23.8798 39.1654 24.7422 43.5285 24.9133 45.8267C24.9519 45.8652 24.9904 45.8844 25.0289 45.8844Z" fill="black"/>
<path d="M33.2972 4.53647C33.2972 4.47869 33.2972 4.42091 33.2394 4.42091L26.3492 0.460083H26.2914C26.2336 0.460083 26.2336 0.517859 26.1758 0.517859C25.8313 2.01146 22.6152 16.7121 27.7829 34.2288C25.9447 22.7999 30.4255 10.1664 33.2951 4.53861" fill="black"/>
<path d="M31.1723 44.5642C21.4682 28.9434 23.0196 6.83463 24.1088 0.115551C24.1088 0.0577755 24.051 0 23.9932 0C22.7307 0.51784 14.1735 3.96297 13.2534 4.30748C13.1956 4.30748 13.1956 4.36526 13.1956 4.42304C14.9182 12.349 19.3412 31.126 31.1702 44.5642" fill="#8A8A8A"/>
<path d="M17.9075 45.1376C17.9075 45.1954 17.9075 45.2532 17.9653 45.2532C19.6301 45.7133 21.4104 45.9422 23.1908 46C23.2485 46 23.3063 45.9422 23.3063 45.8844C23.0774 42.0948 22.215 34.2844 18.9988 27.3342C20.0324 34.34 18.8833 41.6904 17.9075 45.1376Z" fill="#8A8A8A"/>
<path d="M15.3804 44.3908C15.4189 44.3908 15.4382 44.3716 15.4382 44.333C15.4959 44.2175 15.5537 43.9308 15.5537 43.8152C15.5537 43.7574 15.4959 43.7574 15.4959 43.6997C8.54789 40.7125 3.89589 32.6153 3.89589 24.5182C3.89589 18.2014 6.59422 11.309 11.2462 7.74832V7.69054C11.2462 7.57499 11.1307 7.34603 11.1307 7.1727C11.1307 7.11493 11.0729 7.11493 11.0151 7.11493H10.9573C5.50291 11.0265 2 17.3433 2 24.5781C2.05778 33.4798 7.56999 41.1747 15.3804 44.3908Z" fill="#F18800"/>
<path d="M35.2509 6.60352C35.2509 6.60352 35.1931 6.60352 35.2509 6.60352C35.1931 6.60352 35.1353 6.60352 35.1353 6.66129L34.9064 7.12135V7.17913C34.9064 7.21765 34.9256 7.23691 34.9641 7.23691C40.1318 10.7398 43.0613 17.8034 43.0613 24.5225C43.0613 32.0461 39.4428 39.512 33.2416 42.8416L33.1838 42.8994V42.9571L33.4705 43.4172L33.5283 43.475H33.5861C40.3629 39.8565 44.9572 32.7352 44.9572 24.5803C44.8994 17.0566 41.052 10.4531 35.2509 6.60566" fill="#F18800"/>
</svg>
