<svg width="18" height="18" viewBox="0 0 18 18" fill="none" xmlns="http://www.w3.org/2000/svg">
<path d="M12.5152 8.94012L9.25787 2.24597L6.07223 8.8968L2.25569 5.82922L2.97193 14.2759L9.35501 14.3346L15.7053 14.4148L16.2939 5.9806L12.5152 8.94012Z" fill="#F7941E"/>
<path d="M15.7899 12.0071L2.87372 12.0748L2.88433 12.6942L15.8005 12.6265L15.7899 12.0071Z" fill="#FCD144"/>
<path d="M2.981 5.89857C2.98909 6.28259 2.69843 6.59651 2.30128 6.59148C1.93128 6.59282 1.62337 6.2854 1.62093 5.87331C1.61284 5.48928 1.90349 5.17537 2.30065 5.18039C2.67065 5.17905 2.9729 5.51454 2.981 5.89857Z" fill="#FCD144"/>
<path d="M6.12794 11.9889L6.06865 8.88081L9.26216 2.2047L12.5278 8.92419L12.6743 12.0233L6.12794 11.9889Z" fill="#FCD144"/>
<path d="M16.968 5.88C16.9761 6.26403 16.6854 6.57795 16.2883 6.57292C15.9183 6.57426 15.6103 6.26684 15.6079 5.85474C15.5998 5.47071 15.8905 5.15679 16.2876 5.16182C16.6576 5.16048 16.9655 5.4679 16.968 5.88Z" fill="#FCD144"/>
<path d="M9.98111 2.198C9.9892 2.58201 9.69855 2.8959 9.3014 2.89088C8.93142 2.89222 8.62352 2.58481 8.62107 2.17274C8.61298 1.78873 8.90363 1.47483 9.30078 1.47986C9.66512 1.50658 9.97301 1.81399 9.98111 2.198Z" fill="#F7941E"/>
<path d="M9.30695 9.67738L10.6369 7.74629L9.27234 4.59249L7.98852 7.71504L9.30695 9.67738Z" fill="white"/>
<path d="M4.48971 13.5608C4.48299 13.7356 4.37328 13.8568 4.20467 13.8467C4.03606 13.8365 3.91719 13.7204 3.92391 13.5456C3.93062 13.3708 4.04033 13.2495 4.20894 13.2597C4.38319 13.2418 4.49642 13.386 4.48971 13.5608Z" fill="#FCD144"/>
<path d="M5.96341 13.5373C5.9567 13.7121 5.847 13.8334 5.6784 13.8232C5.5098 13.813 5.39095 13.6969 5.39766 13.5221C5.40437 13.3473 5.51407 13.2261 5.68267 13.2363C5.8241 13.2401 5.93732 13.3842 5.96341 13.5373Z" fill="#FCD144"/>
<path d="M7.40433 13.5361C7.39762 13.7109 7.28792 13.8321 7.11932 13.822C6.95072 13.8118 6.83186 13.6957 6.83857 13.5209C6.84529 13.3461 6.95499 13.2249 7.12358 13.2351C7.26502 13.2389 7.40539 13.3894 7.40433 13.5361Z" fill="#FCD144"/>
<path d="M8.84525 13.5349C8.83853 13.7097 8.72883 13.8309 8.56024 13.8207C8.39164 13.8105 8.27278 13.6945 8.27949 13.5197C8.2862 13.3449 8.3959 13.2237 8.5645 13.2338C8.7331 13.244 8.84631 13.3882 8.84525 13.5349Z" fill="#FCD144"/>
<path d="M10.3132 13.5398C10.3065 13.7146 10.1968 13.8358 10.0282 13.8256C9.8596 13.8154 9.74074 13.6994 9.74745 13.5246C9.75416 13.3498 9.86386 13.2285 10.0325 13.2387C10.1739 13.2425 10.3143 13.393 10.3132 13.5398Z" fill="#FCD144"/>
<path d="M11.7542 13.5385C11.7475 13.7133 11.6378 13.8345 11.4692 13.8244C11.3006 13.8142 11.1817 13.6981 11.1884 13.5233C11.1951 13.3485 11.3048 13.2273 11.4734 13.2375C11.642 13.2477 11.7609 13.3637 11.7542 13.5385Z" fill="#FCD144"/>
<path d="M13.2221 13.5434C13.2154 13.7182 13.1057 13.8394 12.9371 13.8292C12.7685 13.8191 12.6497 13.703 12.6564 13.5282C12.6631 13.3534 12.7728 13.2322 12.9414 13.2424C13.0828 13.2462 13.2017 13.3622 13.2221 13.5434Z" fill="#FCD144"/>
<path d="M14.663 13.5422C14.6563 13.717 14.5466 13.8382 14.378 13.828C14.2094 13.8178 14.0906 13.7018 14.0973 13.527C14.104 13.3522 14.2137 13.231 14.3823 13.2411C14.5237 13.2449 14.6698 13.3674 14.663 13.5422Z" fill="#FCD144"/>
<path d="M3.57954 10.2848L3.22266 7.66882L4.8727 9.23406L3.57954 10.2848Z" fill="white"/>
<path d="M15.1469 10.2639L15.4713 7.6552L13.8502 9.19239L15.1469 10.2639Z" fill="white"/>
<path d="M12.4903 8.89695L13.0625 8.46951L13.2948 12.0115L12.6381 12.0053L12.4903 8.89695Z" fill="#FFDCB6"/>
<path d="M6.07748 8.93982L5.53851 8.48837L5.45904 12.0172L6.13777 12.058L6.07748 8.93982Z" fill="#FFDCB6"/>
</svg>
