<svg width="18" height="18" viewBox="0 0 18 18" fill="none" xmlns="http://www.w3.org/2000/svg">
<g id="3 - Tennis">
<g id="Group">
<path id="Vector" d="M15.1821 15.1821C18.5964 11.7678 18.5964 6.23214 15.1821 2.81784C11.7678 -0.596466 6.23215 -0.596465 2.81785 2.81784C-0.59645 6.23214 -0.596449 11.7678 2.81785 15.1821C6.23216 18.5964 11.7678 18.5964 15.1821 15.1821Z" fill="#E0E0E2"/>
<path id="Vector_2" d="M5.23783 12.7612C2.61754 10.141 1.72218 6.44912 2.55116 3.09628C-0.592708 6.52683 -0.503884 11.8579 2.81863 15.1804C6.14114 18.503 11.4723 18.5918 14.9028 15.4479C11.55 16.2769 7.85814 15.3816 5.23783 12.7612Z" fill="#D8D7DA"/>
<path id="Vector_3" d="M10.5666 1.56295C10.3246 3.73361 9.25697 5.86345 7.5602 7.56021C5.86346 9.25696 3.7336 10.3246 1.56294 10.5666C1.20621 10.6063 0.855196 10.6231 0.511442 10.6175C0.32112 10.6144 0.17726 10.7892 0.218799 10.975C0.578911 12.5834 1.38428 14.1122 2.63604 15.364C3.8878 16.6157 5.41659 17.4211 7.02501 17.7812C7.21076 17.8227 7.38559 17.6789 7.38249 17.4885C7.37684 17.1448 7.39367 16.7938 7.43345 16.437C7.67538 14.2664 8.74308 12.1365 10.4398 10.4398C12.1366 8.74299 14.2664 7.67532 16.4371 7.43341C16.7938 7.39364 17.1448 7.37683 17.4886 7.38245C17.6789 7.38556 17.8227 7.21075 17.7812 7.02497C17.4211 5.41661 16.6157 3.88781 15.364 2.63605C14.1122 1.38429 12.5834 0.578903 10.975 0.218867C10.7892 0.177301 10.6144 0.321161 10.6175 0.511508C10.6232 0.855237 10.6063 1.20625 10.5666 1.56295Z" fill="#9CDD05"/>
<path id="Vector_4" d="M3.35723 10.1768C2.76794 10.3678 2.16702 10.4992 1.56291 10.5666C1.20618 10.6064 0.855171 10.6232 0.511417 10.6176C0.321095 10.6144 0.177235 10.7893 0.218775 10.975C0.578911 12.5834 1.3843 14.1122 2.63604 15.364C3.8878 16.6157 5.41659 17.4211 7.02501 17.7812C7.21076 17.8227 7.38559 17.6789 7.38249 17.4885C7.37684 17.1448 7.39367 16.7938 7.43345 16.437C7.50077 15.8329 7.63225 15.232 7.82327 14.6427C6.89124 14.1685 6.01667 13.5423 5.23716 12.7628C4.45765 11.9833 3.83149 11.1088 3.35723 10.1768Z" fill="#91CC04"/>
<path id="Vector_5" d="M0.00314341 9.22023C0.00689723 9.37349 0.129106 9.49714 0.282139 9.50569C2.44238 9.62609 4.87605 8.68586 6.78091 6.781C8.68577 4.87614 9.62599 2.44248 9.5056 0.282235C9.49704 0.129152 9.37344 0.00694366 9.22014 0.00323981C6.84404 -0.0546833 4.44941 0.822646 2.63603 2.63603C0.822649 4.4494 -0.0547054 6.84407 0.00314341 9.22023Z" fill="#9CDD05"/>
<path id="Vector_6" d="M2.69343 2.58011C2.67434 2.59886 2.65498 2.61708 2.63603 2.63602C0.822653 4.4494 -0.0547042 6.84407 0.00314329 9.22023C0.00689703 9.37349 0.129106 9.49714 0.282139 9.50569C1.13138 9.55302 2.02288 9.43569 2.90789 9.16102C2.11126 7.05042 2.04013 4.72874 2.69343 2.58011Z" fill="#91CC04"/>
<path id="Vector_7" d="M17.9968 8.77973C17.9931 8.62648 17.8709 8.50284 17.7179 8.49428C15.5576 8.37389 13.1239 9.31411 11.2191 11.219C9.31422 13.1238 8.37399 15.5575 8.49439 17.7177C8.50294 17.8708 8.62654 17.993 8.77984 17.9967C11.1559 18.0547 13.5506 17.1773 15.364 15.3639C17.1773 13.5506 18.0547 11.1559 17.9968 8.77973Z" fill="#9CDD05"/>
<path id="Vector_8" d="M8.83896 15.0921C8.56429 15.9771 8.44695 16.8686 8.49429 17.7178C8.50284 17.8709 8.62644 17.9931 8.77975 17.9968C11.1559 18.0547 13.5506 17.1774 15.3639 15.364C15.3829 15.345 15.4011 15.3257 15.4198 15.3066C13.2712 15.9599 10.9495 15.8887 8.83896 15.0921Z" fill="#91CC04"/>
<path id="Vector_9" d="M16.2758 11.3469C16.1292 11.3064 16.0441 11.1535 16.0852 11.0071C16.1464 10.7897 16.1982 10.5668 16.2391 10.3446C16.2666 10.195 16.4103 10.0959 16.5599 10.1235C16.7096 10.1511 16.8085 10.2947 16.781 10.4444C16.737 10.6831 16.6813 10.9227 16.6156 11.1563C16.6024 11.2034 16.5242 11.4156 16.2758 11.3469Z" fill="#91CC04"/>
<path id="Vector_10" d="M14.5978 14.5977C14.4902 14.7053 14.3157 14.7053 14.2081 14.5977C14.1005 14.4901 14.1005 14.3156 14.2081 14.208C14.8713 13.5449 15.3941 12.775 15.7621 11.9198C15.8223 11.7801 15.9843 11.7154 16.1241 11.7756C16.2638 11.8358 16.3284 11.9978 16.2683 12.1376C15.8726 13.0572 15.3106 13.8849 14.5978 14.5977Z" fill="#91CC04"/>
<path id="Vector_11" d="M12.2939 5.55331C12.4665 5.38074 12.4665 5.10093 12.2939 4.92835C12.1213 4.75577 11.8415 4.75577 11.669 4.92835C11.4964 5.10093 11.4964 5.38073 11.669 5.55331C11.8415 5.72589 12.1213 5.72589 12.2939 5.55331Z" fill="#91CC04"/>
<path id="Vector_12" d="M10.9429 8.32461C11.1155 8.15204 11.1155 7.87223 10.9429 7.69965C10.7704 7.52707 10.4906 7.52708 10.318 7.69965C10.1454 7.87223 10.1454 8.15204 10.318 8.32461C10.4906 8.49719 10.7704 8.49719 10.9429 8.32461Z" fill="#91CC04"/>
<path id="Vector_13" d="M6.9552 3.71195C7.12778 3.53937 7.12778 3.25956 6.9552 3.08698C6.78262 2.91441 6.50282 2.91441 6.33024 3.08698C6.15766 3.25956 6.15766 3.53937 6.33024 3.71195C6.50282 3.88452 6.78262 3.88452 6.9552 3.71195Z" fill="#91CC04"/>
<path id="Vector_14" d="M13.0134 7.32127C12.962 7.37268 12.891 7.40206 12.8183 7.40204C12.7458 7.40179 12.675 7.37243 12.6238 7.32125C12.5723 7.26981 12.543 7.19889 12.5427 7.12645C12.543 7.05401 12.5723 6.98309 12.6238 6.93165C12.675 6.88044 12.7459 6.85113 12.8183 6.85086C12.8908 6.85111 12.962 6.88019 13.0134 6.93163C13.0646 6.98279 13.0937 7.05396 13.0939 7.12645C13.094 7.19914 13.0646 7.27006 13.0134 7.32127Z" fill="#91CC04"/>
<path id="Vector_15" d="M8.91941 9.19474C8.868 9.24615 8.79705 9.27554 8.72434 9.27551C8.65185 9.27526 8.58095 9.24588 8.52979 9.19472C8.47835 9.14328 8.449 9.07236 8.44875 8.99992C8.449 8.92748 8.47838 8.85653 8.52979 8.80512C8.58097 8.75394 8.65187 8.72461 8.72434 8.72433C8.79683 8.72458 8.868 8.75369 8.91941 8.8051C8.97057 8.85626 8.99968 8.92743 8.99993 8.99992C8.99993 9.07261 8.97062 9.14353 8.91941 9.19474Z" fill="#91CC04"/>
<path id="Vector_16" d="M6.02176 5.42451C5.97035 5.47592 5.89941 5.5053 5.82669 5.50528C5.7542 5.50503 5.6833 5.47564 5.63214 5.42448C5.58071 5.37305 5.55135 5.30213 5.5511 5.22969C5.55135 5.15725 5.58074 5.0863 5.63214 5.03489C5.68335 4.98368 5.75423 4.95437 5.82669 4.9541C5.89918 4.95435 5.97035 4.98345 6.02176 5.03486C6.07292 5.08602 6.10203 5.1572 6.10228 5.22969C6.10228 5.30242 6.07297 5.3733 6.02176 5.42451Z" fill="#91CC04"/>
<path id="Vector_17" d="M4.5828 3.5959C4.53139 3.64731 4.46044 3.6767 4.38773 3.67667C4.31524 3.67642 4.24434 3.64704 4.19318 3.59588C4.14175 3.54445 4.11239 3.47352 4.11214 3.40108C4.11239 3.32864 4.14175 3.25772 4.19318 3.20629C4.24439 3.15508 4.31526 3.12577 4.38773 3.12549C4.46022 3.12574 4.53139 3.15485 4.5828 3.20626C4.63396 3.25742 4.66307 3.32859 4.66332 3.40108C4.66329 3.4738 4.63398 3.54472 4.5828 3.5959Z" fill="#91CC04"/>
</g>
</g>
</svg>
