<svg width="18" height="18" viewBox="0 0 18 18" fill="none" xmlns="http://www.w3.org/2000/svg">
<g id="10 - Handball" clip-path="url(#clip0)">
<g id="Group">
<path id="Vector" d="M11.2265 2.2647C11.2265 1.38165 10.6003 0.665955 9.82758 0.665955C9.0554 0.665955 8.42865 1.3817 8.42865 2.2647C8.42865 3.1477 8.95301 3.86344 9.87765 3.86344C10.2299 3.86344 10.8028 3.79309 11.049 3.5469C11.3421 3.25383 11.2265 2.74489 11.2265 2.2647Z" fill="#D5AB88"/>
<path id="Vector_2" d="M9.47699 17.3756C9.18284 17.3756 8.94406 17.1374 8.94406 16.8427V15.244C8.94406 14.9492 9.1828 14.711 9.47699 14.711C9.77114 14.711 10.0099 14.9492 10.0099 15.244V16.8427C10.0099 17.1374 9.77119 17.3756 9.47699 17.3756Z" fill="#4289C1"/>
<path id="Vector_3" d="M4.45084 17.9492C4.3448 17.9992 4.22171 18.0147 4.09857 17.9848C3.81238 17.915 3.63707 17.6272 3.70634 17.3411L4.06339 15.8702C4.13267 15.5851 4.41988 15.4086 4.70663 15.4785C4.99281 15.5477 5.16813 15.8361 5.09885 16.1217L4.7418 17.5926C4.70236 17.7557 4.59206 17.8825 4.45084 17.9492Z" fill="#4289C1"/>
<path id="Vector_4" d="M10.4163 4.45331L10.1728 2.35733C10.1408 2.06421 9.86692 1.83878 9.57755 1.87293C9.28551 1.90543 9.07127 2.16229 9.10378 2.45485L9.31694 4.39626H6.87407L3.75378 2.85457C3.46067 2.80604 3.18891 3.00216 3.14038 3.29209C3.09186 3.58253 3.28853 3.85696 3.57842 3.90549L6.45033 5.39125C6.47965 5.39603 6.80044 5.46212 6.82977 5.46212H8.29474C8.29951 5.60175 8.34059 5.77547 8.42851 5.99505C8.96144 7.32733 10.0272 10.2584 10.0272 10.2584C11.2044 10.2584 11.4262 7.74143 11.4262 6.41711C11.4262 6.09524 11.5855 6.01528 11.5311 5.83037C12.1552 5.7499 12.2421 6.02222 12.5298 6.09046C12.5299 6.09041 11.5711 4.35256 10.4163 4.45331Z" fill="#D5AB88"/>
<path id="Vector_5" d="M7.45701 13.5212C7.21397 13.3069 7.15856 12.9413 7.34188 12.6621L9.90845 8.74677C10.1088 8.44087 10.5197 8.35506 10.8251 8.55548C11.1294 8.75904 11.2168 9.16673 11.0159 9.47211L8.44929 13.388C8.2484 13.6939 7.83805 13.7791 7.53214 13.5788C7.50549 13.5611 7.48048 13.5419 7.45701 13.5212Z" fill="#D5AB88"/>
<path id="Vector_6" d="M4.50005 16.163C4.33588 15.9189 4.35724 15.5949 4.56187 15.4063L7.43004 12.7571C7.65439 12.5498 8.0136 12.5839 8.2321 12.8328C8.44953 13.0833 8.44737 13.451 8.22306 13.6577L5.35434 16.3069C5.1305 16.5142 4.77134 16.4801 4.55227 16.2312C4.53307 16.2093 4.51602 16.1864 4.50005 16.163Z" fill="#D5AB88"/>
<path id="Vector_7" d="M9.22209 15.2306C9.12406 14.9754 9.20663 14.6876 9.42673 14.5608L12.5102 12.7765C12.7516 12.6369 13.0655 12.744 13.2115 13.0148C13.3554 13.2871 13.2814 13.6186 13.04 13.7576L9.95647 15.5418C9.71558 15.681 9.40167 15.5743 9.25516 15.3036C9.24228 15.2797 9.23164 15.2557 9.22209 15.2306Z" fill="#D5AB88"/>
<path id="Vector_8" d="M12.854 13.7954C12.57 13.8946 12.2486 13.772 12.1063 13.4965L10.1106 9.63279C9.95496 9.33115 10.0733 8.95972 10.3749 8.80412C10.6781 8.65063 11.0475 8.76628 11.2031 9.06848L13.1989 12.9321C13.355 13.2338 13.2367 13.6052 12.9351 13.7608C12.9084 13.7747 12.8818 13.7858 12.854 13.7954Z" fill="#D5AB88"/>
<path id="Vector_9" d="M12.8541 6.54197L10.8024 5.47189C10.5589 5.34505 10.464 5.04182 10.5908 4.79831C10.7176 4.55479 11.0209 4.45933 11.2644 4.58617L13.3161 5.6563C13.5596 5.78365 13.6545 6.08688 13.5277 6.33044C13.4008 6.57344 13.0977 6.66881 12.8541 6.54197Z" fill="#D5AB88"/>
<path id="Vector_10" d="M15.9268 6.99705L13.1013 6.57976C12.8295 6.53981 12.6398 6.28454 12.6803 6.01274C12.7203 5.74149 12.9755 5.55175 13.2468 5.59175L16.0729 6.00904C16.3447 6.04899 16.5339 6.30426 16.4939 6.57606C16.4539 6.84782 16.1986 7.037 15.9268 6.99705Z" fill="#D5AB88"/>
<path id="Vector_11" d="M8.69535 9.16982C8.69535 9.16982 8.26739 10.25 8.12458 10.6988C7.98177 11.1475 7.68491 11.6575 7.68491 11.6575C7.68491 11.6575 8.58767 12.4446 9.28098 12.4243L10.2855 10.9641L11.1776 12.2213C11.1776 12.2213 12.0878 11.5657 12.714 11.4575C12.714 11.4575 11.9163 9.82205 11.7329 9.47563C11.5496 9.1287 11.1008 8.68054 11.1008 8.68054L8.69535 9.16982Z" fill="#2A6797"/>
<path id="Vector_12" d="M8.18824 4.29269C8.18824 4.29269 8.86717 4.33264 9.14694 4.35236C9.14694 4.35236 9.18689 4.79203 9.86581 4.81227C10.5453 4.83198 10.7249 4.47226 10.7249 4.47226C10.7249 4.47226 11.2445 4.51222 11.6239 4.75203C12.0033 4.99185 12.5826 5.27161 12.5826 5.27161C12.5826 5.27161 12.0433 5.73096 12.2432 6.2303L11.7039 5.97288C11.7039 5.97288 11.7764 6.19508 11.8094 6.61134C11.8595 7.23696 11.7017 9.22371 11.7817 9.40385C11.7817 9.40385 11.0932 9.22587 10.0827 9.33725C9.46455 9.40493 8.31237 9.84779 8.31237 9.84779C8.4733 9.17631 8.56979 8.16802 8.59537 7.5941C8.64544 6.46698 8.38806 5.67082 8.04857 5.59086C7.70857 5.51091 7.44904 5.49124 7.44904 5.49124C7.44904 5.49124 7.52899 5.13152 7.44904 4.85175C7.36909 4.5725 7.32913 4.37269 7.32913 4.37269C7.32913 4.37269 7.94843 4.33264 8.18824 4.29269Z" fill="#4289C1"/>
<path id="Vector_13" d="M3.63243 3.86347C3.63243 3.27462 3.15548 2.79761 2.56658 2.79761C1.97767 2.79761 1.50076 3.27457 1.50076 3.86347C1.50076 4.45238 1.97772 4.92929 2.56658 4.92929C3.15543 4.92929 3.63243 4.45233 3.63243 3.86347Z" fill="#226699"/>
<path id="Vector_14" d="M10.7158 0.232918C10.3433 -0.0266152 9.40431 -0.118793 8.76749 0.217461C8.04857 0.597463 7.86843 1.29611 7.98833 2.01555C8.09864 2.67635 8.4163 2.95026 8.4163 2.95026C8.53831 3.08136 8.86234 2.7355 8.67639 2.44342C8.45845 2.10131 8.52023 1.69676 8.76646 1.67175C8.9407 1.65363 9.12777 1.75597 9.07766 1.91213C9.01742 2.10028 9.09471 2.17752 9.09471 2.17752C9.09471 2.17752 9.23803 2.27981 9.38248 1.84337C9.45813 1.61475 9.99907 1.65044 10.7937 1.2902C10.8875 1.2481 11.1268 1.51508 11.1944 2.11035C11.2088 2.2393 11.4486 1.84285 11.4816 1.554C11.5371 1.07545 11.1928 0.565472 10.7158 0.232918Z" fill="#963B22"/>
</g>
</g>
<defs>
<clipPath id="clip0">
<rect width="18" height="18" fill="white"/>
</clipPath>
</defs>
</svg>
