<svg width="18" height="18" viewBox="0 0 18 18" fill="none" xmlns="http://www.w3.org/2000/svg">
<path fill-rule="evenodd" clip-rule="evenodd" d="M1.24031 0L16.7752 0.00393099L17 0.943437L15.8605 2.64162V9.52086L16.4767 10.2009V12.5477L8.99612 18L1.53101 12.5516L1.53488 10.1773L2.14341 9.52872V2.65342L1 0.919851L1.24031 0ZM15.4845 2.66521L16.6744 0.589648L1.3062 0.59751L2.60853 2.66128V9.78423L2.13953 10.3385V12.3905L9.05039 17.4615L15.9496 12.3708V10.3346L15.4884 9.80389V2.66521H15.4845Z" fill="#878787"/>
<path fill-rule="evenodd" clip-rule="evenodd" d="M15.4845 2.66521L16.6744 0.593582L1.30621 0.597513L2.60854 2.66128V9.78424L2.13955 10.3385V12.3905L9.04652 17.4615L15.9457 12.3708V10.3346L15.4845 9.80389V2.66521Z" fill="#12100D" stroke="black" stroke-width="0.5669" stroke-miterlimit="22.9256"/>
<path fill-rule="evenodd" clip-rule="evenodd" d="M8.23256 1.54095L9.04652 1.37192L9.86047 1.54881L9.5969 5.88862L10.3295 1.63922L11.6085 1.91439L12.0271 2.56694L12.2868 3.82486L12.2403 2.91287L12.8217 4.24154L12.5465 5.60559L12.9264 5.86897L12.8643 6.19524L13.1318 6.39179L13.0426 8.2197L11.5 9.30072L11.4729 9.96899L11.1318 10.1616L11.031 10.7395L10.8915 10.9557L10.7054 10.5979L10.5271 10.8692L10.3178 10.653L10.1279 10.9085L9.90698 10.6844L9.6938 10.9832L9.53876 10.7906L9.33721 11.0304L9.19768 10.8495L9.04264 11.0264L8.8876 10.8535L8.74807 11.0264L8.55039 10.7906L8.39923 10.9832L8.18217 10.6766L7.96124 10.9085L7.77132 10.653L7.57365 10.8613L7.39535 10.6137L7.20543 10.9557L7.05814 10.7198L6.96512 10.1537L6.61628 9.97292L6.5969 9.29286L5.03876 8.21577L4.96124 6.38393L5.21706 6.19131L5.15117 5.85718L5.53876 5.60166L5.2752 4.2494L5.85272 2.91287L5.81396 3.77375L6.05814 2.57087L6.469 1.91046L7.75582 1.63529L8.49225 5.88469L8.23256 1.54095ZM5.86434 9.02162L5.85659 10.0044L6.45349 10.8613L6.61241 12.701L7.8876 12.5163L8.33721 12.5202L8.46124 12.0721L8.49225 12.4455L9.60466 12.4416L9.63954 12.076L9.7752 12.5281L10.2364 12.5241L11.469 12.705L11.624 10.8574L12.2248 10.024L12.2326 9.02948L11.6667 9.513L11.6589 9.99258L11.2287 10.252L10.9767 11.6908L10.6512 11.0146L10.5194 11.4588L10.3217 11.1247L10.124 11.392L9.97287 11.1719L9.79845 11.4667L9.55427 11.1955L9.34497 11.5021L9.1628 11.2269L9.03876 11.4235L8.93411 11.2387L8.74031 11.506L8.52326 11.1955L8.28295 11.4746L8.11241 11.1719L7.96124 11.3999L7.77132 11.1365L7.56202 11.4628L7.43799 11.0186L7.10465 11.6947L6.85659 10.256L6.43024 10.0044L6.41861 9.52479L5.86434 9.02162ZM10.0426 8.58528L11.9923 7.61826L12.3876 6.72199L11.7132 6.77703L10.8643 7.69688L10.3295 7.87771L10.0426 8.58528ZM8.04652 8.58528L7.76357 7.87771L7.22869 7.69688L6.37985 6.77703L5.70543 6.72199L6.10078 7.61826L8.04652 8.58528ZM9.03489 8.45556L8.42249 9.54838L9.02714 9.34003L9.65892 9.54051L9.03489 8.45556Z" fill="white"/>
<path fill-rule="evenodd" clip-rule="evenodd" d="M9.06978 12.6145H9.58917L9.72482 14.124L11.252 13.9236L12.2481 13.1059L12.031 12.7561L14.407 11.0422L12.3915 14.2459L12.3062 13.8725L11.3411 14.6862L9.07366 15.5353L9.06978 12.6145ZM9.02327 12.6145H8.50389L8.37211 14.124L6.84498 13.9236L5.84886 13.1059L6.06591 12.7561L3.68994 11.0461L5.70544 14.2498L5.79072 13.8764L6.75583 14.6901L9.02327 15.5392V12.6145Z" fill="#878787"/>
<path fill-rule="evenodd" clip-rule="evenodd" d="M6.16279 10.763L5.75968 10.5547L3.27906 10.5743L4.98449 9.4776L4.26744 8.9823L3.10852 9.23781L4.49612 8.28651L3.88372 8.12534L4.82945 7.51997L4.84496 7.83445L4.53488 8.02707L4.85658 8.09389L4.90697 8.34941L4.38372 8.70713L5.52713 9.5405L4.32945 10.2599L5.82558 10.3031L6.16279 10.763ZM7.61627 1.48197C7.7403 1.45052 7.8372 1.46625 7.89922 1.5488L8.04263 1.53307L7.68604 1.02991L7.61627 1.48197ZM11.9302 10.763L12.3333 10.5547L14.8139 10.5743L13.1124 9.4776L13.8295 8.9823L14.9884 9.23781L13.6008 8.28651L14.2132 8.12534L13.2674 7.51997L13.2519 7.83445L13.562 8.02707L13.2403 8.09389L13.1899 8.34941L13.7132 8.70713L12.5698 9.5405L13.7674 10.2599L12.2752 10.3031L11.9302 10.763ZM10.4845 1.48197C10.3605 1.45052 10.2636 1.46625 10.2015 1.5488L10.0581 1.53307L10.4147 1.02991L10.4845 1.48197ZM9.68604 1.33259L9.48062 1.28935L9.37596 1.03777H9.56976L9.68604 1.33259ZM13.3139 6.36819L13.1628 6.18343L14.8682 5.59772L12.8256 5.18103L12.845 4.98055L13.7752 4.43021L12.969 4.41449L12.9729 4.16291L12.8333 3.88381L13.6085 2.91285L12.5891 3.27843L12.3953 2.8303L13.1977 1.57238L12.0969 2.36251L11.969 2.14238L11.6589 1.74142L11.6977 1.3719L11.3643 1.68638L10.9302 1.58025L11.5426 1.02991L12.0698 1.0417L11.9729 2.05196L12.0271 2.11879L13.6395 1.02991H13.7636L12.562 2.98754L14.4419 2.40968L13.0116 4.09608L13.0233 4.15111L14.5077 4.24153L13.345 5.00021L15.0039 5.354L14.9961 5.87289L13.3139 6.36819ZM13.2868 7.02467L13.3062 6.56867L13.6318 7.06005L13.2868 7.02467ZM8.41472 1.33259L8.62015 1.28935L8.7248 1.03777H8.531L8.41472 1.33259ZM4.78294 6.36819L4.9341 6.18343L3.22868 5.59772L5.27131 5.18103L5.25193 4.98055L4.3217 4.43021L5.1279 4.41449L5.12403 4.16291L5.26356 3.88381L4.48837 2.91285L5.50775 3.27843L5.70155 2.8303L4.89922 1.57238L5.99999 2.36251L6.1279 2.14238L6.43798 1.74142L6.39922 1.3719L6.73255 1.68638L7.16666 1.58025L6.55426 1.02991L6.02713 1.0417L6.1279 2.05196L6.07364 2.11879L4.45348 1.03384H4.32945L5.531 2.98754L3.65116 2.40968L5.08139 4.09608L5.06976 4.15111L3.58527 4.24153L4.74806 5.00021L3.08914 5.354L3.09689 5.87289L4.78294 6.36819ZM4.8062 7.02467L4.78682 6.56867L4.46124 7.06005L4.8062 7.02467Z" fill="#878787"/>
<path fill-rule="evenodd" clip-rule="evenodd" d="M15.2636 2.60626V9.89038L15.7287 10.4171V12.2568L9.0465 17.1863L2.35658 12.2765V10.4211L2.82944 9.86679V2.5984L1.70929 0.821588L16.2946 0.817657L15.2636 2.60626ZM2.00774 0.98669L2.99224 2.54729V9.92576L2.52324 10.48V12.19L9.0465 16.9819L15.562 12.1743V10.48L15.1008 9.94935V2.55909L16.0077 0.982759L2.00774 0.98669Z" fill="#EF7D00"/>
</svg>
