<svg width="18" height="18" viewBox="0 0 18 18" fill="none" xmlns="http://www.w3.org/2000/svg">
<g id="16 - Beach Volleyball">
<path id="Vector" d="M18 9C18 11.3044 17.1342 13.4063 15.71 14.9984C15.3816 15.3654 15.0234 15.7055 14.6395 16.0141C14.5921 16.0527 14.5447 16.0901 14.4966 16.1272C14.2244 16.3374 13.9401 16.5324 13.6444 16.7109C12.7664 17.2406 11.7904 17.6249 10.75 17.8299C10.4704 17.885 10.1861 17.9272 9.89775 17.9559C9.60244 17.985 9.30305 18 9 18C6.29926 18 3.87626 16.8105 2.22648 14.9264C1.692 14.3162 1.2387 13.633 0.883477 12.8935C0.674086 12.4578 0.498867 12.0023 0.360738 11.531C0.335742 11.4454 0.311871 11.3594 0.28909 11.2727C0.16309 10.7867 0.076043 10.285 0.0326953 9.77066C0.0249961 9.6814 0.0187383 9.59214 0.013957 9.50214C0.00478125 9.33574 0 9.16861 0 9C0 8.82 0.00513281 8.64074 0.0161719 8.4633C0.0242578 8.32296 0.0356484 8.18374 0.0503438 8.04526C0.059168 7.95966 0.0694336 7.87444 0.0812109 7.78957C0.143648 7.31974 0.243211 6.86127 0.376207 6.41718C0.383555 6.39257 0.390902 6.36831 0.398988 6.3437C0.425813 6.25518 0.454465 6.167 0.484594 6.07957C0.688113 5.48522 0.952242 4.91913 1.26998 4.38831C2.84105 1.75996 5.71518 0 9 0C12.2848 0 15.159 1.75996 16.7301 4.38834C17.5368 5.73687 18 7.31461 18 9Z" fill="#FFD15C"/>
<path id="Vector_2" d="M16.5736 9.3012C16.5736 9.0897 16.4021 8.91827 16.1907 8.91827H16.063C15.8516 8.91827 15.6801 8.74682 15.6801 8.53536C15.6801 8.32389 15.5086 8.15244 15.2972 8.15244H9.42555C9.21405 8.15244 9.04263 8.32389 9.04263 8.53536C9.04263 8.74682 9.21409 8.91827 9.42555 8.91827H11.787C11.9984 8.91827 12.1699 9.08974 12.1699 9.3012C12.1699 9.51267 11.9984 9.68412 11.787 9.68412H10.7115C10.5 9.68412 10.3285 9.85558 10.3285 10.0671C10.3285 10.2785 10.5 10.45 10.7115 10.45H11.0363C11.2478 10.45 11.4193 10.6214 11.4193 10.8329C11.4193 11.0444 11.2478 11.2158 11.0363 11.2158H9.87229C9.66082 11.2158 9.48936 11.3873 9.48936 11.5987C9.48936 11.8102 9.66082 11.9817 9.87229 11.9817H15.3872C15.5986 11.9817 15.7701 11.8102 15.7701 11.5987C15.7701 11.3873 15.9416 11.2158 16.153 11.2158H16.1906C16.4021 11.2158 16.5736 11.0444 16.5736 10.8329C16.5736 10.6214 16.4021 10.45 16.1906 10.45H15.4886C15.2771 10.45 15.1057 10.2785 15.1057 10.0671C15.1057 9.85558 15.2771 9.68412 15.4886 9.68412H16.1906C16.4021 9.68415 16.5736 9.51274 16.5736 9.3012Z" fill="#EDBB4C"/>
<path id="Vector_3" d="M15.71 14.9984C15.3816 15.3654 15.0234 15.7055 14.6396 16.0141H12.567C12.4465 16.0141 12.337 15.9652 12.2577 15.8859C12.1783 15.8069 12.1295 15.6974 12.1295 15.5766C12.1295 15.3349 11.9337 15.139 11.692 15.139H10.9991C10.8783 15.139 10.7688 15.0902 10.6898 15.0108C10.6105 14.9318 10.5616 14.8224 10.5616 14.7015C10.5616 14.4598 10.7574 14.264 10.9991 14.264H15.1564C15.3977 14.264 15.5939 14.4598 15.5939 14.7015C15.5939 14.8162 15.638 14.9205 15.71 14.9984Z" fill="#EDBB4C"/>
<path id="Vector_4" d="M3.82005 7.44025C3.82005 7.53465 3.78183 7.6199 3.72013 7.68125C3.65843 7.74295 3.57318 7.78116 3.47914 7.78116H1.84961C1.66117 7.78116 1.5087 7.93399 1.5087 8.12242C1.5087 8.21647 1.47048 8.30169 1.40878 8.36342C1.34708 8.42516 1.26183 8.46334 1.16779 8.46334H0.0161743C0.0573071 7.75655 0.180389 7.07108 0.376174 6.41721H1.69826C1.88635 6.41721 2.03917 6.57003 2.03917 6.75847C2.03917 6.85251 2.07739 6.93773 2.13908 6.99946C2.20078 7.06116 2.28604 7.09938 2.38008 7.09938H3.47917C3.66722 7.09934 3.82005 7.25178 3.82005 7.44025Z" fill="#EDBB4C"/>
<path id="Vector_5" d="M16.7301 4.38834H1.2699C1.44107 4.10217 1.62768 3.8263 1.82864 3.56182C1.97264 3.37226 2.12398 3.18821 2.28229 3.01082C3.93059 1.16339 6.32937 0 8.99998 0C11.0358 0 12.9137 0.675914 14.4213 1.81579C14.6505 1.98879 14.8709 2.17248 15.0822 2.36679C15.7243 2.9553 16.2804 3.63635 16.7301 4.38834Z" fill="#279FC9"/>
<path id="Vector_6" d="M10.5572 2.95575H8.51853C8.36637 2.95575 8.24301 3.07911 8.24301 3.23127C8.24301 3.38343 8.36637 3.50679 8.51853 3.50679H10.5572C10.7093 3.50679 10.8327 3.38343 10.8327 3.23127C10.8327 3.07908 10.7093 2.95575 10.5572 2.95575Z" fill="#78CAEF"/>
<path id="Vector_7" d="M15.0822 2.36681H14.1388C14.0628 2.36681 13.9937 2.33594 13.9438 2.28598C13.8942 2.23603 13.8633 2.16733 13.8633 2.09129C13.8633 1.9392 13.9864 1.81577 14.1389 1.81577H14.4213C14.6505 1.98881 14.871 2.17246 15.0822 2.36681Z" fill="#78CAEF"/>
<path id="Vector_8" d="M15.0753 3.45163H13.0367C12.8845 3.45163 12.7611 3.57499 12.7611 3.72715C12.7611 3.87931 12.8845 4.00267 13.0367 4.00267H15.0753C15.2275 4.00267 15.3509 3.87931 15.3509 3.72715C15.3509 3.57496 15.2275 3.45163 15.0753 3.45163Z" fill="#78CAEF"/>
<path id="Vector_9" d="M2.95347 3.28629C2.95347 3.43837 2.83003 3.56181 2.67795 3.56181H1.82864C1.97264 3.37224 2.12399 3.1882 2.2823 3.0108H2.67795C2.75399 3.0108 2.82269 3.04167 2.87264 3.09163C2.9226 3.14116 2.95347 3.21024 2.95347 3.28629Z" fill="#78CAEF"/>
<path id="Vector_10" d="M12.1551 0.972168H10.1164C9.96428 0.972168 9.84091 1.09553 9.84091 1.24769C9.84091 1.39984 9.96428 1.52321 10.1164 1.52321H12.1551C12.3073 1.52321 12.4306 1.39984 12.4306 1.24769C12.4306 1.0955 12.3073 0.972168 12.1551 0.972168Z" fill="#78CAEF"/>
<path id="Vector_11" d="M6.67249 14.4856C6.67249 14.7292 6.47484 14.9264 6.23166 14.9264H2.22649C1.69201 14.3163 1.2387 13.633 0.883484 12.8935C0.905527 12.841 0.917656 12.783 0.917656 12.7223C0.917656 12.4792 1.11492 12.2815 1.35848 12.2815H5.54587C5.66748 12.2815 5.77766 12.3307 5.85774 12.4108C5.93744 12.4905 5.98669 12.6007 5.98669 12.7223C5.98669 12.9659 5.78943 13.1632 5.54587 13.1632H4.12535C3.88217 13.1632 3.68452 13.3604 3.68452 13.604C3.68452 13.8476 3.88217 14.0448 4.12535 14.0448H6.2317C6.3533 14.0448 6.46348 14.094 6.54322 14.1738C6.62327 14.2534 6.67249 14.3637 6.67249 14.4856Z" fill="#EDBB4C"/>
<path id="Vector_12" d="M9.00019 9C8.36799 9.36496 7.69697 9.60189 7.01705 9.71856C6.42784 9.81989 5.83239 9.83087 5.24962 9.75701C4.45966 9.65682 3.69356 9.40038 3 9.00114C3.00019 9.89015 3.19375 10.7339 3.54091 11.493C5.29848 12.4068 7.47121 12.4316 9.31401 11.3676C9.8036 11.085 10.2381 10.7438 10.614 10.358C10.1731 9.82765 9.63239 9.36496 9.00019 9Z" fill="#009ADD"/>
<path id="Vector_13" d="M4.7928 7.45665C4.7928 6.06612 5.2659 4.78619 6.05965 3.76877C4.23352 4.79737 3.00018 6.75456 3.00018 9.00002V9.00116C3.69355 9.40059 4.45965 9.65684 5.2498 9.75703C4.9553 9.0485 4.7928 8.27161 4.7928 7.45665Z" fill="#F06EA9"/>
<path id="Vector_14" d="M9.76725 13.4154C10.4731 13.0078 11.0646 12.4786 11.5309 11.8693C11.3036 11.3279 10.9962 10.8176 10.6142 10.358C10.2383 10.7438 9.80361 11.0849 9.31422 11.3676C7.47142 12.4315 5.29869 12.4068 3.54092 11.493C4.05115 12.6082 4.89301 13.54 5.94036 14.1621C7.2182 14.3409 8.56308 14.1104 9.76725 13.4154Z" fill="#F7CB15"/>
<path id="Vector_15" d="M9.5693 3.0267C7.89998 4.09204 6.79279 5.96079 6.79279 8.08807C6.79279 8.65322 6.87101 9.20019 7.01703 9.71856C7.69695 9.60189 8.36798 9.36496 9.00017 9C9.00017 8.26989 9.13066 7.57026 9.3693 6.9231C9.57631 6.36231 9.86457 5.8411 10.2199 5.37348C10.7019 4.73901 11.3072 4.2036 12.0002 3.80265C11.2727 3.38182 10.4487 3.10928 9.5693 3.0267Z" fill="#27C1E6"/>
<path id="Vector_16" d="M5.24982 9.75701C5.8324 9.83087 6.42804 9.81989 7.01706 9.71856C6.87104 9.20019 6.79282 8.65322 6.79282 8.08807C6.79282 5.9608 7.90001 4.09205 9.56933 3.0267C9.38202 3.0089 9.19225 3 9.0002 3C7.93183 3 6.92861 3.27917 6.05967 3.76875C5.26592 4.78617 4.79282 6.0661 4.79282 7.45663C4.79282 8.27159 4.95532 9.04849 5.24982 9.75701Z" fill="#FFF335"/>
<path id="Vector_17" d="M9.76723 13.4153C8.56307 14.1104 7.21818 14.3409 5.94034 14.1621C6.83617 14.6943 7.88238 15 9.00019 15C10.0934 15 11.1184 14.7076 12.0011 14.1966C12.0006 13.396 11.8394 12.604 11.5311 11.8693C11.0646 12.4786 10.4729 13.0078 9.76723 13.4153Z" fill="#A72973"/>
<path id="Vector_18" d="M12.4405 6.12805C11.7347 5.72047 10.9805 5.47275 10.2197 5.3735C9.8644 5.84112 9.57614 6.36233 9.36932 6.92313C9.89148 7.05589 10.4042 7.26157 10.8936 7.54434C12.736 8.60798 13.8008 10.5012 13.8886 12.4796C14.5765 11.5152 14.986 10.3383 14.9998 9.0667C14.5153 7.87143 13.6438 6.82275 12.4405 6.12805Z" fill="#FEDE3A"/>
<path id="Vector_19" d="M12.0002 3.80264C11.3072 4.20359 10.7017 4.7392 10.2199 5.37348C10.9805 5.47272 11.7347 5.72045 12.4405 6.12802C13.6437 6.82272 14.5155 7.87158 14.9998 9.06666C15 9.0445 15.0002 9.02234 15.0002 8.99999C15.0002 6.77916 13.7936 4.84014 12.0002 3.80264Z" fill="#EF5A9D"/>
<path id="Vector_20" d="M10.8936 7.54434C10.4042 7.26176 9.89147 7.05589 9.36931 6.92313C9.13049 7.57029 9.00018 8.26991 9.00018 9.00002C9.63238 9.36498 10.1731 9.82767 10.6142 10.358C10.9962 10.8176 11.3036 11.3279 11.5309 11.8693C11.8394 12.604 12.0004 13.396 12.0011 14.1966C12.7464 13.7654 13.3905 13.1781 13.8886 12.4796C13.8008 10.5012 12.736 8.60797 10.8936 7.54434Z" fill="#1CAEE4"/>
<path id="Vector_21" d="M14.9998 8.94337C14.9998 8.93845 14.9998 8.93352 14.9996 8.9286C14.9994 8.91496 14.9994 8.90133 14.999 8.88769C14.999 8.88106 14.9989 8.87424 14.9987 8.86762C14.9983 8.85587 14.9981 8.84413 14.9977 8.83239C14.9975 8.825 14.9971 8.81762 14.997 8.81004C14.9966 8.79868 14.9962 8.78712 14.9958 8.77576C14.9956 8.76856 14.9954 8.76155 14.9951 8.75436C14.9945 8.74262 14.9941 8.73087 14.9934 8.71913C14.9932 8.71231 14.9928 8.70549 14.9924 8.69868C14.9918 8.6858 14.9911 8.67292 14.9905 8.66023C14.9901 8.65474 14.9899 8.64905 14.9894 8.64356C14.9873 8.60644 14.9848 8.56932 14.982 8.53239C14.9814 8.52822 14.9812 8.52405 14.9809 8.51989C14.9797 8.50568 14.9786 8.49148 14.9774 8.47727C14.9769 8.4714 14.9763 8.46572 14.9759 8.45985C14.9748 8.44716 14.9737 8.43428 14.9723 8.4214C14.9718 8.41591 14.9712 8.41004 14.9706 8.40455C14.9693 8.39167 14.968 8.37879 14.9668 8.3661C14.9661 8.36004 14.9655 8.35398 14.9648 8.34792C14.9634 8.33504 14.9621 8.32197 14.9604 8.30909C14.9598 8.30417 14.9593 8.29905 14.9587 8.29394C14.957 8.27936 14.9553 8.26458 14.9534 8.24981C14.9528 8.2464 14.9524 8.2428 14.9521 8.2394C14.9449 8.18371 14.9373 8.12822 14.9286 8.07292C14.9282 8.07008 14.9276 8.06705 14.9273 8.06402C14.9248 8.04887 14.9225 8.03371 14.9199 8.01837C14.9193 8.01458 14.9187 8.0108 14.918 8.00701C14.9155 7.99224 14.9131 7.97727 14.9104 7.9625C14.9098 7.95928 14.9093 7.95587 14.9087 7.95265C14.9059 7.93674 14.903 7.92102 14.9002 7.9053C14.8998 7.90322 14.8994 7.90095 14.899 7.89886C14.8958 7.88182 14.8928 7.86496 14.8894 7.84811C14.8892 7.84678 14.889 7.84527 14.8886 7.84394C14.8742 7.76989 14.8583 7.6964 14.8413 7.6233C14.8411 7.62235 14.8409 7.62159 14.8407 7.62065C14.8365 7.60322 14.8324 7.58599 14.8282 7.56875L14.8273 7.56553C14.8231 7.54811 14.8185 7.53049 14.8142 7.51288C14.814 7.5125 14.814 7.51212 14.8138 7.51174C14.786 7.40208 14.7549 7.29375 14.721 7.18655C14.6362 7.45455 14.5329 7.7144 14.4131 7.96458C14.6473 8.31212 14.8435 8.68163 14.9996 9.06667C14.9998 9.04432 15 9.02216 15 9C15.0002 8.98106 15 8.96231 14.9998 8.94337Z" fill="#A72973"/>
<path id="Vector_22" d="M13.8886 8.85324C13.6557 9.17956 13.3911 9.48165 13.0992 9.75494C13.5754 10.5873 13.846 11.5235 13.8886 12.4796C14.5765 11.5152 14.986 10.3383 14.9998 9.06668C14.8437 8.68165 14.6475 8.31214 14.4133 7.9646C14.2636 8.27672 14.0879 8.57388 13.8886 8.85324Z" fill="#E7AD27"/>
<path id="Vector_23" d="M9.76725 13.4153C10.4731 13.0078 11.0646 12.4786 11.5309 11.8693C11.4051 11.5699 11.2549 11.2799 11.0811 11.0027C10.5273 11.2074 9.93524 11.3328 9.3182 11.365C9.31687 11.3659 9.31536 11.3667 9.31403 11.3674C7.47123 12.4314 5.2985 12.4066 3.54092 11.4928C4.05096 12.6081 4.89282 13.54 5.94017 14.1621C7.2182 14.3409 8.56308 14.1104 9.76725 13.4153Z" fill="#E7AD27"/>
<path id="Vector_24" d="M3.5409 7.86648C3.44033 7.64659 3.35283 7.4197 3.27897 7.18655C3.27897 7.18693 3.27878 7.18712 3.27878 7.1875C3.27348 7.20436 3.26818 7.2214 3.26287 7.23826C3.26155 7.24299 3.26003 7.24773 3.25852 7.25265C3.25473 7.26496 3.25113 7.27727 3.24734 7.28977C3.24564 7.29583 3.24374 7.30189 3.24204 7.30796C3.23882 7.31894 3.2356 7.32993 3.23257 7.3411C3.23049 7.34792 3.22859 7.35493 3.22651 7.36193C3.22367 7.37197 3.22083 7.3822 3.21799 7.39224C3.21609 7.39962 3.21401 7.40701 3.21212 7.41421C3.20908 7.42462 3.20624 7.43523 3.2034 7.44564C3.2017 7.45227 3.19999 7.45871 3.19829 7.46515C3.19526 7.47652 3.19242 7.48769 3.18939 7.49905C3.18787 7.5053 3.18617 7.51174 3.18465 7.51799C3.18143 7.53011 3.1784 7.54205 3.17556 7.55417C3.17424 7.55966 3.17291 7.56477 3.17158 7.57008C3.16742 7.58712 3.16325 7.60417 3.15946 7.62121C3.15927 7.62159 3.15908 7.62216 3.1589 7.62254C3.15492 7.64015 3.15075 7.65758 3.14677 7.67519C3.14564 7.68087 3.14431 7.68655 3.14299 7.69243C3.14052 7.70436 3.13787 7.71629 3.13522 7.72822C3.13371 7.73485 3.13238 7.74148 3.13105 7.74792C3.12878 7.75909 3.12632 7.77027 3.12405 7.78125C3.12253 7.78845 3.12121 7.79546 3.11988 7.80246C3.11761 7.81326 3.11552 7.82424 3.11325 7.83523C3.11193 7.84205 3.1106 7.84886 3.10927 7.85568C3.10719 7.86686 3.10511 7.87803 3.10302 7.88921C3.1017 7.89602 3.10037 7.90265 3.09924 7.90947C3.09696 7.92102 3.09488 7.93277 3.0928 7.94451C3.09185 7.95076 3.09052 7.95682 3.08958 7.96307C3.0873 7.97652 3.08484 7.98996 3.08276 8.00341C3.082 8.00777 3.08124 8.01212 3.08049 8.01648C3.07461 8.05265 3.06893 8.08902 3.06363 8.12557C3.06287 8.13049 3.06211 8.13542 3.06155 8.14034C3.05965 8.15322 3.05776 8.16629 3.05605 8.17917C3.05511 8.18636 3.05397 8.19337 3.05321 8.20057C3.0517 8.21155 3.05037 8.22254 3.04886 8.23333C3.04791 8.24072 3.04715 8.2483 3.04602 8.25568C3.04469 8.26667 3.04336 8.27765 3.04204 8.28883C3.04128 8.29602 3.04033 8.30322 3.03958 8.31042C3.03844 8.3214 3.03711 8.33258 3.03598 8.34356C3.03522 8.35095 3.03427 8.35833 3.03352 8.36572C3.03238 8.37727 3.03124 8.38864 3.02992 8.40019C3.02935 8.40682 3.02859 8.41345 3.02802 8.42027C3.02689 8.43239 3.02556 8.4447 3.02461 8.45682C3.02405 8.46326 3.02348 8.4697 3.02291 8.47595C3.02158 8.4911 3.02026 8.50606 3.01912 8.52121C3.01874 8.52576 3.01836 8.5303 3.01818 8.53485C3.01666 8.55189 3.01552 8.56875 3.01439 8.5858C3.01401 8.59148 3.01363 8.59735 3.01325 8.60303C3.01249 8.61591 3.01174 8.62879 3.01098 8.64148C3.0106 8.64811 3.01022 8.65474 3.00984 8.66117C3.00908 8.67311 3.00852 8.68523 3.00795 8.69716C3.00757 8.70436 3.00719 8.71155 3.007 8.71875C3.00643 8.73011 3.00586 8.74167 3.00549 8.75303C3.00511 8.76042 3.00492 8.7678 3.00454 8.775C3.00416 8.78636 3.00378 8.79773 3.0034 8.80928C3.00321 8.81686 3.00302 8.82424 3.00283 8.83182C3.00246 8.84337 3.00227 8.85511 3.00189 8.86686C3.0017 8.87367 3.00151 8.88068 3.00132 8.8875C3.00113 8.9 3.00094 8.9125 3.00075 8.925C3.00075 8.93144 3.00056 8.93788 3.00056 8.94413C3.00037 8.96288 3.00018 8.98125 3.00018 9V9.00114C3.57064 9.32974 4.19034 9.56155 4.83181 9.6892C4.29545 9.17064 3.8553 8.55341 3.5409 7.86648Z" fill="#A72973"/>
<path id="Vector_25" d="M12.0012 10.5703C11.7093 10.7392 11.4015 10.8843 11.0811 11.0029C11.2549 11.2799 11.4053 11.5699 11.5311 11.8695C11.8394 12.6042 12.0006 13.3962 12.0012 14.1968C12.7466 13.7654 13.3907 13.1782 13.8887 12.4797C13.8462 11.5237 13.5756 10.5873 13.0993 9.75513C12.7665 10.0665 12.3981 10.3404 12.0012 10.5703Z" fill="#136DA0"/>
<path id="Vector_26" d="M9.3142 11.3676C9.31552 11.3669 9.31704 11.3659 9.31836 11.3651C9.21287 11.3706 9.107 11.3735 9.00018 11.3735C7.88238 11.3735 6.83617 11.0678 5.94033 10.5356C5.53806 10.2968 5.16628 10.0121 4.83181 9.68901C4.19015 9.56136 3.57064 9.32973 3.00018 9.00113C3.00037 9.89015 3.19393 10.7339 3.5409 11.493C5.29867 12.4068 7.4714 12.4314 9.3142 11.3676Z" fill="#136DA0"/>
</g>
</svg>
