<svg width="18" height="18" viewBox="0 0 18 18" fill="none" xmlns="http://www.w3.org/2000/svg">
<g id="85 - Surfing" clip-path="url(#clip0)">
<g id="Group">
<path id="Vector" d="M1.01926 17.7433L0.291833 17.0159C0.0373618 16.7613 -0.0356973 16.3771 0.107812 16.0469L1.65235 12.4946C1.87757 11.9766 2.15937 11.4848 2.49638 11.0315C3.77944 9.30488 5.18803 7.67478 6.71101 6.15427L8.04653 4.82122C9.66042 3.21008 11.627 1.9965 13.7907 1.27635L17.5766 0.016351C17.8182 -0.0639865 18.0478 0.165628 17.9675 0.407052L16.7116 4.18044C15.9888 6.3523 14.7688 8.32531 13.1489 9.9425L11.5521 11.5365C10.2031 12.8833 8.62071 14.2875 7.06641 15.4889C6.5767 15.8676 6.03974 16.1808 5.4712 16.4259L1.98579 17.9285C1.65606 18.0705 1.27305 17.9971 1.01926 17.7433Z" fill="#6E8B07"/>
<path id="Vector_2" d="M16.7116 4.18044L17.9673 0.407052C18.0478 0.165628 17.818 -0.0639866 17.5766 0.016351L15.9292 0.564569L15.2217 2.69056C14.4989 4.86242 13.2789 6.83557 11.659 8.45262L10.0622 10.0466C8.71326 11.3934 7.13081 12.7976 5.57666 13.9992C5.08681 14.3778 4.54985 14.6909 3.98131 14.9361L0.495895 16.4387C0.349777 16.5016 0.193222 16.5221 0.0420227 16.5035C0.0653687 16.6933 0.150513 16.8746 0.291824 17.0159L1.01926 17.7433C1.27304 17.9973 1.65605 18.0706 1.98564 17.9285L5.47119 16.4258C6.0396 16.1807 6.57669 15.8676 7.06641 15.4889C8.6207 14.2873 10.203 12.8831 11.5521 11.5363L13.1488 9.94236C14.7688 8.32531 15.9888 6.35217 16.7116 4.18044Z" fill="#455800"/>
<path id="Vector_3" d="M3.56673 11.2331C3.386 11.4616 3.20857 11.6927 3.03471 11.9265C2.80276 12.2381 2.60748 12.5752 2.45258 12.9315L1.35326 15.4598C1.28844 15.6091 1.3214 15.783 1.43648 15.898L2.11845 16.58C2.23326 16.6948 2.40657 16.7279 2.55557 16.6636L5.03848 15.5933C5.42891 15.4251 5.7964 15.2084 6.13258 14.9481C6.34572 14.7832 6.55954 14.6125 6.77267 14.4377C6.93719 14.3027 7.0211 14.0916 6.99034 13.8811C6.93513 13.504 6.70854 12.8657 5.91066 12.0678C5.12953 11.2867 4.50977 11.0613 4.13651 11.0066C3.91966 10.9749 3.70282 11.0612 3.56673 11.2331Z" fill="#FFAA00"/>
<path id="Vector_4" d="M6.99033 13.8811C6.96163 13.6846 6.88609 13.4172 6.70784 13.0934C6.33156 13.4047 5.95323 13.7079 5.57666 13.999C5.08695 14.3778 4.54985 14.6909 3.98145 14.936L1.53094 15.9924L2.11844 16.58C2.23325 16.6948 2.40656 16.728 2.55556 16.6636L5.03847 15.5933C5.42889 15.4251 5.79639 15.2084 6.13257 14.9483C6.3457 14.7832 6.55952 14.6125 6.77266 14.4378C6.93718 14.3027 7.02109 14.0916 6.99033 13.8811Z" fill="#FF8500"/>
<path id="Vector_5" d="M1.91274 14.173L1.35326 15.4598C1.28844 15.6091 1.3214 15.783 1.43648 15.898L2.11845 16.58C2.23326 16.6948 2.40657 16.7279 2.55557 16.6637L3.84688 16.1071L1.91274 14.173Z" fill="#FF8500"/>
<path id="Vector_6" d="M2.55556 16.6636L3.84686 16.1071L3.06903 15.3292L1.53094 15.9924L2.11844 16.58C2.23325 16.6948 2.40642 16.7279 2.55556 16.6636Z" fill="#FF6D00"/>
<path id="Vector_7" d="M3.34988 9.9212H13.1699C14.0171 9.07196 14.7542 8.12535 15.3676 7.10362H5.78899C4.93631 8.00793 4.1225 8.94795 3.34988 9.9212Z" fill="#A0B5FF"/>
<path id="Vector_8" d="M16.7116 4.18042L16.9045 3.60075H9.43382C8.94754 3.97717 8.48393 4.38449 8.04653 4.8212L6.711 6.15439C6.62325 6.242 6.5359 6.33003 6.44897 6.41847H15.754C16.1333 5.7023 16.4541 4.95399 16.7116 4.18042Z" fill="#A0B5FF"/>
<path id="Vector_9" d="M11.6591 8.45261L10.1879 9.9212H13.1699C14.017 9.07196 14.7542 8.12535 15.3675 7.10362H12.8536C12.4843 7.5759 12.0856 8.02675 11.6591 8.45261Z" fill="#6070FF"/>
<path id="Vector_10" d="M16.7116 4.18044L16.9045 3.60077H14.8847C14.4794 4.59435 13.9672 5.53903 13.3581 6.41849H15.754C16.1333 5.70232 16.4541 4.95401 16.7116 4.18044Z" fill="#6070FF"/>
</g>
</g>
<defs>
<clipPath id="clip0">
<rect width="18" height="18" fill="white"/>
</clipPath>
</defs>
</svg>
