<svg width="18" height="18" viewBox="0 0 18 18" fill="none" xmlns="http://www.w3.org/2000/svg">
<g id="15 - Table Tennis" clip-path="url(#clip0)">
<g id="Group">
<path id="Vector" d="M2.3475 6.9707C1.76385 8.71231 2.46464 10.6813 4.11698 11.6352L5.96131 12.7001L7.8055 13.7649C9.45785 14.7188 11.5135 14.3413 12.73 12.965L2.3475 6.9707Z" fill="#F0A65F"/>
<path id="Vector_2" d="M11.6029 12.3143C10.6882 13.4255 9.34812 13.3804 7.75167 12.4587L5.55715 11.1917L3.71282 10.1269C3.01367 9.7232 2.4855 9.13722 2.15234 8.46417C2.23254 9.73803 2.92867 10.9491 4.11698 11.6352L7.80564 13.7649C9.45785 14.7188 11.5135 14.3412 12.73 12.965L11.6029 12.3143Z" fill="#E28540"/>
<path id="Vector_3" d="M12.73 12.965C12.9022 12.7701 13.0577 12.5553 13.1928 12.3215L15.0463 9.11097C16.7234 6.20618 15.728 2.49184 12.8233 0.81464C9.91847 -0.862424 6.20412 0.132801 4.52706 3.03759L2.67352 6.24807C2.53839 6.48194 2.43018 6.72405 2.3475 6.97056L12.73 12.965Z" fill="#EF3535"/>
<path id="Vector_4" d="M15.3456 3.62823C15.5336 4.92984 15.3022 6.30164 14.5936 7.52894L12.74 10.7394C12.5222 11.1167 12.0398 11.2459 11.6626 11.0281L2.85095 5.94072L2.67352 6.24807C2.53839 6.48194 2.43018 6.72405 2.3475 6.97056L12.73 12.965C12.9022 12.7701 13.0577 12.5553 13.1928 12.3213L15.0463 9.11097C16.0515 7.36977 16.0962 5.33799 15.3456 3.62823Z" fill="#D33131"/>
<path id="Vector_5" d="M6.37757 9.29733L2.35492 16.2647C2.13712 16.642 2.26648 17.1243 2.64372 17.3421L3.1219 17.6181L3.59995 17.8941C3.97733 18.112 4.45963 17.9827 4.67743 17.6055L8.70008 10.6382L6.37757 9.29733Z" fill="#F0A65F"/>
<path id="Vector_6" d="M7.98264 10.2242L4.23616 16.7133C4.12726 16.9019 3.88611 16.9666 3.69742 16.8576L2.87783 16.3843L2.43385 16.1281L2.35488 16.2647C2.13708 16.642 2.26631 17.1243 2.64355 17.3421L3.59991 17.8941C3.97716 18.112 4.45959 17.9827 4.6774 17.6055L8.69991 10.6382L7.98264 10.2242Z" fill="#E28540"/>
<path id="Vector_7" d="M6.00734 2.68563C6.00734 3.69198 5.1916 4.50771 4.18525 4.50771C3.1789 4.50771 2.36316 3.69198 2.36316 2.68563C2.36316 1.67942 3.1789 0.863678 4.18525 0.863678C5.1916 0.863678 6.00734 1.67942 6.00734 2.68563Z" fill="#FFD432"/>
<path id="Vector_8" d="M4.90964 1.01364C5.00605 1.23583 5.05974 1.48069 5.05974 1.73819C5.05974 2.74453 4.24401 3.56027 3.23779 3.56027C2.98016 3.56027 2.73531 3.50658 2.51324 3.41017C2.7934 4.05589 3.43637 4.50771 4.18523 4.50771C5.19144 4.50771 6.00718 3.69197 6.00718 2.68562C6.00731 1.9369 5.5555 1.29393 4.90964 1.01364Z" fill="#F4AC03"/>
</g>
</g>
<defs>
<clipPath id="clip0">
<rect width="18" height="18" fill="white"/>
</clipPath>
</defs>
</svg>
