<svg width="18" height="18" viewBox="0 0 18 18" fill="none" xmlns="http://www.w3.org/2000/svg">
<path d="M17.6028 2.19906C17.4617 1.26302 16.7374 0.538632 15.8013 0.397506C11.6096 -0.231659 7.29137 1.20855 4.25008 4.24984C1.20878 7.29113 -0.231425 11.6093 0.397959 15.8012C0.468522 16.2692 0.684338 16.6843 0.999999 17C1.31566 17.3156 1.73098 17.5317 2.19923 17.6025C6.3907 18.2314 10.7089 16.7912 13.7502 13.7499C16.7915 10.7086 18.2317 6.39053 17.6028 2.19906Z" fill="#844A4A"/>
<path d="M16.9928 0.993641C16.678 0.681668 16.2661 0.467415 15.8014 0.397383C11.6097 -0.23178 7.29147 1.20843 4.25017 4.24973C1.20888 7.29102 -0.231333 11.6092 0.398049 15.8011C0.468112 16.2658 0.681834 16.6777 0.993807 16.9925L16.9927 0.99361L16.9928 0.993641Z" fill="#583640"/>
<path d="M6.00015 12C5.86196 11.8618 5.86197 11.6381 6.00015 11.5L11.5002 5.99988C11.6384 5.86169 11.8621 5.86169 12.0002 5.99987C12.1384 6.13806 12.1384 6.36169 12.0002 6.49987L6.50015 12C6.36196 12.1381 6.13833 12.1381 6.00015 12Z" fill="#E6BE94"/>
<path d="M9.50016 9.99989L8.00015 8.49988C7.86197 8.36169 7.86197 8.13807 8.00015 7.99988C8.13834 7.86169 8.36197 7.86169 8.50016 7.99988L10.0002 9.49989C10.1384 9.63808 10.1384 9.8617 10.0002 9.99989C9.86198 10.1381 9.63835 10.1381 9.50016 9.99989Z" fill="#FFEBB7"/>
<path d="M10.5002 8.99989L9.00016 7.49988C8.86197 7.3617 8.86197 7.13807 9.00016 6.99988C9.13835 6.86169 9.36198 6.86169 9.50016 6.99988L11.0002 8.49989C11.1384 8.63808 11.1384 8.8617 11.0002 8.99989C10.862 9.13808 10.6384 9.13808 10.5002 8.99989Z" fill="#FFEBB7"/>
<path d="M8.50016 10.9999L7.00015 9.49991C6.86197 9.36172 6.86197 9.1381 7.00015 8.99991C7.13834 8.86172 7.36197 8.86172 7.50016 8.9999L9.00017 10.4999C9.13836 10.6381 9.13836 10.8617 9.00017 10.9999C8.86198 11.1381 8.63835 11.1381 8.50016 10.9999Z" fill="#FFEBB7"/>
<path d="M11.5002 7.99986L10.0002 6.49985C9.86204 6.36167 9.86204 6.13804 10.0002 5.99985C10.1384 5.86166 10.362 5.86166 10.5002 5.99985L12.0002 7.49986C12.1384 7.63805 12.1384 7.86167 12.0002 7.99986C11.862 8.13805 11.6384 8.13805 11.5002 7.99986Z" fill="#FFEBB7"/>
<path d="M7.50014 11.9999L6.00013 10.4999C5.86194 10.3617 5.86194 10.1381 6.00013 9.99994C6.13832 9.86175 6.36195 9.86175 6.50013 9.99994L8.00014 11.4999C8.13833 11.6381 8.13833 11.8618 8.00014 11.9999C7.86195 12.1381 7.63833 12.1381 7.50014 11.9999Z" fill="#FFEBB7"/>
<path d="M1.12073 9.12054L8.87961 16.8794C8.37961 17.0669 7.86979 17.2246 7.35216 17.352L0.648224 10.6481C0.775631 10.1304 0.933165 9.62054 1.12073 9.12054Z" fill="#FFEBB7"/>
<path d="M9.12079 1.12046L16.8797 8.87934C17.0672 8.37934 17.2248 7.86952 17.3523 7.35188L10.6483 0.647949C10.1307 0.775357 9.62076 0.932921 9.12079 1.12046Z" fill="#FFEBB7"/>
<path d="M4.99331 12.9931L1.12073 9.12054C0.933227 9.62054 0.775632 10.1304 0.648224 10.6481L3.9933 13.9931L4.99331 12.9931Z" fill="#E6BE94"/>
<path d="M13.9934 3.99303L10.6483 0.647949C10.1307 0.775357 9.62079 0.932953 9.12079 1.12046L12.9934 4.99304L13.9934 3.99303Z" fill="#E6BE94"/>
</svg>
