<svg width="18" height="18" viewBox="0 0 18 18" fill="none" xmlns="http://www.w3.org/2000/svg">
<g id="6 - Formula 1" clip-path="url(#clip0)">
<g id="Group">
<path id="Vector" d="M11.3756 5.66982L8.99988 3.29409L9.87767 2.41629L12.511 5.04966L11.3756 5.66982Z" fill="#7F8C8D"/>
<path id="Vector_2" d="M12.7305 5.2691L15.5833 8.12192L14.7055 8.99971L12.1316 6.42581L12.7305 5.2691Z" fill="#7F8C8D"/>
<path id="Vector_3" d="M11.2404 12.0259L8.72118 14.5451C8.51271 14.4903 8.94283 15.6402 8.78044 15.8026V16.2415L5.48872 13.8275L10.9376 12.2278C11.051 12.1814 11.154 12.1128 11.2404 12.0259Z" fill="#802F34"/>
<path id="Vector_4" d="M6.65619 14.1172L7.6832 15.1442L6.80542 16.8998L4.17206 14.7053L6.65619 14.1172Z" fill="#7F8C8D"/>
<path id="Vector_5" d="M5.97371 6.75916C5.88682 6.84558 5.81817 6.94856 5.77182 7.062L4.61094 12.5109L1.53869 10.3164V9.43861C1.70108 9.27622 3.50932 9.48689 3.45446 9.27841L5.97371 6.75916Z" fill="#802F34"/>
<path id="Vector_6" d="M2.85537 10.3164L3.88238 11.3434L3.29426 13.3887L0.441452 10.9747L2.85537 10.3164Z" fill="#7F8C8D"/>
<path id="Vector_7" d="M12.2916 0.0023656L15.3639 3.07463C15.3372 3.08593 15.3121 3.10069 15.2892 3.11852L14.3434 3.80978L11.4138 0.880161C11.2926 0.758964 11.2926 0.562464 11.4138 0.441266L11.8527 0.00236753C11.9739 -0.11883 12.1704 -0.118831 12.2916 0.0023656Z" fill="#802F34"/>
<path id="Vector_8" d="M14.925 2.63574L17.9972 5.70799C18.1184 5.82919 18.1184 6.02569 17.9972 6.14689L17.5583 6.58579C17.4371 6.70699 17.2406 6.70699 17.1194 6.58579L14.1898 3.65617L14.8811 2.71035C14.8989 2.68751 14.9137 2.66242 14.925 2.63574Z" fill="#802F34"/>
<path id="Vector_9" d="M9.43879 1.09962L7.68322 2.85519C7.44082 3.09759 7.44082 3.49058 7.68322 3.73298L8.34156 4.39131C8.58395 4.6337 8.97695 4.6337 9.21934 4.39131L10.9749 2.63574C11.2173 2.39335 11.2173 2.00034 10.9749 1.75795L10.3166 1.09962C10.0742 0.857216 9.68119 0.857217 9.43879 1.09962Z" fill="#2C2F38"/>
<path id="Vector_10" d="M15.3638 7.02466L13.6083 8.78024C13.3659 9.02263 13.3659 9.41563 13.6083 9.65803L14.2666 10.3164C14.509 10.5588 14.902 10.5588 15.1444 10.3164L16.9 8.5608C17.1424 8.31841 17.1424 7.92541 16.9 7.68301L16.2416 7.02467C15.9992 6.78227 15.6062 6.78227 15.3638 7.02466Z" fill="#2C2F38"/>
<path id="Vector_11" d="M2.63593 8.34137L3.29427 8.99971C3.53666 9.2421 3.53666 9.6351 3.29427 9.8775L1.97759 11.1942L1.75814 10.9747C1.63694 10.8535 1.44045 10.8535 1.31925 10.9747L0.660909 11.6331L0.00256866 10.9747C-0.238802 10.7319 -0.238801 10.3398 0.00256933 10.097L1.75814 8.34137C2.00096 8.1 2.39311 8.1 2.63593 8.34137Z" fill="#2C2F38"/>
<path id="Vector_12" d="M8.99989 14.7053L9.65823 15.3637C9.8996 15.6065 9.8996 15.9987 9.65823 16.2415L7.90266 17.9971C7.65984 18.2384 7.26769 18.2384 7.02487 17.9971L6.36652 17.3387L7.02486 16.6804C7.14606 16.5592 7.14606 16.3627 7.02486 16.2415L6.80542 16.022L8.1221 14.7053C8.36449 14.4629 8.75749 14.4629 8.99989 14.7053Z" fill="#2C2F38"/>
<path id="Vector_13" d="M14.7252 2.43606C14.6986 2.44736 14.6735 2.46211 14.6506 2.47995L13.7048 3.1712L11.9273 4.46594L10.9135 5.20767L8.12209 7.24414C7.79134 7.12217 7.48731 6.93736 7.22675 6.69991C6.85601 6.39442 6.31397 6.42005 5.97371 6.75916C5.88682 6.84558 5.81817 6.94856 5.77182 7.062L3.88238 11.3434L3.34473 12.5613L3.73315 14.2664L5.43825 14.6549L6.65618 14.1172L10.9376 12.2278C11.051 12.1814 11.154 12.1128 11.2404 12.0259C11.5795 11.6856 11.6052 11.1436 11.2997 10.7728C11.0622 10.5123 10.8774 10.2083 10.7555 9.8775L12.7919 7.08613L13.5337 6.07229L14.8284 4.29477L15.5196 3.34895C15.5375 3.32611 15.5522 3.30102 15.5635 3.27434C15.7391 2.86617 15.1334 2.2605 14.7252 2.43606Z" fill="#E64C3C"/>
<path id="Vector_14" d="M6.58597 10.097L7.90265 11.4136L5.45362 12.7566C5.39315 12.7898 5.31805 12.7791 5.26929 12.7303C5.22052 12.6816 5.20979 12.6065 5.24295 12.546L6.58597 10.097Z" fill="#802F34"/>
<path id="Vector_15" d="M8.99988 8.99971C9.36347 9.36331 9.36347 9.9528 8.99988 10.3164L7.90265 11.4136L6.58597 10.097L7.6832 8.99971C8.04679 8.63612 8.63629 8.63612 8.99988 8.99971Z" fill="#2C2F38"/>
<path id="Vector_16" d="M1.31924 10.9747L0.00255736 12.2914C-0.11864 12.4126 -0.11864 12.6091 0.00255736 12.7303L5.26928 17.997C5.39048 18.1182 5.58698 18.1182 5.70818 17.997L7.02486 16.6804C7.14606 16.5592 7.14606 16.3627 7.02486 16.2415L1.75813 10.9747C1.63694 10.8535 1.44044 10.8535 1.31924 10.9747Z" fill="#FB7B76"/>
<path id="Vector_17" d="M1.97758 12.9498C1.85638 13.071 1.65988 13.071 1.53869 12.9498L1.31924 12.7303C1.19804 12.6091 1.19804 12.4126 1.31924 12.2914C1.44044 12.1702 1.63693 12.1702 1.75813 12.2914L1.97758 12.5109C2.09878 12.6321 2.09878 12.8286 1.97758 12.9498Z" fill="#E6E7E8"/>
<path id="Vector_18" d="M3.95262 14.9248C3.83142 15.046 3.63492 15.046 3.51373 14.9248L2.41648 13.8276C2.29529 13.7064 2.29529 13.5099 2.41648 13.3887C2.53768 13.2675 2.73418 13.2675 2.85538 13.3887L3.95262 14.4859C4.07382 14.6071 4.07382 14.8036 3.95262 14.9248Z" fill="#E6E7E8"/>
</g>
</g>
<defs>
<clipPath id="clip0">
<rect width="18" height="18" fill="white"/>
</clipPath>
</defs>
</svg>
