<svg width="18" height="18" viewBox="0 0 18 18" fill="none" xmlns="http://www.w3.org/2000/svg">
<g id="18 - Darts" clip-path="url(#clip0)">
<g id="Group">
<path id="Vector" d="M16.0106 2.00788C13.3333 -0.669376 8.9927 -0.669376 6.31544 2.00788C3.63818 4.68514 3.63818 9.02575 6.31544 11.703C8.9927 14.3803 13.3333 14.3803 16.0106 11.703C18.6878 9.02575 18.6878 4.68514 16.0106 2.00788Z" fill="#FF4B00"/>
<path id="Vector_2" d="M16.0107 11.703C13.3333 14.3804 8.99298 14.3804 6.31558 11.703L16.0107 2.00775C18.6881 4.68515 18.6881 9.02562 16.0107 11.703Z" fill="#D03B00"/>
<path id="Vector_3" d="M15.265 10.9572C13.0052 13.217 9.32107 13.217 7.0613 10.9572C4.80166 8.69742 4.80152 5.01339 7.0613 2.75361C9.32107 0.493833 13.0052 0.493833 15.265 2.75361C17.5247 5.01339 17.5248 8.69756 15.265 10.9572Z" fill="#FFD400"/>
<path id="Vector_4" d="M15.265 10.9572C13.0053 13.217 9.32109 13.217 7.06131 10.9572L15.265 2.7536C17.5248 5.01338 17.5248 8.69755 15.265 10.9572Z" fill="#FDBF00"/>
<path id="Vector_5" d="M13.7735 9.46564C12.3341 10.905 9.99233 10.905 8.55297 9.46564C7.11361 8.02627 7.11361 5.68451 8.55297 4.24515C9.99233 2.80578 12.3341 2.80578 13.7735 4.24515C15.2128 5.68451 15.2128 8.02627 13.7735 9.46564Z" fill="#FF9F00"/>
<path id="Vector_6" d="M13.7735 9.46564C12.3341 10.905 9.99237 10.905 8.55301 9.46564L13.7735 4.24515C15.2129 5.68452 15.2129 8.02628 13.7735 9.46564Z" fill="#FF7816"/>
<path id="Vector_7" d="M13.0276 8.71995C11.9985 9.74911 10.3278 9.74911 9.29869 8.71995C8.26954 7.6908 8.26954 6.02017 9.29869 4.99101C10.3278 3.96186 11.9985 3.96186 13.0276 4.99101C14.0568 6.02017 14.0568 7.69066 13.0276 8.71995Z" fill="#FF4B00"/>
<path id="Vector_8" d="M13.0276 8.71991C11.9985 9.74906 10.3279 9.74906 9.29871 8.71991L13.0276 4.99097C14.0568 6.02013 14.0568 7.69062 13.0276 8.71991Z" fill="#D03B00"/>
<path id="Vector_9" d="M11.5361 7.22829L8.92584 9.83854C8.71696 10.0474 8.38888 10.0474 8.17999 9.83854C7.97125 9.6298 7.97125 9.30158 8.17999 9.09284L10.7902 6.48259C10.9991 6.27371 11.3272 6.27371 11.5361 6.48259C11.7448 6.69147 11.7448 7.01955 11.5361 7.22829Z" fill="#E2E2E7"/>
<path id="Vector_10" d="M8.17999 9.83863L11.5361 6.48254C11.7448 6.69142 11.7448 7.0195 11.5361 7.22838L8.92584 9.83863C8.71696 10.0474 8.38887 10.0474 8.17999 9.83863Z" fill="#BABAC0"/>
<path id="Vector_11" d="M8.85127 11.2556L7.42674 11.3226L7.25521 10.7633L6.77798 9.18217C8.07562 8.28732 9.33591 8.05606 9.35088 8.07103C9.5224 8.04864 9.67897 8.1158 9.79088 8.22758C9.90281 8.33951 9.96983 8.49606 9.94744 8.66773C9.80585 8.98839 9.74625 9.98775 8.85127 11.2556Z" fill="#4A696F"/>
<path id="Vector_12" d="M7.42674 11.3226L7.25522 10.7633L9.7909 8.22769C9.90282 8.33948 9.96984 8.49617 9.94745 8.6677C9.80587 8.98837 9.74613 9.98772 8.85128 11.2556L7.42674 11.3226Z" fill="#3E5959"/>
<path id="Vector_13" d="M8.04584 12.2102C7.88914 12.3668 4.71859 14.8079 4.71859 14.8079H3.2269V13.3164C3.2269 13.3164 5.65189 10.1294 5.80844 9.9728C5.85321 9.92803 5.9054 9.89082 5.95017 9.84605C6.21865 9.5924 6.5021 9.36868 6.778 9.18219L8.85128 11.2555C8.66478 11.5165 8.44107 11.785 8.17259 12.0685C8.12782 12.1132 8.09802 12.1579 8.04584 12.2102Z" fill="#B9DD39"/>
<path id="Vector_14" d="M8.04584 12.2102C7.88914 12.3667 4.71859 14.8079 4.71859 14.8079H3.2269L7.80715 10.2113L8.85128 11.2555C8.66478 11.5165 8.44107 11.785 8.17259 12.0685C8.12782 12.1132 8.09802 12.1579 8.04584 12.2102Z" fill="#93BF00"/>
<path id="Vector_15" d="M3.97273 18C3.03298 18 2.429 17.023 2.52595 16.0908L2.60794 15.4271L1.94422 15.5091C1.01188 15.621 0.0349121 14.9871 0.0349121 14.0623C0.0349121 13.1823 0.900096 12.5408 1.75031 12.8243L3.22689 13.3164L4.71844 14.808L5.21077 16.2846C5.49422 17.1349 4.86016 17.9926 3.97273 18Z" fill="#4A696F"/>
<path id="Vector_16" d="M3.97274 17.9999C3.03299 17.9999 2.429 17.023 2.52596 16.0908L2.60795 15.427L3.97274 14.0623L4.71858 14.808L5.21078 16.2847C5.49423 17.1349 4.86017 17.9925 3.97274 17.9999Z" fill="#3E5959"/>
</g>
</g>
<defs>
<clipPath id="clip0">
<rect width="18" height="18" fill="white"/>
</clipPath>
</defs>
</svg>
