<svg width="18" height="18" viewBox="0 0 18 18" fill="none" xmlns="http://www.w3.org/2000/svg">
<g id="48 - Olympics" clip-path="url(#clip0)">
<g id="Group">
<path id="Vector" d="M6.92286 6.59881C6.92286 8.43308 5.43592 9.92002 3.60165 9.92002C1.76752 9.92002 0.280579 8.43308 0.280579 6.59881C0.280579 4.76467 1.76752 3.27774 3.60165 3.27774C5.43592 3.27774 6.92286 4.76467 6.92286 6.59881Z" fill="#BDDCF3"/>
<path id="Vector_2" d="M12.3211 6.59881C12.3211 8.43308 10.8341 9.92002 9.00001 9.92002C7.16574 9.92002 5.6788 8.43308 5.6788 6.59881C5.6788 4.76467 7.16574 3.27774 9.00001 3.27774C10.8341 3.27774 12.3211 4.76467 12.3211 6.59881Z" fill="#586270"/>
<path id="Vector_3" d="M17.7195 6.59881C17.7195 8.43308 16.2325 9.92002 14.3983 9.92002C12.5641 9.92002 11.0772 8.43308 11.0772 6.59881C11.0772 4.76467 12.5641 3.27774 14.3983 3.27774C16.2325 3.27774 17.7195 4.76467 17.7195 6.59881Z" fill="#FE9189"/>
<path id="Vector_4" d="M15.0203 11.0974C15.0203 12.9317 13.5333 14.4186 11.6992 14.4186C9.86493 14.4186 8.37799 12.9317 8.37799 11.0974C8.37799 9.26325 9.86493 7.77631 11.6992 7.77631C13.5333 7.77631 15.0203 9.26325 15.0203 11.0974Z" fill="#81CB97"/>
<path id="Vector_5" d="M9.62208 11.0974C9.62208 12.9317 8.13513 14.4186 6.30086 14.4186C4.46658 14.4186 2.97964 12.9317 2.97964 11.0974C2.97964 9.26325 4.46658 7.77631 6.30086 7.77631C8.13513 7.77631 9.62208 9.26325 9.62208 11.0974Z" fill="#F6DB6D"/>
<path id="Vector_6" d="M12.5989 6.59879C12.5991 6.93061 12.5526 7.26078 12.4609 7.57956C12.4071 7.77547 12.3358 7.96616 12.248 8.14929C11.7669 9.1534 10.8494 9.87923 9.76186 10.1167C9.56348 10.16 9.36181 10.1851 9.15904 10.1917C9.05319 10.1996 8.94693 10.1996 8.84109 10.1917C8.9074 9.98384 8.99581 9.78381 9.10495 9.59491C9.25404 9.5912 9.40245 9.57528 9.54893 9.54686C10.4082 9.38486 11.1546 8.85727 11.5942 8.10138C11.7039 7.91275 11.7925 7.71259 11.8581 7.5046C11.9525 7.21191 12 6.90631 11.9991 6.59879C11.9991 4.94259 10.6564 3.5998 9.00006 3.5998C7.34371 3.5998 6.00092 4.94259 6.00092 6.59879C5.99996 6.90631 6.0476 7.21191 6.14192 7.5046C5.93915 7.51106 5.73734 7.53618 5.5391 7.57956C5.44739 7.26078 5.40099 6.93061 5.40112 6.59879C5.40112 4.61132 7.01244 3 9.00006 3C10.9877 3 12.5989 4.61132 12.5989 6.59879Z" fill="#3A3E48"/>
<path id="Vector_7" d="M6.4598 7.50461C6.39349 7.71246 6.30508 7.91249 6.1958 8.10139C6.22889 8.09837 6.26486 8.09837 6.30082 8.09837C6.48492 8.09837 6.66861 8.11553 6.84969 8.14931C6.93742 7.96617 7.00867 7.77547 7.06262 7.57957C6.86438 7.53632 6.66257 7.5112 6.4598 7.50461Z" fill="#F4CD1E"/>
<path id="Vector_8" d="M11.858 7.50461C11.7924 7.7126 11.7039 7.91276 11.5942 8.10139C11.6271 8.09837 11.6631 8.09837 11.6992 8.09837C11.8833 8.09837 12.067 8.11553 12.2479 8.14931C12.3358 7.96617 12.407 7.77547 12.4608 7.57957C12.2626 7.53632 12.0609 7.5112 11.858 7.50461Z" fill="#23B972"/>
<path id="Vector_9" d="M15.2981 11.0974C15.2981 13.085 13.6867 14.6963 11.6993 14.6963C9.71163 14.6963 8.10031 13.085 8.10031 11.0974C8.10017 10.7657 8.14658 10.4355 8.23828 10.1167C8.29224 9.91988 8.36349 9.72823 8.45121 9.54399C8.50462 9.43142 8.56475 9.32227 8.63119 9.21698C8.73841 9.04098 8.86197 8.87527 9.00008 8.7222C9.50598 8.14258 10.1854 7.74184 10.9375 7.57957C11.1357 7.53619 11.3375 7.51106 11.5403 7.50461C11.6461 7.49651 11.7524 7.49651 11.8581 7.50461C11.8158 7.64148 11.7627 7.77493 11.6993 7.90343C11.7322 7.97536 11.7712 8.04442 11.8102 8.11334C11.6752 8.10441 11.5942 8.10139 11.5942 8.10139C11.4451 8.1062 11.2967 8.12322 11.1504 8.15232C10.2937 8.31871 9.54922 8.84383 9.10497 9.59492C9.069 9.59794 9.03605 9.59794 9.00008 9.59794C8.96411 9.59794 8.92814 9.59794 8.89506 9.59492C8.93624 9.65684 8.97235 9.72205 9.0031 9.78987C8.93981 9.91988 8.88572 10.0541 8.8411 10.1917C8.74679 10.4843 8.69915 10.79 8.70011 11.0974C8.70011 12.7537 10.0429 14.0965 11.6993 14.0965C13.3555 14.0965 14.6983 12.7537 14.6983 11.0974C14.6992 10.79 14.6517 10.4843 14.5573 10.1917C14.76 10.1851 14.9618 10.16 15.1601 10.1167C15.2518 10.4355 15.2983 10.7657 15.2981 11.0974Z" fill="#23B972"/>
<path id="Vector_10" d="M15.16 10.1167C14.9618 10.16 14.7599 10.1851 14.5572 10.1917C14.4916 9.9837 14.403 9.78354 14.2933 9.59491C13.8537 8.83902 13.1073 8.31143 12.2479 8.1493C12.3358 7.96616 12.407 7.77547 12.4608 7.57956C13.5485 7.81707 14.4659 8.54289 14.9471 9.54686C15.0348 9.73014 15.106 9.92083 15.16 10.1167Z" fill="#23B972"/>
<path id="Vector_11" d="M6.14188 7.50461C5.93911 7.51106 5.7373 7.53618 5.53906 7.57957C5.59302 7.77644 5.66427 7.96809 5.75199 8.15233C5.89834 8.12323 6.04674 8.1062 6.19584 8.1014C6.23194 8.03536 6.26791 7.96946 6.30086 7.90041C6.23743 7.77301 6.18417 7.64052 6.14188 7.50461Z" fill="#3A3E48"/>
<path id="Vector_12" d="M8.45115 9.544C8.36343 9.72824 8.29218 9.91989 8.23822 10.1167C7.15106 9.88021 6.23358 9.15534 5.75198 8.15233C5.89325 8.12323 6.03671 8.10621 6.18086 8.1014H6.19583C6.23193 8.03537 6.2679 7.96947 6.30085 7.90042C6.71367 8.76051 7.51294 9.37129 8.45115 9.544Z" fill="#3A3E48"/>
<path id="Vector_13" d="M14.3982 3C12.4114 3.00165 10.8011 4.61201 10.7994 6.5988C10.7991 6.93062 10.8457 7.26079 10.9374 7.57957C11.1356 7.53619 11.3374 7.51107 11.5402 7.50461C11.4457 7.21192 11.3982 6.90632 11.3992 6.5988C11.4002 4.94396 12.7421 3.6031 14.3971 3.60337C16.0519 3.60378 17.3934 4.9452 17.3938 6.60004C17.394 8.25488 16.0532 9.59698 14.3982 9.59794C14.3622 9.59794 14.3263 9.59794 14.2933 9.59492C13.2678 9.55991 12.3316 9.00185 11.8131 8.11636C11.8131 8.11471 11.8118 8.11334 11.8101 8.11334C11.6752 8.10441 11.5942 8.10139 11.5942 8.10139C11.4451 8.1062 11.2967 8.12322 11.1503 8.15233C11.75 9.40162 13.0124 10.1968 14.3982 10.1977C14.4513 10.1987 14.5043 10.1966 14.5572 10.1917C14.76 10.1851 14.9618 10.16 15.16 10.1167C16.959 9.7285 18.1752 8.04566 17.9793 6.21578C17.7834 4.3859 16.2387 2.99863 14.3982 3Z" fill="#FF6C77"/>
<path id="Vector_14" d="M3.60167 3C1.76136 2.99863 0.216488 4.3859 0.0205815 6.21578C-0.175188 8.04566 1.04102 9.7285 2.83988 10.1167C2.89383 9.92084 2.96508 9.73015 3.05294 9.54687C1.49462 9.25693 0.431202 7.80444 0.625187 6.23143C0.819308 4.65827 2.20383 3.50782 3.78577 3.60516C5.36771 3.70235 6.60095 5.01384 6.60081 6.5988C6.60177 6.90632 6.55413 7.21192 6.45982 7.50461C6.39351 7.71246 6.3051 7.91249 6.19582 8.10139C5.6777 8.99361 4.73785 9.55758 3.7067 9.59492C3.59755 9.78383 3.50901 9.98385 3.4427 10.1917C3.49555 10.1966 3.54868 10.1987 3.60167 10.1977C4.98867 10.1979 6.25211 9.40094 6.84971 8.14931C6.93744 7.96617 7.00869 7.77548 7.06264 7.57957C7.15435 7.26079 7.20075 6.93062 7.20061 6.5988C7.19896 4.61201 5.58861 3.00165 3.60167 3Z" fill="#5496CE"/>
<path id="Vector_15" d="M9.89963 11.0974C9.89963 13.085 8.28845 14.6963 6.30083 14.6963C4.31321 14.6963 2.70203 13.085 2.70203 11.0974C2.70175 10.7657 2.74816 10.4355 2.83986 10.1167C2.89382 9.92084 2.96507 9.73015 3.05293 9.54687C3.53329 8.54235 4.45091 7.81625 5.53903 7.57957C5.73727 7.53619 5.93908 7.51106 6.14185 7.50461C6.2477 7.49651 6.35396 7.49651 6.45981 7.50461C6.41807 7.6408 6.3648 7.77314 6.30083 7.90041C6.26788 7.96946 6.23191 8.03536 6.19581 8.10139C6.04671 8.1062 5.89831 8.12322 5.75196 8.15232C4.89256 8.31213 4.14558 8.83889 3.70668 9.59492C3.59754 9.78383 3.50899 9.98385 3.44268 10.1917C3.34837 10.4843 3.30087 10.79 3.30183 11.0974C3.30183 12.7537 4.64448 14.0965 6.30083 14.0965C7.95718 14.0965 9.29983 12.7537 9.29983 11.0974C9.30079 10.79 9.25329 10.4843 9.15898 10.1917C9.36175 10.1851 9.56342 10.16 9.7618 10.1167C9.8535 10.4355 9.89991 10.7657 9.89963 11.0974Z" fill="#F4CD1E"/>
<path id="Vector_16" d="M9.5489 9.54686C9.40242 9.57527 9.25401 9.5912 9.10492 9.59491C9.06895 9.59793 9.036 9.59793 9.00003 9.59793C8.96407 9.59793 8.9281 9.59793 8.89501 9.59491C8.81703 9.46229 8.7289 9.33585 8.63115 9.21696C8.1847 8.6589 7.55236 8.27999 6.84973 8.1493C6.93746 7.96616 7.00871 7.77547 7.06266 7.57956C7.81457 7.74184 8.49414 8.14257 9.00003 8.72219C9.13814 8.87526 9.26156 9.04096 9.36892 9.21696C9.43468 9.32363 9.49481 9.43387 9.5489 9.54686Z" fill="#F4CD1E"/>
<path id="Vector_17" d="M9.10489 9.59491C9.06893 9.65793 9.03296 9.72383 9.00303 9.78987C8.97228 9.72205 8.93617 9.65683 8.89499 9.59491C8.92807 9.59794 8.96404 9.59794 9.00001 9.59794C9.03598 9.59794 9.06893 9.59794 9.10489 9.59491Z" fill="#23B972"/>
</g>
</g>
<defs>
<clipPath id="clip0">
<rect width="18" height="18" fill="white"/>
</clipPath>
</defs>
</svg>
