<svg width="18" height="18" viewBox="0 0 18 18" fill="none" xmlns="http://www.w3.org/2000/svg">
<g id="24 - Field Hockey" clip-path="url(#clip0)">
<g id="Group">
<path id="Vector" d="M17.7683 14.9636C17.7683 15.6966 17.3104 16.3935 16.5593 16.6453L13.2377 17.7605C11.5469 18.3281 9.72645 17.859 8.52006 16.6472C8.34309 16.4691 8.17922 16.2754 8.03132 16.0661C7.92304 15.9143 7.82312 15.7544 7.73298 15.5869L6.26894 12.6432H6.26859L0.274761 0.593319C0.157023 0.35714 0.291109 0.0733234 0.548031 0.0141203L0.56364 0.0104992C0.742796 -0.03095 0.927753 0.0530031 1.01494 0.215073L8.94482 14.9974C9.05999 15.1922 9.201 15.3612 9.36125 15.5029C10.0716 16.1329 11.1541 16.2249 11.9739 15.6438L14.971 13.5199C15.8471 12.8989 17.0698 13.194 17.5666 14.146C17.7039 14.4091 17.7683 14.6889 17.7683 14.9636Z" fill="#F9653D"/>
<path id="Vector_2" d="M8.28569 14.9949C8.28569 15.3804 8.19411 15.7442 8.03133 16.0661C7.92305 15.9142 7.82314 15.7543 7.733 15.5868L6.26895 12.6432C7.41104 12.8179 8.28569 13.8041 8.28569 14.9949Z" fill="#EF5330"/>
<path id="Vector_3" d="M17.7483 15.2282C17.6527 15.8594 17.2192 16.424 16.5593 16.6453L13.2377 17.7605C11.547 18.3281 9.72646 17.859 8.52007 16.6471C8.21411 16.3397 7.94776 15.9847 7.73299 15.5868L0.274596 0.593188C0.157174 0.357149 0.291155 0.0734382 0.548006 0.0141296L7.96917 14.9327C8.18394 15.3306 8.45029 15.6857 8.75625 15.9931C9.96264 17.2049 11.7831 17.674 13.4739 17.1064L16.7955 15.9912C17.2134 15.8513 17.5404 15.5734 17.7483 15.2282Z" fill="#EF5330"/>
<path id="Vector_4" d="M17.7683 14.9637C17.7683 15.0525 17.7614 15.141 17.7484 15.2283C17.6527 15.8594 17.2191 16.4242 16.5594 16.6453L16.1541 16.7813L15.6299 16.9574L15.2478 17.0857L14.6896 17.2732L13.3763 17.7143L13.2378 17.7607C13.1088 17.8038 12.979 17.8412 12.8489 17.8724C12.3627 17.9898 11.8705 18.0246 11.3894 17.9833C11.2082 17.9681 11.0284 17.942 10.8515 17.9053C10.7805 17.8909 10.7098 17.8749 10.6398 17.8568C10.4546 17.8093 10.2726 17.7506 10.095 17.6806C9.50992 17.4508 8.972 17.101 8.51996 16.6471L8.89986 16.1309L9.36132 15.5027C9.53351 15.6557 9.72817 15.7771 9.93514 15.8645C10.1066 15.937 10.2871 15.9867 10.4709 16.0116C10.6583 16.0377 10.8494 16.0385 11.0386 16.0127C11.2202 15.9884 11.4003 15.9402 11.5744 15.8667C11.6309 15.8428 11.6871 15.8163 11.7422 15.7869C11.8212 15.7445 11.8988 15.697 11.9738 15.6437L12.1957 15.4864L12.4201 15.3276L12.8707 15.0083L13.8614 14.3061L14.3051 13.9919L14.971 13.5199C15.0453 13.4673 15.1218 13.4217 15.2005 13.3818C16.0487 12.9533 17.1119 13.2748 17.5668 14.1459C17.7038 14.4091 17.7683 14.6889 17.7683 14.9637Z" fill="#FFDEC5"/>
<path id="Vector_5" d="M17.7483 15.2282C17.6527 15.8594 17.2192 16.4241 16.5593 16.6453L13.2377 17.7605C11.547 18.3281 9.72647 17.859 8.52008 16.6472L8.8998 16.1308C10.104 17.2398 11.8489 17.6519 13.4739 17.1065L16.7955 15.9913C17.2134 15.8514 17.5404 15.5734 17.7483 15.2282Z" fill="#FFD5B3"/>
<path id="Vector_6" d="M17.7683 14.9637C17.7683 15.6966 17.3104 16.3935 16.5593 16.6454L15.2003 13.3819C16.0488 12.9535 17.112 13.2747 17.5666 14.1461C17.7039 14.4091 17.7683 14.6889 17.7683 14.9637Z" fill="#11B3C2"/>
<path id="Vector_7" d="M10.6399 17.8568C10.4546 17.8093 10.2727 17.7506 10.095 17.6806L9.9214 15.9816C9.91705 15.9406 9.92249 15.9008 9.93519 15.8645C10.1066 15.937 10.2872 15.9867 10.471 16.0117L10.649 17.7542C10.6526 17.7897 10.6493 17.8241 10.6399 17.8568Z" fill="#FFD5B3"/>
<path id="Vector_8" d="M16.1541 16.7812L15.6299 16.9574L13.8613 14.3061L14.305 13.9919C14.3064 13.9937 14.3079 13.9959 14.3093 13.998L16.1229 16.7171C16.1363 16.7374 16.1468 16.7591 16.1541 16.7812Z" fill="#FFD5B3"/>
<path id="Vector_9" d="M15.2479 17.0858L14.6896 17.2732L12.4654 15.3777C12.4476 15.3625 12.4324 15.3458 12.42 15.3277L12.8706 15.0083L15.1663 16.9654C15.2055 16.9987 15.2326 17.0404 15.2479 17.0858Z" fill="#FFD5B3"/>
<path id="Vector_10" d="M13.3763 17.7143L13.2378 17.7607C13.1088 17.8038 12.979 17.8412 12.8489 17.8724L11.7422 15.7869C11.8212 15.7445 11.8988 15.697 11.9738 15.6437L12.1957 15.4864C12.2022 15.4958 12.2084 15.506 12.2142 15.5165L13.3578 17.6712C13.3655 17.6853 13.3716 17.6998 13.3763 17.7143Z" fill="#FFD5B3"/>
<path id="Vector_11" d="M11.5881 15.983L11.3902 17.9793C11.3902 17.9807 11.3899 17.9818 11.3895 17.9833C11.2083 17.968 11.0284 17.9419 10.8516 17.9053L11.0386 16.0127C11.2202 15.9884 11.4003 15.9403 11.5744 15.8667C11.5871 15.9029 11.5922 15.9424 11.5881 15.983Z" fill="#FFD5B3"/>
<path id="Vector_12" d="M5.30141 17.6028C6.57244 17.6028 7.60281 16.5724 7.60281 15.3014C7.60281 14.0304 6.57244 13 5.30141 13C4.03038 13 3 14.0304 3 15.3014C3 16.5724 4.03038 17.6028 5.30141 17.6028Z" fill="#0D8094"/>
<path id="Vector_13" d="M5.53901 14.3121L5.76057 14.761L6.25597 14.833C6.4734 14.8646 6.56022 15.1318 6.40289 15.2852L6.04438 15.6346L6.129 16.1281C6.16615 16.3446 5.93884 16.5098 5.74436 16.4075L5.30123 16.1745L4.85811 16.4075C4.66363 16.5098 4.43632 16.3446 4.47346 16.1281L4.55808 15.6346L4.19958 15.2852C4.04224 15.1318 4.12906 14.8646 4.34649 14.833L4.84189 14.761L5.06346 14.3121C5.16079 14.115 5.44177 14.115 5.53901 14.3121Z" fill="#F4DC64"/>
</g>
</g>
<defs>
<clipPath id="clip0">
<rect width="18" height="18" fill="white"/>
</clipPath>
</defs>
</svg>
