<svg width="18" height="18" viewBox="0 0 18 18" fill="none" xmlns="http://www.w3.org/2000/svg">
<g id="2 - Basketball">
<g id="Group">
<path id="Vector" d="M15.9198 13.0318L16.5214 13.9514C15.2953 15.801 13.459 17.0547 11.4406 17.6187L10.5694 17.0183C10.5694 17.0183 10.2915 17.4788 10.363 17.8612C8.57467 18.1319 6.67324 17.9028 4.96196 17.0487L4.91657 16.0727L4.90125 15.6985L4.04858 16.5214C2.45335 15.4664 1.30421 13.9343 0.649678 12.2412L1.29855 11.6658L0.315583 11.1958C-0.205144 9.16573 -0.037489 6.94862 0.951241 4.96198L1.61911 4.77528L1.47858 4.04859C2.7047 2.19901 4.54095 0.945254 6.55932 0.381311C6.60253 0.369631 6.64039 0.367228 6.68373 0.355616L6.70899 0.56509L7.6013 0.812271L7.63698 0.138797C9.4253 -0.131879 11.3267 0.0972428 13.038 0.951253L13.077 1.87495L13.1256 1.8543L13.9514 1.4786C15.5558 2.53889 16.6958 4.06573 17.3503 5.75883L17.3593 5.76405L16.9983 6.34736L17.6935 6.80962C18.2051 8.83426 18.0375 11.0514 17.0487 13.038L15.9198 13.0318Z" fill="#FF641A"/>
<path id="Vector_2" d="M15.9198 13.0318L16.5214 13.9514C15.2953 15.801 13.459 17.0547 11.4407 17.6187L10.5694 17.0183C10.5694 17.0183 10.2915 17.4788 10.363 17.8612C8.57469 18.1319 6.67326 17.9028 4.96199 17.0487L4.9166 16.0727L13.1256 1.85431L13.9514 1.47861C15.5558 2.5389 16.6958 4.06573 17.3503 5.75884L17.3594 5.76406L16.9983 6.34737L17.6935 6.80963C18.2051 8.83427 18.0375 11.0514 17.0488 13.038L15.9198 13.0318Z" fill="#F03800"/>
<path id="Vector_3" d="M9.19301 9.72036L8.12247 11.5746C9.39765 12.53 9.96913 14.0291 10.5148 15.4889C10.7953 16.2475 11.068 16.9774 11.4406 17.6188C11.0896 17.7206 10.7255 17.8027 10.3629 17.8613C10.0321 17.2319 9.7762 16.5361 9.51884 15.8637C9.01718 14.5389 8.54927 13.2823 7.5899 12.497L4.96197 17.0487C4.80148 16.9683 4.6552 16.8838 4.49999 16.7942C4.34479 16.7046 4.1985 16.6202 4.04859 16.5214L6.67652 11.9697C5.51678 11.5315 4.19455 11.7546 2.79641 11.9825C2.0946 12.1011 1.36938 12.2182 0.649688 12.2412C0.513901 11.907 0.402946 11.5507 0.315593 11.1958C1.04291 11.2017 1.82579 11.069 2.62305 10.9326C4.16009 10.6752 5.74411 10.4206 7.20908 11.0473L8.27963 9.19301L0.951251 4.96197C1.0317 4.80148 1.11616 4.6552 1.20576 4.49999C1.29537 4.34479 1.37983 4.1985 1.47859 4.04859L8.80697 8.27963L9.87752 6.42538C8.60234 5.47001 8.03085 3.97089 7.48519 2.51111C7.2047 1.75245 6.92286 1.01728 6.5594 0.381186C6.91042 0.279388 7.27448 0.197322 7.63706 0.138672C7.96259 0.777285 8.22907 1.45475 8.48115 2.13627C8.9828 3.46107 9.45071 4.71771 10.4101 5.50296L13.038 0.951247C13.1985 1.0317 13.3448 1.11616 13.5 1.20576C13.6552 1.29537 13.8015 1.37983 13.9514 1.47859L11.3235 6.0303C12.4832 6.46851 13.8054 6.24542 15.2036 6.01746C15.9001 5.90804 16.6253 5.79093 17.3503 5.75883L17.3593 5.76404C17.49 6.10745 17.597 6.44931 17.6936 6.8095C16.9571 6.79833 16.1742 6.931 15.3769 7.06741C13.8399 7.32474 12.2559 7.57938 10.7909 6.95273L9.72036 8.80697L17.0487 13.038C16.9683 13.1985 16.8838 13.3448 16.7942 13.5C16.7046 13.6552 16.6202 13.8015 16.5214 13.9514L9.19301 9.72036Z" fill="#FFBD86"/>
<path id="Vector_4" d="M9.19302 9.72035L8.12247 11.5746C9.39766 12.53 9.96914 14.0291 10.5148 15.4889C10.7953 16.2475 11.068 16.9774 11.4406 17.6188C11.0896 17.7206 10.7255 17.8027 10.3629 17.8613C10.0321 17.2319 9.77621 16.5361 9.51884 15.8637C9.01719 14.5389 8.54928 13.2823 7.58991 12.497L4.96198 17.0487C4.80149 16.9683 4.6552 16.8838 4.5 16.7942L13.5 1.20575C13.6552 1.29536 13.8015 1.37982 13.9514 1.47858L11.3235 6.03029C12.4832 6.4685 13.8054 6.24541 15.2036 6.01745C15.9001 5.90803 16.6253 5.79092 17.3503 5.75882L17.3593 5.76403C17.49 6.10744 17.597 6.4493 17.6936 6.80949C16.9571 6.79832 16.1742 6.93099 15.3769 7.0674C13.8399 7.32473 12.2559 7.57937 10.7909 6.95272L9.72036 8.80696L17.0487 13.038C16.9683 13.1985 16.8838 13.3448 16.7942 13.5C16.7046 13.6552 16.6202 13.8015 16.5214 13.9514L9.19302 9.72035Z" fill="#F6A96C"/>
</g>
</g>
</svg>
