<svg width="18" height="18" viewBox="0 0 18 18" fill="none" xmlns="http://www.w3.org/2000/svg">
<g id="11 - Boxing">
<g id="Group">
<path id="Vector" d="M17.7546 6.41813C17.6483 5.70201 17.2834 5.04945 16.7718 4.5378L15.0993 2.86535L13.1342 0.900201C13.0464 0.812439 12.9494 0.735761 12.8424 0.673106C12.2986 0.355987 10.5972 -0.433872 9.11838 1.04497L3.39281 7.89696C3.39281 7.89696 3.65655 9.09261 4.74996 10.6113L5.99762 9.3663C6.72302 8.6409 7.91346 8.76825 8.62551 9.51106C9.34095 10.2573 9.27513 11.5147 8.54431 12.2455L7.46447 13.3253C9.0279 14.4703 10.1788 14.6825 10.1788 14.6825L16.9199 8.84606C17.739 8.02702 17.8618 7.13922 17.7546 6.41813Z" fill="#E64C3C"/>
<path id="Vector_2" d="M7.46428 13.3255L4.5238 16.266C5.92708 17.2653 7.01189 17.397 7.01189 17.397L9.82367 14.5852C9.36767 14.4382 8.50905 14.0907 7.46428 13.3255Z" fill="#38454F"/>
<path id="Vector_3" d="M0.678558 11.0637C0.678558 11.0637 0.952475 12.236 1.80951 13.5518L4.74999 10.6113C4.01103 9.58505 3.65206 8.70811 3.49622 8.246L0.678558 11.0637Z" fill="#38454F"/>
<path id="Vector_4" d="M14.25 9.25411C14.1251 9.12925 14.1249 8.92681 14.25 8.80172C15.3726 7.67914 15.3724 5.85265 14.25 4.73029C14.1251 4.60543 14.1249 4.40298 14.25 4.2779C14.3751 4.15281 14.5775 4.15304 14.7024 4.2779C16.0742 5.64975 16.0742 7.88226 14.7024 9.25411C14.5773 9.37919 14.3749 9.37895 14.25 9.25411Z" fill="#ED7161"/>
<path id="Vector_5" d="M5.72232 1.04365L3.99128 2.77469C3.81779 2.94818 3.71397 3.17912 3.6995 3.42431L3.39278 7.897L8.33686 1.97986C7.85032 1.42682 6.56624 0.107445 5.72232 1.04365Z" fill="#C03A2B"/>
<path id="Vector_6" d="M5.99764 9.36631C6.71285 8.6511 7.88 8.7651 8.59521 9.48031C9.31043 10.1955 9.39977 11.39 8.68456 12.1053L4.52378 16.266C3.13678 15.3993 2.60048 14.8847 1.80949 13.5517L5.99764 9.36631Z" fill="#898989"/>
<path id="Vector_7" d="M7.10556 11.6097H8.14287C8.31975 11.6097 8.4627 11.4667 8.4627 11.2898C8.4627 11.113 8.31975 10.97 8.14287 10.97H7.10556L7.10555 9.93269C7.10555 9.75581 6.9626 9.61286 6.78572 9.61285C6.60884 9.61285 6.46589 9.75581 6.46589 9.93269V10.97H5.42858C5.2517 10.97 5.10874 11.113 5.10874 11.2898C5.10874 11.378 5.14448 11.4581 5.20239 11.516C5.26029 11.5739 5.34036 11.6097 5.42858 11.6097H6.46589V12.647C6.46589 12.7352 6.50163 12.8153 6.55953 12.8732C6.61744 12.9311 6.69751 12.9668 6.78572 12.9668C6.9626 12.9668 7.10556 12.8239 7.10556 12.647V11.6097Z" fill="#EEEEEE"/>
<path id="Vector_8" d="M6.20078 13.5517C6.20078 13.3749 6.05783 13.2319 5.88095 13.2319H4.84364V12.1946C4.84364 12.0177 4.70069 11.8748 4.5238 11.8748C4.34692 11.8748 4.20397 12.0177 4.20397 12.1946V13.2319H3.16666C2.98978 13.2319 2.84682 13.3749 2.84682 13.5517C2.84682 13.64 2.88256 13.72 2.94047 13.7779C2.99837 13.8358 3.07844 13.8716 3.16666 13.8716H4.20397V14.9089C4.20397 14.9971 4.23971 15.0772 4.29761 15.1351C4.35552 15.193 4.43559 15.2287 4.5238 15.2287C4.70069 15.2287 4.84364 15.0858 4.84364 14.9089V13.8716H5.88095C6.0576 13.8713 6.20056 13.7284 6.20078 13.5517Z" fill="#EEEEEE"/>
</g>
</g>
</svg>
