<svg width="18" height="18" viewBox="0 0 18 18" fill="none" xmlns="http://www.w3.org/2000/svg">
<g id="89 - Pesapallo" clip-path="url(#clip0)">
<g id="Group">
<path id="Vector" d="M15.004 0.540614L9.62167 6.20615L6.8289 9.92984L1.24337 15.8257L0.891543 15.6498C0.722299 15.5654 0.523205 15.5654 0.354111 15.6498L0.334566 15.6593C0.130623 15.7614 0.00198484 15.9701 0.00213636 16.1981C0.00213636 16.3575 0.0654706 16.5104 0.178048 16.6231L1.37776 17.8228C1.49049 17.935 1.64292 17.9978 1.80201 17.9978C2.02959 17.9977 2.23778 17.869 2.33975 17.6656L2.34929 17.646C2.43369 17.4768 2.43369 17.2777 2.34929 17.1084L2.17429 16.7566L8.07013 11.1711L11.7938 8.3783L17.4595 2.99595C17.8042 2.66822 17.9997 2.21352 18 1.73775C18 0.778042 17.2219 0 16.2622 0C15.7865 0.000303035 15.3318 0.19576 15.004 0.540614Z" fill="#F98500"/>
<path id="Vector_2" d="M15.0123 1.88382L15.441 1.4323L15.891 1.85973L15.4623 2.3111L15.0123 1.88382Z" fill="#FF9419"/>
<path id="Vector_3" d="M11.093 6.00842L14.621 2.29533L15.071 2.72276L11.5429 6.436L11.093 6.00842Z" fill="#FF9419"/>
<path id="Vector_4" d="M17.4837 9.62787C17.3034 9.59711 17.1187 9.64756 16.979 9.76559C16.8393 9.88363 16.7587 10.0573 16.7588 10.2401C16.7588 9.89741 16.4809 9.61953 16.1382 9.61953C15.7955 9.61953 15.5176 9.89741 15.5176 10.2401C15.5176 9.89741 15.2397 9.61953 14.897 9.61953C14.5542 9.61953 14.2763 9.89741 14.2763 10.2401C14.2765 10.0573 14.1959 9.88363 14.0562 9.76559C13.9165 9.64756 13.7318 9.59711 13.5515 9.62787C13.2457 9.68968 13.0281 9.96151 13.0351 10.2733V10.5505L12.9697 10.6814C12.6295 11.3618 11.934 11.7917 11.1733 11.7917V11.8249C11.1802 11.513 10.9626 11.2412 10.6569 11.1794C10.4766 11.1486 10.2919 11.1991 10.1522 11.3171C10.0125 11.4352 9.93187 11.6088 9.93203 11.7917V13.8499C9.909 16.0311 11.5945 17.8501 13.7712 17.9931C14.8736 18.0465 15.9497 17.6458 16.7488 16.8845C17.5479 16.1231 18 15.0675 18 13.9638V10.2733C18.007 9.96151 17.7894 9.68968 17.4837 9.62787Z" fill="#95573A"/>
<path id="Vector_5" d="M12.1041 14.2741C12.6182 14.2741 13.0351 13.8573 13.0351 13.3432V10.5505L12.9696 10.6814C12.6295 11.3618 11.934 11.7917 11.1732 11.7917V13.3432C11.1732 13.8573 11.59 14.2741 12.1041 14.2741Z" fill="#743B20"/>
<path id="Vector_6" d="M17.5361 9.6418C16.617 13.8835 12.649 15.3804 10.4614 15.8878C11.3326 17.511 13.1984 18.3312 14.9834 17.8756C16.7686 17.42 18.0132 15.8062 18 13.9638V10.2733C18.0046 9.98256 17.8149 9.72453 17.5361 9.6418Z" fill="#8F4D2E"/>
<path id="Vector_7" d="M11.7938 17.3772C11.6727 17.256 11.6727 17.0596 11.7938 16.9384L11.893 16.8392C12.3433 16.3889 12.9541 16.136 13.5908 16.136H14.3976C15.0773 16.1352 15.7252 16.4234 16.18 16.9286C16.2385 16.9962 16.265 17.0857 16.2528 17.1742C16.2406 17.2627 16.1908 17.3418 16.1161 17.3909C15.9881 17.4751 15.8177 17.4534 15.7152 17.3396C15.3787 16.9687 14.9012 16.7569 14.4003 16.7566H13.5905C13.1183 16.7566 12.6656 16.9442 12.3318 17.278L12.2326 17.3772C12.1113 17.4984 11.915 17.4984 11.7938 17.3772Z" fill="#662E13"/>
<path id="Vector_8" d="M12.1041 14.5844C12.0056 14.5844 11.9076 14.5728 11.8118 14.5497L11.9573 13.9464C12.0925 13.9785 12.2343 13.9649 12.3608 13.9079L12.6193 14.4725C12.4576 14.5464 12.2819 14.5846 12.1041 14.5844ZM11.1285 14.1107C10.9567 13.8917 10.8632 13.6216 10.8629 13.3432H11.4835C11.483 13.4823 11.5297 13.6176 11.6161 13.7267L11.1285 14.1107ZM13.2076 13.912L12.6563 13.6272C12.7017 13.5394 12.7252 13.442 12.7247 13.3432V13.1653H13.3454V13.3432C13.3454 13.5411 13.2981 13.7361 13.2076 13.912ZM13.3454 12.5452H12.7247V11.9246H13.3454V12.5452Z" fill="#662E13"/>
<path id="Vector_9" d="M13.5902 16.3883L13.3143 15.8331L13.8695 15.5557L14.1469 16.1111L13.5902 16.3883ZM13.035 15.2783L12.7558 14.7231L13.3113 14.4458L13.5887 15.0008L13.035 15.2783Z" fill="#662E13"/>
<path id="Vector_10" d="M13.3453 11.4813H12.7247V10.5504C12.7247 10.3791 12.8636 10.2401 13.035 10.2401C13.2064 10.2401 13.3453 10.3791 13.3453 10.5504V11.4813Z" fill="#662E13"/>
<path id="Vector_11" d="M11.4835 12.7226H10.8629V11.7917C10.8629 11.6203 11.0018 11.4814 11.1732 11.4814C11.3446 11.4814 11.4835 11.6203 11.4835 11.7917V12.7226Z" fill="#662E13"/>
<path id="Vector_12" d="M7.75984 5.58553C7.75984 6.78524 6.7874 7.75768 5.58768 7.75768C4.38812 7.75768 3.41553 6.78524 3.41553 5.58553C3.41553 4.38581 4.38812 3.41338 5.58768 3.41338C6.7874 3.41338 7.75984 4.38581 7.75984 5.58553Z" fill="#D6D6D4"/>
<path id="Vector_13" d="M5.27737 5.58553C5.25206 4.87961 4.8866 4.22976 4.29644 3.84157C4.17098 3.9346 4.05568 4.04066 3.95265 4.15809L3.86325 4.29157C4.32811 4.56249 4.62614 5.0484 4.65675 5.58553C4.62599 6.12251 4.32796 6.60828 3.86325 6.87919L3.95265 7.01268C4.05568 7.13025 4.17098 7.23647 4.29644 7.3295C4.8866 6.94131 5.25206 6.29145 5.27737 5.58553Z" fill="#A3A3A1"/>
<path id="Vector_14" d="M7.22272 7.01298L7.31211 6.87949C6.84726 6.60858 6.54938 6.12266 6.51862 5.58553C6.54938 5.04856 6.84741 4.56279 7.31211 4.29188L7.22272 4.15839C7.11969 4.04096 7.00438 3.93475 6.87893 3.84157C6.28877 4.22976 5.92331 4.87961 5.89801 5.58553C5.92331 6.29145 6.28877 6.94131 6.87893 7.3295C7.00438 7.23647 7.11969 7.1304 7.22272 7.01298Z" fill="#A3A3A1"/>
<path id="Vector_15" d="M16.7588 10.2401C16.9302 10.2401 17.0691 10.3791 17.0691 10.5505V13.0329C17.0691 13.2043 16.9302 13.3432 16.7588 13.3432C16.5874 13.3432 16.4485 13.2043 16.4485 13.0329V10.5505C16.4485 10.3791 16.5874 10.2401 16.7588 10.2401Z" fill="#662E13"/>
<path id="Vector_16" d="M15.5175 10.2401C15.6889 10.2401 15.8278 10.3791 15.8278 10.5505V13.0329C15.8278 13.2043 15.6889 13.3432 15.5175 13.3432C15.3461 13.3432 15.2072 13.2043 15.2072 13.0329V10.5505C15.2072 10.3791 15.3461 10.2401 15.5175 10.2401Z" fill="#662E13"/>
<path id="Vector_17" d="M14.2763 10.2401C14.4477 10.2401 14.5866 10.3791 14.5866 10.5505V13.0329C14.5866 13.2043 14.4477 13.3432 14.2763 13.3432C14.1049 13.3432 13.966 13.2043 13.966 13.0329V10.5505C13.966 10.3791 14.1049 10.2401 14.2763 10.2401Z" fill="#662E13"/>
</g>
</g>
<defs>
<clipPath id="clip0">
<rect width="18" height="18" fill="white"/>
</clipPath>
</defs>
</svg>
