<svg width="18" height="18" viewBox="0 0 18 18" fill="none" xmlns="http://www.w3.org/2000/svg">
<g id="46 - Motorcycling" clip-path="url(#clip0)">
<g id="Group">
<path id="Vector" d="M11.0507 4.45991C11.091 4.52973 11.0668 4.61991 10.997 4.66022L9.9813 5.24662C9.91148 5.28693 9.8213 5.26277 9.78099 5.19295L9.19423 4.17665C9.15392 4.10683 9.17808 4.01665 9.2479 3.97634L10.2636 3.38994C10.3334 3.34963 10.4236 3.37379 10.4639 3.44361L11.0507 4.45991Z" fill="#545C66"/>
<path id="Vector_2" d="M9.90251 3.93709C10.0424 3.85632 10.2225 3.9048 10.3031 4.04444C10.3838 4.1842 10.3357 4.36429 10.1958 4.44505C10.0564 4.52553 9.87586 4.47747 9.79517 4.3377C9.71454 4.19806 9.76312 4.01756 9.90251 3.93709Z" fill="#656D78"/>
<path id="Vector_3" d="M12.6006 9.4908C12.828 9.88454 13.1258 10.2128 13.4692 10.4673C13.5247 10.5083 13.4407 10.699 13.4407 10.699L13.1763 10.8516L13.15 10.806L10.5973 8.95421L11.4561 5.74927L10.2935 6.08183L9.57525 6.28668L9.55946 6.28223C9.81377 5.59057 9.7072 5.06576 9.7072 5.06576L10.9771 4.33258L11.0983 2.12244L11.3687 2.07465L11.8071 2.83745C11.8071 2.83745 13.5128 2.81322 14.5123 4.57737C14.5445 4.63434 14.512 4.76107 14.4586 4.77768C14.2329 4.84782 13.995 4.96071 13.7814 5.084C13.3979 5.30546 13.0764 5.59273 12.8241 5.92462C12.7067 6.08416 12.5993 6.2508 12.514 6.42542C12.0394 7.36313 12.0361 8.51306 12.6006 9.4908Z" fill="#04B900"/>
<path id="Vector_4" d="M13.4946 10.4985C13.5351 10.5687 13.5111 10.6583 13.4409 10.6988C13.3709 10.7393 13.2812 10.7153 13.2406 10.6451C13.2002 10.5751 13.2242 10.4853 13.2943 10.4448C13.3645 10.4043 13.4542 10.4284 13.4946 10.4985Z" fill="#A0D468"/>
<path id="Vector_5" d="M7.4361 13.3985C7.47655 13.4686 7.45262 13.5583 7.38242 13.5988C7.31235 13.6393 7.22256 13.6152 7.18211 13.5451C7.14159 13.4749 7.16572 13.3853 7.23579 13.3448C7.30598 13.3043 7.39558 13.3283 7.4361 13.3985Z" fill="#E6E9ED"/>
<path id="Vector_6" d="M17.0549 8.47625L14.8575 7.8875C14.7795 7.86658 14.7329 7.78597 14.7539 7.70792C14.7748 7.62987 14.8554 7.58333 14.9334 7.60425L17.1308 8.193C17.209 8.21397 17.2555 8.29445 17.2344 8.37258C17.2136 8.45075 17.1331 8.49722 17.0549 8.47625Z" fill="#E6E9ED"/>
<path id="Vector_7" d="M14.7952 9.54144L15.7064 6.14109C15.7273 6.06284 15.8078 6.01637 15.8859 6.03741C15.9641 6.05825 16.0106 6.13874 15.9896 6.21698L15.0785 9.61733C15.0575 9.69558 14.977 9.74205 14.8989 9.72101C14.8209 9.7001 14.7744 9.61961 14.7952 9.54144Z" fill="#E6E9ED"/>
<path id="Vector_8" d="M2.05222 9.99329L0.78157 10.7269C0.711377 10.7674 0.621786 10.7434 0.581259 10.6732C0.540804 10.6032 0.564737 10.5134 0.63493 10.4729L1.90558 9.7393C1.97565 9.69885 2.06544 9.72291 2.10589 9.79298C2.14642 9.86317 2.12229 9.95284 2.05222 9.99329Z" fill="#8CC152"/>
<path id="Vector_9" d="M0.566879 11.5281C0.534263 11.547 0.494611 11.5533 0.45556 11.543C0.377386 11.5221 0.330917 11.4416 0.351955 11.3635L0.566645 10.5623C0.587487 10.4841 0.667972 10.4376 0.746094 10.4587C0.824268 10.4795 0.870736 10.56 0.849699 10.6381L0.635009 11.4394C0.624702 11.4782 0.59937 11.5094 0.566879 11.5281Z" fill="#8CC152"/>
<path id="Vector_10" d="M5.84296 11.8692C5.82274 11.8809 5.79937 11.888 5.7745 11.8884C5.69338 11.8911 5.62567 11.8277 5.623 11.7469L5.54475 9.34535C5.54237 9.26388 5.60659 9.19555 5.68664 9.19415C5.76769 9.19133 5.8354 9.25476 5.83807 9.33557L5.91644 11.737C5.91802 11.7933 5.88822 11.8431 5.84296 11.8692Z" fill="#AAB2BD"/>
<path id="Vector_11" d="M5.9995 14.809C5.97834 14.8872 5.8981 14.9335 5.81968 14.9128L2.1371 13.9258C2.05898 13.9048 2.01265 13.8246 2.03342 13.7463C2.05458 13.6681 2.13482 13.6218 2.21324 13.6425L5.89583 14.6294C5.9742 14.6503 6.02052 14.7305 5.9995 14.809Z" fill="#E6E9ED"/>
<path id="Vector_12" d="M3.48511 16.2607C3.40691 16.2395 3.36059 16.1593 3.38143 16.0811L4.36799 12.3984C4.38928 12.3201 4.46952 12.2738 4.54781 12.2946C4.62601 12.3158 4.67233 12.396 4.65163 12.4744L3.66493 16.1568C3.64379 16.2354 3.56355 16.2817 3.48511 16.2607Z" fill="#E6E9ED"/>
<path id="Vector_13" d="M14.0747 5.59195C12.8121 6.3209 12.3796 7.93479 13.1086 9.19751C13.8376 10.4601 15.4516 10.8926 16.7142 10.1636C17.9768 9.43468 18.4092 7.82066 17.6803 6.55807C16.9512 5.29535 15.337 4.86314 14.0747 5.59195ZM16.2743 9.40168C15.4328 9.88749 14.3562 9.5988 13.8706 8.7576C13.3847 7.91616 13.6734 6.83956 14.5146 6.3539C15.3561 5.86809 16.4325 6.15653 16.9183 6.99797C17.4042 7.83954 17.1157 8.91588 16.2743 9.40168Z" fill="#656D78"/>
<path id="Vector_14" d="M16.4103 7.29124C16.7343 7.8524 16.542 8.56979 15.9809 8.89371C15.4199 9.21763 14.7024 9.0255 14.3784 8.46434C14.0545 7.9033 14.2468 7.18579 14.8078 6.86187C15.3689 6.53795 16.0864 6.7302 16.4103 7.29124Z" fill="#CCD1D9"/>
<path id="Vector_15" d="M2.6208 11.8662C1.28839 12.6355 0.831683 14.3395 1.60102 15.6721C2.37043 17.0047 4.07448 17.4611 5.40689 16.6919C6.7393 15.9226 7.19607 14.2186 6.42666 12.886C5.65732 11.5535 3.95321 11.0969 2.6208 11.8662ZM4.96698 15.9299C4.05523 16.4563 2.8893 16.1438 2.36297 15.2322C1.83671 14.3207 2.14895 13.1545 3.06071 12.6281C3.97246 12.1017 5.13846 12.4144 5.66472 13.3259C6.19105 14.2375 5.87873 15.4035 4.96698 15.9299Z" fill="#656D78"/>
<path id="Vector_16" d="M4.90786 13.7629C5.19132 14.2538 5.02312 14.8816 4.53215 15.165C4.04117 15.4485 3.41345 15.2803 3.12999 14.7893C2.84659 14.2985 3.01472 13.6706 3.5057 13.3872C3.99667 13.1037 4.62447 13.272 4.90786 13.7629Z" fill="#CCD1D9"/>
<path id="Vector_17" d="M4.39994 14.0561C4.52144 14.2666 4.44937 14.5356 4.23892 14.6571C4.02847 14.7786 3.75949 14.7065 3.63799 14.496C3.51655 14.2857 3.58855 14.0166 3.799 13.8951C4.00946 13.7736 4.2785 13.8458 4.39994 14.0561Z" fill="#E6E9ED"/>
<path id="Vector_18" d="M10.1289 9.90192C10.2687 9.82116 10.4488 9.86963 10.5295 10.0093C10.6102 10.149 10.562 10.3291 10.4221 10.4099C10.2827 10.4904 10.1022 10.4423 10.0215 10.3025C9.9409 10.1629 9.98946 9.9824 10.1289 9.90192Z" fill="#E6E9ED"/>
<path id="Vector_19" d="M8.47273 9.67287C8.61262 9.5921 8.79273 9.64057 8.87336 9.78022C8.95405 9.91999 8.9059 10.1001 8.76602 10.1808C8.62662 10.2613 8.44609 10.2132 8.36539 10.0735C8.28477 9.93385 8.33334 9.75334 8.47273 9.67287Z" fill="#CCD1D9"/>
<path id="Vector_20" d="M8.87335 9.78017C8.79273 9.64053 8.61262 9.59206 8.47274 9.67283C8.33334 9.75331 8.28477 9.93381 8.36539 10.0734C8.44608 10.2132 8.62662 10.2613 8.76601 10.1808C8.9059 10.1 8.95405 9.91994 8.87335 9.78017ZM8.98596 10.5618C8.63575 10.764 8.18683 10.644 7.98442 10.2934C7.78208 9.94294 7.90257 9.49405 8.25278 9.29186C8.6035 9.08937 9.05199 9.20975 9.25433 9.56022C9.45674 9.91081 9.33668 10.3593 8.98596 10.5618Z" fill="#E6E9ED"/>
<path id="Vector_21" d="M15.5493 7.62934C15.6872 7.71556 15.7294 7.8944 15.6432 8.03231C15.5568 8.17018 15.3765 8.20993 15.2402 8.12612L13.0884 6.78115L12.514 6.42544C12.5993 6.25081 12.7063 6.08406 12.8241 5.92462L12.8257 5.92747L13.3992 6.28723L15.5493 7.62934Z" fill="#E6E9ED"/>
<path id="Vector_22" d="M8.03328 12.7002L7.01304 12.7168L7.16298 13.4768C7.16298 13.4768 7.27045 13.616 7.34842 13.6185C7.64358 13.6288 8.36034 13.6321 8.76214 13.4002L10.032 12.667L8.03328 12.7002Z" fill="#E6E9ED"/>
<path id="Vector_23" d="M7.5785 9.00388L6.9426 11.41L5.87921 11.3395L6.41954 9.53973L7.5785 9.00388Z" fill="#CCD1D9"/>
<path id="Vector_24" d="M10.4221 10.4099C10.562 10.3291 10.6102 10.149 10.5295 10.0093C10.4488 9.86964 10.2687 9.82116 10.1288 9.90192C9.98945 9.9824 9.94088 10.1629 10.0215 10.3025C10.1022 10.4423 10.2827 10.4904 10.4221 10.4099ZM7.98438 10.2934C8.1868 10.644 8.63571 10.764 8.98593 10.5618C9.33664 10.3593 9.4567 9.91084 9.25429 9.56025C9.05195 9.20977 8.60346 9.08939 8.25274 9.29187C7.90253 9.49407 7.78204 9.94295 7.98438 10.2934ZM7.28523 8.4959L7.79319 8.20263C8.84979 7.5926 9.34023 6.87605 9.55942 6.28222L9.57546 6.28652L10.2937 6.08167L11.4563 5.74911L10.5975 8.95405L13.2027 10.8364L10.032 12.667L8.03326 12.7002L7.01302 12.7168L6.91008 12.2042L7.22771 11.9155L7.98965 11.4756L6.94284 11.4098L6.94564 11.3677L7.57871 9.00424L7.28523 8.4959Z" fill="#CCD1D9"/>
<path id="Vector_25" d="M7.99739 5.03699C9.18 4.66242 9.7072 5.06576 9.7072 5.06576C9.7072 5.06576 9.81362 5.59032 9.55945 6.28223C9.34027 6.87606 8.84983 7.59261 7.79323 8.20264L7.28527 8.49591L6.19077 7.77325C6.19077 7.77325 6.39588 5.54179 7.99739 5.03699Z" fill="#656D78"/>
<path id="Vector_26" d="M4.41775 10.4564C3.4603 10.7484 1.33842 10.2955 0.436972 10.0808L0.384613 9.81022L2.9569 8.62407C4.69748 9.09905 6.1906 7.77301 6.1906 7.77301L7.28511 8.49566L7.57838 9.00363L6.84067 9.34488L5.44211 9.99013L4.63795 10.3626C4.5746 10.3995 4.50022 10.4291 4.41775 10.4564Z" fill="#04B900"/>
<path id="Vector_27" d="M11.5874 11.261L10.5714 11.8476C10.5014 11.888 10.4117 11.8641 10.3711 11.7939C10.3307 11.7238 10.3547 11.6341 10.4248 11.5936L11.4407 11.0071C11.5109 10.9665 11.6006 10.9907 11.641 11.0607C11.6816 11.1309 11.6576 11.2205 11.5874 11.261Z" fill="#AAB2BD"/>
<path id="Vector_28" d="M13.5196 4.04992C13.4788 4.07348 13.4272 4.07696 13.3814 4.0543L12.4335 3.58563C12.361 3.54995 12.3312 3.46186 12.3672 3.38932C12.4026 3.31694 12.4905 3.28683 12.5635 3.32294L13.5113 3.79161C13.5838 3.8273 13.6137 3.91539 13.5777 3.98792C13.5645 4.01489 13.544 4.03582 13.5196 4.04992Z" fill="#8CC152"/>
<path id="Vector_29" d="M11.5874 11.261C11.5173 11.3015 11.4276 11.2775 11.3871 11.2073C11.3466 11.1373 11.3707 11.0475 11.4407 11.007C11.5107 10.9666 11.5348 10.8767 11.4944 10.8067C11.454 10.7367 11.478 10.6469 11.5481 10.6064C11.6183 10.5659 11.7079 10.59 11.7484 10.6601C11.8697 10.8702 11.7974 11.1397 11.5874 11.261Z" fill="#AAB2BD"/>
<path id="Vector_30" d="M11.6947 10.8604C11.6247 10.9009 11.535 10.877 11.4944 10.8068L11.2012 10.2988C11.1607 10.2287 11.1848 10.1389 11.2548 10.0985C11.325 10.058 11.4147 10.0821 11.4551 10.1522L11.7484 10.6601C11.7889 10.7303 11.7649 10.8199 11.6947 10.8604Z" fill="#AAB2BD"/>
<path id="Vector_31" d="M9.90634 9.52246C9.87385 9.54122 9.8342 9.54757 9.79502 9.53729C9.71697 9.51637 9.6705 9.43588 9.69141 9.35783L9.90608 8.55658C9.92705 8.47834 10.0075 8.43187 10.0857 8.45291C10.1638 8.47375 10.2103 8.55424 10.1893 8.63236L9.97459 9.43361C9.96428 9.47247 9.93895 9.50363 9.90634 9.52246Z" fill="#AAB2BD"/>
<path id="Vector_32" d="M9.61301 9.01448C9.58052 9.03324 9.54087 9.0396 9.50169 9.02931C9.42365 9.0084 9.37718 8.92792 9.39809 8.84987L9.61278 8.04865C9.63374 7.9704 9.71423 7.92394 9.79235 7.94497C9.87052 7.96581 9.91699 8.0463 9.89595 8.12442L9.68126 8.92564C9.67096 8.96449 9.64563 8.99565 9.61301 9.01448Z" fill="#AAB2BD"/>
<path id="Vector_33" d="M9.55552 12.4341C9.49848 12.467 9.42451 12.4587 9.37681 12.409L8.32615 11.3224C8.2701 11.2639 8.27154 11.1713 8.32981 11.115C8.38687 11.0598 8.48108 11.0603 8.53713 11.1187L9.58779 12.2053C9.64384 12.2637 9.64241 12.3563 9.58413 12.4126C9.57539 12.421 9.56569 12.4282 9.55552 12.4341Z" fill="#AAB2BD"/>
<path id="Vector_34" d="M10.0635 12.1409C10.0065 12.1738 9.9325 12.1654 9.8848 12.1157L9.04428 11.2464C8.98823 11.188 8.98966 11.0954 9.04794 11.0391C9.10513 10.9841 9.19895 10.9845 9.25525 11.0428L10.0958 11.9121C10.1518 11.9705 10.1504 12.0631 10.0921 12.1194C10.0834 12.1277 10.0737 12.135 10.0635 12.1409Z" fill="#AAB2BD"/>
<path id="Vector_35" d="M8.35366 12.1121L8.09968 12.2587C8.02961 12.2992 7.93989 12.2752 7.89937 12.205C7.85891 12.135 7.88297 12.0452 7.95304 12.0047L8.20702 11.8581C8.27722 11.8176 8.36688 11.8417 8.40733 11.9118C8.44786 11.982 8.42385 12.0715 8.35366 12.1121Z" fill="#AAB2BD"/>
<path id="Vector_36" d="M4.23889 14.657L3.65523 14.029L5.87924 11.3395L7.98968 11.4756L4.23889 14.657Z" fill="#E6E9ED"/>
<path id="Vector_37" d="M0.585052 9.86411C0.625577 9.9343 0.60157 10.0239 0.531377 10.0644C0.461309 10.1049 0.371594 10.0809 0.331069 10.0107C0.290616 9.94068 0.314675 9.85089 0.384744 9.81044C0.454937 9.76991 0.544599 9.79404 0.585052 9.86411Z" fill="#A0D468"/>
<path id="Vector_38" d="M11.3687 2.07467C11.4092 2.14486 11.3852 2.23445 11.315 2.27498C11.2449 2.31543 11.1552 2.29149 11.1147 2.2213C11.0742 2.15123 11.0983 2.06144 11.1684 2.02099C11.2386 1.98046 11.3282 2.00459 11.3687 2.07467Z" fill="#A0D468"/>
<path id="Vector_39" d="M14.5123 4.57733C14.5528 4.64753 14.5288 4.73711 14.4586 4.77764C14.3885 4.81816 14.2989 4.79416 14.2583 4.72397C14.2179 4.6539 14.2418 4.56419 14.312 4.52366C14.3822 4.48314 14.4719 4.50727 14.5123 4.57733Z" fill="#A0D468"/>
</g>
</g>
<defs>
<clipPath id="clip0">
<rect width="18" height="18" fill="white"/>
</clipPath>
</defs>
</svg>
