<svg width="18" height="18" viewBox="0 0 18 18" fill="none" xmlns="http://www.w3.org/2000/svg">
<path d="M3.33857 3.98572C1.80428 5.46858 0.849426 7.548 0.849426 9.85029C0.849426 12.1526 1.80428 14.232 3.33857 15.7131V3.98572Z" fill="#FEC007"/>
<path d="M15.5546 14.6931C16.5574 13.3389 17.1506 11.6623 17.1506 9.84857C17.1506 5.35028 13.5077 1.704 9.01114 1.69885V14.6931H15.5546Z" fill="#FEC007"/>
<path d="M3.33857 5.33142C2.34772 6.57085 1.75629 8.14113 1.75629 9.85028C1.75629 11.5594 2.34772 13.1297 3.33857 14.3691V5.33142Z" fill="#0276BC"/>
<path d="M14.3854 14.6931C15.5391 13.4108 16.2437 11.712 16.2437 9.85028C16.2437 5.85428 13.0071 2.61256 9.01114 2.60742V14.6948H14.3854V14.6931Z" fill="#0276BC"/>
<path d="M8.1197 0H5.08542V18H8.1197V0Z" fill="#E8A309"/>
<path d="M15.2768 17.1771H4.94827V15.4663H16.6997L15.2768 17.1771Z" fill="#E8A309"/>
<path d="M7.29686 0H4.26257V18H7.29686V0Z" fill="#FEC007"/>
<path d="M14.5911 18H4.26257V16.2891H16.014L14.5911 18Z" fill="#FEC007"/>
<path d="M4.26257 1.66457L3.00943 0H4.26257V1.66457Z" fill="#FEC007"/>
<path d="M4.26257 16.3303V18H3.00943L4.26257 16.3303Z" fill="#FEC007"/>
</svg>
