<svg width="18" height="18" viewBox="0 0 18 18" fill="none" xmlns="http://www.w3.org/2000/svg">
<g id="1 - Soccer">
<g id="Group">
<path id="Vector" d="M8.98246 18C13.9433 18 17.9649 13.9706 17.9649 9C17.9649 4.02944 13.9433 0 8.98246 0C4.02158 0 0 4.02944 0 9C0 13.9706 4.02158 18 8.98246 18Z" fill="#78B22A"/>
<path id="Vector_2" d="M17.9649 9C17.9649 8.80253 17.9578 8.60678 17.9454 8.41247L13.8738 4.33298L4.065 13.639L8.39806 17.9805C8.59132 17.993 8.78606 18 8.98244 18C13.9433 18 17.9649 13.9706 17.9649 9Z" fill="#679C20"/>
<path id="Vector_3" d="M8.98244 15.7676C12.7128 15.7676 15.7368 12.7376 15.7368 9C15.7368 5.26237 12.7128 2.23242 8.98244 2.23242C5.2521 2.23242 2.22806 5.26237 2.22806 9C2.22806 12.7376 5.2521 15.7676 8.98244 15.7676Z" fill="white"/>
<path id="Vector_4" d="M8.98246 2.23242C8.97744 2.23242 8.97246 2.2326 8.96741 2.2326V15.7674C8.97242 15.7674 8.97741 15.7675 8.98246 15.7675C12.7128 15.7675 15.7368 12.7376 15.7368 8.99996C15.7368 5.26233 12.7128 2.23242 8.98246 2.23242Z" fill="#F0F0F0"/>
<path id="Vector_5" d="M8.98247 6.21213L6.3743 8.11077L7.37051 11.1829H10.5944L11.5906 8.11077L8.98247 6.21213Z" fill="#555A66"/>
<path id="Vector_6" d="M11.5906 8.11077L8.98246 6.21213L8.96741 6.22306V11.1829H10.5944L11.5906 8.11077Z" fill="#414952"/>
<path id="Vector_7" d="M6.53018 2.69255L8.98246 4.47775L11.4347 2.69258C10.6745 2.39562 9.84754 2.23242 8.98246 2.23242C8.11737 2.23242 7.29039 2.39562 6.53018 2.69255Z" fill="#555A66"/>
<path id="Vector_8" d="M11.4347 2.69255C10.6745 2.39562 9.84754 2.23242 8.98246 2.23242C8.97744 2.23242 8.97246 2.2326 8.96741 2.2326V4.46678L8.98246 4.47771L11.4347 2.69255Z" fill="#414952"/>
<path id="Vector_9" d="M13.2515 7.54984L15.7278 9.35252C15.7337 9.23576 15.7368 9.11823 15.7368 9C15.7368 7.35782 15.1529 5.85239 14.182 4.68039L13.2515 7.54984Z" fill="#414952"/>
<path id="Vector_10" d="M10.6953 15.5478C12.3616 15.1114 13.777 14.0535 14.68 12.636H11.6395L10.6953 15.5478Z" fill="#414952"/>
<path id="Vector_11" d="M3.7829 4.68039C2.81199 5.85239 2.22806 7.35782 2.22806 9C2.22806 9.11823 2.23115 9.23576 2.23711 9.35252L4.71343 7.54984L3.7829 4.68039Z" fill="#555A66"/>
<path id="Vector_12" d="M6.3254 12.636H3.28491C4.18789 14.0535 5.60336 15.1114 7.26968 15.5478L6.3254 12.636Z" fill="#555A66"/>
</g>
</g>
</svg>
