<svg width="18" height="18" viewBox="0 0 18 18" fill="none" xmlns="http://www.w3.org/2000/svg">
<g id="87 - Speedway">
<g id="Group">
<path id="Vector" d="M3.17559 10.0708C4.88893 10.0708 6.28284 11.4647 6.28284 13.178C6.28284 14.8914 4.88893 16.2853 3.17559 16.2853C1.46226 16.2853 0.0683479 14.8913 0.0683479 13.178C0.0683479 11.4647 1.46229 10.0708 3.17559 10.0708ZM3.17559 15.1961C4.28836 15.1961 5.1937 14.2908 5.1937 13.178C5.1937 12.0652 4.28836 11.1599 3.17559 11.1599C2.06283 11.1599 1.15749 12.0652 1.15749 13.178C1.15749 14.2908 2.06283 15.1961 3.17559 15.1961Z" fill="#3E3D42"/>
<path id="Vector_2" d="M14.4414 9.16794C16.4036 9.16794 18 10.7644 18 12.7266C18 14.6888 16.4036 16.2853 14.4414 16.2853C12.4791 16.2853 10.8828 14.6888 10.8828 12.7266C10.8828 10.7644 12.4792 9.16794 14.4414 9.16794ZM14.4414 15.1961C15.8031 15.1961 16.9109 14.0883 16.9109 12.7266C16.9109 11.3649 15.8031 10.2571 14.4414 10.2571C13.0797 10.2571 11.9719 11.3649 11.9719 12.7266C11.9719 14.0883 13.0797 15.1961 14.4414 15.1961Z" fill="#3E3D42"/>
<path id="Vector_3" d="M3.17552 10.6517C4.56854 10.6517 5.70187 11.785 5.70187 13.178C5.70187 14.571 4.56854 15.7043 3.17552 15.7043C1.78249 15.7043 0.649156 14.571 0.649156 13.178C0.649156 11.785 1.78249 10.6517 3.17552 10.6517ZM3.17552 15.1961C4.28828 15.1961 5.19362 14.2908 5.19362 13.178C5.19362 12.0653 4.28828 11.1599 3.17552 11.1599C2.06275 11.1599 1.15741 12.0653 1.15741 13.178C1.15741 14.2908 2.06275 15.1961 3.17552 15.1961Z" fill="#2D2D30"/>
<path id="Vector_4" d="M14.4414 9.74884C16.0833 9.74884 17.4191 11.0847 17.4191 12.7266C17.4191 14.3685 16.0833 15.7044 14.4414 15.7044C12.7994 15.7044 11.4636 14.3685 11.4636 12.7266C11.4636 11.0847 12.7994 9.74884 14.4414 9.74884ZM14.4414 15.1961C15.8031 15.1961 16.9109 14.0883 16.9109 12.7266C16.9109 11.3649 15.8031 10.2571 14.4414 10.2571C13.0797 10.2571 11.9719 11.3649 11.9719 12.7266C11.9719 14.0883 13.0797 15.1961 14.4414 15.1961Z" fill="#2D2D30"/>
<path id="Vector_5" d="M3.17542 14.5312C2.42814 14.5312 1.82236 13.9254 1.82236 13.1781C1.82236 12.4308 2.42814 11.8251 3.17542 11.8251C3.92269 11.8251 4.52847 12.4308 4.52847 13.1781C4.52847 13.9254 3.92269 14.5312 3.17542 14.5312Z" fill="#ACABB1"/>
<path id="Vector_6" d="M14.4414 14.0796C13.6942 14.0796 13.0884 13.4738 13.0884 12.7265C13.0884 11.9792 13.6942 11.3734 14.4414 11.3734C15.1887 11.3734 15.7945 11.9792 15.7945 12.7265C15.7945 13.4738 15.1887 14.0796 14.4414 14.0796Z" fill="#ACABB1"/>
<path id="Vector_7" d="M10.3473 5.59693L9.64111 4.89465C9.42427 4.67904 9.10315 4.60654 8.81469 4.70814L7.45812 5.18602C7.01902 5.34071 6.54987 5.3906 6.08806 5.33178L3.07757 4.94826C2.74039 4.9053 2.40275 5.02427 2.16699 5.26917L1.85139 5.59696L7.26835 7.3779L10.3473 5.59693Z" fill="#57565C"/>
<path id="Vector_8" d="M7.2252 6.193L4.85096 5.17417L6.08814 5.33178C6.54992 5.39063 7.01911 5.34071 7.45821 5.18602L8.81478 4.70814C9.10324 4.60654 9.42432 4.67904 9.6412 4.89465L10.3474 5.59693L7.9241 6.99861L7.2252 6.193Z" fill="#3E3D42"/>
<path id="Vector_9" d="M10.5406 8.83998L12.916 7.3779H15.7054C16.0489 7.3779 16.3815 7.49786 16.646 7.71706L17.6261 8.52962C17.8312 8.6996 17.6464 9.02694 17.3949 8.93929L16.2097 8.5261C15.9273 8.42767 15.6273 8.39037 15.3294 8.41659L13.2617 8.59891L11.4052 9.52745C11.1378 9.66122 10.9018 9.85029 10.7129 10.0822L9.92018 11.0553C9.75196 11.2618 9.42307 11.0799 9.50857 10.8276L9.91736 9.62188C10.0276 9.29655 10.248 9.02001 10.5406 8.83998Z" fill="#FF3F62"/>
<path id="Vector_10" d="M9.91738 9.62184C10.0277 9.29654 10.2481 9.02004 10.5406 8.84001L12.9161 7.37793H14.4333L14.7283 8.46964L13.2617 8.59894L11.4052 9.52749C11.1378 9.66125 10.9018 9.85032 10.7129 10.0822L9.92016 11.0553C9.75197 11.2618 9.42305 11.0798 9.50855 10.8276L9.91738 9.62184Z" fill="#FF0C38"/>
<path id="Vector_11" d="M10.357 5.96868H10.765C11.0446 5.96868 11.2733 5.73995 11.2733 5.46043V5.05026C11.2733 4.7707 11.0445 4.54201 10.765 4.54201H10.357C10.0775 4.54201 9.8488 4.77073 9.8488 5.05026V5.46043C9.8488 5.73995 10.0775 5.96868 10.357 5.96868Z" fill="#D8D7DA"/>
<path id="Vector_12" d="M4.76471 9.32985L2.77062 8.54464C2.03972 8.25682 1.55924 7.55123 1.55924 6.7657V5.83589L4.06858 6.67236L4.76471 9.32985Z" fill="#FF728B"/>
<path id="Vector_13" d="M3.13984 13.7756C3.24977 13.7756 3.36104 13.7453 3.4606 13.6817L6.7798 11.5644C7.05799 11.3869 7.13966 11.0176 6.96219 10.7394C6.78472 10.4612 6.4153 10.3795 6.13718 10.557L2.81798 12.6743C2.53979 12.8518 2.45812 13.2212 2.63559 13.4993C2.74953 13.678 2.94258 13.7756 3.13984 13.7756Z" fill="#D8D7DA"/>
<path id="Vector_14" d="M3.01277 13.1601C3.1227 13.1601 3.23397 13.1298 3.33353 13.0663L6.65275 10.9489C6.76785 10.8755 6.84867 10.769 6.89206 10.65C6.91768 10.6771 6.94134 10.7068 6.96219 10.7394C7.13966 11.0176 7.05799 11.387 6.7798 11.5644L3.46059 13.6818C3.36103 13.7453 3.24976 13.7756 3.13982 13.7756C2.9426 13.7756 2.74948 13.678 2.63554 13.4993C2.53155 13.3363 2.51717 13.1422 2.57852 12.9735C2.69323 13.0949 2.85161 13.1601 3.01277 13.1601Z" fill="#C6C5CA"/>
<path id="Vector_15" d="M11.58 8.41341C11.5966 8.44484 11.0124 10.4172 11.0124 10.4172L8.07156 11.7707L6.0402 10.4172L11.58 8.41341Z" fill="#898890"/>
<path id="Vector_16" d="M10.561 8.98237C10.4813 8.92275 8.4169 10.0372 8.4169 10.0372L6.53594 7.98675L10.2225 6.78951L10.561 8.98237Z" fill="#ACABB1"/>
<path id="Vector_17" d="M7.82644 11.6298C6.947 11.6298 6.23408 10.9169 6.23408 10.0374C6.23408 9.158 6.947 8.44507 7.82644 8.44507C8.70587 8.44507 9.41879 9.158 9.41879 10.0374C9.41879 10.9169 8.70587 11.6298 7.82644 11.6298Z" fill="#D8D7DA"/>
<path id="Vector_18" d="M7.85242 12.1131C8.1221 12.1131 8.39516 12.0591 8.65644 11.9471L10.9092 10.9803C11.322 10.8032 11.6128 10.433 11.6872 9.98995L12.0691 7.71415L11.2835 7.58228L10.9016 9.85811C10.8723 10.0326 10.7577 10.1785 10.5951 10.2483L8.34229 11.215C7.81494 11.4413 7.20737 11.2778 6.86481 10.8175L5.40386 8.85429L4.76479 9.32989L6.22574 11.293C6.61963 11.8223 7.22657 12.1131 7.85242 12.1131Z" fill="#ACABB1"/>
<path id="Vector_19" d="M12.1823 7.47069L11.9775 8.68059C11.9323 8.94704 11.7982 9.19032 11.597 9.37071L10.8069 10.0792C10.6433 10.2258 10.3823 10.1346 10.3458 9.91795L9.89723 7.25789L12.1823 7.47069Z" fill="#D8D7DA"/>
<path id="Vector_20" d="M14.6104 13.2065C14.8754 13.1332 15.0309 12.8589 14.9576 12.5939L12.2889 2.94418C12.2156 2.67914 11.9413 2.52379 11.6763 2.59705C11.4113 2.67035 11.2559 2.94464 11.3292 3.20965L13.9978 12.8593C14.1278 13.305 14.566 13.2187 14.6104 13.2065Z" fill="#D8D7DA"/>
<path id="Vector_21" d="M14.4232 12.6899L11.7546 3.04021C11.7124 2.88756 11.6033 2.77161 11.4679 2.71448C11.525 2.6607 11.5955 2.61942 11.6763 2.59706C11.9413 2.5238 12.2156 2.67919 12.2889 2.94423L14.9576 12.5939C15.0308 12.8589 14.8755 13.1332 14.6104 13.2065C14.5852 13.2134 14.4325 13.2443 14.2816 13.1876C14.4135 13.0652 14.4745 12.8754 14.4232 12.6899Z" fill="#C6C5CA"/>
<path id="Vector_22" d="M13.9978 12.8593V9.3591C13.9978 9.16993 14.2689 9.13843 14.3122 9.32261L15.0618 12.5076C15.0618 12.5076 15.2643 13.123 14.6436 13.2942C14.6437 13.2942 14.1557 13.4137 13.9978 12.8593Z" fill="#FF728B"/>
<path id="Vector_23" d="M14.3082 12.5075L13.9978 11.189V9.3591C13.9978 9.16993 14.2689 9.13843 14.3122 9.32261L15.0619 12.5076C15.0619 12.5076 15.2644 13.123 14.6437 13.2942C14.6437 13.2942 14.3651 13.3623 14.1608 13.1564C14.4412 12.912 14.3082 12.5075 14.3082 12.5075Z" fill="#FF3F62"/>
<path id="Vector_24" d="M7.90172 6.01002C7.30244 6.24118 6.65005 6.29704 6.02015 6.17125C4.74251 5.91609 2.38798 5.46813 0.225979 5.17626C0.00512688 5.14645 -0.0899707 5.44711 0.107643 5.55008C0.850531 5.93729 1.84584 6.45876 2.48983 6.7964C2.91448 7.01904 3.26872 7.35513 3.51351 7.76741L4.04455 8.66181C4.27827 9.05546 4.60536 9.3855 4.99686 9.62277L6.6651 10.6338C6.90602 10.7798 7.17117 10.8813 7.44799 10.9335L8.09216 11.0549C8.37302 11.1078 8.57612 10.7927 8.41204 10.5588L7.73511 9.59352C7.56334 9.34862 7.61544 9.01183 7.85317 8.83021L9.08247 7.89116C9.24792 7.76477 9.45457 7.70462 9.66196 7.72248L12.5091 7.96762C12.8939 8.00077 13.1782 7.61613 13.0337 7.25793L10.4677 6.27095L7.90172 6.01002Z" fill="#FF728B"/>
<path id="Vector_25" d="M1.55924 6.76574V5.83589L4.06858 6.67236L4.76471 9.32985L3.2403 8.7296L2.88909 8.13813C2.71285 7.84131 2.45815 7.59971 2.15257 7.43947C1.99961 7.35928 1.80941 7.25954 1.59816 7.14891C1.57277 7.02438 1.55924 6.8962 1.55924 6.76574Z" fill="#FF3F62"/>
<path id="Vector_26" d="M0.226017 5.17625C1.7191 5.37784 3.30387 5.65385 4.56249 5.8894L7.73505 9.59348L8.41198 10.5587C8.57609 10.7927 8.37296 11.1077 8.0921 11.0548L7.44793 10.9335C7.17111 10.8813 6.90589 10.7798 6.66504 10.6338L4.99681 9.62274C4.60531 9.38543 4.27822 9.05542 4.0445 8.66178L3.51347 7.7674C3.26867 7.35513 2.91448 7.01907 2.48983 6.79639C1.84584 6.45871 0.850531 5.93728 0.107646 5.55007C-0.0899307 5.4471 0.00520109 5.1464 0.226017 5.17625Z" fill="#96C8EF"/>
<path id="Vector_27" d="M6.56368 10.1207L5.88675 9.15541L2.82241 5.57764C3.43957 5.68303 4.03037 5.78984 4.56253 5.88944L7.73509 9.59353L8.41198 10.5588C8.57609 10.7928 8.37296 11.1078 8.0921 11.0549L7.44797 10.9335C7.17115 10.8813 6.90593 10.7799 6.66507 10.6338L6.51418 10.5424C6.62587 10.442 6.6655 10.2657 6.56368 10.1207Z" fill="#78B9EB"/>
<path id="Vector_28" d="M11.2114 3.44334C10.7341 3.44334 10.3471 3.05637 10.3471 2.57902C10.3471 2.10167 10.7341 1.71471 11.2114 1.71471C11.6888 1.71471 12.0757 2.10167 12.0757 2.57902C12.0757 3.05637 11.6888 3.44334 11.2114 3.44334Z" fill="#C6C5CA"/>
<path id="Vector_29" d="M10.8916 3.44304C10.5698 3.44304 10.3089 3.18217 10.3089 2.86036C10.3089 2.53856 10.5698 2.27768 10.8916 2.27768C11.2134 2.27768 11.4743 2.53856 11.4743 2.86036C11.4743 3.18217 11.2134 3.44304 10.8916 3.44304Z" fill="#ACABB1"/>
<path id="Vector_30" d="M7.22518 6.19301C7.45535 6.15568 7.68214 6.09479 7.9018 6.01003L10.4677 6.27092L13.0337 7.2579C13.1782 7.61607 12.8939 8.00068 12.5091 7.9676L10.8917 7.82838L7.22518 6.19312V6.19301Z" fill="#FF3F62"/>
<path id="Vector_31" d="M9.93954 5.22403C10.4269 5.03605 10.9647 5.02508 11.4593 5.19299L11.8856 5.33769C12.1601 5.43089 12.3804 5.63912 12.4889 5.90795L13.0336 7.25788C13.0336 7.25788 7.87679 6.01968 7.90183 6.01001L9.93954 5.22403Z" fill="#78B9EB"/>
</g>
</g>
</svg>
