<svg width="18" height="18" viewBox="0 0 18 18" fill="none" xmlns="http://www.w3.org/2000/svg">
<g id="8 - Snooker">
<g id="Group">
<path id="Vector" d="M15 17.2078C16.6569 17.2078 18 15.8646 18 14.2078C18 12.5509 16.6569 11.2078 15 11.2078C13.3431 11.2078 12 12.5509 12 14.2078C12 15.8646 13.3431 17.2078 15 17.2078Z" fill="#FF3C22"/>
<path id="Vector_2" d="M17.4112 14.1728C17.3349 14.1728 17.269 14.1161 17.259 14.0386C17.0102 12.0806 15.3331 11.972 15.2615 11.9684C15.1772 11.964 15.1117 11.8921 15.1161 11.8074C15.1201 11.7231 15.1892 11.6692 15.2763 11.6615C15.2963 11.6627 17.2814 11.7818 17.5635 14.0002C17.5743 14.0841 17.5147 14.1608 17.4304 14.1716C17.424 14.1724 17.4176 14.1728 17.4112 14.1728Z" fill="white"/>
<path id="Vector_3" d="M17.4407 14.7398C17.5502 14.7398 17.639 14.6511 17.639 14.5416C17.639 14.4321 17.5502 14.3434 17.4407 14.3434C17.3313 14.3434 17.2425 14.4321 17.2425 14.5416C17.2425 14.6511 17.3313 14.7398 17.4407 14.7398Z" fill="white"/>
<path id="Vector_4" d="M9.00001 17.2078C10.6569 17.2078 12 15.8646 12 14.2078C12 12.5509 10.6569 11.2078 9.00001 11.2078C7.34315 11.2078 6 12.5509 6 14.2078C6 15.8646 7.34315 17.2078 9.00001 17.2078Z" fill="#FF3C22"/>
<path id="Vector_5" d="M11.4112 14.1728C11.3349 14.1728 11.269 14.1161 11.259 14.0386C11.0102 12.0806 9.33306 11.972 9.26152 11.9684C9.17723 11.964 9.1117 11.8921 9.11612 11.8074C9.12011 11.7231 9.18922 11.6692 9.27632 11.6615C9.29631 11.6627 11.2814 11.7818 11.5635 14.0002C11.5743 14.0841 11.5147 14.1608 11.4304 14.1716C11.424 14.1724 11.4177 14.1728 11.4112 14.1728Z" fill="white"/>
<path id="Vector_6" d="M11.4408 14.7398C11.5503 14.7398 11.639 14.6511 11.639 14.5416C11.639 14.4321 11.5503 14.3434 11.4408 14.3434C11.3313 14.3434 11.2426 14.4321 11.2426 14.5416C11.2426 14.6511 11.3313 14.7398 11.4408 14.7398Z" fill="white"/>
<path id="Vector_7" d="M3.00001 17.2078C4.65686 17.2078 6.00001 15.8646 6.00001 14.2078C6.00001 12.5509 4.65686 11.2078 3.00001 11.2078C1.34315 11.2078 0 12.5509 0 14.2078C0 15.8646 1.34315 17.2078 3.00001 17.2078Z" fill="#FF3C22"/>
<path id="Vector_8" d="M5.41127 14.1728C5.33497 14.1728 5.26905 14.1161 5.25905 14.0386C5.01017 12.0806 3.33306 11.972 3.26153 11.9684C3.17723 11.964 3.1117 11.8921 3.11612 11.8074C3.12011 11.7231 3.18923 11.6692 3.27632 11.6615C3.29631 11.6627 5.28142 11.7818 5.56348 14.0002C5.57428 14.0841 5.51474 14.1608 5.43045 14.1716C5.42403 14.1724 5.41765 14.1728 5.41127 14.1728Z" fill="white"/>
<path id="Vector_9" d="M5.44078 14.7398C5.55025 14.7398 5.639 14.6511 5.639 14.5416C5.639 14.4321 5.55025 14.3434 5.44078 14.3434C5.3313 14.3434 5.24255 14.4321 5.24255 14.5416C5.24255 14.6511 5.3313 14.7398 5.44078 14.7398Z" fill="white"/>
<path id="Vector_10" d="M6.00001 12.0432C7.65686 12.0432 9.00001 10.7 9.00001 9.04319C9.00001 7.38633 7.65686 6.04318 6.00001 6.04318C4.34315 6.04318 3 7.38633 3 9.04319C3 10.7 4.34315 12.0432 6.00001 12.0432Z" fill="#FF3C22"/>
<path id="Vector_11" d="M8.41126 9.00804C8.33496 9.00804 8.26904 8.95131 8.25905 8.87382C8.01016 6.91585 6.33306 6.80719 6.26153 6.80362C6.17723 6.79923 6.1117 6.72732 6.11612 6.6426C6.12011 6.55831 6.18923 6.50438 6.27632 6.49677C6.29631 6.49796 8.28142 6.617 8.56347 8.83546C8.57427 8.91937 8.51473 8.99605 8.43044 9.00684C8.42402 9.00765 8.41764 9.00804 8.41126 9.00804Z" fill="white"/>
<path id="Vector_12" d="M8.43956 9.57572C8.54903 9.57572 8.63778 9.48698 8.63778 9.37751C8.63778 9.26803 8.54903 9.17929 8.43956 9.17929C8.33008 9.17929 8.24133 9.26803 8.24133 9.37751C8.24133 9.48698 8.33008 9.57572 8.43956 9.57572Z" fill="white"/>
<path id="Vector_13" d="M12 12.0072C13.6568 12.0072 15 10.6641 15 9.00721C15 7.35035 13.6568 6.0072 12 6.0072C10.3431 6.0072 8.99997 7.35035 8.99997 9.00721C8.99997 10.6641 10.3431 12.0072 12 12.0072Z" fill="#FF3C22"/>
<path id="Vector_14" d="M14.4112 8.97304C14.3349 8.97304 14.269 8.9163 14.259 8.83881C14.0102 6.88085 12.3331 6.77218 12.2615 6.76861C12.1772 6.76423 12.1117 6.69231 12.1161 6.60759C12.1201 6.5233 12.1892 6.46937 12.2763 6.46176C12.2963 6.46295 14.2814 6.58199 14.5635 8.80045C14.5743 8.88436 14.5147 8.96104 14.4304 8.97184C14.424 8.97261 14.4177 8.97304 14.4112 8.97304Z" fill="white"/>
<path id="Vector_15" d="M14.4408 9.54141C14.5503 9.54141 14.639 9.45266 14.639 9.34319C14.639 9.23371 14.5503 9.14496 14.4408 9.14496C14.3313 9.14496 14.2426 9.23371 14.2426 9.34319C14.2426 9.45266 14.3313 9.54141 14.4408 9.54141Z" fill="white"/>
<path id="Vector_16" d="M9.00001 6.79224C10.6569 6.79224 12 5.44909 12 3.79224C12 2.13538 10.6569 0.792236 9.00001 0.792236C7.34315 0.792236 6 2.13538 6 3.79224C6 5.44909 7.34315 6.79224 9.00001 6.79224Z" fill="#FF3C22"/>
<path id="Vector_17" d="M11.4112 3.75709C11.3349 3.75709 11.269 3.70036 11.259 3.62287C11.0102 1.66491 9.33306 1.55624 9.26152 1.55267C9.17723 1.54829 9.1117 1.47637 9.11612 1.39166C9.12011 1.30736 9.18922 1.25343 9.27632 1.24582C9.29631 1.24702 11.2814 1.36606 11.5635 3.58451C11.5743 3.66842 11.5147 3.7451 11.4304 3.7559C11.424 3.75671 11.4177 3.75709 11.4112 3.75709Z" fill="white"/>
<path id="Vector_18" d="M11.4408 4.32479C11.5503 4.32479 11.639 4.23605 11.639 4.12657C11.639 4.01709 11.5503 3.92834 11.4408 3.92834C11.3313 3.92834 11.2426 4.01709 11.2426 4.12657C11.2426 4.23605 11.3313 4.32479 11.4408 4.32479Z" fill="white"/>
</g>
</g>
</svg>
