<svg width="18" height="18" viewBox="0 0 18 18" fill="none" xmlns="http://www.w3.org/2000/svg">
<path fill-rule="evenodd" clip-rule="evenodd" d="M0 9C0 4.02944 4.02944 0 9 0C13.9706 0 18 4.02944 18 9C18 13.9706 13.9706 18 9 18C4.02944 18 0 13.9706 0 9Z" fill="white"/>
<path fill-rule="evenodd" clip-rule="evenodd" d="M16.1457 5.43085C17.4911 7.99877 17.1809 11.6355 15.3471 13.8779C13.2984 16.5257 10.0178 17.5116 6.83858 16.7039C4.32903 16.0711 1.89941 13.6783 1.30961 11.1442C0.449563 7.86673 1.57071 4.61692 4.25844 2.57428C6.4178 0.915528 9.85502 0.50091 12.3368 1.74495C13.9004 2.39302 15.4056 3.90114 16.1457 5.43085Z" fill="#1E2B3D"/>
<path fill-rule="evenodd" clip-rule="evenodd" d="M15.8078 5.8916C16.9813 8.33045 16.5389 11.7031 14.7635 13.7243C12.9113 15.8559 10.3648 16.8113 7.5452 16.3045C5.86805 15.8807 4.1909 15.1372 3.12195 13.5707C1.37113 11.4881 1.05475 7.97421 2.35407 5.58446C3.77012 2.88142 6.56832 1.34556 9.57234 1.5299C11.4 1.71423 12.9972 2.4514 14.3641 3.74157C14.9508 4.4142 15.4363 5.12987 15.8078 5.8916Z" fill="white"/>
<path fill-rule="evenodd" clip-rule="evenodd" d="M9.60327 2.54355C9.65547 2.78925 9.93198 3.05959 9.69535 3.31153C9.60617 3.44666 9.54491 3.59102 9.57246 3.77227C9.98716 4.05794 10.0948 3.24094 10.5861 3.52659C10.6998 3.42826 10.8134 3.3331 10.9853 3.37297C10.9484 3.84596 11.4769 3.59718 11.7226 3.71083C11.9622 3.66171 12.3768 3.84596 12.3983 3.46505C12.4475 3.48046 12.4935 3.50502 12.5519 3.49578C12.5797 3.62483 12.4567 3.75996 12.6442 3.803C12.8561 3.7508 13.1293 3.93197 13.1664 3.64938C13.2339 3.63398 13.2984 3.68627 13.32 3.71083L13.2585 3.77227C13.4336 3.94121 13.6087 3.83373 13.8422 3.86444C13.9865 3.81533 13.8022 3.55115 14.0264 3.61875C14.0909 3.73241 14.0142 3.90134 14.1493 3.98733C14.1124 4.02731 14.0572 4.02731 14.0264 4.07951C14.0295 4.20231 14.1832 4.21772 14.2722 4.26384H14.4565C14.4473 4.29149 14.4719 4.3068 14.4872 4.32528C13.9559 4.51887 13.0682 4.1164 12.89 4.90893C12.7639 4.86905 12.7026 5.02257 12.6443 5.09326C12.5275 5.07487 12.4537 4.95814 12.3369 4.93964C12.3155 5.44952 12.5735 5.9195 12.8285 6.35262C12.761 6.43554 12.6781 6.48774 12.5828 6.50623C12.2633 6.07928 12.1374 5.5725 11.9377 5.09326C11.7904 5.19159 11.9624 5.36052 11.9071 5.52329C11.9316 5.62769 11.8763 5.67372 11.7842 5.6769L11.2006 5.55401C10.9026 5.7137 10.7951 6.27277 10.3712 6.13766C10.319 6.16837 10.2945 6.26363 10.2176 6.22982L10.1868 6.1991C9.97801 6.28202 9.75689 6.42023 9.5111 6.32199C9.38522 6.35271 9.21946 6.29434 9.14271 6.44478C9.09032 6.73353 9.12412 7.05606 9.05044 7.33556C8.90608 7.29559 8.76171 7.38468 8.74322 7.51989C8.71865 7.73496 8.78319 7.91005 8.80466 8.10354L9.05035 8.04208C9.20098 8.34614 9.51408 8.58268 9.69543 8.87142C9.89518 9.12028 10.2146 9.37213 10.2176 9.73147C10.144 9.74986 10.0949 9.83279 10.0334 9.88507C10.0272 10.1432 10.3128 10.2814 10.4018 10.4994C10.6783 10.8066 10.7797 11.1844 11.0777 11.4823C10.964 12.2656 11.4062 12.8185 11.2926 13.6017C11.225 14.1792 11.7135 14.5294 11.8762 15.0147V15.4139C11.3081 15.7303 10.835 15.2665 10.4018 14.9839C10.0516 14.7229 10.236 14.3543 10.1867 13.9704C9.94729 13.2639 9.79675 12.5174 9.60327 11.7895C9.40352 11.4363 8.93969 11.1875 8.80457 10.8066C8.47894 10.4441 8.23326 9.88817 7.72945 9.7622C7.61272 9.79908 7.71106 9.92188 7.63739 9.97715C7.26847 10.6871 6.98987 11.4403 6.80805 12.2194C6.53771 12.6925 6.35655 13.2024 6.13233 13.6939C5.83435 13.7676 5.46269 13.6693 5.18012 13.786C5.20159 14.0624 5.40433 14.339 5.24156 14.6154C4.95591 14.5939 4.59041 14.9442 4.38151 14.554C3.97605 14.382 4.0345 13.8567 3.85931 13.5096C3.96371 13.0334 4.39067 12.6894 4.65801 12.2809C4.85151 12.1581 5.131 12.1735 5.24166 11.9123C5.44746 10.8189 5.78841 9.78375 6.13243 8.74861C6.15699 8.43223 5.81605 8.15574 6.07098 7.85784C6.03401 7.80564 5.9635 7.83328 5.91738 7.7964C6.18463 6.81962 6.40267 5.82744 6.43956 4.7555C6.75595 4.33154 7.04458 3.84315 7.48395 3.52687C7.53615 3.51763 7.60675 3.55142 7.63757 3.49614C7.58845 2.96788 7.64373 2.35044 8.1904 2.08327C8.68784 1.80631 9.3727 2.00595 9.60327 2.54355Z" fill="#1E2B3D"/>
<path fill-rule="evenodd" clip-rule="evenodd" d="M10.5861 4.50944C10.4141 4.86568 9.84885 4.54324 9.6645 5.00091C9.54796 4.98252 9.41264 4.94563 9.35736 4.84729L9.84894 4.44798C10.113 4.42343 10.3404 4.48787 10.5861 4.50944Z" fill="white"/>
</svg>
