<svg width="18" height="18" viewBox="0 0 18 18" fill="none" xmlns="http://www.w3.org/2000/svg">
<path fill-rule="evenodd" clip-rule="evenodd" d="M4.70663 7.50986C2.81164 10.1106 2.47325 13.5912 0.152849 15.844C0.0948391 15.931 0.0561658 16.0277 0.114176 16.0857C0.713612 16.6754 1.30338 17.2749 1.90282 17.8743C1.96083 17.9226 2.04784 17.884 2.14452 17.8356C4.38757 15.5152 7.87784 15.1768 10.4786 13.2818C11.1071 13.0595 11.6968 12.7017 12.1996 12.199C12.7023 11.6962 13.0601 11.1065 13.2824 10.478C15.1774 7.87726 15.5158 4.39666 17.8362 2.14394C17.8942 2.05693 17.9329 1.95058 17.8749 1.90223C17.2754 1.3028 16.6857 0.703362 16.0862 0.113594C16.0282 0.055584 15.9412 0.0942573 15.8445 0.142599C13.6015 2.463 10.1016 2.80139 7.51044 4.69638C6.882 4.90908 6.29223 5.27648 5.78948 5.77923C5.28673 6.29165 4.929 6.88142 4.70663 7.50986Z" fill="#40494C"/>
<path fill-rule="evenodd" clip-rule="evenodd" d="M4.70662 7.50986C4.69696 7.53886 4.67762 7.5582 4.65828 7.57753C4.13619 9.16314 4.51326 10.9614 5.76047 12.2183C7.01735 13.4849 8.82533 13.8426 10.4109 13.3302C10.4303 13.3205 10.4593 13.3012 10.4786 13.2818C11.1071 13.0595 11.6968 12.7017 12.1996 12.199C12.7023 11.6962 13.0601 11.1065 13.2824 10.478C13.2921 10.4587 13.3114 10.4297 13.3308 10.4104C13.8529 8.82475 13.4758 7.01677 12.2286 5.75989C10.9717 4.50301 9.16372 4.13561 7.57812 4.64803C7.54911 4.66737 7.52977 4.67704 7.51044 4.69637C6.882 4.90908 6.29223 5.27647 5.78948 5.77923C5.28672 6.29165 4.929 6.88142 4.70662 7.50986Z" fill="#323B3F"/>
<path fill-rule="evenodd" clip-rule="evenodd" d="M6.53396 6.53338C7.89719 5.17015 10.1112 5.17015 11.4648 6.53338C12.828 7.89661 12.828 10.101 11.4648 11.4642C10.1016 12.8275 7.88753 12.8275 6.53396 11.4642C5.17073 10.101 5.17073 7.88695 6.53396 6.53338Z" fill="#FCC900"/>
<path fill-rule="evenodd" clip-rule="evenodd" d="M6.98835 6.98777C8.09054 5.88559 9.88885 5.88559 11.0007 6.98777C12.1029 8.08996 12.1029 9.88827 11.0007 11.0001C9.89852 12.112 8.10021 12.1023 6.98835 11.0001C5.8765 9.89794 5.88616 8.09963 6.98835 6.98777Z" fill="#F39E00"/>
<path d="M1.95116 14.8191C1.86415 14.7321 1.72879 14.7321 1.64178 14.8191L0.065841 16.4047C-0.0211739 16.4918 -0.0211739 16.6271 0.065841 16.7141L1.29372 17.942C1.38073 18.0194 1.51609 18.0194 1.59344 17.942L3.17904 16.3564C3.26606 16.2791 3.26606 16.1437 3.17904 16.0567L1.95116 14.8191Z" fill="#323B3F"/>
<path d="M17.9329 1.2738L16.705 0.0652612C16.618 -0.0217537 16.4826 -0.0217537 16.4053 0.0652612L14.8197 1.6412C14.7424 1.72821 14.7424 1.86357 14.8197 1.95058L16.0476 3.16879C16.1346 3.25581 16.2699 3.25581 16.357 3.16879L17.9426 1.58319C18.0199 1.49617 18.0199 1.36082 17.9329 1.2738Z" fill="#323B3F"/>
<path fill-rule="evenodd" clip-rule="evenodd" d="M3.07268 12.7404C3.67212 12.1313 4.64862 12.1313 5.24806 12.7404C5.85716 13.3399 5.85716 14.3164 5.24806 14.9158C4.64862 15.5152 3.67212 15.5152 3.07268 14.9158C2.47325 14.3164 2.47325 13.3399 3.07268 12.7404Z" fill="#323B3F"/>
<path fill-rule="evenodd" clip-rule="evenodd" d="M3.44975 13.1272C3.83648 12.7404 4.47459 12.7404 4.87099 13.1272C5.25772 13.5139 5.25772 14.152 4.87099 14.5484C4.48426 14.9352 3.84615 14.9352 3.44975 14.5484C3.06302 14.152 3.06302 13.5139 3.44975 13.1272Z" fill="#FCC900"/>
<path fill-rule="evenodd" clip-rule="evenodd" d="M3.71081 13.3882L4.12655 13.5236L4.46494 13.2722L4.4746 13.6976L4.813 13.949L4.40693 14.0843L4.27157 14.4904L4.02019 14.152L3.59479 14.1423L3.84616 13.8039L3.71081 13.3882Z" fill="#F39E00"/>
<path fill-rule="evenodd" clip-rule="evenodd" d="M12.741 3.07211C13.3405 2.47267 14.317 2.47267 14.9164 3.07211C15.5255 3.68121 15.5255 4.65771 14.9164 5.24748C14.317 5.84691 13.3405 5.84691 12.741 5.24748C12.1416 4.64804 12.1416 3.67154 12.741 3.07211Z" fill="#323B3F"/>
<path fill-rule="evenodd" clip-rule="evenodd" d="M13.1277 3.44917C13.5145 3.06244 14.1526 3.06244 14.549 3.44917C14.9357 3.8359 14.9357 4.47401 14.549 4.87041C14.1623 5.25714 13.5241 5.25714 13.1277 4.87041C12.7313 4.47401 12.7313 3.84557 13.1277 3.44917Z" fill="#FCC900"/>
<path fill-rule="evenodd" clip-rule="evenodd" d="M13.3888 3.7199L13.7948 3.84559L14.1429 3.60388V4.01962L14.4813 4.28066L14.0752 4.41602L13.9495 4.82209L13.6982 4.47403H13.2631L13.5145 4.12597L13.3888 3.7199Z" fill="#F39E00"/>
<path d="M7.02704 13.7169L6.80467 13.8716L6.54362 13.7846L6.62097 14.0456L6.46628 14.268L6.73699 14.2777L6.90135 14.4904L6.98837 14.239L7.24941 14.1423L7.02704 13.978V13.7169Z" fill="#FCC900"/>
<path d="M4.15555 10.8454L3.93318 11.0001L3.67213 10.9131L3.74948 11.1742L3.59479 11.3965L3.8655 11.4062L4.02986 11.6189L4.11688 11.3675L4.37792 11.2708L4.15555 11.1161V10.8454Z" fill="#FCC900"/>
<path d="M11.4068 3.59421L11.1844 3.7489L10.9234 3.67155L11.0007 3.92293L10.846 4.15497H11.1167L11.2811 4.37734L11.3681 4.1163L11.6291 4.02928L11.4068 3.86492V3.59421Z" fill="#FCC900"/>
<path d="M14.2783 6.73641V6.4657L14.0559 6.62039L13.7949 6.54304L13.8722 6.79442L13.7175 7.02646H13.9882L14.1526 7.24883L14.2396 6.98779L14.5007 6.90077L14.2783 6.73641Z" fill="#FCC900"/>
<path fill-rule="evenodd" clip-rule="evenodd" d="M8.39993 8.65073L8.35159 9.68524L7.28808 9.74325C7.28808 9.67557 7.25907 9.58856 7.21073 9.53055C7.10438 9.42419 6.92068 9.42419 6.80466 9.53055C6.70798 9.6369 6.70798 9.81093 6.80466 9.92695C6.91101 10.0333 7.09471 10.0333 7.21073 9.92695L8.33225 11.0581L11.0394 8.35101L9.90819 7.21982C10.0145 7.12313 10.0145 6.93944 9.90819 6.82342C9.81151 6.71706 9.62781 6.71706 9.51179 6.82342C9.40544 6.92977 9.40544 7.11347 9.51179 7.21982C9.5698 7.27783 9.65681 7.30683 9.72449 7.29716L9.66648 8.36068L8.63197 8.40902C8.65131 8.33167 8.6223 8.23499 8.56429 8.17698C8.45794 8.07063 8.27424 8.07063 8.15822 8.17698C8.06154 8.28333 8.06154 8.45736 8.15822 8.57338C8.2259 8.63139 8.30325 8.6604 8.39993 8.65073Z" fill="#FCC900"/>
</svg>
