<svg width="18" height="18" viewBox="0 0 18 18" fill="none" xmlns="http://www.w3.org/2000/svg">
<g id="52 - Gaelic Football">
<path id="Vector" d="M9 18C13.9706 18 18 13.9706 18 9C18 4.02944 13.9706 0 9 0C4.02944 0 0 4.02944 0 9C0 13.9706 4.02944 18 9 18Z" fill="#088C35"/>
<path id="Vector_2" d="M13.6532 5.02227C12.5302 3.70986 10.8628 2.87677 9.00015 2.87677C5.61884 2.87677 2.87766 5.618 2.87766 8.99942C2.87766 10.916 3.75889 12.6263 5.13724 13.7488C6.19116 14.6071 7.53538 15.1221 9.00015 15.1221C12.3817 15.1221 15.1229 12.381 15.1229 8.99942C15.1229 7.4808 14.5688 6.09238 13.6532 5.02227Z" fill="#EDECE8"/>
<path id="Vector_3" d="M13.4875 13.1635C12.6439 13.908 11.7935 14.4148 11.5748 14.5401C11.2586 14.0733 10.9089 13.4072 10.5873 12.7359C13.5087 10.9123 14.4215 8.25036 14.7071 6.78248C14.6597 6.66027 14.6081 6.53991 14.5531 6.42165C14.3515 7.74117 13.5652 10.6114 10.4939 12.5396C9.99934 11.4898 9.5888 10.4776 9.49995 10.2564C10.4542 9.44212 12.5157 5.26672 12.9659 4.33672C12.9096 4.28884 12.8512 4.24335 12.7932 4.19744C12.7012 4.38746 12.5123 4.77314 12.2653 5.26231C10.7826 3.61152 8.16439 3.29546 6.91564 3.24161C6.74611 3.30298 6.58068 3.37234 6.41852 3.44781C7.24151 3.4491 10.5276 3.57713 12.1602 5.4698C11.7991 6.18037 11.3386 7.06032 10.8789 7.87053C9.12308 6.28043 4.30601 6.30346 3.49496 6.31881C3.46 6.39056 3.42716 6.46349 3.39505 6.53668C3.49724 6.53311 8.99984 6.39117 10.7704 8.06027C10.2058 9.041 9.65595 9.88344 9.30933 10.1343C3.93347 9.87432 2.97919 8.79497 2.97011 8.78403L2.88571 8.69537C2.8702 8.85753 2.87788 8.94691 2.87788 8.99354C2.99641 9.09614 3.2731 9.28942 3.84937 9.50129C3.64815 10.5464 3.79381 11.8135 3.87096 12.3398C3.9207 12.4159 3.97113 12.4913 4.02414 12.5649L4.12265 12.5469C4.11938 12.5297 3.81851 10.856 4.055 9.57288C4.59262 9.75222 5.34822 9.93839 6.40427 10.0893C6.62157 12.9644 7.73105 14.4786 8.30789 15.0821C8.42057 15.0949 8.53412 15.1047 8.64866 15.1112C8.21733 14.7139 6.87083 13.2377 6.62328 10.1189C7.36794 10.2181 8.25404 10.2994 9.30564 10.35C9.48046 10.7869 10.5305 13.3729 11.3832 14.6413C12.1872 14.3013 12.9024 13.7936 13.4875 13.1635Z" fill="#9D9D9D"/>
</g>
</svg>
