<svg width="18" height="18" viewBox="0 0 18 18" fill="none" xmlns="http://www.w3.org/2000/svg">
<g clip-path="url(#clip0)">
<path d="M16.5725 6.48733C15.7239 5.07851 13.8939 4.62437 12.485 5.47299C11.3485 6.15761 10.8338 7.48075 11.1227 8.70635L11.0188 8.81021L10.1938 7.4405L8.19711 4.12575L10.0988 0.797732C10.2161 0.592385 10.138 0.33056 9.92719 0.223107C8.95525 -0.272275 7.76557 0.0834482 7.22506 1.03106L5.71627 3.3854C5.4304 3.83154 5.4158 4.39956 5.6785 4.85972L7.01467 7.20022C7.11037 7.36786 7.07173 7.57998 6.92304 7.70307L1 12.6072V14.79H12.2032L12.2324 13.7562C12.9449 13.327 13.1767 12.3929 12.7475 11.6804L11.9904 10.4236L12.1082 10.3059C13.0557 11.1004 14.4394 11.2487 15.5581 10.5749C16.967 9.72619 17.4212 7.89614 16.5725 6.48733Z" fill="#FFBCAB"/>
<path d="M16.5725 6.48735C15.7239 5.07854 13.8939 4.6244 12.485 5.47301C11.998 5.76635 11.6252 6.1771 11.3808 6.64705C12.1192 7.1239 14.0484 8.20393 16.9346 8.63935C17.0852 7.92762 16.9775 7.15958 16.5725 6.48735Z" fill="#315591"/>
<path d="M12.6658 11.5234H2.32171L1.01276 12.6072V14.79H12.216L12.2452 13.7562C12.9577 13.327 13.1895 12.3929 12.7603 11.6804L12.6658 11.5234Z" fill="#FF9478"/>
<path d="M17.991 9.78593C17.4392 9.24783 16.5572 9.25342 16.0122 9.79845L15.9984 9.8123C15.4485 10.3622 14.5569 10.3622 14.0069 9.8123L14.0048 9.81015C13.4552 9.26055 12.5642 9.26017 12.0141 9.80931L12.0128 9.81065C11.4628 10.3598 10.5718 10.3594 10.0222 9.8098L10.02 9.80766C9.47013 9.25774 8.57853 9.25774 8.02858 9.80766L8.01472 9.82151C7.4697 10.3665 6.5878 10.3721 6.03595 9.83402L5.98663 9.78597C5.43478 9.24786 4.55285 9.25345 4.00785 9.79848L3.994 9.81233C3.44409 10.3622 2.55249 10.3622 2.00254 9.81233L2.0012 9.811C1.45129 9.26108 0.559685 9.26108 0.00973511 9.811C0.00973511 9.811 0.00973511 15.2498 0.00973511 15.1565C0.00973511 15.0632 17.9908 15.1565 17.9908 15.1565V9.81005" fill="#52A2E7"/>
<path d="M7.01892 12.8361C6.59409 12.8361 6.16922 12.6778 5.84378 12.3605L5.79456 12.3125C5.35289 11.8818 4.6388 11.8864 4.20269 12.3225L4.18883 12.3364C4.08126 12.4439 3.90695 12.4439 3.79941 12.3364C3.69186 12.2288 3.69186 12.0545 3.79941 11.9469L3.81326 11.9331C4.4614 11.2849 5.5227 11.2782 6.17903 11.9181L6.22825 11.9662C6.66989 12.3968 7.38398 12.3923 7.82013 11.9561L7.83395 11.9423C8.15194 11.6244 8.57473 11.4493 9.02441 11.4493C9.47409 11.4493 9.89688 11.6244 10.2149 11.9423C10.6583 12.3858 11.3767 12.3861 11.8184 11.9451C12.4762 11.2884 13.5438 11.289 14.1996 11.9448C14.2001 11.9454 14.2028 11.9481 14.2033 11.9486C14.31 12.0571 14.3085 12.2314 14.2001 12.338C14.0916 12.4446 13.9173 12.4432 13.8107 12.3347L13.8085 12.3326C13.3688 11.8928 12.6505 11.8926 12.2088 12.3335C11.5511 12.9902 10.4835 12.9897 9.82759 12.3338C9.38388 11.89 8.66515 11.8899 8.22348 12.3317L8.20966 12.3455C7.88278 12.6724 7.45085 12.836 7.01892 12.8361Z" fill="#4675CF"/>
<path d="M18 14.7543H0.00991821V16.2505H18V14.7543Z" fill="#E5E5E5"/>
<path d="M10.3685 14.7543H7.59293V16.2655H10.3685V14.7543Z" fill="#ACAAB1"/>
<path d="M4.81722 14.7543H2.0416V16.2655H4.81722V14.7543Z" fill="#ACAAB1"/>
<path d="M15.9198 14.7543H13.1441V16.2655H15.9198V14.7543Z" fill="#ACAAB1"/>
<path d="M17.9809 13.8776H0V14.7543H17.9809V13.8776Z" fill="#4675CF"/>
</g>
<defs>
<clipPath id="clip0">
<rect width="18" height="18" fill="white"/>
</clipPath>
</defs>
</svg>
