<svg width="18" height="18" viewBox="0 0 18 18" fill="none" xmlns="http://www.w3.org/2000/svg">
<g id="42 - Golf">
<g id="Group">
<path id="Vector" d="M6.82788 8.25413C9.12426 7.99058 11.4459 8.04593 13.7272 8.41866C16.1945 8.91828 18.5501 9.64767 16.719 10.886C16.2535 11.2026 15.8189 11.2057 15.2075 11.516C14.0654 12.0963 14.8754 13.3844 16.4737 13.3751C18.0131 13.3689 18.3235 14.6693 17.6936 15.2342C16.868 15.9789 14.0344 16.7828 9.15242 16.7828C4.27057 16.7828 0 15.8548 0 13.0647C0 10.318 2.59151 8.99903 5.58651 8.44351L6.82788 8.25413Z" fill="#24AE5F"/>
<path id="Vector_2" d="M2.79327 14.981C2.75289 14.981 2.71293 14.973 2.67557 14.9576C1.45343 14.4551 0.869065 13.7264 0.940754 12.7876C1.01052 11.867 1.62839 10.999 2.63561 10.4064C2.78297 10.3228 2.97016 10.3729 3.05613 10.5189C3.14224 10.6649 3.09513 10.8529 2.95065 10.9412C2.55801 11.1722 1.63649 11.8189 1.55959 12.8344C1.51056 13.4837 1.9525 13.9897 2.91083 14.3834C3.04789 14.4397 3.12603 14.5852 3.09747 14.7305C3.06876 14.8759 2.94145 14.9807 2.79327 14.981Z" fill="#71C285"/>
<path id="Vector_3" d="M8.37962 12.4378C8.37962 12.9996 7.72481 13.4744 6.82788 13.6264V11.2491C7.72481 11.4012 8.37962 11.8761 8.37962 12.4378Z" fill="#547580"/>
<path id="Vector_4" d="M5.58652 11.2491V13.6264C4.68959 13.4744 4.03464 12.9996 4.03464 12.4378C4.03464 11.8761 4.68959 11.4012 5.58652 11.2491Z" fill="#547580"/>
<path id="Vector_5" d="M10.6669 4.34682L6.51749 5.92026V2.19601L10.6669 3.76946C10.7855 3.81629 10.8633 3.93069 10.8633 4.05814C10.8633 4.18545 10.7855 4.29999 10.6669 4.34682Z" fill="#E64C3C"/>
<path id="Vector_6" d="M12.7246 10.5756C12.7246 11.0898 12.3078 11.5068 11.7936 11.5068C11.2793 11.5068 10.8625 11.0898 10.8625 10.5756C10.8625 10.0615 11.2793 9.64453 11.7936 9.64453C12.3078 9.64453 12.7246 10.0615 12.7246 10.5756Z" fill="white"/>
<path id="Vector_7" d="M6.82787 1.88565V13.6264C6.41709 13.6969 5.99726 13.6969 5.58649 13.6264V1.88565C5.58649 1.54286 5.86432 1.26489 6.20711 1.26489C6.5499 1.26489 6.82787 1.54286 6.82787 1.88565Z" fill="#805333"/>
</g>
</g>
</svg>
