<svg width="18" height="18" viewBox="0 0 18 18" fill="none" xmlns="http://www.w3.org/2000/svg">
<path d="M9 18C13.9706 18 18 13.9706 18 9C18 4.02944 13.9706 0 9 0C4.02944 0 0 4.02944 0 9C0 13.9706 4.02944 18 9 18Z" fill="#1E2B3D"/>
<path d="M1.20123 9C1.20123 13.306 4.69405 16.7988 8.98152 16.8172V1.20123C4.69405 1.20123 1.20123 4.69405 1.20123 9Z" fill="#FDFCFA"/>
<path d="M16.8173 9C16.8173 4.69405 13.306 1.20123 9.00005 1.20123H8.98157V16.8172H9.00005C13.306 16.8172 16.8173 13.306 16.8173 9Z" fill="#DDDDDD"/>
<path d="M8.98149 4.67556C8.83365 4.67556 8.70428 4.56468 8.70428 4.39835V2.58727C8.70428 2.43942 8.81517 2.31006 8.98149 2.31006C9.12934 2.31006 9.2587 2.42094 9.2587 2.58727V4.39835C9.2587 4.56468 9.12934 4.67556 8.98149 4.67556Z" fill="#111111"/>
<path d="M6.09858 5.54414C6.00618 5.54414 5.93226 5.50718 5.87681 5.43326L4.82343 3.95482C4.73103 3.82545 4.76799 3.65913 4.87887 3.58521C5.00823 3.49281 5.17456 3.52977 5.24848 3.64065L6.30187 5.11909C6.39427 5.24845 6.35731 5.41478 6.24642 5.4887C6.19098 5.52566 6.13554 5.54414 6.09858 5.54414Z" fill="#111111"/>
<path d="M4.34289 7.83572C4.30593 7.83572 4.26897 7.83572 4.23201 7.81724L2.56876 7.0965C2.4394 7.04106 2.36548 6.87473 2.4394 6.74537C2.49484 6.61601 2.66117 6.54208 2.79053 6.61601L4.45378 7.33675C4.58314 7.39219 4.65706 7.55851 4.58314 7.68788C4.54618 7.78028 4.43529 7.83572 4.34289 7.83572Z" fill="#111111"/>
<path d="M2.31006 10.9589C2.1807 10.9589 2.06982 10.8665 2.05133 10.7372C2.01437 10.5893 2.12526 10.46 2.25462 10.423L4.02875 10.0719C4.17659 10.0349 4.30596 10.1458 4.34292 10.2752C4.37988 10.423 4.26899 10.5524 4.13963 10.5893L2.3655 10.9405C2.34702 10.9589 2.32854 10.9589 2.31006 10.9589Z" fill="#111111"/>
<path d="M11.7721 5.54415C11.7166 5.54415 11.6612 5.52567 11.6242 5.48871C11.4949 5.3963 11.4764 5.22998 11.5688 5.1191L12.6222 3.64066C12.7146 3.5113 12.8809 3.49281 12.9918 3.58522C13.1212 3.67762 13.1396 3.84394 13.0472 3.95483L11.9939 5.43326C11.9384 5.48871 11.8645 5.54415 11.7721 5.54415Z" fill="#111111"/>
<path d="M13.5278 7.83571C13.4169 7.83571 13.3245 7.78027 13.2875 7.66939C13.2321 7.54002 13.2875 7.3737 13.4169 7.31826L15.0801 6.59752C15.2095 6.54208 15.3758 6.59752 15.4313 6.72688C15.4867 6.85625 15.4313 7.02257 15.3019 7.07801L13.6387 7.79875C13.6017 7.83571 13.5647 7.83571 13.5278 7.83571Z" fill="#111111"/>
<path d="M15.5421 10.9589C15.5236 10.9589 15.5051 10.9589 15.4867 10.9589L13.7125 10.6078C13.5647 10.5708 13.4723 10.4415 13.5092 10.2936C13.5462 10.1458 13.6756 10.0534 13.8234 10.0903L15.5975 10.4415C15.7454 10.4784 15.8378 10.6078 15.8008 10.7556C15.7823 10.8665 15.6715 10.9589 15.5421 10.9589Z" fill="#111111"/>
<path d="M3.97333 15.0801L5.39633 13.7125C5.72897 13.3984 6.17251 13.2136 6.61604 13.2136H11.384C11.8645 13.2136 12.308 13.3984 12.6407 13.7495L14.0452 15.1725C14.0452 15.1725 12.1971 17.1129 8.87066 17.1129C5.52569 17.1129 3.97333 15.0801 3.97333 15.0801Z" fill="#1E2B3D"/>
<path d="M9.08848 10.5148C9.90492 10.5065 10.56 9.83792 10.5517 9.02148C10.5434 8.20505 9.87487 7.54992 9.05843 7.55822C8.24199 7.56652 7.58687 8.23509 7.59516 9.05153C7.60346 9.86797 8.27204 10.5231 9.08848 10.5148Z" fill="#1E2B3D"/>
<path d="M8.74124 8.50102L13.5462 5.65503L9.5359 9.55441C9.25869 9.83162 8.7782 9.79466 8.53796 9.48049C8.29771 9.16632 8.39011 8.70431 8.74124 8.50102Z" fill="#F63936"/>
<path d="M10.959 15.8932H7.20743C6.7639 15.8932 6.39429 15.5236 6.39429 15.0801C6.39429 14.6365 6.7639 14.2669 7.20743 14.2669H10.959C11.4025 14.2669 11.7721 14.6365 11.7721 15.0801C11.7721 15.5236 11.4025 15.8932 10.959 15.8932Z" fill="#FFBD06"/>
</svg>
