<svg width="18" height="18" viewBox="0 0 18 18" fill="none" xmlns="http://www.w3.org/2000/svg">
<g id="51 - Alpine skiing" clip-path="url(#clip0)">
<g id="Group">
<path id="Vector" d="M8.19642 13.432C8.04641 13.432 7.9248 13.3104 7.9248 13.1604V10.6497C7.9248 10.4997 8.04641 10.3781 8.19642 10.3781C8.34643 10.3781 8.46804 10.4997 8.46804 10.6497V13.1604C8.46804 13.3104 8.34643 13.432 8.19642 13.432Z" fill="#C8D8DB"/>
<path id="Vector_2" d="M7.23138 9.76248H4.52687C4.37686 9.76248 4.25525 9.64087 4.25525 9.49086C4.25525 9.34085 4.37686 9.21924 4.52687 9.21924H7.23138C7.38139 9.21924 7.503 9.34085 7.503 9.49086C7.503 9.64087 7.38139 9.76248 7.23138 9.76248Z" fill="#C8D8DB"/>
<path id="Vector_3" d="M9.80354 13.432C9.65353 13.432 9.53192 13.3104 9.53192 13.1604V10.6497C9.53192 10.4997 9.65353 10.3781 9.80354 10.3781C9.95355 10.3781 10.0752 10.4997 10.0752 10.6497V13.1604C10.0752 13.3104 9.95355 13.432 9.80354 13.432Z" fill="#C8D8DB"/>
<path id="Vector_4" d="M13.4731 9.76248H11.1424C10.9924 9.76248 10.8708 9.64087 10.8708 9.49086C10.8708 9.34085 10.9924 9.21924 11.1424 9.21924H13.4731C13.6231 9.21924 13.7447 9.34085 13.7447 9.49086C13.7447 9.64087 13.6231 9.76248 13.4731 9.76248Z" fill="#C8D8DB"/>
<path id="Vector_5" d="M17.3897 1.52596C17.3897 1.8385 17.2705 2.15069 17.0322 2.38901L15.498 3.92316L15.0606 4.36065L10.942 8.47963L10.7265 8.69514L9.2155 10.2057L4.27368 15.1475L3.83581 15.5854L3.3523 16.0689L2.91482 16.5064L1.87142 17.5498C1.67802 17.7432 1.364 17.7432 1.17061 17.5498L0.14531 16.5245C-0.0484366 16.3308 -0.0484366 16.0171 0.14531 15.8234L1.18836 14.7803L1.6179 14.3508L2.10974 13.8593L2.53928 13.4294L7.27392 8.69514L7.48943 8.47963L8.99999 6.96865L9.2155 6.75318L13.3341 2.63455L13.7636 2.20501L15.3057 0.662869C15.7824 0.185904 16.5556 0.185904 17.0322 0.662869C17.2705 0.901229 17.3897 1.21342 17.3897 1.52596Z" fill="#36CC8F"/>
<path id="Vector_6" d="M10.9419 8.47963L10.7264 8.6951L9.21548 10.2057L7.48938 8.47963L8.99998 6.96865L9.21548 6.75317L10.9419 8.47963Z" fill="#00C279"/>
<path id="Vector_7" d="M17.032 2.38924L1.87165 17.5496C1.67798 17.7432 1.36403 17.743 1.1706 17.5496L0.675812 17.0548C0.869488 17.2484 1.18343 17.2487 1.37715 17.055L16.5375 1.89473C16.776 1.65619 16.8951 1.34397 16.8951 1.03143C16.8951 0.831466 16.8463 0.631778 16.7486 0.451813C16.8506 0.506376 16.946 0.576653 17.032 0.662645C17.2705 0.901181 17.3897 1.2134 17.3897 1.52594C17.3897 1.83848 17.2705 2.1507 17.032 2.38924Z" fill="#00C279"/>
<path id="Vector_8" d="M9.04385 10.3774L7.31766 8.65118L4.80369 11.1652L6.52987 12.8913L9.04385 10.3774Z" fill="#11B3C2"/>
<path id="Vector_9" d="M14.3161 5.1049L12.5899 3.37872L11.6112 4.35741L13.3374 6.0836L14.3161 5.1049Z" fill="#F9653D"/>
<path id="Vector_10" d="M13.3377 6.08334L11.6115 4.35715L10.6328 5.33585L12.359 7.06204L13.3377 6.08334Z" fill="#F4DC64"/>
<path id="Vector_11" d="M12.3589 7.06206L10.6327 5.33588L9.65402 6.31458L11.3802 8.04076L12.3589 7.06206Z" fill="#11B3C2"/>
<path id="Vector_12" d="M14.3164 5.10482L13.8296 4.61795L12.8509 5.59665L13.3377 6.08351L14.3164 5.10482Z" fill="#EF5330"/>
<path id="Vector_13" d="M13.3375 6.08357L12.8507 5.59671L11.872 6.57541L12.3588 7.06227L13.3375 6.08357Z" fill="#E5C74C"/>
<path id="Vector_14" d="M12.3592 7.06196L11.8723 6.5751L10.8936 7.5538L11.3805 8.04066L12.3592 7.06196Z" fill="#1193AD"/>
<path id="Vector_15" d="M6.77192 11.3429L6.35197 10.923C6.258 10.829 6.258 10.6766 6.35197 10.5827L8.06856 8.8661C8.16253 8.77213 8.31486 8.77213 8.40884 8.8661L8.82878 9.28604C8.92275 9.38002 8.92275 9.53235 8.82878 9.62632L7.1122 11.3429C7.01822 11.4369 6.86589 11.4369 6.77192 11.3429Z" fill="#0B647D"/>
<path id="Vector_16" d="M15.498 3.92317L15.0605 4.36066C15.0181 4.319 14.9895 4.26289 14.9826 4.19912L14.9069 3.52513L14.8396 2.92466L13.484 2.71063C13.425 2.70121 13.3732 2.67368 13.334 2.63459L13.7636 2.20505L15.129 2.42017C15.2495 2.43937 15.343 2.53679 15.3564 2.6585L15.3984 3.03368L15.498 3.92317Z" fill="#F9653D"/>
<path id="Vector_17" d="M4.27365 15.1475L3.83578 15.5854C3.79377 15.5437 3.76515 15.4872 3.75791 15.4235L3.61486 14.1494L2.25927 13.9354C2.20024 13.9259 2.14881 13.8984 2.10968 13.8593L2.53922 13.4294L3.90423 13.6449C4.02482 13.6641 4.11826 13.7616 4.13169 13.8833L4.27365 15.1475Z" fill="#11B3C2"/>
<path id="Vector_18" d="M3.3523 16.0689L2.91482 16.5064C2.87281 16.4647 2.84384 16.4086 2.8366 16.3448L2.6939 15.0707L1.33791 14.8567C1.27889 14.8473 1.22745 14.8198 1.18832 14.7803L1.61786 14.3507L2.98288 14.5662C3.10385 14.5854 3.19691 14.6829 3.21069 14.8042L3.3523 16.0689Z" fill="#11B3C2"/>
<path id="Vector_19" d="M8.67894 13.104C8.41287 12.838 7.97992 12.838 7.71389 13.104C7.44783 13.3701 7.44783 13.803 7.71389 14.0691C7.84696 14.2021 8.02169 14.2686 8.19641 14.2686C8.37118 14.2686 8.54594 14.2021 8.67894 14.0691H8.67897C8.945 13.803 8.945 13.37 8.67894 13.104Z" fill="#36CC8F"/>
<path id="Vector_20" d="M4.58329 9.00833C4.3172 8.7423 3.88428 8.7423 3.61825 9.00833C3.35222 9.27443 3.35222 9.70735 3.61825 9.97339C3.75128 10.1064 3.92601 10.1729 4.10077 10.1729C4.2755 10.1729 4.4503 10.1064 4.58333 9.97339C4.84936 9.70735 4.84936 9.27447 4.58329 9.00833Z" fill="#36CC8F"/>
<path id="Vector_21" d="M17.8547 16.5245L16.8294 17.5498C16.636 17.7432 16.322 17.7432 16.1286 17.5498L0.96779 2.389C0.729466 2.15068 0.610321 1.83849 0.610321 1.52595C0.610321 1.21341 0.729466 0.901224 0.96779 0.6629C1.4444 0.185934 2.21763 0.185934 2.69425 0.6629L16.8117 14.7803L17.8547 15.8234C18.0485 16.0171 18.0485 16.3307 17.8547 16.5245Z" fill="#36CC8F"/>
<path id="Vector_22" d="M0.968001 2.38924L16.1283 17.5496C16.322 17.7432 16.6359 17.743 16.8293 17.5496L17.3241 17.0548C17.1305 17.2484 16.8165 17.2487 16.6228 17.055L1.46247 1.89473C1.22394 1.65619 1.10483 1.34397 1.10483 1.03143C1.10483 0.831466 1.15366 0.631778 1.25136 0.451813C1.14937 0.506376 1.05396 0.576653 0.967966 0.662645C0.729431 0.901181 0.610321 1.2134 0.610321 1.52594C0.610321 1.83848 0.729466 2.1507 0.968001 2.38924Z" fill="#00C279"/>
<path id="Vector_23" d="M11.47 12.8911L13.1962 11.1649L10.6822 8.65097L8.95605 10.3772L11.47 12.8911Z" fill="#11B3C2"/>
<path id="Vector_24" d="M4.66243 6.08363L6.38861 4.35744L5.40991 3.37875L3.68373 5.10493L4.66243 6.08363Z" fill="#F9653D"/>
<path id="Vector_25" d="M5.64127 7.06236L7.36746 5.33618L6.38876 4.35748L4.66257 6.08367L5.64127 7.06236Z" fill="#F4DC64"/>
<path id="Vector_26" d="M6.61958 8.04077L8.34576 6.3146L7.36707 5.33591L5.64089 7.06208L6.61958 8.04077Z" fill="#11B3C2"/>
<path id="Vector_27" d="M4.66243 6.0838L5.14929 5.59694L4.17059 4.61823L3.68373 5.1051L4.66243 6.0838Z" fill="#EF5330"/>
<path id="Vector_28" d="M5.64091 7.06193L6.12778 6.57506L5.14907 5.59637L4.66221 6.08323L5.64091 7.06193Z" fill="#E5C74C"/>
<path id="Vector_29" d="M6.61946 8.04094L7.10632 7.55408L6.12763 6.57538L5.64077 7.06224L6.61946 8.04094Z" fill="#1193AD"/>
<path id="Vector_30" d="M11.228 11.3429L11.648 10.923C11.7419 10.829 11.7419 10.6766 11.648 10.5827L9.9314 8.8661C9.83743 8.77213 9.6851 8.77213 9.59113 8.8661L9.17119 9.28604C9.07722 9.38002 9.07722 9.53235 9.17119 9.62632L10.8878 11.3429C10.9817 11.4369 11.1341 11.4369 11.228 11.3429Z" fill="#0B647D"/>
<path id="Vector_31" d="M4.66586 2.63456C4.62674 2.67368 4.57495 2.70121 4.51592 2.7106L3.16033 2.92467L3.09297 3.52514L3.01728 4.19912C3.01039 4.26286 2.98177 4.319 2.93941 4.36066L2.50192 3.92318L2.60152 3.03369L2.64353 2.65846C2.65693 2.53679 2.75037 2.43933 2.87096 2.42014L4.23632 2.20502L4.66586 2.63456Z" fill="#F9653D"/>
<path id="Vector_32" d="M15.8902 13.8589C15.8515 13.8984 15.7997 13.9259 15.7406 13.9354L14.3851 14.1494L14.242 15.4235C14.2348 15.4872 14.2061 15.5434 14.1641 15.5854L13.7263 15.1475L13.8682 13.8832C13.8816 13.7615 13.9751 13.6641 14.0956 13.6449L15.4607 13.4294L15.8902 13.8589Z" fill="#11B3C2"/>
<path id="Vector_33" d="M16.8116 14.7803C16.7725 14.8198 16.7211 14.8473 16.662 14.8567L15.3061 15.0708L15.1634 16.3449C15.1561 16.4086 15.1271 16.4648 15.0851 16.5064L14.6476 16.0689L14.7893 14.8042C14.803 14.6829 14.8961 14.5855 15.0171 14.5663L16.3821 14.3508L16.8116 14.7803Z" fill="#11B3C2"/>
<path id="Vector_34" d="M10.2861 13.104C10.02 12.838 9.58707 12.838 9.32104 13.104C9.05498 13.3701 9.05498 13.803 9.32101 14.069H9.32104C9.45407 14.2021 9.6288 14.2686 9.80356 14.2686C9.97832 14.2686 10.1531 14.2021 10.2861 14.069C10.5521 13.803 10.5521 13.3701 10.2861 13.104Z" fill="#36CC8F"/>
<path id="Vector_35" d="M14.3818 9.00834C14.1157 8.74228 13.6828 8.74231 13.4167 9.00834C13.1507 9.27444 13.1507 9.70735 13.4167 9.97341C13.5498 10.1065 13.7245 10.1729 13.8993 10.1729C14.074 10.1729 14.2488 10.1064 14.3818 9.97338C14.6478 9.70732 14.6478 9.27444 14.3818 9.00834Z" fill="#36CC8F"/>
<path id="Vector_36" d="M15.498 3.92315L15.0605 4.36064C15.0182 4.31898 14.9896 4.26287 14.9827 4.19909L14.907 3.52511L15.3984 3.03366L15.498 3.92315Z" fill="#EF5330"/>
<path id="Vector_37" d="M3.09297 3.52511L3.01728 4.19909C3.01039 4.26283 2.98177 4.31898 2.93941 4.36064L2.50192 3.92315L2.60152 3.03366L3.09297 3.52511Z" fill="#EF5330"/>
</g>
</g>
<defs>
<clipPath id="clip0">
<rect width="18" height="18" fill="white"/>
</clipPath>
</defs>
</svg>
