<svg width="18" height="18" viewBox="0 0 18 18" fill="none" xmlns="http://www.w3.org/2000/svg">
<g id="20 - Specials">
<path id="Vector" d="M8.98404 14.2937C12.9311 14.2937 16.1309 11.0939 16.1309 7.14685C16.1309 3.19975 12.9311 0 8.98404 0C5.03694 0 1.83719 3.19975 1.83719 7.14685C1.83719 11.0939 5.03694 14.2937 8.98404 14.2937Z" fill="#FFD15C"/>
<path id="Vector_2" d="M3.19428 11.3279L0.735229 15.5905L3.60531 15.4382L4.90925 18L7.18405 14.0563C5.55413 13.6346 4.15452 12.6531 3.19428 11.3279Z" fill="#40596B"/>
<path id="Vector_3" d="M14.788 11.3067C13.8348 12.6354 12.4352 13.6205 10.8088 14.0492L13.0907 18L14.3947 15.4382L17.2647 15.5905L14.788 11.3067Z" fill="#40596B"/>
<path id="Vector_4" d="M8.98406 12.3272C11.8451 12.3272 14.1644 10.0079 14.1644 7.14686C14.1644 4.28585 11.8451 1.96655 8.98406 1.96655C6.12305 1.96655 3.80374 4.28585 3.80374 7.14686C3.80374 10.0079 6.12305 12.3272 8.98406 12.3272Z" fill="#F8B64C"/>
<path id="Vector_5" d="M12.5344 6.58701C12.6939 6.43111 12.6053 6.15827 12.3856 6.12638L10.3411 5.82874C10.2525 5.81457 10.1781 5.76142 10.1392 5.67992L9.22498 3.82677C9.12576 3.6248 8.83876 3.6248 8.73954 3.82677L7.82891 5.67992C7.78994 5.75788 7.71199 5.81457 7.62695 5.82874L5.58246 6.12638C5.36277 6.15827 5.27419 6.43111 5.43364 6.58701L6.9112 8.02914C6.97498 8.09292 7.00332 8.1815 6.98915 8.26654L6.64191 10.3004C6.60293 10.5201 6.83679 10.6902 7.03521 10.5839L8.86356 9.62363C8.94151 9.58111 9.03718 9.58111 9.11513 9.62363L10.9435 10.5839C11.1419 10.6866 11.3722 10.5201 11.3368 10.3004L10.986 8.26654C10.9718 8.17796 11.0002 8.08938 11.064 8.02914L12.5344 6.58701Z" fill="white"/>
</g>
</svg>
