<svg
  xmlns="http://www.w3.org/2000/svg"
  width="20"
  height="21"
  viewBox="0 0 20 21"
  fill="none"
>
  <g clip-path="url(#a)">
    <path
      fill="#4DA533"
      stroke="#fff"
      stroke-width=".5"
      d="M10.487 14.25c3.722 0 6.738-3.023 6.738-6.75S14.209.75 10.487.75C6.766.75 3.75 3.773 3.75 7.5s3.016 6.75 6.737 6.75Z"
    />
    <path
      fill="#61BF45"
      d="M16.975 7.5a6.7 6.7 0 0 0-.014-.424L14.02 4.129 6.936 10.85l3.13 3.136c.139.009.28.014.421.014 3.583 0 6.488-2.91 6.488-6.5Z"
    />
    <path
      fill="#fff"
      d="M10.487 12.388A4.883 4.883 0 0 0 15.366 7.5c0-2.7-2.184-4.888-4.879-4.888A4.883 4.883 0 0 0 5.61 7.5c0 2.7 2.184 4.888 4.878 4.888Z"
    />
    <path
      fill="#F0F0F0"
      d="M10.487 2.612h-.01v9.776h.01A4.883 4.883 0 0 0 15.366 7.5c0-2.7-2.184-4.888-4.879-4.888Z"
    />
    <path
      fill="#555A66"
      d="m10.487 5.487-1.883 1.37.72 2.22h2.328l.719-2.22-1.884-1.37Z"
    />
    <path
      fill="#414952"
      d="m12.371 6.858-1.884-1.371-.01.007v3.583h1.175l.719-2.22Z"
    />
    <path
      fill="#555A66"
      d="m8.716 2.945 1.771 1.289 1.771-1.29a4.857 4.857 0 0 0-1.77-.332c-.625 0-1.223.118-1.772.333Z"
    />
    <path
      fill="#414952"
      d="M12.258 2.945a4.857 4.857 0 0 0-1.77-.333h-.011v1.614l.01.008 1.771-1.29ZM13.57 6.453l1.789 1.302a4.874 4.874 0 0 0-1.116-3.374l-.673 2.072ZM11.724 12.229a4.887 4.887 0 0 0 2.878-2.103h-2.196l-.682 2.103Z"
    />
    <path
      fill="#555A66"
      d="M6.732 4.38a4.874 4.874 0 0 0-1.116 3.375l1.788-1.302-.672-2.073ZM8.568 10.126H6.372a4.887 4.887 0 0 0 2.878 2.103l-.682-2.103Z"
    />
  </g>
  <path
    fill="#4DA533"
    d="M18.989 14.7h.003l-.003-.013h.01l-.003-.014h.01l-.003-.014h.01l-.003-.014h.01l-.003-.013h.01l-.004-.014h.01l-.003-.014h.014l-.003-.014h.013l-.003-.013h.014l-.004-.014h.014l-.003-.014h.013l-.003-.014h.014l-.004-.013h.014l-.004-.014h.014l-.003-.014h.014l-.004-.014h.014l-.004-.013h.014l-.003-.014h.014l-.004-.014h.014l-.004-.014h.014l-.003-.013h.013l-.003-.014h.014l-.004-.014h.014l-.003-.014h.013l-.003-.013h.014l-.004-.014h.014l-.003-.014h.013l-.003-.014h.014l-.004-.013h.014l-.004-.014h.014l-.003-.014h.014l-.004-.014h.014l-.003-.014h.013l-.003-.013h.014l-.004-.014h.014l-.004-.014h.014l-.003-.014h.014l-.004-.013h.014l-.004-.014h.014l-.003-.014h.014l-.004-.014h.014l-.004-.013h.014l-.003-.014h.013l-.003-.014h.014l-.004-.014h.014l-.003-.013h.013l-.003-.014h.014l-.004-.014h.014l-.003-.014h.013l-.003-.013h.014l-.004-.014h.014l-.004-.014h.014l-.003-.014h.014l-.004-.013h.014l-.004-.014h.014l-.003-.014h.013l-.722-2.624H2.012l-.045.196-.158-.093-.375 1.661-.186.791-.234.99.01.008v.007l.008.003v.007l.01.007v.007l.01.006v.007l.01.007v.007l.01.007v.007l.011.007v.007l.01.006v.007l.01.007v.007l.011.007v.007l.01.007V15l.01.007v.006l.011.007v.007l.01.007v.007l.01.007v.007l.008.003L0 18.916l.825 1.145 1.871-.667c.24-.086.485-.165.729-.24.203-.062.41-.124.612-.183.244-.068.492-.134.736-.196l.258-.065.261-.058a26.071 26.071 0 0 1 1.365-.265c.248-.041.5-.076.75-.107l.292-.038.293-.03c.25-.025.502-.045.75-.063l.952-.065.956.017a19.031 19.031 0 0 1 1.379.065c.25.021.502.045.75.073l.264.03.262.035c.247.035.502.073.746.114l.313.051.31.062c.247.048.498.103.742.158l.598.138.592.172c.244.072.492.148.732.223l1.823.592-.004-.017.014.003-.003-.017.014.003-.004-.017.014.004-.004-.018.014.004-.003-.017.013.003-.003-.017.014.003-.004-.017.014.004-.003-.018.014.004-.004-.017.014.003-.004-.017.014.003-.003-.017.013.004-.003-.018.014.004-.004-.017.014.003-.003-.017.013.003-.003-.017.014.004-.004-.018.014.004-.003-.017.013.003-.003-.017.014.003-.004-.017.014.004-.003-.018.013.004-.003-.017.014.003-.004-.017.014.003-.004-.017.014.003-.003-.017.014.004-.004-.017.014.003-.004-.017.014.003-.003-.017.014.003-.004-.017.014.004-.004-.017.014.003-.003-.017.013.003-.003-.017.014.003-.004-.017.014.004-.003-.017.013.003-.003-.017.014.003-.004-.017.014.003-.003-.017.013.004-.003-.017.014.003-.004-.017.014.003-.004-.017.014.003-.003-.017.014.004-.004-.017.014.003-.003-.017.013.003-.003-.017.014.003-.004-.017.014.004-.004-.017.014.003-.003-.017.014.003-.004-.017.014.003-.004-.017.014.004-.003-.017.013.003-.003-.017.014.003-.004-.017.014.003-.003-.017.013.004-.003-.018.014.004-.004-.017.014.003-.003-.017.013.003-.003-.017.014.004-.004-.018.014.004-.003-.017.013.003-.003-.017.014.003-.004-.017.014.004-.004-.018.014.004-.003-.017.014.003-.004-.017.014.003-.004-.017.014.004-.003-.018.013.004-.003-.017.014.003-.004-.017.014.003-.003-.017.013.004-.003-.018.014.004-.004-.017.014.003-.003-.017.013.003-.003-.017.014.003-.062.104.014.003-.004-.017.014.003-.004-.017.014.004-.003-.018.014.004-.004-.017.014.003-.004-.017.014.003-.003-.017.014.004-.004-.018.014.004-.004-.017.014.003-.003-.017.013.003-.003-.017.014.004-.004-.018.014.004-.003-.017.013.003-.003-.017.014.003-.004-.017.014.004-1.011-4.038Z"
  />
  <path
    fill="#fff"
    d="m18.858 13.879.692.037-.802-3.277H2.008l-.185.764-.162-.093-.378 1.554-.19.78-.237.977.169.09L0 18.916l2.036-.643c.261-.082.53-.165.794-.237.22-.062.444-.124.667-.179.265-.069.537-.134.805-.192l.279-.062.285-.059c.268-.055.54-.106.812-.151.223-.038.45-.076.677-.107a33.4 33.4 0 0 1 .815-.106l.32-.038.32-.028c.271-.024.546-.044.818-.062l1.039-.061 1.042.017c.271.003.55.014.822.024.226.01.457.024.684.041.271.02.547.041.818.069l.29.027.284.035c.272.034.547.072.816.113l.34.052.337.062c.268.048.543.1.808.158l.653.138.647.168c.265.069.536.144.798.224l1.987.584-1.134-4.824Z"
  />
  <path
    fill="#61BF45"
    d="M9.374 12.458c-.182 0-.368.004-.55.004l-.052.756c.186.08.372.159.56.241l.042-1ZM11.448 12.462l.14 2.747c.207.007.42.02.627.031l-.22-2.775-.547-.003ZM14.072 12.507l.127.804c.21.103.416.21.615.313l-.196-1.104c-.182-.003-.364-.01-.546-.013Z"
  />
  <path
    fill="#61BF45"
    d="m18.418 13.51.688.038-.626-2.565H2.276l-.23.946-.162-.093-.457 1.888-.175.722.165.09-.939 3.871 1.455-.46a30.968 30.968 0 0 1 1.478-.423c.268-.07.544-.134.815-.196l.282-.062.29-.059a31.847 31.847 0 0 1 1.509-.265c.275-.04.55-.075.825-.106l.323-.038.324-.03c.275-.025.553-.046.828-.063l.753-.044.104-1.53c.113.044.226.092.343.14l.052.02.024 1.356.832.014a23.204 23.204 0 0 1 1.523.065c.276.02.554.044.83.072l.292.031.289.034c.275.035.553.073.825.114l.344.052.34.061c.272.049.55.104.819.159l.808.168.003.007.506.134c.268.072.543.148.808.224l1.42.416-1.104-4.687Zm-14.886-.897-.227.97c.21.11.43.216.656.323l.025.01-.183.832-.038-.013c-.23-.093-.453-.19-.663-.282l-.382 1.64c.2-.048.406-.096.605-.14l.217-.977.038.013c.227.086.46.169.718.255l.028.01-.261 1.262-.021.004a24.813 24.813 0 0 0-1.534.392c-.275.079-.553.161-.828.247l-.059.017.73-3.002.113-.017c-.024-.014-.049-.024-.076-.038-.055-.03-.114-.058-.169-.09l-.02-.01.227-.921.041.024c.041.024.083.048.124.069l.333-1.383h2.112l-.31 1.507-.027.003-.757.062-.048.003.176-.794-.54.024Zm3.885.557H7.39c-.255.01-.509.02-.763.034l-.042.004.107-.705c-.182.003-.365.01-.547.014l-.14.825c.38.172.807.354 1.299.554l.024.01-.261 2.108-.028.003c-.282.031-.57.07-.85.11a23.165 23.165 0 0 0-1.554.268l-.051.011.358-1.847.024-.003c.264-.034.533-.065.797-.096l.045-.004-.182 1.07c.206-.031.412-.059.619-.086l.158-1.056.124-.01c-.031-.01-.059-.024-.09-.035a29.169 29.169 0 0 1-1.324-.546l-.024-.01.386-1.975h2.111l-.169 1.362Zm2.755 1.355-.048-.02-.829-.338c-.193-.079-.385-.154-.57-.233l-.135 1.943-.03.003c-.283.017-.572.038-.854.065l-.041.004.234-2.322.079-.003-.052-.02-.189-.083-.024-.01.08-.723s.137.059.182.08l.106-1.063h2.108l-.017 2.72Zm2.981 1.451a35.47 35.47 0 0 0-.853-.072 25.347 25.347 0 0 0-.711-.041c-.286-.014-.571-.02-.857-.028h-.034l-.072-4.027h2.108l.46 4.172-.04-.004Zm2.999.464a33.362 33.362 0 0 0-.846-.165l-.024-.003-.32-1.805.11.013c-.034-.017-.069-.037-.103-.055-.21-.113-.43-.227-.65-.34l.327 2.08-.048-.007a24.012 24.012 0 0 0-.85-.117l-.027-.003-.55-4.23h2.111l.389 1.957-.024.01c-.09.038-.18.08-.272.117.117.066.234.128.35.193l.014.007.468 2.359-.055-.01Zm2.187.55a22.939 22.939 0 0 0-.832-.23l-.02-.007-.936-4.16-.647-.028h-.027l-.158-.757h2.115l.21.857-.045-.004-.633-.03 1.035 4.377-.062-.017Z"
  />
  <defs>
    <clipPath id="a"><path fill="#fff" d="M3 0h15v15H3z" /></clipPath>
  </defs>
</svg>
