<svg width="18" height="18" viewBox="0 0 18 18" fill="none" xmlns="http://www.w3.org/2000/svg">
<g id="28 - Biathlon">
<path id="Vector" d="M1.21989 15.5594C1.08009 15.5597 0.958002 15.4651 0.923532 15.3297C0.889063 15.1942 0.950861 15.0527 1.07363 14.9861L7.01641 11.7558C7.11227 11.7037 7.22859 11.7068 7.32156 11.7638C7.41453 11.8207 7.47001 11.9229 7.46726 12.032C7.46438 12.1409 7.40354 12.2402 7.30783 12.2922L1.36573 15.5225C1.32096 15.5468 1.2707 15.5594 1.21989 15.5594Z" fill="#394F63"/>
<path id="Vector_2" d="M9.02362 11.3187C8.88368 11.3192 8.76132 11.2245 8.72671 11.0889C8.69224 10.9532 8.75432 10.8115 8.8775 10.745L11.5955 9.26793C11.7436 9.18746 11.9288 9.24225 12.0093 9.39029C12.0898 9.53847 12.035 9.72373 11.8868 9.8042L9.16877 11.2815C9.12428 11.3058 9.07429 11.3185 9.02362 11.3187Z" fill="#394F63"/>
<path id="Vector_3" d="M13.5953 8.52045L12.85 7.88764C12.7636 7.81444 12.6906 7.72669 12.634 7.62863L11.7632 6.12062C11.5378 5.72992 11.2028 5.41406 10.7996 5.21205L9.54136 4.58295C8.75185 4.18826 7.79137 4.48696 7.3651 5.25998L5.5389 8.56989C5.0853 9.39221 5.27399 10.4205 5.99016 11.0282L8.66396 13.2962C8.90635 13.5019 8.96718 13.8516 8.80816 14.1269L7.63084 16.1658C7.35206 16.627 7.47799 17.2253 7.91923 17.5347C8.14623 17.6828 8.42405 17.7308 8.68758 17.6677C8.95112 17.6046 9.17716 17.436 9.31257 17.2013L10.9295 14.4009C11.3258 13.7125 11.1735 12.8392 10.5676 12.3254L8.48392 10.5559C8.22066 10.3326 8.1748 9.94373 8.379 9.66536L10.142 7.26128L11.0671 8.86363C11.1426 8.99437 11.24 9.1111 11.3551 9.20902L12.3618 10.0632C12.5684 10.2386 12.8379 10.3214 13.1074 10.292C13.3768 10.2627 13.6222 10.1239 13.7863 9.9083C14.0983 9.46761 14.0147 8.86048 13.5953 8.52045Z" fill="#668892"/>
<path id="Vector_4" d="M12.8069 2.34613C12.763 2.37579 12.7146 2.39845 12.6635 2.41328C12.6043 2.43169 12.5426 2.44102 12.4805 2.44061H10.9826C10.6419 2.44418 10.3667 2.71939 10.3633 3.05997C10.3638 3.22202 10.2997 3.37747 10.1852 3.49214C10.0706 3.60667 9.91503 3.67081 9.75311 3.67012H9.00865C8.95193 3.66971 8.89535 3.66161 8.84083 3.64581C8.61946 3.58429 8.45233 3.40192 8.41072 3.17587C8.21543 2.17529 8.08731 0 10.6683 0C12.4287 0 12.935 1.00374 13.0724 1.72678C13.1206 1.9682 13.0151 2.21443 12.8069 2.34613Z" fill="#943F51"/>
<path id="Vector_5" d="M3.90276 10.8052C3.87172 10.8051 3.84082 10.8002 3.8113 10.7909L2.6473 10.4229C2.57012 10.3986 2.50585 10.3445 2.46863 10.2726C2.43128 10.2008 2.424 10.1172 2.44845 10.04L2.53991 9.74927C2.56449 9.67223 2.55735 9.58846 2.52013 9.51663C2.48292 9.44481 2.41878 9.39056 2.3416 9.36612L1.75988 9.18306C1.43922 9.08089 1.26179 8.73853 1.36327 8.41759L1.54633 7.83545C1.64837 7.51451 1.99128 7.33694 2.31235 7.43884L2.89202 7.6219C2.9692 7.64648 3.05297 7.63921 3.12479 7.60185C3.19675 7.56464 3.25086 7.50023 3.27517 7.42305L4.19527 4.51428C4.35237 4.03857 4.86283 3.77751 5.34059 3.92857C5.81836 4.07977 6.0856 4.58693 5.94044 5.06648L4.19225 10.5932C4.15201 10.7191 4.03501 10.8048 3.90276 10.8052Z" fill="#5496CE"/>
<path id="Vector_6" d="M3.44271 12.2598C3.41167 12.2598 3.38077 12.2548 3.35111 12.2455L2.18725 11.8776C2.02671 11.8267 1.93786 11.6553 1.98867 11.4947L2.44845 10.04C2.49939 9.87946 2.67078 9.79061 2.83132 9.84142L3.99614 10.2093C4.15668 10.2603 4.24553 10.4317 4.19472 10.5922L3.73467 12.0465C3.69443 12.174 3.57619 12.2603 3.44271 12.2598Z" fill="#394F63"/>
<path id="Vector_7" d="M5.65054 5.27799C5.61951 5.27799 5.58861 5.27305 5.55908 5.26371C5.39854 5.21303 5.30942 5.04192 5.35982 4.88138L6.74011 0.5187C6.79092 0.358162 6.96231 0.269173 7.12299 0.319985L7.41371 0.411584C7.52193 0.440697 7.60542 0.526803 7.63138 0.635842C7.6572 0.744882 7.62108 0.859277 7.53745 0.933984C7.45381 1.00856 7.33598 1.03122 7.23065 0.993036L5.94168 5.06444C5.90172 5.19147 5.78389 5.27799 5.65054 5.27799Z" fill="#5496CE"/>
<path id="Vector_8" d="M13.599 8.83162C13.4593 8.83176 13.3374 8.737 13.3029 8.60173C13.2684 8.46633 13.3304 8.32488 13.4532 8.25827L15.1078 7.35891C15.256 7.27843 15.4414 7.33323 15.5219 7.48127C15.6025 7.62944 15.5477 7.8147 15.3995 7.89531L13.7444 8.79468C13.6998 8.81885 13.6498 8.83162 13.599 8.83162Z" fill="#394F63"/>
<path id="Vector_9" d="M3.05035 15.8644C2.93417 15.8651 2.82774 15.7996 2.77583 15.6957L1.86053 13.8651C1.78514 13.7144 1.84638 13.531 1.99717 13.4558C2.14796 13.3804 2.33129 13.4416 2.40655 13.5924L3.32185 15.4229C3.36895 15.5174 3.36415 15.6293 3.3088 15.7191C3.2536 15.809 3.15582 15.864 3.05035 15.8644Z" fill="#394F63"/>
<path id="Vector_10" d="M7.62933 16.1658C7.35055 16.627 7.47649 17.2253 7.91773 17.5347C8.14473 17.6826 8.42255 17.7307 8.68609 17.6675C8.94948 17.6045 9.17553 17.4358 9.31107 17.2013L9.67074 16.5807L7.90125 15.696L7.62933 16.1658Z" fill="#394F63"/>
<path id="Vector_11" d="M13.5953 8.52005L12.85 7.88765C12.7636 7.81445 12.6906 7.7267 12.634 7.62864L11.7632 6.12063C11.5378 5.72992 11.2028 5.41407 10.7996 5.21206L9.54135 4.58295C8.75185 4.18826 7.79137 4.48696 7.3651 5.25998L5.53889 8.5699C5.44867 8.73744 5.3833 8.91734 5.34485 9.1037L8.25444 10.0737C8.24895 9.92726 8.29289 9.7832 8.379 9.66483L10.142 7.26074L11.0671 8.8631C11.1426 8.9937 11.24 9.11056 11.3551 9.20834L12.3618 10.0627C12.5684 10.238 12.8379 10.3207 13.1074 10.2915C13.3768 10.2621 13.6222 10.1234 13.7863 9.90762C14.0978 9.46693 14.0143 8.86021 13.5953 8.52005Z" fill="#FF6C77"/>
<path id="Vector_12" d="M13.5953 8.52005L13.2902 8.26105L11.6705 9.47558L12.361 10.0614C12.5675 10.2368 12.8371 10.3195 13.1064 10.2902C13.3759 10.261 13.6214 10.1221 13.7854 9.90638C14.0963 9.46624 14.0132 8.86035 13.5953 8.52005Z" fill="#668892"/>
<path id="Vector_13" d="M12.8131 2.44061V2.74576C12.8118 3.93077 11.8533 4.89207 10.6683 4.89661C9.85816 4.92091 9.12387 4.42268 8.84702 3.66106C8.84386 3.65488 8.84386 3.65186 8.84084 3.64581C8.89536 3.66161 8.95193 3.66971 9.00865 3.67012H9.75311C9.91502 3.67081 10.0706 3.60667 10.1852 3.49214C10.2997 3.37747 10.3638 3.22202 10.3633 3.05997C10.3667 2.71939 10.6419 2.44418 10.9826 2.44061H12.4805C12.5425 2.44102 12.6043 2.43169 12.6635 2.41328C12.7146 2.39845 12.763 2.37579 12.8069 2.34613C12.8069 2.37964 12.8131 2.40408 12.8131 2.44061Z" fill="#FEDEBB"/>
<path id="Vector_14" d="M4.02443 12.4438C3.99339 12.4438 3.96249 12.4389 3.93297 12.4295L1.60551 11.6933C1.4973 11.6642 1.41366 11.5781 1.38785 11.469C1.36203 11.36 1.39801 11.2455 1.48164 11.1709C1.56528 11.0963 1.6831 11.0737 1.78857 11.1119L4.11809 11.8479C4.26132 11.8935 4.35004 12.0365 4.32724 12.1851C4.30444 12.3335 4.17686 12.4434 4.02663 12.4438H4.02443Z" fill="#445C71"/>
<path id="Vector_15" d="M15.2537 18H3.05035C2.88185 18 2.74521 17.8633 2.74521 17.6948C2.74521 17.5265 2.88185 17.3898 3.05035 17.3898H15.2537C15.9277 17.3898 16.4741 16.8434 16.4741 16.1695C16.4741 16.001 16.6106 15.8644 16.7791 15.8644C16.9476 15.8644 17.0843 16.001 17.0843 16.1695C17.0832 17.18 16.2643 17.999 15.2537 18Z" fill="#394F63"/>
</g>
</svg>
