<svg width="18" height="18" viewBox="0 0 18 18" fill="none" xmlns="http://www.w3.org/2000/svg">
<g id="13 - Rugby" clip-path="url(#clip0)">
<g id="Group">
<path id="Vector" d="M6.44993 6.44994C2.09357 10.8067 -0.227452 15.5496 1.11127 16.8887L16.8887 1.11128C15.5496 -0.227455 10.8067 2.09357 6.44993 6.44994Z" fill="#FFF2BE"/>
<path id="Vector_2" d="M11.5501 11.5501C15.9064 7.19328 18.2274 2.4504 16.8887 1.11127L1.11127 16.8887C2.45039 18.2275 7.19327 15.9064 11.5501 11.5501Z" fill="#F9DE70"/>
<path id="Vector_3" d="M6.45022 6.4496C10.807 2.09324 15.5499 -0.227778 16.889 1.11095C14.5581 -1.21996 8.9176 0.203422 4.56084 4.56022C0.204076 8.91702 -1.21931 14.5575 1.11157 16.8884C-0.227161 15.5493 2.09386 10.8064 6.45022 6.4496Z" fill="#5C9DCF"/>
<path id="Vector_4" d="M16.8887 1.11127C18.2274 2.4504 15.9064 7.19326 11.5501 11.5501C7.19327 15.9064 2.45039 18.2274 1.11127 16.8887C3.44254 19.2196 9.08268 17.7962 13.4394 13.4394C17.7962 9.08264 19.2196 3.44218 16.8887 1.11127Z" fill="#168FED"/>
</g>
</g>
<defs>
<clipPath id="clip0">
<rect width="18" height="18" fill="white"/>
</clipPath>
</defs>
</svg>
