<svg width="18" height="18" viewBox="0 0 18 18" fill="none" xmlns="http://www.w3.org/2000/svg">
<path d="M18 0H15.7662L14.8359 0.465082L13.9057 0H9.52734L9 0.263672L7.24219 3.84065L9 6.75792L14.8359 11.1445L14.3086 14.8359H12.1992L10.8322 13.2295L10.5503 12.0845L9.46512 11.6231L9 11.0765L7.94531 14.1314L9 18L9.93021 17.535L10.8604 18H18V10.8604L17.535 9.93021L18 9V0ZM14.8359 7.91016L10.0898 3.16406H13.2539L14.8359 4.74609V7.91016Z" fill="#D5011D"/>
<path d="M3.16406 4.21875L4.21875 3.16406L9 6.75792V0.263672L8.47266 0.527344H5.55757L4.50288 0H0V8.47266L0.527344 9.52734V12.4424L0 13.4971V18H9V11.0765L3.16406 4.21875ZM4.74609 14.8359L3.16406 13.2539V10.0898L7.91016 14.8359H4.74609Z" fill="#FF4B37"/>
</svg>
