<svg width="18" height="18" viewBox="0 0 18 18" fill="none" xmlns="http://www.w3.org/2000/svg">
<path d="M0.219513 2.06535V8.16779C0.219513 8.36535 0.285367 8.54096 0.395123 8.69462L5.88293 15.8068C6.05854 16.0263 6.3 16.158 6.58537 16.158H11.6122C11.7878 16.158 11.8976 15.9385 11.7878 15.8068L0.614635 1.93365C0.482928 1.75804 0.219513 1.86779 0.219513 2.06535Z" fill="#F15B6C"/>
<path d="M11.6122 16.3776H6.58537C6.2561 16.3776 5.92683 16.2239 5.70732 15.9605L0.219512 8.84829C0.0658537 8.65073 0 8.40926 0 8.1678V2.06536C0 1.8678 0.109756 1.71414 0.285366 1.64829C0.460976 1.58243 0.658537 1.64829 0.768293 1.77999L11.9415 15.6532C12.0512 15.7849 12.0732 15.9605 11.9854 16.1141C11.9415 16.2678 11.7878 16.3776 11.6122 16.3776ZM0.439024 2.06536V8.1678C0.439024 8.32146 0.482927 8.45317 0.570732 8.56292L6.05854 15.6751C6.19024 15.8288 6.38781 15.9385 6.58537 15.9385H11.6122L0.439024 2.06536Z" fill="#1F212B"/>
<path d="M10.5585 11.1093H15.3878C15.6512 11.1093 15.8927 10.9995 16.0683 10.78L17.5829 8.93609C17.7146 8.78243 17.7805 8.58487 17.7805 8.38731V2.06535C17.7805 1.86779 17.5171 1.75804 17.3854 1.93365L10.3829 10.7361C10.2732 10.8897 10.361 11.1093 10.5585 11.1093Z" fill="#F15B6C"/>
<path d="M15.3878 11.3288H10.5585C10.3829 11.3288 10.2293 11.241 10.1634 11.0873C10.0976 10.9337 10.1195 10.758 10.2073 10.6263L17.2098 1.80195C17.3195 1.64829 17.5171 1.60439 17.6927 1.67024C17.8902 1.71415 18 1.88976 18 2.06537V8.36537C18 8.62878 17.9122 8.87025 17.7585 9.06781L16.2439 10.9117C16.0244 11.1751 15.7171 11.3288 15.3878 11.3288ZM10.5585 10.8898H15.3878C15.5854 10.8898 15.7829 10.802 15.8927 10.6483L17.4073 8.80439C17.4951 8.69464 17.561 8.54098 17.561 8.38732V2.06537L10.5585 10.8898Z" fill="#1F212B"/>
</svg>
