<svg width="18" height="18" viewBox="0 0 18 18" fill="none" xmlns="http://www.w3.org/2000/svg">
<g id="7 - Volleyball" clip-path="url(#clip0)">
<path id="Vector" d="M9.00052 17.999C13.9708 17.999 18 13.9698 18 8.99956C18 4.02929 13.9708 9.15527e-05 9.00052 9.15527e-05C4.03026 9.15527e-05 0.00106812 4.02929 0.00106812 8.99956C0.00106812 13.9698 4.03026 17.999 9.00052 17.999Z" fill="#0071CE"/>
<path id="Vector_2" d="M9.00052 17.999C13.9708 17.999 18 13.9698 18 8.99956C18 4.02929 13.9708 9.15527e-05 9.00052 9.15527e-05C4.03026 9.15527e-05 0.00106812 4.02929 0.00106812 8.99956C0.00106812 13.9698 4.03026 17.999 9.00052 17.999Z" fill="#E8E8E8"/>
<path id="Vector_3" d="M9.00051 9.15527e-05C7.62902 9.15527e-05 6.32951 0.307424 5.1662 0.856152C9.22226 0.56096 12.7057 2.18368 14.5219 4.64465L14.522 4.64491C14.8146 3.9813 15.0386 3.24909 15.1765 2.45433C13.5648 0.932985 11.3917 9.15527e-05 9.00051 9.15527e-05Z" fill="#00B3E3"/>
<path id="Vector_4" d="M12.6306 7.32544C10.584 4.54894 6.41573 2.83806 1.69648 3.74187C1.01803 4.68274 0.516917 5.75978 0.241974 6.92437C4.01207 5.53923 7.50645 6.79752 9.00051 8.99955C10.2513 8.90864 11.5429 8.32826 12.6307 7.32561L12.6306 7.32544Z" fill="#00B3E3"/>
<path id="Vector_5" d="M16.7943 13.4992C17.4801 12.3114 17.8637 11.0323 17.9701 9.75055C16.1977 13.4108 13.0507 15.6162 10.0113 15.9586H10.011C10.4395 16.5437 10.9616 17.1039 11.581 17.6206C13.7043 16.9855 15.5987 15.57 16.7943 13.4992Z" fill="#0071CE"/>
<path id="Vector_6" d="M8.63533 12.9803C12.0632 12.5961 15.629 9.84171 17.2059 5.30286C16.7303 4.24487 16.0481 3.27234 15.177 2.45197C14.4915 6.40958 11.6546 8.80667 9.00054 8.99951C8.45387 10.1282 8.31071 11.5369 8.63512 12.9803H8.63533Z" fill="#0071CE"/>
<path id="Vector_7" d="M1.20684 13.4992C1.89255 14.687 2.80854 15.6588 3.86541 16.3919C1.5817 13.0267 1.24528 9.19867 2.46843 6.39527L2.46861 6.39502C1.74768 6.47352 1.00148 6.64564 0.244265 6.92362C-0.267312 9.08001 0.011278 11.4284 1.20684 13.4992Z" fill="#0071CE"/>
<path id="Vector_8" d="M2.46843 6.39543C1.24528 9.19878 1.58174 13.0268 3.86537 16.3919C5.12593 17.2662 6.58717 17.8003 8.09929 17.9538C4.9569 14.3187 4.35455 9.85356 5.73561 6.69281L5.7357 6.69268C4.75394 6.38625 3.64461 6.26711 2.46856 6.39504L2.46843 6.39543Z" fill="#FFC843"/>
<path id="Vector_9" d="M5.73567 6.69281C4.35461 9.85356 4.95704 14.3187 8.09936 17.9539C9.25336 18.0709 10.4367 17.9664 11.5827 17.6223C8.49811 15.0498 7.8405 11.3945 9.00055 8.99956C8.29644 7.96177 7.14797 7.13343 5.73572 6.69272L5.73567 6.69281Z" fill="#0071CE"/>
</g>
<defs>
<clipPath id="clip0">
<rect width="18" height="18" fill="white"/>
</clipPath>
</defs>
</svg>
