<svg width="18" height="18" viewBox="0 0 18 18" fill="none" xmlns="http://www.w3.org/2000/svg">
<g id="22 - Cricket" clip-path="url(#clip0)">
<g id="Group">
<path id="Vector" d="M17.2281 5.99235L9.28688 13.9337C8.78714 14.4333 8.12343 14.6953 7.42236 14.6953H5.52818L3.30482 12.4719L3.30469 10.5776C3.30469 9.87656 3.56671 9.21285 4.06631 8.71325L12.0078 0.771919C13.0369 -0.257225 14.7074 -0.257225 15.7365 0.771919L17.2281 2.26345C18.2574 3.29259 18.2574 4.9632 17.2281 5.99235Z" fill="#FFD396"/>
<path id="Vector_2" d="M17.2281 5.99237L9.28687 13.9337C8.78712 14.4333 8.12341 14.6953 7.42235 14.6953H5.52817L4.40948 13.5905L16.4824 1.51764L17.2281 2.26347C18.2573 3.29262 18.2573 4.96323 17.2281 5.99237Z" fill="#FFB64C"/>
<path id="Vector_3" d="M14.6341 7.84068C13.6049 6.81153 11.9343 6.81153 10.9052 7.84068C9.87601 8.86982 9.87601 10.5404 10.9052 11.5696C11.9343 12.5987 13.6049 12.5987 14.6341 11.5696C15.6632 10.5404 15.6632 8.86982 14.6341 7.84068Z" fill="#FF637B"/>
<path id="Vector_4" d="M14.634 11.5696C13.6049 12.5987 11.9343 12.5987 10.9052 11.5696L14.634 7.84067C15.6632 8.86981 15.6632 10.5404 14.634 11.5696Z" fill="#E63950"/>
<path id="Vector_5" d="M4.56606 15.6713L3.07452 17.1629H1.58299L0.837158 16.4172V14.9256L2.32869 13.434H3.82022L4.56606 14.1798V15.6713Z" fill="#53433F"/>
<path id="Vector_6" d="M4.56607 15.6713L3.07454 17.1629H1.58301L1.21002 16.79L4.19322 13.8069L4.56607 14.1798V15.6713Z" fill="#3E322E"/>
<path id="Vector_7" d="M3.07453 17.1628L2.70154 17.5358C2.0826 18.1548 1.08326 18.1548 0.464176 17.5358C-0.154766 16.9167 -0.154766 15.9174 0.464176 15.2985L0.837162 14.9255L3.07453 17.1628Z" fill="#68544F"/>
<path id="Vector_8" d="M5.52817 14.7092L4.56604 15.6713L2.32867 13.434L3.2908 12.472L7.28062 10.0035C7.4895 9.88413 7.7356 9.95115 7.89215 10.1078C8.04884 10.2644 8.116 10.5105 7.99652 10.7194L5.52817 14.7092Z" fill="#68544F"/>
<path id="Vector_9" d="M5.5282 14.7092L4.56607 15.6713L3.44739 14.5526L7.89218 10.1078C8.04887 10.2644 8.11603 10.5105 7.99655 10.7194L5.5282 14.7092Z" fill="#53433F"/>
<path id="Vector_10" d="M1.95584 16.0442L3.07452 17.1629L2.70154 17.5359C2.0826 18.1548 1.08325 18.1548 0.464172 17.5359L1.95584 16.0442Z" fill="#53433F"/>
</g>
</g>
<defs>
<clipPath id="clip0">
<rect width="18" height="18" fill="white"/>
</clipPath>
</defs>
</svg>
