<svg width="18" height="18" viewBox="0 0 18 18" fill="none" xmlns="http://www.w3.org/2000/svg">
<g id="31 - Water Polo" clip-path="url(#clip0)">
<path id="Vector" d="M4.06452 6C2.32258 6 2.32258 8.05347 0 8.05347V18H18V8.05348C15.6774 8.05347 15.6774 6 13.3548 6C11.0323 6 11.0323 8.05347 8.70968 8.05347C6.3871 8.05347 5.80645 6 4.06452 6Z" fill="#7EB9FF"/>
<path id="Vector_2" d="M5.58474 12.8241C5.68132 12.7633 5.7779 12.6972 5.87165 12.6282C5.91583 12.5979 5.96001 12.5675 6.00136 12.5345C6.06198 12.4903 6.12273 12.4434 6.18065 12.3965C6.23857 12.3495 6.29932 12.3026 6.35724 12.2531C6.55727 12.0891 6.74786 11.9142 6.92823 11.7288C6.98062 11.6764 7.03302 11.6213 7.08273 11.5661C7.12408 11.5248 7.16274 11.4834 7.2014 11.4392C7.20409 11.4337 7.20961 11.431 7.21231 11.4255C7.16274 11.3979 7.11586 11.3703 7.06616 11.3426C3.93414 9.53568 2.40397 5.8522 3.33379 2.35785C0.218884 5.47949 0.222521 10.5346 3.34201 13.6517C3.38888 13.7014 3.43576 13.7482 3.48263 13.7923L3.48546 13.7951C4.09188 13.6145 4.67512 13.3635 5.22335 13.0475C5.34754 12.9757 5.46621 12.9012 5.58474 12.8241Z" fill="#FFDA44"/>
<path id="Vector_3" d="M11.5463 12.3992C12.4078 11.0948 12.8655 9.56532 12.862 8.00201C12.862 7.94679 12.862 7.89169 12.8566 7.83647C12.7517 7.81438 12.6469 7.79511 12.5421 7.77855C12.5337 7.77855 12.5227 7.77585 12.5145 7.77585C12.4455 7.76481 12.3766 7.75376 12.3076 7.74541C12.2165 7.73167 12.1228 7.72063 12.0317 7.71227C11.9075 7.70136 11.7862 7.69301 11.6621 7.68749C11.5297 7.67927 11.4 7.67645 11.2676 7.67645C10.501 7.67645 9.73835 7.78609 9.00276 8.00201C8.99993 8.00201 8.99993 8.00201 8.99724 8.00471C8.9641 8.14264 8.92558 8.2834 8.88409 8.4185C8.85661 8.51238 8.82617 8.60883 8.79586 8.69989C8.74346 8.85438 8.68554 9.00619 8.62479 9.15517C8.58075 9.26548 8.53374 9.3758 8.48134 9.48612C8.42073 9.61584 8.35728 9.74542 8.29384 9.86961C8.24131 9.96336 8.19174 10.0571 8.13651 10.1482C8.05098 10.2971 7.96006 10.4406 7.86617 10.5814C7.81108 10.6614 7.75585 10.7414 7.70063 10.8186C7.67584 10.8517 7.65375 10.882 7.62614 10.9151C7.57926 10.9813 7.52687 11.0502 7.47177 11.1165C7.44133 11.1579 7.40833 11.1965 7.37237 11.2379C7.31997 11.3013 7.26757 11.3648 7.21234 11.4255C7.20965 11.431 7.20413 11.4337 7.20143 11.4393C7.16278 11.4834 7.12412 11.5248 7.08276 11.5661C7.03306 11.6214 6.98066 11.6765 6.92827 11.7289C6.7479 11.9142 6.55731 12.0892 6.35728 12.2531C6.29936 12.3027 6.2413 12.3495 6.18069 12.3966C6.11994 12.4434 6.06202 12.4903 6.0014 12.5345C5.96005 12.5675 5.91587 12.5979 5.87169 12.6282C5.77794 12.6972 5.68136 12.7633 5.58478 12.8241C5.46625 12.9013 5.34758 12.9758 5.22339 13.0476C4.67516 13.3636 4.09192 13.6145 3.4855 13.7951C4.45331 14.7224 5.64082 15.3888 6.93648 15.7317C8.829 15.2221 10.469 14.0365 11.5463 12.3992Z" fill="#7ABC55"/>
<path id="Vector_4" d="M3.47995 13.7943H3.48386L3.48186 13.7923L3.47995 13.7943Z" fill="#BDDBFF"/>
<path id="Vector_5" d="M14.9475 8.57855C14.8566 8.53168 14.7655 8.48749 14.6745 8.44345C14.5752 8.39657 14.4758 8.35239 14.3765 8.31104C14.2993 8.2779 14.2193 8.24477 14.142 8.21446C14.0124 8.16476 13.8827 8.11788 13.7531 8.07653C13.6592 8.04339 13.5655 8.01578 13.4744 7.98817C13.4055 7.9689 13.3365 7.94964 13.2675 7.93307C13.2068 7.91651 13.1489 7.89994 13.0883 7.88889C13.0109 7.86963 12.9338 7.85306 12.8566 7.83649C12.862 7.89172 12.862 7.94681 12.862 8.00204C12.8655 9.56536 12.4078 11.0949 11.5462 12.3993C10.4689 14.0366 8.82895 15.2222 6.93643 15.7317C11.2045 16.8701 15.5876 14.3352 16.7296 10.0682C16.7461 10.0076 16.7627 9.94682 16.7766 9.88621V9.88338C16.3175 9.44669 15.8081 9.06616 15.2593 8.74962C15.1572 8.68887 15.0524 8.63378 14.9475 8.57855Z" fill="#0F66A8"/>
<path id="Vector_6" d="M11.5407 3.59366C9.97919 3.4991 8.42463 3.86763 7.07172 4.65293C7.02201 4.68054 6.97244 4.71085 6.92557 4.74129C6.93931 4.77981 6.95035 4.81564 6.96409 4.85161C6.99453 4.93984 7.02484 5.02537 7.06067 5.1109C7.09933 5.213 7.14068 5.31497 7.18486 5.41438C7.23995 5.53574 7.29518 5.65711 7.3558 5.77847C7.41654 5.89983 7.47729 6.01567 7.54343 6.13152C7.61522 6.25854 7.68958 6.38259 7.76959 6.50679C7.83034 6.60606 7.89648 6.70264 7.96275 6.79639C8.02067 6.8764 8.07859 6.95641 8.13934 7.03642C8.17517 7.08612 8.211 7.133 8.24966 7.17987C8.48147 7.46921 8.73215 7.74278 8.99993 7.99911L9.00276 8.00194C9.73835 7.78602 10.501 7.67637 11.2676 7.67637C11.4 7.67637 11.5297 7.6792 11.6621 7.68742C11.7862 7.69294 11.9075 7.70129 12.0317 7.7122C12.1228 7.72056 12.2165 7.7316 12.3076 7.74534C12.3766 7.75369 12.4455 7.76474 12.5145 7.77578C12.5227 7.77578 12.5337 7.77848 12.5421 7.77848C12.6469 7.79504 12.7517 7.81431 12.8566 7.8364C12.9338 7.85296 13.011 7.86953 13.0883 7.88879C13.1489 7.89984 13.2068 7.91641 13.2676 7.93298C13.3366 7.94954 13.4055 7.96881 13.4745 7.98807C13.5655 8.01568 13.6593 8.04329 13.7532 8.07643C13.8828 8.11778 14.0125 8.16466 14.142 8.21436C14.2194 8.24467 14.2994 8.2778 14.3766 8.31094C14.4758 8.35229 14.5752 8.39647 14.6745 8.44335C14.7656 8.4874 14.8566 8.53158 14.9475 8.57845C15.0525 8.63368 15.1573 8.68877 15.2594 8.74952C15.8081 9.06606 16.3176 9.44658 16.7766 9.88328C17.0905 8.57939 17.0734 7.21759 16.7269 5.92192C15.3409 4.53803 13.4959 3.70977 11.5407 3.59366Z" fill="#FFDA44"/>
<path id="Vector_7" d="M6.5282 2.60609C6.53103 2.6861 6.53655 2.76611 6.54207 2.84329C6.54153 2.85164 6.54248 2.86013 6.54477 2.86821C6.55312 2.97853 6.56416 3.08616 6.5779 3.19095C6.58073 3.21574 6.58342 3.23783 6.58612 3.25992C6.59716 3.34545 6.60821 3.42816 6.62208 3.51086C6.63865 3.61579 6.65791 3.72059 6.68 3.82538C6.69374 3.89718 6.71031 3.97166 6.72957 4.04332C6.76271 4.19499 6.80406 4.34397 6.84824 4.49025C6.87033 4.56744 6.89242 4.64475 6.92004 4.71924C6.92017 4.72692 6.92206 4.73446 6.92556 4.74133C6.97243 4.71089 7.022 4.68058 7.07171 4.65297C10.2063 2.84141 14.1668 3.36202 16.7269 5.92197C15.5755 1.66185 11.1951 -0.864557 6.93095 0.2723C6.8675 0.288868 6.80406 0.305436 6.74062 0.324698V0.327526C6.59178 0.943503 6.51675 1.57511 6.51715 2.20886C6.51715 2.34127 6.51998 2.47368 6.5282 2.60609Z" fill="#7ABC55"/>
<path id="Vector_8" d="M3.91583 8.00473C4.61559 9.4025 5.71123 10.5635 7.06617 11.3427C7.11587 11.3703 7.16275 11.3979 7.21232 11.4255C7.26754 11.3648 7.31994 11.3013 7.37234 11.2379C7.4083 11.1965 7.4413 11.1579 7.47175 11.1165C7.52684 11.0503 7.57923 10.9813 7.62611 10.9152C7.65372 10.882 7.67581 10.8517 7.7006 10.8186C7.75583 10.7414 7.81105 10.6614 7.86614 10.5814C7.96003 10.4406 8.05095 10.2972 8.13648 10.1482C8.19171 10.0571 8.24128 9.96338 8.29381 9.86963C8.35726 9.74544 8.4207 9.61586 8.48131 9.48615C8.53371 9.37583 8.58072 9.26551 8.62477 9.15519C8.68552 9.00621 8.74344 8.85441 8.79583 8.69991C8.82614 8.60885 8.85658 8.51241 8.88406 8.41852C8.92555 8.28342 8.96407 8.14266 8.99721 8.00473C8.99869 8.00325 8.99963 8.00136 8.9999 7.99921C8.73212 7.74288 8.48145 7.4693 8.24963 7.17997C8.21097 7.13309 8.17514 7.08622 8.13931 7.03652C8.07856 6.9565 8.02064 6.87649 7.96272 6.79648C7.89645 6.70273 7.83031 6.60615 7.76956 6.50688C7.68955 6.38269 7.6152 6.25863 7.54341 6.13161C7.47727 6.01577 7.41369 5.89723 7.35577 5.77856C7.29785 5.65989 7.23993 5.53584 7.18484 5.41447C7.14066 5.31507 7.0993 5.2131 7.06064 5.111C7.02481 5.02546 6.99451 4.93993 6.96407 4.8517C6.95033 4.81574 6.93928 4.77991 6.92554 4.74138C6.92204 4.73451 6.92015 4.72697 6.92002 4.71929C6.89241 4.64481 6.87032 4.56749 6.84822 4.49031C6.80404 4.34402 6.76269 4.19505 6.72955 4.04338C6.71029 3.97172 6.69372 3.89723 6.67999 3.82543C6.65789 3.72064 6.63863 3.61584 6.62207 3.51091C6.60819 3.42821 6.59715 3.3455 6.5861 3.25997C6.58341 3.23788 6.58071 3.21579 6.57788 3.191C6.56414 3.08621 6.5531 2.97858 6.54475 2.86826C6.54246 2.86018 6.54152 2.8517 6.54205 2.84335C6.53653 2.76616 6.53101 2.68615 6.52818 2.60614C6.51996 2.47373 6.51713 2.34132 6.51713 2.20891C6.51673 1.57516 6.59176 0.943553 6.7406 0.327576C5.4518 0.704463 4.27965 1.40207 3.3338 2.35506V2.35789C2.83204 4.24812 3.03908 6.25661 3.91583 8.00473Z" fill="#0F66A8"/>
<path id="Vector_9" d="M9.00108 8.00122L8.99907 7.99921C8.99888 8.00074 8.99821 8.00208 8.99716 8.00313C8.99907 8.00122 8.99907 8.00122 9.00108 8.00122Z" fill="#BDDBFF"/>
<path id="Vector_10" d="M4.06452 9C2.32258 9 2.32258 11.1176 0 11.1176V18H18V11.1177C15.6774 11.1176 15.6774 9 13.3548 9C11.0323 9 11.0323 11.1176 8.70968 11.1176C6.3871 11.1176 5.80645 9 4.06452 9Z" fill="#BDDBFF"/>
<path id="Vector_11" d="M4.06452 14C2.32258 14 2.32258 15.8824 0 15.8824V18H18V15.8824C15.6774 15.8824 15.6774 14 13.3548 14C11.0323 14 11.0323 15.8824 8.70968 15.8824C6.3871 15.8824 5.80645 14 4.06452 14Z" fill="#7FAEE7"/>
</g>
<defs>
<clipPath id="clip0">
<rect width="18" height="18" fill="white"/>
</clipPath>
</defs>
</svg>
