<svg width="18" height="18" viewBox="0 0 18 18" fill="none" xmlns="http://www.w3.org/2000/svg">
<path d="M6.46018 10L6.12389 11.4118H6.67257L9.64602 16H11.4513L11.7876 14.5882H11.2389L8.26549 10H6.46018Z" fill="#844A4A"/>
<path fill-rule="evenodd" clip-rule="evenodd" d="M9.61062 11.3059L11.0619 10.0176H12.8673L12.5487 11.4118H11.9823L10.5133 12.7L9.61062 11.3059ZM5.45133 14.5882H5.9292L7.41593 13.3L8.31858 14.6941L6.86726 15.9824H5.13274L5.45133 14.5882Z" fill="#844A4A"/>
<path d="M13.3274 10L13.0089 11.3941H13.7168L13.5044 12.2059H12.5841L12.2478 13.6882H13.1858L12.9558 14.5882H12.2301L11.9115 16H13.8761L15.0265 15.1353L15.3628 13.7059L14.7434 12.9647L15.6637 12.2235L16 10.8824L15.2743 10H13.3274Z" fill="#844A4A"/>
<path d="M4.12389 10L2.97345 10.8824L2.63717 12.2412L3.23894 12.9647L2.33628 13.7059L2 15.1176L2.72566 16H4.67257L4.99115 14.6059H4.28319L4.49558 13.7235H5.41593L5.75221 12.2412H4.83186L5.04425 11.4118H5.68142L6.0177 10H4.12389Z" fill="#844A4A"/>
<path d="M12.0755 6.79192L12.3429 7.20063C11.7979 8.02268 10.9818 8.57987 10.0847 8.83054L9.69752 8.5637C9.69752 8.5637 9.57401 8.76836 9.60579 8.93832C8.81097 9.05863 7.96589 8.95681 7.20532 8.57721L7.18515 8.14343L7.17834 7.97712L6.79938 8.34285C6.09039 7.87396 5.57966 7.19303 5.28875 6.44054L5.57714 6.18481L5.14027 5.97592C4.90883 5.07367 4.98335 4.08828 5.42278 3.20533L5.71961 3.12236L5.65715 2.79938C6.2021 1.97735 7.01821 1.42012 7.91526 1.16948C7.93447 1.16429 7.95129 1.16322 7.97055 1.15806L7.98178 1.25116L8.37836 1.36102L8.39422 1.0617C9.18903 0.941397 10.0341 1.04323 10.7947 1.42279L10.812 1.83332L10.8336 1.82414L11.2006 1.65716C11.9137 2.1284 12.4204 2.807 12.7113 3.55949L12.7153 3.56181L12.5548 3.82106L12.8638 4.02651C13.0912 4.92635 13.0167 5.91174 12.5772 6.79468L12.0755 6.79192Z" fill="#FF641A"/>
<path d="M12.0755 6.79192L12.3428 7.20063C11.7979 8.02267 10.9818 8.57987 10.0848 8.83054L9.69751 8.56369C9.69751 8.56369 9.57399 8.76836 9.60577 8.93832C8.81097 9.05863 7.96589 8.95681 7.20532 8.57721L7.18515 8.14343L10.8336 1.82414L11.2006 1.65717C11.9137 2.12841 12.4204 2.807 12.7112 3.55949L12.7153 3.56181L12.5548 3.82106L12.8638 4.02651C13.0912 4.92635 13.0167 5.91174 12.5772 6.79467L12.0755 6.79192Z" fill="#F03800"/>
<path d="M9.08578 5.32017L8.60998 6.14428C9.17673 6.5689 9.43072 7.23517 9.67324 7.88397C9.79791 8.22112 9.91911 8.54552 10.0847 8.83059C9.92871 8.87583 9.76688 8.91232 9.60573 8.93837C9.45871 8.65863 9.34497 8.34939 9.23059 8.05055C9.00763 7.46175 8.79967 6.90326 8.37328 6.55423L7.20532 8.57721C7.13399 8.54148 7.06897 8.50392 6.99999 8.4641C6.93101 8.42428 6.866 8.38677 6.79937 8.34286L7.96734 6.31988C7.4519 6.12512 6.86424 6.22428 6.24284 6.32557C5.93093 6.37828 5.60861 6.43032 5.28875 6.44055C5.2284 6.29201 5.17908 6.13366 5.14026 5.97592C5.46351 5.97855 5.81146 5.91957 6.1658 5.85895C6.84892 5.74455 7.55293 5.63139 8.20403 5.90992L8.67983 5.08579L5.42277 3.20533C5.45853 3.134 5.49607 3.06899 5.53589 3.00001C5.57572 2.93103 5.61325 2.86601 5.65715 2.79939L8.9142 4.67985L9.39 3.85574C8.82326 3.43113 8.56926 2.76485 8.32675 2.11606C8.20208 1.77888 8.07682 1.45214 7.91528 1.16943C8.07129 1.12419 8.2331 1.08771 8.39424 1.06165C8.53892 1.34547 8.65736 1.64657 8.7694 1.94947C8.99235 2.53827 9.20031 3.09677 9.62671 3.44577L10.7947 1.42279C10.866 1.45855 10.931 1.49608 11 1.53591C11.069 1.57573 11.134 1.61327 11.2006 1.65716L10.0327 3.68015C10.5481 3.87491 11.1357 3.77575 11.7572 3.67444C12.0667 3.62581 12.389 3.57376 12.7112 3.55949L12.7152 3.56181C12.7733 3.71443 12.8209 3.86637 12.8638 4.02646C12.5365 4.02149 12.1885 4.08046 11.8342 4.14108C11.1511 4.25545 10.4471 4.36863 9.79595 4.09011L9.32016 4.91422L12.5772 6.79468C12.5415 6.86601 12.5039 6.93103 12.4641 7.00001C12.4243 7.06899 12.3868 7.13401 12.3428 7.20063L9.08578 5.32017Z" fill="#FFBD86"/>
<path d="M9.08579 5.32019L8.60999 6.14429C9.17674 6.56891 9.43073 7.23518 9.67324 7.88398C9.79791 8.22114 9.91911 8.54554 10.0847 8.8306C9.92871 8.87585 9.76689 8.91234 9.60573 8.93838C9.45871 8.65865 9.34498 8.3494 9.2306 8.05056C9.00764 7.46176 8.79968 6.90327 8.37329 6.55425L7.20532 8.57723C7.134 8.54149 7.06898 8.50394 7 8.46412L11 1.53592C11.069 1.57575 11.134 1.61328 11.2006 1.65718L10.0327 3.68016C10.5481 3.87492 11.1357 3.77577 11.7572 3.67445C12.0667 3.62582 12.389 3.57377 12.7112 3.55951L12.7152 3.56182C12.7733 3.71445 12.8209 3.86639 12.8638 4.02647C12.5365 4.02151 12.1885 4.08047 11.8342 4.1411C11.1511 4.25547 10.4471 4.36864 9.79596 4.09013L9.32016 4.91423L12.5772 6.79469C12.5415 6.86603 12.5039 6.93105 12.4641 7.00003C12.4243 7.069 12.3868 7.13403 12.3428 7.20065L9.08579 5.32019Z" fill="#F6A96C"/>
</svg>
