<svg width="18" height="18" viewBox="0 0 18 18" fill="none" xmlns="http://www.w3.org/2000/svg">
<g id="37 - Cycling" clip-path="url(#clip0)">
<g id="Group">
<path id="Vector" d="M11.6609 7.15647C11.6609 7.33871 11.5132 7.48647 11.3309 7.48647H7.88917C7.06739 7.48647 6.28008 7.09564 5.78282 6.44113L5.15453 5.61331C5.0444 5.46802 5.07269 5.26079 5.21784 5.15079C5.36273 5.04065 5.56995 5.06894 5.67996 5.21423L6.30879 6.04205C6.68177 6.53314 7.27243 6.82661 7.88931 6.82661H11.3309C11.5132 6.82647 11.6609 6.97437 11.6609 7.15647Z" fill="#4E7693"/>
<path id="Vector_2" d="M11.6609 7.15648C11.6609 7.33871 11.5131 7.48648 11.3309 7.48648H9.51855C9.74638 7.2408 9.9966 7.02038 10.2654 6.82648H11.3309C11.5131 6.82648 11.6609 6.97438 11.6609 7.15648Z" fill="#2F5E75"/>
<path id="Vector_3" d="M13.6481 6.71826C13.6481 6.94609 13.4634 7.1308 13.2355 7.1308C13.0371 7.1308 12.8407 7.14604 12.6482 7.17612C11.6145 7.33652 10.6823 7.91631 10.0814 8.79494L10.0477 8.84426L8.50234 11.1041C8.38163 11.2806 8.22741 11.4266 8.05135 11.5355C7.81528 11.6826 7.53925 11.7633 7.25278 11.7633H6.2294C6.00116 11.7633 5.81686 11.5786 5.81686 11.3508C5.81686 11.123 6.00116 10.9383 6.2294 10.9383H7.25292C7.33188 10.9383 7.40892 10.9249 7.48143 10.8991C7.61794 10.8513 7.73742 10.7611 7.82146 10.6385L9.29254 8.48678L9.40048 8.32913C10.1032 7.30136 11.1794 6.60963 12.3801 6.3851C12.6597 6.3325 12.9458 6.30573 13.2355 6.30573C13.4634 6.30573 13.6481 6.49043 13.6481 6.71826Z" fill="#1685FB"/>
<path id="Vector_4" d="M6.86496 10.9383H6.2294C6.00116 10.9383 5.81686 11.123 5.81686 11.3508C5.81686 11.5786 6.00116 11.7634 6.2294 11.7634H6.86496C6.8802 11.6279 6.88816 11.4903 6.88816 11.3508C6.88816 11.2114 6.8802 11.0738 6.86496 10.9383Z" fill="#4C60E1"/>
<path id="Vector_5" d="M3.22682 8.12384C1.44457 8.12384 0 9.56868 0 11.3509C0 13.1328 1.44457 14.5778 3.22682 14.5778C5.00894 14.5778 6.45351 13.1328 6.45351 11.3509C6.45351 9.56868 5.00894 8.12384 3.22682 8.12384ZM1.1375 11.3509C1.1375 10.197 2.07285 9.26175 3.22682 9.26175C4.3808 9.26175 5.31629 10.197 5.31629 11.3509C5.31629 12.5046 4.3808 13.4401 3.22682 13.4401C2.07285 13.4401 1.1375 12.5046 1.1375 11.3509Z" fill="#43A3F9"/>
<path id="Vector_6" d="M10.0477 8.84425L8.50233 11.1041C8.38175 11.2806 8.22738 11.4266 8.05147 11.5355C7.811 11.3765 7.61353 11.157 7.48141 10.8992C7.61792 10.8513 7.73741 10.7612 7.82144 10.6385L9.29251 8.48679C9.57582 8.54076 9.83399 8.66682 10.0477 8.84425Z" fill="#4C60E1"/>
<path id="Vector_7" d="M10.2203 10.1353C10.2203 10.8225 9.66332 11.3795 8.97625 11.3795C8.28905 11.3795 7.73204 10.8225 7.73204 10.1353C7.73204 9.44823 8.28905 8.89124 8.97625 8.89124C9.66332 8.89124 10.2203 9.44823 10.2203 10.1353Z" fill="#4E7693"/>
<path id="Vector_8" d="M10.2296 12.4386H9.47762C9.35265 12.4386 9.24389 12.3533 9.21395 12.232L8.71242 10.2004C8.67644 10.0548 8.76543 9.9076 8.911 9.87162C9.05671 9.8355 9.20392 9.92463 9.2399 10.0702L9.69034 11.8953H10.2296C10.3797 11.8953 10.5013 12.0168 10.5013 12.1668C10.5013 12.3169 10.3797 12.4386 10.2296 12.4386Z" fill="#A7C7D3"/>
<path id="Vector_9" d="M6.70689 5.4915H3.79428C3.56178 5.4915 3.40165 5.25818 3.48515 5.04106C3.68373 4.52525 4.21162 4.2142 4.75902 4.29042L6.77075 4.57016C6.99954 4.60202 7.16983 4.79758 7.16983 5.02856C7.16969 5.28413 6.9626 5.4915 6.70689 5.4915Z" fill="#FC3E4B"/>
<path id="Vector_10" d="M7.16993 5.0287C7.16993 5.15655 7.11816 5.27219 7.03411 5.35582C6.95034 5.43986 6.83485 5.49164 6.70699 5.49164H3.79438C3.56161 5.49164 3.40149 5.25804 3.48512 5.04106C3.49995 5.00275 3.51629 4.9658 3.5347 4.92996C3.59443 5.00522 3.68644 5.05521 3.79438 5.05521H6.70699C6.83485 5.05521 6.95034 5.00343 7.03397 4.9198C7.06625 4.88753 7.09344 4.851 7.11514 4.81076C7.15029 4.87585 7.16993 4.95015 7.16993 5.0287Z" fill="#F01014"/>
<path id="Vector_11" d="M13.2355 6.30573C12.9459 6.30573 12.6597 6.3325 12.3801 6.3851L12.6482 7.1761C12.8408 7.14603 13.0371 7.13079 13.2355 7.13079C13.4634 7.13079 13.6481 6.94608 13.6481 6.71826C13.6481 6.49043 13.4634 6.30573 13.2355 6.30573Z" fill="#4C60E1"/>
<path id="Vector_12" d="M17.8406 10.3947C17.461 9.2741 16.4846 8.52442 15.3858 8.37995C14.7888 8.30126 14.2927 7.88049 14.0997 7.31002L13.4373 5.35363L12.9393 3.88352C12.9345 3.86938 12.9291 3.85605 12.923 3.8426C12.8292 3.63441 12.5909 3.52784 12.3703 3.60255C12.1834 3.66585 12.0653 3.8404 12.0653 4.02772C12.0653 4.07001 12.0719 4.11314 12.0846 4.15584C12.0859 4.16134 12.0874 4.16642 12.0892 4.1715L12.596 5.66756L13.2508 7.6013C13.4467 8.1789 13.2895 8.8124 12.861 9.24664C12.0795 10.0383 11.7687 11.2371 12.1671 12.3609C12.6971 13.8571 14.4093 14.703 15.9192 14.2149C17.5161 13.6987 18.377 11.9784 17.8406 10.3947ZM15.6672 13.3366C14.5742 13.7067 13.3881 13.1207 13.0179 12.0277C12.6477 10.9351 13.2335 9.74885 14.3269 9.37875C15.4195 9.00865 16.6056 9.59463 16.9757 10.6874C17.3458 11.7804 16.7602 12.9665 15.6672 13.3366Z" fill="#FC3E4B"/>
<path id="Vector_13" d="M13.4373 5.35362L12.596 5.66755L12.0892 4.17149C12.0874 4.16641 12.0861 4.16133 12.0846 4.15584L12.9231 3.84259C12.9291 3.85605 12.9346 3.86937 12.9393 3.88351L13.4373 5.35362Z" fill="#F01014"/>
<path id="Vector_14" d="M15.888 6.09521C15.8476 6.09521 15.807 6.08848 15.7677 6.07461L14.8906 5.7663C14.7015 5.69983 14.6021 5.4926 14.6685 5.3035C14.735 5.1144 14.9421 5.01497 15.1313 5.08144L15.3287 5.15079L15.0608 4.283L12.4181 5.27027C12.2303 5.34044 12.0211 5.24514 11.9511 5.05741C11.8809 4.86954 11.9762 4.66039 12.1641 4.59021L15.167 3.46823C15.2606 3.43335 15.3645 3.43843 15.4542 3.48251C15.5439 3.52659 15.6114 3.60569 15.641 3.70114L16.2349 5.62499C16.2753 5.756 16.2386 5.89869 16.1397 5.99372C16.0711 6.05991 15.9804 6.09521 15.888 6.09521Z" fill="#43A3F9"/>
</g>
</g>
<defs>
<clipPath id="clip0">
<rect width="18" height="18" fill="white"/>
</clipPath>
</defs>
</svg>
