<svg width="18" height="18" viewBox="0 0 18 18" fill="none" xmlns="http://www.w3.org/2000/svg">
<path d="M13.3288 2.28962C13.1317 2.28962 12.3926 2.28962 12.3926 2.28962C12.3926 2.28962 12.3433 2.3384 12.294 2.43596C11.8998 3.02133 10.3723 5.26523 8.94331 7.55792C8.89403 7.65548 8.79548 7.80182 8.74621 7.89938C7.85925 9.36279 6.97229 10.7774 6.52882 11.753C6.47954 11.8506 6.43026 11.9969 6.38099 12.0945C5.78969 13.2165 5.78969 13.2165 5.64186 13.4604C5.59258 13.5091 5.54331 13.6555 5.49403 13.8506C5.19838 14.5335 4.90273 15.753 4.90273 15.753C4.90273 15.753 4.70563 16.5823 3.72012 16.875C3.52302 16.9238 3.32592 16.9726 3.12882 17.0213C2.98099 17.0213 2.83316 17.0701 2.68534 17.0701C2.04476 17.0701 1.40418 16.9238 1.00997 16.3384C0.41867 15.4604 0.320119 14.7774 0.41867 14.1921C0.467945 13.8506 0.714322 13.6555 0.960699 13.5579C1.10853 13.5091 1.25635 13.4604 1.3549 13.4116C1.552 13.314 2.68534 12.9238 3.57229 12.3384C3.62157 12.2896 3.67084 12.2896 3.72012 12.2408C3.72012 12.2408 4.60708 11.6555 4.952 11.2652C5.00128 11.2165 5.05055 11.1677 5.09983 11.0701C5.54331 10.5335 6.67664 9.02133 7.9578 7.26523C8.05635 7.16767 8.10563 7.07011 8.20418 6.92377C9.28824 5.50914 10.4708 3.8506 11.3085 2.53353C11.4071 2.38718 11.5549 2.19206 11.7027 1.94816C11.9984 1.55792 12.294 1.11889 12.294 1.11889C12.294 1.11889 12.4911 1.02133 12.6882 1.11889C12.8361 1.31401 13.4274 2.0945 13.4274 2.0945C13.4274 2.0945 13.5259 2.28962 13.3288 2.28962Z" fill="#DBB78B"/>
<path d="M3.12881 17.0213C2.98098 17.0213 2.83316 17.0701 2.68533 17.0701L0.960693 13.5091C1.10852 13.4604 1.25635 13.4116 1.3549 13.3628L3.12881 17.0213Z" fill="#161A17"/>
<path d="M8.89403 7.5579C8.84475 7.65546 8.7462 7.8018 8.69692 7.89936L7.95779 7.314C8.05635 7.21644 8.10562 7.11888 8.20417 6.97253L8.89403 7.5579Z" fill="#212123"/>
<path d="M12.294 2.43596C11.8998 3.02132 10.3723 5.26522 8.94332 7.55791L8.20419 6.97254C9.28825 5.50913 10.4709 3.85059 11.3085 2.53352C11.4071 2.38717 11.5549 2.19205 11.7027 1.94815L12.294 2.43596Z" fill="#5B5A5B"/>
<path d="M6.28244 12.0945C5.69114 13.2164 5.69114 13.2164 5.54331 13.4603C5.49404 13.5091 5.44476 13.6555 5.39549 13.8506L3.5723 12.3384C3.62157 12.2896 3.67085 12.2896 3.72012 12.2408C3.72012 12.2408 4.60708 11.6555 4.95201 11.2652C5.00128 11.2164 5.05056 11.1677 5.09983 11.0701L6.28244 12.0945Z" fill="#212123"/>
<path d="M4.53492 2.24084C4.73203 2.24084 5.47116 2.24084 5.47116 2.24084C5.47116 2.24084 5.52043 2.28962 5.56971 2.38718C5.96391 2.97255 7.49145 5.21645 8.92043 7.50914C8.96971 7.6067 9.06826 7.75304 9.11753 7.8506C10.0045 9.31401 10.8914 10.7286 11.3349 11.7043C11.3842 11.8018 11.4335 11.9482 11.4828 12.0457C12.0741 13.1677 12.0741 13.1677 12.2219 13.4116C12.2712 13.4604 12.3204 13.6067 12.3697 13.8018C12.5668 14.4847 12.9117 15.7043 12.9117 15.7043C12.9117 15.7043 13.1088 16.5335 14.0943 16.8262C14.2914 16.875 14.4885 16.9238 14.6856 16.9725C14.8335 16.9725 14.9813 17.0213 15.1291 17.0213C15.7697 17.0213 16.4103 16.875 16.8045 16.2896C17.3958 15.4116 17.4943 14.7286 17.3958 14.1433C17.3465 13.8018 17.1001 13.6067 16.8538 13.5091C16.7059 13.4604 16.5581 13.4116 16.4596 13.3628C16.2625 13.314 15.1291 12.9238 14.2914 12.3384C14.2422 12.2896 14.1929 12.2896 14.1436 12.2408C14.1436 12.2408 13.2567 11.6555 12.9117 11.2652C12.8625 11.2165 12.8132 11.1677 12.7639 11.0701C12.3204 10.5335 11.1871 9.02133 9.90594 7.26523C9.80739 7.16767 9.75811 7.07011 9.65956 6.92377C8.5755 5.41157 7.3929 3.80182 6.55521 2.48475C6.45666 2.3384 6.30884 2.14328 6.16101 1.89938C5.86536 1.55792 5.56971 1.11889 5.56971 1.11889C5.56971 1.11889 5.3726 1.02133 5.1755 1.11889C5.02768 1.26523 4.3871 2.04572 4.3871 2.04572C4.3871 2.04572 4.33782 2.24084 4.53492 2.24084Z" fill="#DBB78B"/>
<path d="M14.7349 16.9722C14.8828 16.9722 15.0306 17.021 15.1784 17.021L16.903 13.46C16.7552 13.4112 16.6074 13.3624 16.5088 13.3137L14.7349 16.9722Z" fill="#161A17"/>
<path d="M8.96973 7.5088C9.019 7.60636 9.11755 7.7527 9.16683 7.85026L9.90596 7.26489C9.80741 7.16733 9.75813 7.06977 9.65958 6.92343L8.96973 7.5088Z" fill="#212123"/>
<path d="M5.5697 2.38685C5.96391 2.97222 7.49144 5.21612 8.92043 7.5088L9.61028 6.92344C8.52622 5.41124 7.34362 3.80149 6.50593 2.48441C6.40738 2.33807 6.25956 2.14295 6.11173 1.89905L5.5697 2.38685Z" fill="#5B5A5B"/>
<path d="M11.5813 12.0454C12.1726 13.1673 12.1726 13.1673 12.3204 13.4112C12.3697 13.46 12.419 13.6064 12.4683 13.8015L14.3407 12.2893C14.2914 12.2405 14.2422 12.2405 14.1929 12.1917C14.1929 12.1917 13.3059 11.6064 12.961 11.2161C12.9117 11.1673 12.8625 11.1186 12.8132 11.021L11.5813 12.0454Z" fill="#212123"/>
<path d="M10.6205 14.875C10.6205 15.2652 10.4726 15.6067 10.2755 15.8506C10.2262 15.8994 10.177 15.9482 10.1277 15.9969C9.88132 16.2408 9.48712 16.3872 9.14219 16.3872C9.14219 16.3872 9.14219 16.3872 9.09292 16.3872C9.04364 16.3872 8.94509 16.3872 8.89581 16.3872C8.15668 16.2896 7.61465 15.6555 7.61465 14.875C7.61465 14.6311 7.66393 14.436 7.76248 14.2408C7.81176 14.1921 7.81176 14.0945 7.86103 14.0457C8.15668 13.6555 8.60016 13.3628 9.14219 13.3628C9.38857 13.3628 9.63494 13.4116 9.88132 13.5579C10.3248 13.8018 10.6205 14.2896 10.6205 14.875Z" fill="#D9D9D9"/>
<path d="M7.86102 14.0457C7.9103 14.1433 8.20595 14.6799 8.60015 15.0701C9.24073 15.6555 9.24073 16.0945 9.09291 16.3872C9.04363 16.3872 8.94508 16.3872 8.8958 16.3872C9.14218 15.9969 8.79725 15.5579 8.45233 15.2164C8.1074 14.875 7.86102 14.4847 7.7132 14.2408L7.86102 14.0457Z" fill="#212123"/>
<path d="M10.2755 15.8506C10.2263 15.8994 10.177 15.9482 10.1277 15.9969C9.97988 15.5579 9.78278 14.6311 9.83206 14.0457C9.83206 13.8994 9.78278 13.753 9.68423 13.6555C9.5364 13.5091 9.3393 13.4116 9.09293 13.3628C9.3393 13.3628 9.58568 13.4116 9.83206 13.5579C9.97988 13.7043 10.0292 13.8994 10.0292 14.0945C9.97988 14.5823 10.177 15.4116 10.2755 15.8506Z" fill="#212123"/>
</svg>
