<svg width="18" height="18" viewBox="0 0 18 18" fill="none" xmlns="http://www.w3.org/2000/svg">
<g id="5 - Baseball" clip-path="url(#clip0)">
<g id="Group">
<path id="Vector" d="M4.49999 16.7942C8.80463 19.2795 14.3089 17.8046 16.7942 13.5C19.2795 9.19535 17.8046 3.69104 13.5 1.20575C9.19536 -1.27953 3.69105 0.195347 1.20576 4.49998C-1.27952 8.80462 0.195362 14.3089 4.49999 16.7942Z" fill="#EDEEF0"/>
<path id="Vector_2" d="M11.3979 16.8461L11.3412 16.0655C11.1883 16.0766 11.0524 16.0865 10.9258 16.0956C10.921 15.788 10.9292 15.4829 10.9501 15.1808L11.3527 15.2215L11.4314 14.4429L11.033 14.4026C11.0756 14.1094 11.1306 13.8196 11.1981 13.5337L11.583 13.6407L11.7924 12.8866L11.4079 12.7798C11.4966 12.5036 11.5973 12.2318 11.7101 11.9646L12.0724 12.135L12.4054 11.4267L12.0426 11.2561C12.109 11.1285 12.1782 11.0021 12.2504 10.8771C12.3227 10.7518 12.3976 10.6285 12.4751 10.5071C12.5758 10.5771 12.6835 10.6519 12.8043 10.7359L13.251 10.0933C13.1304 10.0095 13.0229 9.93473 12.9224 9.86487C13.0974 9.63361 13.2825 9.4104 13.4773 9.19556C13.5644 9.28112 13.6576 9.37256 13.7622 9.47517L14.3103 8.91657C14.2057 8.81389 14.1125 8.72243 14.0253 8.63683C14.2392 8.43545 14.4626 8.24289 14.6952 8.0594L14.9293 8.38424L15.5642 7.92666L15.3277 7.59841C15.5788 7.42925 15.839 7.26966 16.1078 7.12003L16.2895 7.4948L16.9938 7.15347L16.8047 6.76343C17.0697 6.63916 17.3418 6.52361 17.621 6.41748C17.5462 6.16751 17.4606 5.92071 17.3644 5.67786C17.056 5.79443 16.7555 5.92165 16.4631 6.05899L16.2346 5.5878L15.5304 5.92913L15.7657 6.41446C15.4563 6.58507 15.1577 6.76826 14.8698 6.96298L14.547 6.51495L13.9119 6.97239L14.2372 7.42374C13.9689 7.63401 13.7114 7.85521 13.466 8.08763C13.3472 7.97096 13.2195 7.84558 13.0689 7.6976L12.5204 8.25587C12.6714 8.40415 12.7992 8.52971 12.9182 8.64655C12.6932 8.89331 12.4801 9.15047 12.2794 9.41758C12.1817 9.34961 12.0789 9.2781 11.9648 9.1987L11.8228 9.09991L11.3758 9.74239L11.5178 9.84115C11.6319 9.9205 11.7346 9.99197 11.8323 10.0599C11.7427 10.1996 11.656 10.3415 11.5726 10.4858C11.4895 10.6299 11.4101 10.7757 11.3341 10.9229L10.8309 10.6863L10.4979 11.3946L11.0013 11.6313C10.8704 11.9387 10.7542 12.2518 10.653 12.57L10.1159 12.4208L9.90647 13.1749L10.4428 13.3239C10.3643 13.6526 10.3015 13.9862 10.2535 14.3236L9.7001 14.2675L9.62128 15.0462L10.1708 15.1018C10.1461 15.4486 10.1367 15.7988 10.1437 16.152L9.60578 16.1908L9.6622 16.9714L10.1845 16.9337C10.2118 17.2556 10.2519 17.5795 10.3051 17.9048C10.5636 17.8668 10.8201 17.8175 11.0739 17.7573C11.0262 17.4624 10.9903 17.169 10.9654 16.8774C11.0969 16.8679 11.2381 16.8577 11.3979 16.8461Z" fill="#C8523B"/>
<path id="Vector_3" d="M6.42686 7.5149C6.51019 7.37057 6.58969 7.22457 6.66587 7.07712C6.77508 7.12846 6.89017 7.18253 7.01809 7.2427L7.16909 7.3137L7.50202 6.6054L7.35098 6.53442C7.22296 6.47424 7.10789 6.42014 6.99862 6.36876C7.12954 6.06132 7.24573 5.74823 7.34695 5.43001C7.50764 5.47466 7.68029 5.52256 7.88416 5.57913L8.09339 4.82504C7.88992 4.76856 7.71755 4.72073 7.55711 4.67618C7.6357 4.34739 7.69848 4.0138 7.74643 3.67631L8.29995 3.73233L8.37859 2.95367L7.82914 2.89806C7.85386 2.55135 7.86318 2.20119 7.85625 1.84795L8.39419 1.80909L8.33768 1.02848L7.81539 1.06623C7.78811 0.744315 7.74809 0.420461 7.69479 0.0950928C7.43633 0.133153 7.17985 0.182484 6.92596 0.242663C6.97367 0.537561 7.00963 0.830964 7.03453 1.12263L6.60222 1.15385L6.65875 1.93442L7.07414 1.90441C7.07896 2.212 7.07082 2.51708 7.0499 2.81917L6.64734 2.77842L6.56852 3.55707L6.9669 3.59739C6.92432 3.89058 6.86928 4.18038 6.80181 4.4663C6.68407 4.43356 6.55825 4.39856 6.41702 4.35931L6.20734 5.11333C6.34848 5.15257 6.47427 5.18756 6.59194 5.22025C6.50327 5.49637 6.40254 5.76828 6.28973 6.03543C6.17898 5.98333 6.06046 5.9276 5.92755 5.86505L5.59441 6.57323C5.72758 6.63588 5.84627 6.69171 5.95724 6.7439C5.89077 6.87171 5.82145 6.99828 5.74914 7.12352C5.67694 7.24857 5.60209 7.37172 5.52476 7.49299L5.19569 7.26414L4.74875 7.90662L5.07747 8.13522C4.90248 8.36647 4.71744 8.58961 4.52264 8.80446L4.2379 8.52489L3.68951 9.08327L3.9746 9.36317C3.76075 9.56453 3.53726 9.75707 3.30468 9.94053L3.07057 9.61577L2.43559 10.0732L2.67222 10.4015C2.42102 10.5707 2.1609 10.7304 1.89205 10.88C1.83667 10.7658 1.77724 10.6432 1.71041 10.5052L1.0061 10.8464C1.07593 10.9905 1.13772 11.118 1.19519 11.2366C0.930166 11.3609 0.658123 11.4764 0.378899 11.5825C0.453726 11.8325 0.539278 12.0793 0.635536 12.3221C0.943927 12.2056 1.2444 12.0783 1.53681 11.941L1.76539 12.4122L2.46962 12.0708L2.23427 11.5855C2.54364 11.4149 2.84231 11.2317 3.13022 11.0369L3.45318 11.485L4.0881 11.0274L3.76286 10.5762C4.0311 10.3659 4.28858 10.1448 4.53396 9.91235L4.93118 10.3023L5.47953 9.74392L5.08175 9.35336C5.30671 9.10663 5.51979 8.84948 5.72053 8.5824L6.17724 8.89999L6.62408 8.25745L6.16763 7.94002C6.2571 7.80063 6.34367 7.65899 6.42686 7.5149Z" fill="#C8523B"/>
<path id="Vector_4" opacity="0.3" d="M13.5 1.20575L4.5 16.7942C8.80465 19.2795 14.309 17.8046 16.7942 13.5C19.2795 9.19537 17.8047 3.69105 13.5 1.20575Z" fill="#5B5B5F"/>
</g>
</g>
<defs>
<clipPath id="clip0">
<rect width="18" height="18" fill="white"/>
</clipPath>
</defs>
</svg>
