<svg width="18" height="18" viewBox="0 0 18 18" fill="none" xmlns="http://www.w3.org/2000/svg">
<g clip-path="url(#clip0)">
<path d="M14.054 0.814674H15.444V1.74132C14.4593 1.74164 13.5147 2.13113 12.8164 2.82519C12.7175 2.63306 12.6653 2.42054 12.6641 2.20464C12.6641 1.43708 13.2865 0.814674 14.054 0.814674Z" fill="#383856"/>
<path d="M15.444 2.20464C15.4458 2.97035 14.8268 3.59244 14.0614 3.59461C13.5339 3.59585 13.0514 3.29779 12.8163 2.82519C13.5147 2.13145 14.4592 1.74164 15.444 1.74132V2.20464Z" fill="#FFD33F"/>
<path d="M7.1042 11.6255L4.55161 13.9229C4.24797 14.196 4.20318 14.6556 4.44815 14.9824C4.70978 15.3311 5.2046 15.4015 5.553 15.1399C5.56165 15.1335 5.5703 15.1266 5.57895 15.1195L8.33973 12.861L10.193 11.0077L12.664 12.861L12.1699 16.3186C12.1105 16.7337 12.3994 17.1186 12.8145 17.1776C12.8497 17.1826 12.8855 17.1854 12.9214 17.1854H12.9402C13.3164 17.1872 13.6401 16.92 13.7099 16.5503C13.9614 15.2163 14.5173 12.2433 14.5173 12.2433L12.0463 10.0811L9.26641 8.53673L7.1042 11.6255Z" fill="#EA3836"/>
<path d="M16.328 7.01327L15.7529 7.30113L13.8996 4.83011L12.0463 3.59458L8.03085 2.97685L6.29803 4.70319L7.22778 5.76512L8.64861 4.52126L10.8108 5.13902L9.26634 8.53669L12.0462 10.0811L13.2818 6.68343L15.444 9.15446L16.9436 8.49131L16.328 7.01327Z" fill="#91CECE"/>
<path d="M17.9431 7.21683L17.9351 7.19735C17.7705 6.77973 17.2985 6.57494 16.8809 6.73958C16.8587 6.74854 16.8364 6.75811 16.8151 6.76894L16.328 7.01327L16.9436 8.49128L17.5305 8.23214C17.9187 8.06008 18.1013 7.61128 17.9431 7.21683Z" fill="#FFD33F"/>
<path d="M5.72819 5.2709C5.45977 5.53344 5.45513 5.96341 5.71739 6.23182C5.97097 6.49128 6.38364 6.50548 6.65483 6.26455L7.22781 5.76509L6.29807 4.70316L5.72819 5.2709Z" fill="#FFD33F"/>
<path d="M5.55985 2.35909H2.16218C1.99159 2.35909 1.8533 2.49738 1.8533 2.66797C1.8533 2.83856 1.99159 2.97685 2.16218 2.97685H5.55985C5.73044 2.97685 5.86874 2.83856 5.86874 2.66797C5.86874 2.49738 5.73044 2.35909 5.55985 2.35909Z" fill="#383856"/>
<path d="M0.617767 2.66797C0.617767 2.83856 0.756058 2.97685 0.926649 2.97685C1.09724 2.97685 1.23553 2.83856 1.23553 2.66797C1.23553 2.49738 1.09724 2.35909 0.926649 2.35909C0.756058 2.35909 0.617767 2.49738 0.617767 2.66797Z" fill="#383856"/>
<path d="M3.08878 5.13899C3.08878 5.30958 3.22707 5.44787 3.39766 5.44787C3.56825 5.44787 3.70654 5.30958 3.70654 5.13899C3.70654 4.9684 3.56825 4.83011 3.39766 4.83011C3.22707 4.83011 3.08878 4.9684 3.08878 5.13899Z" fill="#383856"/>
<path d="M2.16214 4.83011H0.308882C0.138291 4.83011 0 4.9684 0 5.13899C0 5.30958 0.138291 5.44787 0.308882 5.44787H2.16214C2.33273 5.44787 2.47102 5.30958 2.47102 5.13899C2.47102 4.9684 2.33273 4.83011 2.16214 4.83011Z" fill="#383856"/>
<path d="M4.32435 7.30117H1.85332C1.68272 7.30117 1.54443 7.43946 1.54443 7.61005C1.54443 7.78064 1.68273 7.91893 1.85332 7.91893H4.32435C4.49494 7.91893 4.63323 7.78064 4.63323 7.61005C4.63323 7.43946 4.49494 7.30117 4.32435 7.30117Z" fill="#383856"/>
<path d="M5.55984 9.77219H0.926649C0.756059 9.77219 0.617767 9.91048 0.617767 10.0811C0.617767 10.2517 0.756058 10.39 0.926649 10.39H5.55984C5.73043 10.39 5.86872 10.2517 5.86872 10.0811C5.86872 9.91048 5.73043 9.77219 5.55984 9.77219Z" fill="#383856"/>
<path d="M3.39768 12.2432H1.54442C1.37383 12.2432 1.23553 12.3815 1.23553 12.5521C1.23553 12.7227 1.37383 12.861 1.54442 12.861H3.39768C3.56827 12.861 3.70656 12.7227 3.70656 12.5521C3.70656 12.3815 3.56827 12.2432 3.39768 12.2432Z" fill="#383856"/>
<path d="M0 12.5521C0 12.7227 0.138291 12.861 0.308882 12.861C0.479473 12.861 0.617764 12.7227 0.617764 12.5521C0.617764 12.3815 0.479473 12.2432 0.308882 12.2432C0.138291 12.2432 0 12.3815 0 12.5521Z" fill="#383856"/>
<path d="M2.47106 14.7143H0.926649C0.756058 14.7143 0.617767 14.8526 0.617767 15.0232C0.617767 15.1937 0.756058 15.332 0.926649 15.332H2.47106C2.64165 15.332 2.77994 15.1937 2.77994 15.0232C2.77994 14.8526 2.64165 14.7143 2.47106 14.7143Z" fill="#383856"/>
<path d="M5.76367 6.26395C6.01943 6.48666 6.40028 6.48666 6.65604 6.26395L7.22779 5.76512L6.87165 5.35801L5.76367 6.26395Z" fill="#FFAC3E"/>
<path d="M8.64863 3.9035L6.87103 5.35801L7.22717 5.76509L8.64863 4.52123L10.8108 5.13899L11.1197 4.52123L8.64863 3.9035Z" fill="#83B2B7"/>
<path d="M15.634 8.40078L13.5907 6.06564L13.2818 6.6834L15.444 9.15442L16.9436 8.49127L16.7058 7.91984L15.634 8.40078Z" fill="#83B2B7"/>
<path d="M16.7057 7.91893L16.9436 8.49036L17.5304 8.23122C17.8714 8.08019 18.0598 7.71105 17.982 7.34627L16.7057 7.91893Z" fill="#FFAC3E"/>
<path d="M10.6307 9.29466L12.0463 10.0811L13.2818 6.6834L13.5907 6.06564L10.6307 9.29466Z" fill="#83B2B7"/>
<path d="M12.2782 16.8239C12.2662 16.8045 12.2548 16.7847 12.2446 16.7643C12.2548 16.7838 12.2662 16.8044 12.2782 16.8239Z" fill="#EA3836"/>
<path d="M12.4812 17.0423C12.4596 17.0262 12.4389 17.0089 12.4194 16.9904C12.4392 17.0089 12.4596 17.0262 12.4812 17.0423Z" fill="#EA3836"/>
<path d="M12.3694 16.9438C12.3524 16.9256 12.3385 16.9061 12.3221 16.8866C12.3373 16.9073 12.3524 16.9256 12.3694 16.9438Z" fill="#EA3836"/>
<path d="M12.2112 16.6856C12.2041 16.6661 12.1964 16.6466 12.1909 16.6266C12.1964 16.6469 12.2041 16.6661 12.2112 16.6856Z" fill="#EA3836"/>
<path d="M12.1723 16.5286C12.1702 16.5113 12.1661 16.4944 12.1649 16.4768C12.1661 16.4943 12.1699 16.5113 12.1723 16.5286Z" fill="#EA3836"/>
<path d="M12.7388 17.1618C12.6647 17.1424 12.5943 17.1118 12.5294 17.0714C12.5943 17.1121 12.6647 17.1427 12.7388 17.1618Z" fill="#EA3836"/>
<path d="M12.2446 16.7643C12.232 16.7387 12.2208 16.7124 12.2113 16.6855C12.2208 16.7124 12.232 16.7387 12.2446 16.7643Z" fill="#D62121"/>
<path d="M12.4191 16.9904C12.4022 16.9753 12.3849 16.9595 12.3694 16.9438C12.3861 16.9602 12.4022 16.975 12.4191 16.9904Z" fill="#D62121"/>
<path d="M12.5294 17.0714C12.5133 17.0618 12.4964 17.0534 12.4812 17.0423C12.4964 17.0534 12.5134 17.0618 12.5294 17.0714Z" fill="#D62121"/>
<path d="M12.1909 16.6266C12.1825 16.5944 12.1763 16.5617 12.1723 16.5286C12.1763 16.5617 12.1825 16.5944 12.1909 16.6266Z" fill="#D62121"/>
<path d="M12.1649 16.4768C12.1612 16.424 12.1628 16.3711 12.1699 16.3186C12.1628 16.3711 12.1609 16.4242 12.1649 16.4768Z" fill="#D62121"/>
<path d="M12.3221 16.8866C12.3064 16.8669 12.2919 16.8462 12.2783 16.8249C12.2934 16.8455 12.3064 16.8663 12.3221 16.8866Z" fill="#D62121"/>
<path d="M12.0463 10.0811L10.6563 9.30887L13.8996 12.5521L12.821 17.1742C12.854 17.1804 12.8877 17.1841 12.9213 17.1853H12.9402C13.3164 17.1872 13.6401 16.92 13.7099 16.5502C13.9614 15.2162 14.5173 12.2432 14.5173 12.2432L12.0463 10.0811Z" fill="#D62121"/>
<path d="M7.722 12.5521L4.48773 15.0253C4.76634 15.3466 5.24943 15.3883 5.57902 15.1198L8.3398 12.861L10.1931 11.0077L9.57532 10.6988L7.722 12.5521Z" fill="#D62121"/>
<path d="M15.1351 1.75647V1.89576C15.1351 2.66333 14.5127 3.28573 13.7451 3.28573C13.4539 3.28541 13.1703 3.19151 12.9362 3.01823C13.3819 3.63908 14.2465 3.78083 14.8673 3.33512C15.2312 3.07381 15.4462 2.6525 15.444 2.20464V1.74132C15.3405 1.74132 15.2377 1.74811 15.1351 1.75647Z" fill="#FFAC3E"/>
<path d="M15.444 0.814674C15.4576 1.15569 15.3479 1.48988 15.1351 1.75644C15.2377 1.74811 15.3405 1.74129 15.444 1.74129V0.814674Z" fill="#202033"/>
</g>
<defs>
<clipPath id="clip0">
<rect width="18" height="18" fill="white"/>
</clipPath>
</defs>
</svg>
