<svg width="18" height="18" viewBox="0 0 18 18" fill="none" xmlns="http://www.w3.org/2000/svg">
<g id="4 - Ice Hockey" clip-path="url(#clip0)">
<g id="Group">
<path id="Vector" d="M17.7361 1.67019C17.7179 1.57241 17.6614 1.48561 17.579 1.42956L16.6709 0.809924C16.588 0.753072 16.4853 0.732187 16.3864 0.751701C16.2875 0.77146 16.2012 0.829999 16.1458 0.914029C16.1255 0.945074 14.0978 4.03915 11.8127 7.3104C8.01407 12.7476 6.44901 14.4758 5.80522 14.968C5.78159 14.9861 5.6341 15.0768 5.06804 15.0768C4.2847 15.0768 3.183 14.9048 2.29777 14.7669C1.66632 14.6681 1.1678 14.5906 0.895322 14.5906C0.84944 14.5906 0.809359 14.5928 0.772829 14.5966C0.430593 14.6368 0.150975 14.94 0.0430371 15.3882C-0.0750614 15.8793 0.0309425 16.616 0.719247 17.0752C0.851092 17.1636 1.25236 17.4312 3.26429 17.4312C4.01908 17.4312 4.85076 17.3911 5.54648 17.3207C5.88953 17.2867 6.17354 17.2471 6.39026 17.2043C6.72645 17.1384 6.88849 17.067 6.98768 16.9412C9.88343 13.2788 17.5987 2.0646 17.6767 1.95171C17.7328 1.86957 17.7547 1.76825 17.7361 1.67019Z" fill="#5D9CEC"/>
<path id="Vector_2" d="M11.21 11.1979C11.355 10.9947 11.5001 10.7903 11.6456 10.5849L10.291 9.45764C10.1394 9.66803 9.99217 9.87129 9.84991 10.0663L11.21 11.1979Z" fill="#434A54"/>
<path id="Vector_3" d="M10.8684 8.65018L12.2049 9.79552C12.3505 9.59009 12.4955 9.38462 12.6394 9.18031L11.304 8.03549C11.1551 8.24645 11.0101 8.45135 10.8684 8.65018Z" fill="#434A54"/>
<path id="Vector_4" opacity="0.2" d="M17.6921 1.55182C17.6872 1.56033 17.6822 1.56859 17.6767 1.57682C17.5987 1.68943 9.88342 12.9042 6.98764 16.5666C6.88849 16.6918 6.72641 16.7632 6.39022 16.8297C6.1735 16.8726 5.88952 16.9115 5.54644 16.9461C4.85072 17.0165 4.01904 17.0566 3.26425 17.0566C1.25232 17.0566 0.851052 16.7885 0.719206 16.7006C0.258309 16.3929 0.0586425 15.9606 0.0124789 15.5618C-0.0440916 16.0408 0.107795 16.6671 0.719206 17.0752C0.851052 17.1637 1.25232 17.4312 3.26425 17.4312C4.01904 17.4312 4.85072 17.3911 5.54644 17.3208C5.88949 17.2867 6.1735 17.2471 6.39022 17.2043C6.72641 17.1384 6.88845 17.067 6.98764 16.9412C9.88342 13.2788 17.5987 2.06461 17.6767 1.95172C17.7328 1.86958 17.7547 1.76826 17.7361 1.6702C17.7284 1.62818 17.713 1.58835 17.6921 1.55182Z" fill="white"/>
<path id="Vector_5" d="M17.6246 2.2901C17.5521 2.2901 17.4785 2.26868 17.4136 2.22474L15.9909 1.25351C15.8195 1.13678 15.7755 0.903571 15.892 0.732453C16.009 0.561334 16.2425 0.517386 16.4133 0.634148L17.8366 1.60538C18.0074 1.7221 18.0514 1.95531 17.9349 2.1264C17.8624 2.23268 17.7443 2.2901 17.6246 2.2901Z" fill="#4A89DC"/>
<path id="Vector_6" d="M11.6237 2.8894H6.3746C6.16748 2.8894 5.99942 3.0575 5.99942 3.26434V4.76428C5.99942 5.15816 6.3496 5.45782 7.04037 5.6553C7.56856 5.8061 8.26428 5.88932 8.99927 5.88932C9.73399 5.88932 10.43 5.8061 10.9579 5.6553C11.6489 5.45782 11.9988 5.15816 11.9988 4.76428V3.2643C11.9989 3.0575 11.8308 2.8894 11.6237 2.8894Z" fill="#656D78"/>
<path id="Vector_7" d="M17.9569 15.3882C17.8492 14.94 17.5696 14.6368 17.2274 14.5966C17.1906 14.5928 17.1505 14.5906 17.1049 14.5906C16.8324 14.5906 16.3336 14.668 15.7024 14.7669C14.8175 14.9048 13.7155 15.0768 12.9322 15.0768C12.3658 15.0768 12.2186 14.9861 12.195 14.968C11.5512 14.4758 9.98611 12.7476 6.18752 7.3104C3.90206 4.03915 1.87448 0.945074 1.85416 0.914029L1.64486 0.59433L0.110321 1.64161L0.323454 1.95171C0.40119 2.06457 8.11647 13.2788 11.0123 16.9412C11.1117 17.067 11.2738 17.1384 11.6099 17.2043C11.8264 17.2472 12.1104 17.2867 12.4537 17.3213C13.1491 17.3911 13.9808 17.4312 14.7356 17.4312C15.2332 17.4312 16.7477 17.4312 17.2806 17.0752C17.9689 16.616 18.075 15.8793 17.9569 15.3882Z" fill="#ED5564"/>
<path id="Vector_8" d="M6.79014 11.1979L8.15029 10.0663C8.00776 9.87129 7.8608 9.66807 7.70919 9.45764L6.35428 10.5849C6.49984 10.7903 6.64511 10.9946 6.79014 11.1979Z" fill="#434A54"/>
<path id="Vector_9" d="M5.36053 9.18031C5.50472 9.38465 5.64975 9.59009 5.79503 9.79552L7.13155 8.65018C6.99011 8.45132 6.84508 8.24645 6.69622 8.03549L5.36053 9.18031Z" fill="#434A54"/>
<path id="Vector_10" opacity="0.2" d="M17.2806 16.7006C16.7478 17.0566 15.2333 17.0566 14.7356 17.0566C13.9808 17.0566 13.1491 17.0164 12.4537 16.9461C12.1104 16.9115 11.8264 16.8725 11.6099 16.8297C11.2737 16.7632 11.1117 16.6918 11.0123 16.5666C8.1165 12.9042 0.40119 1.68941 0.323454 1.5768L0.285834 1.52188L0.110321 1.64163L0.323454 1.95173C0.40119 2.06459 8.11647 13.2789 11.0123 16.9412C11.1117 17.067 11.2738 17.1384 11.6099 17.2043C11.8264 17.2472 12.1104 17.2867 12.4537 17.3213C13.1491 17.3911 13.9808 17.4312 14.7356 17.4312C15.2332 17.4312 16.7477 17.4312 17.2806 17.0753C17.892 16.6671 18.0442 16.0409 17.9876 15.5619C17.9415 15.9607 17.7415 16.3929 17.2806 16.7006Z" fill="white"/>
<path id="Vector_11" d="M0.375407 2.2901C0.255656 2.2901 0.137839 2.23268 0.0653063 2.1264C-0.0514209 1.95528 -0.00747243 1.72211 0.16361 1.60538L1.58666 0.634154C1.75778 0.517427 1.99099 0.561375 2.10772 0.732458C2.22444 0.903576 2.18049 1.13678 2.00938 1.25351L0.586324 2.2247C0.521527 2.26865 0.448186 2.2901 0.375407 2.2901Z" fill="#DA4453"/>
<path id="Vector_12" d="M10.9579 2.3736C10.43 2.22281 9.73395 2.13959 8.99927 2.13959C8.26428 2.13959 7.56856 2.22281 7.04037 2.3736C6.3496 2.57081 5.99942 2.87075 5.99942 3.26432C5.99942 3.6582 6.3496 3.95782 7.04037 4.15531C7.56856 4.3061 8.26428 4.38932 8.99927 4.38932C9.73399 4.38932 10.43 4.3061 10.9579 4.15531C11.6489 3.95782 11.9988 3.65816 11.9988 3.26432C11.9989 2.87071 11.6489 2.57081 10.9579 2.3736Z" fill="#434A54"/>
</g>
</g>
<defs>
<clipPath id="clip0">
<rect width="18" height="18" fill="white"/>
</clipPath>
</defs>
</svg>
