<svg width="23" height="16" viewBox="0 0 23 16" xmlns="http://www.w3.org/2000/svg"><path d="M1.5 3.33337H20.5V12.6667H1.5V3.33337Z" fill="white" class=""></path><path d="M23 3.333c0-.619-.263-1.212-.732-1.65A2.594 2.594 0 0 0 20.5 1h-18c-.328 0-.653.06-.957.178a2.52 2.52 0 0 0-.81.505A2.257 2.257 0 0 0 0 3.333v9.334c0 .619.263 1.212.732 1.65.232.216.508.388.811.505.304.118.629.178.957.178h18c.663 0 1.299-.246 1.768-.683a2.257 2.257 0 0 0 .732-1.65V3.333ZM5.5 11.05h-1c-.464 0-.909-.172-1.237-.479a1.582 1.582 0 0 1-.513-1.154V5.683c0-.186.079-.364.22-.495a.778.778 0 0 1 .53-.205c.199 0 .39.073.53.205.141.13.22.309.22.495v3.733c0 .062.027.12.074.165a.26.26 0 0 0 .176.068h1c.199 0 .39.074.53.205.141.132.22.31.22.495a.677.677 0 0 1-.22.495.778.778 0 0 1-.53.205Zm3.75-.7a.677.677 0 0 1-.22.495.778.778 0 0 1-.53.205.778.778 0 0 1-.53-.205.677.677 0 0 1-.22-.495V5.683c0-.186.079-.364.22-.495a.778.778 0 0 1 .53-.205c.199 0 .39.073.53.205.141.13.22.309.22.495v4.666Zm5.5-3.08a5.274 5.274 0 0 1-1.424 3.531.745.745 0 0 1-.258.186.793.793 0 0 1-.894-.186 5.274 5.274 0 0 1-1.424-3.53V5.682c0-.186.079-.364.22-.495a.778.778 0 0 1 .53-.205c.199 0 .39.073.53.205.141.13.22.309.22.495v1.586c0 .462.09.92.266 1.352.018.044.05.083.091.11a.261.261 0 0 0 .286 0 .235.235 0 0 0 .091-.11c.175-.432.265-.89.266-1.352V5.683c0-.186.079-.364.22-.495a.778.778 0 0 1 .53-.205c.199 0 .39.073.53.205.141.13.22.309.22.495v1.586Zm3.867.126c.199 0 .39.074.53.205.141.132.22.31.22.495a.677.677 0 0 1-.22.495.778.778 0 0 1-.53.205H18a.26.26 0 0 0-.177.069.226.226 0 0 0-.073.165c0 .062-.02.51.027.555.047.043.157.068.223.068h1c.199 0 .39.074.53.205.141.131.22.31.22.495a.677.677 0 0 1-.22.495.778.778 0 0 1-.53.205h-1c-.464 0-.909-.173-1.237-.479a1.582 1.582 0 0 1-.513-1.154v-2.8c0-.433.185-.849.513-1.155A1.818 1.818 0 0 1 18 4.985h1c.199 0 .39.074.53.205.141.132.22.31.22.495a.677.677 0 0 1-.22.495.778.778 0 0 1-.53.205h-1a.26.26 0 0 0-.177.069.226.226 0 0 0-.073.165v.543c0 .062.026.121.073.165a.26.26 0 0 0 .177.068h.617Z" fill="#eb5e58"></path><defs><radialGradient cx="0" cy="0" r="1" gradientUnits="userSpaceOnUse" gradientTransform="translate(22.365 0.999999) rotate(147.954) scale(26.3855 30.9161)"><stop offset="1" stop-color="#EB5E58"></stop></radialGradient></defs></svg>