<svg width="30" height="30" viewBox="0 0 30 30" fill="none" xmlns="http://www.w3.org/2000/svg">
<g clip-path="url(#clip0)">
<path fill-rule="evenodd" clip-rule="evenodd" d="M4.80261 8.54497L4.77271 8.45584C5.29603 7.63874 5.78944 6.80679 6.26791 6.00455C6.77628 5.14288 7.2697 4.32579 7.74816 3.56811L7.91264 3.44926L8.07711 3.47898C9.21347 4.22179 10.3199 5.0686 11.3815 6.03426V6.13825L11.217 6.21253C9.70688 6.24225 7.83788 7.14848 6.02868 8.025C5.66983 8.20328 5.31098 8.38155 4.95213 8.54497H4.80261Z" fill="url(#paint0_linear)"/>
<path fill-rule="evenodd" clip-rule="evenodd" d="M21.5489 9.34703C20.3826 9.34703 19.0818 9.0499 17.6165 8.41108L17.4221 8.24766L17.4371 8.14367C18.1847 7.48999 18.7529 6.95517 19.336 6.30149L19.4706 6.24207L19.65 6.31635C20.6069 7.28201 21.6835 8.15853 22.9394 8.99048L22.9693 9.09447L22.8198 9.19847C22.4161 9.31732 21.9975 9.36189 21.5489 9.34703Z" fill="url(#paint1_linear)"/>
<path fill-rule="evenodd" clip-rule="evenodd" d="M23.2386 13.9823C22.82 13.9823 22.4462 13.8041 22.192 13.4772C21.9677 13.1801 21.8331 12.8533 21.8032 12.4967L21.863 12.4224L21.9378 12.3481C22.0574 12.3481 22.1621 12.363 22.2817 12.363C23.1938 12.363 24.046 12.2144 24.8833 11.8876L24.9581 11.9322L25.0329 11.9767C25.0329 12.3927 24.8833 12.8236 24.5993 13.2247C24.2703 13.7001 23.7619 13.9823 23.2386 13.9823Z" fill="url(#paint2_linear)"/>
<path fill-rule="evenodd" clip-rule="evenodd" d="M21.863 12.4373L21.8031 12.5116C21.3994 12.4819 21.0705 12.467 20.6518 12.4076L20.4724 12.3185V12.2145C21.3097 11.3676 22.0723 10.402 22.8049 9.2432L22.9545 9.13921L23.1339 9.16892C24.1955 9.86716 25.287 10.506 26.4532 11.1151L26.513 11.2339L26.2738 11.4568C25.9 11.6648 25.4514 11.8431 25.0029 12.0213L24.9281 11.9768L24.8833 11.8876C24.8534 11.3974 24.5842 10.9814 24.1357 10.6843C23.9562 10.5654 23.732 10.506 23.4927 10.506C23.0143 10.506 22.5807 10.7437 22.2966 11.1597C22.0573 11.5162 21.9228 11.9322 21.9377 12.363L21.863 12.4373Z" fill="url(#paint3_linear)"/>
<path fill-rule="evenodd" clip-rule="evenodd" d="M21.6087 15.7352C20.4574 15.7352 19.3958 15.4232 17.9903 14.6656L17.7959 14.4873L17.8258 14.3833C18.6781 13.7742 19.5004 13.1502 20.3378 12.348L20.4873 12.3034L20.6667 12.3926C21.6535 13.5365 22.5955 14.4873 23.5225 15.2895V15.3935L23.3431 15.4975C22.7301 15.6609 22.1619 15.7352 21.6087 15.7352Z" fill="url(#paint4_linear)"/>
<path fill-rule="evenodd" clip-rule="evenodd" d="M20.3378 12.3482C19.979 12.2888 19.6052 12.1997 19.2015 12.0808L19.1267 11.9768L19.037 11.8728C18.9772 11.5311 18.8127 11.1597 18.5884 10.818C18.11 10.1049 17.5268 9.67409 17.0633 9.67409C16.9138 9.67409 16.7792 9.71866 16.6596 9.82265C16.4503 10.0009 16.3755 10.3723 16.4503 10.8329L16.3905 10.8774L16.3307 10.922C15.9569 10.7289 15.5831 10.5358 15.2691 10.3575L15.0149 10.1495L15.0298 10.0455C15.8821 9.42153 16.5849 8.90156 17.2876 8.2776L17.4222 8.26274L17.6166 8.42616C18.6034 9.86722 19.5454 11.1003 20.4724 12.1997V12.3037L20.3378 12.3482Z" fill="url(#paint5_linear)"/>
<path d="M18.394 13.1802C17.8706 13.1802 17.2127 12.7048 16.7492 11.9768C16.5548 11.6797 16.4053 11.2934 16.3306 10.922L16.3904 10.8774L16.4502 10.8329C17.0782 11.1449 18.0351 11.5608 19.0369 11.8877L19.1266 11.9917L19.2014 12.0957C19.2313 12.5413 19.0668 12.883 18.7678 13.091C18.6631 13.1356 18.5285 13.1802 18.394 13.1802Z" fill="#2D2C2B"/>
<path fill-rule="evenodd" clip-rule="evenodd" d="M1.46838 12.8087C2.7094 11.6647 3.63643 10.2237 4.60831 8.70833L4.78774 8.54491L4.93726 8.55976C5.89419 9.06488 6.94083 9.5997 8.18186 10.194L8.21176 10.2831L7.98748 10.5059C7.53892 10.7882 7.09036 11.0408 6.6717 11.2636L6.59694 11.219L6.52218 11.1745C6.53713 10.6842 6.34275 10.3277 5.9839 10.1494C5.86429 10.09 5.71477 10.0602 5.5802 10.0602C5.08678 10.0602 4.27937 10.4762 3.62148 11.427C3.3972 11.739 3.24768 12.1253 3.20282 12.5115L3.12806 12.6007L3.0533 12.6898C2.55988 12.8087 2.11132 12.9275 1.588 12.9869L1.43848 12.9275L1.46838 12.8087Z" fill="url(#paint6_linear)"/>
<path fill-rule="evenodd" clip-rule="evenodd" d="M4.99689 15.6017L4.98193 15.5126C5.93887 14.1607 6.64161 12.8979 7.2696 11.7837C7.52378 11.338 7.76302 10.9071 8.00225 10.506L8.22653 10.2832L8.37605 10.2683C10.0357 11.0557 11.1123 11.6945 12.0393 12.4225V12.5116L11.8001 12.6305C10.2301 12.8979 8.705 13.7447 7.32941 14.5024C6.56685 14.9332 5.8342 15.3343 5.14641 15.6166L4.99689 15.6017Z" fill="url(#paint7_linear)"/>
<path fill-rule="evenodd" clip-rule="evenodd" d="M4.99689 22.6731L4.98193 22.584C6.26781 20.9201 7.22474 19.2116 8.12187 17.5477L8.33119 17.3249L8.48071 17.31C9.75164 17.8597 10.9478 18.5282 12.0543 19.2859L12.0692 19.3899L11.8748 19.5088C10.7833 19.791 9.72174 20.415 8.58538 21.0687C7.50883 21.6926 6.38743 22.3315 5.17631 22.7029L4.99689 22.6731Z" fill="url(#paint8_linear)"/>
<path fill-rule="evenodd" clip-rule="evenodd" d="M11.8001 17.8896C11.3366 17.8896 10.9179 17.7559 10.589 17.4885C10.2601 17.2359 10.0806 16.8199 10.0657 16.3445L10.1404 16.2405L10.2152 16.1365C11.0824 15.7651 11.9347 15.5869 12.757 15.5869C13.0411 15.5869 13.3252 15.6166 13.6093 15.6611L13.699 15.7503L13.7887 15.8394C13.8485 16.4039 13.6691 16.9536 13.2505 17.3548C12.8916 17.6816 12.3533 17.8896 11.8001 17.8896Z" fill="url(#paint9_linear)"/>
<path fill-rule="evenodd" clip-rule="evenodd" d="M8.30151 17.2357C9.3033 15.4233 10.4247 13.9525 11.8003 12.6303L12.0096 12.5263L12.189 12.5709C13.3254 13.492 14.2973 14.6359 15.314 16.2404L15.2991 16.3444L15.1645 16.3592C14.7458 16.1364 14.2674 15.9135 13.774 15.8095L13.6842 15.7204L13.5945 15.6313C13.5347 15.3044 13.4151 15.0222 13.2357 14.7845C12.9665 14.4131 12.5778 14.2051 12.1292 14.2051C11.6508 14.2051 11.1574 14.4428 10.7836 14.8587C10.4546 15.2153 10.2453 15.661 10.2004 16.1067L10.1257 16.2107L10.0509 16.3147C9.55748 16.5375 9.01921 16.8792 8.45103 17.2655L8.30151 17.2803V17.2357Z" fill="url(#paint10_linear)"/>
<path fill-rule="evenodd" clip-rule="evenodd" d="M18.5584 19.5386C18.08 19.5386 17.437 19.0037 16.9436 18.2164C16.7193 17.8598 16.5698 17.4587 16.51 17.1021L16.5698 17.0576L16.6296 17.013C17.4071 17.4141 18.2444 17.8301 19.1565 18.1272L19.2313 18.2312L19.306 18.3204C19.321 18.8403 19.1565 19.2712 18.8724 19.4494C18.7977 19.494 18.693 19.5237 18.5584 19.5386Z" fill="url(#paint11_linear)"/>
<path fill-rule="evenodd" clip-rule="evenodd" d="M4.98193 22.5841C3.6811 21.8115 2.5896 20.9201 1.57286 19.7911L1.42334 19.7316V23.1189L1.48315 23.1932C1.67752 23.2229 1.88685 23.2377 2.12609 23.2377C2.88864 23.2377 3.80072 23.0892 4.81746 22.8069L5.01183 22.688L4.98193 22.5841Z" fill="url(#paint12_linear)"/>
<path fill-rule="evenodd" clip-rule="evenodd" d="M18.0353 20.742C16.9139 20.1032 15.4336 19.2861 13.5945 19.2861C13.1459 19.2861 12.6974 19.3307 12.2339 19.4198L12.0694 19.3901L12.0544 19.2861C12.9217 18.3205 13.9384 17.3696 15.1794 16.3743L15.314 16.3594L15.5084 16.5377C16.4803 18.0828 17.3176 19.405 18.1848 20.6529L18.1698 20.7569L18.0353 20.742Z" fill="url(#paint13_linear)"/>
<path fill-rule="evenodd" clip-rule="evenodd" d="M26.1243 17.3695L25.9748 17.533C25.3618 18.8403 24.6291 20.1774 23.8367 21.3807L23.8516 21.4847L24.0161 21.5144C24.7338 21.3213 25.5711 21.0093 26.3486 20.6082L26.3935 20.5042C26.1692 19.3751 26.1094 18.3203 26.1243 17.3695Z" fill="url(#paint14_linear)"/>
<path fill-rule="evenodd" clip-rule="evenodd" d="M21.8629 21.7819C20.6368 21.7819 19.4706 21.4848 18.3791 20.9202L18.1548 20.7271L18.1697 20.6231C19.0519 19.9992 19.7995 19.286 20.5471 18.5581L20.6966 18.5135L20.8611 18.6027C21.8031 19.6872 22.775 20.5785 23.8216 21.3511L23.8366 21.4551L23.687 21.5591C23.074 21.7076 22.461 21.7819 21.8629 21.7819Z" fill="url(#paint15_linear)"/>
<path fill-rule="evenodd" clip-rule="evenodd" d="M4.89228 28.1997C4.54838 28.1997 4.20448 28.0958 3.90544 27.8878C3.51669 27.6204 3.24755 27.1747 3.18774 26.6844L3.24755 26.6101L3.30736 26.5358C4.51848 26.4467 5.69969 26.1496 6.83605 25.6296L6.91081 25.6742L6.98557 25.7187C7.00052 26.1644 6.851 26.6547 6.56691 27.1301C6.1632 27.8135 5.56512 28.1849 4.89228 28.1997Z" fill="url(#paint16_linear)"/>
<path fill-rule="evenodd" clip-rule="evenodd" d="M18.6483 10.7882C18.0203 9.86713 17.1681 9.31745 16.6148 9.77799C16.3606 10.0008 16.3008 10.4317 16.3906 10.8922C17.2129 11.2933 18.1848 11.7093 19.1268 11.9916C19.067 11.6053 18.9025 11.1745 18.6483 10.7882Z" fill="url(#paint17_linear)"/>
<path fill-rule="evenodd" clip-rule="evenodd" d="M19.2462 25.5257C18.7827 25.5257 18.065 25.1543 17.6164 24.456C17.3622 24.0549 17.1678 23.6092 17.0781 23.2081L17.1379 23.1635L17.1977 23.119C17.6613 23.3121 18.065 23.4904 18.4537 23.6835C18.9023 23.8915 19.3359 24.0995 19.7845 24.2629L19.8742 24.3669L19.9489 24.4709C19.9639 24.9017 19.8144 25.288 19.5602 25.4514C19.4854 25.496 19.3658 25.5257 19.2462 25.5257Z" fill="url(#paint18_linear)"/>
<path fill-rule="evenodd" clip-rule="evenodd" d="M23.4328 20.0436C23.1188 20.0436 22.8049 19.9396 22.5656 19.7317C22.2367 19.4642 22.0423 19.0928 22.0273 18.6769L22.1021 18.6026L22.1769 18.5283C23.0889 18.4837 23.9861 18.2757 24.9131 17.8895L24.9879 17.934L25.0626 17.9786C25.0776 18.4094 24.9579 18.8997 24.7038 19.286C24.3898 19.7762 23.9263 20.0436 23.4328 20.0436Z" fill="url(#paint19_linear)"/>
<path fill-rule="evenodd" clip-rule="evenodd" d="M17.6763 14.5022C17.5118 14.4131 17.3324 14.3091 17.153 14.2051C15.882 13.4623 14.2971 12.556 12.6225 12.556C12.473 12.556 12.3384 12.5709 12.1889 12.5858L12.0244 12.5263V12.4372C12.9813 11.5607 13.9532 10.8476 14.8952 10.1642L15.0298 10.1493L15.269 10.3573C15.897 11.2487 16.51 12.2292 17.138 13.2691C17.3623 13.6406 17.6015 14.012 17.8258 14.3982L17.7959 14.5022H17.6763Z" fill="url(#paint20_linear)"/>
<path fill-rule="evenodd" clip-rule="evenodd" d="M15.2989 16.3593C14.7756 16.0919 14.2523 15.8394 13.699 15.7354C13.7887 16.3148 13.6093 16.8793 13.2056 17.2953C12.6075 17.8895 11.4263 18.0678 10.6488 17.4438C10.3049 17.1764 10.1404 16.7307 10.1554 16.2553C9.58721 16.5079 8.95923 16.909 8.34619 17.3398C9.73673 17.9341 10.9778 18.6472 12.0693 19.4049C12.8916 18.4541 13.9532 17.4438 15.2989 16.3593Z" fill="url(#paint21_linear)"/>
<path fill-rule="evenodd" clip-rule="evenodd" d="M1.48321 19.5832C2.90365 18.3204 3.87554 17.0577 4.80257 15.7652L4.99694 15.6166L5.16141 15.6314C6.23796 16.2554 7.34442 16.82 8.30135 17.2359L8.33125 17.3251L8.12192 17.5479C7.64346 17.8748 7.1949 18.1719 6.74633 18.4096L6.67157 18.365L6.59681 18.3204C6.58186 17.9045 6.40244 17.6073 6.08844 17.4142C5.89407 17.2954 5.68474 17.2359 5.46046 17.2359C4.90723 17.2359 4.27924 17.5925 3.75592 18.2164C3.45688 18.573 3.2625 19.0187 3.21765 19.4644L3.14289 19.5535L3.06813 19.6427C2.57471 19.7169 2.12615 19.7615 1.55797 19.7764L1.40845 19.7169L1.48321 19.5832Z" fill="url(#paint22_linear)"/>
<path fill-rule="evenodd" clip-rule="evenodd" d="M1.76724 16.4187C1.67752 16.4187 1.57286 16.4187 1.48315 16.4039L1.42334 16.3444V12.9572L1.57286 13.0166C2.46998 13.8634 3.69605 14.7697 4.98193 15.5273L4.99688 15.6165L4.8025 15.765C3.62129 16.1959 2.60455 16.4187 1.76724 16.4187Z" fill="url(#paint23_linear)"/>
<path fill-rule="evenodd" clip-rule="evenodd" d="M20.4725 6.39065C20.2034 6.39065 19.9342 6.37579 19.6651 6.34608L19.4857 6.27179L19.4707 6.15294C20.1136 5.41013 20.8612 4.45933 21.564 3.04798L21.7135 2.94398L21.878 2.9737C22.7302 3.55309 24.061 4.22163 25.1525 4.62275L25.2422 4.72674L25.0628 4.94958C24.7189 5.20214 24.3451 5.43984 23.9563 5.63297L23.8816 5.5884L23.8068 5.54384C23.7021 5.06843 23.4031 4.68217 22.9246 4.47418C22.7602 4.3999 22.5807 4.35533 22.4013 4.35533C21.878 4.35533 21.3846 4.69703 21.1304 5.23185C20.9809 5.55869 20.9211 5.91524 20.9659 6.24208L20.9061 6.31636L20.8463 6.39065C20.7117 6.37579 20.5921 6.37579 20.4725 6.39065Z" fill="url(#paint24_linear)"/>
<path fill-rule="evenodd" clip-rule="evenodd" d="M21.2201 24.6938C20.7865 24.6641 20.3977 24.6046 19.9492 24.4561L19.8744 24.3521L19.7847 24.2481C19.7398 23.9807 19.6053 23.5944 19.2913 23.1784C18.7679 22.5099 18.1848 22.1236 17.7362 22.1236C17.5867 22.1236 17.4522 22.1682 17.3475 22.2574C17.183 22.4059 17.1232 22.703 17.198 23.119L17.1382 23.1636L17.0784 23.2082C16.6746 23.0447 16.3307 22.9259 15.942 22.807L15.7327 22.6882V22.5842C16.5251 21.8562 17.3026 21.2768 18.0353 20.7569H18.1549L18.3792 20.95C19.3959 22.3762 20.3678 23.5498 21.3696 24.5452L21.3846 24.6492L21.2201 24.6938Z" fill="url(#paint25_linear)"/>
<path fill-rule="evenodd" clip-rule="evenodd" d="M21.7584 18.677C21.4593 18.677 21.1603 18.6472 20.8613 18.6175L20.6968 18.5284V18.4244C21.5939 17.5479 22.4611 16.5971 23.3283 15.4977L23.5078 15.3937L23.6573 15.4234C24.4049 16.0622 25.1824 16.6416 26.0496 17.221L26.1094 17.3399L25.9599 17.5033C25.6459 17.6667 25.3319 17.8301 25.0329 17.949L24.9581 17.9044L24.8834 17.8599C24.8534 17.533 24.7189 17.2507 24.5245 17.0725C24.3152 16.8942 24.061 16.7902 23.7919 16.7902C23.3582 16.7902 22.8947 17.0428 22.5508 17.4736C22.3116 17.7707 22.1621 18.1421 22.1621 18.4987L22.0873 18.573L22.0126 18.6472C21.9378 18.677 21.8481 18.677 21.7584 18.677Z" fill="url(#paint26_linear)"/>
<path fill-rule="evenodd" clip-rule="evenodd" d="M26.5279 11.2043L26.2886 11.4271C25.1822 13.0613 24.3 14.2944 23.5076 15.2898V15.3938L23.6571 15.4235C24.5393 15.1858 25.4962 14.7995 26.2587 14.3687L26.3485 14.235C26.498 13.2842 26.5428 12.2739 26.5279 11.2043Z" fill="url(#paint27_linear)"/>
<path fill-rule="evenodd" clip-rule="evenodd" d="M4.21943 14.1307C3.96525 14.1307 3.72601 14.0564 3.51669 13.9079C3.20269 13.6702 3.02327 13.2245 3.03822 12.6897L3.11298 12.6005L3.18774 12.5114C4.27924 12.1697 5.37074 11.7834 6.5071 11.1892L6.58186 11.2337L6.65662 11.2783C6.62671 11.7091 6.46224 12.1994 6.17815 12.6897C5.63988 13.581 4.89227 14.1307 4.21943 14.1307Z" fill="url(#paint28_linear)"/>
<path fill-rule="evenodd" clip-rule="evenodd" d="M11.8001 11.2338C11.2619 11.2338 10.7386 11.0407 10.3648 10.699C10.0059 10.387 9.82648 9.97102 9.81152 9.51048L9.88628 9.40648L9.96104 9.30249C10.5591 9.10936 11.1273 9.02022 11.7104 9.02022C12.2487 9.02022 12.772 9.0945 13.3253 9.27278L13.415 9.37677L13.4897 9.48076C13.5196 9.97102 13.3552 10.4316 13.0412 10.7733C12.772 11.0555 12.3085 11.2338 11.8001 11.2338Z" fill="url(#paint29_linear)"/>
<path fill-rule="evenodd" clip-rule="evenodd" d="M1.42334 9.55516V6.16792L1.57286 6.21249C2.44008 6.98502 3.54653 7.75755 4.7726 8.44094L4.8025 8.53007L4.62308 8.69349C3.35215 9.27289 2.23075 9.59973 1.4981 9.61458L1.42334 9.55516Z" fill="url(#paint30_linear)"/>
<path fill-rule="evenodd" clip-rule="evenodd" d="M20.6966 18.543L20.5471 18.5876C20.1434 18.5282 19.7397 18.439 19.3211 18.3053L19.2463 18.2162L19.1715 18.1122C19.1267 17.7705 19.022 17.4288 18.8426 17.1168C18.3043 16.2106 17.7062 15.8837 17.3623 15.8837C17.1829 15.8837 17.0184 15.958 16.8839 16.0917C16.6895 16.2849 16.6147 16.5968 16.6745 16.998L16.6147 17.0425L16.5549 17.0871C16.3605 16.9831 16.1811 16.894 16.0017 16.79C15.8372 16.7008 15.6877 16.6117 15.5232 16.5374L15.3289 16.3591L15.3438 16.2552C16.0765 15.6609 16.7643 15.1706 17.4371 14.6952C17.5268 14.6358 17.6165 14.5615 17.7062 14.5021L17.8408 14.4873L18.0352 14.6655C18.7379 15.7649 19.635 17.1465 20.7415 18.4242L20.6966 18.543Z" fill="url(#paint31_linear)"/>
<path fill-rule="evenodd" clip-rule="evenodd" d="M8.66028 24.6194L8.63037 24.5302C9.46769 22.8663 10.305 21.2619 11.86 19.494L12.0544 19.3751L12.2189 19.4048C13.5047 20.3111 14.6859 21.3807 15.7176 22.5692V22.6732L15.5831 22.7029C15.1495 22.5989 14.656 22.5395 14.0879 22.5246L14.0131 22.4504L13.9383 22.3761C13.8785 22.0047 13.7141 21.6481 13.4449 21.4104C13.1608 21.1727 12.8618 21.039 12.5329 21.039C11.9497 21.039 11.3217 21.455 10.8881 22.1532C10.6489 22.5246 10.4695 22.9555 10.4396 23.3269L10.3648 23.4457L10.29 23.5646C9.76673 23.8617 9.27331 24.248 8.79484 24.6045L8.66028 24.6194Z" fill="url(#paint32_linear)"/>
<path fill-rule="evenodd" clip-rule="evenodd" d="M17.3026 8.27748C16.884 8.08434 16.4653 7.87636 16.0466 7.68322C14.5963 6.97012 13.0861 6.22731 11.561 6.16788L11.3816 6.0936V5.98961C12.3086 5.06852 13.43 4.28113 14.2374 3.76116L14.372 3.74631L14.6411 3.98401C15.4037 5.00909 16.0765 6.04903 16.6746 6.97012C16.9438 7.3861 17.1979 7.78722 17.4372 8.12891L17.4222 8.23291L17.3026 8.27748Z" fill="url(#paint33_linear)"/>
<path fill-rule="evenodd" clip-rule="evenodd" d="M25.242 4.71202L25.0626 4.93487C24.3299 6.5542 23.6421 7.89127 22.9543 9.00549L22.9842 9.10949L23.1637 9.1392C24.1206 8.9015 25.1972 8.57466 26.0943 8.05469L26.1391 7.9507C25.8102 6.61363 25.4214 5.54397 25.242 4.71202Z" fill="url(#paint34_linear)"/>
<path fill-rule="evenodd" clip-rule="evenodd" d="M4.14478 7.02938C3.87564 7.02938 3.6065 6.94024 3.38222 6.77683C3.12804 6.58369 2.97852 6.242 2.97852 5.81117L3.05328 5.70717L3.12804 5.60318C3.9205 5.30605 4.59334 4.91979 5.25123 4.56324C5.59513 4.3701 5.95397 4.16212 6.32778 3.98384L6.40254 4.02841L6.4773 4.07298C6.5072 4.56324 6.35768 5.11292 6.07359 5.61803C5.56522 6.49456 4.83257 7.02938 4.14478 7.02938Z" fill="url(#paint35_linear)"/>
<path fill-rule="evenodd" clip-rule="evenodd" d="M24.4347 25.9862C24.0908 25.9862 23.7619 25.8822 23.4927 25.7039C23.1189 25.4365 22.8797 25.08 22.8049 24.664L22.8647 24.5897L22.9245 24.5154C23.9712 24.3817 24.9132 24.0994 25.7056 23.8172L25.7953 23.8617L25.885 23.9063C26.0047 24.3817 25.9449 24.9017 25.6907 25.3325C25.4664 25.7336 24.973 25.9862 24.4347 25.9862Z" fill="url(#paint36_linear)"/>
<path fill-rule="evenodd" clip-rule="evenodd" d="M8.21154 10.2833L8.18164 10.1941C9.16848 8.57479 10.1703 7.26743 11.2169 6.18292L11.3814 6.10864L11.5608 6.18292C12.8766 7.40114 14.0129 8.66393 15.0446 10.0456L15.0297 10.1496L14.8951 10.1644C14.3867 9.86729 13.998 9.64444 13.5195 9.48102L13.4298 9.36217L13.3401 9.25818C13.2803 8.91648 13.1158 8.6045 12.8766 8.32223C12.4878 7.8914 12.0243 7.66855 11.5608 7.66855C11.1421 7.66855 10.7534 7.84683 10.4544 8.20338C10.1852 8.51536 10.0207 8.91648 9.97589 9.30275L9.90113 9.40674L9.82637 9.51073C9.318 9.70387 8.89934 9.94157 8.36107 10.2833H8.21154Z" fill="url(#paint37_linear)"/>
<path fill-rule="evenodd" clip-rule="evenodd" d="M21.8031 24.7086C21.7133 24.7086 21.6386 24.7086 21.5489 24.7086L21.3694 24.6343L21.3545 24.5303C22.147 23.6687 22.9394 22.6882 23.6721 21.5739L23.8216 21.4699L23.9861 21.4997C24.943 22.183 25.9896 22.7624 27.0961 23.2378L27.2157 23.3567L27.111 23.4607C26.8569 23.535 26.6027 23.639 26.2887 23.743C26.1691 23.7875 26.0345 23.8321 25.885 23.8767L25.7953 23.8321L25.7055 23.7875C25.5859 23.4607 25.3766 23.1933 25.0776 23.0299C24.8234 22.8813 24.5542 22.807 24.3 22.807C23.8515 22.807 23.4478 23.0299 23.1936 23.4161C22.9843 23.7132 22.8946 24.1144 22.9245 24.4709L22.8647 24.5452L22.8048 24.6195C22.446 24.7086 22.117 24.7235 21.8031 24.7086Z" fill="url(#paint38_linear)"/>
<path fill-rule="evenodd" clip-rule="evenodd" d="M22.476 7.75746C22.1321 7.75746 21.7882 7.62375 21.4443 7.34148C21.1452 7.08892 20.9359 6.76208 20.8462 6.39068L20.906 6.3164L20.9658 6.24211C21.9975 6.18269 22.9395 5.94499 23.8067 5.54387L23.8815 5.58844L23.9562 5.63301C24.0011 5.95985 23.9562 6.30154 23.8216 6.62838C23.5525 7.34148 23.0441 7.75746 22.476 7.75746Z" fill="url(#paint39_linear)"/>
<path fill-rule="evenodd" clip-rule="evenodd" d="M24.5692 17.0425C23.9711 16.5226 23.1039 16.686 22.4908 17.4585C22.2366 17.7854 22.0722 18.2013 22.0871 18.6024C22.9842 18.5579 23.9412 18.3647 24.9729 17.9339C24.943 17.5774 24.8084 17.2505 24.5692 17.0425Z" fill="url(#paint40_linear)"/>
<path fill-rule="evenodd" clip-rule="evenodd" d="M18.8425 19.375C18.364 19.687 17.5566 19.063 17.0183 18.1568C16.794 17.8002 16.6445 17.3991 16.5847 17.0277C16.1511 16.79 15.7175 16.5672 15.2988 16.3443C16.3305 17.9637 17.2276 19.4196 18.1547 20.7418C19.0668 20.0881 19.8293 19.375 20.6965 18.5282C20.2031 18.4539 19.7097 18.3351 19.2462 18.2014C19.291 18.7362 19.1266 19.1967 18.8425 19.375Z" fill="url(#paint41_linear)"/>
<path fill-rule="evenodd" clip-rule="evenodd" d="M10.3948 8.15875C10.0958 8.5153 9.90143 8.96099 9.88647 9.40668C11.1275 8.99071 12.2639 8.99071 13.4152 9.36211C13.3703 8.99071 13.2058 8.60444 12.9217 8.2776C12.1741 7.4308 11.0976 7.34166 10.3948 8.15875Z" fill="url(#paint42_linear)"/>
<path fill-rule="evenodd" clip-rule="evenodd" d="M11.9198 24.9612C11.6806 24.9612 11.4413 24.9017 11.2021 24.7977C10.6638 24.56 10.3199 24.1144 10.29 23.5795L10.3648 23.4607L10.4396 23.3418C11.6357 22.703 12.802 22.4059 13.9383 22.391L14.0131 22.4653L14.0879 22.5396C14.1178 23.0447 13.9533 23.5498 13.6243 23.9806C13.1309 24.6046 12.5179 24.9463 11.9198 24.9612Z" fill="url(#paint43_linear)"/>
<path fill-rule="evenodd" clip-rule="evenodd" d="M25.1224 22.9852C24.3598 22.5544 23.5673 22.7772 23.1487 23.4012C22.9394 23.6983 22.8197 24.144 22.8646 24.5748C23.971 24.4411 24.9579 24.1291 25.8101 23.8469C25.7055 23.4903 25.4663 23.1783 25.1224 22.9852Z" fill="url(#paint44_linear)"/>
<path fill-rule="evenodd" clip-rule="evenodd" d="M24.9282 27.1005C24.659 26.9668 23.104 26.1943 21.549 24.6938L21.3696 24.6195L21.2201 24.6789C20.3678 25.5703 19.5753 26.2537 18.7081 26.8034L18.6782 26.9074C20.4276 27.8582 22.4461 27.977 24.9431 27.1896L24.9282 27.1005Z" fill="url(#paint45_linear)"/>
<path fill-rule="evenodd" clip-rule="evenodd" d="M12.757 26.2834C12.159 26.016 11.531 25.7337 10.8731 25.4514C10.2002 25.1543 9.49749 24.9315 8.8097 24.6046L8.67513 24.6195L8.48075 24.8572C8.42094 24.9612 8.37609 25.08 8.31628 25.184C7.58363 26.6548 6.82107 28.1256 5.34082 29.73L5.35577 29.8192C8.8097 29.1209 9.9311 27.6353 12.7869 26.3725L12.757 26.2834Z" fill="url(#paint46_linear)"/>
<path fill-rule="evenodd" clip-rule="evenodd" d="M2.57465 26.6547C2.2457 26.6547 1.93171 26.625 1.60276 26.5953L1.42334 26.5061L1.48315 26.3724C2.9335 25.1839 3.87548 24.0251 4.81746 22.8069L5.01183 22.6881L5.17631 22.7029C6.13324 23.2526 7.20979 23.8766 8.64518 24.5451L8.67509 24.6342L8.48071 24.8719C8.0471 25.1691 7.53873 25.481 7.01541 25.7187L6.94065 25.6742L6.86589 25.6296C6.82103 25.1691 6.5818 24.7828 6.19305 24.6045C5.96876 24.5005 5.72953 24.4411 5.46039 24.4411C4.7726 24.4411 4.06985 24.8274 3.6512 25.4365C3.41196 25.7782 3.3073 26.1644 3.32225 26.5507L3.26244 26.625L3.20263 26.6993C2.97835 26.6993 2.76902 26.6547 2.57465 26.6547Z" fill="url(#paint47_linear)"/>
<path fill-rule="evenodd" clip-rule="evenodd" d="M8.21157 10.283C7.65835 10.6395 7.12007 10.9515 6.59675 11.2189C6.5818 11.6349 6.41733 12.1251 6.11828 12.6303C5.37068 13.8782 4.29413 14.3684 3.56148 13.8336C3.23254 13.5811 3.08302 13.1057 3.12787 12.5857C2.51484 12.7491 2.03637 12.8531 1.42334 12.9274C2.23075 13.7296 3.48672 14.7101 4.99688 15.6015C6.46218 13.5513 7.34435 11.6795 8.21157 10.283Z" fill="url(#paint48_linear)"/>
<path fill-rule="evenodd" clip-rule="evenodd" d="M14.2523 3.77607C13.8785 3.58294 13.4449 3.40467 12.8618 3.24125L12.7721 3.13725L12.6674 3.03326C12.5777 2.70642 12.3983 2.37958 12.174 2.11217C11.8002 1.68133 11.3367 1.42878 10.918 1.42878C10.604 1.42878 10.305 1.56248 10.0209 1.8299C9.75176 2.09731 9.60224 2.49843 9.60224 2.92926L9.52748 3.0184L9.48262 3.1224C9.04901 3.19668 8.6154 3.31553 8.07713 3.44923L7.91266 3.41952L7.89771 3.33038C8.91444 1.78533 9.85642 0.730532 10.7535 0.13628L10.933 0.106567L11.1722 0.210561C12.0992 0.953376 13.2356 2.17159 14.4018 3.67208L14.3869 3.76122L14.2523 3.77607Z" fill="url(#paint49_linear)"/>
<path fill-rule="evenodd" clip-rule="evenodd" d="M24.5245 13.18C23.9563 14.0416 22.79 14.1605 22.2368 13.4325C22.0125 13.1354 21.878 12.7937 21.8481 12.4371C21.3397 12.4074 20.936 12.3777 20.4575 12.3034C21.4444 13.4622 22.4312 14.5022 23.4928 15.4084C24.4198 14.2496 25.3917 12.868 26.5131 11.2189C25.9898 11.5458 25.4066 11.7686 24.9282 11.9469C24.9581 12.3332 24.8235 12.7788 24.5245 13.18Z" fill="url(#paint50_linear)"/>
<path fill-rule="evenodd" clip-rule="evenodd" d="M15.9419 22.8069L15.7325 22.6881L15.598 22.7178C14.4616 23.7874 13.5346 24.9611 12.7571 26.2981L12.787 26.3873C15.3438 25.2582 17.6314 26.3427 18.693 26.9221L18.7229 26.8181C17.9753 25.3771 17.0035 24.0548 15.9419 22.8069Z" fill="url(#paint51_linear)"/>
<path fill-rule="evenodd" clip-rule="evenodd" d="M4.47361 21.1133C4.11476 21.1133 3.78581 20.9945 3.51668 20.7716C3.21764 20.5191 3.06812 20.118 3.06812 19.6426L3.14288 19.5534L3.21764 19.4643C4.39885 19.2563 5.5053 18.8849 6.5968 18.3055L6.67156 18.3501L6.74632 18.3946C6.74632 18.9146 6.52204 19.5089 6.14824 20.0734C5.71463 20.7419 5.10159 21.1133 4.47361 21.1133Z" fill="url(#paint52_linear)"/>
<path fill-rule="evenodd" clip-rule="evenodd" d="M10.7385 14.829C10.3497 15.2598 10.1553 15.7649 10.1404 16.2403C11.4263 15.6758 12.6075 15.5272 13.699 15.7204C13.6392 15.4084 13.5345 15.0667 13.3102 14.7547C12.6673 13.893 11.516 13.997 10.7385 14.829Z" fill="url(#paint53_linear)"/>
<path fill-rule="evenodd" clip-rule="evenodd" d="M27.2308 23.3714L27.1261 23.4754C26.6626 24.7382 25.7804 26.2089 24.9431 27.1003L24.9581 27.1895C27.2009 26.4763 28.6064 26.3724 28.6064 26.3724C28.6064 26.3724 27.9335 24.961 27.2308 23.3714Z" fill="url(#paint54_linear)"/>
<path fill-rule="evenodd" clip-rule="evenodd" d="M5.34078 29.7301C4.03995 28.8536 2.81388 27.8582 1.60276 26.5954L1.42334 26.5063V29.7153C1.42334 29.7153 3.14283 30.2798 5.35573 29.8193L5.34078 29.7301Z" fill="url(#paint55_linear)"/>
<path d="M6.20804 24.5303C5.29596 24.0846 4.14466 24.56 3.59143 25.392C3.32229 25.7931 3.21763 26.2239 3.26248 26.625C4.66798 26.5359 5.909 26.1496 6.92574 25.6891C6.89584 25.1543 6.6267 24.7383 6.20804 24.5303Z" fill="#2D2C2B"/>
<path fill-rule="evenodd" clip-rule="evenodd" d="M6.9257 25.6743C6.9556 26.0903 6.82103 26.5805 6.52199 27.0856C5.80429 28.2741 4.69784 28.3187 3.95024 27.8285C3.56148 27.561 3.3073 27.1154 3.26244 26.6102C2.66436 26.6548 2.09618 26.5954 1.42334 26.5062C2.54474 27.6947 3.81567 28.7941 5.35573 29.8192C7.07522 27.9622 7.83777 26.2685 8.67509 24.6195C8.21157 24.9612 7.58359 25.3623 6.9257 25.6743Z" fill="url(#paint56_linear)"/>
<path fill-rule="evenodd" clip-rule="evenodd" d="M25.6459 25.2879C25.2571 25.9564 24.2254 26.1347 23.5376 25.6444C23.119 25.3473 22.9246 24.961 22.8797 24.5896C22.3863 24.649 21.9078 24.6639 21.3845 24.6342C23.1638 26.3872 24.9581 27.2043 24.9581 27.2043C25.7954 26.3278 26.7523 24.7976 27.2457 23.3863C26.8271 23.5051 26.3785 23.6685 25.8253 23.8617C25.9599 24.3222 25.9 24.857 25.6459 25.2879Z" fill="url(#paint57_linear)"/>
<path fill-rule="evenodd" clip-rule="evenodd" d="M6.14837 17.3547C5.41572 16.9238 4.47374 17.2952 3.72614 18.1866C3.38224 18.5877 3.18786 19.0929 3.15796 19.5683C4.33917 19.3751 5.49048 19.0037 6.68664 18.3649C6.67169 17.9489 6.52217 17.5924 6.14837 17.3547Z" fill="url(#paint58_linear)"/>
<path fill-rule="evenodd" clip-rule="evenodd" d="M11.4862 4.83079C11.0227 4.83079 10.5293 4.65251 10.1256 4.32567C9.7518 4.02855 9.52752 3.59772 9.48267 3.10746L9.54247 3.01832L9.61723 2.92918C10.1256 2.84005 10.5891 2.81033 11.0227 2.81033C11.5909 2.81033 12.1292 2.88461 12.6675 3.01832L12.7721 3.12232L12.8618 3.22631C12.9366 3.70171 12.802 4.11769 12.503 4.42967C12.2488 4.71194 11.9049 4.84564 11.4862 4.83079Z" fill="url(#paint59_linear)"/>
<path fill-rule="evenodd" clip-rule="evenodd" d="M13.4897 21.3659C12.6076 20.6082 11.5161 21.039 10.8283 22.1235C10.5442 22.5692 10.3797 23.0446 10.3647 23.4457C11.5609 22.7921 12.787 22.4207 14.028 22.4504C13.9831 22.0641 13.8187 21.6481 13.4897 21.3659Z" fill="url(#paint60_linear)"/>
<path fill-rule="evenodd" clip-rule="evenodd" d="M18.8874 17.0724C18.379 16.2107 17.4669 15.3936 16.809 16.0324C16.5848 16.2553 16.525 16.6267 16.5848 17.0278C17.4221 17.4586 18.3042 17.9043 19.2462 18.2014C19.2313 17.8449 19.1117 17.4438 18.8874 17.0724Z" fill="url(#paint61_linear)"/>
<path fill-rule="evenodd" clip-rule="evenodd" d="M19.8742 24.3522C19.9191 24.8276 19.7695 25.2138 19.5303 25.3773C19.1565 25.615 18.2145 25.2436 17.6613 24.4116C17.3922 23.9956 17.2127 23.5499 17.123 23.1488C16.6894 22.9705 16.2558 22.822 15.7175 22.6734C17.0483 24.1888 18.0501 25.6595 18.678 26.9075C19.6499 26.2984 20.5022 25.5407 21.3694 24.6196C20.8012 24.6047 20.3527 24.5156 19.8742 24.3522Z" fill="url(#paint62_linear)"/>
<path fill-rule="evenodd" clip-rule="evenodd" d="M4.80273 8.54507C6.0288 9.22846 7.26982 9.83757 8.2118 10.2833C9.21359 8.64907 10.2453 7.26743 11.3816 6.10864C9.48272 6.10864 7.01564 7.50513 4.80273 8.54507Z" fill="url(#paint63_linear)"/>
<path fill-rule="evenodd" clip-rule="evenodd" d="M17.8108 14.4873C18.6631 15.8392 19.5901 17.2357 20.7115 18.543C21.6086 17.6665 22.5356 16.6563 23.5225 15.4083C21.3694 15.958 19.8742 15.6312 17.8108 14.4873Z" fill="url(#paint64_linear)"/>
<path fill-rule="evenodd" clip-rule="evenodd" d="M26.1243 7.95061C25.1524 8.54486 23.9712 8.8717 22.9844 9.1094C24.0908 9.83736 25.2571 10.5356 26.543 11.2041C26.5131 9.95621 26.3336 8.8717 26.1243 7.95061Z" fill="url(#paint65_linear)"/>
<path fill-rule="evenodd" clip-rule="evenodd" d="M27.2308 23.3715C26.8121 22.4058 26.543 21.4402 26.3636 20.5042C25.6309 20.8756 24.7039 21.2767 23.8367 21.4847C24.8385 22.1978 25.9599 22.8367 27.2308 23.3715Z" fill="url(#paint66_linear)"/>
<path fill-rule="evenodd" clip-rule="evenodd" d="M26.1244 17.3696C26.1393 16.0622 26.2589 14.9777 26.3636 14.2646C25.4665 14.7846 24.375 15.1857 23.5227 15.4085C24.3451 16.1216 25.1973 16.7605 26.1244 17.3696Z" fill="url(#paint67_linear)"/>
<path fill-rule="evenodd" clip-rule="evenodd" d="M17.437 8.26274C18.4837 9.79294 19.4854 11.1151 20.4872 12.3037C21.3096 11.4866 22.132 10.4912 22.9842 9.12441C21.2797 9.52553 19.4107 9.13926 17.437 8.26274Z" fill="url(#paint68_linear)"/>
<path fill-rule="evenodd" clip-rule="evenodd" d="M15.0149 10.1495C14.4617 9.82267 13.9832 9.55526 13.415 9.37698C13.4749 9.8821 13.3104 10.3724 12.9964 10.7141C12.4282 11.3083 11.1872 11.3529 10.4097 10.6546C10.0209 10.2981 9.87141 9.85239 9.88636 9.42155C9.30323 9.61469 8.80981 9.91181 8.19678 10.2981C9.72189 11.026 10.933 11.6946 12.0096 12.5414C13.0113 11.6054 14.0281 10.8626 15.0149 10.1495Z" fill="url(#paint69_linear)"/>
<path fill-rule="evenodd" clip-rule="evenodd" d="M4.99694 22.6731C6.34263 20.935 7.31451 19.1819 8.33125 17.31C7.76307 17.7111 7.2248 18.0826 6.68652 18.3648C6.70148 18.8996 6.46224 19.5236 6.10339 20.0436C5.35579 21.1578 4.23439 21.2767 3.56154 20.727C3.24755 20.4744 3.11298 20.0287 3.14289 19.5682C2.5448 19.6722 2.03643 19.7019 1.40845 19.7316C2.39528 20.8458 3.53164 21.8263 4.99694 22.6731Z" fill="url(#paint70_linear)"/>
<path fill-rule="evenodd" clip-rule="evenodd" d="M1.46831 6.01924C2.33553 5.15758 3.51675 3.37483 4.36901 1.87434L4.56339 1.68121L4.69796 1.66635C5.75956 2.09718 6.82115 2.66172 7.8977 3.34511L7.91265 3.43425L7.74818 3.5531C7.32952 3.68681 6.91086 3.85023 6.4623 4.07307L6.38754 4.0285L6.31278 3.98393C6.26792 3.62738 6.13336 3.37482 5.90908 3.25597C5.75956 3.16684 5.58013 3.13712 5.38575 3.13712C4.74282 3.13712 4.05502 3.58281 3.57656 4.31077C3.30742 4.72675 3.14295 5.17244 3.09809 5.60327L3.02333 5.70726L2.94857 5.81126C2.51496 5.97468 2.11125 6.10838 1.54308 6.21238L1.39355 6.16781L1.46831 6.01924Z" fill="url(#paint71_linear)"/>
<path fill-rule="evenodd" clip-rule="evenodd" d="M18.723 13.0166C18.2445 13.3286 17.3773 12.8235 16.7942 11.9469C16.5998 11.6498 16.4503 11.2635 16.3755 10.8921C15.8522 10.6396 15.3887 10.3722 15.0149 10.1493C15.9569 11.4418 16.8241 12.9423 17.796 14.4874C18.723 13.8188 19.6052 13.1651 20.4724 12.2886C20.0388 12.2143 19.5753 12.1104 19.1118 11.9766C19.1716 12.4075 19.0519 12.7937 18.723 13.0166Z" fill="url(#paint72_linear)"/>
<path fill-rule="evenodd" clip-rule="evenodd" d="M19.3361 6.31647C19.0072 6.2719 18.7081 6.1382 18.3642 6.01935L18.2595 5.91535L18.1549 5.7965C18.0353 5.4251 17.8259 5.00912 17.5419 4.62286C17.1381 4.07317 16.57 3.49378 16.1214 3.49378C16.0018 3.49378 15.9121 3.53835 15.8224 3.61263C15.6728 3.74634 15.6728 4.10289 15.8074 4.54858L15.7476 4.59314L15.6878 4.63771C15.4785 4.50401 14.8206 4.10289 14.6561 3.99889L14.387 3.76119L14.4019 3.67205C14.5664 3.56806 14.7159 3.46407 14.8804 3.36007C15.314 3.06295 15.7326 2.76582 16.2261 2.49841L16.4055 2.48355L16.6298 2.61726C17.2428 3.27093 17.8259 4.01375 18.3044 4.66743C18.7081 5.21711 19.0969 5.73708 19.4557 6.12334L19.4707 6.24219L19.3361 6.31647Z" fill="url(#paint73_linear)"/>
<path fill-rule="evenodd" clip-rule="evenodd" d="M24.614 19.2563C24.0907 20.1179 23.1487 20.1328 22.5955 19.6871C22.2367 19.39 22.0871 19.0037 22.0722 18.6026C21.5937 18.6323 21.1302 18.6026 20.6816 18.5283C21.5788 19.5831 22.6105 20.5785 23.8216 21.4698C24.7336 20.0882 25.4962 18.6769 26.0943 17.3547C25.7055 17.5775 25.3168 17.7706 24.943 17.9192C24.9878 18.35 24.8832 18.8403 24.614 19.2563Z" fill="url(#paint74_linear)"/>
<path fill-rule="evenodd" clip-rule="evenodd" d="M17.8857 7.04449C17.3923 7.04449 16.7045 6.3611 16.241 5.67771C15.9868 5.29144 15.7924 4.94975 15.6877 4.63777L15.7476 4.5932L15.8074 4.54863C16.5849 5.02403 17.3474 5.48458 18.1548 5.79656L18.2595 5.91541L18.3642 6.0194C18.4389 6.37595 18.3941 6.65822 18.2595 6.85136C18.1548 6.98506 18.0352 7.04449 17.8857 7.04449Z" fill="url(#paint75_linear)"/>
<path fill-rule="evenodd" clip-rule="evenodd" d="M19.3512 23.1189C18.5736 22.1235 17.7513 21.7967 17.3027 22.1829C17.0934 22.3612 17.0635 22.7177 17.1382 23.1486C18.2148 23.5794 19.0073 24.04 19.8745 24.3371C19.8446 23.9805 19.6801 23.5497 19.3512 23.1189Z" fill="url(#paint76_linear)"/>
<path fill-rule="evenodd" clip-rule="evenodd" d="M24.9429 11.947C24.928 11.4271 24.6439 10.9517 24.1654 10.6397C23.6271 10.2831 22.73 10.402 22.2217 11.13C21.9525 11.5162 21.8179 11.9916 21.8479 12.4373C22.8197 12.4819 23.8215 12.3779 24.9429 11.947Z" fill="url(#paint77_linear)"/>
<path fill-rule="evenodd" clip-rule="evenodd" d="M4.99688 22.6734C3.59139 23.0894 2.30551 23.2528 1.42334 23.1042V26.4915C3.02321 25.2138 4.025 23.9362 4.99688 22.6734Z" fill="url(#paint78_linear)"/>
<path fill-rule="evenodd" clip-rule="evenodd" d="M4.8025 8.54491C3.59139 9.10945 2.27561 9.55513 1.42334 9.56999V12.9572C2.76902 11.7242 3.75586 10.1642 4.8025 8.54491Z" fill="url(#paint79_linear)"/>
<path fill-rule="evenodd" clip-rule="evenodd" d="M4.99688 15.6015C3.41196 16.2255 2.2457 16.4037 1.42334 16.3295V19.7167C3.00826 18.3351 4.03995 16.9386 4.99688 15.6015Z" fill="url(#paint80_linear)"/>
<path fill-rule="evenodd" clip-rule="evenodd" d="M4.99707 22.6732C6.16333 23.3566 7.4193 24.0548 8.66032 24.6194C9.46773 23.0149 10.335 21.2916 12.0544 19.3751C9.76678 19.8951 7.58378 21.9155 4.99707 22.6732Z" fill="url(#paint81_linear)"/>
<path fill-rule="evenodd" clip-rule="evenodd" d="M12.0245 12.5263C9.43783 12.868 7.03055 14.8142 4.99707 15.6016C6.13343 16.2701 7.31464 16.8792 8.33138 17.31C9.49764 15.1707 10.7536 13.7 12.0245 12.5263Z" fill="url(#paint82_linear)"/>
<path fill-rule="evenodd" clip-rule="evenodd" d="M18.1548 20.742C19.1566 22.1682 20.2032 23.4755 21.3695 24.6343C22.2666 23.6835 23.1039 22.599 23.8366 21.4848C22.0722 21.9008 20.0985 21.8414 18.1548 20.742Z" fill="url(#paint83_linear)"/>
<path fill-rule="evenodd" clip-rule="evenodd" d="M12.0244 12.5263C13.2206 13.4771 14.2224 14.6359 15.2989 16.3592C16.196 15.6313 17.0184 15.0667 17.7959 14.4873C16.3007 13.6554 14.2224 12.2143 12.0244 12.5263Z" fill="url(#paint84_linear)"/>
<path fill-rule="evenodd" clip-rule="evenodd" d="M15.0149 10.1496C15.8373 9.54045 16.6447 8.94619 17.4222 8.26281C15.4934 7.40114 13.4599 6.10864 11.3816 6.10864C12.6974 7.29715 13.9234 8.63421 15.0149 10.1496Z" fill="url(#paint85_linear)"/>
<path fill-rule="evenodd" clip-rule="evenodd" d="M12.0544 19.3902C13.5347 20.4153 14.7309 21.5592 15.7327 22.6883C16.57 21.9158 17.4073 21.2918 18.1549 20.757C16.7045 19.925 14.8206 18.7662 12.0544 19.3902Z" fill="url(#paint86_linear)"/>
<path fill-rule="evenodd" clip-rule="evenodd" d="M15.7327 22.6734C15.1645 22.51 14.5515 22.4654 14.0281 22.4505C14.0879 22.9854 13.9085 23.4905 13.5796 23.9213C12.9366 24.7533 12.0844 25.1247 11.2321 24.7235C10.7088 24.4858 10.3499 24.055 10.3649 23.4459C9.81165 23.7579 9.25842 24.1887 8.67529 24.6195C10.0957 25.2732 11.5461 25.7932 12.7871 26.3726C13.6842 24.8127 14.7159 23.6242 15.7327 22.6734Z" fill="url(#paint87_linear)"/>
<path fill-rule="evenodd" clip-rule="evenodd" d="M6.01392 10.09C5.19156 9.68886 4.11501 10.5654 3.56178 11.3825C3.3076 11.7539 3.15808 12.1847 3.12817 12.6007C4.26453 12.3036 5.40089 11.8579 6.612 11.2191C6.612 10.6991 6.41763 10.298 6.01392 10.09Z" fill="url(#paint88_linear)"/>
<path fill-rule="evenodd" clip-rule="evenodd" d="M22.9543 4.39989C22.2067 4.04334 21.3993 4.45931 21.0554 5.18727C20.876 5.55868 20.8311 5.94494 20.8909 6.30149C21.9226 6.25692 22.9394 6.01922 23.8664 5.57353C23.8066 5.08328 23.4926 4.63759 22.9543 4.39989Z" fill="url(#paint89_linear)"/>
<path fill-rule="evenodd" clip-rule="evenodd" d="M12.7719 3.13711C12.6972 2.75085 12.4878 2.36459 12.2337 2.06746C11.6356 1.38407 10.7384 1.04238 9.97589 1.78519C9.67685 2.08232 9.52733 2.54286 9.54228 3.03312C10.7384 2.82513 11.7552 2.83999 12.7719 3.13711Z" fill="url(#paint90_linear)"/>
<path fill-rule="evenodd" clip-rule="evenodd" d="M17.6015 4.5932C17.0482 3.83553 16.2408 3.12243 15.7773 3.56812C15.5979 3.74639 15.6128 4.14751 15.7624 4.60806C16.5698 5.11317 17.4071 5.60343 18.2743 5.93027C18.1547 5.49943 17.9155 5.02403 17.6015 4.5932Z" fill="url(#paint91_linear)"/>
<path fill-rule="evenodd" clip-rule="evenodd" d="M5.95398 3.19659C5.28114 2.82518 4.21954 3.24116 3.53175 4.26625C3.21775 4.74165 3.05328 5.26162 3.03833 5.70731C4.33916 5.2319 5.28114 4.57823 6.38759 4.02854C6.35769 3.65714 6.20817 3.34515 5.95398 3.19659Z" fill="url(#paint92_linear)"/>
<path fill-rule="evenodd" clip-rule="evenodd" d="M19.4705 6.27192C19.0518 6.22735 18.6631 6.07879 18.2444 5.93023C18.3341 6.30164 18.3192 6.62847 18.1696 6.83646C17.7958 7.34158 16.8838 6.53934 16.2857 5.66282C16.0614 5.33598 15.8521 4.96457 15.7325 4.62288C15.2091 4.29604 14.8652 4.05834 14.3718 3.79092C15.6278 5.42512 16.6445 7.14844 17.422 8.27752C18.1995 7.59413 18.8275 7.01474 19.4705 6.27192Z" fill="url(#paint93_linear)"/>
<path fill-rule="evenodd" clip-rule="evenodd" d="M14.3868 3.77609C13.8635 3.49382 13.2803 3.28583 12.772 3.15213C12.8617 3.59782 12.8019 4.05836 12.458 4.40006C11.8898 4.96459 10.873 4.8606 10.1703 4.29606C9.76659 3.96922 9.57222 3.50868 9.55726 3.06299C9.03394 3.15213 8.52557 3.28583 7.92749 3.46411C9.09375 4.20692 10.26 5.11316 11.3964 6.13824C12.2636 5.21715 13.3252 4.45948 14.3868 3.77609Z" fill="url(#paint94_linear)"/>
<path fill-rule="evenodd" clip-rule="evenodd" d="M22.9695 9.10948C23.6872 7.95069 24.4348 6.50963 25.2422 4.71202C24.8086 5.05372 24.36 5.33598 23.8816 5.57369C23.9414 5.90052 23.8965 6.24222 23.7619 6.58391C23.3134 7.69813 22.4163 8.03983 21.4892 7.28216C21.1752 7.0296 20.9659 6.68791 20.9061 6.30164C20.4276 6.33136 19.9492 6.3165 19.4707 6.25707C20.5323 7.34158 21.6836 8.26267 22.9695 9.10948Z" fill="url(#paint95_linear)"/>
<path fill-rule="evenodd" clip-rule="evenodd" d="M7.91259 3.43439C7.34441 3.59781 6.851 3.80579 6.38748 4.02864C6.43234 4.48918 6.29777 5.05372 5.99873 5.58855C5.31093 6.79191 4.20448 7.29702 3.41202 6.71763C3.14289 6.5245 3.02327 6.15309 3.03822 5.7074C2.5149 5.90053 2.08129 6.04909 1.40845 6.16794C2.27567 6.95533 3.44193 7.78728 4.78761 8.54495C5.92397 6.79191 6.9108 4.97944 7.91259 3.43439Z" fill="url(#paint96_linear)"/>
<path fill-rule="evenodd" clip-rule="evenodd" d="M4.56348 1.66643C5.64002 2.09727 6.77638 2.69152 7.92769 3.41948C8.86967 1.97841 9.87146 0.760198 10.948 0.0916652C8.92948 -0.190604 6.9259 0.136234 4.56348 1.66643Z" fill="url(#paint97_linear)"/>
<path fill-rule="evenodd" clip-rule="evenodd" d="M24.8234 1.57733C24.8234 1.57733 23.1936 2.52813 21.7134 2.92925C22.5656 3.52351 24.0309 4.28118 25.2421 4.71201C24.8533 2.95897 24.8234 1.57733 24.8234 1.57733Z" fill="url(#paint98_linear)"/>
<path fill-rule="evenodd" clip-rule="evenodd" d="M16.3906 2.49843C17.6466 3.77607 18.6035 5.38055 19.4707 6.27193C20.2782 5.33598 21.0258 4.35546 21.7135 2.94412C20.2333 3.34524 18.469 3.2561 16.3906 2.49843Z" fill="url(#paint99_linear)"/>
<path fill-rule="evenodd" clip-rule="evenodd" d="M14.3868 3.77607C15.0297 3.3601 15.6428 2.86984 16.3904 2.49843C14.2971 1.7259 12.9663 0.403693 10.9329 0.106567C11.9945 0.908808 13.2803 2.32016 14.3868 3.77607Z" fill="url(#paint100_linear)"/>
<path fill-rule="evenodd" clip-rule="evenodd" d="M4.56327 1.66635C2.99331 2.67658 1.42334 2.76572 1.42334 2.76572V6.15295C2.39522 5.24672 3.74091 3.13712 4.56327 1.66635Z" fill="url(#paint101_linear)"/>
</g>
<defs>
<linearGradient id="paint0_linear" x1="4.67364" y1="6.22673" x2="11.4214" y2="5.30063" gradientUnits="userSpaceOnUse">
<stop stop-color="#E53438"/>
<stop offset="0.502" stop-color="#9F3234"/>
<stop offset="1" stop-color="#E53438"/>
</linearGradient>
<linearGradient id="paint1_linear" x1="17.3998" y1="8.26137" x2="23.0211" y2="7.48987" gradientUnits="userSpaceOnUse">
<stop stop-color="#E53438"/>
<stop offset="0.502" stop-color="#9F3234"/>
<stop offset="1" stop-color="#E53438"/>
</linearGradient>
<linearGradient id="paint2_linear" x1="21.7931" y1="13.3107" x2="25.0649" y2="12.7591" gradientUnits="userSpaceOnUse">
<stop stop-color="#325092"/>
<stop offset="0.502" stop-color="#3B3F76"/>
<stop offset="1" stop-color="#325092"/>
</linearGradient>
<linearGradient id="paint3_linear" x1="20.4144" y1="11.0751" x2="26.5553" y2="10.2268" gradientUnits="userSpaceOnUse">
<stop stop-color="#4BA5DB"/>
<stop offset="0.502" stop-color="#397CAB"/>
<stop offset="1" stop-color="#4BA5DB"/>
</linearGradient>
<linearGradient id="paint4_linear" x1="17.76" y1="14.4749" x2="23.5786" y2="13.6999" gradientUnits="userSpaceOnUse">
<stop stop-color="#2680C2"/>
<stop offset="0.5294" stop-color="#24649B"/>
<stop offset="1" stop-color="#2680C2"/>
</linearGradient>
<linearGradient id="paint5_linear" x1="14.9934" y1="10.841" x2="20.5552" y2="10.0636" gradientUnits="userSpaceOnUse">
<stop stop-color="#F29534"/>
<stop offset="0.502" stop-color="#D67F39"/>
<stop offset="1" stop-color="#F29534"/>
</linearGradient>
<linearGradient id="paint6_linear" x1="1.36718" y1="11.0157" x2="8.19712" y2="10.0784" gradientUnits="userSpaceOnUse">
<stop stop-color="#E53438"/>
<stop offset="0.502" stop-color="#9F3234"/>
<stop offset="1" stop-color="#E53438"/>
</linearGradient>
<linearGradient id="paint7_linear" x1="4.88574" y1="13.1828" x2="12.0465" y2="12.2289" gradientUnits="userSpaceOnUse">
<stop stop-color="#2680C2"/>
<stop offset="0.502" stop-color="#24649B"/>
<stop offset="1" stop-color="#2680C2"/>
</linearGradient>
<linearGradient id="paint8_linear" x1="4.86291" y1="20.2716" x2="12.0964" y2="19.2212" gradientUnits="userSpaceOnUse">
<stop stop-color="#29A154"/>
<stop offset="0.502" stop-color="#24834B"/>
<stop offset="1" stop-color="#29A154"/>
</linearGradient>
<linearGradient id="paint9_linear" x1="10.06" y1="17.0692" x2="13.8581" y2="16.4541" gradientUnits="userSpaceOnUse">
<stop stop-color="#FEFEFE"/>
<stop offset="0.502" stop-color="#D0D1D1"/>
<stop offset="1" stop-color="#FEFEFE"/>
</linearGradient>
<linearGradient id="paint10_linear" x1="8.23663" y1="15.1863" x2="15.3174" y2="14.2145" gradientUnits="userSpaceOnUse">
<stop stop-color="#E53438"/>
<stop offset="0.502" stop-color="#9F3234"/>
<stop offset="1" stop-color="#E53438"/>
</linearGradient>
<linearGradient id="paint11_linear" x1="16.4959" y1="18.4096" x2="19.348" y2="18.0297" gradientUnits="userSpaceOnUse">
<stop stop-color="#2680C2"/>
<stop offset="0.502" stop-color="#24649B"/>
<stop offset="1" stop-color="#2680C2"/>
</linearGradient>
<linearGradient id="paint12_linear" x1="1.35509" y1="21.5653" x2="5.01545" y2="21.0754" gradientUnits="userSpaceOnUse">
<stop stop-color="#27854F"/>
<stop offset="0.502" stop-color="#276941"/>
<stop offset="1" stop-color="#27854F"/>
</linearGradient>
<linearGradient id="paint13_linear" x1="12.0363" y1="19.1706" x2="18.2365" y2="18.3406" gradientUnits="userSpaceOnUse">
<stop stop-color="#27854F"/>
<stop offset="0.451" stop-color="#276941"/>
<stop offset="1" stop-color="#27854F"/>
</linearGradient>
<linearGradient id="paint14_linear" x1="23.7865" y1="19.601" x2="26.404" y2="19.2506" gradientUnits="userSpaceOnUse">
<stop stop-color="#27854F"/>
<stop offset="0.502" stop-color="#276941"/>
<stop offset="1" stop-color="#27854F"/>
</linearGradient>
<linearGradient id="paint15_linear" x1="18.1138" y1="20.6551" x2="23.9057" y2="19.8141" gradientUnits="userSpaceOnUse">
<stop stop-color="#29A154"/>
<stop offset="0.502" stop-color="#24834B"/>
<stop offset="1" stop-color="#29A154"/>
</linearGradient>
<linearGradient id="paint16_linear" x1="3.18251" y1="27.3484" x2="7.06044" y2="26.7204" gradientUnits="userSpaceOnUse">
<stop stop-color="#FEFEFE"/>
<stop offset="0.502" stop-color="#D0D1D1"/>
<stop offset="1" stop-color="#FEFEFE"/>
</linearGradient>
<linearGradient id="paint17_linear" x1="16.3196" y1="11.0697" x2="19.1659" y2="10.6087" gradientUnits="userSpaceOnUse">
<stop stop-color="#FEFEFE"/>
<stop offset="0.502" stop-color="#D0D1D1"/>
<stop offset="1" stop-color="#FEFEFE"/>
</linearGradient>
<linearGradient id="paint18_linear" x1="17.0412" y1="24.5124" x2="19.997" y2="24.0337" gradientUnits="userSpaceOnUse">
<stop stop-color="#FEFEFE"/>
<stop offset="0.502" stop-color="#D0D1D1"/>
<stop offset="1" stop-color="#FEFEFE"/>
</linearGradient>
<linearGradient id="paint19_linear" x1="21.9994" y1="19.3242" x2="25.104" y2="18.8214" gradientUnits="userSpaceOnUse">
<stop stop-color="#FEFEFE"/>
<stop offset="0.502" stop-color="#D0D1D1"/>
<stop offset="1" stop-color="#FEFEFE"/>
</linearGradient>
<linearGradient id="paint20_linear" x1="12.0345" y1="13.0459" x2="17.8869" y2="12.0592" gradientUnits="userSpaceOnUse">
<stop stop-color="#325092"/>
<stop offset="0.4118" stop-color="#3B3F76"/>
<stop offset="1" stop-color="#325092"/>
</linearGradient>
<linearGradient id="paint21_linear" x1="8.29567" y1="18.2791" x2="15.3766" y2="17.0853" gradientUnits="userSpaceOnUse">
<stop stop-color="#FBDD26"/>
<stop offset="0.502" stop-color="#C89B3C"/>
<stop offset="1" stop-color="#FBDD26"/>
</linearGradient>
<linearGradient id="paint22_linear" x1="1.3574" y1="18.08" x2="8.3208" y2="16.906" gradientUnits="userSpaceOnUse">
<stop stop-color="#325092"/>
<stop offset="0.502" stop-color="#3B3F76"/>
<stop offset="1" stop-color="#325092"/>
</linearGradient>
<linearGradient id="paint23_linear" x1="1.34647" y1="14.7661" x2="4.99168" y2="14.1516" gradientUnits="userSpaceOnUse">
<stop stop-color="#325092"/>
<stop offset="0.502" stop-color="#3B3F76"/>
<stop offset="1" stop-color="#325092"/>
</linearGradient>
<linearGradient id="paint24_linear" x1="19.4135" y1="4.9668" x2="25.2279" y2="3.98655" gradientUnits="userSpaceOnUse">
<stop stop-color="#E53438"/>
<stop offset="0.502" stop-color="#9F3234"/>
<stop offset="1" stop-color="#E53438"/>
</linearGradient>
<linearGradient id="paint25_linear" x1="15.697" y1="23.3723" x2="21.4655" y2="22.3999" gradientUnits="userSpaceOnUse">
<stop stop-color="#325092"/>
<stop offset="0.502" stop-color="#3B3F76"/>
<stop offset="1" stop-color="#325092"/>
</linearGradient>
<linearGradient id="paint26_linear" x1="20.6581" y1="17.3883" x2="26.1214" y2="16.4672" gradientUnits="userSpaceOnUse">
<stop stop-color="#325092"/>
<stop offset="0.502" stop-color="#3B3F76"/>
<stop offset="1" stop-color="#325092"/>
</linearGradient>
<linearGradient id="paint27_linear" x1="23.4995" y1="13.5868" x2="26.5612" y2="13.0707" gradientUnits="userSpaceOnUse">
<stop stop-color="#325092"/>
<stop offset="0.502" stop-color="#3B3F76"/>
<stop offset="1" stop-color="#325092"/>
</linearGradient>
<linearGradient id="paint28_linear" x1="3.01123" y1="13.0559" x2="6.71323" y2="12.4318" gradientUnits="userSpaceOnUse">
<stop stop-color="#325092"/>
<stop offset="0.502" stop-color="#3B3F76"/>
<stop offset="1" stop-color="#325092"/>
</linearGradient>
<linearGradient id="paint29_linear" x1="9.80628" y1="10.4239" x2="13.5486" y2="9.79294" gradientUnits="userSpaceOnUse">
<stop stop-color="#325092"/>
<stop offset="0.502" stop-color="#3B3F76"/>
<stop offset="1" stop-color="#325092"/>
</linearGradient>
<linearGradient id="paint30_linear" x1="1.35211" y1="7.92753" x2="4.78968" y2="7.40066" gradientUnits="userSpaceOnUse">
<stop stop-color="#B13438"/>
<stop offset="0.502" stop-color="#7B2E2E"/>
<stop offset="1" stop-color="#B13438"/>
</linearGradient>
<linearGradient id="paint31_linear" x1="15.3153" y1="17.1143" x2="20.736" y2="16.2835" gradientUnits="userSpaceOnUse">
<stop stop-color="#B13438"/>
<stop offset="0.502" stop-color="#7B2E2E"/>
<stop offset="1" stop-color="#B13438"/>
</linearGradient>
<linearGradient id="paint32_linear" x1="8.51129" y1="22.2876" x2="15.7679" y2="21.1755" gradientUnits="userSpaceOnUse">
<stop stop-color="#B13438"/>
<stop offset="0.4" stop-color="#7B2E2E"/>
<stop offset="1" stop-color="#B13438"/>
</linearGradient>
<linearGradient id="paint33_linear" x1="11.3437" y1="6.70044" x2="17.5446" y2="5.75005" gradientUnits="userSpaceOnUse">
<stop stop-color="#B13438"/>
<stop offset="0.502" stop-color="#7B2E2E"/>
<stop offset="1" stop-color="#B13438"/>
</linearGradient>
<linearGradient id="paint34_linear" x1="22.9103" y1="7.12614" x2="26.145" y2="6.63038" gradientUnits="userSpaceOnUse">
<stop stop-color="#B13438"/>
<stop offset="0.502" stop-color="#7B2E2E"/>
<stop offset="1" stop-color="#B13438"/>
</linearGradient>
<linearGradient id="paint35_linear" x1="2.95296" y1="5.86173" x2="6.5387" y2="5.31213" gradientUnits="userSpaceOnUse">
<stop stop-color="#FEFEFE"/>
<stop offset="0.502" stop-color="#D0D1D1"/>
<stop offset="1" stop-color="#FEFEFE"/>
</linearGradient>
<linearGradient id="paint36_linear" x1="22.8045" y1="25.2537" x2="26.0653" y2="24.7539" gradientUnits="userSpaceOnUse">
<stop stop-color="#FEFEFE"/>
<stop offset="0.502" stop-color="#D0D1D1"/>
<stop offset="1" stop-color="#FEFEFE"/>
</linearGradient>
<linearGradient id="paint37_linear" x1="8.12694" y1="8.81537" x2="15.1314" y2="7.84777" gradientUnits="userSpaceOnUse">
<stop stop-color="#4BA5DB"/>
<stop offset="0.502" stop-color="#397CAB"/>
<stop offset="1" stop-color="#4BA5DB"/>
</linearGradient>
<linearGradient id="paint38_linear" x1="21.3082" y1="23.3509" x2="27.2501" y2="22.5301" gradientUnits="userSpaceOnUse">
<stop stop-color="#4BA5DB"/>
<stop offset="0.502" stop-color="#397CAB"/>
<stop offset="1" stop-color="#4BA5DB"/>
</linearGradient>
<linearGradient id="paint39_linear" x1="20.8432" y1="6.96424" x2="24.0433" y2="6.52215" gradientUnits="userSpaceOnUse">
<stop stop-color="#29A154"/>
<stop offset="0.502" stop-color="#24834B"/>
<stop offset="1" stop-color="#29A154"/>
</linearGradient>
<linearGradient id="paint40_linear" x1="22.0648" y1="17.8088" x2="24.9853" y2="17.4054" gradientUnits="userSpaceOnUse">
<stop stop-color="#4BA5DB"/>
<stop offset="0.502" stop-color="#397CAB"/>
<stop offset="1" stop-color="#4BA5DB"/>
</linearGradient>
<linearGradient id="paint41_linear" x1="15.2154" y1="18.7501" x2="20.7376" y2="18.0202" gradientUnits="userSpaceOnUse">
<stop stop-color="#325092"/>
<stop offset="0.502" stop-color="#3B3F76"/>
<stop offset="1" stop-color="#325092"/>
</linearGradient>
<linearGradient id="paint42_linear" x1="9.89117" y1="8.80901" x2="13.485" y2="8.33407" gradientUnits="userSpaceOnUse">
<stop stop-color="#FBDD26"/>
<stop offset="0.502" stop-color="#C89B3C"/>
<stop offset="1" stop-color="#FBDD26"/>
</linearGradient>
<linearGradient id="paint43_linear" x1="10.2882" y1="23.9928" x2="14.1493" y2="23.4825" gradientUnits="userSpaceOnUse">
<stop stop-color="#FAC42C"/>
<stop offset="0.451" stop-color="#C78D3B"/>
<stop offset="1" stop-color="#FAC42C"/>
</linearGradient>
<linearGradient id="paint44_linear" x1="22.8032" y1="23.7699" x2="25.8208" y2="23.371" gradientUnits="userSpaceOnUse">
<stop stop-color="#FBDD26"/>
<stop offset="0.502" stop-color="#C89B3C"/>
<stop offset="1" stop-color="#FBDD26"/>
</linearGradient>
<linearGradient id="paint45_linear" x1="18.6385" y1="26.6026" x2="24.9611" y2="25.767" gradientUnits="userSpaceOnUse">
<stop stop-color="#FBDD26"/>
<stop offset="0.502" stop-color="#C89B3C"/>
<stop offset="1" stop-color="#FBDD26"/>
</linearGradient>
<linearGradient id="paint46_linear" x1="5.26604" y1="27.456" x2="12.7787" y2="26.4631" gradientUnits="userSpaceOnUse">
<stop stop-color="#FBDD26"/>
<stop offset="0.502" stop-color="#C89B3C"/>
<stop offset="1" stop-color="#FBDD26"/>
</linearGradient>
<linearGradient id="paint47_linear" x1="1.33863" y1="25.6248" x2="8.62132" y2="23.3601" gradientUnits="userSpaceOnUse">
<stop stop-color="#29A154"/>
<stop offset="0.502" stop-color="#24834B"/>
<stop offset="1" stop-color="#29A154"/>
</linearGradient>
<linearGradient id="paint48_linear" x1="1.49702" y1="14.5053" x2="8.4289" y2="12.3497" gradientUnits="userSpaceOnUse">
<stop stop-color="#29A154"/>
<stop offset="0.502" stop-color="#24834B"/>
<stop offset="1" stop-color="#29A154"/>
</linearGradient>
<linearGradient id="paint49_linear" x1="7.87104" y1="2.61776" x2="14.489" y2="1.65676" gradientUnits="userSpaceOnUse">
<stop stop-color="#29A154"/>
<stop offset="0.502" stop-color="#24834B"/>
<stop offset="1" stop-color="#29A154"/>
</linearGradient>
<linearGradient id="paint50_linear" x1="20.4708" y1="13.9561" x2="26.6024" y2="13.0658" gradientUnits="userSpaceOnUse">
<stop stop-color="#29A154"/>
<stop offset="0.502" stop-color="#24834B"/>
<stop offset="1" stop-color="#29A154"/>
</linearGradient>
<linearGradient id="paint51_linear" x1="12.7275" y1="25.48" x2="18.7995" y2="24.545" gradientUnits="userSpaceOnUse">
<stop stop-color="#FAC42C"/>
<stop offset="0.451" stop-color="#C78D3B"/>
<stop offset="1" stop-color="#FAC42C"/>
</linearGradient>
<linearGradient id="paint52_linear" x1="3.07537" y1="20.1043" x2="6.77663" y2="19.5344" gradientUnits="userSpaceOnUse">
<stop stop-color="#FAC42C"/>
<stop offset="0.502" stop-color="#C78D3B"/>
<stop offset="1" stop-color="#FAC42C"/>
</linearGradient>
<linearGradient id="paint53_linear" x1="10.1344" y1="15.3222" x2="13.7037" y2="14.8505" gradientUnits="userSpaceOnUse">
<stop stop-color="#325092"/>
<stop offset="0.502" stop-color="#3B3F76"/>
<stop offset="1" stop-color="#325092"/>
</linearGradient>
<linearGradient id="paint54_linear" x1="24.8767" y1="25.4676" x2="28.6062" y2="24.8933" gradientUnits="userSpaceOnUse">
<stop stop-color="#FAC42C"/>
<stop offset="0.502" stop-color="#C78D3B"/>
<stop offset="1" stop-color="#FAC42C"/>
</linearGradient>
<linearGradient id="paint55_linear" x1="1.36597" y1="28.4781" x2="5.33093" y2="27.8675" gradientUnits="userSpaceOnUse">
<stop stop-color="#FAC42C"/>
<stop offset="0.502" stop-color="#C78D3B"/>
<stop offset="1" stop-color="#FAC42C"/>
</linearGradient>
<linearGradient id="paint56_linear" x1="1.39899" y1="28.0133" x2="8.75753" y2="26.9677" gradientUnits="userSpaceOnUse">
<stop stop-color="#EB594F"/>
<stop offset="0.502" stop-color="#C74840"/>
<stop offset="1" stop-color="#EB594F"/>
</linearGradient>
<linearGradient id="paint57_linear" x1="21.389" y1="25.941" x2="27.285" y2="25.1032" gradientUnits="userSpaceOnUse">
<stop stop-color="#E53438"/>
<stop offset="0.502" stop-color="#9F3234"/>
<stop offset="1" stop-color="#E53438"/>
</linearGradient>
<linearGradient id="paint58_linear" x1="3.1223" y1="18.5349" x2="6.72255" y2="18.0233" gradientUnits="userSpaceOnUse">
<stop stop-color="#EB594F"/>
<stop offset="0.502" stop-color="#C74840"/>
<stop offset="1" stop-color="#EB594F"/>
</linearGradient>
<linearGradient id="paint59_linear" x1="9.45023" y1="4.06287" x2="12.957" y2="3.5646" gradientUnits="userSpaceOnUse">
<stop stop-color="#EB594F"/>
<stop offset="0.502" stop-color="#C74840"/>
<stop offset="1" stop-color="#EB594F"/>
</linearGradient>
<linearGradient id="paint60_linear" x1="10.3265" y1="22.3637" x2="14.0754" y2="21.8311" gradientUnits="userSpaceOnUse">
<stop stop-color="#FEFEFE"/>
<stop offset="0.502" stop-color="#D0D1D1"/>
<stop offset="1" stop-color="#FEFEFE"/>
</linearGradient>
<linearGradient id="paint61_linear" x1="16.5413" y1="17.2488" x2="19.3007" y2="16.8567" gradientUnits="userSpaceOnUse">
<stop stop-color="#FBDD26"/>
<stop offset="0.502" stop-color="#C89B3C"/>
<stop offset="1" stop-color="#FBDD26"/>
</linearGradient>
<linearGradient id="paint62_linear" x1="15.6599" y1="25.0008" x2="21.3964" y2="24.2366" gradientUnits="userSpaceOnUse">
<stop stop-color="#2680C2"/>
<stop offset="0.502" stop-color="#24649B"/>
<stop offset="1" stop-color="#2680C2"/>
</linearGradient>
<linearGradient id="paint63_linear" x1="4.79377" y1="9.05891" x2="11.4802" y2="7.83835" gradientUnits="userSpaceOnUse">
<stop stop-color="#FEFEFE"/>
<stop offset="0.502" stop-color="#AAAAA9"/>
<stop offset="1" stop-color="#FEFEFE"/>
</linearGradient>
<linearGradient id="paint64_linear" x1="17.7425" y1="16.7849" x2="23.485" y2="15.7366" gradientUnits="userSpaceOnUse">
<stop stop-color="#FEFEFE"/>
<stop offset="0.4784" stop-color="#AAAAA9"/>
<stop offset="1" stop-color="#FEFEFE"/>
</linearGradient>
<linearGradient id="paint65_linear" x1="26.6739" y1="9.48422" x2="23.0367" y2="10.4489" gradientUnits="userSpaceOnUse">
<stop stop-color="#D0D1D1"/>
<stop offset="1" stop-color="#FEFEFE"/>
</linearGradient>
<linearGradient id="paint66_linear" x1="27.3445" y1="21.8059" x2="23.8728" y2="22.6526" gradientUnits="userSpaceOnUse">
<stop stop-color="#D0D1D1"/>
<stop offset="1" stop-color="#FEFEFE"/>
</linearGradient>
<linearGradient id="paint67_linear" x1="26.5453" y1="15.7044" x2="23.606" y2="16.7187" gradientUnits="userSpaceOnUse">
<stop stop-color="#D0D1D1"/>
<stop offset="1" stop-color="#FEFEFE"/>
</linearGradient>
<linearGradient id="paint68_linear" x1="17.3651" y1="10.5648" x2="22.9549" y2="9.54442" gradientUnits="userSpaceOnUse">
<stop stop-color="#FEFEFE"/>
<stop offset="0.502" stop-color="#AAAAA9"/>
<stop offset="1" stop-color="#FEFEFE"/>
</linearGradient>
<linearGradient id="paint69_linear" x1="8.1907" y1="11.3402" x2="15.0205" y2="10.4029" gradientUnits="userSpaceOnUse">
<stop stop-color="#E53438"/>
<stop offset="0.502" stop-color="#9F3234"/>
<stop offset="1" stop-color="#E53438"/>
</linearGradient>
<linearGradient id="paint70_linear" x1="1.37699" y1="20.7144" x2="8.4338" y2="19.7459" gradientUnits="userSpaceOnUse">
<stop stop-color="#E53438"/>
<stop offset="0.502" stop-color="#9F3234"/>
<stop offset="1" stop-color="#E53438"/>
</linearGradient>
<linearGradient id="paint71_linear" x1="1.35181" y1="4.1782" x2="7.92763" y2="3.27573" gradientUnits="userSpaceOnUse">
<stop stop-color="#325092"/>
<stop offset="0.502" stop-color="#3B3F76"/>
<stop offset="1" stop-color="#325092"/>
</linearGradient>
<linearGradient id="paint72_linear" x1="14.9337" y1="12.5163" x2="20.5195" y2="11.7497" gradientUnits="userSpaceOnUse">
<stop stop-color="#E53438"/>
<stop offset="0.502" stop-color="#9F3234"/>
<stop offset="1" stop-color="#E53438"/>
</linearGradient>
<linearGradient id="paint73_linear" x1="14.3575" y1="4.87154" x2="19.5367" y2="4.16073" gradientUnits="userSpaceOnUse">
<stop stop-color="#E53438"/>
<stop offset="0.502" stop-color="#9F3234"/>
<stop offset="1" stop-color="#E53438"/>
</linearGradient>
<linearGradient id="paint74_linear" x1="20.6738" y1="20.0006" x2="26.1965" y2="19.2426" gradientUnits="userSpaceOnUse">
<stop stop-color="#E53438"/>
<stop offset="0.502" stop-color="#9F3234"/>
<stop offset="1" stop-color="#E53438"/>
</linearGradient>
<linearGradient id="paint75_linear" x1="15.6637" y1="5.96449" x2="18.4428" y2="5.58306" gradientUnits="userSpaceOnUse">
<stop stop-color="#E53438"/>
<stop offset="0.502" stop-color="#9F3234"/>
<stop offset="1" stop-color="#E53438"/>
</linearGradient>
<linearGradient id="paint76_linear" x1="17.0543" y1="23.4272" x2="19.9203" y2="23.0339" gradientUnits="userSpaceOnUse">
<stop stop-color="#E53438"/>
<stop offset="0.502" stop-color="#9F3234"/>
<stop offset="1" stop-color="#E53438"/>
</linearGradient>
<linearGradient id="paint77_linear" x1="21.8186" y1="11.6138" x2="24.9717" y2="11.181" gradientUnits="userSpaceOnUse">
<stop stop-color="#E53438"/>
<stop offset="0.502" stop-color="#9F3234"/>
<stop offset="1" stop-color="#E53438"/>
</linearGradient>
<linearGradient id="paint78_linear" x1="1.34255" y1="24.8283" x2="4.98617" y2="23.9888" gradientUnits="userSpaceOnUse">
<stop stop-color="#D0D1D1"/>
<stop offset="1" stop-color="#FEFEFE"/>
</linearGradient>
<linearGradient id="paint79_linear" x1="1.35284" y1="11.1421" x2="4.85801" y2="10.3346" gradientUnits="userSpaceOnUse">
<stop stop-color="#D0D1D1"/>
<stop offset="1" stop-color="#FEFEFE"/>
</linearGradient>
<linearGradient id="paint80_linear" x1="1.36446" y1="18.0404" x2="5.03882" y2="17.2432" gradientUnits="userSpaceOnUse">
<stop stop-color="#D0D1D1"/>
<stop offset="1" stop-color="#FEFEFE"/>
</linearGradient>
<linearGradient id="paint81_linear" x1="5.11486" y1="23.6128" x2="12.2445" y2="21.3859" gradientUnits="userSpaceOnUse">
<stop stop-color="#D0D1D1"/>
<stop offset="1" stop-color="#FEFEFE"/>
</linearGradient>
<linearGradient id="paint82_linear" x1="5.06514" y1="16.4469" x2="12.2069" y2="14.2162" gradientUnits="userSpaceOnUse">
<stop stop-color="#D0D1D1"/>
<stop offset="1" stop-color="#FEFEFE"/>
</linearGradient>
<linearGradient id="paint83_linear" x1="18.107" y1="22.9126" x2="23.846" y2="22.1297" gradientUnits="userSpaceOnUse">
<stop stop-color="#FEFEFE"/>
<stop offset="0.4588" stop-color="#AAAAA9"/>
<stop offset="1" stop-color="#D0D1D1"/>
</linearGradient>
<linearGradient id="paint84_linear" x1="11.9786" y1="14.6638" x2="17.8379" y2="13.8644" gradientUnits="userSpaceOnUse">
<stop stop-color="#FEFEFE"/>
<stop offset="0.4902" stop-color="#AAAAA9"/>
<stop offset="1" stop-color="#D0D1D1"/>
</linearGradient>
<linearGradient id="paint85_linear" x1="11.3418" y1="8.3776" x2="17.4296" y2="7.54713" gradientUnits="userSpaceOnUse">
<stop stop-color="#FEFEFE"/>
<stop offset="0.4902" stop-color="#AAAAA9"/>
<stop offset="1" stop-color="#D0D1D1"/>
</linearGradient>
<linearGradient id="paint86_linear" x1="12.0598" y1="21.2629" x2="18.1822" y2="20.4277" gradientUnits="userSpaceOnUse">
<stop stop-color="#FEFEFE"/>
<stop offset="0.4588" stop-color="#AAAAA9"/>
<stop offset="1" stop-color="#D0D1D1"/>
</linearGradient>
<linearGradient id="paint87_linear" x1="8.62224" y1="25.2132" x2="15.8343" y2="23.9973" gradientUnits="userSpaceOnUse">
<stop stop-color="#325092"/>
<stop offset="0.502" stop-color="#3B3F76"/>
<stop offset="1" stop-color="#325092"/>
</linearGradient>
<linearGradient id="paint88_linear" x1="3.09978" y1="11.4918" x2="6.6564" y2="10.9158" gradientUnits="userSpaceOnUse">
<stop stop-color="#FEFEFE"/>
<stop offset="0.502" stop-color="#D0D1D1"/>
<stop offset="1" stop-color="#FEFEFE"/>
</linearGradient>
<linearGradient id="paint89_linear" x1="20.8335" y1="5.43422" x2="23.8953" y2="4.93833" gradientUnits="userSpaceOnUse">
<stop stop-color="#FEFEFE"/>
<stop offset="0.502" stop-color="#D0D1D1"/>
<stop offset="1" stop-color="#FEFEFE"/>
</linearGradient>
<linearGradient id="paint90_linear" x1="9.54746" y1="2.6306" x2="12.8333" y2="2.07661" gradientUnits="userSpaceOnUse">
<stop stop-color="#325092"/>
<stop offset="0.502" stop-color="#3B3F76"/>
<stop offset="1" stop-color="#325092"/>
</linearGradient>
<linearGradient id="paint91_linear" x1="15.5948" y1="4.87424" x2="18.2925" y2="4.51769" gradientUnits="userSpaceOnUse">
<stop stop-color="#FBDD26"/>
<stop offset="0.502" stop-color="#C89B3C"/>
<stop offset="1" stop-color="#FBDD26"/>
</linearGradient>
<linearGradient id="paint92_linear" x1="3.01916" y1="4.56474" x2="6.42768" y2="4.03988" gradientUnits="userSpaceOnUse">
<stop stop-color="#FAC42C"/>
<stop offset="0.502" stop-color="#C78D3B"/>
<stop offset="1" stop-color="#FAC42C"/>
</linearGradient>
<linearGradient id="paint93_linear" x1="14.3459" y1="6.28347" x2="19.4622" y2="5.42091" gradientUnits="userSpaceOnUse">
<stop stop-color="#325092"/>
<stop offset="0.502" stop-color="#3B3F76"/>
<stop offset="1" stop-color="#325092"/>
</linearGradient>
<linearGradient id="paint94_linear" x1="7.89841" y1="4.91035" x2="14.3839" y2="4.05321" gradientUnits="userSpaceOnUse">
<stop stop-color="#FBDD26"/>
<stop offset="0.502" stop-color="#C89B3C"/>
<stop offset="1" stop-color="#FBDD26"/>
</linearGradient>
<linearGradient id="paint95_linear" x1="19.5026" y1="7.61336" x2="25.2932" y2="6.72167" gradientUnits="userSpaceOnUse">
<stop stop-color="#FAC42C"/>
<stop offset="0.502" stop-color="#C78D3B"/>
<stop offset="1" stop-color="#FAC42C"/>
</linearGradient>
<linearGradient id="paint96_linear" x1="1.37987" y1="6.64278" x2="8.01341" y2="5.75914" gradientUnits="userSpaceOnUse">
<stop stop-color="#29A154"/>
<stop offset="0.502" stop-color="#24834B"/>
<stop offset="1" stop-color="#29A154"/>
</linearGradient>
<linearGradient id="paint97_linear" x1="4.58239" y1="2.40987" x2="10.9845" y2="1.24119" gradientUnits="userSpaceOnUse">
<stop stop-color="#FEFEFE"/>
<stop offset="1" stop-color="#AAAAA9"/>
</linearGradient>
<linearGradient id="paint98_linear" x1="25.5439" y1="2.88936" x2="21.9332" y2="4.54696" gradientUnits="userSpaceOnUse">
<stop stop-color="#D0D1D1"/>
<stop offset="1" stop-color="#FEFEFE"/>
</linearGradient>
<linearGradient id="paint99_linear" x1="16.3467" y1="4.66589" x2="21.6908" y2="3.69039" gradientUnits="userSpaceOnUse">
<stop stop-color="#FEFEFE"/>
<stop offset="0.502" stop-color="#AAAAA9"/>
<stop offset="1" stop-color="#FEFEFE"/>
</linearGradient>
<linearGradient id="paint100_linear" x1="10.8433" y1="2.26461" x2="16.4226" y2="1.24614" gradientUnits="userSpaceOnUse">
<stop stop-color="#FEFEFE"/>
<stop offset="0.5412" stop-color="#AAAAA9"/>
<stop offset="1" stop-color="#FEFEFE"/>
</linearGradient>
<linearGradient id="paint101_linear" x1="1.36418" y1="4.42896" x2="4.60398" y2="3.3915" gradientUnits="userSpaceOnUse">
<stop stop-color="#D0D1D1"/>
<stop offset="1" stop-color="#FEFEFE"/>
</linearGradient>
<clipPath id="clip0">
<rect width="30" height="30" fill="white"/>
</clipPath>
</defs>
</svg>
