<svg width="20" height="20" viewBox="0 0 20 20" fill="none" xmlns="http://www.w3.org/2000/svg">
<path fill-rule="evenodd" clip-rule="evenodd" d="M17.0548 2.94054C15.0978 1.00575 12.7472 0.0356293 9.99751 0.0356293C7.25328 0.0356293 4.9028 1.00587 2.94594 2.94054C1.00558 4.8974 0.0353394 7.248 0.0353394 9.99768C0.0353394 12.7419 1.00558 15.0924 2.94582 17.0493C4.90268 18.9896 7.25328 19.9597 9.99739 19.9597C12.7471 19.9597 15.0977 18.9896 17.0547 17.0493C18.9893 15.0923 19.9594 12.7419 19.9651 9.99768C19.9596 7.248 18.9894 4.8974 17.0548 2.94054ZM16.4948 3.40062L16.4505 3.37843L16.4948 3.40062ZM15.3084 4.71452C16.7776 6.16704 17.5147 7.92429 17.5147 9.99768C17.5147 12.0655 16.7774 13.8339 15.3084 15.3031C13.8337 16.7776 12.071 17.5095 9.99751 17.5095C7.91308 17.5095 6.14455 16.7776 4.69216 15.3031C3.21757 13.8339 2.48574 12.0655 2.48574 9.99768C2.48574 7.92429 3.21746 6.16704 4.69216 4.71452C6.14455 3.23994 7.91308 2.50811 9.99751 2.50811C12.071 2.50811 13.8336 3.23982 15.3084 4.71452ZM8.00173 2.29189L7.99069 2.26412L8.01277 2.28631L8.00173 2.29189Z" fill="#413088"/>
<path fill-rule="evenodd" clip-rule="evenodd" d="M15.3461 4.68274C13.871 3.2075 12.0936 2.46988 10.0085 2.46988C7.94665 2.46988 6.16927 3.2075 4.67672 4.68274C3.2073 6.15798 2.46967 7.92352 2.46967 9.9913C2.46967 12.0531 3.2073 13.8305 4.67672 15.323C6.16927 16.7924 7.94665 17.5301 10.0085 17.5301C12.0936 17.5301 13.8708 16.7924 15.3461 15.323C16.7982 13.8479 17.5299 12.0705 17.5299 9.9913C17.53 7.92352 16.7982 6.1581 15.3461 4.68274Z" fill="#336337"/>
<path d="M12.9308 14.1199L13.0423 14.2322C13.3505 14.1626 13.5574 13.9543 13.6637 13.6119L12.9308 12.8793M12.9308 14.1199L12.4577 13.6387L11.9798 13.1573L11.4432 12.6226L10.657 11.8313C10.7526 11.5105 10.9599 11.3018 11.2787 11.2108L11.4433 11.3819L11.9799 11.9166M12.9308 14.1199V12.8793M12.9308 12.8793L12.4578 12.3979M12.4578 12.3979L11.9799 11.9166M12.4578 12.3979L12.4578 13.6386M11.9799 11.9166L11.9799 13.1572M11.4432 11.3819V12.6225M9.20685 12.0077L9.37685 11.8366C9.28133 11.5157 9.07415 11.3126 8.75531 11.2163L7.97445 12.0077M9.20685 12.0077H7.97445M9.20685 12.0077L7.7194 13.5049M7.97445 12.0077L7.43786 12.5424M7.43786 12.5424L6.95981 13.0235M7.43786 12.5424L8.6756 12.5424M6.95981 13.0235L6.487 13.5049M6.95981 13.0235L8.19755 13.0235M6.487 13.5049L6.37545 13.6172C6.44459 13.9274 6.64643 14.1359 6.99165 14.2375L7.7194 13.5049M6.487 13.5049H7.7194M5.45677 6.33599V6.36221M5.45677 6.88625V7.33173M5.45677 6.88625H5.1809M5.45677 6.88625H5.92524M5.45677 7.33173H5.11322M5.45677 7.33173V7.93959M5.45677 7.33173H5.92524M5.45677 6.88636V6.36232H5.92524M5.34745 8.43752H5.45677M5.45677 8.43752V8.62624M5.45677 8.43752H5.92524M5.45677 7.93959H5.17044M5.45677 7.93959V8.4374M5.45677 7.93959H5.92524M7.92959 5.91673V5.88009M7.92959 5.91673H8.0025M7.92959 5.91673V6.36221M7.92959 5.91673H7.43507M8.55948 6.36232H8.39805M8.39805 6.36232V6.20498M8.39805 6.36232H7.92959V6.88636M7.92959 7.33173V6.88625M7.92959 7.33173H8.39805M7.92959 7.33173V7.93959M7.92959 6.88625H8.39805M7.92959 6.88625H7.43507M8.39805 6.88625V7.33173M8.39805 6.88625V6.36221M8.39805 6.88625H8.90827M8.39805 7.33173H8.91862M8.39805 7.33173V7.93959M9.12691 7.33173H8.91862M8.91862 7.33173L8.90827 6.88625M8.91862 7.33173V7.93959M8.90827 6.88625V6.82338M8.90827 6.88625H8.94467M7.43496 5.69136V5.91673H6.91439M6.91439 5.91673V5.62849M6.91439 5.91673V6.36221M6.91439 5.91673H5.92524M5.92524 5.91673H5.88884M5.92524 5.91673V5.89578M6.36265 5.69674V6.36232M6.36265 6.88625V7.33173M6.36265 6.88625H5.92524M6.36265 6.88625H6.91439M6.36265 7.33173H5.92524M6.36265 7.33173H6.91439M6.36265 7.33173V7.93959M5.92524 7.33173V6.88625M5.92524 7.33173V7.93959M5.92524 6.88625V6.36221M5.92524 6.36232H6.36265M5.92524 6.36232V5.91685M6.36265 6.36232V6.88636M6.36265 6.36232H6.91439M6.91439 6.88625H7.43496M6.91439 6.88625V7.33173M7.43496 6.88625V7.33173M7.43496 6.88625V6.36221M7.43496 7.33173H6.91439M7.43496 7.33173H7.92947M7.43496 7.33173V7.93959M6.91439 7.33173V7.93959M7.43496 6.36232H6.91439M7.43496 6.36232V5.91685M7.43496 6.36232H7.92947M6.91439 6.36232V6.88636M6.91439 8.43752V7.9397M6.91439 8.43752H7.43496M6.91439 8.43752V9.07687M6.91439 8.43752H6.36265M7.43496 7.93959V8.4374M7.43496 7.93959H6.91439M6.91439 7.93959H6.36265M7.43496 8.43752V9.07687M7.43496 8.43752H7.92947M6.36265 7.93959H5.92524M6.36265 7.93959V8.4374M5.92524 8.43752H6.36265M5.92524 8.43752V7.9397M5.92524 8.43752V9.07687M6.36265 8.43752V9.07687M5.82115 9.07687H5.92535M6.36265 9.07687V9.43314M6.36265 9.07687H5.92524M6.36265 9.07687H6.91439M5.92524 9.07687V9.17113M7.43496 9.5432V9.75288M7.43496 9.5432H6.91439M7.43496 9.5432V9.07687M6.91439 9.5432V9.69516M6.91439 9.5432V9.07687M6.91439 9.5432H6.48756M6.91439 9.07687H7.43496M8.91862 7.93959H9.21019M8.91862 7.93959H8.39805M9.15308 8.43752H8.91873M8.91862 8.43752V7.9397M8.91862 8.43752H8.39805M8.91862 8.43752V8.96156M7.92959 8.43752V7.9397M7.92959 8.43752H8.39805M7.92959 8.43752V9.07687M8.39805 8.43752V9.07687M8.39805 7.93959V8.4374M8.39805 7.93959H7.92959M7.92959 7.93959H7.43507M8.84058 9.07687H8.39805M8.39805 9.07687H7.92959M7.92959 9.5432H8.28884M7.92959 9.5432V9.69001M7.92959 9.5432V9.07687M7.92959 9.5432H7.43507M8.39805 9.48033V9.07676M7.92959 9.07687H7.43507M14.5873 6.31626V6.34249M14.5873 6.34249V6.86652M14.5873 6.34249H14.119M14.5873 6.86652V7.31189M14.5873 6.86652H14.8633M14.5873 6.86652H14.119M14.5873 7.31189H14.9311M14.5873 7.31189V7.91976M14.5873 7.31189H14.119M14.6968 8.41768H14.5874M14.5873 8.41768V8.60641M14.5873 8.41768V7.91987M14.5873 8.41768H14.119M14.5873 7.91987H14.8737M14.5873 7.91987H14.119M12.1147 5.89701V5.86025M12.1147 5.89701V6.34249M12.1147 5.89701H12.6094M12.0418 5.89701H12.1146M11.4847 6.34249H11.646M11.6462 6.34249V6.18525M11.6462 6.34249V6.86652M11.6462 6.34249H12.1147M12.1147 7.31189V6.86652M12.1147 7.31189H11.6462M12.1147 7.31189V7.91976M12.1147 7.31189H12.6094M12.1147 6.86652H11.6462M12.1147 6.86652V6.34249M12.1147 6.86652H12.6094M11.6462 6.86652V7.31189M11.6462 6.86652H11.136L11.1256 7.31189M11.6462 7.31189H11.1256M12.1147 6.34249H12.6094M10.9175 7.31189H11.1256M11.1256 7.31189V7.91976M11.136 6.80365V6.86664M11.0996 6.86652H11.1359M12.6094 5.89701V5.67164M12.6094 5.89701H13.1299M12.6094 5.89701V6.34249M13.1299 5.89701V5.60877M13.1299 5.89701V6.34249M13.1299 5.89701H13.6818M14.119 5.89701H14.1553M14.119 5.89701V5.87605M14.119 5.89701V6.34249M13.6818 5.6769V5.89701M13.6818 5.89701H14.1191M13.6818 5.89701V6.34249M13.6818 6.86652V7.31189M13.6818 6.86652V6.34249M13.6818 6.86652H14.1191M13.6818 6.86652H13.1299M13.6818 7.31189H13.1299M13.6818 7.31189V7.91976M14.119 7.31189V6.86652M14.119 7.31189H13.6817M14.119 6.86652V6.34249M14.119 6.34249H13.6817M13.6818 6.34249H13.1299M13.1299 6.86652H12.6094M13.1299 6.86652V7.31189M13.1299 6.86652V6.34249M12.6094 6.86652V7.31189M12.6094 6.86652V6.34249M12.6094 7.31189H13.1299M13.1299 7.31189V7.91976M12.6094 6.34249H13.1299M13.1299 8.41768V7.91987M13.1299 8.41768H12.6094M13.1299 8.41768V9.05704M13.1299 8.41768H13.6818M13.1299 7.91987H12.6094M13.1299 7.91987H13.6818M12.6094 7.91987V8.41768M12.6094 7.91987H12.1147M12.6094 7.91987V7.312M12.6094 8.41768V9.05704M12.6094 8.41768H12.1147M13.6818 7.91987H14.1191M13.6818 7.91987V8.41768M14.119 8.41768H13.6817M14.119 8.41768V7.91987M14.119 8.41768V9.05704M14.119 7.91987V7.312M13.6818 8.41768V9.05704M14.2232 9.05704H14.119M14.119 9.05704V9.1514M13.6818 9.05704V9.41342M13.6818 9.05704H14.1191M13.6818 9.05704H13.1299M12.6094 9.52336V9.73304M12.6094 9.52336H13.1299M12.6094 9.52336V9.05704M12.6094 9.52336H12.1147M13.1299 9.52336V9.67533M13.1299 9.52336V9.05704M13.1299 9.52336H13.5568M13.1299 9.05704H12.6094M12.6094 9.05704H12.1147M11.1256 7.91987H10.8342M11.1256 7.91987V8.41768M11.1256 7.91987H11.6462M10.8913 8.41768H11.1256M11.1256 8.41768H11.6462M11.1256 8.41768V8.94172M12.1147 8.41768V7.91987M12.1147 8.41768H11.6462M12.1147 8.41768V9.05704M12.1147 7.91987H11.6462M11.6462 8.41768V7.91987M11.6462 8.41768V9.05704M11.6462 7.91987V7.312M11.2038 9.05704H11.6462M11.6462 9.05704V9.4606M11.6462 9.05704H12.1147M12.1147 9.52336H11.7555M12.1147 9.52336V9.67017M12.1147 9.52336V9.05704M11.186 11.2889L10.0197 10.0826L9.80179 9.86315C9.64771 9.64933 9.55208 9.39257 9.50966 9.09312C9.48306 8.89521 9.47771 8.676 9.49898 8.44077C9.49898 8.41398 9.51668 8.31805 9.52024 8.28566C9.53249 8.17359 9.5415 8.05569 9.53616 7.93275C9.53616 7.89532 9.53616 7.85789 9.53082 7.82046C9.52117 7.64888 9.4945 7.47869 9.45122 7.31245C9.41403 7.15734 9.35559 7.00762 9.28656 6.85789C9.14725 6.57758 8.9623 6.32272 8.73939 6.10389C8.65968 6.01827 8.5695 5.94341 8.48445 5.86865C8.17117 5.62266 7.83106 5.45153 7.45923 5.36591C7.31981 5.33251 7.17749 5.31284 7.03429 5.30719C6.39683 5.26438 5.86568 5.45153 5.43796 5.86865C5.43006 5.8793 5.41937 5.88995 5.41403 5.89544C5.13782 6.17337 4.95725 6.49434 4.8722 6.85789C4.84036 7.00235 4.82444 7.15208 4.81909 7.31245C4.81909 7.38193 4.81909 7.4568 4.82444 7.53166C4.83501 7.66536 4.85093 7.80432 4.88277 7.93275C4.91995 8.10926 4.97317 8.2804 5.04742 8.44077C5.15363 8.67062 5.29179 8.88456 5.47236 9.09312C5.51489 9.1412 5.56799 9.19477 5.61586 9.24823C5.71037 9.34441 5.81152 9.43373 5.91856 9.51551C5.93983 9.53165 5.96644 9.55295 5.99293 9.56908C6.27243 9.77306 6.5907 9.91685 6.92786 9.99148C7.05533 10.0184 7.18815 10.0397 7.3263 10.0452C7.50699 10.0557 7.68222 10.0504 7.84698 10.0238C8.54813 9.98094 9.0422 10.0772 9.32375 10.3179L9.54685 10.5425L10.7247 11.7324L11.186 11.2889ZM8.80707 11.3353L9.28155 11.7533L9.37228 11.6708L10.0302 11.029L10.7155 10.3553C10.9226 10.2 11.1775 10.0985 11.4804 10.0611C11.6715 10.0289 11.8894 10.0289 12.1231 10.0503C12.1496 10.0556 12.2509 10.0632 12.2773 10.0663C12.389 10.0794 12.5056 10.0877 12.6277 10.0877C12.6649 10.0825 12.7021 10.0825 12.7393 10.0825C12.9097 10.0727 13.0788 10.0458 13.2439 10.0021C13.4033 9.95942 13.5468 9.90059 13.6956 9.83099C13.9611 9.70267 14.2107 9.51551 14.4445 9.28566C14.5266 9.2022 14.6046 9.11475 14.6783 9.02364C14.9164 8.72168 15.0868 8.3714 15.1777 7.99686C15.2094 7.85251 15.2308 7.71343 15.2361 7.56371C15.2733 6.92738 15.0872 6.39258 14.6756 5.95943C14.6624 5.94878 14.6571 5.93803 14.6517 5.93276C14.3701 5.65471 14.0515 5.47282 13.6956 5.39269C13.5468 5.36053 13.4033 5.33913 13.2439 5.33913C13.1748 5.33386 13.1006 5.33913 13.0261 5.34439C12.888 5.34977 12.7551 5.37118 12.6277 5.39796C12.4525 5.44066 12.2824 5.49423 12.1231 5.56898C11.8947 5.67052 11.6769 5.81497 11.4752 5.99148C11.4218 6.03956 11.3688 6.08775 11.321 6.14121C11.2266 6.23564 11.138 6.33563 11.0554 6.44066C11.0395 6.46744 11.0183 6.49423 11.0021 6.5209C10.7949 6.8097 10.6568 7.1198 10.5824 7.46206C10.5559 7.59038 10.54 7.72408 10.5293 7.85767C10.5186 8.04482 10.5241 8.21607 10.5506 8.3872C10.593 9.08763 10.4972 9.585 10.2638 9.8738L8.92319 11.2233L8.80707 11.3353ZM10.5826 13.2803C10.4287 13.1198 10.2428 13.0398 10.025 13.0398C9.8019 13.0398 9.61598 13.1199 9.46179 13.2803C9.30782 13.43 9.22811 13.6172 9.23346 13.842C9.22811 14.0611 9.30782 14.2482 9.46179 14.4034C9.61587 14.5584 9.80179 14.6386 10.025 14.6386C10.2429 14.6386 10.4287 14.5584 10.5826 14.4034C10.7368 14.2482 10.8164 14.0611 10.8164 13.842C10.8163 13.6172 10.7368 13.43 10.5826 13.2803ZM10.8254 8.34988C10.8189 8.32713 10.8097 8.24106 10.8065 8.21237C10.7956 8.11308 10.7878 8.00851 10.7924 7.89947C10.7924 7.8663 10.7924 7.83313 10.7972 7.79995C10.8065 7.6435 10.83 7.49176 10.8679 7.34966C10.9007 7.21215 10.9527 7.07934 11.0138 6.94665C11.1374 6.6982 11.3013 6.4723 11.4989 6.27827C11.5696 6.2024 11.6496 6.13605 11.7247 6.06971C12.0026 5.85162 12.304 5.69988 12.6336 5.62401C12.7561 5.59565 12.8784 5.5766 13.0103 5.57189C13.5753 5.5339 14.0464 5.69988 14.4253 6.0696C14.4325 6.07901 14.4418 6.08854 14.4466 6.09324C14.6914 6.33968 14.8515 6.62412 14.9269 6.94643C14.9551 7.07441 14.9693 7.20722 14.9738 7.34943C14.9738 7.41096 14.9738 7.47742 14.9693 7.54376C14.9597 7.66222 14.9456 7.7855 14.9173 7.89925C14.8845 8.0557 14.8372 8.20744 14.7713 8.34965C14.6772 8.55351 14.5548 8.74302 14.3947 8.92793C14.3569 8.97052 14.3099 9.01804 14.2675 9.06544C14.1836 9.15073 14.0939 9.22994 13.999 9.30247C13.9802 9.3167 13.9565 9.33564 13.933 9.34988C13.6853 9.53072 13.4033 9.65821 13.1044 9.72441C12.9913 9.74817 12.8735 9.767 12.7511 9.77182C12.591 9.78135 12.4369 9.7679 12.2896 9.75288C11.6846 9.69102 11.079 9.23075 10.8254 8.34988Z" stroke="white" stroke-width="0.2" stroke-miterlimit="2.613" stroke-linecap="round" stroke-linejoin="round"/>
</svg>
