
<svg xmlns="http://www.w3.org/2000/svg" width="1499" height="347" viewBox="0 0 1499 347" version="1.1"><path d="M 361 1.669 C 303.628 7.393, 253.691 21.859, 219.029 42.795 C 201.420 53.431, 188.818 64.375, 174.528 81.439 C 164.451 93.472, 168.091 91.747, 135.422 99.971 C 124.465 102.729, 113.785 105.465, 111.688 106.051 C 103.622 108.307, 98.949 114.570, 74.837 155.451 C 68.365 166.424, 63.206 175.540, 63.374 175.708 C 63.542 175.876, 69.264 173.574, 76.090 170.592 C 91.007 164.076, 97.995 161.681, 108.208 159.583 C 125.070 156.120, 131 158.484, 131 168.671 C 131 173.024, 133.351 182.321, 136.037 188.587 L 138.045 193.270 134.240 196.526 C 132.148 198.317, 129.101 202.194, 127.468 205.141 L 124.500 210.500 124.184 233.750 L 123.867 257 145.755 257 C 171.730 257, 174.318 256.409, 182.751 248.560 L 188.331 243.366 194.135 245.710 C 199.796 247.997, 205.605 249.323, 215.257 250.530 C 219.304 251.036, 220.255 251.593, 221.639 254.268 C 225.300 261.348, 221.322 280.057, 211.083 303.915 C 207.876 311.387, 205.369 317.636, 205.512 317.802 C 205.654 317.968, 213.585 313.514, 223.135 307.904 C 265.087 283.260, 272.941 277.540, 274.998 270.135 C 275.554 268.136, 278.676 255.925, 281.936 243 C 285.196 230.075, 288.232 218.566, 288.682 217.424 C 289.132 216.283, 294.225 211.297, 300 206.346 C 322.132 187.370, 335.140 170.431, 347.878 143.999 C 364.933 108.612, 377.320 58.017, 379.806 13.589 L 380.511 1 372.505 1.160 C 368.102 1.248, 362.925 1.477, 361 1.669 M 347.877 18.997 C 307.091 24.404, 271.615 34.252, 243.026 48.102 C 217.994 60.229, 204.027 70.901, 187.444 90.571 C 158.343 125.089, 146.816 145.842, 146.657 164 C 146.602 170.206, 148.785 180.750, 150.557 182.839 C 150.715 183.026, 158.859 176.832, 168.653 169.075 C 180.132 159.984, 188.258 154.299, 191.516 153.080 C 197.605 150.802, 239.120 140.787, 239.772 141.439 C 240.745 142.412, 229.684 185.807, 227.012 191.500 C 225.464 194.800, 218.297 204.896, 211.086 213.935 L 197.975 230.370 201.194 231.724 C 202.965 232.468, 207.438 233.596, 211.135 234.230 C 227.802 237.088, 249.170 227.275, 279.739 202.724 C 303.913 183.310, 315.494 170.503, 326.819 150.661 C 340.438 126.799, 351.737 93.251, 358.446 56.760 C 360.505 45.560, 364 21.030, 364 17.780 C 364 16.828, 364.550 16.786, 347.877 18.997 M 279.045 56.092 C 265.512 58.745, 254.083 69.115, 249.536 82.867 C 246.985 90.583, 247.731 102.561, 251.240 110.218 C 254.694 117.756, 262.039 125.460, 269.484 129.354 C 275.169 132.327, 276.105 132.500, 286.500 132.500 C 296.286 132.500, 298.107 132.212, 303 129.890 C 322.857 120.467, 331.206 97.309, 321.891 77.491 C 316.912 66.900, 305.495 58.272, 293.566 56.087 C 286.869 54.860, 285.328 54.861, 279.045 56.092 M 279.137 72.308 C 274.377 74.117, 268.292 79.498, 266.120 83.819 C 263.176 89.678, 262.704 94.469, 264.471 100.549 C 269.103 116.480, 287.396 122.740, 300.846 112.996 C 306.048 109.228, 310.007 101.233, 309.978 94.554 C 309.954 89.061, 307.227 81.949, 303.688 78.153 C 298.361 72.438, 286.333 69.575, 279.137 72.308 M 130.500 117.398 L 114.500 121.500 107.250 132.478 C 103.262 138.517, 100 143.825, 100 144.274 C 100 144.723, 101.688 144.733, 103.750 144.295 C 108.525 143.283, 128.837 143.257, 131.569 144.260 C 133.398 144.932, 133.956 144.238, 136.396 138.260 C 138.960 131.978, 144.168 122.231, 148.424 115.750 C 150.173 113.087, 150.171 113.005, 148.365 113.148 C 147.339 113.229, 139.300 115.141, 130.500 117.398 M 207.732 164.568 C 202.360 165.877, 197.103 167.410, 196.049 167.974 C 191.505 170.406, 144.295 208.373, 142.286 211.211 C 139.771 214.763, 138.712 220.270, 139.180 227.359 L 139.500 232.217 164.921 211.113 C 178.902 199.506, 190.530 190.196, 190.759 190.426 C 190.989 190.655, 181.713 202.241, 170.147 216.171 L 149.118 241.500 155.782 241.801 C 168.198 242.361, 168.582 242.059, 190.730 214.224 C 201.465 200.732, 211.150 188.166, 212.251 186.299 C 213.760 183.741, 219 165.195, 219 162.412 C 219 161.839, 218.700 161.896, 207.732 164.568 M 79.909 203.750 C 74.950 209.388, 63.578 227.238, 57.883 238.325 C 55.107 243.729, 49.036 257.653, 44.393 269.268 C 31.824 300.708, 24.508 313.721, 8.985 332.248 C 4.201 337.957, 1.666 341.740, 2.366 342.127 C 4.984 343.576, 30.800 346.194, 47.586 346.714 C 99.480 348.322, 141.739 334.845, 170.939 307.375 C 177.818 300.905, 189 286.476, 189 284.072 C 189 283.653, 185.630 286.584, 181.511 290.585 C 156.552 314.826, 120.936 328.180, 72.195 331.573 C 61.913 332.289, 33.972 331.219, 32.058 330.036 C 31.183 329.495, 31.887 327.652, 34.573 323.453 C 43.319 309.781, 48.240 297.326, 60.040 259 C 64.984 242.939, 71.301 226.653, 78.560 211.250 C 81.476 205.063, 83.714 200, 83.534 200 C 83.354 200, 81.723 201.688, 79.909 203.750 M 264 233.613 C 259.687 236.712, 239.067 247, 237.169 247 C 236.260 247, 236.019 247.599, 236.466 248.750 C 239.161 255.690, 239.110 269.476, 236.349 279.819 C 235.795 281.897, 236.637 281.584, 244.424 276.819 C 259.940 267.325, 259.433 268.054, 264.297 248.250 C 266.627 238.762, 268.301 231.022, 268.017 231.049 C 267.732 231.076, 265.925 232.230, 264 233.613" stroke="none" fill="#0cc474" fill-rule="evenodd"/><path d="M 573.250 62.857 L 564 67.450 564 152.725 L 564 238 573.500 238 L 583 238 583.008 201.250 C 583.012 180.551, 583.472 161.661, 584.060 158 C 586.142 145.047, 592.530 135.677, 603.174 129.964 C 608.924 126.878, 610.411 126.535, 619.500 126.192 C 627.842 125.877, 630.425 126.163, 635.079 127.915 C 642.930 130.871, 648.307 135.848, 652.208 143.768 L 655.500 150.453 655.799 194.226 L 656.098 238 666.121 238 L 676.144 238 675.762 192.750 C 675.423 152.709, 675.174 146.867, 673.594 142 C 666.419 119.892, 650.122 108, 627 108 C 610.175 108, 597.183 114.252, 586.841 127.324 L 583.024 132.149 582.762 95.206 L 582.500 58.263 573.250 62.857 M 1341.250 62.784 L 1332 67.450 1332 152.725 L 1332 238 1341.500 238 L 1351 238 1351 148 C 1351 98.500, 1350.888 58.026, 1350.750 58.059 C 1350.612 58.091, 1346.338 60.217, 1341.250 62.784 M 1286.750 71.561 L 1278 76.022 1278 157.011 L 1278 238 1287.500 238 L 1297 238 1297 152.500 C 1297 105.475, 1296.662 67.023, 1296.250 67.051 C 1295.838 67.078, 1291.563 69.108, 1286.750 71.561 M 480 108.627 C 456.997 113.060, 437.872 129.269, 429.914 151.073 C 424.508 165.886, 424.353 182.557, 429.485 197.335 C 436.158 216.551, 452.172 232.158, 471.500 238.282 C 481.875 241.569, 501.506 241.481, 511.828 238.100 C 520.806 235.158, 529.645 229.628, 537.238 222.199 L 542.977 216.585 540.238 213.700 C 538.732 212.113, 535.865 209.510, 533.867 207.916 L 530.234 205.017 525.867 209.041 C 505.386 227.910, 479.854 228.795, 460.947 211.290 C 442.773 194.465, 440.263 163.788, 455.381 143.275 C 468.445 125.551, 491.860 120.048, 511.719 130.036 C 514.899 131.635, 520.359 135.296, 523.854 138.172 L 530.208 143.400 536.337 137.058 L 542.467 130.716 536.846 125.608 C 529.671 119.088, 520.270 113.512, 512 110.872 C 505.602 108.830, 486.061 107.458, 480 108.627 M 891.348 109.420 C 880.655 112.014, 870.986 118.513, 863.707 128 L 861.022 131.500 861.011 121.250 L 861 111 851 111 L 841 111 841 174.500 L 841 238 850.949 238 L 860.899 238 861.202 196.250 C 861.501 155.266, 861.549 154.395, 863.824 148.753 C 866.876 141.183, 874.576 132.844, 881.754 129.332 C 889.309 125.636, 902.919 124.846, 911.677 127.596 C 919.583 130.079, 927.792 138.064, 931.113 146.500 C 933.445 152.423, 933.479 153.050, 933.796 195.250 L 934.117 238 943.559 238 L 953 238 952.985 194.250 C 952.969 146.826, 952.647 143.280, 947.374 132.511 C 941.790 121.106, 930.706 112.458, 917.959 109.559 C 909.893 107.724, 898.581 107.665, 891.348 109.420 M 1021.202 109.961 C 1010.209 112.933, 1002.464 117.475, 993.914 125.966 C 981.961 137.837, 977 150.166, 977 168 C 977 189.417, 985.817 206.713, 1002.383 217.794 C 1013.086 224.952, 1020.053 227.128, 1034.234 227.739 C 1044.891 228.199, 1046.729 228.007, 1054.234 225.651 C 1064.353 222.475, 1072.990 216.938, 1080.529 208.795 L 1086.237 202.630 1085.781 216.565 C 1085.411 227.883, 1084.903 231.587, 1083.078 236.285 C 1079.776 244.783, 1071.940 252.805, 1062.801 257.041 C 1055.909 260.236, 1054.767 260.448, 1042.408 260.824 C 1031.468 261.157, 1027.940 260.874, 1020.944 259.105 C 1011.655 256.756, 1002.327 252.697, 995.633 248.091 L 991.225 245.059 987.112 252.162 C 984.851 256.068, 983 259.623, 983 260.060 C 983 261.412, 994.113 267.679, 1002 270.775 C 1016.048 276.289, 1022.980 277.500, 1040.500 277.500 C 1054.474 277.500, 1057.450 277.204, 1064 275.159 C 1085.280 268.517, 1097.435 256.167, 1103.215 235.314 C 1105.298 227.797, 1105.395 225.286, 1105.762 169.250 L 1106.143 111 1096.071 111 L 1086 111 1086 121.687 L 1086 132.374 1079.624 126.046 C 1067.206 113.722, 1056.302 108.975, 1039 108.361 C 1030.794 108.070, 1026.905 108.420, 1021.202 109.961 M 1177.347 109.985 C 1155.810 115.631, 1139.912 132.293, 1133.385 156.058 C 1130.694 165.858, 1130.913 184.158, 1133.846 194.465 C 1137.256 206.453, 1141.404 213.471, 1150.463 222.584 C 1164.244 236.445, 1178.493 241.732, 1199.397 240.738 C 1217.170 239.893, 1230.738 234.002, 1242.496 222.022 L 1247.492 216.932 1241.996 212.009 C 1238.973 209.302, 1236.116 207.067, 1235.647 207.043 C 1235.178 207.019, 1232.569 209.001, 1229.849 211.446 C 1219.679 220.590, 1207.905 224.498, 1192.558 223.824 C 1185.030 223.493, 1182.381 222.902, 1176.877 220.325 C 1163.316 213.975, 1153.649 201.182, 1151.480 186.713 L 1150.773 182 1201.386 182 L 1252 182 1251.992 175.250 C 1251.977 161.384, 1247.782 145.340, 1241.442 134.905 C 1228.489 113.581, 1202.369 103.426, 1177.347 109.985 M 734.677 110.627 C 728.059 112.047, 712.896 117.156, 710.141 118.895 C 708.147 120.153, 713.815 135.340, 715.996 134.581 C 716.823 134.294, 721.353 132.709, 726.061 131.059 C 737.375 127.097, 751.379 125.369, 760.827 126.772 C 779.196 129.498, 789.003 139.421, 790.630 156.928 L 791.315 164.296 788.407 163.554 C 774.384 159.976, 770.798 159.568, 753.500 159.587 C 736.827 159.605, 734.929 159.798, 727.756 162.195 C 710.090 168.100, 700.581 178.344, 698.048 194.200 C 696.095 206.425, 699.993 218.881, 708.344 227.095 C 720.533 239.085, 741.373 243.892, 760.244 239.065 C 770.739 236.381, 777.387 232.755, 784.720 225.713 L 791 219.683 791 228.841 L 791 238 800.500 238 L 810 238 809.983 195.750 C 809.964 150.186, 809.525 145.195, 804.589 134.413 C 801.500 127.667, 793.588 119.182, 787.085 115.643 C 778.628 111.040, 768.316 108.989, 754.090 109.082 C 747.145 109.126, 738.441 109.819, 734.677 110.627 M 1371.458 112.869 C 1371.785 113.896, 1384.672 142.359, 1400.098 176.119 L 1428.144 237.500 1425.132 243.646 C 1421.417 251.230, 1416.876 256.512, 1411.885 259.059 C 1406.801 261.652, 1395.532 261.639, 1388 259.030 C 1384.975 257.982, 1382.238 257.434, 1381.919 257.812 C 1380.208 259.836, 1376.043 271.443, 1376.768 272.168 C 1377.235 272.635, 1380.290 274.020, 1383.558 275.245 C 1388.532 277.111, 1391.537 277.476, 1402 277.487 C 1413.667 277.499, 1414.878 277.314, 1420.178 274.712 C 1427.311 271.209, 1435.365 262.646, 1440.197 253.428 C 1443.077 247.932, 1470.519 181.388, 1495.322 119.750 L 1498.843 111 1488.574 111 L 1478.304 111 1459.001 161.250 C 1448.384 188.887, 1439.201 212.493, 1438.594 213.706 C 1437.627 215.640, 1434.666 209.438, 1414.609 163.456 L 1391.728 111 1381.297 111 C 1371.565 111, 1370.905 111.125, 1371.458 112.869 M 1184.355 125.039 C 1179.041 126.091, 1171.037 130.151, 1166.605 134.042 C 1159.542 140.244, 1153.054 152.554, 1151.401 162.892 L 1150.744 167 1191.372 167 L 1232 167 1232 164.710 C 1232 163.451, 1231.329 159.843, 1230.508 156.693 C 1224.544 133.795, 1205.637 120.827, 1184.355 125.039 M 1030 126.098 C 1013.148 129.389, 999.199 144.323, 997.168 161.250 C 995.326 176.598, 999.543 189.495, 1009.475 198.888 C 1017.478 206.457, 1025.969 210.135, 1036.870 210.757 C 1047.301 211.352, 1054.135 210.044, 1062.746 205.804 C 1088.861 192.948, 1094.961 159.246, 1074.818 139.104 C 1063.640 127.926, 1046.343 122.906, 1030 126.098 M 743.716 175.090 C 727.868 177.409, 718.401 185.956, 717.309 198.928 C 716.913 203.639, 717.278 205.349, 719.670 209.993 C 724.902 220.148, 734.546 225, 749.500 225 C 766.705 225, 781.220 217.243, 787.783 204.540 C 789.953 200.341, 790.457 197.817, 790.801 189.418 L 791.214 179.336 783.305 177.627 C 768.153 174.353, 754.662 173.489, 743.716 175.090" stroke="none" fill="#fafafa" fill-rule="evenodd"/></svg>