<svg width="20" height="26" viewBox="0 0 20 26" fill="none" xmlns="http://www.w3.org/2000/svg">
<path d="M9.85585 15.9131C11.4719 15.9131 12.7819 14.603 12.7819 12.987C12.7819 11.371 11.4719 10.061 9.85585 10.061C8.23984 10.061 6.92981 11.371 6.92981 12.987C6.92981 14.603 8.23984 15.9131 9.85585 15.9131Z" fill="#4FA0EB"/>
<path d="M17.625 9.51163H17.6243C16.6781 9.51163 15.9103 10.2795 15.9103 11.2264V12.9099C15.9103 16.2271 13.2202 18.918 9.90213 18.918C6.58383 18.918 3.89325 16.2271 3.89325 12.9099V11.2264C3.89325 10.2788 3.12458 9.51163 2.17852 9.51163C1.23236 9.51163 0.464478 10.2795 0.464478 11.2264V12.8786C0.464478 15.9555 1.93708 18.6884 4.21562 20.411C4.34769 20.5109 4.4253 20.6668 4.4253 20.8324V25.4706C4.4253 25.7629 4.66229 26 4.95465 26H14.7521C15.0445 26 15.2815 25.7629 15.2815 25.4706V20.8796C15.2815 20.7129 15.36 20.5561 15.4935 20.4564C17.829 18.7125 19.3391 15.9086 19.3391 12.7767V11.2264C19.339 10.2795 18.5712 9.51163 17.625 9.51163Z" fill="#4FA0EB"/>
<path d="M7.11933 4.94163C7.21017 5.052 7.25643 5.19233 7.24908 5.3351L7.14972 7.25304C7.12812 7.66969 7.54514 7.96872 7.93279 7.81463L9.69023 7.1161C9.82601 7.0621 9.97735 7.0621 10.1131 7.1161L11.8706 7.81463C12.2583 7.96872 12.6752 7.66969 12.6536 7.25304L12.5543 5.3351C12.5469 5.19233 12.5931 5.052 12.684 4.94163L13.8714 3.49936C14.1342 3.18021 13.9823 2.69628 13.5844 2.58443L11.7396 2.06609C11.607 2.02882 11.4923 1.94502 11.4164 1.83005L10.3796 0.257344C10.1534 -0.0857814 9.64995 -0.0857814 9.4237 0.257344L8.38686 1.8301C8.31106 1.94508 8.19635 2.02887 8.06375 2.06614L6.21896 2.58448C5.82094 2.69628 5.66912 3.18021 5.93189 3.49941L7.11933 4.94163Z" fill="#4FA0EB"/>
<path d="M4.62699 6.84322C4.93708 6.53318 4.93708 6.0304 4.62699 5.72031L1.48317 2.57649C1.17313 2.26645 0.67035 2.26645 0.360256 2.57649C0.050162 2.88653 0.050162 3.38931 0.360256 3.6994L3.50407 6.84322C3.81417 7.15331 4.31689 7.15326 4.62699 6.84322Z" fill="#4FA0EB"/>
<path d="M19.6396 2.57649C19.3295 2.26645 18.8267 2.26645 18.5166 2.57649L15.3728 5.72031C15.0627 6.03035 15.0627 6.53312 15.3728 6.84322C15.6829 7.15331 16.1856 7.15331 16.4957 6.84322L19.6396 3.6994C19.9497 3.38936 19.9497 2.88658 19.6396 2.57649Z" fill="#4FA0EB"/>
</svg>
