<svg width="22" height="21" viewBox="0 0 22 21" fill="none" xmlns="http://www.w3.org/2000/svg">
<path fill-rule="evenodd" clip-rule="evenodd" d="M19.1165 17.0953H2.88349C2.88349 17.0953 3.17215 12.0893 1.59741 8.53942L1.94669 8.25654L5.28217 10.9759L6.53633 6.43491L7.5685 6.18588L11 9.92479L14.4315 6.18588L15.4637 6.43491L16.7178 10.9759L20.0533 8.25654L20.4026 8.53942C18.8279 12.0893 19.1165 17.0953 19.1165 17.0953ZM16.1123 12.5049C15.5572 12.5049 15.1072 12.9549 15.1072 13.51C15.1072 14.0652 15.5572 14.5152 16.1123 14.5152C16.6675 14.5152 17.1175 14.0652 17.1175 13.51C17.1175 12.9549 16.6675 12.5049 16.1123 12.5049ZM5.88774 12.5049C5.3326 12.5049 4.88257 12.9549 4.88257 13.51C4.88257 14.0652 5.3326 14.5152 5.88774 14.5152C6.44288 14.5152 6.89291 14.0652 6.89291 13.51C6.89291 12.9549 6.44288 12.5049 5.88774 12.5049ZM11 11.3661L9.54717 13.51L11 15.654L12.4529 13.51L11 11.3661Z" fill="#FBEC64"/>
<path fill-rule="evenodd" clip-rule="evenodd" d="M12.9689 7.05656L11.7108 3.04854H10.2891L9.03101 7.05656L11 9.2019L12.9689 7.05656Z" fill="#FBEC64"/>
<path fill-rule="evenodd" clip-rule="evenodd" d="M11 0C10.096 0 9.36316 0.732859 9.36316 1.63686C9.36316 2.54084 10.096 3.2737 11 3.2737C11.904 3.2737 12.6368 2.54084 12.6368 1.63686C12.6368 0.732859 11.904 0 11 0Z" fill="#FBEC64"/>
<path fill-rule="evenodd" clip-rule="evenodd" d="M6.82794 4.24445C6.2014 4.24445 5.69348 4.75237 5.69348 5.3789C5.69348 6.00545 6.2014 6.51337 6.82794 6.51337C7.45447 6.51337 7.96239 6.00545 7.96239 5.3789C7.96239 4.75237 7.45447 4.24445 6.82794 4.24445Z" fill="#FBEC64"/>
<path fill-rule="evenodd" clip-rule="evenodd" d="M1.13445 6.42993C0.507903 6.42993 0 6.93784 0 7.56438C0 8.19093 0.507903 8.69885 1.13445 8.69885C1.76099 8.69885 2.26891 8.19093 2.26891 7.56438C2.26891 6.93784 1.76099 6.42993 1.13445 6.42993Z" fill="#FBEC64"/>
<path fill-rule="evenodd" clip-rule="evenodd" d="M15.1719 4.24445C14.5454 4.24445 14.0375 4.75237 14.0375 5.3789C14.0375 6.00545 14.5454 6.51337 15.1719 6.51337C15.7985 6.51337 16.3064 6.00545 16.3064 5.3789C16.3064 4.75237 15.7985 4.24445 15.1719 4.24445Z" fill="#FBEC64"/>
<path fill-rule="evenodd" clip-rule="evenodd" d="M20.8655 6.42993C20.239 6.42993 19.7311 6.93784 19.7311 7.56438C19.7311 8.19093 20.239 8.69885 20.8655 8.69885C21.4921 8.69885 22 8.19093 22 7.56438C22 6.93784 21.4921 6.42993 20.8655 6.42993Z" fill="#FBEC64"/>
<path fill-rule="evenodd" clip-rule="evenodd" d="M19.1215 17.5841H2.8834C2.56334 17.5841 2.30151 17.846 2.30151 18.166V19.3633C2.30151 19.8489 2.69885 20.2463 3.18448 20.2463H18.8153C19.3009 20.2463 19.6983 19.8489 19.6983 19.3633V18.161C19.6983 17.8437 19.4388 17.5841 19.1215 17.5841ZM11.2371 19.1596C11.3721 19.1596 11.4815 19.0502 11.4815 18.9152C11.4815 18.7802 11.3721 18.6708 11.2371 18.6708H10.7631C10.6282 18.6708 10.5187 18.7802 10.5187 18.9152C10.5187 19.0502 10.6282 19.1596 10.7631 19.1596H11.2371ZM8.53407 19.1596C8.66904 19.1596 8.77847 19.0502 8.77847 18.9152C8.77847 18.7802 8.66904 18.6708 8.53407 18.6708H8.06006C7.92509 18.6708 7.81566 18.7802 7.81566 18.9152C7.81566 19.0502 7.92509 19.1596 8.06006 19.1596H8.53407ZM5.83101 19.1596C5.96598 19.1596 6.07541 19.0502 6.07541 18.9152C6.07541 18.7802 5.96598 18.6708 5.83101 18.6708H5.357C5.22203 18.6708 5.1126 18.7802 5.1126 18.9152C5.1126 19.0502 5.22203 19.1596 5.357 19.1596H5.83101ZM13.4661 18.6708C13.3312 18.6708 13.2217 18.7802 13.2217 18.9152C13.2217 19.0502 13.3312 19.1596 13.4661 19.1596H13.9401C14.0751 19.1596 14.1845 19.0502 14.1845 18.9152C14.1845 18.7802 14.0751 18.6708 13.9401 18.6708H13.4661ZM16.169 18.6708C16.034 18.6708 15.9246 18.7802 15.9246 18.9152C15.9246 19.0502 16.034 19.1596 16.169 19.1596H16.643C16.778 19.1596 16.8874 19.0502 16.8874 18.9152C16.8874 18.7802 16.778 18.6708 16.643 18.6708H16.169Z" fill="#FBEC64"/>
</svg>
