<svg width="23" height="22" viewBox="0 0 23 22" fill="none" xmlns="http://www.w3.org/2000/svg">
<path d="M21.889 0.306869C21.8694 0.218456 21.8006 0.149691 21.7171 0.125132C18.8388 -0.577256 12.1931 1.92776 8.59276 5.52812C7.94931 6.16665 7.36481 6.85921 6.84416 7.59599C5.73409 7.49775 4.62402 7.58125 3.67604 7.99384C1.00402 9.16776 0.227956 12.2376 0.00692484 13.554C-0.0372814 13.8094 0.134632 14.055 0.394957 14.0992C0.439164 14.1041 0.48337 14.109 0.527576 14.1041L4.81558 13.6326C4.82049 13.9568 4.84014 14.281 4.87452 14.6002C4.89417 14.8212 4.99732 15.0325 5.15449 15.1896L6.81468 16.8449C6.97186 17.0021 7.18307 17.1052 7.4041 17.1249C7.72337 17.1593 8.04264 17.1789 8.36681 17.1838L7.89528 21.4669C7.86581 21.7272 8.05737 21.963 8.3177 21.9876C8.3619 21.9925 8.40611 21.9925 8.4454 21.9827C9.76177 21.7715 12.8366 20.9954 14.0056 18.3234C14.4182 17.3754 14.5017 16.2702 14.4083 15.1651C15.15 14.6444 15.8426 14.055 16.4811 13.4165C20.0913 9.82595 22.5816 3.32763 21.889 0.306869ZM16.2061 9.12847C15.2875 10.047 13.7944 10.0519 12.8759 9.12847C11.9524 8.20996 11.9524 6.71677 12.8759 5.79335C13.7944 4.86994 15.2875 4.86994 16.211 5.79335C17.1295 6.71677 17.1295 8.20996 16.2061 9.12847Z" fill="#D464FB"/>
<path d="M6.70165 18.0434C6.4315 18.3135 5.99927 18.4167 5.47861 18.51C4.30961 18.7065 3.27813 17.6996 3.48933 16.5207C3.56792 16.0737 3.8086 15.445 3.95596 15.2977C4.03946 15.2142 4.04437 15.0766 3.96087 14.9931C3.91175 14.944 3.8479 14.9195 3.77913 14.9293C3.12586 15.0079 2.5168 15.3075 2.05509 15.7692C0.895902 16.9284 0.787842 21.2164 0.787842 21.2164C0.787842 21.2164 5.08076 21.1083 6.23503 19.9492C6.70165 19.4825 6.99636 18.8784 7.07495 18.2202C7.0946 18.0188 6.8441 17.896 6.70165 18.0434Z" fill="#D464FB"/>
</svg>
