<svg viewBox="0 0 24 24" fill="none" xmlns="http://www.w3.org/2000/svg"><circle cx="11.9987" cy="12.0004" r="8.8"></circle><path d="M11.0649 16.0002C11.3041 16.0002 11.4892 15.8988 11.6202 15.7008L15.864 8.95814C15.9588 8.80616 15.9994 8.6772 15.9994 8.55284C15.9994 8.22584 15.7737 8.00017 15.4486 8.00017C15.2274 8.00017 15.0919 8.08307 14.9565 8.29953L11.0423 14.6323L9.03325 12.0025C8.89781 11.8229 8.75785 11.7492 8.55921 11.7492C8.23415 11.7492 7.99939 11.984 7.99939 12.3064C7.99939 12.4492 8.04905 12.5874 8.16643 12.7302L10.505 15.7054C10.663 15.9081 10.8301 16.0002 11.0649 16.0002Z" fill="black"></path></svg>