<svg xmlns="http://www.w3.org/2000/svg" xmlns:xlink="http://www.w3.org/1999/xlink" style="position: absolute; width: 0; height: 0" aria-hidden="true" id="__SVG_SPRITE_NODE__">

    <symbol xmlns="http://www.w3.org/2000/svg" viewBox="0 0 24 24" id="burger">
        <path d="M23 3H2L1 4v1l1 1h21l1-1V4l-1-1Z"></path><path d="M23 11H2l-1 1v1l1 1h21l1-1v-1l-1-1Z"></path><path d="M23 19H2l-1 1v1l1 1h21l1-1v-1l-1-1Z"></path>
    </symbol>

    <symbol xmlns="http://www.w3.org/2000/svg" viewBox="0 0 20 20" fill="none" id="flag">
        <path d="M2.70817 18.3333C2.98444 18.3333 3.24939 18.2236 3.44474 18.0282C3.64009 17.8329 3.74984 17.5679 3.74984 17.2917V14.6319C3.74985 14.5963 3.76086 14.5615 3.78136 14.5323C3.80187 14.5031 3.83087 14.4809 3.86442 14.4688L4.70192 14.1667C5.55342 13.896 6.45406 13.8161 7.33991 13.9327C8.22575 14.0492 9.07508 14.3593 9.82762 14.841C10.6757 15.3619 11.6229 15.7005 12.609 15.8355C13.5951 15.9705 14.5985 15.8988 15.5554 15.625L17.4998 15.0187C17.739 14.9504 17.9495 14.8062 18.0998 14.608C18.25 14.4098 18.3319 14.1682 18.3332 13.9194V4.78125C18.3326 4.60434 18.2912 4.42995 18.2121 4.27171C18.1329 4.11348 18.0183 3.97568 17.8771 3.86911C17.7359 3.76253 17.5719 3.69005 17.3981 3.65734C17.2242 3.62463 17.0451 3.63258 16.8748 3.68056L15.3665 4.16111C14.5018 4.40664 13.5956 4.47016 12.7051 4.34764C11.8146 4.22512 10.9592 3.91923 10.1929 3.4493C9.35321 2.91467 8.40627 2.57117 7.4191 2.44312C6.43193 2.31508 5.42869 2.40562 4.48039 2.70833L3.98248 2.88958C3.95621 2.89908 3.92804 2.9021 3.90036 2.89838C3.87267 2.89467 3.8463 2.88433 3.82346 2.86824C3.80063 2.85216 3.78201 2.8308 3.7692 2.80598C3.75638 2.78117 3.74974 2.75362 3.74984 2.72569V2.70833C3.74984 2.43207 3.64009 2.16711 3.44474 1.97176C3.24939 1.77641 2.98444 1.66667 2.70817 1.66667C2.4319 1.66667 2.16695 1.77641 1.9716 1.97176C1.77625 2.16711 1.6665 2.43207 1.6665 2.70833L1.6665 17.2917C1.6665 17.5679 1.77625 17.8329 1.9716 18.0282C2.16695 18.2236 2.4319 18.3333 2.70817 18.3333Z" fill="white"></path>
    </symbol>

    <symbol xmlns="http://www.w3.org/2000/svg" viewBox="0 0 20 20" id="ranking-ribbon">
        <path d="M4.254 13.466a.173.173 0 0 0-.02.284c.608.49 1.437.909 2.006 1.411a.173.173 0 0 0 .287-.13v-2.336a.173.173 0 0 0-.231-.164 11.32 11.32 0 0 0-2.042.935ZM4.774 14.972a9.545 9.545 0 0 1-1.07-.764.173.173 0 0 0-.222 0L1.794 15.58a.348.348 0 0 0 .151.609l1.396.278-.278 1.395a.347.347 0 0 0 .48.387 7.058 7.058 0 0 0 2.638-1.936c-.001-.416-.584-.82-1.407-1.342ZM18.055 16.19a.346.346 0 0 0 .151-.61l-1.69-1.372a.174.174 0 0 0-.222 0 9.541 9.541 0 0 1-1.07.764c-.823.525-1.405.929-1.405 1.346a7.058 7.058 0 0 0 2.638 1.936.348.348 0 0 0 .48-.386l-.278-1.396 1.396-.282ZM15.763 13.749a.171.171 0 0 0 .065-.147.174.174 0 0 0-.084-.14 11.385 11.385 0 0 0-2.043-.932.174.174 0 0 0-.212.084.174.174 0 0 0-.019.08v2.336a.173.173 0 0 0 .288.13c.567-.496 1.406-.928 2.005-1.411Z"></path>
        <path d="M3.512 12.873a.174.174 0 0 0 .18.105.172.172 0 0 0 .07-.024A12.709 12.709 0 0 1 10 11.163c2.2.044 4.35.662 6.238 1.791a.175.175 0 0 0 .25-.08 1.33 1.33 0 0 0 .11-.528v-2.67a1.041 1.041 0 0 0-.556-.92 14.162 14.162 0 0 0-2.424-.991.174.174 0 0 0-.221.201 1.711 1.711 0 0 1-.64 1.736 1.727 1.727 0 0 1-2.062.037l-.595-.425a.173.173 0 0 0-.202 0l-.592.425a1.728 1.728 0 0 1-2.067-.037A1.708 1.708 0 0 1 6.6 7.966a.174.174 0 0 0-.222-.201c-.836.255-1.646.587-2.421.99a1.042 1.042 0 0 0-.556.921v2.67c0 .181.038.36.11.527Z"></path>
        <path d="M7.644 8.082a.694.694 0 0 0 1.053.81L9.9 8.033a.173.173 0 0 1 .201 0l1.2.857a.694.694 0 0 0 1.055-.808l-.512-1.365a.174.174 0 0 1 .051-.195l1.063-.885a.695.695 0 0 0-.445-1.228H11.25a.173.173 0 0 1-.165-.12l-.42-1.312a.694.694 0 0 0-1.32 0l-.422 1.311a.174.174 0 0 1-.165.121h-1.27a.694.694 0 0 0-.445 1.228l1.062.885a.174.174 0 0 1 .052.195l-.512 1.364Z"></path>
    </symbol>

    <symbol xmlns="http://www.w3.org/2000/svg" viewBox="0 0 16 16" id="wallet">
        <path d="M9.71544 11.4948C9.72569 9.70742 11.2027 8.27461 12.9901 8.27461H15.1916V7.29836C15.1916 7.06992 15.0064 6.88477 14.778 6.88477H0V15.3617C0 15.7134 0.285094 15.9985 0.636781 15.9985H14.5548C14.9065 15.9985 15.1916 15.7134 15.1916 15.3617V14.7528H12.9545C11.1621 14.7528 9.70513 13.2895 9.71544 11.4948Z"></path>
        <path d="M15.5868 9.23926H12.9741C11.722 9.23926 10.6831 10.239 10.671 11.491C10.6588 12.7553 11.6836 13.7877 12.9451 13.7877H15.5867C15.8152 13.7877 16.0003 13.6025 16.0003 13.3741V9.65288C16.0003 9.42445 15.8152 9.23926 15.5868 9.23926ZM12.4124 11.9833C12.146 11.9833 11.93 11.7673 11.93 11.5009C11.93 11.2344 12.146 11.0184 12.4124 11.0184C12.6789 11.0184 12.8949 11.2344 12.8949 11.5009C12.8949 11.7673 12.6789 11.9833 12.4124 11.9833Z"></path>
        <path d="M9.87305 0.00195312C11.2784 0.981016 12.2 2.60839 12.2 4.44723C12.2 4.94383 12.1311 5.44548 11.9991 5.92105H14.051C14.2043 5.46667 14.2881 4.94808 14.2881 4.44723C14.2882 2.00608 12.3104 0.0184531 9.87305 0.00195312Z"></path>
        <path d="M6.78547 0.000976562C4.33413 0.000976562 2.33984 1.99529 2.33984 4.44663C2.33984 4.95113 2.42487 5.44638 2.59256 5.92044H3.87722C3.65072 5.48095 3.53294 4.99948 3.53294 4.49976C3.53294 2.73579 4.96803 1.30073 6.73197 1.30073C8.49594 1.30073 9.931 2.73579 9.931 4.49976C9.931 5.00045 9.81522 5.48191 9.59259 5.92044H10.9848C11.1461 5.45538 11.2311 4.94835 11.2311 4.44663C11.2311 1.99529 9.23681 0.000976562 6.78547 0.000976562Z"></path>
        <path d="M8.46302 5.88984C8.78977 5.48841 8.96248 5.00769 8.96248 4.49978C8.96248 3.27 7.96202 2.26953 6.73223 2.26953C5.50245 2.26953 4.50195 3.27 4.50195 4.49978C4.50195 5.01141 4.67298 5.47834 5.01027 5.8875C5.01908 5.89819 5.02702 5.90928 5.03477 5.92047H8.44055C8.4477 5.91009 8.45492 5.89978 8.46302 5.88984Z"></path>
        <path d="M1.37291 4.57031H1.13569C0.508594 4.56984 0 5.07809 0 5.70516V5.92109H1.57678C1.45169 5.48172 1.38325 5.02947 1.37291 4.57031Z"></path>
    </symbol>

    <symbol xmlns="http://www.w3.org/2000/svg" viewBox="0 0 24 24" id="partnership">
        <path d="M10.18 9.32a3.948 3.948 0 0 0 3.115-.404L18 12.879c.098.08.181.178.245.29l1.335-1.263L17 7.664l-1.5.58-2-.74a1.347 1.347 0 0 0-1.25.165 8.99 8.99 0 0 1-2.055 1.097.28.28 0 0 0-.143.105.296.296 0 0 0 0 .344.28.28 0 0 0 .143.105h-.015Z"></path>
        <path d="M10.57 15.491c.034-.3-.049-.601-.23-.838a1.091 1.091 0 0 0-.735-.424 1.099 1.099 0 0 0-.225 0 1.18 1.18 0 0 0-.037-.71 1.136 1.136 0 0 0-.435-.55 1.077 1.077 0 0 0-1.303.086l-.075.062a1.172 1.172 0 0 0-.177-.606 1.118 1.118 0 0 0-.462-.415 1.072 1.072 0 0 0-1.166.152l-.725.62-.645-.491 2.69-4.573c.883.022 1.766-.007 2.645-.088a4.318 4.318 0 0 1 1.935-.166A8.282 8.282 0 0 1 10 8.363a.7.7 0 0 0-.337.273.737.737 0 0 0 .027.843c.09.12.214.207.355.25a4.363 4.363 0 0 0 3.2-.296l4.5 3.766a.697.697 0 0 1 .125.952.64.64 0 0 1-.92.13l-3.355-2.494a.2.2 0 0 0-.27.058.218.218 0 0 0 .03.284l3.24 2.41a.738.738 0 0 1 .118.971.693.693 0 0 1-.428.285.675.675 0 0 1-.5-.092l-3.055-2.276a.204.204 0 0 0-.285.057.209.209 0 0 0-.036.154.21.21 0 0 0 .081.136l2.695 2.007a.7.7 0 0 1 .283.464.733.733 0 0 1-.123.534.677.677 0 0 1-.965.166l-2.54-1.889a.2.2 0 0 0-.287.05.22.22 0 0 0 .047.297l1.945 1.443a.655.655 0 0 1 .14.89.6.6 0 0 1-.86.145l-1-.745a1.177 1.177 0 0 0-.102-1.246 1.107 1.107 0 0 0-.513-.378 1.07 1.07 0 0 0-.63-.026l-.01.005Z"></path>
        <path d="m6.05 14.394.82-.698a.73.73 0 0 0 .055-.965.672.672 0 0 0-.925-.137l-.82.698a.732.732 0 0 0-.093 1.006.676.676 0 0 0 .973.096h-.01ZM8.75 14.503a.736.736 0 0 0 .069-.991.678.678 0 0 0-.954-.116l-1.5 1.262a.736.736 0 0 0-.053.973.677.677 0 0 0 .933.134l1.505-1.262ZM8.76 16.898l1.155-.988a.711.711 0 0 0 .248-.483.738.738 0 0 0-.155-.523.695.695 0 0 0-.468-.256.67.67 0 0 0-.505.16l-1.155.988a.732.732 0 0 0-.093 1.006.675.675 0 0 0 .973.096ZM10.405 16.045l-.765.63a.737.737 0 0 0-.09.988.678.678 0 0 0 .95.14l.77-.651a.736.736 0 0 0 .069-.991.678.678 0 0 0-.954-.116h.02ZM7.32 6.552l-3.85 6.56L1 11.558 4.85 5l2.47 1.552ZM19.35 5.098 23 11.146l-2.45 1.583-3.65-6.043 2.45-1.588Z"></path>
    </symbol>

    <symbol xmlns="http://www.w3.org/2000/svg" viewBox="0 0 24 24" id="arrow-right">
        <path d="m21.667 11.407-8.161-8.083a2.173 2.173 0 0 0-3.066.063 2.198 2.198 0 0 0-.057 3.074l3.226 3.095a.208.208 0 0 1-.028.322.208.208 0 0 1-.116.036H3.779A1.9 1.9 0 0 0 2.083 12c0 .68.374 2.092 1.667 2.092h9.732a.208.208 0 0 1 .148.355l-3.11 3.111a2.216 2.216 0 0 0 3.133 3.129l8.02-8.1a.834.834 0 0 0-.006-1.18Z"></path>
    </symbol>

    <symbol xmlns="http://www.w3.org/2000/svg" viewBox="0 0 24 24" id="vip">
        <path d="M22 12a10 10 0 1 0-20 0 10 10 0 0 0 20 0ZM7.417 14.917a.833.833 0 0 1-.834-.834v-4.41a.417.417 0 0 1 .712-.295l1.887 1.887a.417.417 0 0 0 .61-.023l1.891-2.206a.417.417 0 0 1 .634 0l1.909 2.227a.417.417 0 0 0 .59.043l2.326-2.034a.417.417 0 0 1 .691.311v4.5a.834.834 0 0 1-.833.834H7.417Z"></path>
    </symbol>

    <symbol xmlns="http://www.w3.org/2000/svg" viewBox="0 0 20 20" id="question-circle">
        <path d="M10 1.667A8.333 8.333 0 1 0 18.333 10 8.342 8.342 0 0 0 10 1.667Zm0 13.194a1.042 1.042 0 1 1 0-2.084 1.042 1.042 0 0 1 0 2.084Zm1.111-4.222a.694.694 0 0 0-.417.637.694.694 0 0 1-1.388 0 2.083 2.083 0 0 1 1.25-1.91A1.389 1.389 0 1 0 8.61 8.094a.694.694 0 0 1-1.389 0 2.778 2.778 0 1 1 3.89 2.546v-.001Z"></path>
    </symbol>

    <symbol xmlns="http://www.w3.org/2000/svg" viewBox="0 0 20 20" id="money-bag-dollar">
        <path d="M7.917 7.222h4.166a.694.694 0 1 0 0-1.389H7.917a.694.694 0 0 0 0 1.39ZM8.244 4.792a.347.347 0 0 0 .347.304h2.822a.347.347 0 0 0 .347-.304c.15-.75.434-1.468.838-2.118a.347.347 0 0 0-.443-.486l-1.293.556a.173.173 0 0 1-.23-.095l-.306-.764a.347.347 0 0 0-.644 0l-.306.764a.174.174 0 0 1-.23.095L7.848 2.19a.347.347 0 0 0-.443.486c.405.649.69 1.365.84 2.115ZM12.387 8a.41.41 0 0 0-.247-.083H7.86c-.09 0-.176.03-.248.084-1.771 1.354-3.75 3.75-3.75 5.833 0 2.937 1.637 4.5 6.138 4.5 4.501 0 6.139-1.563 6.139-4.502 0-2.08-1.98-4.477-3.752-5.831Zm-1.724 7.646a.173.173 0 0 0-.142.17v.26a.521.521 0 0 1-1.042 0v-.224a.174.174 0 0 0-.173-.174h-.409a.52.52 0 0 1 0-1.041h1.495a.466.466 0 0 0 .173-.899l-1.517-.606a1.503 1.503 0 0 1 .289-2.875.174.174 0 0 0 .142-.17v-.26a.52.52 0 1 1 1.042 0v.224a.174.174 0 0 0 .173.173h.409a.52.52 0 0 1 0 1.042H9.608a.466.466 0 0 0-.173.899l1.517.606a1.503 1.503 0 0 1-.289 2.875Z"></path>
    </symbol>

    <symbol xmlns="http://www.w3.org/2000/svg" viewBox="0 0 32 32" id="exchange">
        <path d="M26.941 21.133a.555.555 0 0 0-.785 0l-2.223 2.223a.555.555 0 0 0 .395.947h.622a.278.278 0 0 1 .257.386A4.488 4.488 0 0 1 21 27.094a1.111 1.111 0 1 0 0 2.223c3.3-.011 6.037-2.09 6.556-4.797a.28.28 0 0 1 .272-.222h.938a.555.555 0 0 0 .389-.95l-2.215-2.215Z"></path><path d="M5.071 10.853a.555.555 0 0 0 .786-.002l2.215-2.229a.556.556 0 0 0-.393-.947h-.623a.276.276 0 0 1-.234-.12.279.279 0 0 1-.025-.262A4.488 4.488 0 0 1 11 4.89a1.111 1.111 0 0 0 0-2.222c-3.3.01-6.036 2.089-6.556 4.795a.278.278 0 0 1-.272.223h-.938a.556.556 0 0 0-.39.95l2.227 2.218Z"></path><path d="M11.192 12.901a.275.275 0 0 0-.275-.222 8.334 8.334 0 1 0 8.41 8.409.278.278 0 0 0-.223-.276 10.01 10.01 0 0 1-7.912-7.91Zm-2.27 7.706 1.831.733a2.024 2.024 0 0 1-.197 3.827.277.277 0 0 0-.202.246c-.05.687-.368.946-.825.946-.431 0-.763-.243-.823-.889a.244.244 0 0 0-.243-.222h-.269a.833.833 0 1 1 0-1.667H10a.359.359 0 0 0 .132-.693L8.3 22.155a2.023 2.023 0 0 1 .201-3.822.277.277 0 0 0 .201-.246c.051-.687.369-.946.827-.946.43 0 .763.242.823.89a.244.244 0 0 0 .242.221h.268a.833.833 0 1 1 0 1.667H9.053a.359.359 0 0 0-.132.693v-.005Z"></path><path d="M24.785 14.15a.276.276 0 0 0-.343.052 4.692 4.692 0 0 1-2.393 1.395.278.278 0 0 0-.216.27v3.112a.277.277 0 0 0 .317.274 8.321 8.321 0 0 0 5.412-3.135.277.277 0 0 0-.079-.41l-2.698-1.558Z"></path><path d="M17.216 7.856a.277.277 0 0 0 .342-.053A4.692 4.692 0 0 1 19.95 6.41a.278.278 0 0 0 .216-.271V3.024a.277.277 0 0 0-.317-.275 8.327 8.327 0 0 0-5.412 3.14.277.277 0 0 0 .079.41l2.699 1.556Z"></path><path d="M21.833 6.138a.277.277 0 0 0 .216.27c.921.214 1.756.7 2.396 1.396a.279.279 0 0 0 .342.052L27.486 6.3a.28.28 0 0 0 .13-.305.277.277 0 0 0-.052-.105 8.327 8.327 0 0 0-5.414-3.141.281.281 0 0 0-.318.275l.001 3.114Z"></path><path d="M13.283 14.131a.285.285 0 0 0 .168.159.28.28 0 0 0 .229-.023l2.697-1.556a.278.278 0 0 0 .125-.324c-.299-.898-.299-1.868 0-2.766a.276.276 0 0 0-.125-.324L13.68 7.74a.278.278 0 0 0-.397.137 8.244 8.244 0 0 0 0 6.256v-.003Z"></path><path d="M25.623 9.296a.278.278 0 0 0-.125.324c.299.898.299 1.868 0 2.766a.277.277 0 0 0 .125.324l2.697 1.556a.272.272 0 0 0 .229.022.277.277 0 0 0 .168-.158 8.243 8.243 0 0 0 0-6.257.279.279 0 0 0-.397-.136l-2.697 1.559Z"></path><path d="M20.167 15.868a.277.277 0 0 0-.216-.271 4.692 4.692 0 0 1-2.395-1.395.277.277 0 0 0-.343-.052l-2.699 1.556a.281.281 0 0 0-.133.187.276.276 0 0 0 .055.223 8.321 8.321 0 0 0 5.412 3.135.278.278 0 0 0 .316-.274l.003-3.11Z"></path><path d="M21 14.058a3.056 3.056 0 1 0 0-6.111 3.056 3.056 0 0 0 0 6.11Z"></path>
    </symbol>

    <symbol xmlns="http://www.w3.org/2000/svg" viewBox="0 0 20 20" id="category-new">
        <path d="M18.024 7.728a1.045 1.045 0 0 0-.976-.68H12.82a.347.347 0 0 1-.328-.232l-1.517-4.3a1.041 1.041 0 0 0-1.952 0l-.003.01-1.514 4.29a.347.347 0 0 1-.327.232H2.95a1.042 1.042 0 0 0-.668 1.84l3.6 2.987a.347.347 0 0 1 .107.377l-1.512 4.536a1.042 1.042 0 0 0 1.604 1.169l3.712-2.722a.347.347 0 0 1 .41 0l3.712 2.721a1.042 1.042 0 0 0 1.605-1.168l-1.512-4.539a.348.348 0 0 1 .108-.377l3.607-2.99a1.042 1.042 0 0 0 .3-1.154Z"></path>
    </symbol>

    <symbol xmlns="http://www.w3.org/2000/svg" viewBox="0 0 20 20" id="category-fast-games">
        <path d="M13.82 7.222h-2.848l3.142-5.026a.348.348 0 0 0-.295-.53H8.264a.347.347 0 0 0-.337.264l-2.083 8.333a.347.347 0 0 0 .337.431h2.322l-1.963 7.2a.347.347 0 0 0 .191.407.353.353 0 0 0 .433-.123L14.108 7.76a.347.347 0 0 0-.289-.539Z"></path>
    </symbol>

    <symbol xmlns="http://www.w3.org/2000/svg" viewBox="0 0 17 17" id="svg-close">
        <path d="m10.001 8.497 6.687-6.686A1.062 1.062 0 1 0 15.185.308L8.497 6.993 1.81.308A1.063 1.063 0 1 0 .306 1.81l6.688 6.686-6.688 6.685a1.062 1.062 0 1 0 1.504 1.503L8.497 10l6.688 6.685a1.06 1.06 0 0 0 1.503 0 1.062 1.062 0 0 0 0-1.503z"></path>
    </symbol>

    <symbol xmlns="http://www.w3.org/2000/svg" viewBox="0 0 20 20" id="pedestal">
        <path d="m18.104 8.77-.73-1.458a1.3 1.3 0 0 0-1.125-.695h-2.43V6.27a.502.502 0 0 0-.077-.257l-.882-2.174a1.3 1.3 0 0 0-1.124-.695H8.264a1.313 1.313 0 0 0-1.144.736l-.86 2.13a.509.509 0 0 0-.08.266l.006.34H3.75a1.3 1.3 0 0 0-1.124.694l-.73 1.46a2.42 2.42 0 0 0-.23.972v6.077a1.042 1.042 0 0 0 1.042 1.041h14.584a1.042 1.042 0 0 0 1.041-1.041V9.742a2.42 2.42 0 0 0-.229-.972Zm-1.68 4.963a1.389 1.389 0 0 1-2.727.373.521.521 0 0 1 1.002-.277.347.347 0 1 0 .336-.44.52.52 0 0 1 0-1.042.347.347 0 1 0-.336-.438.52.52 0 0 1-1.006-.269 1.389 1.389 0 1 1 2.425 1.228c.198.245.305.55.306.865Zm-10.764.348a.521.521 0 0 1 0 1.041H3.924a.52.52 0 0 1-.407-.846l1.466-1.832a.72.72 0 0 0 .156-.447.347.347 0 0 0-.695 0 .52.52 0 1 1-1.041 0 1.389 1.389 0 1 1 2.778 0c0 .4-.137.786-.386 1.098l-.787.986h.652Zm3.978-4.66a.52.52 0 1 1-.666-.8l.754-.63a.694.694 0 0 1 1.14.534v2.58h.176a.521.521 0 0 1 0 1.042H9.479a.52.52 0 0 1 0-1.042h.347V9.267l-.188.155Zm4.353-.375a.174.174 0 0 1-.174-.174v-.694a.174.174 0 0 1 .174-.174h2.068a.173.173 0 0 1 .156.096l.347.694a.17.17 0 0 1-.008.17.174.174 0 0 1-.148.082h-2.415ZM6.005 8.004a.173.173 0 0 1 .173.174v.694a.173.173 0 0 1-.173.174H3.59a.173.173 0 0 1-.155-.252l.348-.694a.173.173 0 0 1 .155-.096h2.067ZM8.307 4.64a.174.174 0 0 1 .16-.107h3.064a.174.174 0 0 1 .16.107l.363.868a.173.173 0 0 1-.16.24h-3.79a.173.173 0 0 1-.159-.24l.362-.868Z"></path>
    </symbol>

    <symbol xmlns="http://www.w3.org/2000/svg" viewBox="0 0 24 24" id="casino">
        <path d="M12 2a10 10 0 1 0 10 10A10.011 10.011 0 0 0 12 2Zm8.29 9.145a.208.208 0 0 1-.123.212.21.21 0 0 1-.085.018h-1.677a.207.207 0 0 1-.207-.182 6.215 6.215 0 0 0-1.25-3 .21.21 0 0 1 .018-.275l1.186-1.185a.208.208 0 0 1 .309.016 8.297 8.297 0 0 1 1.829 4.396Zm-7.665-7.228a.21.21 0 0 1 .23-.208c1.613.166 3.143.801 4.4 1.827a.21.21 0 0 1 .062.236.207.207 0 0 1-.047.073l-1.187 1.187a.207.207 0 0 1-.274.017 6.22 6.22 0 0 0-3.004-1.25.207.207 0 0 1-.182-.206l.002-1.676Zm2.708 4.75a.833.833 0 1 1-1.666 0 .833.833 0 0 1 1.666 0ZM11.145 3.71a.21.21 0 0 1 .23.208v1.677a.208.208 0 0 1-.182.207 6.222 6.222 0 0 0-3.004 1.25.208.208 0 0 1-.272-.02L6.73 5.846a.205.205 0 0 1 .02-.31 8.297 8.297 0 0 1 4.395-1.826ZM5.537 6.75a.21.21 0 0 1 .15-.083.207.207 0 0 1 .159.06l1.186 1.19a.21.21 0 0 1 .017.275 6.216 6.216 0 0 0-1.25 3 .207.207 0 0 1-.206.181H3.917a.21.21 0 0 1-.208-.23A8.297 8.297 0 0 1 5.537 6.75ZM3.71 12.855a.21.21 0 0 1 .207-.23h1.678a.208.208 0 0 1 .207.182 6.216 6.216 0 0 0 1.25 3 .209.209 0 0 1-.018.275L5.846 17.27a.208.208 0 0 1-.31-.016 8.297 8.297 0 0 1-1.826-4.399Zm7.667 7.227a.209.209 0 0 1-.23.208 8.296 8.296 0 0 1-4.397-1.827.21.21 0 0 1-.063-.236.207.207 0 0 1 .047-.073l1.183-1.186a.208.208 0 0 1 .274-.017 6.218 6.218 0 0 0 3.004 1.25.207.207 0 0 1 .182.206v1.675Zm.623-4.54a.625.625 0 0 1-.625-.625V13.68a.208.208 0 0 0-.116-.187 1.686 1.686 0 0 1-.75-.75.21.21 0 0 0-.187-.116H9.083a.625.625 0 1 1 0-1.25h1.237a.208.208 0 0 0 .187-.115c.162-.325.425-.588.75-.75a.21.21 0 0 0 .116-.187V9.083a.625.625 0 0 1 1.25 0v1.237a.208.208 0 0 0 .115.187c.325.162.588.425.75.75a.21.21 0 0 0 .187.116h1.242a.625.625 0 1 1 0 1.25H13.68a.208.208 0 0 0-.187.115 1.686 1.686 0 0 1-.75.75.21.21 0 0 0-.116.187v1.242a.624.624 0 0 1-.627.625Zm.855 4.75a.212.212 0 0 1-.212-.123.21.21 0 0 1-.018-.085v-1.679a.207.207 0 0 1 .182-.207 6.218 6.218 0 0 0 3.004-1.25.208.208 0 0 1 .274.018l1.185 1.186a.204.204 0 0 1 .06.158.207.207 0 0 1-.076.15 8.297 8.297 0 0 1-4.399 1.83v.002Zm5.608-3.036a.21.21 0 0 1-.309.016l-1.186-1.189a.21.21 0 0 1-.017-.275 6.215 6.215 0 0 0 1.25-3 .207.207 0 0 1 .206-.181h1.676a.21.21 0 0 1 .208.23 8.296 8.296 0 0 1-1.828 4.397v.002Z"></path>
    </symbol>

    <symbol xmlns="http://www.w3.org/2000/svg" viewBox="0 0 20 20" id="cards">
        <path d="M5.32 4.867a.694.694 0 1 0 0-1.388.694.694 0 0 0 0 1.388Z"></path><path d="M17.133 8.176a1.063 1.063 0 0 0-.574-1.39L12.361 5.05a.173.173 0 0 1-.107-.16V2.728a1.063 1.063 0 0 0-1.06-1.061H3.847A1.063 1.063 0 0 0 2.785 2.73v10.286a1.063 1.063 0 0 0 1.063 1.062h.362a.175.175 0 0 1 .171.204 1.061 1.061 0 0 0 .64 1.16l6.788 2.81a1.062 1.062 0 0 0 1.389-.574l3.935-9.502ZM4.174 3.23a.174.174 0 0 1 .174-.175h6.346a.173.173 0 0 1 .174.173v.942a.172.172 0 0 1-.156.172.173.173 0 0 1-.083-.012l-.856-.354a1.063 1.063 0 0 0-1.389.574l-3.326 8.03a.174.174 0 0 1-.16.107h-.549a.175.175 0 0 1-.173-.174l-.002-9.283Zm7.932 13.452a.171.171 0 0 1-.094.094.175.175 0 0 1-.133 0l-5.862-2.43a.175.175 0 0 1-.107-.161c0-.023.004-.046.013-.067l3.553-8.574a.173.173 0 0 1 .226-.094l5.863 2.43a.175.175 0 0 1 .093.228l-3.552 8.574Z"></path><path d="m12.442 11.389-.359-1.817a.714.714 0 0 0-1.098-.455l-1.54 1.03a.713.713 0 0 0-.303.733l.36 1.818a.714.714 0 0 0 1.098.455l1.54-1.03a.714.714 0 0 0 .302-.734Z"></path><path d="M10.174 7.57a.694.694 0 1 0 0-1.39.694.694 0 0 0 0 1.39Z"></path><path d="M11.52 15.903a.694.694 0 1 0 0-1.389.694.694 0 0 0 0 1.389Z"></path>
    </symbol>

    <symbol xmlns="http://www.w3.org/2000/svg" viewBox="0 0 24 24" id="sport-live">
        <path d="M12.016 16.576c1.535 0 2.78-1.32 2.78-2.947 0-1.628-1.245-2.948-2.78-2.948-1.536 0-2.78 1.32-2.78 2.948 0 1.627 1.244 2.947 2.78 2.947Z"></path><path d="M12 6.741c-1.12 0-2.22.308-3.195.894a6.666 6.666 0 0 0-2.362 2.448 7.168 7.168 0 0 0-.914 3.365 7.194 7.194 0 0 0 .772 3.406.915.915 0 0 0 .325.358.846.846 0 0 0 .87.018.925.925 0 0 0 .424-.555.984.984 0 0 0-.07-.71 5.233 5.233 0 0 1-.56-2.476 5.213 5.213 0 0 1 .665-2.447 4.848 4.848 0 0 1 1.717-1.78 4.5 4.5 0 0 1 2.322-.649 4.5 4.5 0 0 1 2.322.65 4.848 4.848 0 0 1 1.717 1.78c.418.74.647 1.583.666 2.446a5.232 5.232 0 0 1-.56 2.475.988.988 0 0 0-.051.7c.07.232.22.426.422.541a.839.839 0 0 0 .659.078.893.893 0 0 0 .524-.43 7.194 7.194 0 0 0 .772-3.403 7.169 7.169 0 0 0-.913-3.364 6.666 6.666 0 0 0-2.36-2.45A6.188 6.188 0 0 0 12 6.742Z"></path><path d="M12 3c-2.651.003-5.193 1.121-7.068 3.109C3.058 8.096 2.003 10.79 2 13.6c-.007 2.353.73 4.64 2.095 6.495a.847.847 0 0 0 1.239.166.977.977 0 0 0 .156-1.313A8.982 8.982 0 0 1 3.766 13.6c0-2.315.867-4.536 2.412-6.173C7.72 5.79 9.816 4.87 12 4.87c2.184 0 4.279.92 5.823 2.557 1.545 1.637 2.412 3.858 2.412 6.173a8.983 8.983 0 0 1-1.727 5.35.988.988 0 0 0-.088 1.051c.057.11.135.206.228.282.093.077.2.133.314.165a.833.833 0 0 0 .68-.1.903.903 0 0 0 .26-.25c1.366-1.855 2.106-4.144 2.098-6.498-.003-2.81-1.058-5.505-2.932-7.492C17.193 4.12 14.65 3.003 12 3Z"></path>
    </symbol>

    <symbol xmlns="http://www.w3.org/2000/svg" viewBox="0 0 24 24" id="ball">
        <path d="M19.655 7.788c.052.052.156.103.26.052l.727-.155c.155-.052.26-.207.155-.362a9.876 9.876 0 0 0-3.79-3.928c-.156-.103-.312 0-.364.155-.052.207-.155.465-.207.776 0 .103 0 .206.052.258 1.246 1.24 1.973 1.964 3.167 3.204ZM8.698 3.602l1.61 1.602c.052.052.156.103.26.052 1.713-.465 2.7-.724 4.414-1.137.103 0 .155-.104.207-.207.104-.362.208-.723.312-1.033.052-.155-.052-.259-.156-.31A9.89 9.89 0 0 0 12.074 2c-1.299 0-2.493.258-3.635.672-.156.052-.208.31-.104.413.104.259.26.362.363.517Zm-4.465 8.269 3.738-.93c.104 0 .156-.104.208-.207.467-1.706.727-2.688 1.246-4.341.052-.104 0-.207-.052-.259-.675-.671-1.142-1.137-1.61-1.653-.259-.259-.519-.517-.778-.827-.104-.104-.208-.104-.312-.052a9.84 9.84 0 0 0-4.31 5.995c0 .103 0 .155.052.207.468.62.935 1.136 1.61 1.963.052.104.156.155.208.104Zm15.318 4.6-1.713-1.706c-1.402.361-2.285.62-3.428.878-.311.104-.675.155-1.09.259-.104 0-.156.103-.208.206-.26.93-.467 1.55-.623 2.17-.156.466-.26.931-.415 1.448-.052.103 0 .207.104.258.882.672 1.454 1.137 2.128 1.602.052.052.156.052.208.052a10.238 10.238 0 0 0 5.816-4.083c.052-.103.052-.258-.052-.31-.26-.31-.467-.516-.727-.775Zm2.025-7.391c-.052-.155-.155-.207-.311-.155l-.987.258c-.104 0-.156.104-.208.207a86.74 86.74 0 0 1-1.246 4.341c-.052.104 0 .207.052.258.623.672 1.09 1.137 1.558 1.603l.623.62c.571-1.292.935-2.688.935-4.135.052-1.085-.156-2.067-.416-2.997Zm-13.085 3.1c0-.05 0-.05 0 0 0-.05 0-.05 0 0l-2.233.57-1.662.413c-.104 0-.156.103-.208.206-.311 1.55-.467 2.378-.727 3.825 0 0 0 .051.052.051 1.09 1.292 1.766 1.912 3.012 2.946.052.052.052.052.104.052 1.454-.207 2.285-.31 3.843-.62.103 0 .155-.104.207-.207.156-.569.312-1.034.416-1.499.207-.62.363-1.292.623-2.17 0-.104 0-.207-.052-.259-1.402-1.24-2.077-1.963-3.375-3.307Z"></path><path d="M2.052 11.51c0 .154-.052.361-.052.516 0 1.189.208 2.377.623 3.463.156-.776.26-1.448.467-2.533 0-.051-.051-.155-.051-.207-.364-.465-.675-.878-.987-1.24Zm9.087 9.353h-.052c-.571.104-1.038.207-1.454.31-.26.052-.311.414 0 .517.78.207 1.61.31 2.44.31h.52c-.467-.362-.883-.672-1.454-1.137ZM18.772 8.72c-1.298-1.344-1.973-2.016-3.27-3.308h-.053c-1.61.414-2.544.62-3.998 1.034-.156.051-.364.103-.52.155-.051.051-.103.103-.207.155-.52 1.705-.78 2.635-1.247 4.393 0 .103.052.155.052.258 1.247 1.292 1.922 2.015 3.22 3.256.104 0 .156.051.26.051 1.765-.413 2.7-.671 4.517-1.136 0 0 .052 0 .052-.052.52-1.757.779-2.74 1.298-4.496-.052-.155-.104-.207-.104-.31Z"></path>
    </symbol>

    <symbol xmlns="http://www.w3.org/2000/svg" viewBox="0 0 20 20" id="slot-machine">
        <path d="M4.54 4.999a.316.316 0 0 1-.245-.513 5.313 5.313 0 0 1 8.285 0 .316.316 0 0 1-.246.513H4.541Z"></path><path d="M5 11.718a.47.47 0 0 1-.43-.656l.562-1.316a.156.156 0 0 0-.143-.218h-.301a.469.469 0 0 1 0-.938h1.25a.469.469 0 0 1 .43.66l-.937 2.187a.468.468 0 0 1-.431.28Z"></path><path d="M8.125 11.718a.47.47 0 0 1-.43-.656l.562-1.316a.156.156 0 0 0-.143-.218h-.302a.469.469 0 1 1 0-.938h1.25a.469.469 0 0 1 .431.654l-.937 2.188a.468.468 0 0 1-.431.286Z"></path><path d="M11.25 11.718a.47.47 0 0 1-.43-.654l.562-1.316a.157.157 0 0 0-.07-.199.156.156 0 0 0-.073-.019h-.302a.469.469 0 0 1 0-.937h1.25a.469.469 0 0 1 .431.654l-.937 2.187a.467.467 0 0 1-.431.284Z"></path><path d="M16.25 7.187a1.25 1.25 0 0 0-.694 2.288.156.156 0 0 1 .069.13v3.363a1.25 1.25 0 0 1-1.071 1.237.158.158 0 0 1-.179-.155V6.874a.938.938 0 0 0-.938-.937h-10a.938.938 0 0 0-.937.937v9.688a.937.937 0 0 0 .938.937h10a.937.937 0 0 0 .937-.938v-.941a.156.156 0 0 1 .147-.157 2.5 2.5 0 0 0 2.353-2.495V9.605a.157.157 0 0 1 .07-.13 1.25 1.25 0 0 0-.695-2.288ZM7.187 15.78H4.376a.469.469 0 0 1 0-.937h2.813a.469.469 0 0 1 0 .937Zm6.25-3.906a.625.625 0 0 1-.624.625h-8.75a.625.625 0 0 1-.625-.625V8.437a.625.625 0 0 1 .624-.625h8.75a.625.625 0 0 1 .626.625v3.437Z"></path>
    </symbol>

    <symbol xmlns="http://www.w3.org/2000/svg" viewBox="0 0 24 24" id="promotions">
        <path d="M7.866 9.713a1.507 1.507 0 0 0-1.355-.838H4.573a1.508 1.508 0 0 0-1.355.84l-1.144 2.327a.692.692 0 0 0 .618 1h5.7a.693.693 0 0 0 .62-1l-1.146-2.33Z"></path><path d="m12.762 7.044-1.147-2.333a1.507 1.507 0 0 0-1.354-.834H8.323a1.507 1.507 0 0 0-1.355.838L5.824 7.042a.692.692 0 0 0 .618 1h5.7a.69.69 0 0 0 .62-1v.002Z"></path><path d="M21.167 4.708a.625.625 0 0 0-.625-.625h-1.25a.208.208 0 0 1-.209-.208v-1.25a.625.625 0 1 0-1.25 0v1.25a.208.208 0 0 1-.208.208h-1.25a.625.625 0 1 0 0 1.25h1.25a.208.208 0 0 1 .208.209v1.25a.625.625 0 0 0 1.25 0v-1.25a.208.208 0 0 1 .209-.209h1.25a.625.625 0 0 0 .625-.625Z"></path><path d="M7.208 17h-.833a.208.208 0 0 1-.208-.208v-.834a.625.625 0 1 0-1.25 0v.834a.208.208 0 0 1-.209.208h-.833a.625.625 0 0 0 0 1.25h.833a.209.209 0 0 1 .209.208v.834a.625.625 0 0 0 1.25 0v-.834a.209.209 0 0 1 .208-.208h.833a.625.625 0 1 0 0-1.25Z"></path><path d="M10.192 13.042a.3.3 0 0 0 .25-.13 6.9 6.9 0 0 1 4.517-3.264.209.209 0 0 0 .102-.355 1.507 1.507 0 0 0-1.047-.416h-1.94a1.507 1.507 0 0 0-1.356.84l-1.145 2.325a.692.692 0 0 0 .619 1Z"></path><path d="M16.375 10.75A5.625 5.625 0 1 0 22 16.375a5.632 5.632 0 0 0-5.625-5.625Zm-3.958 5.625c-.001-.503.095-1 .282-1.467a.21.21 0 0 1 .312-.095l1.069.738a.21.21 0 0 1 .083.226 2.273 2.273 0 0 0 0 1.196.21.21 0 0 1-.083.226l-1.07.738a.208.208 0 0 1-.31-.095 3.925 3.925 0 0 1-.283-1.467Zm6.17-.598a.209.209 0 0 1 .084-.226l1.07-.738a.208.208 0 0 1 .311.095 3.963 3.963 0 0 1 0 2.935.208.208 0 0 1-.311.094l-1.074-.738a.209.209 0 0 1-.084-.227 2.293 2.293 0 0 0 0-1.195h.005Zm.464-2.316a.208.208 0 0 1-.023.325l-1.067.737a.207.207 0 0 1-.241 0 2.302 2.302 0 0 0-.583-.306.207.207 0 0 1-.137-.199v-1.3a.21.21 0 0 1 .162-.202.209.209 0 0 1 .093 0c.67.152 1.29.478 1.796.945Zm-3.556-.945a.209.209 0 0 1 .255.202v1.3a.208.208 0 0 1-.138.196 2.302 2.302 0 0 0-.584.305.208.208 0 0 1-.24 0l-1.068-.736a.205.205 0 0 1-.075-.248.208.208 0 0 1 .053-.076 3.945 3.945 0 0 1 1.797-.943Zm-1.796 6.773a.21.21 0 0 1 .023-.325l1.067-.736a.207.207 0 0 1 .241 0c.179.129.375.231.583.304a.207.207 0 0 1 .139.196v1.3a.208.208 0 0 1-.255.203 3.946 3.946 0 0 1-1.798-.942Zm3.556.945a.21.21 0 0 1-.234-.112.21.21 0 0 1-.021-.09v-1.3a.208.208 0 0 1 .14-.196c.207-.073.404-.176.582-.305a.208.208 0 0 1 .241 0l1.068.736a.205.205 0 0 1 .022.324 3.937 3.937 0 0 1-1.798.943Z"></path>
    </symbol>

    <symbol xmlns="http://www.w3.org/2000/svg" viewBox="0 0 20 20" id="category-popular">
        <path d="M4.163 13.646a1.576 1.576 0 0 0 .281 3.125h11.112a1.52 1.52 0 0 0 1.165-.502c.255-.295.393-.672.39-1.06a1.506 1.506 0 0 0-1.27-1.563H4.163ZM15.694 12.951a.347.347 0 0 0 .341-.277l.834-4.243a1.567 1.567 0 1 0-1.118-.381l-1.684 1.921a.347.347 0 0 1-.517.007l-2.819-3.076a1.91 1.91 0 1 0-1.462 0l-2.81 3.066a.348.348 0 0 1-.52-.008L4.276 8.026a1.559 1.559 0 1 0-1.097.407l.8 4.236a.347.347 0 0 0 .34.282h11.375Z"></path>
    </symbol>

    <symbol xmlns="http://www.w3.org/2000/svg" viewBox="0 0 8 13" id="svg-arrow">
        <path d="m7.712 7.128-6.038 5.58a1.041 1.041 0 0 1-1.39 0 .86.86 0 0 1 0-1.286l5.342-4.936L.284 1.549a.861.861 0 0 1 0-1.285 1.041 1.041 0 0 1 1.39 0l6.038 5.58c.192.177.288.41.288.642a.872.872 0 0 1-.288.642z"></path>
    </symbol>

    <symbol xmlns="http://www.w3.org/2000/svg" viewBox="0 0 18 16" id="category-my-favorites">
        <path d="M16.8472 3.19161C16.5206 2.55567 16.0495 2.00519 15.4715 1.58441C14.8936 1.16362 14.225 0.884262 13.5195 0.768772C12.814 0.653283 12.0913 0.704885 11.4094 0.919433C10.7274 1.13398 10.1053 1.50549 9.59303 2.00411L8.99998 2.54647L8.42567 2.02356C7.91458 1.51527 7.28955 1.13632 6.60253 0.918182C5.91552 0.700047 5.18636 0.649038 4.47567 0.769392C3.7691 0.879556 3.09901 1.15673 2.52107 1.57789C1.94314 1.99906 1.47404 2.55204 1.15275 3.19092C0.723293 4.03253 0.573219 4.9891 0.724318 5.92179C0.875416 6.85448 1.31982 7.71475 1.99303 8.37772L8.50206 15.0833C8.56678 15.1498 8.64419 15.2028 8.72971 15.2389C8.81523 15.275 8.90713 15.2936 8.99998 15.2936C9.09282 15.2936 9.18472 15.275 9.27024 15.2389C9.35577 15.2028 9.43318 15.1498 9.49789 15.0833L15.9979 8.39022C16.6738 7.72661 17.1206 6.86478 17.2734 5.92992C17.4261 4.99506 17.2768 4.03584 16.8472 3.19161Z" fill="currentColor"></path>
    </symbol>

    <symbol xmlns="http://www.w3.org/2000/svg" viewBox="0 0 20 20" id="archive-drawer">
        <path d="M13.82 6.18a.521.521 0 0 0 0-1.041h-3.473a.52.52 0 1 0 0 1.042h3.473ZM8.438 7.743a.52.52 0 0 0 .52.52h4.861a.52.52 0 1 0 0-1.04H8.96a.52.52 0 0 0-.521.52ZM8.958 10.347h4.861a.52.52 0 1 0 0-1.041H8.96a.52.52 0 1 0 0 1.041Z"></path><path d="M17.292 11.389h-.521V3.056a1.389 1.389 0 0 0-1.389-1.39H7.396a1.389 1.389 0 0 0-1.389 1.39v7.812a.694.694 0 0 0 1.389 0V3.403a.347.347 0 0 1 .347-.347h7.292a.347.347 0 0 1 .347.347v7.639a.347.347 0 0 1-.347.347h-.174a.695.695 0 0 0-.694.694.695.695 0 0 1-.695.695H6.528a.695.695 0 0 1-.695-.695.694.694 0 0 0-.694-.694h-.52a.347.347 0 0 1-.348-.347V5.486a.347.347 0 0 1 .347-.347.694.694 0 0 0 0-1.389h-.347a1.389 1.389 0 0 0-1.389 1.389v6.25h-.174a1.041 1.041 0 0 0-1.041 1.042v4.513a1.389 1.389 0 0 0 1.389 1.39h13.889a1.389 1.389 0 0 0 1.388-1.39v-4.513a1.041 1.041 0 0 0-1.041-1.042Z"></path>
    </symbol>

    <symbol xmlns="http://www.w3.org/2000/svg" viewBox="0 0 26 26" id="support">
        <path d="M13.643 12.34a1.69 1.69 0 1 0 1.7 1.69 1.7 1.7 0 0 0-1.7-1.69Z"></path><path d="M17.53 3.178a.5.5 0 0 1-.289-.293A2.892 2.892 0 0 0 14.532 1h-1.778A2.892 2.892 0 0 0 10 3.013a.5.5 0 0 1-.286.311A8.212 8.212 0 0 0 4.3 10.6c-.01.29-.084.573-.215.832-.147.289-.347.638-.512.928-.7 1.235-1.5 2.633-1.423 3.75v.137c-.018.261.048.521.189.742a1.248 1.248 0 0 0 .965.521c.173.007.364.01.551.01a.5.5 0 0 1 .5.5V20a2.5 2.5 0 0 0 2.5 2.5h1.5a.5.5 0 0 1 .5.5v1.5a.5.5 0 0 0 .5.5h10a.5.5 0 0 0 .5-.5v-3.708a.498.498 0 0 1 .22-.415c2.51-1.69 3.78-4.314 3.78-7.814a9.94 9.94 0 0 0-6.325-9.385Zm-3.552 14.809a1 1 0 0 0-.559.229 10.56 10.56 0 0 1-3.8 2.1.5.5 0 0 0-.265.181 1.249 1.249 0 0 1-1 .5h-.5a1.25 1.25 0 0 1 0-2.5h.5c.252 0 .499.076.706.22a.5.5 0 0 0 .441.063 8.48 8.48 0 0 0 1.995-.99.25.25 0 0 0 0-.419 3.939 3.939 0 0 1 .131-6.751.501.501 0 0 0 .247-.431V3.883a.886.886 0 0 1 .88-.883h1.778a.886.886 0 0 1 .89.882v6.31a.5.5 0 0 0 .247.431 3.952 3.952 0 0 1-1.69 7.363v.001Z"></path>
    </symbol>

    <symbol xmlns="http://www.w3.org/2000/svg" viewBox="0 0 20 20" id="modern-sport">
        <path d="M16.38 6.49c.043.043.13.086.216.043l.606-.13c.13-.042.216-.171.13-.3a8.23 8.23 0 0 0-3.16-3.274c-.13-.086-.259 0-.302.13-.044.172-.13.387-.173.646 0 .086 0 .172.043.215 1.038 1.034 1.644 1.636 2.64 2.67ZM7.248 3.002 8.59 4.337c.044.043.13.086.217.043a115.41 115.41 0 0 1 3.678-.948c.087 0 .13-.086.173-.172.087-.301.173-.603.26-.861.043-.13-.044-.216-.13-.259a8.242 8.242 0 0 0-2.726-.473c-1.082 0-2.077.215-3.03.56-.13.043-.172.258-.086.344.087.215.216.302.303.43Zm-3.721 6.89 3.115-.775c.087 0 .13-.086.173-.172.39-1.421.606-2.24 1.039-3.618.043-.086 0-.172-.043-.215-.563-.56-.952-.948-1.342-1.378-.216-.216-.433-.43-.649-.69-.087-.085-.173-.085-.26-.042A8.2 8.2 0 0 0 1.97 7.997c0 .087 0 .13.043.173.39.516.779.947 1.341 1.636.044.086.13.13.174.086Zm12.765 3.833-1.428-1.421c-1.168.301-1.904.517-2.856.732-.26.086-.563.13-.909.215-.086 0-.13.087-.173.173-.216.775-.39 1.292-.52 1.808-.129.388-.216.776-.345 1.206-.044.086 0 .173.086.216.736.56 1.212.947 1.774 1.335.044.043.13.043.173.043a8.532 8.532 0 0 0 4.847-3.402c.043-.087.043-.216-.043-.259-.217-.258-.39-.43-.606-.646Zm1.688-6.158c-.044-.13-.13-.173-.26-.13l-.822.216c-.087 0-.13.086-.173.172a72.213 72.213 0 0 1-1.039 3.618c-.043.086 0 .172.043.215.52.56.91.947 1.299 1.335l.519.517c.476-1.077.779-2.24.779-3.445.043-.905-.13-1.723-.346-2.498ZM7.076 10.15c0-.043 0-.043 0 0 0-.043 0-.043 0 0l-1.86.473-1.386.345c-.086 0-.13.086-.173.172-.26 1.292-.39 1.981-.605 3.187 0 0 0 .043.043.043.909 1.077 1.471 1.594 2.51 2.455.043.043.043.043.086.043 1.212-.172 1.904-.258 3.202-.517.087 0 .13-.086.173-.172.13-.474.26-.861.347-1.249.173-.517.303-1.077.519-1.809 0-.086 0-.172-.043-.215-1.169-1.034-1.731-1.637-2.813-2.756ZM1.71 9.59c0 .13-.043.302-.043.432 0 .99.173 1.98.519 2.885.13-.646.216-1.206.39-2.11 0-.043-.044-.13-.044-.173-.303-.387-.562-.732-.822-1.033Zm7.573 7.796h-.044a18.78 18.78 0 0 0-1.211.258c-.217.043-.26.345 0 .43.649.173 1.341.26 2.034.26h.432c-.39-.302-.735-.56-1.211-.948Zm6.36-10.12c-1.081-1.12-1.644-1.68-2.725-2.757h-.044c-1.341.345-2.12.517-3.332.861-.13.044-.303.087-.432.13a.598.598 0 0 1-.173.129 90.432 90.432 0 0 0-1.039 3.66c0 .087.043.13.043.216 1.039 1.076 1.601 1.68 2.683 2.713.087 0 .13.043.216.043 1.472-.345 2.25-.56 3.765-.947 0 0 .043 0 .043-.043.433-1.465.65-2.283 1.082-3.747-.043-.13-.086-.172-.086-.259Z"></path>
    </symbol>

    <symbol xmlns="http://www.w3.org/2000/svg" viewBox="0 0 24 24" id="svg-home-dark">
        <path d="m4.791 10.943 6.787-5.613a.362.362 0 0 1 .462 0l6.787 5.613a1.088 1.088 0 0 0 1.55-.167 1.142 1.142 0 0 0-.164-1.583L13.426 3.58a2.542 2.542 0 0 0-3.234 0L3.409 9.193a1.142 1.142 0 0 0-.164 1.583 1.088 1.088 0 0 0 1.546.167Z"></path><path d="M19.52 19.5v-5.25a1.668 1.668 0 0 0-.55-1.192l-6.225-5.25a1.449 1.449 0 0 0-1.87 0l-6.226 5.254a1.669 1.669 0 0 0-.55 1.188v5.25A1.486 1.486 0 0 0 5.566 21h4.04a.743.743 0 0 0 .734-.75v-4.125a.743.743 0 0 1 .734-.75h1.468a.743.743 0 0 1 .735.75v4.125a.743.743 0 0 0 .734.75h4.04a1.485 1.485 0 0 0 1.468-1.5Z"></path>
    </symbol>

    <symbol xmlns="http://www.w3.org/2000/svg" viewBox="0 0 20 20" id="slot-mashine">
        <path d="M4.54 4.999a.316.316 0 0 1-.245-.513 5.313 5.313 0 0 1 8.285 0 .316.316 0 0 1-.246.513H4.541Z"></path><path d="M5 11.718a.47.47 0 0 1-.43-.656l.562-1.316a.156.156 0 0 0-.143-.218h-.301a.469.469 0 0 1 0-.938h1.25a.469.469 0 0 1 .43.66l-.937 2.187a.468.468 0 0 1-.431.28Z"></path><path d="M8.125 11.718a.47.47 0 0 1-.43-.656l.562-1.316a.156.156 0 0 0-.143-.218h-.302a.469.469 0 1 1 0-.938h1.25a.469.469 0 0 1 .431.654l-.937 2.188a.468.468 0 0 1-.431.286Z"></path><path d="M11.25 11.718a.47.47 0 0 1-.43-.654l.562-1.316a.157.157 0 0 0-.07-.199.156.156 0 0 0-.073-.019h-.302a.469.469 0 0 1 0-.937h1.25a.469.469 0 0 1 .431.654l-.937 2.187a.467.467 0 0 1-.431.284Z"></path><path d="M16.25 7.187a1.25 1.25 0 0 0-.694 2.288.156.156 0 0 1 .069.13v3.363a1.25 1.25 0 0 1-1.071 1.237.158.158 0 0 1-.179-.155V6.874a.938.938 0 0 0-.938-.937h-10a.938.938 0 0 0-.937.937v9.688a.937.937 0 0 0 .938.937h10a.937.937 0 0 0 .937-.938v-.941a.156.156 0 0 1 .147-.157 2.5 2.5 0 0 0 2.353-2.495V9.605a.157.157 0 0 1 .07-.13 1.25 1.25 0 0 0-.695-2.288ZM7.187 15.78H4.376a.469.469 0 0 1 0-.937h2.813a.469.469 0 0 1 0 .937Zm6.25-3.906a.625.625 0 0 1-.624.625h-8.75a.625.625 0 0 1-.625-.625V8.437a.625.625 0 0 1 .624-.625h8.75a.625.625 0 0 1 .626.625v3.437Z"></path>
    </symbol>

    <symbol xmlns="http://www.w3.org/2000/svg" viewBox="0 0 32 32" fill="none" id="profile-header">
        <mask id="profile-header_mask0_4530_10049" style="mask-type:alpha" maskUnits="userSpaceOnUse" x="0" y="0" width="32" height="32">
        <circle cx="16" cy="16" r="15" fill="#22474F" stroke="#2BC69D" stroke-width="2"></circle>
        </mask>
        <g mask="url(#profile-header_mask0_4530_10049)">
        <circle cx="16" cy="16" r="15" fill="#22474F" stroke="#2BC69D" stroke-width="2"></circle>
        </g>
        <path d="M16 16.3472C16.8241 16.3472 17.6297 16.1028 18.3149 15.645C19.0001 15.1872 19.5341 14.5364 19.8495 13.7751C20.1648 13.0137 20.2474 12.1759 20.0866 11.3677C19.9258 10.5594 19.529 9.81699 18.9463 9.23428C18.3635 8.65156 17.6211 8.25472 16.8129 8.09395C16.0046 7.93318 15.1668 8.01569 14.4055 8.33106C13.6441 8.64642 12.9934 9.18047 12.5355 9.86568C12.0777 10.5509 11.8333 11.3565 11.8333 12.1806C11.8344 13.2853 12.2738 14.3445 13.0549 15.1256C13.8361 15.9068 14.8952 16.3461 16 16.3472ZM16 14.9583C15.2633 14.9583 14.5567 14.6657 14.0358 14.1447C13.5149 13.6238 13.2222 12.9173 13.2222 12.1806C13.2234 11.8303 13.2927 11.4835 13.4264 11.1597C13.436 11.1367 13.4503 11.1159 13.4685 11.0988C13.4867 11.0817 13.5083 11.0686 13.5319 11.0604C13.5557 11.0524 13.581 11.0497 13.6059 11.0525C13.6308 11.0552 13.6549 11.0634 13.6764 11.0764C14.7096 11.6958 15.8918 12.0227 17.0965 12.0222C17.5872 12.0219 18.0763 11.9669 18.5548 11.8583C18.5784 11.8532 18.6028 11.8531 18.6265 11.858C18.6501 11.8629 18.6725 11.8727 18.6921 11.8868C18.7117 11.9009 18.7282 11.9189 18.7404 11.9397C18.7527 11.9605 18.7604 11.9836 18.7632 12.0076C18.7712 12.065 18.7761 12.1227 18.7778 12.1806C18.7778 12.9173 18.4851 13.6238 17.9642 14.1447C17.4432 14.6657 16.7367 14.9583 16 14.9583Z" fill="white"></path>
        <path d="M16 17.0417C14.2509 17.0437 12.5741 17.7394 11.3373 18.9762C10.1005 20.213 9.40479 21.8898 9.40277 23.6389C9.40277 23.731 9.43935 23.8193 9.50447 23.8844C9.56959 23.9495 9.6579 23.9861 9.74999 23.9861H22.25C22.3421 23.9861 22.4304 23.9495 22.4955 23.8844C22.5606 23.8193 22.5972 23.731 22.5972 23.6389C22.5952 21.8898 21.8995 20.213 20.6627 18.9762C19.4259 17.7394 17.7491 17.0437 16 17.0417Z" fill="white"></path>
    </symbol>

    <symbol xmlns="http://www.w3.org/2000/svg" viewBox="0 0 17 16" id="svg-chat">
        <path d="M3.05247 15.8641C3.93042 15.8641 6.03894 14.9358 7.33428 14.0219C7.47101 13.9211 7.58615 13.8851 7.70129 13.8923C7.78765 13.8923 7.874 13.8995 7.95316 13.8995C13.1489 13.8995 16.8334 11.0498 16.8334 7.19977C16.8334 3.48647 13.1273 0.5 8.50008 0.5C3.87285 0.5 0.166748 3.48647 0.166748 7.19977C0.166748 9.51698 1.56283 11.5823 3.91603 12.8561C4.05276 12.928 4.08874 13.036 4.01678 13.1655C3.59939 13.8564 2.90135 14.6408 2.6135 15.0078C2.29686 15.4108 2.47677 15.8641 3.05247 15.8641Z"></path>
    </symbol>

    <symbol xmlns="http://www.w3.org/2000/svg" viewBox="0 0 16 13" id="hidden">
        <path fill-rule="evenodd" clip-rule="evenodd" d="M3.02117 7.64562V9.5825C3.02117 10.9451 4.17645 12.0495 5.60189 12.0495C6.12882 12.0495 6.61886 11.8985 7.02699 11.6395C7.36223 11.4269 7.67585 11.2753 8.00006 11.2753C8.32426 11.2753 8.63821 11.427 8.97312 11.6395C9.38125 11.8985 9.87162 12.0495 10.3982 12.0495C11.8237 12.0495 12.9793 10.9451 12.9793 9.5825V7.64562C11.3507 7.90909 9.6173 7.99279 8.00006 7.99279C6.38281 7.99279 4.64944 7.90909 3.02117 7.64562ZM12.6535 4.33447C14.6795 4.63304 16 5.12174 16 5.67364C16 6.58284 12.4181 7.31986 7.99994 7.31986C3.58176 7.31986 0 6.58296 0 5.67364C0 5.12174 1.32056 4.63304 3.34649 4.33447C3.52849 3.25943 3.98052 2.03203 4.48572 0.820803C4.88248 -0.131086 5.72259 -0.120944 6.49304 0.182309C7.03959 0.397741 7.432 0.58988 7.99994 0.58988C8.56789 0.58988 8.9603 0.397852 9.50685 0.182309C10.2776 -0.120944 11.1174 -0.131086 11.5142 0.820803C12.0194 2.03203 12.4717 3.25943 12.6534 4.33447H12.6535ZM11.6381 9.5825C11.4988 9.25272 10.9965 9.0082 10.3981 9.0082C9.79974 9.0082 9.29777 9.25272 9.15846 9.5825C9.29777 9.91262 9.80007 10.1571 10.3981 10.1571C10.9961 10.1571 11.4988 9.91262 11.6381 9.5825ZM6.78749 9.46593C6.64784 9.13581 6.14587 8.89163 5.5475 8.89163C4.94913 8.89163 4.44716 9.13581 4.30785 9.46593C4.44716 9.7957 4.94913 10.0402 5.5475 10.0402C6.14587 10.0402 6.64784 9.7957 6.78749 9.46593Z" fill="currentColor"></path>
    </symbol>

    <symbol xmlns="http://www.w3.org/2000/svg" viewBox="0 0 24 24" id="deposit">
        <path d="M19.5 2H7a2.5 2.5 0 0 0-2.5 2.5v3.75a.833.833 0 0 0 1.667 0v-.208a.208.208 0 0 1 .208-.209h13.75a.208.208 0 0 1 .208.209V12a.834.834 0 0 1-.445.738.782.782 0 0 0-.388.701.833.833 0 0 0 1.21.75A2.5 2.5 0 0 0 22 12V4.5A2.5 2.5 0 0 0 19.5 2ZM6.375 5.333a.208.208 0 0 1-.208-.208V4.5A.833.833 0 0 1 7 3.667h12.5a.833.833 0 0 1 .833.833v.625a.208.208 0 0 1-.208.208H6.375Z"></path>
        <path d="M16.167 10.333h-12.5A1.666 1.666 0 0 0 2 12v8.333A1.667 1.667 0 0 0 3.667 22h12.5a1.667 1.667 0 0 0 1.666-1.667V12a1.667 1.667 0 0 0-1.666-1.667ZM7 14.917a.417.417 0 0 1-.417.416H4.917a.416.416 0 0 1-.417-.416V13.25a.417.417 0 0 1 .417-.417h1.666A.417.417 0 0 1 7 13.25v1.667Zm7.083 4.583a1.66 1.66 0 0 1-1.11-.425.21.21 0 0 0-.279 0 1.666 1.666 0 1 1 0-2.483.21.21 0 0 0 .278 0 1.667 1.667 0 1 1 1.111 2.908Z"></path>
    </symbol>

    <symbol xmlns="http://www.w3.org/2000/svg" viewBox="0 0 24 24" id="withdrawal">
        <path d="M19.204 15.251v-9.32A.919.919 0 0 0 18.3 5H2.906A.919.919 0 0 0 2 5.932v9.32a.92.92 0 0 0 .906.93h15.393a.918.918 0 0 0 .905-.93Zm-8.602-2.079a2.58 2.58 0 1 1 0-5.16 2.58 2.58 0 0 1 0 5.16Z"></path>
        <path d="M21.355 7.365a.645.645 0 0 0-.645.646v9.462a.215.215 0 0 1-.215.215H5.01a.645.645 0 1 0 0 1.29h15.484A1.507 1.507 0 0 0 22 17.473V8.011a.645.645 0 0 0-.645-.646Z"></path>
    </symbol>

    <symbol xmlns="http://www.w3.org/2000/svg" viewBox="0 0 20 20" id="lock-shield">
        <path d="M16.992 4.04a1.114 1.114 0 0 0-.645-1.018 16.045 16.045 0 0 0-6.601-1.355c-2.271-.02-4.521.441-6.601 1.355A1.114 1.114 0 0 0 2.5 4.04v5.534a8.902 8.902 0 0 0 5.672 8.31l.773.3c.516.2 1.086.2 1.602 0l.773-.3a8.902 8.902 0 0 0 5.672-8.31V4.04Zm-2.53 3.235-4.373 5.965a.907.907 0 0 1-.661.367h-.073a.905.905 0 0 1-.64-.266l-3.317-3.315a.906.906 0 0 1 1.282-1.28l2.42 2.422a.181.181 0 0 0 .275-.021l3.623-4.943a.906.906 0 1 1 1.46 1.071h.004Z"></path>
    </symbol>

    <symbol xmlns="http://www.w3.org/2000/svg" viewBox="0 0 20 20" id="settings">
        <path d="M18.33 9.264a.694.694 0 0 0-.608-.689l-1.204-.15a.174.174 0 0 1-.146-.128 6.528 6.528 0 0 0-.666-1.597.174.174 0 0 1 .013-.193l.747-.96a.694.694 0 0 0-.057-.918l-1.042-1.042a.694.694 0 0 0-.917-.058l-.957.749a.175.175 0 0 1-.194.013 6.52 6.52 0 0 0-1.597-.665.175.175 0 0 1-.128-.147l-.152-1.203a.695.695 0 0 0-.688-.61h-1.47a.694.694 0 0 0-.69.609l-.15 1.204a.175.175 0 0 1-.128.147 6.52 6.52 0 0 0-1.597.665.174.174 0 0 1-.194-.013l-.961-.747a.694.694 0 0 0-.917.057L3.586 4.629a.694.694 0 0 0-.057.918l.748.958a.174.174 0 0 1 .014.194 6.527 6.527 0 0 0-.666 1.597.174.174 0 0 1-.146.128l-1.203.15a.694.694 0 0 0-.61.69v1.47a.694.694 0 0 0 .609.689l1.204.15a.172.172 0 0 1 .146.128c.15.56.374 1.096.666 1.597a.174.174 0 0 1-.014.193l-.746.962a.694.694 0 0 0 .057.918l1.041 1.041a.694.694 0 0 0 .918.058l.96-.747a.173.173 0 0 1 .193-.013c.5.292 1.038.515 1.597.665a.175.175 0 0 1 .128.146l.15 1.204a.694.694 0 0 0 .69.608h1.47a.694.694 0 0 0 .689-.608l.15-1.204a.174.174 0 0 1 .128-.146 6.508 6.508 0 0 0 1.597-.665.172.172 0 0 1 .194.013l.96.747a.694.694 0 0 0 .916-.057l1.042-1.042a.694.694 0 0 0 .057-.917l-.749-.96a.175.175 0 0 1-.013-.194c.292-.5.516-1.038.666-1.597a.172.172 0 0 1 .146-.127l1.204-.151a.694.694 0 0 0 .608-.69V9.263Zm-9.026-.768a.175.175 0 0 1-.087.151 1.559 1.559 0 0 0-.763 1.573.177.177 0 0 1-.065.162L6.506 11.86a.172.172 0 0 1-.216 0 .173.173 0 0 1-.048-.06 4.166 4.166 0 0 1 2.854-5.867.171.171 0 0 1 .146.034.173.173 0 0 1 .066.139l-.004 2.39Zm-.059 2.978a.173.173 0 0 1 .172-.025c.373.15.79.15 1.162 0a.174.174 0 0 1 .173.025l1.88 1.478a.173.173 0 0 1 0 .27 4.16 4.16 0 0 1-5.273 0 .175.175 0 0 1 .006-.273l1.88-1.475Zm2.364-1.092a.177.177 0 0 1-.064-.162 1.558 1.558 0 0 0-.764-1.573.175.175 0 0 1-.088-.15V6.102a.172.172 0 0 1 .208-.17 4.166 4.166 0 0 1 2.85 5.866.172.172 0 0 1-.194.094.172.172 0 0 1-.07-.033l-1.878-1.478Z"></path>
    </symbol>

    <symbol xmlns="http://www.w3.org/2000/svg" viewBox="0 0 24 24" id="time-clock">
        <path d="M12 2a10 10 0 1 0 10 10A10.011 10.011 0 0 0 12 2Zm4.333 14.35a.847.847 0 0 1-1.177.052l-4.133-3.788A.835.835 0 0 1 10.75 12V7.417a.833.833 0 1 1 1.667 0v4.216l3.861 3.54a.833.833 0 0 1 .055 1.179v-.001Z"></path>
    </symbol>

    <symbol xmlns="http://www.w3.org/2000/svg" viewBox="0 0 20 20" id="logout">
        <path d="M15.73 2.708h-5.21v-.694a.348.348 0 0 0-.421-.339l-6.25 1.389a.347.347 0 0 0-.273.339v13.194a.347.347 0 0 0 .273.34l6.25 1.388a.348.348 0 0 0 .422-.339v-.694h5.208a.694.694 0 0 0 .695-.695V3.403a.694.694 0 0 0-.695-.695Zm-6.945 7.64a1.041 1.041 0 1 1-2.083 0 1.041 1.041 0 0 1 2.083 0Zm5.902 5.555h-3.819a.347.347 0 0 1-.347-.347V4.444a.347.347 0 0 1 .347-.347h3.82a.348.348 0 0 1 .347.347v11.112a.347.347 0 0 1-.348.347Z"></path>
    </symbol>

    <symbol xmlns="http://www.w3.org/2000/svg" viewBox="0 0 32 32" id="gift-box">
        <path d="M17.111 16a.555.555 0 0 0 .556.555h9.444a1.948 1.948 0 0 0 1.945-1.944v-2.222a1.947 1.947 0 0 0-1.945-1.945h-9.444a.556.556 0 0 0-.556.556v5Z"></path><path d="M6.833 16.555h8.056a.555.555 0 0 0 .555-.555v-5a.555.555 0 0 0-.555-.556h-10a1.947 1.947 0 0 0-1.945 1.945v2.222a1.948 1.948 0 0 0 1.945 1.944h1.944Z"></path><path d="M15.444 18.778a.556.556 0 0 0-.555-.556H5.722a.555.555 0 0 0-.555.556v8.61a1.948 1.948 0 0 0 1.944 1.945h7.778a.556.556 0 0 0 .556-.555v-10Z"></path><path d="M17.667 18.222a.556.556 0 0 0-.556.556v10a.556.556 0 0 0 .556.555h7.222a1.948 1.948 0 0 0 1.944-1.944v-8.611a.555.555 0 0 0-.555-.556h-8.611Z"></path><path d="M17.159 10.119a1.111 1.111 0 0 0 1.049.292c1.314-.321 4.478-1.171 5.444-2.138A3.287 3.287 0 1 0 19 3.628c-.841.84-1.643 3.419-2.138 5.444a1.157 1.157 0 0 0 .297 1.047Zm3.415-4.92a1.065 1.065 0 1 1 1.504 1.503 9.986 9.986 0 0 1-2.538 1.036 9.912 9.912 0 0 1 1.034-2.54Z"></path><path d="M15.69 9.068c-.493-2.02-1.296-4.598-2.134-5.44a3.287 3.287 0 0 0-4.65 4.645c.964.967 4.127 1.817 5.444 2.138a1.112 1.112 0 0 0 1.049-.292 1.157 1.157 0 0 0 .291-1.051Zm-5.212-2.366A1.062 1.062 0 1 1 11.98 5.2a9.87 9.87 0 0 1 1.034 2.539 9.881 9.881 0 0 1-2.536-1.036Z"></path>
    </symbol>

    <symbol xmlns="http://www.w3.org/2000/svg" viewBox="0 0 20 20" id="analytics-bars">
        <path d="M2.535 13.368h2.43a.174.174 0 0 0 .161-.107.173.173 0 0 0 .013-.066v-1.39a.695.695 0 0 0-.694-.694h-1.39a.695.695 0 0 0-.694.695v1.389a.173.173 0 0 0 .174.173ZM7.223 7.639a.694.694 0 0 0-.695.694v4.861a.173.173 0 0 0 .174.174h2.43a.173.173 0 0 0 .174-.174v-4.86a.694.694 0 0 0-.694-.695h-1.39ZM11.389 9.028a.695.695 0 0 0-.695.694v3.472a.173.173 0 0 0 .174.174h2.43a.172.172 0 0 0 .174-.174V9.722a.694.694 0 0 0-.694-.694h-1.39ZM15.035 13.368h2.43a.174.174 0 0 0 .161-.107.172.172 0 0 0 .013-.066V4.86a.695.695 0 0 0-.694-.694h-1.39a.695.695 0 0 0-.694.694v8.333a.173.173 0 0 0 .174.174ZM2.361 15.625H17.64a.694.694 0 1 0 0-1.389H2.361a.695.695 0 0 0 0 1.39Z"></path>
    </symbol>

    <symbol xmlns="http://www.w3.org/2000/svg" viewBox="0 0 16 16" id="profile">
        <path d="M8 8.333a4 4 0 1 0 0-8 4 4 0 0 0 0 8ZM8 7a2.667 2.667 0 0 1-2.667-2.667 2.59 2.59 0 0 1 .196-.98.17.17 0 0 1 .102-.095.166.166 0 0 1 .138.015 6.381 6.381 0 0 0 4.684.751.166.166 0 0 1 .2.143c.007.055.012.11.014.166A2.667 2.667 0 0 1 8 7ZM8 9a6.34 6.34 0 0 0-6.333 6.333.333.333 0 0 0 .333.334h12a.333.333 0 0 0 .333-.334A6.34 6.34 0 0 0 8 9Z"></path>
    </symbol>

</svg>