<svg width="256" height="256" viewBox="0 0 256 256" fill="none" xmlns="http://www.w3.org/2000/svg">
<path opacity="0.75" d="M210.846 161.635C217.717 143.261 219.966 123.48 217.396 104.032C212.737 70.6734 194.904 45.0427 161.695 26.853C119.188 3.57067 61.7616 11.7746 27.4747 46.0308C8.43854 65.0499 -3.10194 96.5908 12.1915 118.735C23.2848 134.777 44.6813 140.594 57.2782 155.478C73.029 174.089 71.8259 202.814 87.4657 221.517C101.329 238.094 126.291 242.61 146.805 235.812C163.947 230.124 194.945 205.049 210.846 161.635Z" fill="#5493F7"/>
<path opacity="0.8" d="M146.811 235.807C163.951 230.128 194.949 205.051 210.85 161.639C217.59 143.243 221.261 125.534 217.4 104.036C204.633 33.028 117.682 124.345 102.687 133.616C73.0966 151.902 64.9251 192.009 86.0092 219.676C86.4962 220.314 86.9837 220.926 87.4718 221.511C101.333 238.087 126.295 242.602 146.811 235.807Z" fill="#2043B5"/>
<path opacity="0.7" d="M173.844 37.8591C155.469 30.9884 135.688 28.739 116.24 31.3089C82.8817 35.9681 57.2492 53.8011 39.0596 87.0094C15.7772 129.517 23.9829 186.943 58.2374 221.23C77.2548 240.266 108.796 251.807 130.941 236.513C146.984 225.42 152.799 204.024 167.684 191.427C186.295 175.676 215.02 176.881 233.724 161.239C250.301 147.376 254.815 122.414 248.019 101.9C242.332 84.76 217.258 53.7618 173.844 37.8591Z" fill="#3573EC"/>
<path d="M131.797 165.753H149.768L127.027 122.378L166.408 87.1016H145.331L108.501 120.271L115.49 87.1016H100.181L83.541 165.753H98.8498L103.509 143.456L114.935 133.139L131.797 165.753Z" fill="white"/>
</svg>
