<svg xmlns="http://www.w3.org/2000/svg" xmlns:xlink="http://www.w3.org/1999/xlink" width="243.6" height="129.88" viewBox="0 0 243.6 129.88">
  <defs>
    <style>
      .cls-1 {
        fill: #10d078;
      }

      .cls-2 {
        fill: #7d00ff;
      }

      .cls-3 {
        fill: none;
      }

      .cls-4 {
        fill: #2e313f;
      }

      .cls-5 {
        fill: url(#Безымянный_градиент);
      }
    </style>
    <linearGradient id="Безымянный_градиент" data-name="Безымянный градиент" x1="172.83" y1="-32.22" x2="196.72" y2="-18.43" gradientTransform="matrix(1, 0, 0, -1, 0, 96.58)" gradientUnits="userSpaceOnUse">
      <stop offset="0" stop-color="#3991b7"/>
      <stop offset="1" stop-color="#48b9ae"/>
    </linearGradient>
  </defs>
  <g id="Слой_2" data-name="Слой 2">
    <g id="Слой_1-2" data-name="Слой 1">
      <g id="Слой_2-2" data-name="Слой 2">
        <g id="layer">
          <g>
            <path d="M68.94,28.34a10.79,10.79,0,0,1,18.92-7.15l-2,2.07a8.4,8.4,0,0,0-6.38-3c-4.22,0-7.43,3.57-7.43,8.12a7.75,7.75,0,0,0,7.43,8.07h.17c2.63,0,4.58-1.39,6.25-3.13l2,1.87a10.69,10.69,0,0,1-19-6.82M91.47,10.92l3.08-1.5V21.6a7.92,7.92,0,0,1,7.11-4.06c5,0,7.92,3.37,7.92,8.32V38.73h-3.09V26.55c0-3.86-2.07-6.25-5.72-6.25s-6.22,2.6-6.22,6.49v11.9H91.47Zm36.9,20.14V29.15a21.79,21.79,0,0,0-6-.89c-3.85,0-6,1.7-6,4.26s2.4,4.14,5.2,4.14c3.82,0,6.9-2.32,6.9-5.6M113.19,32.6c0-4.47,3.61-6.78,8.85-6.78a21.52,21.52,0,0,1,6.33.89v-.65c0-3.69-2.23-5.6-6.13-5.6A14.3,14.3,0,0,0,116,22L115,19.45a16.78,16.78,0,0,1,7.55-1.79,9.31,9.31,0,0,1,6.69,2.27A8.1,8.1,0,0,1,131.42,26V38.69h-3V35.6a9.18,9.18,0,0,1-7.47,3.54c-3.86,0-7.71-2.24-7.71-6.54m23.46-14.66h3.09v3.62a7.9,7.9,0,0,1,7.1-4.06c5,0,7.92,3.37,7.92,8.32V38.69h-3.09V26.55c0-3.86-2.07-6.25-5.72-6.25s-6.21,2.6-6.21,6.49v11.9h-3.09Zm39.91,9.3c0-4.26-3.69-7-7.63-7a6.88,6.88,0,0,0-7.19,6.56v.5a7,7,0,0,0,6.94,7.06h.25c3.94,0,7.63-2.84,7.63-7.1m-17,15.06L161,39.93a13,13,0,0,0,8,2.64c4.54,0,7.55-2.52,7.55-7.39V32.72a9.85,9.85,0,0,1-8.16,4.39,9.62,9.62,0,0,1-9.74-9.5v-.29a9.79,9.79,0,0,1,17.82-5.6V18h3.08V35.1a10.08,10.08,0,0,1-2.64,7.34c-1.82,1.87-4.58,2.76-7.87,2.76a16.45,16.45,0,0,1-9.46-2.88M200.24,27.1c-.37-3.78-2.52-7-6.62-7-3.57,0-6.29,3-6.74,7Zm-6.05,9.38a8.66,8.66,0,0,0,6.53-2.93l1.91,1.75a10.76,10.76,0,0,1-8.52,3.9c-5.69,0-10.35-4.39-10.35-10.84,0-6,4.22-10.84,9.94-10.84,6.13,0,9.66,4.91,9.66,11v1.1H186.87a7.25,7.25,0,0,0,7.31,6.86Zm13.48-24.24,3.08-1.54v28h-3.08Zm8.73-1.3,3.08-1.5V38.73h-3.11Zm7.18,33.25,1.06-2.44a6.31,6.31,0,0,0,3.24.77c1.83,0,3-1,4.27-3.89L222.73,18h3.41l7.51,17.3L240.31,18h3.29L234.91,39.4c-1.75,4.3-3.78,5.84-6.9,5.84a9.2,9.2,0,0,1-4.43-1"/>
            <path class="cls-1" d="M29,47.54a10.61,10.61,0,0,1-1.46,1.22,24.22,24.22,0,0,1-3.21,2,26.81,26.81,0,0,1-7.06,2.47c-.61.12-1.22.25-1.83.33l-.93.12h-.89l-.94.08h-.93a14.63,14.63,0,0,0-1.87.08c-1.83,0-3.65-.08-5.48-.24.2-.28.41-.61.61-.93.57-.86,1.1-1.76,1.58-2.67a39,39,0,0,0,2.15-6,61.42,61.42,0,0,1,1.91-5.85,44.71,44.71,0,0,1,2.56-5.64A19.74,19.74,0,0,0,11.37,35c-.57.86-1.14,1.79-1.62,2.68a38.4,38.4,0,0,0-2.6,5.73A47.75,47.75,0,0,1,4.71,49a28,28,0,0,1-3.34,4.87L0,55.5l2.12.28a46,46,0,0,0,7.87.49,11.25,11.25,0,0,0,2-.12l1-.09,1-.12c.65-.08,1.3-.24,2-.32a10.5,10.5,0,0,0,2-.49l1.9-.61a16,16,0,0,0,1.87-.77,22.34,22.34,0,0,0,3.49-2,18.24,18.24,0,0,0,3.05-2.56,13.47,13.47,0,0,0,2.12-3.11A10,10,0,0,1,29,47.54m14.53-35a3.94,3.94,0,0,1,5.53,0A3.91,3.91,0,0,1,43.56,18a4,4,0,0,1,0-5.52m2.77,9a6.17,6.17,0,0,0,4.42-1.83,6.27,6.27,0,1,0-8.85,0,6.09,6.09,0,0,0,4.47,1.91m1.82,9c-9,7.92-12.7,8.65-16.44,6.94l4.06-5.11a6.67,6.67,0,0,0,1.26-2.56l1.62-6.86-6.82,1.62a6.6,6.6,0,0,0-2.56,1.26L24.2,29.87c-1.75-3.74-1-7.47,6.9-16.44C38.53,5,54.28,3,59,2.6c-.36,4.67-2.31,20.46-10.8,27.93Zm-6,12.26a1.47,1.47,0,0,1-.6.93c-.94.65-2.4,1.55-3.7,2.36l.08-.25c.61-2.47.61-4.38,0-5.68a20.79,20.79,0,0,0,5.6-2.88c-.53,1.92-1.1,4.19-1.39,5.53ZM28,38.36a2.67,2.67,0,0,1-2.24,1H23.71l7.07-8.53L22.25,37.9v-2a2.67,2.67,0,0,1,1-2.24l7.47-5.92a4.8,4.8,0,0,1,1.65-.81l3-.74-.73,3.05a4.09,4.09,0,0,1-.81,1.66L28,38.36ZM15.84,23.67l-.25.08c.78-1.3,1.67-2.76,2.32-3.7a1.47,1.47,0,0,1,.93-.6c1.34-.29,3.61-.86,5.52-1.34a21.17,21.17,0,0,0-2.88,5.64C20.22,23,18.31,23,15.84,23.67ZM60.21.12c-.85,0-21.48,1-30.94,11.73-.89,1-1.74,2.07-2.59,3.13-1.38.37-6.17,1.66-8.29,2.11A3.85,3.85,0,0,0,16,18.72c-1.46,2.11-4,6.45-4.06,6.61l-1.83,3.13L13.37,27c2.19-.94,5.85-1.91,7.15-1.14a1.09,1.09,0,0,1,.48,1h0a10.33,10.33,0,0,0,1.22,4.55l-.45.37A5,5,0,0,0,19.87,36v5.8h5.8a5,5,0,0,0,4.18-1.9l.37-.45a10,10,0,0,0,4.55,1.22h0a1.07,1.07,0,0,1,1,.48c.81,1.3-.16,5-1.14,7.19l-1.46,3.3,3.13-1.83c.2-.12,4.5-2.64,6.62-4.1a3.87,3.87,0,0,0,1.58-2.43c.45-2.12,1.74-7,2.11-8.33,1-.77,2-1.66,3.08-2.64,10.68-9.45,11.68-30.12,11.74-31V0Z"/>
          </g>
          <g>
            <g id="MP_LOGO" data-name="MP LOGO">
              <path d="M193,82.09l-6.2-14.31h4.15L195.17,78l4.9-10.21h4.05L194.46,87.4h-4.1Zm-15.08-3a3.93,3.93,0,0,0,1-.4,4.23,4.23,0,0,0,.88-.62,4,4,0,0,0,.69-.84,4.76,4.76,0,0,0,.46-1,5,5,0,0,0,0-2.49,5.07,5.07,0,0,0-.46-1,4.47,4.47,0,0,0-.68-.89,6,6,0,0,0-.87-.62,5.7,5.7,0,0,0-1.05-.37,3.79,3.79,0,0,0-1.16-.12,5.83,5.83,0,0,0-1.18.12,4.3,4.3,0,0,0-1,.37,4.44,4.44,0,0,0-.87.62,4,4,0,0,0-.7.84,5,5,0,0,0-.45,1,4.48,4.48,0,0,0,.45,3.52,4,4,0,0,0,.7.84,4.16,4.16,0,0,0,.87.62,5.45,5.45,0,0,0,1,.4,3.89,3.89,0,0,0,1.18.12,3.79,3.79,0,0,0,1.16-.12m-4.21,3.18a7.65,7.65,0,0,1-1.84-.72,6.91,6.91,0,0,1-2.69-2.7,7.57,7.57,0,0,1-.75-1.84,9.22,9.22,0,0,1,0-4.18,7.5,7.5,0,0,1,.75-1.83,6.85,6.85,0,0,1,2.69-2.7,8.15,8.15,0,0,1,1.84-.74,9.13,9.13,0,0,1,2.09-.26,10.84,10.84,0,0,1,1.14,0,7.26,7.26,0,0,1,1,.22,4.89,4.89,0,0,1,.9.34,4.73,4.73,0,0,1,.81.41,5.06,5.06,0,0,1,1.19,1.12V67.86h3.94V82.18h-3.94V80.47a5.49,5.49,0,0,1-2,1.54,5,5,0,0,1-1.43.43,8.23,8.23,0,0,1-1.64.17,7.27,7.27,0,0,1-2.07-.27M159.42,71.55a6.39,6.39,0,0,0,1.69-.18,3,3,0,0,0,1.16-.6,2.25,2.25,0,0,0,.69-1,3.44,3.44,0,0,0,.21-1.35A3.89,3.89,0,0,0,163,67.1a2.22,2.22,0,0,0-.69-.94,2.82,2.82,0,0,0-1.16-.58,6.4,6.4,0,0,0-1.69-.19h-3.85v6.14Zm-8-9.44h8.38a10.88,10.88,0,0,1,3.4.48,6.8,6.8,0,0,1,2.37,1.34A5.59,5.59,0,0,1,167,66a7.47,7.47,0,0,1,0,5.16,5.59,5.59,0,0,1-1.35,2,6.36,6.36,0,0,1-2.37,1.35,11.17,11.17,0,0,1-3.4.47h-4.26v7.35h-4Zm-17.56,5.67h3.91v1.71a4.53,4.53,0,0,1,.87-.88,5.24,5.24,0,0,1,1.12-.66,6.85,6.85,0,0,1,1.35-.43,10.44,10.44,0,0,1,1.59-.15,6.66,6.66,0,0,1,2.42.41A5.36,5.36,0,0,1,147,69a5.15,5.15,0,0,1,1.13,1.91,8.09,8.09,0,0,1,.4,2.58v8.66h-3.89V74.52a6.07,6.07,0,0,0-.23-1.64,3.61,3.61,0,0,0-.68-1.19,2.61,2.61,0,0,0-1.06-.71,4.64,4.64,0,0,0-2.9,0,2.79,2.79,0,0,0-1.08.71,3.56,3.56,0,0,0-.66,1.19,5.67,5.67,0,0,0-.25,1.64v7.64h-3.89ZM124.24,79a3.7,3.7,0,0,0,1.06-.41,3.22,3.22,0,0,0,.88-.63,4.63,4.63,0,0,0,.67-.86,3.76,3.76,0,0,0,.41-1,5,5,0,0,0,0-2.38,3.92,3.92,0,0,0-1.08-1.88,4.36,4.36,0,0,0-.88-.65,5,5,0,0,0-1.06-.4,5.81,5.81,0,0,0-2.49,0,4.37,4.37,0,0,0-1.06.4,3.71,3.71,0,0,0-.88.65,3.92,3.92,0,0,0-.67.85,4.66,4.66,0,0,0-.41,3.43,5.34,5.34,0,0,0,.42,1.09,3.79,3.79,0,0,0,.68.86,3.21,3.21,0,0,0,.87.64,5,5,0,0,0,2.31.55,4.33,4.33,0,0,0,1.24-.18m-3.55,3.24a8.79,8.79,0,0,1-2-.73A8.29,8.29,0,0,1,117,80.46a6.39,6.39,0,0,1-1.26-1.53,7.14,7.14,0,0,1-.81-1.83,8,8,0,0,1,0-4.18,7.57,7.57,0,0,1,.81-1.84,7.26,7.26,0,0,1,2.94-2.69,8.41,8.41,0,0,1,2-.75,10.38,10.38,0,0,1,4.64,0,8.12,8.12,0,0,1,2,.75,7.74,7.74,0,0,1,1.68,1.16,7.25,7.25,0,0,1,1.35,1.52,6.52,6.52,0,0,1,.81,1.83,7.81,7.81,0,0,1,0,4.18,6.94,6.94,0,0,1-2.09,3.36,8.09,8.09,0,0,1-1.69,1.14,8.59,8.59,0,0,1-2,.74,10.38,10.38,0,0,1-4.64,0M105.5,79.08a3.63,3.63,0,0,0,1.07-.4,3.54,3.54,0,0,0,.89-.64,5,5,0,0,0,.66-.86,3.05,3.05,0,0,0,.4-1,5.08,5.08,0,0,0,0-2.39,3.82,3.82,0,0,0-1.06-1.87,4.32,4.32,0,0,0-.89-.65,4.64,4.64,0,0,0-1.07-.41,5.93,5.93,0,0,0-2.47,0,4.08,4.08,0,0,0-1.07.41,3.9,3.9,0,0,0-1.54,1.5,5.06,5.06,0,0,0-.41,1A3.7,3.7,0,0,0,99.87,75a5.46,5.46,0,0,0,.14,1.2,4.65,4.65,0,0,0,.41,1,3.71,3.71,0,0,0,.66.86,3.48,3.48,0,0,0,.88.64,5.11,5.11,0,0,0,1.07.4,5.16,5.16,0,0,0,2.47,0m-3.56,3.24a8.79,8.79,0,0,1-2-.73,8.06,8.06,0,0,1-1.68-1.15,6.38,6.38,0,0,1-1.27-1.52,7.21,7.21,0,0,1-.81-1.84,7.81,7.81,0,0,1,0-4.18,7.15,7.15,0,0,1,2.08-3.35,7.51,7.51,0,0,1,1.68-1.16,8.84,8.84,0,0,1,2-.75,11.29,11.29,0,0,1,4.63,0,8.62,8.62,0,0,1,2,.75,7,7,0,0,1,1.69,1.16,7.54,7.54,0,0,1,1.35,1.52,7.68,7.68,0,0,1,.81,1.83,8,8,0,0,1,0,4.18,7,7,0,0,1-2.11,3.36,7.7,7.7,0,0,1-1.68,1.15,9.29,9.29,0,0,1-2,.73,10,10,0,0,1-4.62,0M70.94,62h4.14l7,10.79L89.21,62h4.11V82.2h-4V68.32l-5.9,8.9h-2.5L75,68.32V82.18H71Z"/>
            </g>
            <path id="MP_EM_LOGO" data-name="MP EM LOGO" class="cls-2" d="M61.52,65.58a4.12,4.12,0,1,0-4.11-4.11h0a4.12,4.12,0,0,0,4.11,4.11h0M48.87,84.15A10.06,10.06,0,1,1,58.93,74.09h0a10,10,0,0,1-10,10.06h0"/>
            <rect class="cls-3" x="35.53" y="53.47" width="171.91" height="37.83"/>
          </g>
          <g id="Слой_2-2-2" data-name="Слой 2-2">
            <g>
              <path class="cls-4" d="M63,116a7.48,7.48,0,0,1,2.74,4.13,7.73,7.73,0,0,1-5.59,9.39,7.44,7.44,0,0,1-1.82.23h-17c-.94,0-1.2-.26-1.2-1.22V104.82c0-.91.25-1.24,1.07-1.24,5.43,0,10.87-.16,16.28,0a7.64,7.64,0,0,1,5.82,11.92Zm-10.71,3H46.52c-.89,0-1.19.3-1.21,1.2v3.62c0,.95.3,1.24,1.28,1.24H57.86a3,3,0,0,0,0-6.06Zm-.76-4.69h4.94a3.07,3.07,0,0,0,.1-6.11H46.5c-.91,0-1.19.31-1.21,1.26v3.56c0,1,.3,1.29,1.3,1.29Z"/>
              <path class="cls-4" d="M112,111.57v16.68a5.89,5.89,0,0,1,0,.84.78.78,0,0,1-.79.7h-3.54a.8.8,0,0,1-.84-.77h0V105.07c0-1.31.2-1.51,1.49-1.51h3.08a1.69,1.69,0,0,1,1.41.64L127.29,121l.57.62V104.43a.8.8,0,0,1,.76-.85h3.56a.8.8,0,0,1,.84.77v0a4.33,4.33,0,0,1,0,.72v23.16a5.21,5.21,0,0,1,0,.79.81.81,0,0,1-.86.75h-3.74a1.45,1.45,0,0,1-.91-.57c-3.23-3.69-6.43-7.42-9.63-11.12l-5.44-6.29-.22-.31Z"/>
              <path class="cls-5" d="M187.87,129.81H175.09a2.62,2.62,0,0,1-2.33-4c4.05-6.92,8-13.9,12.06-20.86a3.36,3.36,0,0,1,4.47-1.61A3.49,3.49,0,0,1,190.9,105q6,10.45,12.09,20.93a2.57,2.57,0,0,1-2.25,3.9C196.44,129.76,192.16,129.81,187.87,129.81Zm8.62-5-8.63-15-8.64,15Z"/>
              <path class="cls-4" d="M85.89,129.79H73.22a2.52,2.52,0,0,1-2.85-2.13,2.58,2.58,0,0,1,.5-1.9l12-20.76a3.36,3.36,0,0,1,4.46-1.63A3.3,3.3,0,0,1,89,105l12,20.86a2.52,2.52,0,0,1-2.33,4Zm-8.69-5H94.61c-2.93-5-5.78-10.08-8.71-15.12Z"/>
              <path class="cls-4" d="M149.88,116.07l-3.78-4.65c-1.68-2-3.22-3.91-4.8-5.88a2.11,2.11,0,0,1-.4-1,.76.76,0,0,1,.6-.91.68.68,0,0,1,.2,0h4.64a1.46,1.46,0,0,1,.9.61c1.82,2.26,3.62,4.57,5.43,6.85l.6.77.42-.5q2.79-3.54,5.58-7.12a1.5,1.5,0,0,1,1.33-.66h3.79c.46,0,.94,0,1.16.47a1.36,1.36,0,0,1-.27,1.46L157,115.65c-.1.12-.19.25-.3.41l.32.43,9.4,11.24a3.35,3.35,0,0,1,.42.57,1,1,0,0,1-.28,1.32,1,1,0,0,1-.52.16H161.3a1.71,1.71,0,0,1-1-.62c-2.21-2.74-4.4-5.5-6.58-8.25a4.32,4.32,0,0,0-.44-.52l-1.57,2q-2.72,3.36-5.38,6.72a1.68,1.68,0,0,1-1.43.7h-4c-.47,0-1,0-1.21-.47a1.22,1.22,0,0,1,.32-1.42l9.39-11.24Z"/>
            </g>
          </g>
        </g>
      </g>
    </g>
  </g>
</svg>
