<svg xmlns="http://www.w3.org/2000/svg" width="351.83" height="60.87" viewBox="0 0 351.83 60.87">
  <defs>
    <style>
      .cls-1 {
        fill: #8247e5;
      }

      .cls-2 {
        fill: #fff;
      }

      .cls-3 {
        fill: #f00500;
      }

      .cls-4 {
        fill: none;
      }

      .cls-5 {
        fill: #ffa409;
      }

      .cls-6 {
        fill: #ff9300;
      }

      .cls-7 {
        fill: #ff8300;
      }

      .cls-8 {
        fill: #2a5ada;
      }

      .cls-9 {
        fill: #51a500;
      }

      .cls-10 {
        fill: #f7931a;
      }

      .cls-11 {
        fill: #ef1856;
      }
    </style>
  </defs>
  <g id="Слой_2" data-name="Слой 2">
    <g id="_1" data-name="1">
      <g id="Polygon">
        <circle class="cls-1" cx="29.45" cy="31.43" r="29.45"/>
        <path class="cls-2" d="M39.3,24.88a2.55,2.55,0,0,0-2.4,0l-5.6,3.3-3.8,2.1L22,33.58a2.55,2.55,0,0,1-2.4,0L15.3,31a2.44,2.44,0,0,1-1.2-2.1v-5a2.47,2.47,0,0,1,1.2-2.1l4.3-2.5a2.55,2.55,0,0,1,2.4,0l4.3,2.6A2.44,2.44,0,0,1,27.5,24v3.3l3.8-2.2v-3.4a2.47,2.47,0,0,0-1.2-2.1l-8-4.7a2.55,2.55,0,0,0-2.4,0l-8.2,4.8a2.2,2.2,0,0,0-1.2,2v9.4a2.47,2.47,0,0,0,1.2,2.1l8.1,4.7a2.55,2.55,0,0,0,2.4,0l5.5-3.2,3.8-2.2,5.5-3.2a2.55,2.55,0,0,1,2.4,0l4.3,2.5a2.44,2.44,0,0,1,1.2,2.1v5A2.47,2.47,0,0,1,43.5,41l-4.2,2.5a2.55,2.55,0,0,1-2.4,0L32.6,41a2.44,2.44,0,0,1-1.2-2.1v-3.2l-3.8,2.2v3.3a2.47,2.47,0,0,0,1.2,2.1L36.9,48a2.55,2.55,0,0,0,2.4,0l8.1-4.7a2.44,2.44,0,0,0,1.2-2.1v-9.5a2.47,2.47,0,0,0-1.2-2.1Z"/>
      </g>
      <g id="Слой_2-2" data-name="Слой 2">
        <g id="Group_938" data-name="Group 938">
          <g id="Group_931" data-name="Group 931">
            <path id="Path_8573" data-name="Path 8573" class="cls-3" d="M91,5.36a38.33,38.33,0,0,0-4.27,5.07l-.41-.13a29.19,29.19,0,0,0-7.16-1.39c-.73-.05-3.46-.05-4.35,0a25.21,25.21,0,0,0-7.1,1.4l-.26.09a39.11,39.11,0,0,0-4.42-5,30.65,30.65,0,0,1,25-1.32,27.57,27.57,0,0,1,2.56,1.12Z"/>
            <path id="Path_8574" data-name="Path 8574" class="cls-3" d="M105.54,40.93a29.17,29.17,0,0,1-5.25,9.21,33.21,33.21,0,0,1-4.11,4A30.25,30.25,0,0,1,84.34,60a31.15,31.15,0,0,1-14.56,0,30.18,30.18,0,0,1-11.84-5.85,33.21,33.21,0,0,1-4.11-4,28.94,28.94,0,0,1-5.25-28.21A30.57,30.57,0,0,1,51,16.77c.44-.75,1-1.59,1.25-1.94.9,3.87,2,7.28,2.42,8.51a2,2,0,0,1-.11.2,34.29,34.29,0,0,0-3.65,13.24V37a8.19,8.19,0,0,0,.18,2.86c.71,2.68,2.87,5.62,6.27,8.51,5.56,4.73,13.1,8.14,18.81,8.53,6,.41,14.74-3.07,20.6-8.15a30.14,30.14,0,0,0,2.58-2.6,13.34,13.34,0,0,0,1.38-1.84s0,0,0,0,.06,0,0-.06,0,0,0,0,0,0,0,0,0,0,0,0a0,0,0,0,0,0-.06s0,0,0,0,0,0,0,0,0-.05,0-.05a0,0,0,0,0,0,0,.88.88,0,0,1,.12-.21c.14-.22.7-1.22.78-1.39a13.13,13.13,0,0,0,1-3.37,10,10,0,0,0,.09-1.69s0-.1,0-.2,0-.47,0-.75-.06-1-.08-1.31a27.62,27.62,0,0,0-3.56-11.42,2.91,2.91,0,0,1-.2-.39.59.59,0,0,1,0-.08h0c.29-.87,1.48-4.52,2.43-8.69l0,0,.14.18c.24.33.89,1.31,1.18,1.78a28.83,28.83,0,0,1,2.65,24.66Z"/>
            <path id="Path_8575" data-name="Path 8575" d="M93.37,29.72a3.22,3.22,0,0,1-.91.93,15.63,15.63,0,0,1-6,2.25,7.35,7.35,0,0,1-3.08.09c-.26-.13-.3-.24-.21-.58A4.6,4.6,0,0,1,85,30.22c.51-.37,2.56-1.61,3.52-2.14a12.41,12.41,0,0,1,3.71-1.5,1.83,1.83,0,0,1,.71,0,1.87,1.87,0,0,1,.43,1.16A16.13,16.13,0,0,1,93.37,29.72Z"/>
            <path id="Path_8576" data-name="Path 8576" d="M71.27,32.83a1,1,0,0,1-.65.28,10,10,0,0,1-1.85,0,19.37,19.37,0,0,1-5.64-1.62,7.08,7.08,0,0,1-1.94-1.3l-.26-.28,0-.35a9.17,9.17,0,0,1,0-1.94,2.64,2.64,0,0,1,.29-.83c.07-.09.07-.09.41-.09a4,4,0,0,1,1.32.24,26,26,0,0,1,5,2.48A8.74,8.74,0,0,1,70.8,31.6C71.13,32,71.36,32.64,71.27,32.83Z"/>
            <path id="Path_8577" data-name="Path 8577" d="M84.55,45.88s-.11.48-.25,1-.25,1-.25,1a1.53,1.53,0,0,1-.3,0h-.3l-.42,1L82.57,50l0,.13-.2-.32-.2-.32V46.87l-.07,0c-.16,0-1.3.18-1.79.23A25.39,25.39,0,0,1,74.1,47a6,6,0,0,0-.62-.08s0,.61,0,1.35l0,1.34-.16.24c-.08.13-.16.24-.16.25s-.13-.12-.34-.55a6.46,6.46,0,0,1-.53-1.43l-.06-.27-.29,0-.29,0-.08-.35c0-.19-.08-.48-.1-.64l0-.3-.24-.21-.31-.26a.21.21,0,0,1-.07-.16v-.12h2.35l0,.12,0,.13.4,0,1.58,0,1.17,0,.3-.47.31-.47h.39v-2l-.52-.22c-1.66-.73-2.63-1.57-3-2.58-.08-.21-.08-.28-.09-1.22a4.06,4.06,0,0,1,0-1.22,1.36,1.36,0,0,1,1-1,26.08,26.08,0,0,1,2.79,0h2.61l.29.14a1.6,1.6,0,0,1,1,1.66,7.94,7.94,0,0,1-.14,1.8,4,4,0,0,1-.54,1.08,5,5,0,0,1-2.1,1.47l-.23.08v2l.21,0,.21,0,.28.42.27.42h1.26c.69,0,1.3,0,1.36,0s.11,0,.2-.15l.11-.17H83.5A3.64,3.64,0,0,1,84.55,45.88Z"/>
            <path id="Path_8578" data-name="Path 8578" d="M79.6,48.57a.71.71,0,0,1-.33.14s-.16-.13-.3-.23l-.25-.21-.26.29c-.57.61-.59.64-.76.65s-.32,0-.64-.5c-.17-.24-.3-.45-.3-.45l-.26,0-.27,0-.12.25-.12.25-.22-.06a5,5,0,0,1-.49-.2L75,48.31v-.53h5v.25C80,48.35,80,48.34,79.6,48.57Z"/>
          </g>
          <path id="Path_8579" data-name="Path 8579" class="cls-2" d="M103.05,37.13s0-.1,0-.2a19.88,19.88,0,0,0-14.64,4.53s-1.92-8.82-10.93-8.82-12.34,8.82-12.34,8.82c-5-5.43-11.8-5-14.24-4.68V37a8.19,8.19,0,0,0,.18,2.86c.71,2.68,2.87,5.62,6.27,8.51,5.56,4.73,13.1,8.14,18.81,8.53,6,.41,14.74-3.07,20.6-8.15a30.14,30.14,0,0,0,2.58-2.6,13.34,13.34,0,0,0,1.38-1.84s0,0,0,0,.06,0,0-.06,0,0,0,0,0,0,0,0,0,0,0,0a0,0,0,0,0,0-.06s0,0,0,0,0,0,0,0,0-.05,0-.05a0,0,0,0,0,0,0,.88.88,0,0,1,.12-.21c.14-.22.7-1.22.78-1.39a13.13,13.13,0,0,0,1-3.37A12,12,0,0,0,103.05,37.13ZM79.6,48.57a.71.71,0,0,1-.33.14s-.16-.13-.3-.23l-.25-.21-.26.29c-.57.61-.59.64-.76.65s-.32,0-.64-.5c-.17-.24-.3-.45-.3-.45l-.26,0-.27,0-.12.25-.12.25-.22-.06a5,5,0,0,1-.49-.2L75,48.31v-.53h5v.25C80,48.35,80,48.34,79.6,48.57Zm4.69-1.68c-.14.53-.25,1-.25,1a1.53,1.53,0,0,1-.3,0h-.3l-.41,1L82.57,50l0,.13-.2-.32-.2-.32V46.87l-.07,0c-.16,0-1.3.18-1.79.23A25.39,25.39,0,0,1,74.1,47a6,6,0,0,0-.62-.08s0,.61,0,1.35l0,1.34-.16.24c-.08.13-.16.24-.16.25s-.13-.12-.34-.55a6.46,6.46,0,0,1-.53-1.43l-.06-.27-.29,0-.29,0-.08-.35c0-.19-.08-.48-.1-.64l0-.3-.24-.21-.31-.26a.21.21,0,0,1-.07-.16v-.12h2.35l0,.12,0,.13.4,0,1.58,0,1.17,0,.3-.47.31-.47h.39v-2l-.52-.22c-1.66-.73-2.63-1.57-3-2.58-.08-.21-.08-.28-.09-1.22a4.06,4.06,0,0,1,0-1.22,1.36,1.36,0,0,1,1-1,26.08,26.08,0,0,1,2.79,0h2.61l.29.14a1.6,1.6,0,0,1,1,1.66,7.94,7.94,0,0,1-.14,1.8,4,4,0,0,1-.54,1.08,5,5,0,0,1-2.1,1.47l-.23.08v2l.21,0,.21,0,.28.42.27.42h1.26c.69,0,1.3,0,1.36,0s.11,0,.2-.15l.11-.17H83.5a4.24,4.24,0,0,1,1.08,0A6.12,6.12,0,0,0,84.29,46.89Z"/>
          <path id="Path_8580" data-name="Path 8580" class="cls-4" d="M50.87,36.78a9.06,9.06,0,0,0-.94.17"/>
          <path id="Path_8581" data-name="Path 8581" class="cls-4" d="M103.86,37.05a6.89,6.89,0,0,0-.83-.12"/>
          <path id="Path_8582" data-name="Path 8582" class="cls-5" d="M103,36.18c0-.43,0-1-.08-1.31a27.47,27.47,0,0,0-3.56-11.42,2.91,2.91,0,0,1-.2-.39.59.59,0,0,1,0-.08h0c.29-.87,1.48-4.52,2.43-8.69C102.8,8.62,103.62,2,101.12,0c0,0-4.31-.32-10.09,5.35a38.33,38.33,0,0,0-4.27,5.07l-.41-.13a29.19,29.19,0,0,0-7.16-1.39c-.73-.05-3.46-.05-4.35,0a25.21,25.21,0,0,0-7.1,1.4l-.26.09a39.11,39.11,0,0,0-4.42-5C57.05-.32,52.57,0,52.57,0c-2.64,2.06-1.74,9-.37,14.83.9,3.87,2,7.28,2.42,8.51a2,2,0,0,1-.11.2,34.1,34.1,0,0,0-3.64,13.24c2.44-.36,9.19-.76,14.24,4.68,0,0,3.34-8.82,12.34-8.82s10.93,8.82,10.93,8.82A19.93,19.93,0,0,1,103,36.93C103,36.74,103,36.46,103,36.18ZM56.39,19.8S52.88,11,53.78,6h0a4.71,4.71,0,0,1,.88-2.14s4,.39,10.39,7.52a18.1,18.1,0,0,0-2.85,1.85h0a22.21,22.21,0,0,0-5.79,6.54Zm14.88,13a1,1,0,0,1-.65.28,10,10,0,0,1-1.85,0,19.37,19.37,0,0,1-5.64-1.62,7.08,7.08,0,0,1-1.94-1.3l-.26-.28,0-.35a9.17,9.17,0,0,1,0-1.94,2.64,2.64,0,0,1,.29-.83c.07-.09.07-.09.41-.09a4,4,0,0,1,1.32.24,26,26,0,0,1,5,2.48A8.74,8.74,0,0,1,70.8,31.6C71.13,32,71.36,32.64,71.27,32.83Zm22.1-3.11a3.22,3.22,0,0,1-.91.93,15.63,15.63,0,0,1-6,2.25,7.35,7.35,0,0,1-3.08.09c-.26-.13-.3-.24-.21-.58A4.6,4.6,0,0,1,85,30.22c.51-.37,2.56-1.61,3.52-2.14a12.41,12.41,0,0,1,3.71-1.5,1.83,1.83,0,0,1,.71,0,1.87,1.87,0,0,1,.43,1.16A16.13,16.13,0,0,1,93.37,29.72ZM91.81,13.25h0A17.24,17.24,0,0,0,89,11.39c6.19-7.13,10-7.52,10-7.52A5.08,5.08,0,0,1,99.91,6h0c.88,5-2.51,13.78-2.51,13.78a22.25,22.25,0,0,0-5.59-6.55Z"/>
          <path id="Path_8583" data-name="Path 8583" class="cls-4" d="M86.75,10.43l0,.07"/>
          <path id="Path_8584" data-name="Path 8584" class="cls-4" d="M99.08,23c0,.13-.07.2-.07.2"/>
          <g id="Group_934" data-name="Group 934">
            <g id="Group_933" data-name="Group 933">
              <g id="Group_932" data-name="Group 932">
                <path id="Path_8585" data-name="Path 8585" class="cls-6" d="M99.92,6c-.73-.1-4.19-.12-8.11,7.23h0A17.24,17.24,0,0,0,89,11.39c6.19-7.13,10-7.52,10-7.52A5,5,0,0,1,99.92,6Z"/>
              </g>
              <path id="Path_8586" data-name="Path 8586" class="cls-7" d="M97.41,19.8a22.16,22.16,0,0,0-5.6-6.55C95.73,5.9,99.18,5.92,99.92,6h0C100.8,11,97.41,19.8,97.41,19.8Z"/>
              <path id="Path_8587" data-name="Path 8587" class="cls-7" d="M100.06,6l-.14,0Z"/>
            </g>
          </g>
          <path id="Path_8588" data-name="Path 8588" class="cls-4" d="M67.76,10.8c-.1-.13-.2-.26-.29-.4"/>
          <path id="Path_8589" data-name="Path 8589" class="cls-4" d="M54.62,23.34c.1.32.17.48.17.48"/>
          <g id="Group_937" data-name="Group 937">
            <g id="Group_936" data-name="Group 936">
              <g id="Group_935" data-name="Group 935">
                <path id="Path_8590" data-name="Path 8590" class="cls-6" d="M65.05,11.39a18.1,18.1,0,0,0-2.85,1.85h0C58.12,5.89,54.54,5.92,53.77,6a4.7,4.7,0,0,1,.88-2.15S58.63,4.26,65.05,11.39Z"/>
              </g>
              <path id="Path_8591" data-name="Path 8591" class="cls-7" d="M62.19,13.25a22.14,22.14,0,0,0-5.8,6.55S52.88,11,53.78,6h0C54.54,5.92,58.13,5.9,62.19,13.25Z"/>
              <path id="Path_8592" data-name="Path 8592" class="cls-7" d="M53.78,6l-.15,0Z"/>
            </g>
          </g>
          <path id="Path_8593" data-name="Path 8593" class="cls-2" d="M87.92,24.67s-3,.19-2.63-2.16A3.11,3.11,0,0,1,88.67,20c.66.09,3.28,1,2.81,3s-1.12,1.59-1.5,1.69A15.45,15.45,0,0,1,87.92,24.67Z"/>
          <path id="Path_8594" data-name="Path 8594" class="cls-2" d="M65.79,24.67s-3,.19-2.63-2.16A3.11,3.11,0,0,1,66.54,20c.65.09,3.28,1,2.81,3s-1.12,1.59-1.5,1.69A15.45,15.45,0,0,1,65.79,24.67Z"/>
        </g>
      </g>
      <g id="chainlink-link-logo">
        <g>
          <circle class="cls-8" cx="127.17" cy="31.43" r="29.45"/>
          <g id="Layer_2" data-name="Layer 2">
            <g id="Layer_1-2" data-name="Layer 1-2">
              <path class="cls-2" d="M127.17,9.63l-4,2.3-10.9,6.3-4,2.3v21.8l4,2.3,11,6.3,4,2.3,4-2.3,10.8-6.3,4-2.3V20.53l-4-2.3-10.9-6.3Zm-10.9,28.1V25.13l10.9-6.3,10.9,6.3v12.6L127.17,44Z"/>
            </g>
          </g>
        </g>
      </g>
      <g>
        <circle class="cls-9" cx="172.91" cy="31.43" r="29.45"/>
        <path class="cls-2" d="M171.58,18a12.52,12.52,0,0,0-3.4.45,19.85,19.85,0,0,0-3.55,1.45l-2.1-5.65a15.65,15.65,0,0,1,4.6-1.92,21,21,0,0,1,5.2-.68,14.23,14.23,0,0,1,5.28.85,9.17,9.17,0,0,1,3.27,2.15,7.46,7.46,0,0,1,1.68,2.85,10.34,10.34,0,0,1,.47,2.95,7.63,7.63,0,0,1-.42,2.58,11,11,0,0,1-1.08,2.17,12.77,12.77,0,0,1-1.5,1.9c-.57.6-1.12,1.17-1.65,1.7L177.13,30A12.08,12.08,0,0,0,176,31.46a8.46,8.46,0,0,0-.88,1.58,4.31,4.31,0,0,0-.35,1.67v.6a4.68,4.68,0,0,0,.05.7h-6.6a6.2,6.2,0,0,1-.12-1.12q0-.63,0-1.08a8.57,8.57,0,0,1,.35-2.52,9.45,9.45,0,0,1,.93-2.1,11.8,11.8,0,0,1,1.32-1.83c.5-.56,1-1.11,1.55-1.65.77-.76,1.47-1.52,2.1-2.27a3.9,3.9,0,0,0,.95-2.58,2.71,2.71,0,0,0-.92-2.05A4,4,0,0,0,171.58,18Zm4.65,25.15a4.19,4.19,0,0,1-1.42,3.4,4.93,4.93,0,0,1-6.45,0,4.2,4.2,0,0,1-1.43-3.4,4.21,4.21,0,0,1,1.43-3.4,4.93,4.93,0,0,1,6.45,0A4.2,4.2,0,0,1,176.23,43.11Z"/>
      </g>
      <g id="Слой_4" data-name="Слой 4">
        <path class="cls-10" d="M315.26,58.41A29.44,29.44,0,1,1,351,37h0a29.43,29.43,0,0,1-35.69,21.44"/>
        <path class="cls-2" d="M335.37,25.65c.59-3.92-2.39-6-6.47-7.43l1.32-5.31L327,12.1l-1.29,5.17-2.59-.61,1.3-5.2-3.23-.8L319.86,16l-2.07-.48v0l-4.46-1.11-.86,3.45s2.4.55,2.35.58a1.72,1.72,0,0,1,1.5,1.88l-1.5,6a2.53,2.53,0,0,1,.33.11l-.34-.09-2.11,8.48a1.18,1.18,0,0,1-1.48.76s-2.35-.58-2.35-.58l-1.61,3.7,4.21,1.05c.78.19,1.55.4,2.3.59l-1.34,5.37,3.23.8L317,41.19c.88.24,1.73.46,2.57.67l-1.32,5.29,3.23.8,1.34-5.36c5.51,1,9.65.63,11.4-4.36,1.4-4-.07-6.33-3-7.84,2.11-.48,3.7-1.87,4.13-4.74ZM328,36c-1,4-7.75,1.85-9.94,1.3l1.77-7.11C322,30.74,329,31.82,328,36Zm1-10.41c-.91,3.65-6.53,1.8-8.36,1.34l1.61-6.45c1.83.46,7.7,1.3,6.75,5.11Z"/>
      </g>
      <g id="Слой_6" data-name="Слой 6">
        <path class="cls-11" d="M275.5,23.25l-14-14a2,2,0,0,0-3.41,1.41v6h-14a2,2,0,1,0,0,4h16a2,2,0,0,0,2-2V15.51l9.16,9.16-9.16,9.16V30.66a2,2,0,0,0-2-2h-22v-6a2,2,0,0,0-2-2,2,2,0,0,0-1.41.59l-14,14a2,2,0,0,0,0,2.83l14,14a2,2,0,0,0,1.41.59,2.07,2.07,0,0,0,.77-.15,2,2,0,0,0,1.23-1.85v-6h14a2,2,0,0,0,0-4h-16a2,2,0,0,0-2,2v3.17L225,36.65l9.16-9.16v3.17a2,2,0,0,0,2,2h22v6a2,2,0,0,0,3.41,1.41l14-14A2,2,0,0,0,275.5,23.25Z"/>
      </g>
    </g>
  </g>
</svg>
