<svg width="81" height="80" fill="none" xmlns="http://www.w3.org/2000/svg"><path d="M56.964 21.244 70.57 36.133l7.534-17.353-3.834.44C66.917 7.27 56.484 2.99 49.616 1.186c-12.3-3.226-23.389.972-26.597 2.58 8.612-1.562 16.809-.128 23.993 3.585 6.117 3.161 10.936 7.435 14.883 13.301l-4.93.591h-.001Z" fill="url(#a)"/><path d="M21.245 23.065 36.133 9.46 18.78 1.925l.44 3.834C7.27 13.112 2.99 23.547 1.186 30.413c-3.226 12.3.971 23.389 2.581 26.598-1.562-8.612-.128-16.809 3.584-23.993 3.161-6.117 7.436-10.936 13.302-14.881l.59 4.928Z" fill="url(#b)"/><path d="M22.995 58.755 9.389 43.867 1.854 61.22l3.834-.44c7.354 11.95 17.788 16.23 24.655 18.033 12.3 3.226 23.388-.971 26.597-2.581-8.612 1.563-16.808.128-23.992-3.584-6.118-3.161-10.936-7.435-14.882-13.301l4.929-.592Z" fill="url(#c)"/><path d="M58.942 56.975 44.054 70.588l17.353 7.534-.439-3.834C72.916 66.932 77.197 56.501 79 49.633c3.226-12.301-.97-23.39-2.58-26.598 1.563 8.611.128 16.808-3.584 23.992-3.162 6.118-7.435 10.937-13.302 14.882l-.591-4.935v.001Z" fill="url(#d)"/><path d="m17.314 40.655.01.012c.347.351 6.02 6.02 6.02 6.02h16.375v16.375l.011.01 8.579-8.588-.013-7.793h7.798v-7.107h-7.803l.01-21.328-4.29-4.273-26.697 26.672Zm22.4-1.07h-9.655l9.654-9.655v9.654Zm7.124-20.525v.021l-.021-.021h.021Z" fill="#26252F"/><defs><linearGradient id="a" x1="65.067" y1="19.632" x2="36.458" y2="-1.41" gradientUnits="userSpaceOnUse"><stop stop-color="#DA001F"/><stop offset="1" stop-color="#DA001F" stop-opacity="0"/></linearGradient><linearGradient id="b" x1="19.633" y1="14.96" x2="-1.41" y2="43.569" gradientUnits="userSpaceOnUse"><stop stop-color="#DA001F"/><stop offset="1" stop-color="#DA001F" stop-opacity="0"/></linearGradient><linearGradient id="c" x1="14.89" y1="60.368" x2="43.499" y2="81.411" gradientUnits="userSpaceOnUse"><stop stop-color="#DA001F"/><stop offset="1" stop-color="#DA001F" stop-opacity="0"/></linearGradient><linearGradient id="d" x1="60.553" y1="65.083" x2="81.597" y2="36.472" gradientUnits="userSpaceOnUse"><stop stop-color="#DA001F"/><stop offset="1" stop-color="#DA001F" stop-opacity="0"/></linearGradient></defs></svg>