<svg width="80" height="80" fill="none" xmlns="http://www.w3.org/2000/svg"><mask id="a" style="mask-type:alpha" maskUnits="userSpaceOnUse" x="0" y="7" width="80" height="66"><path d="M0 7h80v65.385H0V7Z" fill="#fff"/></mask><g mask="url(#a)"><path fill-rule="evenodd" clip-rule="evenodd" d="M0 10.927v16.428a3.914 3.914 0 0 0 1.943 3.237c1.578.99 2.582.705 4.57.705h10.433a8331.05 8331.05 0 0 0-8.975 25.516c-.606 1.68-3.942 10.688-3.942 11.872 0 2.354 2.892 3.7 4.345 3.7H29.14c1.689 0 3.327-2.233 3.41-3.205a7.824 7.824 0 0 0 4.478-1.101c1.725-.875 2.236-1.614 3.27-2.313 1.278.856 1.195 1.388 3.97 2.54a13.535 13.535 0 0 0 11.496-.403c.523-.263 1.115-.786 1.583-.898.208.926 1.651 2.17 2.775 2.17H71.9c2.077 0 4.396-1.346 5.764-2.812 2.47-2.656 2.906-8.013 1.661-11.326-.407-1.092-.925-1.697-.925-2.164.14-2.531.092-5.024.092-7.564 0-1.388-1.526-2.494-2.48-2.998.575-1.078.889-1.032 1.69-3.067 2.438-6.209-.602-14.495-6.912-17.117a15.126 15.126 0 0 0-9.964-.68l-1.916.768c-.3.18-.245.232-.666.263-.135-.504-.833-.97-1.235-1.24-.74-.494-.898-.415-2.072-.412h-5.025c.051-.6 2.383-6.8 2.646-7.582.463-1.318.925-2.604.31-4.052C52.392 8.122 50.94 7 49.912 7H4.236C1.8 7 0 8.517 0 10.927Z" fill="#1F1F1E"/></g><path fill-rule="evenodd" clip-rule="evenodd" d="m3.835 10.659.106 16.427h18.39L7.97 68.418h20.665l20.457-57.76H3.835Z" fill="#E50A7E"/><path fill-rule="evenodd" clip-rule="evenodd" d="M28.479 24v30.72c-1.148 0-2.253.208-3.035.925a3.011 3.011 0 0 0-1.115 2.313v8.327c0 1.67 1.915 2.905 3.733 2.905h4.88c1.851 0 4.04-1.262 5.396-2.28.245-.186.462-.334.703-.546.234-.218.485-.418.75-.597.328.217.96.847 1.808 1.388.684.454 1.415.835 2.178 1.138a13.69 13.69 0 0 0 4.747 1.059h1.138a14.02 14.02 0 0 0 5.653-1.485c.528-.264 1.12-.79 1.593-.902.212.925 1.655 2.18 2.803 2.18H71.54c2.086 0 4.412-1.352 5.787-2.828 1.189-1.276 2.313-3.859 2.313-6.306v-.513c0-1.628-.041-2.965-.638-4.557-.412-1.096-.926-1.701-.926-2.174.05-.316.085-.633.098-.953V45.17c0-1.388-1.542-2.503-2.494-3.007.278-.523.652-.925.925-1.453 1.947-3.77 2.16-8.558.277-12.32a14.419 14.419 0 0 0-2.636-3.899 13.518 13.518 0 0 0-9.16-3.813c-2.128 0-2.554-.069-4.673.52-1.225.341-2.197 1.003-2.59 1.04-.163-.611-1.527-1.66-2.387-1.66H46.95c-.422.03-.832.149-1.203.35-.356.227-1.184 1.389-1.507 1.814-.325.426-.49.754-.806.842l-1.276-1.85c-.417-.49-1.199-1.17-2.045-1.17h-8.105c-.9.021-1.758.39-2.392 1.03-.416.413-1.138 1.587-1.138 2.393V24Z" fill="#1F1B20"/><mask id="b" style="mask-type:alpha" maskUnits="userSpaceOnUse" x="28" y="45" width="32" height="21"><path d="M45.79 46.508a9.705 9.705 0 0 0-2.933 1.822c-.82.746-1.52 1.616-2.072 2.577a8.582 8.582 0 0 0-1.098 3.595v.045l-.004.01.004-.055-.114-8.643h-6.94v9.92c0 3.237-1.56 2.687-4.339 2.687v7.13c3.441 0 4.349.369 7.064-1.001a5.576 5.576 0 0 0 1.175-.786l1.036-1.027c1.277-1.457 1.984-3.377 1.984-6.074h.108c0 2.226 1.184 3.947 2.419 5.551.163.215.347.412.551.588 4.625 4.053 11.273 3.377 14.655-1.31.353-.46.663-.953.925-1.47 2.207-4.418.87-8.943-2.54-11.997-1.658-1.493-3.95-2.26-6.236-2.26a9.642 9.642 0 0 0-3.645.698Zm1.106 10.326a2.776 2.776 0 0 1 3.576-3.702 2.777 2.777 0 0 1 1.706 2.527v.023c0 1.785-1.416 2.765-2.815 2.765-1.014 0-2.021-.516-2.467-1.613Z" fill="#fff"/></mask><g mask="url(#b)"><path fill-rule="evenodd" clip-rule="evenodd" d="M45.79 46.508a9.705 9.705 0 0 0-2.933 1.822c-.82.746-1.52 1.616-2.072 2.577a8.582 8.582 0 0 0-1.098 3.595v.045l-.004.01.004-.055-.114-8.643h-6.94v9.92c0 3.237-1.56 2.687-4.339 2.687v7.13c3.441 0 4.349.369 7.064-1.001a5.576 5.576 0 0 0 1.175-.786l1.036-1.027c1.277-1.457 1.984-3.377 1.984-6.074h.108c0 2.226 1.184 3.947 2.419 5.551.163.215.347.412.551.588 4.625 4.053 11.273 3.377 14.655-1.31.353-.46.663-.953.925-1.47 2.207-4.418.87-8.943-2.54-11.997-1.658-1.493-3.95-2.26-6.236-2.26a9.642 9.642 0 0 0-3.645.698Zm1.106 10.326a2.776 2.776 0 0 1 3.576-3.702 2.777 2.777 0 0 1 1.706 2.527v.023c0 1.785-1.416 2.765-2.815 2.765-1.014 0-2.021-.516-2.467-1.613Z" fill="url(#c)"/></g><mask id="d" style="mask-type:alpha" maskUnits="userSpaceOnUse" x="32" y="24" width="23" height="21"><path d="M47.84 24.58c-.07.267-3.729 5.254-4.03 5.477-.166-.125-4.047-5.159-4.13-5.478h-7.028v19.74h6.938v-9.715l3.7 4.756c.589.796.435.782 1.079-.061l3.47-4.487v9.507h6.939V24.58h-6.94.001Z" fill="#fff"/></mask><g mask="url(#d)"><path fill-rule="evenodd" clip-rule="evenodd" d="M47.84 24.58c-.07.267-3.729 5.254-4.03 5.477-.166-.125-4.047-5.159-4.13-5.478h-7.028v19.74h6.938v-9.715l3.7 4.756c.589.796.435.782 1.079-.061l3.47-4.487v9.507h6.939V24.58h-6.94.001Z" fill="url(#e)"/></g><mask id="f" style="mask-type:alpha" maskUnits="userSpaceOnUse" x="54" y="24" width="21" height="21"><path d="M60.761 25.393c-3.322 1.652-5.792 4.737-5.792 8.698 0 4.191 2.062 7.401 5.68 9.197a9.818 9.818 0 0 0 10.983-1.85 9.591 9.591 0 0 0 1.97-2.68c2.518-5.042.223-11.39-4.977-13.48a9.714 9.714 0 0 0-7.864.116Zm1.531 10.16a2.775 2.775 0 0 1 3.576-3.702 2.777 2.777 0 0 1 1.707 2.55c0 1.783-1.417 2.761-2.816 2.761-1.015 0-2.02-.514-2.467-1.61" fill="#fff"/></mask><g mask="url(#f)"><path fill-rule="evenodd" clip-rule="evenodd" d="M60.761 25.393c-3.322 1.652-5.792 4.737-5.792 8.698 0 4.191 2.062 7.401 5.68 9.197a9.818 9.818 0 0 0 10.983-1.85 9.591 9.591 0 0 0 1.97-2.68c2.518-5.042.223-11.39-4.977-13.48a9.714 9.714 0 0 0-7.864.116Zm1.531 10.16a2.775 2.775 0 0 1 3.576-3.702 2.777 2.777 0 0 1 1.707 2.55c0 1.783-1.417 2.761-2.816 2.761-1.015 0-2.02-.514-2.467-1.61" fill="url(#g)"/></g><mask id="h" style="mask-type:alpha" maskUnits="userSpaceOnUse" x="58" y="45" width="18" height="21"><path d="M63.665 45.86c-2.581 0-4.755 2.529-4.755 5.06l.005.027c0 1.814-.033 3.113.693 4.783 1.25 2.879 3.164 2.777 5.506 2.777 1.082 0 3.41-.347 3.41.721 0 .518-.603.722-1.135.722h-7.027v5.579h10.64c5.006 0 5.747-6.856 3.896-10.298-1.351-2.511-3.276-2.313-5.552-2.313-1.054 0-3.201.329-3.201-.722 0-.518.602-.721 1.133-.721h7.028v-5.616h-10.64v.001Z" fill="#fff"/></mask><g mask="url(#h)"><path fill-rule="evenodd" clip-rule="evenodd" d="M63.665 45.86c-2.581 0-4.755 2.529-4.755 5.06l.005.027c0 1.814-.033 3.113.693 4.783 1.25 2.879 3.164 2.777 5.506 2.777 1.082 0 3.41-.347 3.41.721 0 .518-.603.722-1.135.722h-7.027v5.579h10.64c5.006 0 5.747-6.856 3.896-10.298-1.351-2.511-3.276-2.313-5.552-2.313-1.054 0-3.201.329-3.201-.722 0-.518.602-.721 1.133-.721h7.028v-5.616h-10.64v.001Z" fill="url(#i)"/></g><defs><linearGradient id="c" x1="29.362" y1="55.725" x2="60.285" y2="55.725" gradientUnits="userSpaceOnUse"><stop stop-color="#FDE610"/><stop offset="1" stop-color="#E6422D"/></linearGradient><linearGradient id="e" x1="33.695" y1="34.449" x2="55.767" y2="34.449" gradientUnits="userSpaceOnUse"><stop stop-color="#FDE610"/><stop offset="1" stop-color="#E6422D"/></linearGradient><linearGradient id="g" x1="55.978" y1="34.355" x2="75.604" y2="34.355" gradientUnits="userSpaceOnUse"><stop stop-color="#FDE610"/><stop offset="1" stop-color="#E6422D"/></linearGradient><linearGradient id="i" x1="59.918" y1="55.694" x2="76.794" y2="55.694" gradientUnits="userSpaceOnUse"><stop stop-color="#FDE610"/><stop offset="1" stop-color="#E6422D"/></linearGradient></defs></svg>