<svg width="70" height="80" viewBox="0 0 70 80" fill="none" xmlns="http://www.w3.org/2000/svg">
<path fill-rule="evenodd" clip-rule="evenodd" d="M30.6311 58.1206L32.4264 59.3548L37.3633 62.4965L32.202 61.3745C30.9677 67.9944 26.1431 73.4923 19.6353 75.5119V80H53.6325V75.1753C48.8079 73.8289 44.8808 71.136 42.6367 66.4236L41.2903 63.6185L44.3198 64.2917C58.345 67.5456 71.8093 64.9649 68.7798 47.6858C66.648 36.69 56.7742 26.1431 49.7055 17.9523C44.8808 12.3422 39.8317 6.50771 36.129 0C28.9481 10.547 19.972 19.5231 12.5666 29.7335C17.7279 32.202 30.8555 41.4025 35.568 44.6564C34.446 43.1978 26.2553 34.6704 27.3773 33.4362C30.5189 29.8457 32.0898 27.3773 34.8948 23.4502L36.0168 21.8794L37.251 23.338C40.8415 27.4895 52.3983 40.5049 52.3983 45.554C52.3983 45.8906 52.3983 46.3394 52.2861 46.676C51.8373 49.5933 49.7055 51.6129 47.0126 52.3983C43.0856 53.5203 38.5975 51.9495 35.1192 50.1543H35.007C26.2553 44.8808 16.9425 39.0463 7.85414 34.5582L5.7223 33.5484C3.81487 32.9874 1.90743 32.8752 0 33.324C2.13184 34.6704 4.26367 36.2412 6.17111 37.6999L7.06872 38.4853L6.50771 39.4951C3.47826 45.6662 0.336606 56.101 6.17111 61.7111C9.08836 64.5161 13.352 64.9649 17.1669 64.5161C19.5231 64.0673 22.1038 63.5063 24.46 62.4965C18.5133 62.9453 12.23 61.8233 13.2398 54.6424C13.6886 52.6227 14.4741 50.6031 15.4839 48.6956L16.3815 47.1248L17.7279 48.359C21.8794 51.8373 26.1431 55.0912 30.6311 58.1206Z" fill="#ED1F24"/>
</svg>
