<svg width="80" height="80" viewBox="0 0 80 80" fill="none" xmlns="http://www.w3.org/2000/svg">
<path d="M38.2878 0.00580137C40.3156 0.0190425 42.436 -0.0736453 44.426 0.183611C47.7571 0.550578 51.0787 1.311 54.2017 2.52918C64.7378 6.44855 73.3559 15.025 77.3699 25.5195C78.9115 29.4692 79.7987 33.6931 79.9859 37.9264C79.9689 39.8578 80.0843 41.8307 79.8535 43.7469C79.0458 53.551 74.3017 62.9067 67.0418 69.5197C62.5587 73.6264 57.1601 76.6737 51.3284 78.3875C48.7066 79.1593 45.9771 79.7003 43.2437 79.8308C35.4939 80.5439 27.4736 78.8036 20.6695 75.028C15.2709 72.0488 10.5798 67.7776 7.06903 62.7119C2.32115 55.8814 -0.175749 47.5622 0.00962655 39.2506C0.0890732 37.7543 0.0550246 36.19 0.331196 34.7145C0.781394 31.4383 1.59288 28.2283 2.80539 25.1507C5.20582 19.1903 9.04385 13.7766 13.9336 9.59993C17.7376 6.32181 22.1544 3.77573 26.8966 2.13005C30.5531 0.902414 34.4195 0.0701153 38.2878 0.00580137Z" fill="white"/>
<path d="M36.2013 1.47926C39.0198 1.28443 41.9064 1.23903 44.7135 1.59843C50.4053 2.27184 55.9041 4.26557 60.7409 7.33751C60.966 7.49072 61.2573 7.62124 61.4105 7.84823C60.442 8.95481 59.3449 9.98951 58.3235 11.0507C57.8638 11.5974 57.355 12.093 56.848 12.5942C56.6267 12.8401 56.3619 12.7928 56.063 12.8326C54.5365 12.965 53.0024 13.1957 51.561 13.7349C48.1524 14.8982 45.2053 17.1 42.5987 19.5401C39.139 22.8674 36.1049 26.7717 33.2713 30.64C30.6155 34.268 28.0959 37.9434 25.4987 41.6017C25.3096 41.8627 25.6236 42.1068 25.7655 42.3054C26.4975 43.0904 27.2012 44.0173 28.0335 44.6869C29.5373 42.7613 31.2757 40.3797 32.8419 38.3387C32.9459 38.1742 33.1691 37.9755 33.1426 37.7694C32.8324 37.357 32.4314 37.0392 32.1061 36.6439C32.6054 36.7309 32.874 37.4459 33.3583 37.5424C33.9068 37.0335 34.3816 36.2428 34.8697 35.6489C35.4088 34.983 35.9006 34.0354 36.714 33.7006C38.4448 32.7642 40.8565 34.4761 40.6447 36.4131C40.6277 37.724 39.6762 38.2347 38.9385 39.1483C37.1982 41.0588 35.422 42.9447 33.6874 44.8609C32.9194 45.6856 32.1117 46.499 31.4081 47.3786C31.4686 47.5148 31.5688 47.6321 31.705 47.7267C32.4976 48.2696 33.311 48.7746 34.1395 49.2589C34.3589 49.3629 34.5613 49.5634 34.8016 49.3856C35.4069 48.7935 36.0273 48.209 36.5721 47.5602C41.3635 42.7045 46.3592 37.8015 50.6228 32.4767C53.0251 29.4312 55.2761 26.0756 56.6267 22.4191C57.4779 19.9241 57.9281 17.3345 57.6879 14.6939C57.6519 14.2021 57.442 13.7557 57.7503 13.3187C59.0215 11.6617 60.0978 9.89115 61.3689 8.23223C61.4729 8.10738 61.594 8.02793 61.7321 7.99389C68.0481 12.2613 73.0154 18.4317 75.8736 25.4967C78.9663 33.0933 79.5073 41.7228 77.4493 49.6561C76.2311 54.3605 74.1258 58.8284 71.2449 62.7478C66.6862 69.0013 60.2358 73.8287 52.94 76.4126C50.7041 77.2052 48.3775 77.7632 46.0414 78.1623C37.8886 79.4467 29.3614 78.062 22.0674 74.1956C15.2842 70.647 9.62077 65.0441 5.99649 58.3006C2.90752 52.6145 1.30724 46.098 1.36966 39.6288C1.4056 30.7799 4.63643 22.0295 10.3244 15.2519C13.8314 11.0356 18.2124 7.60611 23.1305 5.18299C27.2428 3.19682 31.6615 1.95027 36.2013 1.47926Z" fill="black"/>
<path d="M39.8597 1.67993C40.2115 2.05068 40.0829 2.84704 40.4101 3.26697C40.7847 3.82877 41.4146 4.07657 42.0728 4.07657C42.8749 4.17683 43.6826 4.21466 44.4827 4.3187C49.6184 4.91265 54.616 6.73047 59.0044 9.45246C59.1293 9.51867 59.2182 9.60757 59.2655 9.72107C58.9969 9.93103 59.0007 9.98778 58.681 9.77781C54.1279 6.93098 48.9223 5.1945 43.5842 4.64783C42.6668 4.64405 41.5224 4.2279 40.7355 4.81807C40.1132 5.30421 40.2721 6.15732 39.8578 6.66426C39.8313 5.69388 39.4643 4.5211 38.2897 4.54569C28.7126 4.87861 19.3908 9.51489 13.1656 16.7767C13.054 16.8769 12.9897 16.9923 12.9727 17.121C13.1883 17.1815 13.4115 17.2023 13.6442 17.1815C13.3113 17.4142 12.9594 17.4804 12.6662 17.7849C12.4052 18.1273 12.4809 18.5605 12.4903 18.9615C12.2009 18.8272 12.2217 18.1443 11.8831 18.3429C8.30235 22.9792 5.88679 28.5386 4.98261 34.3268C4.85777 35.1629 5.26446 35.6755 6.01731 35.9612C6.23673 36.0917 6.78908 36.1276 6.86285 36.383C5.97002 36.3754 5.03368 36.4435 4.64213 37.3817C4.33191 41.3579 4.69698 45.4134 5.7714 49.259C6.26132 51.3095 7.09551 53.2843 7.95997 55.2024C8.06779 55.5145 8.44043 55.9269 8.36477 56.2484C8.06968 56.4016 7.92592 56.1406 7.81243 55.9136C6.31807 52.8549 5.1888 49.6014 4.64969 46.2344C4.4 45.09 4.33569 43.9096 4.17112 42.752C4.04438 41.0647 4.11059 39.4095 4.06708 37.7317C4.07843 36.9921 3.70012 36.4 3.0059 36.1371C2.73162 35.9706 2.20576 35.9517 2.02606 35.7001C2.83188 35.632 3.615 35.7342 4.13518 34.987C4.71022 34.0734 4.73671 32.7644 5.05071 31.7354C6.1781 26.9345 8.27019 22.3852 11.2475 18.4489C11.3875 18.2654 11.5275 18.1065 11.5899 17.8814C11.3024 17.7792 11.0224 17.7906 10.7236 17.8076C10.9241 17.5201 11.3119 17.5068 11.5634 17.2553C11.9134 16.9469 11.8169 16.4457 11.8453 16.0295C12.0969 16.2433 12.1498 16.65 12.3901 16.9091L12.5111 16.8448C15.6095 13.194 19.3814 10.1391 23.6601 7.97513C27.8614 5.79035 32.5411 4.5211 37.2531 4.14656C37.8035 4.05009 38.3653 4.1163 38.8344 3.86093C39.6289 3.5318 39.8332 2.43846 39.8597 1.67993Z" fill="white"/>
<path d="M39.9902 9.2784C42.7482 9.26894 45.4361 9.70401 48.1146 10.3301C49.991 10.8636 51.8013 11.5237 53.5359 12.4222L53.5643 12.549C52.8341 12.7192 52.0888 13.1183 51.3473 13.1599C49.783 12.5773 48.2413 11.9739 46.59 11.675C43.7318 11.03 40.8339 10.7387 37.9038 10.9525C34.1225 11.2816 30.4093 12.2558 27.0177 13.9809C19.7124 17.5957 14.1285 24.3865 11.9947 32.2517C11.5937 33.4907 11.45 34.8697 11.1681 36.1276C10.9336 38.4864 10.8882 40.8584 11.1208 43.221C11.6259 47.4128 12.9973 51.527 15.2294 55.1172C15.4999 55.0018 15.6966 54.7124 15.9103 54.5157C19.3398 51.1733 22.9773 48.054 26.7964 45.1637C26.9969 45.0105 27.1653 44.8251 27.4225 45.0067C27.6363 45.1959 28.0619 45.3983 27.7138 45.7009C24.0252 49.3006 20.7055 53.2729 17.7527 57.4931C17.6298 57.686 17.4009 57.8979 17.3669 58.1267C17.4785 58.2819 17.6184 58.5542 17.836 58.5429C20.2931 54.5195 23.2137 50.7136 26.5997 47.426C29.4938 43.9928 32.5676 40.6352 35.5809 37.2985C35.9876 36.888 36.3073 36.3432 36.9618 36.3886C37.7033 36.4321 38.1119 37.1888 37.83 37.8527C37.5028 38.424 36.9788 38.9063 36.5381 39.3925C35.3521 40.6106 34.2303 41.8686 33.0122 43.0527C31.6994 44.4997 30.1597 45.7841 28.9604 47.3201C28.0959 48.3037 27.4074 49.4519 26.7094 50.5566C24.7648 53.7647 23.1778 57.1791 21.9312 60.7163C21.8026 61.2289 21.5038 61.7548 21.4924 62.2826C21.5605 62.4358 21.6626 62.5001 21.7969 62.4755C23.4407 56.9918 26.0076 51.8164 29.42 47.218C29.6697 46.6789 30.2902 47.2615 30.4112 47.5774C30.1218 48.3359 29.7113 49.0679 29.3746 49.8132C27.7498 53.5888 26.9912 57.7068 26.4597 61.7643C26.3897 62.7706 26.35 63.7788 26.2914 64.787C26.297 65.0481 26.2195 65.468 26.4313 65.6609C33.6591 69.5387 42.5004 70.1005 50.1689 67.2101C57.5914 64.4768 63.7391 58.5977 66.7883 51.2981C67.7928 48.9261 68.4983 46.4481 68.835 43.8944C69.1793 41.8723 69.1169 39.7727 69.0393 37.7298C68.818 35.2007 68.277 32.7189 67.458 30.3185C65.7385 25.4742 62.7328 21.1084 58.8021 17.7943C58.6016 17.6033 58.1967 17.3952 58.1589 17.1077C58.1343 16.4929 58.1419 15.8725 58.1722 15.2577C58.4899 15.3807 58.7642 15.6455 59.0347 15.8517C63.1016 19.0825 66.3552 23.2988 68.3584 28.0978C71.593 35.7701 71.5116 44.8232 68.1068 52.4217C65.5891 58.1154 61.3027 62.9862 55.9817 66.2133C51.9999 68.6686 47.4771 70.0929 42.8352 70.5753C40.832 70.6963 38.8156 70.685 36.8124 70.5507C35.1307 70.2613 33.4529 70.0645 31.8167 69.5576C23.1702 67.2328 15.7987 60.9074 12.1007 52.7641C10.8428 50.044 9.98588 47.0931 9.60567 44.1195C9.2614 42.4209 9.36733 40.5993 9.34652 38.8723C9.53379 32.142 12.0666 25.5366 16.3832 20.3707C20.0737 15.8914 25.0637 12.5168 30.5853 10.7368C33.6137 9.77778 36.8105 9.26327 39.9902 9.2784Z" fill="white"/>
<path d="M60.5007 10.4341C61.9648 11.4594 63.3797 12.5754 64.6584 13.8239C65.6893 14.6751 66.5122 15.759 67.4504 16.7085L67.6225 16.7312C67.6849 16.5118 67.6982 16.2791 67.6641 16.0351C67.9327 16.3851 67.9914 16.8201 68.4038 17.0831C68.7253 17.2457 69.0961 17.2022 69.4441 17.189C69.2436 17.537 68.3829 17.5522 68.521 18.0497C72.1132 22.7654 74.5703 28.3323 75.4934 34.1944C75.5861 34.7278 75.7923 35.212 76.2595 35.5166C76.7456 35.8419 77.3812 35.8098 77.9563 35.8817L77.909 35.9819C76.9953 36.19 76.0931 36.4851 75.9417 37.55C75.8963 39.3811 75.989 41.2122 75.8528 43.0413C75.3894 47.6341 74.2053 52.1058 72.0772 56.2162C71.9505 56.2938 71.7954 56.3108 71.6138 56.2673C71.9732 55.2988 72.5369 54.3946 72.8811 53.411C74.3377 49.9267 75.1321 46.2267 75.4669 42.4738C75.5294 41.1459 75.5313 39.8181 75.5123 38.4883C75.4953 37.9662 75.4405 37.4876 75.0621 37.0904C74.5741 36.5229 73.6453 36.5116 72.9568 36.5456C73.4316 36.1862 74.2866 36.1503 74.7387 35.5941C75.1378 35.1004 75.0811 34.5386 75.0111 33.9485C74.0672 28.4761 71.8597 23.2591 68.5172 18.8214C68.4208 18.8725 68.3149 18.9047 68.2014 18.9198C67.9706 18.5301 67.9195 18.1726 67.5507 17.9324C67.2121 17.8151 66.8791 17.8246 66.5273 17.8151C66.794 17.5995 67.0778 17.6033 67.2764 17.2987C66.6484 16.3756 65.7953 15.5868 65.014 14.7942C63.5878 13.315 61.9459 12.0079 60.2794 10.8125C60.111 10.6346 60.181 10.1731 60.5007 10.4341Z" fill="white"/>
<path d="M59.256 10.699C58.804 11.8434 57.6709 12.7627 57.1885 13.9033C57.2245 14.8964 57.389 15.933 57.2812 16.9223C57.2302 18.9406 56.691 21.0043 55.9666 22.8808C54.5573 26.3991 52.4823 29.42 50.1462 32.3766C45.9355 37.5973 41.076 42.3963 36.3622 47.1631C35.8155 47.7362 35.2669 48.3264 34.6711 48.8466L34.5576 48.8296C34.1187 48.3907 33.5115 48.0711 33.1559 47.5717C34.8054 45.7747 36.6383 44.076 38.2689 42.2582C41.8061 38.6264 45.2469 34.7883 48.3851 30.8084C50.7099 30.1199 52.4898 27.8973 52.3934 25.4382C52.3517 24.9067 52.662 24.6021 52.9022 24.1709C54.3133 21.744 55.5429 19.1619 56.3733 16.4778C56.6627 15.4885 57.024 14.5711 56.954 13.5174C57.1772 12.7778 57.9868 12.1725 58.4445 11.5502C58.7188 11.3194 58.8853 10.7444 59.256 10.699Z" fill="black"/>
<path d="M56.1803 13.1958L56.1765 13.2771C52.6885 13.873 49.6184 15.39 46.7564 17.45C44.0817 19.3889 41.8156 21.6739 39.593 24.1008C35.7758 28.4155 32.475 32.9553 29.0266 37.5557C28.7693 37.9188 28.4969 38.4088 28.0978 38.6263C28.1357 38.5015 28.1905 38.3955 28.2643 38.3085C32.753 32.1041 37.272 25.2471 42.7879 19.9166C45.3926 17.4651 48.1865 15.3617 51.5894 14.1473C53.0914 13.6536 54.599 13.3017 56.1803 13.1958Z" fill="black"/>
<path d="M56.4735 14.6903L56.6324 14.679C56.6305 14.9268 56.534 15.184 56.4641 15.4205C55.5599 18.2749 54.2282 21.012 52.6998 23.5827C52.5863 23.751 52.4936 24.0196 52.2988 24.1028C52.0945 23.6337 51.8372 23.1079 51.7181 22.6198C52.0812 21.9067 52.7111 21.2957 53.0176 20.5561C52.2212 19.8335 51.37 19.1828 50.6436 18.3865C50.3486 18.0403 49.7508 17.8322 49.6808 17.3669C50.8763 18.2805 52.0623 19.4098 53.3902 20.1154C54.5025 18.3449 55.5883 16.5895 56.4735 14.6903Z" fill="black"/>
<path d="M36.8407 15.8271C37.1339 15.672 37.3439 16.1695 36.9769 16.1657C36.8124 16.073 36.767 15.9595 36.8407 15.8271Z" fill="white"/>
<path d="M32.9649 16.0425C32.9308 16.3773 32.8211 16.6497 32.5525 16.8653C32.3274 16.9088 32.2404 16.8218 32.2915 16.6062C32.4579 16.4057 32.6925 16.0784 32.9649 16.0425Z" fill="white"/>
<path d="M36.3962 16.1845L36.5797 16.1089L36.7613 16.1864C36.975 16.6499 36.1844 16.6404 36.3962 16.1845Z" fill="white"/>
<path d="M37.7525 16.58C38.0948 16.4986 38.0362 17.1834 37.7203 17.1437C37.4536 17.0472 37.5898 16.7086 37.7525 16.58Z" fill="white"/>
<path d="M33.5948 17.6939C33.6458 17.9606 33.5777 18.0722 33.3923 18.0306C33.2467 17.8698 33.3999 17.3061 33.5948 17.6939Z" fill="white"/>
<path d="M33.9882 17.5447C34.253 17.3158 34.6219 17.6847 34.3855 17.942C34.1358 18.2068 33.8464 17.785 33.9882 17.5447Z" fill="white"/>
<path d="M26.6091 18.6587C26.8077 18.5736 26.8966 18.6171 26.8721 18.7892C26.6697 18.8838 26.5808 18.8403 26.6091 18.6587Z" fill="white"/>
<path d="M27.5757 19.0806C27.6268 19.1316 27.6268 19.1316 27.5757 19.0806Z" fill="white"/>
<path d="M49.346 20.8095C50.7496 21.5472 51.7729 22.9526 52.0567 24.5113C52.225 25.5763 52.1304 26.6677 51.6556 27.6457C50.9406 29.2232 49.4368 30.362 47.7419 30.6836C46.4822 30.867 45.1051 30.6098 44.0344 29.9099C42.472 28.9319 41.5016 27.099 41.6075 25.2528C41.634 22.9243 43.4121 20.853 45.648 20.3139C46.8775 20.0055 48.2357 20.2061 49.346 20.8095Z" fill="black"/>
<path d="M48.6026 20.9947C50.044 21.5509 51.1449 22.8107 51.5119 24.3107C51.6386 25.2697 51.5686 26.2439 51.1184 27.114C50.846 27.7704 50.3145 28.3398 49.7962 28.8146C48.6404 29.7793 47.1518 29.9968 45.7009 29.7395C44.2349 29.3972 42.9108 28.2584 42.3641 26.8568C41.7891 25.5913 42.1353 23.9607 42.8635 22.8258C44.042 20.9531 46.5578 20.1889 48.6026 20.9947Z" fill="white"/>
<path d="M39.0728 21.3334C39.262 21.3126 39.3074 21.4072 39.209 21.6171C39.0085 21.6398 38.9631 21.5452 39.0728 21.3334Z" fill="white"/>
<path d="M37.4101 21.9199C37.4649 21.9767 37.4649 21.9767 37.4101 21.9199Z" fill="white"/>
<path d="M46.7999 21.8292C48.4172 21.7497 49.9589 22.9546 50.375 24.4982C50.5774 25.4629 50.5131 26.4579 49.9873 27.311C49.2987 28.4838 47.9689 29.1799 46.6108 29.0683C45.6442 29.0796 44.6965 28.5027 44.0874 27.782C43.5426 27.1426 43.1927 26.2895 43.2173 25.4421C43.2248 23.5335 44.8686 21.8197 46.7999 21.8292Z" fill="black"/>
<path d="M23.7831 23.2271C23.8777 23.3216 23.8777 23.3216 23.7831 23.2271Z" fill="white"/>
<path d="M36.6308 23.2156L36.731 23.2175V23.3177L36.6308 23.3158V23.2156Z" fill="white"/>
<path d="M49.4274 23.3877C49.6789 23.7168 50.0554 24.22 49.9854 24.6532C48.16 25.2093 46.3006 25.7541 44.4828 26.331C44.1725 26.4142 43.9436 26.5353 43.6448 26.3367C43.5786 25.8051 43.5332 25.2812 43.6467 24.7496C45.2583 24.2881 46.8851 23.8227 48.4967 23.3593C48.7994 23.2893 49.2042 23.0434 49.4274 23.3877Z" fill="white"/>
<path d="M21.3051 23.3745L21.4527 23.3064L21.6002 23.3764L21.5983 23.522C21.3789 23.6299 21.2805 23.5788 21.3051 23.3745Z" fill="white"/>
<path d="M21.6721 23.9894C21.8442 23.9667 21.8877 24.0518 21.8007 24.2467C21.6267 24.2694 21.5851 24.1843 21.6721 23.9894Z" fill="white"/>
<path d="M20.5334 24.5171L20.7017 24.4282L20.8852 24.5001C21.1065 24.9617 20.3291 25.0014 20.5334 24.5171Z" fill="white"/>
<path d="M49.8302 24.9785L50.0194 25.0693C50.3031 25.6065 49.6278 25.5895 49.3006 25.6935C47.8195 26.1778 46.31 26.5845 44.8251 27.0517C44.5887 27.1122 44.2122 27.29 44.006 27.1047C43.8982 26.9193 43.9342 26.7888 44.1177 26.715C46.0036 26.0889 47.9254 25.5365 49.8302 24.9785Z" fill="white"/>
<path d="M30.3734 25.4798C30.7044 25.4307 30.6798 26.0492 30.345 26.0208C30.0537 25.9508 30.1861 25.5895 30.3734 25.4798Z" fill="white"/>
<path d="M31.2057 25.5496C31.1811 25.5232 31.1811 25.5232 31.2057 25.5496Z" fill="white"/>
<path d="M30.3753 26.2668C30.5436 26.2441 30.5852 26.3274 30.4982 26.5146C30.328 26.5354 30.2883 26.4541 30.3753 26.2668Z" fill="white"/>
<path d="M38.3313 28.7239C39.7916 30.0783 41.3181 31.3532 42.9279 32.5297C43.083 32.6187 43.344 32.8967 43.5218 32.7567C43.9928 32.282 44.392 31.7391 44.8535 31.2548C45.0313 31.094 45.194 30.7857 45.472 30.8576C46.0925 30.9541 46.7091 30.9711 47.3372 30.9692L47.2653 31.2208C43.1095 36.2694 38.3956 41.0797 33.8312 45.7671C33.4037 46.2324 32.9743 46.7715 32.456 47.1309C32.4296 46.9701 32.4523 46.8358 32.5203 46.728C35.1459 43.9303 37.7392 41.0949 40.3326 38.2688C41.0892 37.4687 41.146 36.5153 41.0703 35.4712C41.6246 34.7089 42.5041 34.0373 42.977 33.2353C41.5281 32.0531 40.1832 30.7308 38.8496 29.42C38.6567 29.1968 38.371 29.0246 38.3313 28.7239Z" fill="black"/>
<path d="M60.1148 29.1079C60.1545 29.1514 60.1545 29.1514 60.1148 29.1079Z" fill="white"/>
<path d="M60.2472 30.7403C60.4496 30.5473 60.9547 30.8008 60.9111 31.077C60.6879 31.1261 60.1299 31.0921 60.2472 30.7403Z" fill="white"/>
<path d="M29.543 31.7164C29.4598 31.949 29.2328 32.1268 29.0814 32.3179C26.9439 34.8564 24.7062 37.4668 22.5838 40.0091C22.1355 40.4782 23.1154 40.5387 22.5838 40.9454C21.0668 42.086 19.213 43.3326 17.2987 43.5936C16.7086 43.6352 15.969 43.675 15.4355 43.395C15.5036 43.1945 15.655 43.0129 15.7817 42.8465C18.2786 39.7329 20.7376 36.5815 23.2383 33.4717C24.7611 31.7788 27.3752 31.1886 29.543 31.7164Z" fill="white"/>
<path d="M60.8317 31.5198C61.2157 31.5311 60.9377 32.0456 60.6596 31.847C60.6048 31.7014 60.6615 31.5935 60.8317 31.5198Z" fill="white"/>
<path d="M61.8494 31.7921C61.8248 31.7656 61.8248 31.7656 61.8494 31.7921Z" fill="white"/>
<path d="M28.0013 31.9132V32.0154C27.5795 32.0097 27.1671 32.1591 26.751 32.2178C25.4288 32.4675 24.3373 33.279 23.4975 34.3023C22.2944 35.8667 21.0233 37.3705 19.7654 38.8913C19.6632 39.0143 19.5441 39.1126 19.4079 39.1902L19.4892 38.9689C20.4898 37.6429 21.4451 36.2847 22.4741 34.9795C23.2459 33.9335 24.0214 32.9933 25.2358 32.4391C26.0984 31.9965 27.0404 31.8754 28.0013 31.9132Z" fill="black"/>
<path d="M61.2365 33.0669C61.3065 33.1388 61.3065 33.1388 61.2365 33.0669Z" fill="white"/>
<path d="M61.8645 33.0368C61.9061 33.2657 61.8059 33.3716 61.5619 33.3527C61.473 33.0557 61.5732 32.9498 61.8645 33.0368Z" fill="white"/>
<path d="M53.4829 37.2342C53.6815 37.1169 54.075 37.2796 53.9672 37.5482C53.7477 37.7373 53.3108 37.5349 53.4829 37.2342Z" fill="white"/>
<path d="M57.6198 37.2L57.7238 37.2018V37.3059H57.6198V37.2Z" fill="white"/>
<path d="M58.5845 39.4946C58.664 39.576 58.664 39.576 58.5845 39.4946Z" fill="white"/>
<path d="M55.5693 40.0395C55.7755 39.9431 55.8644 39.9866 55.836 40.1719C55.6336 40.2552 55.5447 40.2117 55.5693 40.0395Z" fill="white"/>
<path d="M53.6513 40.2437C53.8329 40.1737 53.9501 40.221 54.005 40.3874C53.9785 40.8339 53.3146 40.5842 53.6513 40.2437Z" fill="white"/>
<path d="M53.6569 40.9907H53.7704L53.7685 41.1042H53.6569V40.9907Z" fill="white"/>
<path d="M52.1626 41.1725C52.5277 40.9493 52.976 41.7683 52.5201 41.8289C52.3725 41.6946 52.085 41.3843 52.1626 41.1725Z" fill="white"/>
<path d="M43.0527 43.2852L43.1813 43.27C44.1574 45.3016 44.1782 48.1163 42.7482 49.953C40.3402 53.0249 37.9133 56.0969 35.5091 59.1688C35.388 59.3258 35.2423 59.4601 35.074 59.5755C34.7902 59.3788 34.7354 59.0875 34.6314 58.7791C34.3268 57.8674 34.3949 56.8365 34.5292 55.8983C34.8111 54.5269 35.2253 53.2027 35.8817 51.9619C36.1219 51.803 36.4359 52.2796 36.6327 51.9694C38.7758 49.132 40.9303 46.1112 43.0527 43.2852Z" fill="white"/>
<path d="M53.0743 43.291C53.2427 43.2683 53.2843 43.3515 53.1973 43.5388C53.027 43.5596 52.9854 43.4783 53.0743 43.291Z" fill="white"/>
<path d="M43.2551 44.6377L43.3497 44.6094C43.2702 45.3225 43.6618 45.8957 43.5558 46.6296C43.5994 48.9354 41.7778 50.5338 40.4858 52.223C39.6762 53.0742 39.0009 54.1089 38.1383 54.8901C38.1781 54.7369 38.2537 54.5988 38.3634 54.4721C39.5041 52.9532 40.622 51.4361 41.8137 49.9569C42.4455 49.1738 42.9676 48.3434 43.1624 47.3408C43.4007 46.4537 43.2381 45.5306 43.2551 44.6377Z" fill="black"/>
<path d="M55.1891 44.5793C55.3877 44.4885 55.4728 44.5301 55.4464 44.7079C55.2515 44.7911 55.1664 44.7476 55.1891 44.5793Z" fill="white"/>
<path d="M62.3544 45.5344C62.4471 45.629 62.4471 45.629 62.3544 45.5344Z" fill="white"/>
<path d="M57.2718 45.9032C57.4609 45.818 57.5423 45.8597 57.5177 46.0299C57.3304 46.1112 57.2491 46.0696 57.2718 45.9032Z" fill="white"/>
<path d="M51.3586 47.7984C51.5535 47.7701 51.6008 47.8628 51.4986 48.0765C51.317 48.0992 51.2697 48.0065 51.3586 47.7984Z" fill="white"/>
<path d="M52.5466 47.8478C53.0081 47.81 52.9816 48.0975 53.0043 48.455C52.7017 48.3018 52.382 48.2924 52.5466 47.8478Z" fill="white"/>
<path d="M64.4295 47.8062H64.543V47.9196H64.4295V47.8062Z" fill="white"/>
<path d="M56.1009 47.9972C56.4149 47.9594 56.5303 48.3434 56.2257 48.4739C55.9136 48.5136 55.7925 48.124 56.1009 47.9972Z" fill="white"/>
<path d="M50.6323 48.7482C51.1411 48.5988 51.3095 49.0622 51.4684 49.4368C51.2281 49.3214 50.3712 49.1379 50.6323 48.7482Z" fill="white"/>
<path d="M55.9268 48.7521L56.0233 48.7502C55.9836 48.9091 55.9514 48.9091 55.9268 48.7521Z" fill="white"/>
<path d="M55.5012 49.0962C55.8928 49.1927 55.5315 49.5483 55.3783 49.6902C55.4066 49.8018 55.4331 49.9115 55.4596 50.0212C55.1418 50.0931 54.9148 50.0344 54.6103 49.9682C54.4211 49.2967 55.0964 49.3743 55.5012 49.0962Z" fill="white"/>
<path d="M61.5884 49.1209L61.7454 49.0396C61.9742 49.0887 62.0253 49.2193 61.8967 49.4292C61.5846 49.5408 61.4824 49.4387 61.5884 49.1209Z" fill="white"/>
<path d="M57.4344 49.8945C57.5858 49.7867 57.93 49.9929 57.8619 50.1726C57.6993 50.3353 57.5215 50.445 57.2907 50.3372C57.2547 50.1877 57.302 50.0402 57.4344 49.8945Z" fill="white"/>
<path d="M58.9382 49.8661C59.4376 49.6826 59.292 50.4979 58.9136 50.3995C58.6923 50.2444 58.7245 50.0099 58.9382 49.8661Z" fill="white"/>
<path d="M64.9951 49.9076C65.2599 49.8414 65.2807 50.4846 64.9724 50.3938C64.7624 50.2462 64.7719 50.0306 64.9951 49.9076Z" fill="white"/>
<path d="M54.1034 50.1025C54.1639 50.4884 53.5775 50.5981 53.2919 50.5811C53.4432 50.3314 53.8196 50.1479 54.1034 50.1025Z" fill="white"/>
<path d="M58.1721 50.426C58.5599 50.3938 58.8796 50.6643 59.2787 50.6606C59.5643 50.6833 59.64 50.6549 59.7913 50.914C59.6324 50.9178 59.4735 50.9329 59.3184 50.9556C59.1066 51.0805 59.1104 51.4626 59.0385 51.682C58.6696 51.6177 58.3689 51.4172 58.0132 51.3132C58.0435 50.9311 58.3764 50.8403 58.1721 50.426Z" fill="white"/>
<path d="M51.9488 51.3984C52.2307 51.3417 52.4482 51.8562 52.1077 51.9148C51.7559 51.9091 51.544 51.5554 51.9488 51.3984Z" fill="white"/>
<path d="M57.4817 51.7765C57.616 51.663 57.7692 51.6441 57.9414 51.7197C58.2194 51.9108 58.1324 52.1794 57.7825 52.1245C57.5574 52.0394 57.4552 51.9221 57.4817 51.7765Z" fill="white"/>
<path d="M59.8916 51.9714H59.99V52.0698L59.8916 52.0679V51.9714Z" fill="white"/>
<path d="M47.6039 52.9155H47.7041L47.7022 53.0158H47.602L47.6039 52.9155Z" fill="white"/>
<path d="M57.809 53.1064C57.9073 53.2067 57.9073 53.2067 57.809 53.1064Z" fill="white"/>
<path d="M59.9672 53.2804C60.0089 53.513 59.9105 53.6209 59.6703 53.6057C59.5738 53.305 59.6722 53.1953 59.9672 53.2804Z" fill="white"/>
<path d="M59.8859 54.0428C60.3815 53.8271 60.2964 54.631 59.8576 54.3984L59.797 54.2073L59.8859 54.0428Z" fill="white"/>
<path d="M46.2627 54.4268L46.3819 54.4286L46.38 54.5459H46.2627V54.4268Z" fill="white"/>
<path d="M42.5117 58.4823C42.8995 58.6601 42.9316 58.8285 42.9733 59.2219C42.6403 59.0422 42.3339 58.8568 41.9404 58.8512C42.1239 58.696 42.2147 58.2894 42.5117 58.4823Z" fill="white"/>
<path d="M43.4178 58.7566L43.5729 58.7679L43.6391 58.9249C43.4934 59.3335 43.0149 59.046 43.4178 58.7566Z" fill="white"/>
<path d="M52.2174 58.7623C52.3063 58.9874 52.0661 59.4868 51.7862 59.2409C51.6575 58.9723 51.9167 58.5921 52.2174 58.7623Z" fill="white"/>
<path d="M11.5143 59.5513L11.7148 59.5532C11.7507 60.3628 11.8699 61.0683 12.6057 61.528C12.9992 61.8685 13.7236 61.6642 14.0225 62.0633C13.5023 62.0936 12.9462 62.2014 12.4771 62.4359C11.8491 62.8105 11.641 63.6768 11.5767 64.3521C11.3194 64.2178 11.4045 63.4328 11.1927 63.132C10.8749 62.2279 10.0104 62.1863 9.22733 61.9158L9.18193 61.7909C9.75319 61.7682 10.3169 61.6415 10.7973 61.3218C11.3402 60.8432 11.431 60.2341 11.5143 59.5513Z" fill="white"/>
<path d="M68.3148 59.5474C68.4207 60.3456 68.5021 61.1779 69.3136 61.5714C69.7014 61.8248 70.335 61.7076 70.5885 62.0689C69.8716 62.1237 69.1396 62.2126 68.6799 62.8349C68.2789 63.236 68.4132 63.9831 68.0405 64.3596C68.0065 63.7561 67.9327 63.0903 67.4939 62.6307C67.0683 62.1653 66.3835 62.0575 65.8028 61.9062L65.7669 61.7965C66.3684 61.7586 67.1515 61.6432 67.5676 61.1571C67.9895 60.7882 67.9535 59.8538 68.3148 59.5474Z" fill="white"/>
<path d="M40.8168 59.937C40.8698 59.9919 40.8698 59.9919 40.8168 59.937Z" fill="white"/>
<path d="M43.6031 61.2156L43.7431 61.2383C43.8509 61.4255 43.798 61.5409 43.5823 61.5844C43.344 61.5031 43.3516 61.3801 43.6031 61.2156Z" fill="white"/>
<path d="M47.2388 61.7888C47.4298 61.6393 47.8233 61.8852 47.7022 62.1217C47.5358 62.2219 47.1499 61.993 47.2388 61.7888Z" fill="white"/>
<path d="M42.2923 61.9497C42.8333 61.8437 42.593 62.4907 42.2488 62.5626C41.8742 62.5304 42.1126 62.0764 42.2923 61.9497Z" fill="white"/>
<path d="M41.7343 62.5549H41.8402L41.8421 62.6609L41.7361 62.6627L41.7343 62.5549Z" fill="white"/>
<path d="M53.4602 62.5587C53.8177 62.3336 53.9842 62.8443 53.6059 62.9408C53.3808 62.8916 53.3316 62.763 53.4602 62.5587Z" fill="white"/>
<path d="M52.2969 63.3191C52.5598 63.3172 53.1935 63.775 53.2465 64.0341C53.1916 64.1571 53.1122 64.2706 53.0043 64.3784C52.6033 64.3273 52.3082 63.6463 52.2969 63.3191Z" fill="white"/>
<path d="M24.0574 68.6024C24.186 69.2512 24.0423 69.987 24.0328 70.651C24.0347 71.6516 23.8966 72.6353 23.8607 73.6378C23.6129 73.6264 23.4861 73.5167 23.4786 73.3068C23.4899 72.8698 23.5504 72.4404 23.5126 72.0035C22.8941 71.6724 22.2566 71.3584 21.6154 71.0728C21.1349 71.0804 20.7585 71.837 20.3139 71.9581C19.9375 71.8994 20.2099 71.593 20.3764 71.4625C21.3619 70.6207 22.3133 69.7468 23.2875 68.8937C23.5259 68.7121 23.7301 68.3735 24.0574 68.6024Z" fill="white"/>
<path d="M56.0176 68.8065C56.4773 69.8317 56.9199 70.8267 57.3096 71.8841C57.4401 72.2681 57.7863 72.6483 57.7257 73.055C57.4496 73.125 57.1431 73.3765 56.8518 73.299C56.4716 72.5102 56.1179 71.7006 55.8285 70.874L55.6904 70.891C55.4445 71.5095 55.3423 72.2075 55.2345 72.862C54.5252 72.7126 53.9596 71.99 53.2654 71.8103C53.5037 72.7353 54.1166 73.6054 54.3001 74.5304C54.0163 74.625 53.7345 74.7101 53.447 74.7915C52.8208 73.4541 52.2761 72.0278 51.7086 70.6602C51.8278 70.2819 52.6355 70.0701 52.9306 70.3916C53.4905 70.6564 54.0504 71.2731 54.6538 71.3507C54.7975 70.594 54.8694 69.7315 55.2023 69.0354C55.4407 68.9616 55.7698 68.7157 56.0176 68.8065Z" fill="white"/>
<path d="M23.5504 69.1812L23.6998 69.1584C23.662 69.9416 23.628 70.7739 23.505 71.5494C22.9527 71.2997 22.4495 71.0179 21.8858 70.7928C21.9028 70.685 21.9615 70.5904 22.058 70.5071C22.5384 70.0532 23.034 69.5954 23.5504 69.1812Z" fill="black"/>
<path d="M26.9383 69.7107C27.8349 69.9831 28.9528 70.2896 29.4617 71.1502C30.2107 72.3268 29.6281 73.999 28.3456 74.5135C27.3185 74.8842 26.2157 74.4227 25.2642 74.0311C25.6104 72.6957 26.2025 71.2713 26.5997 69.9321C26.6186 69.7751 26.7321 69.7032 26.9383 69.7107Z" fill="white"/>
<path d="M27.1312 70.1987C27.6855 70.3103 28.3021 70.577 28.7542 70.9156C29.6943 71.7196 29.5241 73.2726 28.5367 73.9535C27.8992 74.3999 27.065 74.3129 26.3689 74.0614C26.1854 73.9743 25.7977 73.9214 25.7939 73.6698C26.0341 72.8621 26.333 72.0676 26.6091 71.2713C26.7472 70.9686 26.7888 70.3141 27.1312 70.1987Z" fill="black"/>
<path d="M48.3813 71.3036C48.6461 71.2525 49.1852 71.0217 49.3782 71.2828C50.2937 72.5123 51.1998 73.7627 52.0945 75.0073L52.0775 75.17C51.7918 75.223 51.4759 75.3932 51.1884 75.3535C50.8801 75.2154 50.759 74.5893 50.3845 74.6233C49.8284 74.716 49.276 74.8844 48.7331 75.0319C48.701 75.3724 48.6215 75.7167 48.614 76.0628C48.2735 76.1612 47.9652 76.2577 47.6095 76.2879C47.5982 75.4102 47.8857 74.5533 47.9538 73.6719C48.1127 72.8963 48.09 72.0356 48.3813 71.3036Z" fill="white"/>
<path d="M33.0519 71.6498C33.3262 71.6365 33.9258 71.6271 34.0034 71.9695C33.8842 73.1025 33.5777 74.2261 33.5002 75.363L33.5759 75.52C34.1868 75.6108 34.7978 75.747 35.4164 75.8037C35.4107 76.0893 35.3918 76.3655 35.3691 76.6492C34.3514 76.6455 33.3167 76.3012 32.2896 76.2369C32.5109 74.7066 32.77 73.1706 33.0519 71.6498Z" fill="white"/>
<path d="M45.8333 71.9958C46.0111 73.1819 46.066 74.3755 46.2249 75.5634C46.2495 75.8774 46.3119 76.2254 46.2324 76.5338C45.9222 76.5697 45.6744 76.721 45.3396 76.6624C44.5792 75.9077 43.8888 75.0772 43.1662 74.2847C43.0716 74.1579 42.9619 74.0898 42.8351 74.0804C42.8938 75.0016 43.0886 75.9739 43.0092 76.8894C42.7368 76.9821 42.3585 77.0464 42.0955 76.897C42.0388 75.9417 41.8856 75.0016 41.8288 74.0482C41.7872 73.4845 41.6321 72.9303 41.7172 72.3855C42.018 72.3874 42.4984 72.2247 42.7481 72.4385C43.5294 73.2935 44.4316 74.332 45.2261 75.1397C45.1542 74.2147 44.9575 73.284 44.914 72.3553C44.8516 71.8294 45.5099 72.0545 45.8333 71.9958Z" fill="white"/>
<path d="M36.8086 72.359C37.0185 72.2058 37.7581 72.1888 37.7997 72.5387C37.7827 73.5261 37.639 74.5589 37.7695 75.5388C38.0438 76.39 39.4303 76.337 39.697 75.4839C39.8502 74.4795 39.7897 73.4315 39.8597 72.4158C40.2058 72.3855 40.5161 72.3836 40.8622 72.4177C40.8641 73.5148 40.849 74.5797 40.6504 75.6617C40.5047 76.2841 40.1207 76.738 39.5287 76.9764C38.7001 77.1788 37.8111 77.1183 37.1755 76.494C36.7007 76.023 36.6743 75.2494 36.6988 74.6233C36.7537 73.8704 36.7329 73.11 36.8086 72.359Z" fill="white"/>
<path d="M49.0736 72.5842L49.2155 72.6031C49.4557 73.0193 49.8189 73.4014 49.9854 73.8497C49.66 73.984 49.2495 74.1315 48.892 74.0483C48.9185 73.5754 48.9677 73.0401 49.0736 72.5842Z" fill="black"/>
</svg>
