<svg width="25" height="24" viewBox="0 0 25 24" fill="#94AEB4" xmlns="http://www.w3.org/2000/svg">
    <path d="M8.212 5.376a2.062 2.062 0 1 0-.584 4.083 2.062 2.062 0 0 0 .584-4.083ZM17.083 14.5a2.083 2.083 0 1 0 0 4.167 2.083 2.083 0 0 0 0-4.167Z" />
    <path d="M20.833 2H4.167A1.667 1.667 0 0 0 2.5 3.667v16.666A1.666 1.666 0 0 0 4.167 22h16.666a1.666 1.666 0 0 0 1.667-1.667V3.667A1.667 1.667 0 0 0 20.833 2Zm-3.75 3.333a2.083 2.083 0 1 1 0 4.167 2.083 2.083 0 0 1 0-4.167ZM7.917 18.667a2.083 2.083 0 1 1 0-4.167 2.083 2.083 0 0 1 0 4.167Zm4.166-7.5a.417.417 0 0 1-.416.416H4.583a.417.417 0 0 1-.416-.416V4.083a.417.417 0 0 1 .416-.416h7.084a.417.417 0 0 1 .416.416v7.084Zm8.75 8.75a.417.417 0 0 1-.416.416h-7.084a.417.417 0 0 1-.416-.416v-7.084a.417.417 0 0 1 .416-.416h7.084a.417.417 0 0 1 .416.416v7.084Z" />
</svg>
