<svg width="60" height="80" viewBox="0 0 60 80" fill="none" xmlns="http://www.w3.org/2000/svg">
<path fill-rule="evenodd" clip-rule="evenodd" d="M27.4732 1.02645C26.4886 0.607489 25.4726 0.261849 24.4357 0C25.1199 2.9648 26.0226 5.92226 26.9278 8.88775C28.1843 13.0043 29.4456 17.1363 30.1335 21.325C29.8283 20.3657 29.5296 19.3998 29.2303 18.432C28.1636 14.9827 27.0889 11.5077 25.6821 8.21157C24.5936 7.39344 23.4362 6.6671 22.2799 5.9414C21.6894 5.57082 21.0991 5.2004 20.5185 4.81802C20.9709 6.35729 21.4566 7.88617 21.9422 9.41485C22.5471 11.3188 23.1518 13.2224 23.6921 15.1453C21.4999 21.6146 18.9961 28.1007 16.4946 34.5807C14.5978 39.4944 12.7024 44.4044 10.9453 49.3009C9.8393 49.3344 8.73034 49.3441 7.62158 49.3537C6.65128 49.3622 5.68114 49.3707 4.71328 49.3951C3.72872 50.872 4.33622 51.8984 6.53575 52.464C5.80257 53.281 5.07987 54.1084 4.35717 54.9358C5.5512 55.3548 6.81854 55.5119 8.13826 55.4281L8.22205 56.5488C7.09087 56.5698 5.95968 56.6222 4.82849 56.7059L4.09532 58.0257C4.49333 58.3713 4.89396 58.7196 5.29458 59.0678C5.69521 59.4161 6.09584 59.7643 6.49385 60.11C6.2739 60.4504 6.05656 60.7934 5.83923 61.1364C5.6219 61.4794 5.40456 61.8225 5.18461 62.1629C4.95694 65.6248 3.54345 69.0011 2.14288 72.3465C1.35272 74.2339 0.566669 76.1114 0 77.989C2.011 77.392 4.03247 76.8055 6.06442 76.2713C7.62299 72.9911 8.74564 69.602 9.88524 66.1618L9.98168 65.8707C9.7355 68.1181 9.04977 70.1306 8.3445 72.2006C8.11958 72.8607 7.89267 73.5266 7.6774 74.2079C8.21138 74.3126 8.74536 74.4199 9.27934 74.5272C9.81371 74.6346 10.3481 74.742 10.8824 74.8468C10.631 75.5643 10.3744 76.2792 10.1178 76.9941C9.86119 77.7089 9.6046 78.4237 9.35323 79.1411C9.82877 78.8629 10.3363 78.6037 10.8489 78.3419C11.9961 77.7559 13.1689 77.1569 14.0665 76.3027C14.8639 74.451 15.5848 72.5691 16.3059 70.6866C16.9961 68.8848 17.6866 67.0824 18.4446 65.3051C17.8042 67.7205 17.0705 70.1059 16.337 72.4902C15.7029 74.5515 15.069 76.6121 14.4959 78.6908C15.9204 77.9262 17.104 77.0045 18.0466 75.9361C18.9209 73.5861 19.7144 71.2067 20.5076 68.8284C21.0542 67.1893 21.6007 65.5507 22.1734 63.9225C27.0306 63.8767 31.8878 63.887 36.745 63.8973C37.439 63.8988 38.133 63.9002 38.8269 63.9016C40.4504 69.0338 42.0424 74.187 43.6135 79.3401C43.8665 79.4074 44.1195 79.4756 44.3728 79.5439C44.9479 79.6991 45.5246 79.8546 46.1063 80C45.6769 78.3975 45.237 76.795 44.7866 75.2029C45.6874 75.5067 46.5881 75.8104 47.4993 76.1246C48.1592 77.6643 49.0914 78.3556 50.3064 78.1985C49.8763 76.4279 49.2797 74.6724 48.6825 72.9152C47.7819 70.265 46.88 67.6111 46.5462 64.8966C47.0985 67.2177 47.8832 69.4409 48.6712 71.6738C48.9145 72.3629 49.158 73.0529 49.3951 73.7471C50.4739 74.0089 51.5423 74.2812 52.6106 74.5536C52.6425 74.6352 52.6733 74.7142 52.7031 74.7907C53.5154 76.876 53.6139 77.1288 56.1194 77.6643L56.8212 75.7476L59.1883 76.2189C55.2551 63.7267 51.3595 51.2189 47.4639 38.7109C44.2325 28.3357 41.0011 17.9604 37.7481 7.59361C36.6169 7.11878 35.4857 6.65326 34.3545 6.18774C33.7889 5.955 33.2233 5.72225 32.6578 5.48835L33.5585 8.98665C31.9539 8.95067 31.506 7.11034 31.0976 5.43204C30.9115 4.6674 30.7336 3.9364 30.4582 3.42498C30.1991 2.18402 29.3686 1.84418 28.4305 1.46033C28.1176 1.33229 27.7928 1.19935 27.4732 1.02645ZM32.518 43.4943L32.5178 43.4937L32.5176 43.4931C32.0573 42 31.5972 40.5076 31.139 39.0153C29.942 40.4917 29.1756 43.0576 28.4458 45.501C28.0262 46.9058 27.6188 48.2701 27.1485 49.3636C29.5365 49.3741 31.9351 49.3741 34.3231 49.3636C33.7236 47.4048 33.1207 45.4494 32.5183 43.4954L32.518 43.4943Z" fill="#DB0000"/>
</svg>
