<svg width="80" height="54" viewBox="0 0 80 54" fill="none" xmlns="http://www.w3.org/2000/svg">
<path d="M41.694 0C42.4752 0.0791889 43.2585 0.143396 44.0483 0.243987C54.422 1.55595 62.6384 6.31156 67.9933 15.4761C70.661 20.0208 71.8788 25.2712 71.484 30.5262C71.1844 35.0507 69.7183 39.1942 67.2827 43.006C67.1694 43.2132 67.0035 43.387 66.8018 43.5098C66.6 43.6326 66.3695 43.7002 66.1334 43.7058C64.9563 43.7058 63.7791 43.7058 62.6041 43.6694C62.3863 43.6615 62.175 43.593 61.9939 43.4717C61.8128 43.3503 61.6691 43.1809 61.579 42.9824C61.2429 42.2612 60.969 41.5121 60.6415 40.7031H62.0199C62.6748 40.7031 63.3318 40.7202 63.9867 40.7031C64.7936 40.671 65.0761 40.2172 64.7915 39.4682C64.1151 37.696 63.4474 35.9218 62.7582 34.1539C62.6955 34.0336 62.6725 33.8966 62.6925 33.7624C62.7125 33.6282 62.7744 33.5038 62.8695 33.407C63.2074 32.9922 63.3814 32.4679 63.3585 31.9334C63.3357 31.3989 63.1175 30.8914 62.7454 30.507C62.2848 30.0312 61.6662 29.7402 61.006 29.6886C60.3458 29.6369 59.6895 29.8283 59.1605 30.2266C58.4713 30.7766 58.1246 31.4958 58.2702 32.3775C58.4371 33.3727 59.0685 33.9998 60.0166 34.2738C60.156 34.3004 60.2846 34.367 60.3868 34.4654C60.489 34.5639 60.5604 34.6899 60.5923 34.8281C60.9369 35.8982 61.3157 36.9512 61.6796 38.0106C61.6838 38.0462 61.6838 38.0821 61.6796 38.1177C61.0781 38.1177 60.4703 38.1305 59.8646 38.1027C59.779 38.1027 59.672 37.9058 59.6271 37.7816C58.7867 35.4716 57.9498 33.1616 57.1166 30.8515C56.7163 29.745 56.3118 28.6428 55.918 27.5342C55.8517 27.348 55.7939 27.2624 55.5435 27.2645C53.7093 27.2773 49.9639 27.2645 49.874 27.2645C49.996 27.8638 50.1158 28.4566 50.24 29.0516C50.7579 31.5642 51.2773 34.0762 51.7981 36.5874C51.965 37.4007 51.584 38.0213 50.7943 38.0385C49.0286 38.0749 47.2629 38.0492 45.4437 38.0492C45.0157 34.4579 44.5876 30.8794 44.1596 27.2645H42.854C43.0381 30.8558 43.2221 34.4322 43.4062 38.0385H36.566C36.7543 34.4493 36.9448 30.8751 37.1331 27.2645H35.864C35.7762 27.9793 35.6842 28.6942 35.5986 29.4197L34.8088 36.1936C34.7468 36.7244 34.6762 37.2637 34.6312 37.7881C34.6141 37.9892 34.5477 38.0663 34.3401 38.0663C32.6408 38.0663 30.9414 38.0941 29.2399 38.0791C28.4737 38.0791 28.0243 37.4777 28.1698 36.7137C28.8019 33.6531 29.4383 30.5926 30.0789 27.532C30.096 27.455 30.1067 27.3908 30.1281 27.2645C29.9719 27.2645 29.8328 27.2645 29.7001 27.2645C28.0136 27.2645 26.3271 27.288 24.6406 27.2645C24.2789 27.2645 24.1376 27.3351 24.022 27.6583C22.2649 32.5466 20.4799 37.4264 18.7378 42.3211C18.4039 43.2628 17.8325 43.7272 16.8501 43.7272C15.9533 43.7272 15.0566 43.7272 14.1598 43.7272C13.4428 43.7272 12.9656 43.3912 12.5974 42.7919C11.1295 40.4571 10.0254 37.9125 9.32288 35.2455C7.34102 27.455 8.75572 20.2253 13.1496 13.5777C16.9079 7.89748 22.1386 4.08572 28.5422 1.85131C31.5076 0.837091 34.5987 0.237154 37.7281 0.0684877C37.8719 0.0528378 38.0147 0.0299798 38.1562 0L41.694 0ZM40.0503 16.7046C31.8475 16.7046 23.6432 16.7088 15.4375 16.7174C15 16.7214 14.5645 16.7782 14.1406 16.8865C13.7382 16.9956 13.4343 17.5286 13.4343 17.9801C13.4343 18.6351 13.4193 19.2921 13.4343 19.947C13.4463 20.0244 13.4765 20.0979 13.5222 20.1615C13.5679 20.225 13.628 20.277 13.6975 20.313C15.6209 21.0792 17.5507 21.8319 19.4869 22.571C19.6332 22.6212 19.7921 22.6212 19.9385 22.571C22.892 21.4295 25.8434 20.2816 28.7926 19.1273C29.13 18.982 29.4929 18.9048 29.8602 18.9004C30.2275 18.896 30.5921 18.9644 30.9329 19.1016C33.7987 20.2467 36.6709 21.381 39.5345 22.526C39.6772 22.59 39.8318 22.6231 39.9882 22.6231C40.1446 22.6231 40.2993 22.59 40.442 22.526C43.2756 21.3703 46.1179 20.236 48.9537 19.0845C49.2732 18.9489 49.6168 18.879 49.9639 18.879C50.311 18.879 50.6546 18.9489 50.9741 19.0845C53.9219 20.2417 56.8747 21.3831 59.8325 22.5089C60.0097 22.5889 60.2082 22.6085 60.3976 22.5645C62.3751 21.824 64.342 21.0664 66.3174 20.3109C66.4045 20.2881 66.4802 20.2341 66.5299 20.159C66.5797 20.084 66.6 19.9933 66.5871 19.9042C66.5764 19.3692 66.5871 18.8341 66.5871 18.2969C66.5871 17.3852 66.2468 16.9571 65.3436 16.7752C65.0677 16.7239 64.7874 16.7002 64.5068 16.7046H40.0503ZM52.4359 15.7372C52.2646 15.3091 52.1298 14.926 51.9757 14.56C50.7237 11.5894 49.0628 8.9034 46.5652 6.80382C42.5223 3.40512 37.3172 3.42224 33.2957 6.84234C31.0934 8.71933 29.561 11.0822 28.3732 13.6911C28.0714 14.3503 27.8145 15.033 27.5171 15.7415L52.4359 15.7372ZM66.6299 21.2676C64.7979 22.0231 63.0536 22.7358 61.3136 23.4613C60.9709 23.6119 60.6011 23.6909 60.2268 23.6935C59.8525 23.6961 59.4817 23.6222 59.1369 23.4763C56.2433 22.327 53.3369 21.2055 50.4412 20.0519C50.3334 20.0051 50.2172 19.9809 50.0998 19.9809C49.9823 19.9809 49.8661 20.0051 49.7584 20.0519C46.7621 21.2205 43.7765 22.3719 40.7908 23.5448C40.546 23.6481 40.2829 23.7013 40.0171 23.7013C39.7514 23.7013 39.4883 23.6481 39.2434 23.5448C36.2285 22.3805 33.2065 21.224 30.1774 20.0754C29.9695 20.0029 29.7432 20.0029 29.5353 20.0754C26.5918 21.2098 23.6532 22.3562 20.7197 23.5148C20.3895 23.6582 20.0327 23.7303 19.6727 23.7262C19.3127 23.7222 18.9577 23.6421 18.6308 23.4913C17.0063 22.7679 15.3477 22.0937 13.6975 21.4024C13.6076 21.366 13.5135 21.3446 13.353 21.2911C13.4749 21.5415 13.5541 21.7191 13.6526 21.8968C14.3524 23.1531 15.399 24.0499 16.6361 24.7369C18.7078 25.8969 20.9615 26.3249 23.3136 26.3249C34.3958 26.3249 45.4794 26.3199 56.5644 26.31C57.7542 26.3013 58.9402 26.1729 60.1043 25.9269C62.1547 25.4988 64.0124 24.6427 65.4806 23.0846C65.9892 22.5685 66.3805 21.9487 66.6278 21.2676H66.6299ZM32.232 34.4086C33.5996 34.4086 34.7489 33.3877 34.7874 32.1464C34.7953 31.5471 34.5809 30.9662 34.1857 30.5156C33.7905 30.0651 33.2424 29.7768 32.6472 29.7065C31.2903 29.5289 30.0361 30.2951 29.7429 31.4829C29.3577 32.9939 30.5712 34.4129 32.2299 34.4086H32.232ZM50.2956 32.2363C50.3085 30.7702 49.2255 29.7322 47.8215 29.668C47.2771 29.6381 46.7375 29.7843 46.2827 30.085C45.8278 30.3856 45.4819 30.8248 45.296 31.3374C45.1375 31.81 45.1415 32.322 45.3075 32.792C45.4735 33.2621 45.7919 33.6631 46.212 33.9314C46.6129 34.2188 47.087 34.3869 47.5794 34.416C48.0718 34.4452 48.5624 34.3343 48.9944 34.0961C49.8162 33.6852 50.2678 32.9939 50.2956 32.2363ZM40.0032 34.3765C41.5827 34.3765 42.7855 33.071 42.5158 31.637C42.3018 30.5177 41.3473 29.7301 40.1102 29.6637C38.9502 29.6038 37.8523 30.3443 37.5419 31.3952C37.1096 32.904 38.3231 34.3765 40.0075 34.3787L40.0032 34.3765Z" fill="url(#paint0_linear_3388_504)"/>
<path d="M0.166939 53.8976L0 53.7478C0.158378 53.6579 0.310335 53.5637 0.468712 53.4845C2.76733 52.3309 5.2179 51.6225 7.69844 51.0083C13.0041 49.6942 18.3996 48.9001 23.8316 48.3373C27.9993 47.9092 32.1778 47.6495 36.3669 47.5582C36.4183 47.5582 36.4697 47.5475 36.5531 47.5389V43.8235H36.0673C33.9656 43.8235 31.8639 43.8235 29.7622 43.8235C28.7648 43.8235 28.0799 43.1322 28.112 42.2012C28.1256 41.8162 28.2834 41.4504 28.5543 41.1764C28.8251 40.9024 29.189 40.7403 29.5738 40.7223C29.7194 40.7223 29.867 40.7223 30.0147 40.7223H49.9724C50.2124 40.7102 50.4529 40.7253 50.6894 40.7672C51.0385 40.8567 51.3454 41.0649 51.5577 41.3561C51.77 41.6473 51.8743 42.0032 51.8528 42.3629C51.8313 42.7226 51.6853 43.0636 51.4398 43.3273C51.1943 43.5911 50.8647 43.7612 50.5075 43.8085C50.3348 43.8264 50.1611 43.8335 49.9874 43.8299C47.9799 43.8299 45.9723 43.8299 43.9648 43.8299H43.4618V47.5133C43.518 47.533 43.5761 47.5467 43.6352 47.5539C46.4282 47.6888 49.2298 47.7294 52.0142 47.982C55.7019 48.3073 59.3831 48.7439 63.0557 49.2255C66.7019 49.7036 70.3105 50.4345 73.8554 51.4128C75.8158 51.9521 77.7506 52.5728 79.5698 53.4995C79.6897 53.5594 79.8074 53.6236 79.9208 53.6921C79.9529 53.7114 79.97 53.7499 80 53.7863C77.9004 53.4909 75.8137 53.1656 73.7184 52.9067C70.3475 52.4786 66.9788 52.0399 63.5972 51.736C59.1198 51.3336 54.6375 51.0026 50.1501 50.7429C44.8295 50.4347 39.5003 50.4347 34.1732 50.653C30.8173 50.79 27.4614 50.9505 24.1141 51.1923C20.7261 51.4385 17.3424 51.7574 13.9629 52.1191C10.5835 52.4808 7.1912 52.9238 3.80749 53.354C2.64106 53.5059 1.48533 53.72 0.327457 53.8976H0.166939Z" fill="url(#paint1_linear_3388_504)"/>
<defs>
<linearGradient id="paint0_linear_3388_504" x1="39.9989" y1="47.9521" x2="39.9989" y2="4.22269" gradientUnits="userSpaceOnUse">
<stop offset="0.02" stop-color="#E42520"/>
<stop offset="1" stop-color="#ED7119"/>
</linearGradient>
<linearGradient id="paint1_linear_3388_504" x1="39.9989" y1="53.8976" x2="39.9989" y2="40.7137" gradientUnits="userSpaceOnUse">
<stop offset="0.14" stop-color="#E42220"/>
<stop offset="1" stop-color="#E63A20"/>
</linearGradient>
</defs>
</svg>
