<svg width="80" height="80" viewBox="0 0 80 80" fill="none" xmlns="http://www.w3.org/2000/svg">
<path d="M0 7.5C0 3.35786 3.35786 0 7.5 0H72.5C76.6421 0 80 3.35786 80 7.5V72.5C80 76.6421 76.6421 80 72.5 80H7.5C3.35786 80 0 76.6421 0 72.5V7.5Z" fill="white"/>
<mask id="mask0_3418_137" style="mask-type:alpha" maskUnits="userSpaceOnUse" x="0" y="0" width="80" height="80">
<path d="M0 7.5C0 3.35786 3.35786 0 7.5 0H72.5C76.6421 0 80 3.35786 80 7.5V72.5C80 76.6421 76.6421 80 72.5 80H7.5C3.35786 80 0 76.6421 0 72.5V7.5Z" fill="black"/>
</mask>
<g mask="url(#mask0_3418_137)">
<path d="M57.6545 22.483V34.3653C57.6545 34.7109 57.9465 35.0033 58.2915 35.0033H67.3702C68.1401 35.0033 68.7506 35.6146 68.7506 36.3855V44.7855C68.7506 45.5564 68.1401 46.1679 67.3702 46.1679H48.2041C47.4342 46.1679 46.8237 45.5564 46.8237 44.7855V-9.86772C46.8237 -10.6386 47.4342 -11.25 48.2041 -11.25H67.3702C68.1401 -11.25 68.7506 -10.6386 68.7506 -9.86772V-1.52086C68.7506 -0.74998 68.1401 -0.138587 67.3702 -0.138587H58.2915C57.9465 -0.138587 57.6545 0.153819 57.6545 0.499389V11.9564C57.6545 12.3019 57.9465 12.5944 58.2915 12.5944H65.5386C66.3084 12.5944 66.919 13.2058 66.919 13.9766V20.4627C66.919 21.2336 66.3084 21.845 65.5386 21.845H58.2915C57.9465 21.845 57.6545 22.1374 57.6545 22.483Z" fill="#0A4EFF"/>
<path d="M57.6545 91.233V103.115C57.6545 103.461 57.9465 103.753 58.2915 103.753H67.3702C68.1401 103.753 68.7506 104.365 68.7506 105.135V113.535C68.7506 114.306 68.1401 114.918 67.3702 114.918H48.2041C47.4342 114.918 46.8237 114.306 46.8237 113.535V58.8823C46.8237 58.1114 47.4342 57.5 48.2041 57.5H67.3702C68.1401 57.5 68.7506 58.1114 68.7506 58.8823V67.2291C68.7506 68 68.1401 68.6114 67.3702 68.6114H58.2915C57.9465 68.6114 57.6545 68.9039 57.6545 69.2494V80.7064C57.6545 81.052 57.9465 81.3444 58.2915 81.3444H65.5386C66.3084 81.3444 66.919 81.9557 66.919 82.7266V89.2128C66.919 89.9836 66.3084 90.595 65.5386 90.595H58.2915C57.9465 90.595 57.6545 90.8874 57.6545 91.233Z" fill="#0A4EFF"/>
<path d="M38.3806 32.9469C38.3806 27.1785 33.7085 22.5 27.9215 22.5H13.3213C12.5515 22.5 11.9409 23.1114 11.9409 23.8823V78.5621C11.9409 79.333 12.5515 79.9444 13.3213 79.9444H31.054C35.0889 79.9444 38.3541 76.6747 38.3541 72.6342V58.7318C38.3541 55.4355 36.31 52.6444 33.4165 51.5279C33.2573 51.4748 33.1776 51.3419 33.1776 51.1824V50.8367C33.1776 50.6772 33.2839 50.5444 33.4165 50.4913C36.31 49.3748 38.3541 46.557 38.3541 43.2874L38.3806 32.9469ZM27.5765 66.4671C27.5765 67.7431 26.5411 68.7799 25.267 68.7799H23.3823C23.0371 68.7799 22.7451 68.4874 22.7451 68.1419V56.2595C22.7451 55.914 23.0371 55.6216 23.3823 55.6216H25.267C26.5411 55.6216 27.5765 56.6583 27.5765 57.9343V66.4671ZM27.5765 44.0316C27.5765 45.3076 26.5411 46.3444 25.267 46.3444H23.3823C23.0371 46.3444 22.7451 46.052 22.7451 45.7064V34.2228C22.7451 33.8773 23.0371 33.5849 23.3823 33.5849H25.267C26.5411 33.5849 27.5765 34.6215 27.5765 35.8975V44.0316Z" fill="#0A4EFF"/>
<path d="M38.3806 -35.8031C38.3806 -41.5715 33.7085 -46.25 27.9215 -46.25H13.3213C12.5515 -46.25 11.9409 -45.6386 11.9409 -44.8677V9.81213C11.9409 10.583 12.5515 11.1944 13.3213 11.1944H31.054C35.0889 11.1944 38.3541 7.92479 38.3541 3.88426V-10.0183C38.3541 -13.3145 36.31 -16.1056 33.4165 -17.2221C33.2573 -17.2753 33.1776 -17.4081 33.1776 -17.5676V-17.9133C33.1776 -18.0728 33.2839 -18.2056 33.4165 -18.2588C36.31 -19.3753 38.3541 -22.193 38.3541 -25.4626L38.3806 -35.8031ZM27.5765 -2.28284C27.5765 -1.00688 26.5411 0.0298309 25.267 0.0298309H23.3823C23.0371 0.0298309 22.7451 -0.262575 22.7451 -0.608144V-12.4904C22.7451 -12.836 23.0371 -13.1284 23.3823 -13.1284H25.267C26.5411 -13.1284 27.5765 -12.0917 27.5765 -10.8158V-2.28284ZM27.5765 -24.7184C27.5765 -23.4424 26.5411 -22.4056 25.267 -22.4056H23.3823C23.0371 -22.4056 22.7451 -22.698 22.7451 -23.0436V-34.5272C22.7451 -34.8727 23.0371 -35.1651 23.3823 -35.1651H25.267C26.5411 -35.1651 27.5765 -34.1285 27.5765 -32.8525V-24.7184Z" fill="#0A4EFF"/>
</g>
</svg>
