<svg width="80" height="80" fill="none" xmlns="http://www.w3.org/2000/svg"><path d="M8.129.037h27.928C47.382-.478 59.094 4.413 66.044 13.55c4.376 5.663 5.92 13 6.178 20.078-5.277.129-10.554 0-15.96 0-.128-6.306-2.96-13.128-8.88-15.96-7.335-3.345-15.572-1.672-23.294-1.93-.13 5.92 0 11.97-.13 17.89H8.129V.037Zm0 37.58c5.276-.128 10.553-.128 15.701-.128v41.699H8c.129-13.9.129-27.67.129-41.57Zm48.005.515h15.96c.128 13.9 0 27.671 0 41.57-5.278.516-10.683.258-16.089 0 0-13.899-.128-27.799.13-41.57Z" fill="#FFFC00"/></svg>