<?xml version="1.0" encoding="UTF-8" standalone="no"?>
<svg
   xmlns:dc="http://purl.org/dc/elements/1.1/"
   xmlns:cc="http://creativecommons.org/ns#"
   xmlns:rdf="http://www.w3.org/1999/02/22-rdf-syntax-ns#"
   xmlns:svg="http://www.w3.org/2000/svg"
   xmlns="http://www.w3.org/2000/svg"
   viewBox="0 0 1092.9333 1209.9067"
   height="1209.9067"
   width="1092.9333"
   xml:space="preserve"
   id="svg2"
   version="1.1"><metadata
     id="metadata8"><rdf:RDF><cc:Work
         rdf:about=""><dc:format>image/svg+xml</dc:format><dc:type
           rdf:resource="http://purl.org/dc/dcmitype/StillImage" /></cc:Work></rdf:RDF></metadata><defs
     id="defs6" /><g
     transform="matrix(1.3333333,0,0,-1.3333333,0,1209.9067)"
     id="g10"><g
       transform="scale(0.1)"
       id="g12"><path
         id="path14"
         style="fill:#ff4040;fill-opacity:1;fill-rule:nonzero;stroke:none"
         d="M 8197.02,9074.34 V 669 C 8197.02,299.52 7897.49,0 7528.01,0 L 669.008,0.0117188 C 299.523,0.0117188 0,299.531 0,669.012 L 0.00390625,6908.3 c 0,369.49 299.52309375,669.01 669.00809375,669.01 l 6001.508,-0.01 1390.87,1497.04 h 135.63" /><path
         id="path16"
         style="fill:#ffffff;fill-opacity:1;fill-rule:nonzero;stroke:none"
         d="m 4782.62,4468.75 c 0,315.85 -212.34,539.1 -534.55,539.1 h -518.12 v -1078.2 h 518.12 c 322.21,0 534.55,223.39 534.55,539.1 z m 1258.22,2.8 c 0,-931.74 -701.64,-1610.58 -1646.04,-1610.58 H 3729.95 V 1633.81 H 2503.2 l 0.01,4443 H 4394.8 c 944.4,0 1646.04,-673.66 1646.04,-1605.26" /></g></g></svg>