<svg width="80" height="80" fill="none" xmlns="http://www.w3.org/2000/svg"><path d="M71.156 28.701c-.048-.113-.076-.225-.126-.344-2.962-6.96-14.205-9.074-27.166-5.883L41.738 21.2c6.38-2.638 12.738-4.02 18.06-3.643 7.945.564 11.83 4.908 11.358 11.144Zm-11.523 14.63c-8.3 10.163-23.354 17.194-33.552 16.468-10.198-.726-11.752-9.575-3.438-19.733.165-.212.344-.412.52-.624V52.19a3.78 3.78 0 0 0 1.758 3.366 3.704 3.704 0 0 0 3.768.105l30.585-17.895a3.524 3.524 0 0 0 1.685-3.077 3.52 3.52 0 0 0-1.797-3.012l-12.39-6.863a27.476 27.476 0 0 1 9.417-1.205c10.198.74 11.748 9.565 3.443 19.723l.001-.002Zm-38.85 21.934c-9.377-.676-13.112-6.614-10.685-14.707a9.236 9.236 0 0 0 .724 3.838c3.667 8.649 20.12 9.806 36.747 2.642.346-.147.685-.308 1.02-.45-9.347 5.795-19.745 9.251-27.825 8.677h.02Zm10.81-45.232L52.1 32.442a2.42 2.42 0 0 1 1.217 2.053 2.423 2.423 0 0 1-1.13 2.105l-20.72 12.128a2.523 2.523 0 0 1-2.567-.08 2.576 2.576 0 0 1-1.192-2.298l-.096-24.092a2.68 2.68 0 0 1 1.36-2.24 2.63 2.63 0 0 1 2.603.014h.018Zm47.46 4.495c-4.298-10.143-22.154-12.38-41.473-5.813l-8.585-5.184a3.877 3.877 0 0 0-3.855-.035 3.953 3.953 0 0 0-2.011 3.32v8.374C6.49 34.776-3.168 48.553.946 58.27c4.763 11.214 26.106 12.748 47.668 3.433 21.562-9.315 35.198-25.98 30.438-37.173Z" fill="#161F49"/></svg>