<svg width="80" height="80" fill="none" xmlns="http://www.w3.org/2000/svg"><path d="M70.33 35.363H8.85v2.38h2.1v28.164h13.94v-5.71h-7.83V37.744h53.27v-2.38ZM0 2v5.804h4.487v23.597h6.11V7.804h4.487V2H0Zm66.062 0v29.402H80v-5.709h-7.829v-6.09h6.204v-5.708h-6.204V7.804H80V2H66.062Zm-.027 52.964c1.24-1.426 1.91-3.33 1.91-5.328 0-4.662-3.819-8.469-8.498-8.469H52.86V70.57h6.683c5.059 0 9.164-4.092 9.164-9.135 0-2.57-.954-4.853-2.672-6.47Zm-6.875-8.087a2.766 2.766 0 0 1 2.77 2.76 2.766 2.766 0 0 1-2.77 2.758h-.094v-5.423h.094v-.095Zm3.533 14.558c0 1.903-1.527 3.33-3.341 3.33h-.286V58.01h.286c1.813 0 3.341 1.522 3.341 3.425ZM27.112 2c6.014 0 10.787 4.853 10.787 10.752 0 3.425-1.527 6.376-4.01 8.373l5.156 10.277h-6.778l-3.914-7.992c-.478.095-.86.095-1.242.095h-.477v7.898h-6.11V2h6.587Zm-.478 5.804v10.087h.095c2.77 0 5.06-2.284 5.06-5.044 0-2.759-2.29-5.043-5.059-5.043h-.095ZM54.32 23.79a2.766 2.766 0 0 1-2.768 2.76c-1.528 0-2.864-1.238-2.864-2.76V2h-6.11v21.314c0 4.853 4.01 8.85 8.879 8.85 4.868 0 8.878-3.997 8.878-8.85V2h-6.11v21.79h.095Zm-6.601 50.87H70.33v2.38H8.85v-2.38h18.794l6.315-29.02h7.446l6.313 29.02Zm-6.21 0-.676-2.949H34.53l-.675 2.948h7.652v.001Zm-3.731-17.793-1.91 9.039h3.819l-1.909-9.039Z" fill="#000"/></svg>