<svg id="Layer_1" data-name="Layer 1" xmlns="http://www.w3.org/2000/svg" viewBox="0 0 611.91 611.91"><defs><style>.cls-1{fill:#c2a633;}</style></defs><path class="cls-1" d="M306.05,90.05c-169,0-306,137-306,306s137,306,306,306S612,565,612,396,475,90.05,306.05,90.05Zm12,471.2H207.27V413.94H168.21V377.86h39V230.54h95.1c22.5,0,171.51-4.67,171.51,168.12,0,175.64-155.8,162.59-155.8,162.59Z" transform="translate(-0.09 -90.05)"/><path class="cls-1" d="M311,291.67H267.28v86.18h68.77v36.09H267.28v86.17h45.85c11.78,0,96.73,1.33,96.6-100.26S327.34,291.67,311,291.67Z" transform="translate(-0.09 -90.05)"/></svg>