<svg id="Layer_1" data-name="Layer 1" xmlns="http://www.w3.org/2000/svg" viewBox="0 0 611.91 611.91"><defs><style>.cls-1{fill:#fff;}.cls-2{fill:#343434;}.cls-3{fill:#8c8c8c;}.cls-4{fill:#3c3c3b;}.cls-5{fill:#141414;}.cls-6{fill:#393939;}</style></defs><circle class="cls-1" cx="305.95" cy="305.95" r="305.95"/><path class="cls-1" d="M318.07,561.25" transform="translate(-0.09 -90.05)"/><g id="Layer_1-2" data-name="Layer_1"><g id="_1421394342400" data-name=" 1421394342400"><polygon class="cls-2" points="305.86 32.47 302.19 44.93 302.19 406.45 305.86 410.11 473.67 310.92 305.86 32.47"/><polygon class="cls-3" points="305.86 32.47 138.04 310.92 305.86 410.11 305.86 234.64 305.86 32.47"/><polygon class="cls-4" points="305.86 441.88 303.79 444.4 303.79 573.18 305.86 579.22 473.77 342.74 305.86 441.88"/><polygon class="cls-3" points="305.86 579.22 305.86 441.88 138.04 342.74 305.86 579.22"/><polygon class="cls-5" points="305.86 410.11 473.67 310.92 305.86 234.64 305.86 410.11"/><polygon class="cls-6" points="138.04 310.92 305.86 410.11 305.86 234.64 138.04 310.92"/></g></g></svg>