<svg id="Layer_1" data-name="Layer 1" xmlns="http://www.w3.org/2000/svg" viewBox="0 0 611.91 611.91"><defs><style>.cls-1{fill:#699;}.cls-2,.cls-3{fill:#fff;}.cls-3{fill-rule:evenodd;}</style></defs><circle class="cls-1" cx="305.95" cy="305.95" r="305.95"/><path class="cls-2" d="M318.07,561.25" transform="translate(-0.09 -90.05)"/><path class="cls-3" d="M351.08,411.33h0c-2.51.19-15.52,1-44.54,1-23.09,0-39.48-.69-45.22-1h0c-89.21-3.93-155.79-19.45-155.79-38s66.58-34.1,155.79-38.09v60.66c5.83.42,22.53,1.41,45.61,1.41,27.7,0,41.57-1.15,44.07-1.39V335.24c89,4,155.45,19.5,155.45,38.05S440,407.36,351,411.31h0Zm0-82.36V274.68H475.31V191.9H137.09v82.78h124.2V329c-101,4.63-176.87,24.63-176.87,48.59s75.92,43.94,176.87,48.6v174h89.77v-174c100.72-4.64,176.52-24.61,176.52-48.56S451.85,333.6,351.06,329h0Zm0,0Z" transform="translate(-0.09 -90.05)"/></svg>