<svg id="Layer_1" data-name="Layer 1" xmlns="http://www.w3.org/2000/svg" viewBox="0 0 611.91 611.91"><defs><style>.cls-1{fill:red;}.cls-2{fill:#fff;}</style></defs><circle class="cls-1" cx="305.95" cy="305.95" r="305.95"/><g id="tron"><path class="cls-2" d="M548.5,334.25c-22.15-20.45-52.79-51.68-77.74-73.83l-1.48-1a28,28,0,0,0-8.19-4.58h0c-60.17-11.22-340.2-63.57-345.67-62.9a10.34,10.34,0,0,0-4.28,1.62l-1.4,1.11a16.38,16.38,0,0,0-3.84,6.2l-.37,1v6c31.53,87.79,156,375.35,180.51,442.82,1.48,4.58,4.28,13.29,9.52,13.74h1.19c2.8,0,14.76-15.8,14.76-15.8S525.32,389.32,547,361.71a70,70,0,0,0,7.38-10.92A17.79,17.79,0,0,0,548.5,334.25ZM366.37,364.44l91.25-75.67,53.52,49.32Zm-35.44-4.94L173.82,230.74,428,277.62Zm14.17,33.74,160.8-25.92L322.07,588.81ZM152.49,243.59l165.3,140.27L293.87,589Z" transform="translate(-0.09 -90.05)"/></g></svg>