<svg width="46" height="46" viewBox="0 0 46 46" fill="none" xmlns="http://www.w3.org/2000/svg">
<rect width="46" height="46" rx="23" fill="white"/>
<path d="M16.2245 16.0152L18.7865 29.3019H15.0834L14.5374 26.452H10.0713L8.49621 29.3019H4.40108L6.10213 26.452L2 26.4445L14.0964 24.0721L13.7114 22.1621L13.3894 20.4491L12.7173 21.6618L13.4944 21.9726H8.77622L12.3323 16.0227L16.2245 16.0152ZM39.3742 16.0152H30.4279C30.4622 16.0557 30.4905 16.1017 30.5119 16.1516C30.5459 16.2598 30.5694 16.3716 30.5819 16.4851C30.6099 16.6821 30.6449 16.7049 30.6239 16.8565C30.5819 17.1445 30.5329 17.1142 30.4559 17.2885C30.3936 17.4242 30.3444 17.5664 30.3089 17.713C30.3089 17.7205 30.3089 17.7281 30.3159 17.7281H30.3229C30.3509 17.7281 30.4139 17.7357 30.4139 17.8342C30.4209 17.9631 30.2809 18.2132 30.2389 18.289C30.1969 18.3648 30.1129 18.5088 30.0359 18.5543C29.9099 18.6376 29.8679 18.5846 29.8539 18.6301C29.8399 18.6755 29.7069 18.9332 29.6859 19.0015C29.6645 19.0935 29.6505 19.1873 29.6439 19.2819C29.644 19.2878 29.6453 19.2935 29.6477 19.2988C29.6502 19.304 29.6536 19.3086 29.6579 19.3122C29.9169 19.4183 30.5819 19.676 30.7429 19.9716L28.4819 20.7675C28.7969 20.7296 29.1469 20.6841 29.4549 20.6386C29.8749 20.5856 30.5539 20.5022 30.7779 20.5098C30.9684 20.5201 31.1579 20.5454 31.3449 20.5856C31.611 20.6235 31.842 20.631 32.129 20.6993C32.2852 20.7238 32.4312 20.7976 32.549 20.9115C32.5733 20.9303 32.5967 20.9505 32.619 20.9721C32.969 20.9418 33.508 20.9115 33.62 20.8963C33.676 20.8887 33.795 20.8812 33.823 20.8812C34.9081 20.7296 35.5101 20.1687 36.0281 19.8276C36.6021 19.4486 37.4701 19.1379 38.0862 19.1227C38.8842 19.1 39.4582 19.2516 39.8432 19.623C40.2282 19.9944 40.3752 20.5022 40.2212 21.2526C40.0742 21.9802 39.8572 22.3137 39.3672 22.6472C38.8772 22.9807 38.3242 23.0868 37.6802 23.0261C36.6091 22.92 35.6431 22.1924 35.2651 21.9574C34.8732 21.7053 34.4367 21.5452 33.984 21.4875C33.8862 21.4799 33.7879 21.4799 33.69 21.4875C33.655 21.4875 33.249 21.5178 32.99 21.5406C33.0084 21.6072 33.0201 21.6758 33.025 21.7452C33.018 21.8892 32.941 21.9574 32.864 21.9423C32.787 21.9271 32.605 21.7831 32.549 21.6618C32.542 21.6467 32.528 21.6467 32.528 21.6618V21.7225C32.521 21.7604 32.5 21.8816 32.423 21.9044C32.3394 21.919 32.2538 21.8972 32.185 21.8437C32.1764 21.8374 32.166 21.8347 32.1557 21.8361C32.1453 21.8375 32.1359 21.8429 32.129 21.8513C32.129 21.8533 32.1282 21.8553 32.1269 21.8567C32.1256 21.8581 32.1238 21.8589 32.122 21.8589C32.094 21.9423 32.08 21.9953 31.926 21.965C31.821 21.9499 31.842 21.9953 31.779 22.0105C31.618 22.0408 31.541 21.9499 31.4149 21.8892C31.2889 21.8286 31.3309 21.6922 31.2049 21.6694C31.1751 21.6612 31.1446 21.6562 31.1139 21.6543C31.2063 21.9813 31.2742 22.3159 31.3169 22.6547C31.3173 22.6578 31.317 22.6609 31.316 22.6639C31.3151 22.6668 31.3136 22.6694 31.3115 22.6716C31.3095 22.6738 31.3071 22.6755 31.3044 22.6765C31.3017 22.6775 31.2988 22.6779 31.2959 22.6775L31.1629 22.6926C31.1601 22.6923 31.1572 22.6926 31.1545 22.6936C31.1518 22.6946 31.1494 22.6963 31.1473 22.6985C31.1453 22.7007 31.1438 22.7033 31.1428 22.7063C31.1419 22.7092 31.1416 22.7123 31.1419 22.7154C31.1981 22.968 31.2425 23.2235 31.2749 23.4809C31.3099 23.9205 31.3029 24.0569 31.2749 24.2767C31.2746 24.2798 31.2749 24.2829 31.2759 24.2859C31.2768 24.2888 31.2783 24.2914 31.2803 24.2936C31.2824 24.2958 31.2848 24.2975 31.2875 24.2985C31.2902 24.2995 31.2931 24.2999 31.2959 24.2995H31.3029C31.3557 24.292 31.406 24.2712 31.45 24.2388C31.4554 24.1509 31.4719 24.0643 31.499 23.9811C31.5112 23.9619 31.5253 23.9441 31.541 23.9281C31.5471 23.9224 31.5521 23.9155 31.5557 23.9077C31.5593 23.8999 31.5614 23.8913 31.562 23.8826L31.597 23.7538C31.6027 23.7355 31.6097 23.7178 31.618 23.7007L31.793 23.3521C31.793 23.3521 31.835 23.2611 31.905 23.2763C31.9396 23.2961 31.9688 23.3255 31.9897 23.3614C32.0106 23.3973 32.0224 23.4385 32.024 23.4809C32.0142 23.5845 31.9857 23.6849 31.94 23.7765L32.017 23.9054C32.0622 23.9176 32.1094 23.9192 32.1553 23.9101C32.2012 23.9009 32.2447 23.8812 32.283 23.8523C32.325 23.822 32.36 23.7917 32.395 23.7613C32.36 23.6628 32.444 23.5415 32.654 23.587C32.731 23.6173 32.941 23.7992 32.675 23.9887C32.668 23.9887 32.668 23.9963 32.668 24.0039C32.668 24.0115 32.675 24.0115 32.682 24.0115C32.969 23.9887 32.934 24.3677 32.738 24.4814C32.731 24.4858 32.7257 24.4929 32.7231 24.5013C32.7205 24.5096 32.7208 24.5187 32.724 24.5269V24.5344C32.7654 24.5932 32.7876 24.6652 32.787 24.7391C32.787 24.7391 32.787 24.8376 32.507 24.9437C32.507 24.9437 32.423 24.9816 32.458 25.0498C32.4968 25.0674 32.5366 25.0826 32.577 25.0953C32.577 25.0953 32.829 25.156 32.78 25.3076C32.78 25.3076 32.738 25.4364 32.5 25.353C32.4229 25.3581 32.3456 25.3555 32.269 25.3454C32.1201 25.3974 31.9681 25.4379 31.814 25.4667C31.7888 25.4705 31.7646 25.4799 31.743 25.4942C31.7213 25.5086 31.7026 25.5276 31.688 25.5501C31.534 25.7396 31.0579 26.0049 30.8479 26.0124C30.6169 26.0124 30.5819 25.8154 30.4139 25.6259C30.0779 25.2469 30.0219 24.777 29.9729 24.3071C29.9729 24.2919 29.9589 24.2843 29.9449 24.2843C29.9421 24.284 29.9392 24.2843 29.9365 24.2853C29.9338 24.2863 29.9313 24.288 29.9293 24.2902C29.9273 24.2924 29.9257 24.295 29.9248 24.2979C29.9239 24.3009 29.9236 24.304 29.9239 24.3071C29.8679 24.8528 29.8329 25.3454 29.5529 25.6183C29.3849 25.7851 29.1119 25.9139 28.6779 26.0276C27.0328 26.452 25.2548 27.5435 25.4578 27.7936C25.5348 27.8921 25.7238 27.6951 26.0458 27.5359C27.2708 26.922 28.8669 26.8007 29.3779 26.8462C29.396 26.8476 29.4131 26.856 29.4259 26.8699C29.4388 26.8839 29.4466 26.9023 29.4479 26.922C29.4627 27.0556 29.4885 27.1875 29.5249 27.3161C29.5669 27.4904 29.6229 27.7936 29.7909 27.9679C30.0989 28.2787 30.0569 28.3924 29.9799 28.8093C29.9309 29.0821 30.2739 29.3095 30.2879 29.3171H33.83L34.362 26.4824H37.9602C41.6353 26.4824 43.2663 24.6633 43.8964 21.1843C44.1904 19.532 44.1764 16.0152 39.3742 16.0152ZM23.5747 29.2943C23.6293 29.2248 23.6877 29.159 23.7497 29.0973C23.9037 28.9229 23.7847 28.4909 23.8127 28.3242C23.8547 28.1044 24.2047 27.9907 24.2537 27.7784C24.3307 27.4828 23.7917 27.5359 24.0507 27.2251C24.2117 27.0357 24.4427 27.0963 24.4287 26.9068C24.4007 26.5961 24.6807 26.3914 24.7997 26.2929C25.3108 25.876 26.4518 25.2166 27.1448 24.9968C27.8728 24.7694 26.8718 24.7921 26.0458 25.1181C25.2968 25.4137 27.0188 24.2464 28.3839 23.875C29.3569 23.6098 27.6698 23.5567 26.1158 24.2995C25.6258 24.5344 25.3458 24.6785 25.1497 24.8149H25.1357V24.8073C25.2127 24.6406 25.3738 24.345 25.3248 24.0418C25.2892 23.8499 25.3113 23.6507 25.3878 23.4733C25.4438 23.3521 25.4088 23.0337 25.4788 22.8594C25.4858 22.8442 25.4998 22.8442 25.5138 22.8442L26.3468 23.1247L29.6089 21.9195L26.5078 22.4198L25.4158 21.4269C25.2618 21.2526 25.1077 20.5628 25.2617 20.3051C25.4247 20.0376 25.6123 19.7887 25.8218 19.5623C25.9688 19.4259 26.4168 19.3653 26.6338 19.244C26.8788 19.1076 27.0748 19.1985 27.2568 19.1682C27.4487 19.1155 27.6379 19.0522 27.8238 18.9787C27.8308 18.9787 27.8308 18.9711 27.8308 18.9636C27.8308 18.8847 27.8238 18.806 27.8098 18.7286C27.7597 18.5184 27.7408 18.301 27.7538 18.0843C27.7748 17.8721 27.9428 17.6902 27.9498 17.5538C27.9568 17.4174 27.8658 17.2733 27.9358 17.1369C28.0058 17.0005 28.0198 16.9095 28.0968 16.6443C28.0758 16.4851 27.9848 16.432 28.0548 16.2653C28.0898 16.1819 28.1528 16.0606 28.1738 16H16.8335L17.4845 19.3653H21.9506L21.4606 21.9499H24.8277L17.9535 23.299L21.2016 23.2914L20.0676 29.2792H23.5747V29.2943ZM35.5451 21.6012C35.573 21.6148 35.6047 21.616 35.6334 21.6047C35.6622 21.5934 35.6857 21.5704 35.6991 21.5406C35.7071 21.5188 35.7118 21.4958 35.7131 21.4724C35.7201 21.1389 35.7691 20.9873 35.8391 20.7144C35.8671 20.6083 35.7831 20.5173 35.6991 20.5704C35.3595 20.7812 34.9942 20.9394 34.6141 21.0403C34.5966 21.0448 34.5809 21.0554 34.5695 21.0705C34.5581 21.0855 34.5516 21.1042 34.551 21.1237C34.5497 21.1415 34.5538 21.1592 34.5626 21.1743C34.5715 21.1893 34.5846 21.2009 34.6001 21.2071C34.9272 21.3013 35.2441 21.4334 35.5451 21.6012Z" fill="url(#paint0_linear_6378_81590)"/>
<defs>
<linearGradient id="paint0_linear_6378_81590" x1="23" y1="16" x2="24.0952" y2="21.9666" gradientUnits="userSpaceOnUse">
<stop stop-color="#30B3E6"/>
<stop offset="0.9999" stop-color="#0785D1"/>
<stop offset="1" stop-color="#17ADE7"/>
</linearGradient>
</defs>
</svg>
