<svg width="46" height="46" viewBox="0 0 46 46" fill="none" xmlns="http://www.w3.org/2000/svg">
<g clip-path="url(#clip0_6378_81573)">
<path d="M45.9949 4.66335C45.9662 2.13595 43.8751 0.0115399 41.3599 0.00578274C37.7448 2.55448e-05 8.2501 2.55448e-05 4.63495 0.00578274C2.14845 0.0172971 -1.33291e-05 2.14746 -1.33291e-05 4.66335C-1.33291e-05 16.8859 -0.00574258 29.1142 -1.33291e-05 41.3367C0.00571592 43.8065 2.01668 45.8849 4.45161 46.0058H41.5433C43.9839 45.8791 45.9949 43.8065 45.9949 41.3367C46.0006 29.1084 45.9949 16.8859 45.9949 4.66335ZM41.2052 44.9062C37.6302 44.9062 8.19281 44.9119 4.61776 44.9062C3.2542 44.9004 1.95939 44.0023 1.41511 42.7472C1.19167 42.2463 1.1 41.6879 1.1 41.1352C1.1 29.1717 1.1 17.2083 1.1 5.24483C1.06563 4.54821 1.12865 3.81705 1.45522 3.178C2.02814 1.93444 3.34014 1.09965 4.69797 1.10541C6.74904 1.11116 8.78866 1.07086 10.8397 1.12844H10.8225C10.3356 1.28388 9.84284 1.57174 9.64231 2.07262C9.45325 2.59652 9.44179 3.16648 9.40741 3.71917C9.20689 3.7422 8.93189 3.75947 8.93189 4.03582C8.93189 4.42155 8.89178 4.94546 9.27564 5.16423C9.17251 5.71116 9.26418 6.3387 8.93189 6.81079C8.55948 7.13319 8.00948 7.0238 7.55687 7.08713L7.43655 7.22531C6.94957 7.26561 6.45112 7.30015 5.96986 7.40378C5.52871 7.51317 5.12766 7.778 4.83547 8.12919C4.36567 8.69339 4.01619 9.34971 3.67816 10.006C3.30003 10.7314 3.1167 11.549 2.73284 12.2744C2.18283 13.4085 1.63282 14.5485 1.34636 15.7805C1.28334 16.005 1.38646 16.218 1.44949 16.4253C1.54688 16.7017 1.59272 16.9838 1.7073 17.2543C2.21148 17.3983 2.73284 17.3868 3.24847 17.3695C3.24847 17.5134 3.24847 17.6631 3.24274 17.807C3.0193 18.1237 2.65263 18.3482 2.5495 18.7455C2.35471 19.4536 2.22866 20.1905 2.17137 20.9274C2.23439 22.7813 3.64379 24.186 4.05629 25.9362L4.99589 26.0801C5.74642 27.554 6.70894 28.9069 7.67145 30.2426C8.07823 30.7435 8.42771 31.2961 8.93762 31.6991C9.39023 32.0849 9.76836 32.5397 10.2038 32.9427C11.1434 33.8351 38.0083 34.6871 39.1313 35.3319C39.3089 35.7119 39.4807 36.0976 39.6011 36.5006C39.4807 36.7079 39.3662 36.9497 39.4979 37.1858C39.836 37.9975 40.4203 38.7172 40.6037 39.598C40.6094 39.7995 40.4318 39.9895 40.5292 40.191C40.6094 40.3465 40.724 40.4731 40.8328 40.6055C40.8328 41.7397 40.5063 42.8508 40.6094 43.985C40.638 44.3823 40.9417 44.6644 41.211 44.9119C41.211 44.9062 41.211 44.9062 41.2052 44.9062ZM44.7918 42.1369C44.4881 43.5475 43.2391 44.6759 41.8297 44.8774C42.2136 44.6068 42.5459 44.2441 42.649 43.7662C42.8152 42.8911 42.4657 42.0506 42.1907 41.2388C42.0589 40.974 42.2422 40.6746 42.1162 40.4155C41.8641 39.8859 41.8183 39.2929 41.7266 38.7229C41.6235 37.986 41.95 37.3009 42.0131 36.5812C42.0188 35.9019 41.4974 35.4068 41.1766 34.8598C41.0276 34.4799 41.0391 34.0596 40.9474 33.6681C40.6782 32.3036 40.6323 30.8356 39.8932 29.615C39.349 28.7572 12.9882 27.8188 12.9366 26.7825C12.822 25.205 12.5356 23.6448 12.1002 22.1249L12.3179 21.9062L11.2809 18.2043C11.1663 17.7955 10.9314 17.3925 10.5074 17.2198C10.5132 17.0241 10.5074 16.8226 10.5876 16.6383L11.4642 14.3815C11.4661 14.3773 11.468 14.3731 11.4699 14.3688C11.5254 14.2461 11.5826 14.1194 11.6934 14.0303C12.0887 13.7022 12.5356 13.4488 12.9939 13.2185C13.2116 14.4736 39.3089 15.7229 39.5839 16.9607L39.8188 17.6343C40.2599 18.5612 40.7469 19.4651 41.1193 20.4208C39.4406 20.7893 12.421 22.6719 12.8793 24.3472C13.2403 26.0686 41.0506 27.2316 42.7178 26.7077C42.8438 26.6731 42.9641 26.6328 43.0844 26.5868C43.9037 26.2644 44.5626 25.5735 44.9063 24.756C44.9178 29.9144 44.9121 35.0671 44.9121 40.2256C44.9063 40.8646 44.9636 41.5152 44.7918 42.1369ZM44.9121 22.4013C44.7115 22.0328 44.4996 21.6701 44.3449 21.2844C44.3399 21.2844 44.335 21.2801 44.3301 21.2789L44.3277 21.2786C44.4824 21.6701 44.6944 22.0328 44.8949 22.3898C44.6954 22.0289 44.4846 21.6681 44.3301 21.2789C44.3293 21.2769 44.3285 21.2749 44.3277 21.2729C44.1157 21.1577 43.8693 21.0714 43.7376 20.8526C43.5657 20.5878 43.2047 20.5935 42.9412 20.4611C42.7292 19.6781 42.7636 18.8491 42.4542 18.0949C42.2193 17.3925 41.7381 16.788 41.6349 16.0453C41.5375 15.3372 41.3771 14.6348 41.2511 13.9324C41.274 12.7004 41.2224 11.3878 40.5922 10.2939C40.1453 9.51091 13.458 9.08488 12.7533 8.58976L12.7132 8.3825C12.3179 8.10616 11.8882 7.89314 11.4585 7.68013C11.4929 7.51892 11.4413 7.28864 11.6189 7.19652C12.0715 6.87988 12.272 6.34446 12.5356 5.88388C12.8793 5.76874 38.862 5.38876 39.0453 5.11242C39.1943 4.90516 39.1943 4.62305 39.0281 4.42731C39.3203 3.81705 39.5781 3.0974 39.3432 2.4238C39.2802 2.182 39.1026 2.00353 38.8734 1.91141C38.6443 1.51417 12.3809 1.27812 11.9741 1.11116C13.0512 1.08238 40.0078 1.11116 41.0907 1.09965C42.0073 1.08238 42.9412 1.37024 43.6344 1.98626C44.4595 2.68288 44.9121 3.76523 44.9178 4.84183C44.9121 10.6969 44.9235 16.5462 44.9121 22.4013ZM5.28808 35.9652C5.58028 35.9652 5.8782 35.9652 6.17039 35.9652C6.17039 38.1933 6.17039 40.4155 6.17039 42.6436C5.75215 42.6436 5.33392 42.6436 4.91568 42.6436C4.70943 41.3482 4.50891 40.0528 4.30265 38.7575C4.22244 38.2969 4.16515 37.8363 4.07921 37.3757C4.1362 38.0859 4.15918 38.8017 4.18197 39.5118C4.1821 39.5156 4.18222 39.5194 4.18234 39.5232C4.22244 40.5595 4.19953 41.6015 4.20526 42.6436C3.90733 42.6436 3.61514 42.6436 3.31722 42.6436C3.32295 40.4155 3.32295 38.1875 3.32295 35.9595C3.78129 35.9595 4.2339 35.9595 4.69224 35.9595C4.97297 37.6578 5.24798 39.3505 5.52871 41.0488C5.55163 41.1697 5.55736 41.2964 5.59746 41.4173C5.59173 41.3712 5.58028 41.3309 5.57455 41.2849C5.45996 40.0759 5.35683 38.8669 5.30527 37.6521C5.27662 37.0936 5.29381 36.5294 5.28808 35.9652ZM10.1522 35.9595C9.91159 38.1875 9.66523 40.4098 9.4246 42.6378C9.76836 42.6378 10.1121 42.6378 10.4501 42.6378C10.4788 42.2003 10.5074 41.8203 10.5361 41.3828C10.7423 41.3828 10.9486 41.3828 11.1548 41.3828C11.1892 41.8203 11.2179 42.2003 11.2522 42.6378C11.6074 42.6378 11.9684 42.6378 12.3236 42.6378C12.3021 42.4389 12.2806 42.24 12.2591 42.0411C12.04 40.0129 11.8214 37.9886 11.6074 35.9595C11.1147 35.9595 10.6335 35.9595 10.1522 35.9595ZM10.5876 40.617C10.685 39.2929 10.7423 37.8363 10.8225 36.5064C10.834 36.587 10.8455 36.6734 10.8455 36.754C10.9199 37.9975 11.0173 39.3735 11.0975 40.617C10.9314 40.617 10.7595 40.617 10.5876 40.617ZM9.28137 40.807C9.26991 40.4789 9.32148 40.145 9.19543 39.8283C9.12095 39.6326 8.97199 39.4656 8.78293 39.3505C9.13241 39.1605 9.25845 38.7805 9.27564 38.4351C9.2871 38.0378 9.27564 37.6463 9.28137 37.2491C9.27564 36.9037 9.19543 36.5409 8.92616 36.2761C8.68553 36.0458 8.32459 35.9537 7.98083 35.9537C7.54541 35.9595 7.10998 35.9595 6.67456 35.9595C6.67456 38.1875 6.67456 40.4098 6.67456 42.6378C7.09853 42.6378 7.52249 42.6378 7.95218 42.6378C8.25583 42.6378 8.57667 42.5687 8.8173 42.3903C9.02355 42.2406 9.1496 42.0276 9.21835 41.8088C9.31575 41.4806 9.27564 41.1467 9.28137 40.807ZM8.26156 41.3828C8.25583 41.5037 8.23865 41.6418 8.12406 41.7224C7.99802 41.8088 7.83187 41.7858 7.68291 41.7915C7.68864 41.1064 7.68864 40.4271 7.68864 39.742C7.83187 39.742 7.99802 39.7304 8.12406 39.811C8.23865 39.8916 8.26156 40.0298 8.26156 40.145C8.26156 40.5595 8.26156 40.9682 8.26156 41.3828ZM8.26156 38.5963C8.25583 38.7172 8.24438 38.8611 8.12979 38.9417C8.00375 39.0223 7.8376 39.005 7.68864 39.0108C7.68864 38.2739 7.68864 37.5369 7.68864 36.8058C7.83187 36.8058 7.99229 36.7885 8.11833 36.8691C8.23292 36.944 8.25583 37.0879 8.26156 37.203C8.26156 37.6694 8.26156 38.1299 8.26156 38.5963Z" fill="white"/>
<path fill-rule="evenodd" clip-rule="evenodd" d="M4.61776 44.9062C8.19281 44.9119 37.6302 44.9062 41.2052 44.9062C40.9375 44.66 40.6378 44.3792 40.6094 43.985C40.5063 42.8508 40.8328 41.7397 40.8328 40.6055C40.724 40.4731 40.6094 40.3465 40.5292 40.191C40.4318 39.9895 40.6094 39.7995 40.6037 39.598C40.4203 38.7172 39.836 37.9975 39.4979 37.1858C39.3662 36.9497 39.4807 36.7079 39.6011 36.5006C39.4807 36.0976 39.3089 35.7119 39.1313 35.3319C38.0083 34.6871 11.1434 33.8351 10.2038 32.9427C9.76836 32.5397 9.39023 32.0849 8.93762 31.6991C8.42771 31.2961 8.07823 30.7435 7.67145 30.2426C6.70894 28.9069 5.74642 27.554 4.99589 26.0801L4.05629 25.9362C3.64379 24.186 2.23439 22.7813 2.17137 20.9274C2.22866 20.1905 2.35471 19.4536 2.5495 18.7455C2.65263 18.3482 3.0193 18.1237 3.24274 17.807C3.24847 17.6631 3.24847 17.5134 3.24847 17.3695C2.73284 17.3868 2.21148 17.3983 1.7073 17.2543C1.59272 16.9838 1.54688 16.7017 1.44949 16.4253C1.38646 16.218 1.28334 16.005 1.34636 15.7805C1.63282 14.5485 2.18283 13.4085 2.73284 12.2744C3.1167 11.549 3.30003 10.7314 3.67816 10.006C4.01619 9.34971 4.36567 8.69339 4.83547 8.12919C5.12766 7.778 5.52871 7.51317 5.96986 7.40378C6.45112 7.30015 6.94957 7.26561 7.43655 7.22531L7.55687 7.08713C8.00948 7.0238 8.55948 7.13319 8.93189 6.81079C9.26418 6.3387 9.17251 5.71116 9.27564 5.16423C8.89178 4.94546 8.93189 4.42155 8.93189 4.03582C8.93189 3.75947 9.20689 3.7422 9.40741 3.71917C9.44179 3.16648 9.45325 2.59652 9.64231 2.07262C9.84284 1.57174 10.3356 1.28388 10.8225 1.12844H10.8397C8.78866 1.07086 6.74904 1.11116 4.69797 1.10541C3.34014 1.09965 2.02814 1.93444 1.45522 3.178C1.12865 3.81705 1.06563 4.54821 1.1 5.24483V41.1352C1.1 41.6879 1.19167 42.2463 1.41511 42.7472C1.95939 44.0023 3.2542 44.9004 4.61776 44.9062ZM6.17039 35.9652H5.28808C5.29381 36.5294 5.27662 37.0936 5.30527 37.6521C5.35683 38.8669 5.45996 40.0759 5.57455 41.2849C5.58028 41.3309 5.59173 41.3712 5.59746 41.4173C5.55736 41.2964 5.55163 41.1697 5.52871 41.0488C5.24798 39.3505 4.97297 37.6578 4.69224 35.9595H3.32295C3.32295 38.1875 3.32295 40.4155 3.31722 42.6436H4.20526C4.19953 41.6015 4.22244 40.5595 4.18234 39.5232L4.18197 39.5118C4.15918 38.8017 4.1362 38.0859 4.07921 37.3757C4.16515 37.8363 4.22244 38.2969 4.30265 38.7575C4.50891 40.0528 4.70943 41.3482 4.91568 42.6436H6.17039V35.9652ZM9.4246 42.6378C9.66523 40.4098 9.91159 38.1875 10.1522 35.9595H11.6074C11.8214 37.9886 12.04 40.0129 12.2591 42.0411L12.3236 42.6378H11.2522C11.2179 42.2003 11.1892 41.8203 11.1548 41.3828H10.5361C10.5074 41.8203 10.4788 42.2003 10.4501 42.6378H9.4246ZM9.19543 39.8283C9.32148 40.145 9.26991 40.4789 9.28137 40.807C9.27564 41.1467 9.31575 41.4806 9.21835 41.8088C9.1496 42.0276 9.02355 42.2406 8.8173 42.3903C8.57667 42.5687 8.25583 42.6378 7.95218 42.6378H6.67456V35.9595C7.10998 35.9595 7.54541 35.9595 7.98083 35.9537C8.32459 35.9537 8.68553 36.0458 8.92616 36.2761C9.19543 36.5409 9.27564 36.9037 9.28137 37.2491C9.27564 37.6463 9.2871 38.0378 9.27564 38.4351C9.25845 38.7805 9.13241 39.1605 8.78293 39.3505C8.97199 39.4656 9.12095 39.6326 9.19543 39.8283Z" fill="white"/>
<path d="M44.3449 21.2844C44.4996 21.6701 44.7115 22.0328 44.9121 22.4013C44.9235 16.5462 44.9121 10.6969 44.9178 4.84183C44.9121 3.76523 44.4595 2.68288 43.6344 1.98626C42.9412 1.37024 42.0073 1.08238 41.0907 1.09965C40.0078 1.11116 13.0512 1.08238 11.9741 1.11116C12.3809 1.27812 38.6443 1.51417 38.8734 1.91141C39.1026 2.00353 39.2802 2.182 39.3432 2.4238C39.5781 3.0974 39.3203 3.81705 39.0281 4.42731C39.1943 4.62305 39.1943 4.90516 39.0453 5.11242C38.862 5.38876 12.8793 5.76874 12.5356 5.88388C12.272 6.34446 12.0715 6.87988 11.6189 7.19652C11.4413 7.28864 11.4929 7.51892 11.4585 7.68013C11.8882 7.89314 12.3179 8.10616 12.7132 8.3825L12.7533 8.58976C13.458 9.08488 40.1453 9.51091 40.5922 10.2939C41.2224 11.3878 41.274 12.7004 41.2511 13.9324C41.3771 14.6348 41.5375 15.3372 41.6349 16.0453C41.7381 16.788 42.2193 17.3925 42.4542 18.0949C42.7636 18.8491 42.7292 19.6781 42.9412 20.4611C43.2047 20.5935 43.5657 20.5878 43.7376 20.8526C43.8693 21.0714 44.1157 21.1577 44.3277 21.2729C44.3285 21.2749 44.3293 21.2769 44.3301 21.2789C44.335 21.2801 44.3399 21.2844 44.3449 21.2844Z" fill="white"/>
<path d="M44.7918 42.1369C44.4881 43.5475 43.2391 44.6759 41.8297 44.8774C42.2136 44.6068 42.5459 44.2441 42.649 43.7662C42.8152 42.8911 42.4657 42.0506 42.1907 41.2388C42.0589 40.974 42.2422 40.6746 42.1162 40.4155C41.8641 39.8859 41.8183 39.2929 41.7266 38.7229C41.6235 37.986 41.95 37.3009 42.0131 36.5812C42.0188 35.9019 41.4974 35.4068 41.1766 34.8598C41.0276 34.4799 41.0391 34.0596 40.9474 33.6681C40.6782 32.3036 40.6323 30.8356 39.8932 29.615C39.349 28.7572 12.9882 27.8188 12.9366 26.7825C12.822 25.205 12.5356 23.6448 12.1002 22.1249L12.3179 21.9062L11.2809 18.2043C11.1663 17.7955 10.9314 17.3925 10.5074 17.2198C10.5132 17.0241 10.5074 16.8226 10.5876 16.6383L11.4642 14.3815L11.4699 14.3688C11.5254 14.2461 11.5826 14.1194 11.6934 14.0303C12.0887 13.7022 12.5356 13.4488 12.9939 13.2185C13.2116 14.4736 39.3089 15.7229 39.5839 16.9607L39.8188 17.6343C40.2599 18.5612 40.7469 19.4651 41.1193 20.4208C39.4406 20.7893 12.421 22.6719 12.8793 24.3472C13.2403 26.0686 41.0506 27.2316 42.7178 26.7077C42.8438 26.6731 42.9641 26.6328 43.0844 26.5868C43.9037 26.2644 44.5626 25.5735 44.9063 24.756C44.9178 29.9144 44.9121 35.0671 44.9121 40.2256C44.9063 40.8646 44.9636 41.5152 44.7918 42.1369Z" fill="white"/>
<path d="M1.09386 5.09387C1.09386 2.88473 2.88473 1.09387 5.09386 1.09387H27.4999V44.9061H5.09386C2.88473 44.9061 1.09386 43.1153 1.09386 40.9061V5.09387Z" fill="#1C4588"/>
<path d="M44.9999 5.09387C44.9999 2.88473 43.209 1.09387 40.9999 1.09387H27.4999V44.9061H40.9999C43.209 44.9061 44.9999 43.1153 44.9999 40.9061V5.09387Z" fill="#C8202E"/>
<path d="M13 23.0155H10.5261C10.5422 24.5349 10.494 26.0543 10.5743 27.5581C10.7189 30.8295 11.008 34.0853 11.3293 37.3411C11.3454 37.4651 11.3775 37.5736 11.3936 37.6977C11.2811 37.3721 11.2651 37.031 11.2008 36.7054C10.4137 32.1318 9.64257 27.5736 8.85542 23H5.01606V23.0003C5.01606 29.0002 5.01606 35.0001 5 41H7.48996C7.4739 38.1938 7.53815 35.3876 7.4257 32.5969L7.42468 32.5662C7.36076 30.6538 7.29633 28.7262 7.13655 26.814C7.37751 28.0543 7.53815 29.2946 7.76305 30.5349C8.34136 34.0233 8.90361 37.5116 9.48193 41H13V23.0155Z" fill="white"/>
</g>
<defs>
<clipPath id="clip0_6378_81573">
<rect width="46" height="46" fill="white"/>
</clipPath>
</defs>
</svg>
