<?xml version="1.0" encoding="UTF-8" standalone="no"?>
<svg
   width="20"
   height="20"
   viewBox="0 0 20 20"
   fill="none"
   version="1.1"
   id="svg4"
   sodipodi:docname="dota_pro_circuit.svg"
   xmlns:inkscape="http://www.inkscape.org/namespaces/inkscape"
   xmlns:sodipodi="http://sodipodi.sourceforge.net/DTD/sodipodi-0.dtd"
   xmlns="http://www.w3.org/2000/svg"
   xmlns:svg="http://www.w3.org/2000/svg">
  <defs
     id="defs8" />
  <sodipodi:namedview
     id="namedview6"
     pagecolor="#ffffff"
     bordercolor="#000000"
     borderopacity="0.25"
     inkscape:showpageshadow="2"
     inkscape:pageopacity="0.0"
     inkscape:pagecheckerboard="0"
     inkscape:deskcolor="#d1d1d1" />
  <path
     fill-rule="evenodd"
     clip-rule="evenodd"
     d="M20 10C20 10.8181 19.9018 11.6132 19.7165 12.3742C17.6042 12.8266 16.0204 14.7041 16.0204 16.9515C16.0204 17.2801 16.0543 17.6007 16.1187 17.9102C14.4275 19.2203 12.3048 20 10 20C7.77381 20 5.71753 19.2726 4.05589 18.0424C4.13944 17.6924 4.18369 17.3271 4.18369 16.9515C4.18369 14.6288 2.49212 12.7013 0.273739 12.3336C0.094769 11.5849 0 10.8035 0 10C0 4.47715 4.47715 0 10 0C15.5228 0 20 4.47715 20 10ZM11.9349 16.4124C11.3204 16.5891 10.6713 16.6837 10 16.6837C6.13964 16.6837 3.0102 13.5542 3.0102 9.69388C3.0102 7.4955 4.02508 5.53417 5.61188 4.25283C5.58833 4.62155 5.7531 5.05227 5.86734 5.30614C6.05378 5.58925 6.40471 5.98451 6.72583 6.34621L6.72584 6.34622C6.99788 6.65263 7.24854 6.93496 7.35969 7.10461C8.12821 8.78804 6.71505 9.39813 6.28906 9.58204C6.26963 9.59043 6.25226 9.59793 6.23724 9.60461C6.32633 12.672 9.42545 13.0088 10.0217 13.0736L10.0255 13.074C10.2809 13.1018 10.5097 13.115 10.7424 13.1285L10.7425 13.1285C11.0444 13.146 11.3529 13.1639 11.7347 13.2143C12.4107 13.3036 12.9974 13.8903 13.0995 14.4005C13.2484 15.6493 12.7285 15.9514 11.9925 16.3789C11.9735 16.39 11.9542 16.4011 11.9349 16.4124ZM14.4459 15.0878C14.3735 14.2684 14.3144 14.1936 13.416 13.0557L13.3801 13.0102C12.5284 11.9314 12.526 11.7929 12.5177 11.3254C12.5167 11.2678 12.5155 11.2052 12.5127 11.1352C12.4872 10.4975 13.0485 10.1148 13.8648 9.68114C13.7755 7.34695 11.7347 6.53063 10.574 6.27553C10.2278 6.19944 9.8589 6.20732 9.4883 6.21523C8.61636 6.23386 7.73495 6.25268 7.11734 5.17859C6.50075 4.10625 7.18909 3.38608 7.76374 3.06946C8.46587 2.83252 9.21793 2.70408 10 2.70408C13.8604 2.70408 16.9898 5.83352 16.9898 9.69388C16.9898 11.8655 15.9995 13.8058 14.4459 15.0878ZM11.7092 9.70638C11.7092 10.6433 10.9497 11.4028 10.0128 11.4028C9.07584 11.4028 8.31633 10.6433 8.31633 9.70638C8.31633 8.76947 9.07584 8.00995 10.0128 8.00995C10.9497 8.00995 11.7092 8.76947 11.7092 9.70638Z"
     fill="#D72D1D"
     id="path2" />
</svg>
