<svg width="20" height="20" viewBox="0 0 20 20" fill="none" xmlns="http://www.w3.org/2000/svg">
<g clip-path="url(#clip0_863_3034)">
<path d="M10 20C15.5228 20 20 15.5328 20 10.0222C20 4.51162 15.5228 0.0444031 10 0.0444031C4.47715 0.0444031 0 4.51162 0 10.0222C0 15.5328 4.47715 20 10 20Z" fill="#9BC3DF"/>
<path d="M9.99986 19.9052C15.4702 19.9052 19.9048 15.4804 19.9048 10.0223C19.9048 4.56407 15.4702 0.139343 9.99986 0.139343C4.52954 0.139343 0.0949707 4.56407 0.0949707 10.0223C0.0949707 15.4804 4.52954 19.9052 9.99986 19.9052Z" fill="#C5E5F9"/>
<path d="M9.97058 10.0761V0.401245C10.8276 0.401245 11.485 0.481711 12.3165 0.688703L9.97058 10.0761Z" fill="#1CA75E"/>
<path d="M9.97053 10.0761L12.3159 0.688721C13.1474 0.895713 13.7659 1.13267 14.5222 1.53389L9.96997 10.0766L9.97053 10.0761Z" fill="#E30613"/>
<path d="M9.97053 10.076L14.5222 1.53387C15.2786 1.9351 15.9566 2.41734 16.5829 3.00058L9.96997 10.0766L9.97053 10.076Z" fill="#FFD600"/>
<path d="M9.97053 10.0761L16.5834 3.00003C17.2102 3.58327 17.6357 4.08938 18.1023 4.80636L9.96997 10.0755L9.97053 10.0761Z" fill="#004F9F"/>
<path d="M9.97058 10.0761L18.1029 4.80692C18.5696 5.5239 18.9278 6.27362 19.1925 7.0866L9.97058 10.0766V10.0761Z" fill="#20232B"/>
<path d="M9.97058 10.076L19.1925 7.08603C19.4572 7.89901 19.5835 8.54829 19.6435 9.40068L9.97058 10.0755V10.076Z" fill="#DAE7EF"/>
<path d="M9.97058 10.0761L19.6435 9.40125C19.7031 10.2542 19.6686 10.914 19.5201 11.7564L9.97058 10.0766V10.0761Z" fill="#1CA75E"/>
<path d="M9.97058 10.0761L19.5201 11.7559C19.371 12.5977 19.1207 13.3896 18.7587 14.1649L9.97058 10.0761Z" fill="#E30613"/>
<path d="M9.97058 10.0761L18.7587 14.1649C18.3966 14.9396 18.0457 15.5001 17.5062 16.1649L9.97058 10.0761Z" fill="#004F9F"/>
<path d="M10.0539 10.0761L17.5055 16.1649C16.9721 16.8291 16.3754 17.4007 15.6896 17.9035L10.0533 10.0761H10.0539Z" fill="#FFD600"/>
<path d="M9.97058 10.0761L15.6702 17.9035C14.9773 18.4063 14.3977 18.7265 13.6029 19.0467L9.97058 10.0761Z" fill="#DAE7EF"/>
<path d="M9.97058 10.0761L13.6029 19.0467C12.8087 19.3669 12.1686 19.5378 11.3199 19.6571L9.97058 10.0761Z" fill="#1CA75E"/>
<path d="M9.97069 10.0761L11.32 19.6571C10.4712 19.7759 9.63921 19.7831 8.78882 19.6793L9.97069 10.0766V10.0761Z" fill="#FFD600"/>
<path d="M9.9707 10.0761L8.78883 19.6787C7.93844 19.5744 7.2955 19.4146 6.49573 19.1083L9.9707 10.0761Z" fill="#E30613"/>
<path d="M9.97054 10.0761L6.49557 19.1083C5.69579 18.8019 4.96442 18.4057 4.27087 17.9029L9.97054 10.0755V10.0761Z" fill="#20232B"/>
<path d="M9.97049 10.0761L4.27082 17.9035C3.57783 17.4007 3.09285 16.9501 2.54224 16.2953L9.97049 10.0761Z" fill="#1CA75E"/>
<path d="M9.97048 10.0761L2.54223 16.2953C1.99162 15.6405 1.63067 15.0861 1.25525 14.3175L9.97048 10.0761Z" fill="#004F9F"/>
<path d="M9.9705 10.0761L1.25526 14.3175C0.879846 13.5489 0.615663 12.7614 0.452148 11.9224L9.9705 10.0761Z" fill="#DAE7EF"/>
<path d="M9.9706 10.0761L0.451693 11.9224C0.288178 11.0833 0.242016 10.4235 0.287066 9.56998L9.97004 10.0761H9.9706Z" fill="#E30613"/>
<path d="M9.97052 10.076L0.286987 9.56993C0.332037 8.71643 0.483316 7.89956 0.748055 7.08658L9.96996 10.0766L9.97052 10.076Z" fill="#004F9F"/>
<path d="M9.97051 10.0761L0.748047 7.08659C1.01279 6.27361 1.29254 5.67427 1.74693 4.94952L9.96996 10.0766L9.97051 10.0761Z" fill="#DAE7EF"/>
<path d="M9.97053 10.0761L1.74695 4.94957C2.20079 4.22426 2.61792 3.71094 3.23416 3.11716L9.96997 10.0766L9.97053 10.0761Z" fill="#E30613"/>
<path d="M9.97068 10.076L3.23486 3.11654C3.8511 2.52275 4.52018 2.02886 5.2699 1.61432L9.97068 10.076Z" fill="#FFD600"/>
<path d="M9.9705 10.076L5.26917 1.61433C6.01833 1.19979 6.6329 0.952286 7.46049 0.730865L9.96994 10.076H9.9705Z" fill="#20232B"/>
<path d="M9.97046 10.0761L7.46045 0.730879C8.28804 0.509458 9.1134 0.401245 9.9699 0.401245V10.0761H9.97046Z" fill="#FFD600"/>
<path opacity="0.28" d="M10.0427 19.6438C15.3447 19.6438 19.6428 15.3552 19.6428 10.065C19.6428 4.77475 15.3447 0.486176 10.0427 0.486176C4.74074 0.486176 0.442627 4.77475 0.442627 10.065C0.442627 15.3552 4.74074 19.6438 10.0427 19.6438Z" stroke="white" stroke-miterlimit="10"/>
<path opacity="0.15" d="M10.055 18.9323C14.9565 18.9323 18.9299 14.9677 18.9299 10.0772C18.9299 5.18661 14.9565 1.22202 10.055 1.22202C5.15358 1.22202 1.18018 5.18661 1.18018 10.0772C1.18018 14.9677 5.15358 18.9323 10.055 18.9323Z" stroke="white" stroke-miterlimit="10"/>
<g filter="url(#filter0_d_863_3034)">
<path d="M10.2324 0C10.7307 0.00889825 11.2318 0.0561702 11.7111 0.197986C11.6922 0.214114 11.6543 0.246926 11.6348 0.263611C11.574 0.703518 11.6387 1.14787 11.6415 1.59056C10.7368 1.32751 9.75252 1.32528 8.84622 1.58278C8.78769 1.11784 8.85235 0.646236 8.81055 0.179077C9.27206 0.0467158 9.75419 0.00556141 10.2324 0" fill="#D7E7F1"/>
<path d="M8.18896 0.421585C8.38795 0.322036 8.59529 0.239171 8.81044 0.179108C8.85224 0.646266 8.78759 1.11732 8.84611 1.58281C8.7207 1.62229 8.59585 1.66456 8.47434 1.71294C8.36454 1.28583 8.29041 0.850926 8.18896 0.421585Z" fill="#C3DCED"/>
<path d="M11.7115 0.198005C11.9072 0.256956 12.0956 0.33704 12.279 0.426023C12.1775 0.854807 12.0978 1.28748 11.9975 1.71627C11.8804 1.66955 11.7617 1.6284 11.6419 1.59003C11.6391 1.14789 11.5744 0.702981 11.6352 0.263073C11.6547 0.246389 11.6926 0.213577 11.7115 0.197449" fill="#C6DEEE"/>
<path d="M7.99555 0.520007C8.05853 0.486082 8.12374 0.45327 8.18896 0.42157C8.2904 0.850354 8.36453 1.28581 8.47433 1.71293C8.17837 1.83528 7.88964 1.99044 7.65945 2.21679C7.62099 2.16118 7.58364 2.10334 7.56804 2.0366C7.4783 1.7196 7.40528 1.39871 7.31387 1.08171C7.41309 0.944342 7.53794 0.828109 7.67059 0.722998C7.77817 0.654593 7.88296 0.581738 7.99555 0.520007ZM12.279 0.426019C12.347 0.459944 12.415 0.494424 12.4836 0.530573C12.5895 0.589524 12.692 0.655705 12.7929 0.724666C12.9272 0.828109 13.051 0.948235 13.1524 1.0856C13.0432 1.47045 12.9573 1.86142 12.8353 2.24182C12.5978 2.00824 12.3041 1.8414 11.9975 1.71571C12.0978 1.28692 12.1781 0.854247 12.279 0.425463V0.426019ZM9.16325 3.68055C9.27974 3.6572 9.40014 3.65219 9.51663 3.68389C9.49378 3.94583 9.53001 4.21334 9.66768 4.44191C9.56345 4.45748 9.45978 4.47361 9.35666 4.49252C9.29479 4.50475 9.23404 4.51755 9.17329 4.53089C9.15879 4.26784 9.18332 4.00423 9.16437 3.74173V3.68055H9.16325ZM8.22128 5.07257C8.58581 4.88905 8.97709 4.76614 9.38007 4.69829C9.40404 4.70775 9.45197 4.72721 9.4765 4.73666C9.31486 4.82064 9.1482 4.89405 8.99994 5.00028C8.39184 5.40181 7.98551 6.05138 7.79378 6.74489C7.62823 7.32216 7.56915 7.92724 7.58643 8.52676C7.29882 8.57459 7.01289 8.6252 6.72974 8.68971C6.7002 8.69249 6.64168 8.69861 6.61269 8.70139C6.56086 8.11299 6.58984 7.51737 6.72807 6.94232C6.87856 6.47182 7.10096 6.01746 7.43928 5.65207C7.67673 5.43017 7.9281 5.21661 8.22128 5.07202V5.07257ZM10.9502 4.71887C11.2841 4.71219 11.6023 4.82509 11.9173 4.92353C12.2394 5.03976 12.5281 5.22996 12.7974 5.43907C13.1914 5.76942 13.4617 6.21767 13.6563 6.68761C13.8675 7.33718 13.9104 8.02735 13.8525 8.70473C13.8263 8.70195 13.7733 8.69472 13.7471 8.69082C13.4623 8.62854 13.1758 8.57404 12.8888 8.52843C12.8832 7.69088 12.7951 6.82386 12.4055 6.06862C12.1781 5.60925 11.8147 5.22384 11.3816 4.95078C11.2456 4.85957 11.0962 4.79228 10.9513 4.71831L10.9502 4.71887ZM6.78269 8.92941C6.97945 8.89715 7.17564 8.86156 7.37017 8.81651C7.4404 8.82041 7.51119 8.82541 7.58197 8.83153C7.66446 10.2519 8.01115 11.6412 8.44758 12.9909C8.69338 13.8396 8.9665 14.6816 9.14542 15.548C9.2463 16.0814 9.28365 16.6336 9.18387 17.1703C9.09191 17.6391 8.94142 18.0935 8.76807 18.5384C8.62538 18.9794 8.28482 19.3426 8.23299 19.8136C8.05351 19.7742 7.87571 19.7297 7.69958 19.6802C7.78486 19.2408 8.09922 18.9055 8.27535 18.5056C8.50722 18.0301 8.67387 17.5262 8.79761 17.0129C8.88066 16.6848 8.87397 16.3394 8.81322 16.008C8.6421 15.2055 8.24135 14.478 7.94092 13.7194C7.4822 12.6444 7.14499 11.5221 6.88636 10.3837C6.80109 9.93046 6.71804 9.47721 6.64669 9.02173C6.69128 8.99058 6.73643 8.96 6.78213 8.92997L6.78269 8.92941ZM12.3676 11.8052C12.634 10.8309 12.8224 9.83203 12.8737 8.82207C12.954 8.82207 13.0348 8.82207 13.1156 8.82374C13.3068 8.86935 13.5008 8.90216 13.6936 8.94164C13.7226 8.95221 13.78 8.9739 13.8084 8.98502C13.7694 9.43717 13.6697 9.88152 13.5866 10.327C13.3614 11.357 13.0671 12.3725 12.6736 13.3518C12.3855 14.1043 12.0126 14.8228 11.7617 15.5898C11.5951 16.0903 11.5394 16.6397 11.7004 17.1503C11.8537 17.7187 12.0505 18.2798 12.3386 18.7953C12.5075 19.0773 12.7059 19.3515 12.7628 19.6829C12.5878 19.7302 12.4122 19.7725 12.2366 19.8142C12.2004 19.6001 12.1313 19.3921 12.0193 19.2058C11.8877 18.9711 11.769 18.7292 11.6731 18.4778C11.5087 18.0468 11.3655 17.6063 11.2785 17.1531C11.1999 16.7076 11.2127 16.2493 11.2785 15.8028C11.4563 14.7644 11.8002 13.7645 12.0939 12.7545C12.1954 12.4414 12.2874 12.125 12.3682 11.8058" fill="white"/>
<path d="M7.07695 2.02049C7.03347 1.69181 7.11318 1.34867 7.31384 1.08173C7.40525 1.39817 7.47826 1.71906 7.568 2.03662C7.58305 2.10336 7.62039 2.1612 7.65941 2.21681C7.53511 2.33972 7.42921 2.48209 7.3601 2.64281C7.35397 2.66005 7.3417 2.69509 7.33557 2.71233C7.31495 2.82467 7.30157 2.93868 7.29711 3.05269C7.20515 2.71344 7.11039 2.37197 7.07695 2.02105" fill="#A8CEE6"/>
<path d="M13.1525 1.08557C13.2935 1.28245 13.3866 1.51769 13.3944 1.76128C13.4022 2.21732 13.2729 2.66112 13.1502 3.09602C13.1608 2.96811 13.1519 2.83908 13.1285 2.71339C13.1268 2.7045 13.124 2.68614 13.1218 2.67669C13.0488 2.51875 12.9546 2.3697 12.8353 2.24179C12.9574 1.86083 13.0432 1.46986 13.1525 1.08557ZM13.6552 6.68869C13.7349 6.39616 13.6279 6.09306 13.6876 5.80109C13.7316 5.85726 13.7773 5.91398 13.8224 5.97015C13.9178 5.97572 14.0131 5.98072 14.1095 5.98628C14.1073 6.12254 14.0883 6.25824 14.0894 6.39505C14.129 6.52908 14.1976 6.65254 14.2449 6.78434C14.3826 7.16141 14.4517 7.56183 14.4606 7.96336C14.4696 8.25756 14.4484 8.55176 14.4161 8.84373C14.1914 8.79924 13.9685 8.74641 13.7461 8.69191C13.7728 8.69524 13.8258 8.70247 13.8514 8.70581C13.9094 8.02899 13.8665 7.33826 13.6552 6.68869Z" fill="#A9CFE7"/>
<path d="M8.84602 1.58222C9.75232 1.32473 10.7366 1.3264 11.6413 1.59001C11.7611 1.62838 11.8798 1.66954 11.9969 1.71625C12.3034 1.84194 12.5977 2.00878 12.8352 2.24236C12.9545 2.36972 13.0487 2.51876 13.1217 2.67726C13.0163 2.70173 12.9087 2.71953 12.8006 2.71341C12.5019 2.7034 12.2031 2.70285 11.906 2.72843C11.7282 2.70952 11.5493 2.69784 11.3721 2.7301C11.2684 2.66114 11.1569 2.60274 11.0443 2.54991C10.5644 2.39252 10.0394 2.3814 9.55166 2.50875C9.41789 2.55269 9.28858 2.61108 9.16707 2.68116L9.14756 2.69339C8.97701 2.63667 8.79697 2.67059 8.62251 2.66392C8.20169 2.64946 7.77865 2.69061 7.3595 2.64334C7.42861 2.48261 7.53451 2.34024 7.65881 2.21734C7.88901 1.99099 8.17773 1.83582 8.4737 1.71347C8.5952 1.66509 8.72006 1.62282 8.84547 1.58334L8.84602 1.58222ZM9.57675 1.58167C9.07678 1.6345 8.55061 1.74851 8.14763 2.06162C8.33324 2.07051 8.52219 2.02714 8.70501 2.07663C8.89396 2.11834 8.98035 2.33413 9.1693 2.37695C9.55334 2.4448 9.90225 2.18341 10.2885 2.2318C10.6196 2.2279 10.9195 2.44925 11.2533 2.37194C11.4434 2.33357 11.5315 2.12057 11.7182 2.07774C11.8993 2.02714 12.0872 2.07496 12.2722 2.06162C11.6859 1.60614 10.91 1.58834 10.2027 1.53439C9.99422 1.5533 9.78632 1.58278 9.5773 1.58167" fill="#598FAA"/>
<path d="M9.57738 1.58112C9.78695 1.58223 9.99485 1.55275 10.2028 1.53384C10.9101 1.58779 11.6859 1.60559 12.2723 2.06107C12.0873 2.07441 11.9 2.02658 11.7183 2.07719C11.5315 2.12057 11.4435 2.33357 11.2534 2.37139C10.919 2.4487 10.6197 2.2268 10.2886 2.23124C9.90233 2.18286 9.55341 2.44425 9.16938 2.3764C8.98098 2.33302 8.89403 2.11779 8.70508 2.07608C8.52226 2.02603 8.33331 2.06996 8.14771 2.06107C8.55069 1.74796 9.07685 1.63395 9.57682 1.58112" fill="#6094AF"/>
<path d="M9.55178 2.50818C10.0395 2.38083 10.5645 2.39195 11.0444 2.54934C10.9698 2.61886 10.9107 2.70228 10.8399 2.77569C10.4029 2.80294 9.96368 2.76957 9.52559 2.78181C9.53004 2.69004 9.54063 2.59939 9.55178 2.50818ZM11.6024 3.55373C11.9429 3.40691 12.3253 3.35074 12.6909 3.42637C12.5466 3.4336 12.3989 3.43249 12.2606 3.47587C12.177 3.60322 12.2105 3.75783 12.2283 3.89854C12.2004 3.90632 12.1436 3.92189 12.1157 3.92968C12.0472 3.94914 11.9803 3.96972 11.9134 3.99308C11.8097 4.02978 11.7088 4.0715 11.6074 4.11321C11.6046 3.94748 11.599 3.78175 11.5974 3.61546L11.6029 3.55428L11.6024 3.55373ZM6.66289 6.00909C6.67181 6.32053 6.61775 6.6442 6.72755 6.94396C6.58876 7.51957 6.55978 8.11519 6.61217 8.70303C6.64116 8.70025 6.69968 8.69414 6.72922 8.69136C6.50181 8.74808 6.2744 8.80203 6.04476 8.84874C6.01243 8.55955 5.99627 8.26813 6.00073 7.97671C6.00965 7.57463 6.08099 7.1742 6.21309 6.79436C6.28611 6.59415 6.42489 6.40228 6.36414 6.17871C6.46112 6.11754 6.56034 6.06137 6.66234 6.00853" fill="#AACFE7"/>
<path d="M9.16713 2.68058C9.28837 2.61051 9.4174 2.55211 9.55087 2.50818C9.53975 2.59939 9.52974 2.69004 9.52473 2.7818C9.52139 2.89581 9.52195 3.00926 9.52195 3.12216C9.4135 3.06043 9.2906 3.04819 9.16936 3.0443C9.16658 2.92306 9.16602 2.80127 9.16658 2.68058" fill="#D2E5F0"/>
<path d="M10.8404 2.77573C10.9107 2.70232 10.9697 2.6189 11.045 2.54938C11.1576 2.60165 11.2685 2.66005 11.3727 2.72957C11.6336 2.92144 11.638 3.26346 11.6029 3.55432L11.5973 3.6155C11.5912 3.5888 11.5784 3.53375 11.5717 3.5065C11.5633 3.36802 11.5628 3.23065 11.5544 3.09273C11.4803 3.10051 11.4056 3.10774 11.332 3.11553C11.3131 3.01431 11.2952 2.91309 11.2774 2.81188C11.176 2.7913 11.0751 2.77239 10.9736 2.75459C10.9458 2.86026 10.9619 2.99262 10.8856 3.0766C10.4341 3.13221 9.9737 3.04379 9.52334 3.1222C9.52334 3.00875 9.52223 2.8953 9.52613 2.78184C9.96423 2.76961 10.4034 2.80298 10.8404 2.77573Z" fill="#B9D7EB"/>
<path d="M7.33515 2.71173C7.34128 2.69449 7.35355 2.65945 7.35968 2.64221C7.77882 2.69004 8.20187 2.64889 8.62269 2.66279C8.79771 2.66946 8.97719 2.63554 9.14774 2.69226C8.95155 2.82908 8.82001 3.04875 8.85512 3.29401C8.85512 3.37965 8.85679 3.46474 8.85958 3.55095C8.57086 3.43082 8.25761 3.37632 7.94492 3.39968C7.86243 3.4108 7.7805 3.4247 7.69912 3.44083C7.50738 3.23728 7.39702 2.9809 7.33459 2.71173" fill="#6698B3"/>
<path d="M9.14681 2.69284L9.16628 2.6806C9.16516 2.80184 9.16628 2.92308 9.16906 3.04432L9.17128 3.14999C9.07952 3.22395 8.96718 3.26121 8.85539 3.29458C8.82036 3.04932 8.95161 2.82965 9.14737 2.69284" fill="#BDD9EC"/>
<path d="M11.3722 2.72898C11.5494 2.69672 11.7284 2.7084 11.9062 2.72731C12.2032 2.70173 12.502 2.70229 12.8008 2.7123C12.9089 2.71841 13.0165 2.70062 13.1218 2.67615C13.124 2.68505 13.1268 2.7034 13.1285 2.71285C13.0728 2.98369 12.9423 3.22784 12.7668 3.43862C12.7478 3.43584 12.7105 3.42916 12.6915 3.42527C12.3259 3.35019 11.9429 3.4058 11.6029 3.55263C11.6381 3.26176 11.6336 2.91974 11.3727 2.72787" fill="#6799B4"/>
<path d="M7.33509 2.71176C7.39752 2.98093 7.50843 3.23731 7.69962 3.44086C7.63217 3.45532 7.5664 3.47201 7.50119 3.49203C7.41034 3.35688 7.33342 3.21118 7.29663 3.05212C7.30053 2.93755 7.31447 2.8241 7.33509 2.71176ZM12.7667 3.43919C12.9423 3.22842 13.0727 2.98427 13.1285 2.71343C13.1519 2.83967 13.1608 2.96814 13.1502 3.09605C13.1151 3.23954 13.0415 3.36912 12.959 3.4898C12.8955 3.46978 12.8308 3.45365 12.7662 3.43919" fill="#49839F"/>
<path d="M10.9735 2.754C11.075 2.77179 11.1759 2.79126 11.2773 2.81128C11.2951 2.9125 11.313 3.01372 11.3319 3.11493C11.4055 3.10715 11.4796 3.09992 11.5543 3.09213C11.5632 3.23005 11.5632 3.36742 11.5716 3.5059C11.4886 3.50089 11.4066 3.49533 11.3247 3.48977C11.3052 3.37243 11.2963 3.25174 11.2578 3.13773C11.1859 3.06043 11.0688 3.1116 10.9769 3.10325C10.9613 3.22727 10.9446 3.35129 10.9278 3.47531C10.463 3.55985 9.98587 3.45195 9.5199 3.53315C9.52213 3.39634 9.5199 3.25897 9.52268 3.12216C9.97305 3.04319 10.4334 3.13162 10.8849 3.07656C10.9613 2.99203 10.9451 2.86022 10.973 2.754" fill="#C7DFEE"/>
<path d="M9.16983 3.04431C9.29107 3.04765 9.41454 3.06044 9.52243 3.12217C9.51965 3.25954 9.52131 3.3969 9.51965 3.53316C9.51853 3.57153 9.51686 3.64717 9.51575 3.68443C9.40008 3.65217 9.27995 3.65773 9.16372 3.68109C9.16093 3.50368 9.17039 3.32683 9.17261 3.14998L9.17039 3.04431" fill="#E6F1F7"/>
<path d="M10.9769 3.10323C11.0689 3.11213 11.1859 3.06041 11.2578 3.13771C11.2963 3.25172 11.3052 3.37185 11.3247 3.48975C11.4067 3.49531 11.4886 3.50087 11.5716 3.50588C11.5783 3.53257 11.5911 3.58763 11.5973 3.61488C11.5995 3.78117 11.6045 3.9469 11.6073 4.11263C11.6073 4.15712 11.6062 4.24443 11.6056 4.28837C11.6118 4.38681 11.5845 4.49748 11.6251 4.58924C11.76 4.63651 11.9005 4.66821 12.037 4.71548C11.9964 4.785 11.9568 4.85508 11.9167 4.92515C11.6017 4.82671 11.2835 4.71382 10.9496 4.72049C11.0951 4.79446 11.2439 4.86175 11.3799 4.95296C11.3543 5.24994 11.4005 5.54636 11.3827 5.84278C11.391 6.09972 11.3671 6.35666 11.3805 6.61359C11.3883 6.7504 11.3805 6.88833 11.3537 7.02291C10.696 6.5007 9.67934 6.52016 9.04616 7.07463C9.01829 6.64807 9.04448 6.2204 9.02721 5.79329C9.00881 5.52967 9.06957 5.26161 8.99878 5.00245C9.14648 4.89623 9.3137 4.82226 9.47534 4.73884C9.45081 4.72939 9.40288 4.70992 9.37891 4.70047C9.36999 4.63262 9.36219 4.56366 9.35606 4.49525C9.45917 4.47579 9.56229 4.46022 9.66707 4.44464C9.5294 4.21663 9.49317 3.94857 9.51603 3.68662C9.51714 3.64881 9.51881 3.57317 9.51993 3.53535C9.98534 3.45416 10.463 3.56205 10.9273 3.47752C10.9435 3.3535 10.9602 3.22948 10.9764 3.10546L10.9769 3.10323ZM10.8025 4.44909C10.9725 4.47468 11.1441 4.49859 11.3164 4.51194C11.3336 4.34287 11.3119 4.17436 11.2913 4.00696C11.1937 3.98138 11.0928 3.98138 10.9936 3.98194C10.924 4.13543 10.8682 4.29449 10.8019 4.44854" fill="#DBEBF2"/>
<path d="M8.85568 3.29456C8.9669 3.26175 9.07925 3.22393 9.17156 3.14996C9.16934 3.32682 9.15989 3.50367 9.16267 3.68108V3.74225C9.14265 3.78674 9.12207 3.83179 9.10093 3.87573C9.02252 3.88129 8.94466 3.88741 8.86736 3.89352C8.86736 3.77896 8.86346 3.66495 8.86013 3.55094C8.85735 3.4653 8.85512 3.37965 8.85568 3.294" fill="#CFE3F0"/>
<path d="M7.94531 3.39967C8.25744 3.37632 8.57069 3.43137 8.85997 3.55094C8.86276 3.66495 8.86777 3.77896 8.86722 3.89353C8.86554 3.96805 8.86387 4.04369 8.8622 4.11876C8.76187 4.0765 8.66266 4.03312 8.56177 3.99363C8.49433 3.96972 8.42689 3.94747 8.35777 3.9319C8.25187 3.91355 8.14374 3.90521 8.03672 3.90409C8.00272 3.73447 8.11866 3.5148 7.94531 3.39912" fill="#AFD1E8"/>
<path d="M7.50179 3.49204C7.56644 3.47146 7.63277 3.45478 7.70021 3.44087C7.78103 3.42475 7.86297 3.41084 7.94602 3.39972C8.11936 3.51484 8.00287 3.73452 8.03743 3.90469C7.82284 3.94919 7.61716 4.03149 7.43267 4.14884C7.43546 3.93918 7.431 3.73062 7.42041 3.52151C7.44103 3.51428 7.48228 3.49982 7.50234 3.49259L7.50179 3.49204ZM12.3292 8.71031C12.5656 8.74145 12.8013 8.77426 13.0399 8.78594C13.0588 8.7954 13.0962 8.81486 13.114 8.82432C13.0332 8.8232 12.9524 8.82265 12.8721 8.82265C12.8214 9.8326 12.6324 10.8314 12.366 11.8058C12.2205 11.6395 12.3348 11.4165 12.3142 11.2224C12.2735 10.7141 12.3571 10.2013 12.2752 9.69468C12.2523 9.55731 12.3276 9.42717 12.3181 9.2898C12.3075 9.09627 12.2958 8.90162 12.3292 8.70919" fill="#C2DBED"/>
<path d="M12.2607 3.47534C12.3994 3.43196 12.5472 3.43307 12.691 3.42584C12.7099 3.42918 12.7478 3.43585 12.7662 3.43919C12.8303 3.45421 12.895 3.47033 12.9591 3.4898C12.9808 3.49814 13.0243 3.51316 13.046 3.5215C13.0399 3.73283 13.0399 3.94417 13.0421 4.15606C12.7991 4.002 12.5204 3.88966 12.2278 3.89801C12.2099 3.75786 12.1771 3.60325 12.2607 3.47534Z" fill="#BFDAEC"/>
<path d="M7.13598 3.65827C7.22739 3.60655 7.32215 3.56095 7.41969 3.5209C7.43028 3.73001 7.43474 3.93857 7.43195 4.14823C7.13208 4.39905 7.00389 4.79224 6.96933 5.16986C6.92474 5.25217 6.87959 5.36507 6.767 5.35951C6.60926 5.37063 6.43982 5.37619 6.3512 5.52857C6.35621 5.41901 6.3629 5.30945 6.37349 5.19989C6.43536 4.6254 6.61205 3.98139 7.13543 3.65827" fill="#D3E6F0"/>
<path d="M13.0465 3.52145C13.1429 3.56094 13.2371 3.60654 13.328 3.65882C13.8542 3.98361 14.0264 4.63151 14.091 5.20712C14.0938 5.23882 14.1005 5.3011 14.1044 5.33225C13.9378 5.50743 13.6931 5.35839 13.503 5.31278C13.4852 4.89178 13.3726 4.44298 13.0426 4.15601C13.0404 3.94468 13.0404 3.73334 13.0465 3.52145Z" fill="#D3E5F0"/>
<path d="M9.10106 3.8763C9.12164 3.83181 9.14277 3.78732 9.16335 3.74283C9.18281 4.00588 9.15834 4.26894 9.17224 4.53255C9.0688 4.55368 8.9648 4.57148 8.86192 4.59205V4.29841C8.86081 4.23891 8.86081 4.1794 8.86192 4.11989C8.86359 4.04481 8.86526 3.96918 8.86692 3.89465C8.94478 3.88854 9.02264 3.88242 9.1005 3.87686" fill="#E5F0F6"/>
<path d="M7.4321 4.14826C7.61659 4.03091 7.82227 3.94861 8.03686 3.90411C8.14387 3.90578 8.252 3.91357 8.35791 3.93192C8.21243 3.93192 8.09371 4.01312 7.98168 4.09431C7.80109 4.1338 7.62217 4.19831 7.48171 4.32344C7.16679 4.60986 7.09935 5.062 7.10938 5.46631C7.06423 5.50969 7.02131 5.5553 6.9784 5.59979C6.96836 5.4563 6.96112 5.31282 6.96948 5.16933C7.00404 4.79171 7.13223 4.39797 7.4321 4.1477" fill="#93BCD9"/>
<path d="M12.1157 3.92913C12.1436 3.92135 12.2004 3.90577 12.2283 3.89799C12.5209 3.88965 12.7996 4.00199 13.0426 4.15604C13.3726 4.44301 13.4852 4.89237 13.503 5.31281C13.5019 5.40791 13.498 5.50301 13.4947 5.59811C13.4412 5.55028 13.3882 5.50301 13.3358 5.45574C13.3838 5.05587 13.2812 4.61096 12.983 4.32344C12.8331 4.19219 12.643 4.12044 12.4474 4.09319C12.3654 3.98975 12.2501 3.92635 12.1157 3.92858" fill="#94BCD8"/>
<path d="M7.98108 4.09486C8.09311 4.01366 8.21239 3.93246 8.35731 3.93246C8.42587 3.94748 8.49387 3.97028 8.56131 3.9942C8.55852 4.03702 8.55239 4.12155 8.54961 4.16438C8.36679 4.10264 8.17226 4.09708 7.98108 4.09541" fill="#72A1BD"/>
<path d="M11.9135 3.99253C11.9802 3.96918 12.0464 3.94804 12.1153 3.92913C12.2494 3.92691 12.3645 3.99086 12.4462 4.09375C12.3066 4.09375 12.1665 4.10376 12.0297 4.13101C11.9908 4.08485 11.9518 4.03869 11.9135 3.99253Z" fill="#73A1BD"/>
<path d="M8.56124 3.99417C8.6619 4.03366 8.76089 4.07704 8.861 4.1193C8.85989 4.17881 8.85989 4.23832 8.861 4.29782C8.75811 4.25 8.65578 4.20272 8.54956 4.16491C8.55234 4.12208 8.55846 4.03755 8.56124 3.99473" fill="#5F8FA8"/>
<path d="M10.803 4.44692C10.8692 4.29287 10.9242 4.13381 10.9943 3.98032C11.0933 3.98032 11.1934 3.98032 11.2913 4.00534C11.3118 4.17274 11.3335 4.3407 11.3163 4.51032C11.1444 4.49641 10.9732 4.4725 10.8035 4.44747" fill="#FBFDFE"/>
<path d="M11.6074 4.11265C11.7086 4.07094 11.8098 4.02923 11.9127 3.99252C11.9511 4.03813 11.99 4.08429 12.0289 4.131C11.8832 4.16938 11.7431 4.22833 11.6057 4.28839C11.6057 4.2439 11.6068 4.15658 11.6074 4.11265Z" fill="#6491AA"/>
<path d="M9.17262 4.53196C9.23338 4.51862 9.29413 4.50583 9.356 4.49359C9.36213 4.562 9.36993 4.63096 9.37885 4.69881C8.97643 4.76666 8.58459 4.88956 8.22006 5.07309C8.22954 4.98188 8.22285 4.88956 8.16711 4.81393C8.39285 4.72328 8.62249 4.64041 8.86161 4.59147C8.96472 4.57089 9.06895 4.5531 9.17262 4.53196Z" fill="#D0E4F0"/>
<path d="M12.0365 4.71552C12.2433 4.78726 12.444 4.87569 12.6385 4.9758C12.6887 5.00249 12.7383 5.02919 12.7884 5.05755C12.7951 5.1849 12.8001 5.31282 12.7962 5.44017C12.527 5.23106 12.2383 5.04086 11.9161 4.92463C11.9557 4.85511 11.9958 4.78504 12.0365 4.71497V4.71552ZM13.503 5.31282C13.6931 5.35786 13.9377 5.50747 14.1044 5.33228C14.1144 5.54973 14.1094 5.7683 14.1094 5.9863C14.013 5.98074 13.9177 5.97574 13.8224 5.97018C13.7772 5.91401 13.7315 5.85672 13.6875 5.80111C13.6284 5.72825 13.5637 5.66096 13.4946 5.59812C13.4974 5.50302 13.5019 5.40792 13.503 5.31282Z" fill="#C4DCED"/>
<path d="M7.81996 4.97691C7.93367 4.91796 8.0496 4.86346 8.16777 4.81396C8.22406 4.8896 8.23019 4.98248 8.22072 5.07313C7.92754 5.21772 7.67616 5.43128 7.43872 5.65318C7.42032 5.52583 7.41587 5.39013 7.33337 5.28335C7.48721 5.16823 7.65052 5.06645 7.81996 4.97691Z" fill="#C2DCED"/>
<path d="M11.3799 4.95242C11.813 5.22549 12.1764 5.61089 12.4038 6.07027C12.7934 6.8255 12.8815 7.69253 12.8871 8.53008C12.7299 8.50561 12.5721 8.48892 12.4155 8.46723C12.3018 8.45055 12.1881 8.43164 12.0755 8.4144C12.061 8.36768 12.0488 8.32097 12.0365 8.2737C11.9925 7.78262 11.7322 7.33382 11.3531 7.02293C11.3799 6.88835 11.3877 6.75043 11.3805 6.61361C11.3665 6.35668 11.3905 6.09974 11.3827 5.8428C11.4005 5.54582 11.3543 5.2494 11.3799 4.95298" fill="#C9DFEE"/>
<path d="M7.79312 6.74596C7.98486 6.05245 8.39063 5.40288 8.99929 5.00134C9.07007 5.2605 9.00932 5.52856 9.02771 5.79217C9.04499 6.21929 9.01879 6.64696 9.04666 7.07352C8.73007 7.35549 8.5021 7.73867 8.43912 8.16022C8.42351 8.24476 8.40791 8.32873 8.39342 8.41271C8.31315 8.42661 8.23456 8.44163 8.15486 8.45442C7.96535 8.48 7.77417 8.49613 7.58578 8.52728C7.5685 7.92776 7.62758 7.32323 7.79312 6.7454" fill="#CAE0EE"/>
<path d="M12.7884 5.05753C12.9824 5.17265 13.1702 5.30167 13.3358 5.45628C13.3882 5.50355 13.4411 5.55082 13.4946 5.59865C13.5632 5.66094 13.6278 5.72879 13.6875 5.80164C13.6278 6.09362 13.7349 6.39616 13.6551 6.68924C13.4606 6.2193 13.1897 5.77105 12.7962 5.44071C12.8001 5.31335 12.7951 5.18544 12.7884 5.05808V5.05753ZM12.6725 13.3524C13.066 12.3736 13.3603 11.3575 13.5855 10.3275C13.7053 10.4966 13.6535 10.7101 13.6618 10.9031C13.6669 11.1389 13.5955 11.3925 13.7159 11.6116C13.6841 11.7006 13.6524 11.7902 13.62 11.8791C13.4952 12.2123 13.3675 12.5443 13.2237 12.8696C13.0526 13.2812 12.8715 13.6894 12.6742 14.0892C12.4473 14.5647 12.1803 15.0252 12.0243 15.5308C11.9969 15.5235 11.9429 15.5102 11.9156 15.5041C11.8637 15.5324 11.8119 15.5608 11.7606 15.5897C12.012 14.8234 12.3843 14.1043 12.6725 13.3518" fill="#B5D5EA"/>
<path d="M6.76709 5.36011C6.87968 5.36568 6.92483 5.25278 6.96942 5.17047C6.9605 5.31396 6.96775 5.45744 6.97834 5.60092C6.89529 5.68045 6.8167 5.775 6.70467 5.8117C6.58762 5.8384 6.46667 5.83395 6.34795 5.84006C6.34627 5.73662 6.34795 5.63262 6.35129 5.52918C6.43991 5.3768 6.60936 5.37124 6.76709 5.36011Z" fill="#C5DDED"/>
<path d="M7.10879 5.46685C7.18069 5.40234 7.25538 5.34116 7.33286 5.28333C7.41535 5.38955 7.41981 5.5258 7.4382 5.65316C7.09987 6.01854 6.87748 6.47235 6.72699 6.9434C6.61718 6.64365 6.67125 6.31997 6.66233 6.00853C6.56033 6.06137 6.46112 6.11809 6.36413 6.17871C6.35522 6.06582 6.34908 5.95292 6.34741 5.84002C6.46613 5.8339 6.58708 5.8378 6.70413 5.81166C6.81617 5.7744 6.89476 5.67985 6.97781 5.60088C7.02072 5.55639 7.06364 5.51023 7.10879 5.46741" fill="#B4D4EA"/>
<path d="M9.04686 7.0741C9.67948 6.51963 10.6967 6.50017 11.3544 7.02238C11.7334 7.33326 11.9937 7.78207 12.0377 8.27314C11.9419 8.23366 11.851 8.18472 11.7674 8.1241C11.6448 7.50622 11.1142 7.00236 10.4933 6.89725C9.85896 6.78157 9.18286 7.11581 8.8685 7.67251C8.74253 7.88551 8.68958 8.12966 8.65558 8.37158C8.59371 8.37825 8.53407 8.38715 8.47443 8.39605C8.46217 8.31763 8.44935 8.23922 8.44043 8.1608C8.50286 7.73925 8.73138 7.35607 9.04797 7.0741" fill="#7EB1D3"/>
<path d="M8.86788 7.6725C9.18224 7.1158 9.85834 6.78156 10.4926 6.89723C11.1136 7.00179 11.6442 7.50565 11.7668 8.12408C11.7735 8.20528 11.7768 8.28703 11.7818 8.36878C11.0116 8.35377 10.2413 8.31039 9.47096 8.34543C9.19952 8.36044 8.92752 8.36767 8.65552 8.37212C8.68952 8.1302 8.74247 7.88605 8.86844 7.67305" fill="#DAEAF2"/>
<path d="M11.7667 8.12412C11.8503 8.18474 11.9417 8.23368 12.0371 8.27317C12.0488 8.32044 12.0616 8.36715 12.0755 8.41387C12.1881 8.43111 12.3018 8.45002 12.4155 8.4667C12.4618 8.52844 12.5053 8.59406 12.5616 8.64745C12.7132 8.71641 12.896 8.69194 13.0392 8.78537C12.8007 8.77369 12.5649 8.74088 12.3286 8.70974C12.2349 8.70084 12.1413 8.69472 12.0477 8.68916C12.0097 8.86991 11.9596 9.04843 11.8888 9.21916C11.8085 9.18524 11.7288 9.15131 11.6486 9.11739C11.7216 8.97335 11.7584 8.81429 11.7578 8.65301C11.2177 8.60351 10.6759 8.58405 10.1336 8.57293C9.65037 8.60407 9.16322 8.59072 8.68388 8.66691C8.7162 8.86824 8.76804 9.07012 8.88063 9.24252C8.80204 9.28145 8.72345 9.32094 8.64598 9.36042C8.52837 9.14964 8.46538 8.91551 8.40463 8.68415C8.07856 8.70473 7.75919 8.78259 7.43201 8.78871C7.59643 8.68805 7.79653 8.70084 7.97657 8.64967C8.06686 8.62242 8.10086 8.52232 8.15493 8.45503C8.23463 8.44223 8.31322 8.42722 8.39348 8.41331C8.40853 8.32878 8.42358 8.2448 8.43919 8.16083C8.44811 8.2398 8.46093 8.31766 8.47319 8.39607C8.53338 8.38718 8.59302 8.37828 8.65434 8.3716C8.92634 8.36771 9.19834 8.36048 9.46978 8.34491C10.2401 8.30987 11.0104 8.35325 11.7807 8.36827C11.7762 8.28707 11.7723 8.20532 11.7656 8.12357" fill="#99C1DC"/>
<path d="M7.58583 8.52787C7.77422 8.49673 7.9654 8.4806 8.15491 8.45502C8.10084 8.52231 8.06684 8.62242 7.97655 8.64967C7.79596 8.70083 7.59642 8.68804 7.43199 8.7887C7.41638 8.79593 7.38406 8.81039 7.36845 8.81762C7.17392 8.86267 6.97773 8.89771 6.78097 8.93052C6.53907 8.95944 6.2994 9.01449 6.07923 9.12072C6.07701 9.10793 6.07366 9.08234 6.07143 9.07011C6.06084 8.99614 6.05192 8.92273 6.04468 8.84821C6.27376 8.80149 6.50173 8.74755 6.72914 8.69082C7.01229 8.62631 7.29878 8.5757 7.58583 8.52787Z" fill="#7FB1D3"/>
<path d="M12.4155 8.46671C12.5727 8.48839 12.7304 8.50508 12.8871 8.52955C13.1741 8.5746 13.4606 8.62965 13.7454 8.69194C13.9678 8.747 14.1908 8.79928 14.4154 8.84377C14.4154 8.92107 14.4182 8.99893 14.4221 9.07623C14.4121 9.0779 14.3914 9.08124 14.3808 9.08291C14.149 9.04454 13.9294 8.94721 13.6914 8.9422C13.4985 8.90272 13.3045 8.86991 13.1134 8.8243C13.095 8.81485 13.0576 8.79538 13.0392 8.78593C12.8954 8.6925 12.7132 8.71752 12.5616 8.64801C12.5053 8.59406 12.4618 8.52844 12.4155 8.46726" fill="#85B5D5"/>
<path d="M8.68445 8.66686C9.16379 8.59067 9.6515 8.60402 10.1342 8.57288C10.6765 8.584 11.2183 8.60402 11.7584 8.65296C11.7595 8.81424 11.7222 8.9733 11.6491 9.11734C11.3933 9.62676 10.8738 10.0194 10.2891 10.0233C9.71783 10.0589 9.16937 9.7252 8.8812 9.24247C8.76861 9.07007 8.71678 8.86819 8.68445 8.66686Z" fill="#DBEAF2"/>
<path d="M7.43197 8.78922C7.75915 8.7831 8.07852 8.70524 8.40459 8.68466C8.4659 8.91602 8.52833 9.1496 8.64593 9.36093C8.79587 9.67126 9.07177 9.89093 9.35715 10.0717C9.25459 10.3175 9.37164 10.5805 9.30698 10.8314C9.26853 11.011 9.30977 11.1929 9.312 11.373C9.32649 11.6255 9.29305 11.8802 9.32761 12.1322C9.34266 12.259 9.5043 12.2523 9.58344 12.3246C9.59348 12.3752 9.59682 12.4275 9.60295 12.4792C9.67764 12.4976 9.754 12.5159 9.8298 12.5354C9.89335 12.6911 10.0455 12.7539 10.1993 12.7856C10.2478 12.9286 10.3872 12.948 10.5165 12.9236C10.5711 12.6516 10.8961 12.5643 10.9602 12.2979C11.1625 12.2301 11.1212 11.9892 11.1257 11.8207C11.1068 11.5182 11.1452 11.2151 11.1185 10.9131C11.0934 10.6362 11.1614 10.3553 11.0867 10.0822C11.4256 9.87647 11.7438 9.59951 11.8888 9.22078C11.9595 9.05005 12.0103 8.87153 12.0476 8.69078C12.1407 8.69634 12.2343 8.70246 12.3285 8.71136C12.2951 8.90378 12.3068 9.09843 12.3174 9.29197C12.3269 9.42933 12.2516 9.55947 12.2745 9.69684C12.3564 10.2029 12.2728 10.7162 12.3135 11.2246C12.3341 11.4186 12.2198 11.6417 12.3653 11.8079C12.2851 12.1272 12.1925 12.4436 12.0911 12.7567C12.0705 12.7395 12.0287 12.7044 12.008 12.6872C11.9194 12.9475 11.7176 13.1388 11.5566 13.354C11.2255 13.75 10.8782 14.1387 10.4591 14.4452C9.79748 14.2722 9.22338 13.8512 8.76856 13.3501C8.69275 13.2044 8.56957 13.0971 8.44472 12.9942C8.00885 11.6444 7.66161 10.2552 7.57911 8.83482C7.50833 8.82926 7.43754 8.82425 7.36731 8.8198C7.38292 8.81257 7.41524 8.79811 7.43085 8.79088" fill="#CDE2EF"/>
<path d="M6.0791 9.12126C6.29927 9.01504 6.53838 8.95998 6.78084 8.93106C6.73514 8.96109 6.68943 8.99168 6.6454 9.02282C6.71618 9.4783 6.79979 9.931 6.88507 10.3848C6.80481 10.5906 6.89399 10.8069 6.86779 11.0188C6.84438 11.2112 6.90068 11.4092 6.85441 11.5983C6.83156 11.6133 6.78586 11.645 6.76245 11.6606C6.67717 11.4304 6.59969 11.1968 6.52556 10.9632C6.43081 10.6607 6.34609 10.3559 6.26973 10.0483C6.19225 9.74303 6.13428 9.43214 6.0791 9.12182" fill="#ADD0E8"/>
<path d="M13.6919 8.94217C13.9299 8.94717 14.1495 9.0445 14.3814 9.08287C14.3429 9.40488 14.2721 9.72299 14.1958 10.0383C14.12 10.3453 14.0319 10.6495 13.9383 10.9521C13.8697 11.174 13.7967 11.3936 13.7159 11.6116C13.5955 11.3925 13.6668 11.1389 13.6618 10.9031C13.6534 10.7107 13.7053 10.4971 13.5854 10.3275C13.6685 9.88205 13.7677 9.43769 13.8073 8.98555C13.7789 8.97498 13.7214 8.95329 13.6919 8.94217Z" fill="#ABCFE7"/>
<path d="M10.2893 10.0233C10.874 10.0194 11.394 9.6268 11.6493 9.11737C11.7295 9.1513 11.8087 9.18522 11.8895 9.21914C11.7446 9.59788 11.4263 9.87483 11.0874 10.0806C10.5518 10.3537 9.88851 10.3548 9.35733 10.0712C9.07195 9.89096 8.79605 9.67073 8.64612 9.3604C8.72415 9.32092 8.80274 9.28143 8.88077 9.2425C9.16894 9.72523 9.71796 10.0589 10.2887 10.0233" fill="#B0D0E6"/>
<path d="M9.30764 10.8303C9.37174 10.5795 9.25525 10.317 9.35781 10.0706C9.88899 10.3542 10.5523 10.3531 11.0879 10.0801C11.162 10.3537 11.0946 10.634 11.1197 10.9109C11.1464 11.2129 11.108 11.516 11.1269 11.8186C11.1225 11.9871 11.1637 12.2284 10.9614 12.2957C10.8973 12.5621 10.5723 12.6494 10.5177 12.9214C10.3884 12.9464 10.2485 12.9264 10.2006 12.7835C10.0467 12.7518 9.89512 12.6889 9.83102 12.5332C9.75577 12.5137 9.67941 12.4954 9.60417 12.477C9.59803 12.4253 9.59525 12.3736 9.58466 12.3224C9.50551 12.2496 9.34443 12.2563 9.32882 12.13C9.29426 11.8786 9.32715 11.6239 9.31321 11.3709C9.31099 11.1907 9.26974 11.0083 9.3082 10.8292" fill="#DCEBF2"/>
<path d="M6.88459 10.3842C7.14321 11.5227 7.48042 12.645 7.93914 13.72C8.23957 14.4786 8.64033 15.206 8.81144 16.0085C8.71501 15.9735 8.61859 15.9379 8.52328 15.9028C8.41849 15.2394 8.05731 14.6599 7.77416 14.062C7.58354 13.6727 7.40796 13.2767 7.23964 12.8774C7.10029 12.5465 6.96875 12.2128 6.84223 11.8769C6.81491 11.8046 6.78816 11.7318 6.76196 11.66C6.78482 11.6445 6.83052 11.6128 6.85393 11.5977C6.90019 11.4087 6.8439 11.2107 6.86731 11.0182C6.89406 10.8064 6.80488 10.59 6.88459 10.3842Z" fill="#B7D6EA"/>
<path d="M11.5578 13.3518C11.7189 13.136 11.9207 12.9453 12.0093 12.685C12.0305 12.7022 12.0717 12.7373 12.0923 12.7545C11.7986 13.7639 11.4547 14.7639 11.2769 15.8027C11.2585 15.7365 11.2396 15.6709 11.2206 15.6058C10.9932 15.6971 10.8204 15.8817 10.5791 15.9457C10.4871 15.9457 10.4035 15.9857 10.3154 16.0052C10.1978 15.9918 10.112 15.89 9.99493 15.8772C9.68837 15.8439 9.41916 15.6754 9.14437 15.5491C8.96545 14.6827 8.69178 13.8407 8.44653 12.992C8.57139 13.0949 8.69457 13.2017 8.77037 13.3479C9.22463 13.849 9.79929 14.27 10.4609 14.443C10.8795 14.1371 11.2273 13.7483 11.5584 13.3518" fill="#BED9EC"/>
<path d="M11.7603 15.5897C11.8109 15.5608 11.8631 15.5325 11.9149 15.5041C11.9416 15.5108 11.9961 15.5241 12.0233 15.5308C11.862 16.0424 11.8926 16.6025 12.0834 17.1013C11.9532 17.1013 11.8259 17.1258 11.6996 17.1503C11.5389 16.6397 11.5945 16.0903 11.7608 15.5897" fill="#ACD0E7"/>
<path d="M9.14377 15.5491C9.41912 15.6759 9.68777 15.8439 9.99433 15.8772C10.1114 15.8906 10.1972 15.9923 10.3148 16.0051C10.4023 15.9857 10.4865 15.9456 10.5785 15.9456C10.8192 15.8817 10.9926 15.6965 11.22 15.6058C11.2395 15.6709 11.2585 15.7365 11.2763 15.8027C11.2111 16.2493 11.1983 16.7075 11.2763 17.153C11.3632 17.6063 11.5065 18.0467 11.6709 18.4777C11.5193 18.5055 11.3655 18.5222 11.2116 18.5211C11.1938 18.5389 11.1592 18.5751 11.1414 18.5929C11.1191 18.5055 11.0952 18.4188 11.0712 18.3326C11.0227 18.1641 10.9709 17.9956 10.9123 17.8304C10.8042 17.5379 10.6905 17.2214 10.4352 17.0234C10.2903 16.9072 10.0696 16.9528 9.95141 17.0846C9.76135 17.2832 9.65712 17.5434 9.55735 17.7954C9.4704 18.0256 9.418 18.2664 9.36672 18.5067C9.35502 18.5183 9.33105 18.5423 9.31935 18.5539L9.32771 18.5189C9.14767 18.6107 8.95203 18.4622 8.76587 18.5395C8.93921 18.0946 9.08971 17.6402 9.18167 17.1714C9.28144 16.6352 9.2441 16.0824 9.14321 15.5491" fill="#ACD0E8"/>
<path d="M8.52338 15.9029C8.61924 15.9379 8.71567 15.9735 8.81154 16.0085C8.87229 16.34 8.87898 16.6854 8.79593 17.0135C8.6722 17.5262 8.50554 18.0307 8.27367 18.5062C8.08806 18.5145 7.90301 18.5212 7.71741 18.5301C7.76033 18.45 7.80269 18.3705 7.84449 18.2904C8.21124 17.5496 8.64823 16.7593 8.52338 15.9029Z" fill="#A6CCE6"/>
<path d="M9.95198 17.0841C10.0701 16.9523 10.2914 16.9067 10.4358 17.0229C10.6911 17.2204 10.8048 17.5374 10.9129 17.8299C10.6392 17.9 10.3611 17.8093 10.0852 17.8377C9.9085 17.8549 9.72959 17.8433 9.55847 17.7949C9.65768 17.5435 9.76247 17.2832 9.95254 17.0841" fill="#D1E4F0"/>
<path d="M11.6994 17.1503C11.8265 17.1258 11.9536 17.1013 12.084 17.1013C12.2367 17.5334 12.4402 17.945 12.6509 18.351C12.696 18.4394 12.7428 18.5273 12.7908 18.6146C12.8097 18.6491 12.8292 18.6835 12.8487 18.718C12.6765 18.7319 12.507 18.7636 12.337 18.7948C12.0489 18.2792 11.8521 17.7181 11.6989 17.1497" fill="#A4CBE5"/>
<path d="M9.36731 18.5056C9.41803 18.2659 9.47098 18.0246 9.55793 17.7943C9.72905 17.8427 9.90797 17.8544 10.0847 17.8371C10.3606 17.8093 10.6387 17.8994 10.9124 17.8293C10.9709 17.9945 11.0227 18.163 11.0712 18.3315C11.0506 18.3961 11.0595 18.5256 10.9519 18.4945C10.7189 18.4767 10.4865 18.5117 10.2541 18.4878C9.95757 18.4995 9.6616 18.4511 9.36731 18.5051" fill="#C7DEED"/>
<path d="M11.0718 18.3321C11.0957 18.4183 11.1197 18.505 11.142 18.5923C11.1927 18.7931 11.2256 18.9983 11.2624 19.203C11.2836 19.3292 11.2902 19.4566 11.2964 19.5845C10.8103 19.664 10.3176 19.6395 9.82769 19.6429C9.60864 19.6418 9.39182 19.6051 9.17444 19.5812C9.18503 19.2347 9.24467 18.891 9.31991 18.5528C9.33162 18.5412 9.35559 18.5173 9.36729 18.5056C9.66159 18.4516 9.95755 18.5 10.2541 18.4883C10.4865 18.5123 10.7195 18.4772 10.9519 18.495C11.0595 18.5262 11.0506 18.3966 11.0712 18.3321" fill="#B4D0E4"/>
<path d="M8.76658 18.539C8.9533 18.4611 9.14894 18.6101 9.32842 18.5184L9.32006 18.5534C9.24481 18.8915 9.18517 19.2352 9.17458 19.5817C9.3914 19.6056 9.60878 19.6423 9.82783 19.6435C10.3178 19.6401 10.8105 19.664 11.2965 19.5851C11.2904 19.4571 11.2837 19.3292 11.2625 19.2035C11.5145 19.2052 11.7658 19.2052 12.0183 19.2058C12.1304 19.3926 12.1995 19.6001 12.2357 19.8142C10.9175 20.0617 9.54914 20.0622 8.23206 19.8142C8.28389 19.3431 8.62445 18.98 8.76714 18.539" fill="#96BEDC"/>
<path d="M11.2121 18.5206C11.366 18.5217 11.5198 18.5056 11.6714 18.4772C11.7673 18.7286 11.886 18.9705 12.0176 19.2052C11.7651 19.2041 11.5137 19.2041 11.2618 19.2024C11.225 18.9983 11.1926 18.7925 11.1414 18.5918C11.1592 18.574 11.1938 18.5378 11.2116 18.52" fill="#9DC5E0"/>
</g>
</g>
<defs>
<filter id="filter0_d_863_3034" x="5" y="0" width="10.4626" height="22" filterUnits="userSpaceOnUse" color-interpolation-filters="sRGB">
<feFlood flood-opacity="0" result="BackgroundImageFix"/>
<feColorMatrix in="SourceAlpha" type="matrix" values="0 0 0 0 0 0 0 0 0 0 0 0 0 0 0 0 0 0 127 0" result="hardAlpha"/>
<feOffset dy="1"/>
<feGaussianBlur stdDeviation="0.5"/>
<feComposite in2="hardAlpha" operator="out"/>
<feColorMatrix type="matrix" values="0 0 0 0 0 0 0 0 0 0 0 0 0 0 0 0 0 0 0.33 0"/>
<feBlend mode="normal" in2="BackgroundImageFix" result="effect1_dropShadow_863_3034"/>
<feBlend mode="normal" in="SourceGraphic" in2="effect1_dropShadow_863_3034" result="shape"/>
</filter>
<clipPath id="clip0_863_3034">
<rect width="20" height="20" fill="white"/>
</clipPath>
</defs>
</svg>
