<svg width="46" height="46" viewBox="0 0 46 46" fill="none" xmlns="http://www.w3.org/2000/svg">
<rect width="46" height="46" rx="23" fill="white"/>
<path d="M43.6911 26.7346C42.2871 23.8458 40.8891 20.9541 39.4969 18.0593C39.2172 17.4803 38.7753 17.1204 38.1268 17.1204C37.4782 17.1204 37.0132 17.4892 36.7246 18.0914C35.3467 20.9541 33.9641 23.8149 32.5767 26.674C32.4998 26.8277 32.4372 26.9882 32.3896 27.1533C32.0002 28.6566 33.9286 29.6358 34.9126 28.4344C35.0368 28.2685 35.142 28.0892 35.2261 27.8999C36.1027 26.0979 36.977 24.296 37.8488 22.4941C37.9219 22.3426 38.0021 22.1947 38.1215 21.9596C38.2194 22.1502 38.2693 22.2411 38.3139 22.3337C39.0349 23.8256 39.7571 25.3175 40.4805 26.8094C40.7139 27.2905 40.9348 27.7805 41.1932 28.2473C41.8184 29.3182 43.4131 29.1577 43.8123 27.9836C43.9452 27.5683 43.9014 27.1166 43.6911 26.7346H43.6911ZM34.4636 18.674C34.503 18.0488 34.1365 17.4689 33.5549 17.2362C33.3265 17.1537 33.085 17.1133 32.8422 17.1168C30.3371 17.1079 25.0667 17.1168 25.0667 17.1168C24.3698 17.2001 23.8326 17.7703 23.791 18.4709C23.7444 19.0431 24.0457 19.5874 24.5553 19.8518C24.7498 19.9452 24.9633 19.9922 25.1789 19.989H27.1941C27.1941 19.989 23.8355 26.8308 23.7625 27.0411C23.5559 27.611 23.7324 28.2493 24.2026 28.6321C24.6521 29.0099 25.2847 29.0802 25.8061 28.8103C26.139 28.6204 26.3977 28.3233 26.5402 27.9676C27.2529 26.4745 27.9745 24.982 28.705 23.4901C29.2164 22.4335 30.3584 19.9943 30.3584 19.9943C30.3584 19.9943 32.8796 20.021 33.268 19.9943C33.9397 19.9409 34.403 19.3458 34.4636 18.674ZM20.4716 17.1631C19.9371 17.2968 19.6199 17.6442 19.3901 18.1235C18.4992 19.9783 17.6084 21.8277 16.705 23.6789C16.6409 23.8108 16.5607 23.9355 16.4592 24.1119C16.3451 23.8892 16.256 23.727 16.1741 23.5596L13.5763 18.193C13.5131 18.0511 13.4405 17.9136 13.3589 17.7814C12.7864 16.8926 11.4869 16.8926 10.9144 17.7814C10.8332 17.9138 10.7606 18.0513 10.697 18.193C9.83111 19.9818 8.96519 21.7701 8.09927 23.5578C8.02087 23.7199 7.9211 23.8767 7.8035 24.1065C7.677 23.8642 7.59504 23.7163 7.52021 23.572L4.94382 18.2482C4.87267 18.0907 4.79174 17.9377 4.70151 17.7903C4.28072 17.1473 3.4322 16.9428 2.76468 17.3235C2.09716 17.7042 1.84117 18.5386 2.18036 19.2282C3.60574 22.2072 5.0436 25.1756 6.4868 28.1368C6.7189 28.661 7.24866 28.9891 7.82132 28.9635C8.39142 28.9703 8.91072 28.6367 9.14158 28.1154C9.18078 28.037 12.0298 22.1769 12.1456 21.956C12.4485 22.5743 14.387 26.5885 15.0979 28.0406C15.4168 28.6963 15.9389 29.0206 16.5785 28.9635C17.2182 28.9065 17.6048 28.5377 17.8721 27.9818C19.2416 25.131 20.6165 22.2832 21.9968 19.4384C22.0905 19.2536 22.1645 19.0596 22.2177 18.8593C22.416 17.8302 21.4946 16.9351 20.4716 17.1631ZM38.1482 26.1039C37.3473 26.0673 36.6777 26.7061 36.6765 27.5079C36.6596 28.3089 37.3007 28.9692 38.1019 28.976C38.9017 28.9702 39.549 28.3237 39.5557 27.5239C39.5529 26.7457 38.9264 26.1136 38.1482 26.1039Z" fill="#7814FF"/>
</svg>
