<svg width="46" height="46" viewBox="0 0 46 46" fill="none" xmlns="http://www.w3.org/2000/svg">
<path d="M16.6512 19.2154C17.547 18.021 18.7884 17.0899 20.2107 16.6224C20.013 16.8345 19.8112 17.0428 19.6161 17.2563C20.4529 17.1345 21.3107 17.2497 22.0951 17.5615C22.1802 18.3079 22.2536 19.0557 22.3596 19.7982C22.5469 19.0674 22.5613 18.3039 22.6648 17.5588C23.4532 17.2393 24.3148 17.1437 25.1582 17.2524C24.9435 17.0363 24.7248 16.8254 24.506 16.6147C25.9257 17.0782 27.2064 17.9818 28.0681 19.2076C27.8193 19.0819 27.5691 18.9602 27.3177 18.841C27.6372 19.5914 27.8769 20.4059 27.7812 21.2296C27.1343 21.6304 26.3656 21.8072 25.7436 22.2538C26.4796 22.1228 27.2102 21.9578 27.9436 21.8177C28.5015 22.4581 28.8472 23.2517 29.0201 24.0767C29.159 23.8253 29.2938 23.5725 29.4196 23.3146C29.4274 24.8154 28.9023 26.2677 28.0668 27.5013C28.1099 27.2158 28.1493 26.9304 28.1846 26.6449C27.5639 27.1909 26.8449 27.6323 26.0395 27.8406C25.4987 27.2972 25.0207 26.6934 24.4628 26.1695C24.7194 26.8963 25.259 27.4949 25.5092 28.2177C25.0875 28.9274 24.4353 29.4578 23.7373 29.8808C24.0044 29.9345 24.2729 29.9843 24.5401 30.0405C23.846 30.2291 23.1337 30.347 22.4147 30.3784C21.6578 30.3654 20.914 30.2121 20.178 30.0497C20.4543 30.004 20.724 29.9319 20.9951 29.8651C20.2827 29.4447 19.6515 28.8817 19.214 28.1745C19.5807 27.5001 19.9906 26.8492 20.3285 26.1603C19.7405 26.6593 19.2664 27.2774 18.7387 27.8366C17.9136 27.6611 17.2157 27.1753 16.5635 26.6685C16.608 26.9436 16.6591 27.2185 16.7154 27.4922C15.8353 26.2939 15.3351 24.8194 15.3338 23.3317C15.4727 23.5766 15.5997 23.828 15.7359 24.0756C15.9075 23.2453 16.2518 22.4465 16.8189 21.81C17.5575 21.9553 18.2895 22.1426 19.036 22.2434C18.3799 21.8479 17.6557 21.586 16.9682 21.2547C16.8988 20.4206 17.1057 19.5955 17.4383 18.836C17.1737 18.9587 16.9145 19.0896 16.6512 19.2154ZM19.2443 22.2915C19.6279 23.5382 20.0379 24.7757 20.449 26.0133C21.7389 26.0081 23.0276 26.0133 24.3175 26.0107C24.7157 24.7745 25.1177 23.5396 25.5237 22.3046C24.4879 21.528 23.4258 20.7868 22.3872 20.0141C21.3317 20.7619 20.2919 21.5346 19.2443 22.2915Z" fill="white"/>
<path d="M20.1491 0H20.7109C21.2544 2.75007 21.7363 5.51196 22.2667 8.26476C22.3662 8.71263 22.4238 9.1697 22.4304 9.62929C19.3607 10.1269 16.54 12.0101 14.9803 14.7118C14.8821 14.9881 14.5743 15.0784 14.3399 14.8964C11.7849 13.4284 9.24573 11.9315 6.69199 10.4596C6.53747 10.3365 6.23491 10.2317 6.34887 9.9816C6.48509 9.58747 6.74698 9.25344 6.96694 8.90384C8.53847 6.47587 10.6482 4.40284 13.0866 2.85096C15.2343 1.46144 17.6597 0.552629 20.1491 0Z" fill="#901480"/>
<path d="M24.1839 2.33232C29.2114 1.85298 34.3933 3.32363 38.4059 6.39204C38.791 6.70369 39.2218 6.97353 39.54 7.35721C39.709 7.56285 39.4732 7.76577 39.358 7.9229C37.5954 9.95276 35.8379 11.9865 34.0791 14.0177C33.8525 14.2679 33.6587 14.552 33.3942 14.7628C33.1375 14.9029 32.9503 14.6541 32.7617 14.5206C30.7764 12.8483 28.1389 11.9892 25.5512 12.1241C25.1125 12.1385 24.6817 12.2419 24.2429 12.2314C24.1041 12.0914 24.0595 11.9001 24.032 11.7129C23.6562 9.11337 23.2659 6.51656 22.8835 3.91828C22.8259 3.4887 22.7211 3.05923 22.7447 2.62443C23.1638 2.3455 23.706 2.41492 24.1839 2.33232Z" fill="#FF0000"/>
<path d="M21.3067 15.6888C23.3863 15.3784 25.5812 15.9939 27.2129 17.3179C28.7674 18.562 29.8151 20.4321 30.0298 22.4147C30.2407 24.1263 29.853 25.9074 28.9402 27.3714C27.9213 29.0333 26.249 30.2814 24.3632 30.7763C22.6805 31.2189 20.8431 31.0879 19.252 30.3742C17.5221 29.6095 16.0946 28.1886 15.3285 26.4585C14.4446 24.4798 14.4484 22.1225 15.3468 20.1478C16.3972 17.7723 18.7282 16.0227 21.3067 15.6888ZM16.6512 19.2154C16.9144 19.0896 17.1737 18.9588 17.4382 18.8356C17.1056 19.5951 16.8987 20.4202 16.9681 21.2544C17.6556 21.5857 18.3798 21.8476 19.0359 22.2431C18.2894 22.1422 17.5574 21.9549 16.8188 21.8096C16.2517 22.4461 15.9074 23.2449 15.7358 24.0752C15.5996 23.8278 15.4726 23.5762 15.3337 23.3314C15.3351 24.8191 15.8353 26.2937 16.7153 27.4919C16.6589 27.2182 16.6079 26.9431 16.5634 26.6682C17.2155 27.175 17.9136 27.6608 18.7386 27.8363C19.2663 27.277 19.7404 26.659 20.3284 26.16C19.9905 26.8488 19.5806 27.4996 19.2139 28.174C19.6513 28.8812 20.2825 29.4444 20.995 29.8648C20.7239 29.9316 20.4542 30.0036 20.1778 30.0494C20.9138 30.2117 21.6577 30.365 22.4146 30.3781C23.1336 30.3466 23.8459 30.2288 24.54 30.0402C24.2729 29.9838 24.0044 29.9341 23.7372 29.8804C24.4353 29.4574 25.0874 28.9271 25.509 28.2173C25.2589 27.4944 24.7194 26.896 24.4626 26.1692C25.0205 26.693 25.4985 27.2967 26.0394 27.8402C26.8448 27.632 27.5638 27.1907 28.1845 26.6445C28.1491 26.93 28.1098 27.2155 28.0667 27.501C28.9022 26.2673 29.4273 24.815 29.4195 23.3142C29.2937 23.5723 29.1588 23.8249 29.02 24.0764C28.8472 23.2513 28.5015 22.4577 27.9435 21.8173C27.2101 21.9574 26.4794 22.1225 25.7434 22.2534C26.3655 21.8069 27.1342 21.63 27.7811 21.2293C27.8767 20.4056 27.6371 19.591 27.3176 18.8406C27.569 18.9598 27.8192 19.0816 28.068 19.2073C27.2063 17.9815 25.9256 17.0779 24.5059 16.6143C24.7246 16.8252 24.9433 17.0359 25.1581 17.252C24.3147 17.1433 23.453 17.239 22.6647 17.5585C22.5612 18.3036 22.5468 19.0671 22.3595 19.7978C22.2534 19.0554 22.1801 18.3075 22.095 17.5611C21.3106 17.2494 20.4528 17.1341 19.616 17.2559C19.8111 17.0424 20.0128 16.8343 20.2106 16.6221C18.7884 17.09 17.5469 18.0211 16.6512 19.2154Z" fill="black"/>
<path d="M19.2441 22.2915C20.2918 21.5346 21.3316 20.7619 22.3871 20.0142C23.4255 20.7869 24.4876 21.528 25.5236 22.3047C25.1176 23.5396 24.7155 24.7746 24.3174 26.0109C23.0275 26.0135 21.7389 26.0082 20.4489 26.0135C20.0377 24.7759 19.6279 23.5382 19.2441 22.2915Z" fill="black"/>
<path d="M2.95571 10.2591C3.11285 10.161 3.27395 10.3103 3.41666 10.3653C6.02403 11.7705 8.63526 13.1665 11.244 14.5677C11.5072 14.6698 11.612 14.971 11.4248 15.1963C9.98558 17.8508 9.80607 21.1313 10.9167 23.9364C11.0712 24.1748 10.8394 24.3948 10.6167 24.4642C8.12979 25.4267 5.64034 26.3815 3.15216 27.3426C2.7645 27.4854 2.38866 27.6701 1.98407 27.763C1.85966 27.708 1.77058 27.6203 1.71695 27.4985C-0.433343 22.0625 -0.0483013 15.7045 2.70439 10.5514C2.75791 10.4229 2.84176 10.326 2.95571 10.2591Z" fill="#004AD0"/>
<path d="M38.838 10.8066C39.1497 10.6193 39.4143 11.0161 39.6238 11.1995C43.7332 15.2369 45.9897 21.0789 45.6295 26.8293C45.585 26.8882 45.4959 27.0034 45.4514 27.061C42.4864 26.9655 39.5216 26.7729 36.5567 26.6537C36.3105 26.621 35.9831 26.676 35.8142 26.4494C35.7723 26.0172 35.8116 25.5838 35.7907 25.1516C35.6611 22.4814 34.4549 19.8806 32.4971 18.0603C32.2457 17.8795 32.3753 17.5496 32.5704 17.3858C34.6684 15.2016 36.7231 12.9727 38.838 10.8066Z" fill="#FF7D00"/>
<path d="M8.24374 26.6617C8.45325 26.5923 8.69298 26.4338 8.90897 26.5661C9.01247 26.701 9.08178 26.8581 9.15779 27.0114C10.2263 29.3726 12.2313 31.2885 14.62 32.2851C15.0155 32.4619 15.4463 32.5496 15.8287 32.7552C15.9047 32.9674 15.834 33.19 15.775 33.3969C14.8688 36.278 13.9769 39.1629 13.0759 42.0454C12.9148 42.0781 12.7565 42.0768 12.598 42.0414C7.09918 40.3624 2.42922 36.2045 0.0981684 30.9518C0.00784093 30.7265 0.0221637 30.4777 0 30.2407C2.74098 29.0333 5.50025 27.8651 8.24374 26.6617Z" fill="#0090FF"/>
<path d="M32.9135 27.7722C33.144 27.6373 33.4137 27.6949 33.6639 27.7054C36.5646 27.9463 39.4692 28.1519 42.3687 28.3942C42.5979 28.3759 42.7289 28.6103 42.6882 28.8158C42.2849 34.6067 39.2283 40.1371 34.5675 43.5892C34.4038 43.6966 34.2244 43.7712 34.0502 43.855C32.2718 41.4939 30.5549 39.0869 28.7897 36.7152C28.6312 36.4913 28.4453 36.2739 28.3759 36.0041C28.4191 35.8351 28.5841 35.7487 28.7033 35.6401C30.8131 34.0765 32.268 31.6746 32.7224 29.0935C32.8061 28.6561 32.8153 28.207 32.9135 27.7722Z" fill="#FFE500"/>
<path d="M25.2774 34.4222C25.4646 34.2468 25.7279 34.3082 25.851 34.5243C27.4238 36.8436 28.9757 39.1786 30.5445 41.5017C30.7147 41.7545 30.8955 42.0046 31.0225 42.2861C30.8981 42.6227 30.5405 42.7615 30.2668 42.9514C27.5836 44.6367 24.5047 45.6857 21.3499 45.9804C20.0482 45.9594 18.7425 45.9437 17.4421 46C16.312 45.8507 15.1805 45.6765 14.0804 45.3701C13.8958 45.336 13.7674 45.1959 13.6299 45.0833C14.4785 42.1001 15.2787 39.1025 16.1181 36.1167C16.1535 35.8639 16.4181 35.7199 16.6459 35.8377C19.5493 36.6628 22.7801 36.1036 25.2774 34.4222Z" fill="#00AA00"/>
</svg>
