<svg width="46" height="46" viewBox="0 0 46 46" fill="none" xmlns="http://www.w3.org/2000/svg">
<path d="M43.264 9.06391L43.5563 8.3994L42.8599 8.19207L39.3513 7.15544C38.4848 6.90027 37.8416 6.20386 37.4322 5.08748L35.8746 0.850572L35.5663 0L34.8699 0.574136L31.4091 3.4395C30.6117 4.09869 29.8143 4.43361 29.0541 4.43361C28.0015 4.43361 26.7575 3.89668 25.9548 3.09927L23.7221 0.903733L23.2755 0.462499L22.829 0.903733L20.5962 3.10459C19.7935 3.902 18.5442 4.43892 17.4916 4.43892C16.7261 4.43892 15.934 4.10401 15.1313 3.44482L11.6758 0.579452L10.9847 0L10.6764 0.850572L9.12412 5.0928C8.71478 6.20918 8.06622 6.90558 7.20502 7.16075L3.69641 8.19739L3 8.3994L3.29238 9.06391L4.78089 12.4449C5.43476 13.9281 5.76436 15.4698 5.76436 17.0274C5.76436 19.1272 5.24338 20.4403 4.69051 21.8278C4.07385 23.3801 3.43592 24.9802 3.43592 27.7074C3.43592 35.3572 9.33676 40.3596 14.823 41.7684H14.8283H14.8336C16.1945 42.1033 17.0717 42.2787 17.9222 42.4435C18.6984 42.5977 19.4373 42.7466 20.5005 43.0017C21.0162 43.5546 22.7333 45.4046 22.8183 45.495L23.2861 46L23.754 45.495C23.7752 45.4737 25.5508 43.5599 26.0665 43.0017C27.1297 42.7412 27.8686 42.5977 28.6447 42.4435C29.4953 42.2734 30.3725 42.098 31.7334 41.7684H31.7387H31.744C37.2302 40.3596 43.1311 35.3572 43.1311 27.7074C43.1311 24.9802 42.4931 23.3748 41.8765 21.8225C41.3236 20.435 40.8026 19.1272 40.8026 17.0274C40.7973 15.4645 41.1269 13.9228 41.7808 12.4502L43.264 9.06391ZM40.1594 17.0274C40.1594 21.5939 42.4878 22.6305 42.4878 27.7074C42.4878 35.017 36.8315 39.8015 31.5792 41.1517C28.9265 41.8003 28.1238 41.8428 25.7262 42.4329C25.5295 42.6402 23.2808 45.0644 23.2808 45.0644C23.2808 45.0644 21.0321 42.6456 20.8354 42.4329C18.4379 41.8428 17.6352 41.8003 14.9824 41.1517C9.72483 39.8015 4.07385 35.017 4.07385 27.7074C4.07385 22.6358 6.40229 21.5939 6.40229 17.0274C6.40229 15.3794 6.05143 13.7474 5.36565 12.1898L3.87715 8.80874L7.38576 7.7721C8.45429 7.45845 9.24107 6.62915 9.72484 5.31076L11.2771 1.06853L14.7326 3.9339C15.6523 4.69409 16.5826 5.07685 17.4969 5.07685C18.7196 5.07685 20.1178 4.48145 21.0481 3.55645L23.2755 1.3556L25.5029 3.55645C26.4333 4.48145 27.8314 5.07685 29.0541 5.07685C29.9738 5.07685 30.8988 4.69409 31.8184 3.9339L35.2792 1.06853L36.8315 5.31076C37.3153 6.62915 38.102 7.45845 39.1706 7.7721L42.6792 8.80874L41.1907 12.1898C40.4996 13.7527 40.154 15.3794 40.1594 17.0274Z" fill="white"/>
<path d="M41.1907 12.1898L42.6792 8.80875L39.1706 7.77211C38.102 7.45847 37.3153 6.62916 36.8315 5.31077L35.2792 1.06854L31.8184 3.93391C30.8988 4.69411 29.9738 5.07686 29.0541 5.07686C27.8314 5.07686 26.4333 4.48146 25.5029 3.55647L23.2755 1.35561L21.0481 3.55647C20.1178 4.48146 18.7196 5.07686 17.4969 5.07686C16.5826 5.07686 15.6523 4.69411 14.7326 3.93391L11.2771 1.06854L9.72483 5.31077C9.24107 6.62916 8.45429 7.45847 7.38576 7.77211L3.87715 8.80875L5.36565 12.1898C6.05143 13.7474 6.40229 15.3794 6.40229 17.0274C6.40229 21.5939 4.07385 22.6359 4.07385 27.7074C4.07385 35.017 9.72483 39.8015 14.9824 41.1517C17.6352 41.8003 18.4379 41.8428 20.8354 42.4329C21.0321 42.6456 23.2808 45.0644 23.2808 45.0644C23.2808 45.0644 25.5295 42.6403 25.7262 42.4329C28.1238 41.8428 28.9265 41.8003 31.5792 41.1517C36.8315 39.8015 42.4878 35.017 42.4878 27.7074C42.4878 22.6305 40.1594 21.5939 40.1594 17.0274C40.154 15.3794 40.4996 13.7527 41.1907 12.1898ZM40.8079 22.4392C41.3661 23.8426 41.9084 25.3098 41.9084 27.7127C41.9084 34.3897 36.9378 39.1901 31.4304 40.6042C28.7085 41.29 27.4433 41.3591 25.4126 41.9279C25.1468 42.2043 23.2755 44.2298 23.2755 44.2298C23.2755 44.2298 21.3989 42.2043 21.1384 41.9279C19.1077 41.3591 17.8425 41.29 15.1207 40.6042C10.8678 39.5091 6.93921 36.3992 5.36565 31.9656C4.90315 30.6578 4.64267 29.2331 4.64267 27.7127C4.64267 22.7262 6.97111 21.78 6.97111 17.0327C6.97111 15.087 6.50329 13.3646 5.88663 11.9612L4.66393 9.18087L7.54524 8.3303C8.79984 7.95818 9.7142 7.01191 10.2618 5.51278L11.5323 2.03075L14.3658 4.37514C15.2961 5.14597 16.3646 5.651 17.4969 5.651C19.012 5.651 20.5165 4.89612 21.4521 3.9658L23.2755 2.16365L25.0989 3.9658C26.0346 4.89612 27.539 5.651 29.0541 5.651C30.1864 5.651 31.2496 5.14597 32.1853 4.37514L35.0187 2.03075L36.2893 5.51278C36.8368 7.01191 37.7512 7.95818 39.0058 8.3303L41.8871 9.18087L40.6644 11.9612C40.0477 13.3646 39.5799 15.087 39.5799 17.0327C39.5799 19.4941 40.2019 20.9294 40.8079 22.4392ZM40.0849 10.0261C40.0849 10.0261 35.6354 9.63806 34.434 4.23161C34.434 4.23161 31.7653 6.98002 29.0647 6.98002C25.5774 6.98002 23.2861 4.01896 23.2861 4.01896C23.2861 4.01896 20.9896 6.98002 17.5076 6.98002C14.8017 6.98002 12.1383 4.23161 12.1383 4.23161C10.9316 9.63806 6.48203 10.0261 6.48203 10.0261C6.48203 10.0261 8.28949 13.2264 8.28949 17.0221C8.28949 17.5218 8.26291 17.979 8.22039 18.4096C7.83763 22.1946 5.96105 23.715 5.96105 27.7127C5.96105 32.6141 9.32081 37.7654 15.4556 39.3177C18.3688 40.0513 20.3836 40.2427 21.8614 40.7743C22.0528 40.9497 23.2808 42.2894 23.2808 42.2894C23.2808 42.2894 24.5142 40.9551 24.7002 40.7743C26.1834 40.2374 28.1929 40.0513 31.1061 39.3177C37.2408 37.7654 40.6006 32.6194 40.6006 27.7127C40.6006 23.2578 38.2722 21.881 38.2722 17.0221C38.2722 13.2264 40.0849 10.0261 40.0849 10.0261ZM39.2928 27.7127C39.2928 33.3796 34.8752 36.9893 30.7818 38.0312C27.539 38.8552 25.4179 38.9509 23.9932 39.6367C23.9932 39.6367 23.4722 40.1098 23.2808 40.3278C23.0841 40.1098 22.5685 39.6367 22.5685 39.6367C21.1438 38.9509 19.0226 38.8552 15.7798 38.0312C11.6865 36.9893 7.26881 33.385 7.26881 27.7127C7.26881 23.6565 9.59725 22.168 9.59725 17.0221C9.59725 13.5507 8.28418 10.8767 8.28418 10.8767C8.28418 10.8767 11.3143 10.2654 12.7231 6.43246C12.7231 6.43246 14.7326 8.30904 17.5076 8.30904C20.979 8.30904 23.2861 5.86896 23.2861 5.86896C23.2861 5.86896 25.5933 8.30904 29.0647 8.30904C31.8397 8.30904 33.8439 6.43246 33.8439 6.43246C35.2526 10.2654 38.2828 10.8767 38.2828 10.8767C38.2828 10.8767 36.9697 13.5507 36.9697 17.0221C36.9644 22.168 39.2928 23.6565 39.2928 27.7127ZM35.4759 17.0221C35.4759 14.8212 35.9543 12.9181 36.3637 11.6901C35.545 11.2382 34.5456 10.4939 33.6791 9.28719L8.75731 28.0051C8.87426 31.6838 11.2559 34.3684 13.9724 35.7613L35.662 19.4728C35.545 18.7445 35.4759 17.9364 35.4759 17.0221ZM19.836 29.7009L17.9063 31.1469L15.8277 27.9679V32.7151L14.0043 34.0814V27.3672C14.0043 26.4209 13.1005 26.3943 13.1005 26.3943L15.6842 24.454L18.0126 28.021V22.705L19.836 21.3334V29.7009ZM27.1935 24.1775L25.4073 25.5172V22.4551L23.3499 24.0021V27.0641L21.4734 28.4729V21.7534C21.4734 20.8071 20.5696 20.7806 20.5696 20.7806L23.3499 18.6913V21.7853L25.4073 20.2383V17.1444L27.1935 15.8047V24.1775ZM33.9289 19.1219L28.7564 23.008V16.2938C28.7564 15.3422 27.8527 15.3209 27.8527 15.3209L30.633 13.2317V19.4622L33.9342 16.9849C33.9289 16.9849 33.8173 17.7823 33.9289 19.1219ZM30.2608 9.69653L9.02843 25.6448C9.63978 23.2419 11.0858 21.259 11.0858 17.0168C11.0858 14.8159 10.6073 12.9128 10.198 11.6847C11.1495 11.1638 12.351 10.2335 13.3079 8.63863C14.3339 9.21277 15.7905 9.79222 17.5023 9.79222C20.0965 9.79222 22.1219 8.6599 23.2808 7.80933C24.4397 8.6599 26.4652 9.79222 29.0594 9.79222C29.4741 9.79222 29.8728 9.76033 30.2608 9.69653ZM36.0607 21.3281C36.7518 23.7363 37.8043 25.3152 37.8043 27.7127C37.8043 32.5238 33.9768 35.6868 30.415 36.5906C27.8473 37.2444 24.7055 37.5793 23.754 38.1216C23.5413 38.2811 23.2808 38.5575 23.2808 38.5575C23.2808 38.5575 23.015 38.2758 22.8024 38.1216C21.8508 37.5793 18.709 37.2444 16.1413 36.5906C16.0456 36.564 15.9446 36.5374 15.849 36.5108L36.0607 21.3281Z" fill="black"/>
<path d="M40.8079 22.4392C40.2019 20.9294 39.5799 19.4941 39.5799 17.0327C39.5799 15.087 40.0477 13.3646 40.6644 11.9612L41.8871 9.18088L39.0058 8.33031C37.7512 7.95819 36.8368 7.01192 36.2893 5.51279L35.0187 2.03076L32.1853 4.37515C31.2496 5.14598 30.1864 5.65101 29.0541 5.65101C27.539 5.65101 26.0346 4.89613 25.0989 3.96581L23.2755 2.16366L21.4521 3.96581C20.5165 4.89613 19.012 5.65101 17.4969 5.65101C16.3646 5.65101 15.2961 5.14598 14.3658 4.37515L11.5323 2.03076L10.2618 5.51279C9.71421 7.01192 8.79984 7.95819 7.54525 8.33031L4.66393 9.18088L5.88663 11.9612C6.5033 13.3646 6.97111 15.087 6.97111 17.0327C6.97111 21.78 4.64267 22.7262 4.64267 27.7127C4.64267 29.2331 4.90316 30.6578 5.36566 31.9656C6.93921 36.3992 10.8678 39.5091 15.1207 40.6042C17.8425 41.29 19.1077 41.3591 21.1385 41.9279C21.3989 42.2043 23.2755 44.2298 23.2755 44.2298C23.2755 44.2298 25.1468 42.2043 25.4126 41.9279C27.4433 41.3591 28.7085 41.29 31.4304 40.6042C36.9378 39.1901 41.9084 34.3897 41.9084 27.7127C41.9084 25.3099 41.3661 23.8426 40.8079 22.4392ZM31.1061 39.3177C28.1929 40.0513 26.1834 40.2374 24.7002 40.7743C24.5142 40.9551 23.2808 42.2894 23.2808 42.2894C23.2808 42.2894 22.0528 40.9497 21.8614 40.7743C20.3836 40.2427 18.3688 40.0513 15.4556 39.3177C9.32082 37.7654 5.96106 32.6141 5.96106 27.7127C5.96106 23.715 7.83763 22.1946 8.22039 18.4096C8.26292 17.979 8.2895 17.5218 8.2895 17.0221C8.2895 13.2264 6.48203 10.0261 6.48203 10.0261C6.48203 10.0261 10.9316 9.63807 12.1383 4.23162C12.1383 4.23162 14.8017 6.98003 17.5076 6.98003C20.9896 6.98003 23.2861 4.01897 23.2861 4.01897C23.2861 4.01897 25.5774 6.98003 29.0647 6.98003C31.7653 6.98003 34.434 4.23162 34.434 4.23162C35.6354 9.63807 40.0849 10.0261 40.0849 10.0261C40.0849 10.0261 38.2722 13.2264 38.2722 17.0221C38.2722 21.881 40.6006 23.2579 40.6006 27.7127C40.6006 32.6195 37.2408 37.7654 31.1061 39.3177ZM18.0126 22.705L19.836 21.3334V29.7009L17.9063 31.1469L15.8277 27.9679V32.7151L14.0043 34.0814V27.3672C14.0043 26.4209 13.1005 26.3943 13.1005 26.3943L15.6842 24.454L18.0126 28.0211V22.705ZM38.2828 10.8767C38.2828 10.8767 35.2526 10.2654 33.8439 6.43247C33.8439 6.43247 31.8397 8.30905 29.0647 8.30905C25.5933 8.30905 23.2861 5.86897 23.2861 5.86897C23.2861 5.86897 20.979 8.30905 17.5076 8.30905C14.7326 8.30905 12.7231 6.43247 12.7231 6.43247C11.3143 10.2654 8.28418 10.8767 8.28418 10.8767C8.28418 10.8767 9.59725 13.5507 9.59725 17.0221C9.59725 22.1681 7.26881 23.6566 7.26881 27.7127C7.26881 33.385 11.6865 36.9893 15.7798 38.0312C19.0227 38.8552 21.1438 38.9509 22.5685 39.6367C22.5685 39.6367 23.0841 40.1098 23.2808 40.3278C23.4722 40.1098 23.9932 39.6367 23.9932 39.6367C25.4179 38.9509 27.539 38.8552 30.7818 38.0312C34.8752 36.9893 39.2928 33.3797 39.2928 27.7127C39.2928 23.6566 36.9644 22.1681 36.9697 17.0221C36.9697 13.5507 38.2828 10.8767 38.2828 10.8767ZM11.0858 17.0168C11.0858 14.8159 10.6073 12.9128 10.198 11.6848C11.1495 11.1638 12.351 10.2335 13.3079 8.63864C14.3339 9.21278 15.7905 9.79223 17.5023 9.79223C20.0965 9.79223 22.1219 8.65991 23.2808 7.80934C24.4397 8.65991 26.4652 9.79223 29.0594 9.79223C29.4741 9.79223 29.8728 9.76033 30.2608 9.69654L9.02843 25.6448C9.63978 23.2419 11.0858 21.259 11.0858 17.0168ZM13.9724 35.7613C11.2559 34.3685 8.87427 31.6838 8.75731 28.0051L33.6791 9.2872C34.5456 10.494 35.545 11.2382 36.3637 11.6901C35.9543 12.9181 35.4759 14.8212 35.4759 17.0221C35.4759 17.9365 35.545 18.7445 35.662 19.4728L13.9724 35.7613ZM37.8043 27.7127C37.8043 32.5238 33.9768 35.6868 30.415 36.5906C27.8473 37.2444 24.7055 37.5794 23.754 38.1216C23.5413 38.2811 23.2808 38.5575 23.2808 38.5575C23.2808 38.5575 23.015 38.2758 22.8024 38.1216C21.8508 37.5794 18.709 37.2444 16.1413 36.5906C16.0457 36.564 15.9446 36.5374 15.849 36.5108L36.0607 21.3281C36.7518 23.7363 37.8043 25.3152 37.8043 27.7127ZM25.4073 17.1444L27.1935 15.8047V24.1775L25.4073 25.5172V22.4551L23.3499 24.0021V27.0642L21.4734 28.4729V21.7534C21.4734 20.8071 20.5696 20.7806 20.5696 20.7806L23.3499 18.6913V21.7853L25.4073 20.2383V17.1444ZM33.9342 16.9849C33.9289 16.9849 33.8173 17.7823 33.9289 19.1219L28.7564 23.008V16.2938C28.7564 15.3422 27.8527 15.321 27.8527 15.321L30.633 13.2317V19.4622L33.9342 16.9849Z" fill="#E4E5E6"/>
</svg>
