<svg width="18" height="18" viewBox="0 0 18 18" fill="none" xmlns="http://www.w3.org/2000/svg">
<path d="M14.3389 12.7368C14.644 11.6842 14.7457 10.6316 14.8474 9.57895H17.9999C17.8982 10.6316 17.6949 11.7895 17.1864 12.7368H14.3389ZM0.813557 12.7368C0.305084 11.6842 0.101695 10.6316 0 9.57895H3.15253C3.15253 10.6316 3.35592 11.6842 3.661 12.7368H0.813557ZM3.661 5.26316C3.35592 6.31579 3.25423 7.36842 3.15253 8.42105H0C0.101695 7.36842 0.406778 6.31579 0.813557 5.26316H3.661ZM7.72879 0.105263H7.83048C8.03387 0.105263 8.23726 0.105263 8.54234 0.105263V4.21053H5.18642C5.79659 2.73684 6.61015 1.26316 7.72879 0.105263ZM13.2203 5.26316C13.5254 6.31579 13.7288 7.36842 13.7288 8.42105H9.45759V5.26316H13.2203ZM9.55929 4.21053V0C9.86437 0 10.0678 0 10.3728 0.105263C11.4915 1.36842 12.305 2.73684 12.9152 4.31579H9.55929V4.21053ZM8.44065 5.26316V8.42105H4.16948C4.16948 7.36842 4.37287 6.31579 4.67795 5.26316H8.44065ZM4.27117 9.57895H8.54234V12.7368H4.88134C4.47456 11.6842 4.27117 10.6316 4.27117 9.57895ZM8.44065 13.7895V18C8.13556 18 7.93218 18 7.62709 17.8947C6.50845 16.6316 5.6949 15.2632 5.08473 13.6842H8.44065V13.7895ZM10.3728 17.8947C10.1695 17.8947 9.86437 17.8947 9.55929 18V13.7895H12.9152C12.305 15.3684 11.3898 16.7368 10.3728 17.8947ZM9.55929 12.7368V9.57895H13.8305C13.8305 10.6316 13.6271 11.6842 13.322 12.7368H9.55929ZM14.8474 8.52632C14.8474 7.47368 14.644 6.42105 14.3389 5.36842H17.1864C17.5932 6.42105 17.8982 7.47368 17.9999 8.52632H14.8474ZM16.5762 4.21053H13.9322C13.4237 2.84211 12.8135 1.68421 12 0.526316C13.9322 1.26316 15.5593 2.52632 16.5762 4.21053ZM5.99998 0.526316C5.18642 1.68421 4.47456 2.94737 4.06778 4.21053H1.42372C2.44067 2.52632 4.06778 1.26316 5.99998 0.526316ZM1.42372 13.7895H4.06778C4.57626 15.1579 5.18642 16.3158 5.99998 17.4737C4.06778 16.8421 2.44067 15.4737 1.42372 13.7895ZM12 17.4737C12.8135 16.3158 13.5254 15.0526 13.9322 13.7895H16.5762C15.5593 15.4737 13.9322 16.8421 12 17.4737Z" fill="#007AA0"/>
<path d="M10.3731 0.105263C10.068 0 9.76296 0 9.55957 0V4.21053H12.9155C12.3053 2.73684 11.3901 1.26316 10.3731 0.105263Z" fill="#005F7E"/>
<path d="M13.2206 5.26316H9.55957V8.42105H13.8307C13.729 7.36842 13.5257 6.31579 13.2206 5.26316Z" fill="#005F7E"/>
<path d="M14.8478 8.52631H18.0004C17.8987 7.36842 17.6953 6.31579 17.1868 5.26316H14.3394C14.6444 6.31579 14.7461 7.36842 14.8478 8.52631Z" fill="#005F7E"/>
<path d="M16.5766 4.21053C15.458 2.52632 13.9326 1.1579 12.0004 0.526318C12.8139 1.68421 13.5258 2.94737 13.9326 4.21053H16.5766Z" fill="#005F7E"/>
<path d="M9.55957 13.7895V18C9.76296 17.8947 10.068 17.8947 10.3731 17.8947C11.4918 16.6316 12.3053 15.2632 12.9155 13.7895H9.55957Z" fill="#005F7E"/>
<path d="M14.3394 12.7368H17.1868C17.5936 11.6842 17.8987 10.6316 18.0004 9.57894H14.8478C14.7461 10.6316 14.6444 11.6842 14.3394 12.7368Z" fill="#005F7E"/>
<path d="M12.0004 17.4737C13.9326 16.7368 15.458 15.4737 16.5766 13.7895H13.9326C13.5258 15.1579 12.9156 16.3158 12.0004 17.4737Z" fill="#005F7E"/>
<path d="M13.7292 9.57894H9.45801V12.7368H13.119C13.5258 11.6842 13.7292 10.6316 13.7292 9.57894Z" fill="#005F7E"/>
</svg>
